<svg width="800" height="545" viewBox="0 0 800 545" fill="none" xmlns="http://www.w3.org/2000/svg">
<path d="M658.669 36.9529C645.523 42.3343 631.479 47.7034 617.055 47.47C610.15 47.3594 603.344 45.7008 597.409 42.1009C592.04 38.8327 587.58 34.3113 582.617 30.4903C577.8 26.7798 572.37 23.782 566.165 23.524C559.887 23.266 553.99 25.8707 548.743 29.0651C543.153 32.4684 538.017 36.6089 532.243 39.705C526.517 42.7889 520.079 44.3861 513.58 44.509C507.019 44.6441 500.372 43.3295 494.426 40.5159C488.221 37.5918 483.614 32.8984 478.367 28.6351C473.858 24.9737 468.845 22.2831 462.973 21.9145C458.427 21.6319 453.881 22.7376 449.679 24.4209C440.353 28.1682 432.281 34.3113 423.546 39.1521C416.125 43.2681 407.07 47.0277 398.85 42.8257C392.855 39.7542 389.341 33.6724 384.193 29.5442C380.138 26.3006 375.26 24.2857 370.125 23.5485C359.829 22.0864 348.673 25.4283 341.4 32.9967C339.581 34.8888 338.033 37.0266 336.817 39.3488C335.785 41.3146 338.77 43.0592 339.802 41.0934C344.68 31.7927 355.087 26.6447 365.382 26.657C370.469 26.657 375.556 27.9348 379.868 30.6746C385.36 34.1394 388.825 39.9384 393.973 43.8209C397.72 46.6468 402.266 48.2072 406.971 48.158C411.468 48.1089 415.793 46.7082 419.86 44.8898C428.866 40.8722 436.741 34.7414 445.452 30.1831C453.881 25.7724 463.452 23.0693 472.15 28.377C477.986 31.9278 482.41 37.3707 488.184 41.032C493.713 44.5213 500.016 46.696 506.491 47.556C512.818 48.3915 519.318 47.9737 525.449 46.1922C531.801 44.3492 537.317 40.8968 542.723 37.1987C547.895 33.6602 553.142 29.7532 559.211 27.9102C565.207 26.0795 571.08 27.1361 576.388 30.3306C581.744 33.5496 586.18 38.071 591.107 41.8674C596.279 45.8482 602.054 48.7478 608.492 50.0256C622.4 52.7777 636.763 48.8952 649.786 44.1281C653.091 42.924 656.359 41.6217 659.615 40.2825C661.618 39.447 660.733 36.1052 658.669 36.9529Z" fill="black"/>
<path d="M708.908 470.795C668.044 470.795 629.883 460.081 596.747 441.345C595.629 440.706 594.511 440.067 593.405 439.403C539.308 407.631 499.107 354.296 484.954 291.574C484.646 290.223 484.352 288.871 484.069 287.508C481.022 272.678 479.4 257.357 479.4 241.68C479.4 212.782 484.868 185.052 494.819 159.497C495.286 158.305 495.753 157.138 496.22 155.958C530.45 72.2146 613.063 12.5645 708.503 12.5645V241.667L708.908 470.795Z" fill="#B5E6EB"/>
<path d="M602.422 407.766C602.164 407.115 601.918 406.488 601.66 405.837C599.658 400.787 597.655 395.738 595.64 390.688C595.222 389.607 594.792 388.526 594.362 387.445C590.726 378.267 587.064 369.077 583.415 359.911C582.899 358.621 582.396 357.331 581.867 356.041C581.13 357.245 580.356 358.437 579.557 359.604C580.061 360.857 580.577 362.122 581.069 363.388C584.337 371.608 587.605 379.815 590.861 388.034C591.303 389.115 591.721 390.197 592.163 391.29C594.51 397.237 596.881 403.183 599.24 409.13C600.198 411.133 603.209 409.781 602.422 407.766ZM581.56 86.3316C580.921 119.492 580.233 152.641 579.496 185.802C578.943 210.952 578.378 236.102 577.776 261.24C577.714 263.476 577.678 265.712 577.616 267.948C578.759 266.068 579.951 264.237 581.204 262.444C581.253 260.416 581.302 258.401 581.351 256.374C582.42 211.173 583.415 165.959 584.337 120.746C584.595 108.017 584.84 95.2883 585.086 82.5597C585.123 81.4048 585.148 80.2621 585.16 79.0949C583.968 79.1932 582.85 79.2915 581.707 79.3775C581.511 79.3898 581.314 79.4144 581.118 79.4267C552.871 81.7611 524.527 83.0143 496.183 83.174C488.184 83.2232 480.198 83.1863 472.2 83.0634C470.983 83.0388 469.865 83.0143 468.747 82.9897C468.735 83.2723 468.71 83.5549 468.698 83.8374C468.636 84.6975 468.6 85.5698 468.538 86.4298C466.511 120.93 464.914 155.454 463.722 189.991C462.223 233.952 461.412 277.961 461.314 321.959C450.391 343.902 439.432 365.845 428.473 387.752C427.477 389.742 430.61 391.204 431.606 389.214C441.508 369.396 451.411 349.578 461.289 329.76C461.252 355.746 461.486 381.744 461.94 407.729C461.99 409.953 465.442 409.953 465.393 407.729C464.902 379.422 464.68 351.102 464.754 322.794C475.75 300.691 486.747 278.576 497.718 256.46C505.201 241.348 512.695 226.224 520.165 211.111C532.956 242.884 545.696 274.668 558.4 306.478C559.162 308.394 559.924 310.286 560.686 312.203C561.079 310.188 561.509 308.186 562.013 306.195C561.3 304.414 560.588 302.608 559.863 300.814C555.759 290.542 551.643 280.259 547.539 269.987C539.123 248.978 530.682 227.956 522.229 206.959C535.867 179.364 549.48 151.768 563.032 124.149C569.2 111.555 575.392 98.9496 581.56 86.3316ZM465.626 313.284C465.344 313.85 465.061 314.427 464.779 314.992C464.852 299.413 465 283.822 465.246 268.255C465.971 221.751 467.457 175.284 469.718 128.83C470.332 116.31 470.983 103.79 471.721 91.2706C485.727 125.758 499.696 160.295 513.604 194.82C515.214 198.825 516.836 202.83 518.445 206.836C500.888 242.331 483.282 277.814 465.626 313.284ZM520.485 202.671C511.147 179.474 501.785 156.29 492.411 133.106C486.12 117.576 479.817 102.034 473.502 86.5036C505.09 86.9705 536.715 86.0982 568.229 83.8743C571.94 83.6163 575.638 83.3337 579.349 83.0266C563.339 115.72 547.269 148.402 531.162 181.071C527.599 188.271 524.048 195.471 520.485 202.671ZM575.024 371.288C574.864 377.149 574.717 383.022 574.545 388.882C574.508 390.012 574.483 391.155 574.459 392.285C574.237 400.358 574.016 408.454 573.795 416.526C573.734 418.762 577.198 418.75 577.248 416.526C577.469 408.479 577.69 400.431 577.899 392.384C577.936 391.253 577.96 390.111 577.985 388.98C578.182 381.584 578.378 374.188 578.562 366.791C578.624 364.801 578.673 362.798 578.722 360.796C577.567 362.442 576.388 364.039 575.147 365.624C575.11 367.504 575.073 369.396 575.024 371.288Z" fill="black"/>
<path d="M202.257 89.4277C202.22 90.5704 202.196 91.7253 202.171 92.868C201.741 113.939 201.348 135.022 201.004 156.093C199.812 228.816 199.149 301.551 198.989 374.274C198.927 400.05 198.927 425.815 199.001 451.604L199.013 455.056C197.858 455.068 196.716 455.068 195.573 455.081C193.841 455.081 192.108 455.093 190.376 455.105C159.12 455.265 127.876 455.425 96.6195 455.585C76.3102 455.695 56.0008 455.806 35.6792 455.904C34.5243 455.916 33.3816 455.916 32.239 455.916C32.2267 455.535 32.2267 455.142 32.2267 454.761C32.2144 453.987 32.2021 453.226 32.1898 452.451C31.8458 429.525 31.5387 406.587 31.2929 383.648C30.7769 334.073 30.4821 284.485 30.4453 234.898C30.3961 186.379 30.5804 137.873 30.9981 89.3418C30.9981 88.9609 31.0104 88.5677 31.0104 88.1869L31.035 85.877C32.1899 85.8525 33.3449 85.8524 34.4875 85.8524C35.7161 85.8279 36.9448 85.8278 38.1734 85.8155C67.9554 85.6313 97.7497 85.9139 127.532 86.6265C151.293 87.2039 175.055 88.064 198.805 89.2189C199.947 89.3049 201.102 89.3663 202.257 89.4277Z" fill="#B5E6EB"/>
<path d="M455.307 270.147C455.245 269.25 454.557 268.378 453.574 268.415C448.721 268.624 441.177 267.211 441.607 260.797C441.669 259.937 442.025 258.647 442.713 258.291C443.401 257.935 444.347 258.07 445.06 257.75C445.711 257.455 446.116 256.816 446.313 256.141C446.694 254.826 446.202 253.561 445.564 252.418C445.318 252 444.74 251.41 444.679 250.931C446.141 250.747 447.431 248.978 446.092 247.798C442.983 245.071 440.28 241.95 438.044 238.534C436.115 234.32 434.174 230.131 432.233 225.966C432.122 225.708 431.963 225.523 431.791 225.388C429.432 220.437 427.073 215.498 424.714 210.534C420.561 201.835 415.401 192.952 413.889 183.307C413.189 178.86 413.582 174.265 415.609 170.21C417.624 166.205 420.475 162.666 421.556 158.231C422.674 153.697 422.244 149.004 421.618 144.434C420.905 139.359 420.057 134.31 419.295 129.235C418.607 124.775 418.275 119.873 415.855 115.929C413.631 112.317 409.921 109.774 406.628 107.181C399.772 101.8 392.388 96.5169 383.788 94.4406C379.586 93.4208 375.175 93.0277 370.9 92.4871C366.44 91.9219 361.967 91.4673 357.483 91.2092C348.821 90.7301 340.012 91.025 331.559 93.1014C327.381 94.1211 323.302 95.6077 319.457 97.5735C317.503 98.581 315.636 99.7483 313.67 100.768C311.593 101.837 309.48 102.82 307.392 103.864C300.094 107.538 292.709 113.017 291.763 121.802C291.591 123.498 291.788 125.205 292.267 126.827C290.277 131.177 289.22 135.956 289.233 140.748C289.233 143.991 289.699 147.272 290.633 150.368C291.616 153.611 293.312 156.376 294.798 159.361C298.779 167.36 299.344 176.28 300.29 185.089C300.13 185.408 300.044 185.789 300.106 186.232C300.351 187.952 300.683 189.659 301.101 191.343C301.556 194.291 302.145 197.191 303.042 200.029C304.603 204.944 306.962 209.576 310.426 213.298C313.658 217.832 317.86 221.567 323.499 223.852C326.779 225.179 330.367 225.757 333.893 225.388C337.64 224.983 341.572 223.582 345.307 224.663C348.882 225.695 350.013 229.332 351.069 232.551C352.273 236.188 352.962 239.984 353.441 243.781C354.399 251.472 354.62 259.311 356.402 266.891C357.815 272.862 360.751 280.849 367.668 282.114C369.523 282.446 371.465 282.433 373.345 282.605C375.753 282.814 378.148 283.072 380.544 283.367C384.992 283.92 389.415 284.645 393.813 285.505C402.5 287.201 410.953 289.977 419.664 291.452C428.215 292.889 437.147 292.754 444.716 288.048C450.945 284.203 455.749 277.703 455.307 270.147Z" fill="white"/>
<path d="M264.561 316.811C264.094 312.953 264.094 309.058 264.205 305.188C264.426 297.349 265.126 289.424 263.553 281.684C262.693 277.47 260.949 273.698 258.897 269.951C257.926 268.194 256.87 266.326 256.182 264.373C256.071 263.549 255.936 262.738 255.813 261.915C255.801 260.613 255.764 259.323 255.69 258.033C255.653 257.517 255.408 257.099 255.039 256.817C254.855 255.551 254.658 254.285 254.474 253.032C254.4 252.578 254.179 252.258 253.86 252.062C254.277 246.238 254.486 240.39 254.523 234.566C255.052 226.285 254.781 217.979 253.688 209.735C253.589 208.924 253.036 208.408 252.422 208.187C253.565 198.125 253.602 187.964 252.52 177.877C252.422 176.833 251.611 176.267 250.8 176.218C249.682 163.551 247.864 150.933 245.321 138.462C245.161 137.701 244.657 137.32 244.104 137.246C241.881 127.429 237.998 118.03 232.604 109.516C232.039 108.619 231.13 108.508 230.417 108.865C228.759 106.383 226.817 104.11 224.618 102.058C223.168 100.485 221.608 98.9865 219.962 97.5736C219.568 97.2541 219.102 97.1435 218.623 97.1804C216.718 94.7968 214.801 92.4133 212.688 90.2141C207.872 85.2012 199.702 81.5399 193.718 86.9336C193.362 87.2531 193.202 87.6216 193.165 87.9656C192.625 88.3342 192.096 88.752 191.605 89.2066C191.433 89.354 191.285 89.4646 191.15 89.5752C190.855 89.2926 190.561 88.9731 190.192 88.6046C188.103 86.5159 186.027 84.4395 183.938 82.3631C183.299 81.7242 182.267 81.8102 181.592 82.2894C179.441 80.8519 177.156 79.5987 174.723 78.6035C171.48 76.0848 167.683 74.5859 163.543 74.1435C162.769 74.0575 162.204 74.5982 161.958 75.2616C161.602 75.3722 161.233 75.4828 160.877 75.6425C157.216 77.2152 154.537 81.2696 155.852 85.1275C155.631 85.2012 155.397 85.275 155.188 85.3487C154.746 85.189 154.242 85.189 153.788 85.4839C153.505 85.6682 153.235 85.877 152.977 86.1105L152.436 86.2947C151.699 86.5405 151.183 87.1548 151.171 87.9534L151.146 88.7643C150.679 90.0666 150.63 91.5164 151.134 92.9294C151.416 93.6911 152.055 94.072 152.706 94.1211C153.37 97.635 155.09 100.94 157.621 103.459C153.517 103.631 149.451 104.343 145.519 105.633C144.684 105.916 144.008 106.837 144.315 107.759C147.669 117.699 158.973 116.875 166.959 119.812C170.694 121.188 172.856 122.896 174.809 126.213C175.031 126.582 175.313 126.815 175.645 126.938C176.112 127.896 176.616 128.855 177.07 129.837C178.913 133.781 180.056 138.032 181.051 142.259C182.918 150.208 184.294 158.342 187.993 165.713C189.922 169.535 192.514 173.061 195.831 175.788C196.139 176.046 196.47 176.181 196.778 176.231C196.864 177.459 196.925 178.7 197.011 179.929C197.035 180.408 197.244 180.801 197.539 181.096C194.947 204.796 191.556 228.398 187.354 251.865C186.346 257.468 185.29 263.046 184.196 268.611C183.803 270.159 183.496 271.72 183.275 273.317C183.152 274.251 183.68 274.963 184.344 275.295C181.604 290.506 178.987 305.753 176.53 321.025C176.345 322.167 176.173 323.322 175.989 324.453C174.785 329.109 174.048 333.876 173.753 338.705C173.728 339.172 173.9 339.54 174.183 339.835C173.655 342.968 173.163 346.101 172.745 349.246C172.647 349.898 172.856 350.426 173.212 350.807C172.696 357.835 173.532 364.875 175.645 371.534C175.559 371.792 175.547 372.062 175.584 372.369C176.444 378.316 179.368 383.857 183.729 387.997C185.597 391.069 188.017 393.772 190.855 395.947C193.952 398.736 197.416 401.119 201.176 402.999C201.618 403.257 201.901 403.429 202.196 403.613C202.319 403.921 202.552 404.203 202.933 404.387C205.304 405.542 207.774 406.243 210.378 406.599C210.636 406.636 210.784 406.673 210.931 406.685C211.189 406.722 211.41 406.685 211.607 406.599C216.767 408.196 222.407 408.356 227.788 407.41C235.565 406.021 242.642 402.36 249.35 398.257C252.164 397.605 254.707 395.947 256.489 393.502C256.685 393.231 256.759 392.961 256.771 392.691C257.054 392.359 257.349 392.04 257.619 391.708C258.283 391.376 258.946 391.057 259.597 390.713C260.31 390.369 260.507 389.644 260.396 388.968C261.49 388.083 262.595 387.187 263.689 386.29C263.873 386.339 264.057 386.363 264.242 386.363C265.175 386.363 266.097 385.823 266.662 385.024C267.645 383.636 267.497 381.879 267.19 380.306C267.104 379.827 266.822 379.508 266.465 379.311C266.576 378.967 266.687 378.623 266.797 378.279C266.981 378.193 267.153 378.095 267.289 377.935C268.787 376.19 269.353 373.966 268.64 371.755C268.91 368.536 269.095 365.636 268.935 362.7C268.923 362.491 268.873 362.319 268.812 362.147C269.561 359.137 270.065 356.09 270.336 352.994C271.024 344.86 269.648 337.071 267.424 329.269C266.318 325.178 265.077 321.062 264.561 316.811Z" fill="white"/>
<path d="M341.953 182.804C341.081 182.3 340.135 182.656 339.594 183.418C338.636 184.77 337.653 186.096 336.547 187.325C335.565 188.419 334.471 189.463 333.402 190.175C330.834 191.883 327.947 192.424 324.802 192.461C322.578 192.485 322.578 195.938 324.802 195.913C328.426 195.876 332.087 195.201 335.147 193.161C338.218 191.109 340.467 188.136 342.592 185.163C343.121 184.401 342.715 183.246 341.953 182.804Z" fill="black"/>
<path d="M398.052 159.718C398.359 158.968 398.482 158.723 398.605 158.501C398.875 157.998 399.17 157.518 399.49 157.052C400.092 156.167 400.694 155.454 401.578 154.533C402.377 153.697 403.237 152.911 404.121 152.162C404.355 151.965 404.588 151.781 404.822 151.584C405.694 150.908 406.136 150.589 406.579 150.27C407.316 149.754 407.734 148.734 407.193 147.911C406.726 147.173 405.62 146.731 404.834 147.296C400.693 150.208 396.479 153.919 394.722 158.809C394.415 159.656 395.066 160.737 395.926 160.934C396.897 161.143 397.72 160.627 398.052 159.718Z" fill="black"/>
<path d="M344.386 154.386C345.098 154.287 345.577 153.808 345.823 153.145C346.671 150.884 346.511 148.291 345.295 146.215C345.135 145.822 344.951 145.429 344.754 145.048C344.472 144.52 343.857 144.188 343.268 144.188C342.715 144.188 342.014 144.507 341.781 145.048C341.646 145.367 341.535 145.674 341.437 145.994C341.314 146.154 341.216 146.35 341.179 146.571C340.958 147.874 340.921 149.127 341.179 150.429C341.4 151.547 341.891 152.629 342.53 153.562C342.862 154.041 343.329 154.336 343.882 154.386C344.029 154.41 344.201 154.41 344.386 154.386Z" fill="black"/>
<path d="M354.767 126.913C345.123 122.527 329.273 123.412 323.88 133.941C322.872 135.919 325.845 137.664 326.865 135.686C329.224 131.091 334.102 128.928 339.017 128.228C343.599 127.589 348.772 127.97 353.023 129.899C355.025 130.82 356.782 127.835 354.767 126.913Z" fill="black"/>
<path d="M501.466 266.117C492.386 261.866 482.385 260.244 472.716 257.922C464.779 256.018 456.879 253.536 449.716 249.531C444.359 246.521 440.218 242.306 437.036 237.072C434.8 233.387 432.92 229.479 430.918 225.671C428.62 221.309 426.347 216.923 424.123 212.524C420.302 204.968 416.666 197.314 413.434 189.5C413.078 189.586 412.685 189.537 412.304 189.254C409.306 187.055 405.842 185.421 403.175 182.767C401.701 181.305 400.951 179.572 400.951 177.484C400.964 175.26 401.676 173.122 401.652 170.898C400.669 170.96 399.698 170.972 398.715 170.886C396.504 170.714 396.491 167.262 398.715 167.434C403.863 167.839 409.159 166.316 412.795 162.507C415.67 159.497 416.948 155.307 415.978 151.228C414.958 146.952 411.8 142.369 407.574 140.735C404.293 139.47 400.669 140.33 398.064 142.64C394.993 145.38 393.518 149.397 393.444 153.464C393.432 154.3 392.953 154.815 392.351 155.024C390.459 159.742 388.075 168.613 381.478 166.377C378.234 165.296 375.691 162.2 374.093 159.3C372.349 156.142 371.391 152.604 370.85 149.053C369.744 141.645 370.26 134.101 371.403 126.741C371.894 123.51 372.607 120.414 372.41 117.133C372.189 113.718 371.083 110.204 368.565 107.771C367.483 106.739 366.193 105.83 364.67 105.719C363.097 105.621 361.5 105.965 359.989 106.371C357.421 107.071 354.067 108.263 352.187 109.86C348.219 112.735 343.107 113.927 338.77 114.467C335.146 114.922 330.563 114.713 328.204 111.789C326.423 113.263 325.01 115.155 323.425 116.851C321.176 119.247 318.559 120.918 315.402 121.864C312.944 122.589 310.205 122.969 307.895 121.655C306.384 120.807 305.229 119.443 304.148 118.067C302.71 120.07 300.855 121.864 298.963 123.301C297.562 124.37 295.744 125.427 293.974 125.5C291.923 131.41 291.702 137.848 292.168 144.04C296.26 142.197 300.929 141.743 305.339 143.119C310.831 144.827 315.353 149.225 317.036 154.754C318.129 158.317 317.515 162.408 317.282 166.021C317.011 169.891 316.458 174.191 317.589 177.963C317.97 179.216 318.547 180.236 319.678 180.752C321.005 181.354 323.228 180.875 324.911 180.322C327.037 179.634 327.946 182.976 325.833 183.651C321.692 185.003 316.901 184.856 314.837 180.408C313.19 176.833 313.436 172.545 313.645 168.711C313.694 167.839 313.756 166.954 313.842 166.058C313.203 166.365 312.404 166.291 311.814 165.763C309.345 163.514 308.485 159.853 309.283 156.658C309.467 155.897 310.192 155.43 310.942 155.393C311.642 155.356 312.49 155.958 312.613 156.658C312.662 156.941 312.711 157.224 312.748 157.494C312.895 157.58 313.018 157.666 313.141 157.776C313.559 158.231 313.891 158.71 314.161 159.214C314.136 158.452 314.087 157.69 313.989 156.941C313.387 152.481 309.308 148.119 304.885 146.596C300.769 145.183 296.284 145.625 292.525 147.653C292.807 149.876 293.25 152.088 293.999 154.214C295.031 157.15 296.616 159.853 297.98 162.63C299.307 165.32 300.29 168.011 300.658 171.009C301.027 173.994 300.867 177.005 300.904 180.002C300.978 185.617 301.69 191.183 303.484 196.515C305.266 201.835 308.128 206.725 311.433 211.222C314.321 215.166 317.478 219.405 321.521 222.231C325.219 224.823 329.445 225.597 333.844 224.651C336.338 224.123 338.66 223.152 341.031 222.28C342.493 221.739 344.09 221.174 345.675 221.469C349.668 222.206 350.922 227.821 352.408 230.868C353.268 232.637 354.202 234.382 355.099 236.151C355.762 237.49 356.426 238.829 357.003 240.205C358.011 242.614 358.809 245.095 359.104 247.725C359.362 249.936 355.885 249.912 355.652 247.725C355.32 244.702 354.055 241.839 352.703 239.112C352.543 238.768 352.372 238.424 352.199 238.08C351.708 237.072 351.192 236.09 350.701 235.082C349.693 233.03 348.685 230.978 347.752 228.877C347.297 227.845 346.83 226.74 346.167 225.806C345.946 225.511 345.712 225.216 345.43 224.983C344.803 224.786 344.189 224.897 343.501 225.093C342.505 225.376 341.559 225.757 340.601 226.125C335.883 227.919 330.932 229.246 325.894 228.03C321.533 226.973 317.896 224.086 314.886 220.879C307.416 212.918 301.125 203.174 298.791 192.412C297.513 186.588 297.55 180.764 297.452 174.83C297.402 171.795 297.034 168.859 295.817 166.058C294.687 163.453 293.225 160.996 292.045 158.415C290.755 155.614 289.932 152.69 289.404 149.717C287.795 150.356 285.951 148.255 287.475 146.965C287.93 146.584 288.397 146.227 288.876 145.896C288.716 144.323 288.618 142.738 288.569 141.153C288.433 137.099 288.63 132.921 289.453 128.904C285.976 128.265 282.696 123.166 282.339 120.18C281.774 115.659 283.888 109.921 287.917 107.378C287.426 106.801 286.959 106.174 286.59 105.486C283.285 99.3059 286.418 91.541 291.161 87.0565C294.294 84.0955 298.557 82.4245 302.366 80.5447C307.158 78.198 311.986 75.9374 316.815 73.6521C325.833 69.3765 334.777 65.2728 344.643 63.3316C349.41 62.3978 354.288 61.8942 359.153 61.931C363.957 61.9679 369.093 62.3242 373.725 63.6879C378.099 64.978 381.846 67.8284 386.306 68.8604C390.398 69.8311 394.428 70.1136 398.236 72.0917C405.559 75.8759 410.412 83.3214 414.872 89.9806C425.008 105.13 431.68 122.429 430.734 140.895C430.291 149.446 426.998 157.211 423.288 164.804C420.081 171.353 416.604 177.975 415.277 185.175C419.455 195.545 424.197 205.189 429.087 214.711C431.249 218.913 433.449 223.115 435.648 227.292C437.442 230.708 439.137 234.185 441.312 237.367C444.666 242.282 449.237 245.599 454.569 248.155C462.199 251.791 470.308 253.88 478.515 255.723C486.906 257.615 495.335 259.458 503.174 263.132C505.213 264.078 503.456 267.051 501.466 266.117Z" fill="black"/>
<path d="M205.403 82.5597C200.231 80.729 195.021 81.7364 190.967 85.4346C187.109 88.9608 184.75 93.9614 182.907 98.7653C181.998 101.124 181.236 103.532 180.536 105.953C179.811 108.447 179.098 111.027 179.073 113.644C179.061 115.929 179.688 118.337 181.641 119.726C183.939 121.36 187.391 121.163 189.935 120.254C196.704 117.846 199.936 110.253 203.732 104.761C204.998 102.93 202 101.198 200.747 103.016C197.786 107.317 195.427 112.71 191.053 115.806C189.246 117.096 186.409 118.067 184.209 117.219C182.637 116.617 182.489 114.824 182.526 113.349C182.649 109.184 184.381 104.773 185.782 100.879C187.268 96.7749 189.136 92.5362 192.06 89.2434C193.498 87.6216 195.23 86.1841 197.319 85.5083C199.727 84.7343 202.135 85.0538 204.482 85.8893C206.583 86.6388 207.492 83.2968 205.403 82.5597Z" fill="black"/>
<path d="M223.255 172.68C217.087 172.606 211.571 168.969 207.688 164.387C203.45 159.374 202.479 152.457 197.761 147.8C193.977 144.065 188.78 141.399 187.22 135.944C186.777 134.42 186.568 132.565 187.428 131.14C188.337 129.629 190.181 129.248 191.815 129.235C194.935 129.223 198.032 130.427 200.784 131.803C203.831 133.327 206.742 135.231 209.15 137.664C210.711 139.249 213.156 136.804 211.595 135.219C207.086 130.661 200.415 126.803 194.014 125.943C191.421 125.599 188.547 125.746 186.36 127.319C184.467 128.67 183.534 130.82 183.423 133.106C183.128 138.917 187.305 143.512 191.471 146.928C194.346 149.274 196.938 151.535 198.634 154.914C200.329 158.305 201.508 161.843 203.757 164.927C208.303 171.144 215.343 176.046 223.267 176.145C225.479 176.157 225.479 172.704 223.255 172.68Z" fill="black"/>
<path d="M257.853 254.888C257.927 245.562 257.521 236.225 256.968 226.912C256.428 217.66 255.727 208.408 255.26 199.145C254.781 189.61 254.474 180.076 253.627 170.567C252.066 153.009 248.135 135.968 241.008 119.812C237.851 112.649 233.858 106.223 228.341 100.621C223.304 95.5095 217.517 91.2216 211.963 86.7125C210.465 85.4962 208.978 84.2552 207.516 82.9897C205.845 81.5399 203.388 83.9726 205.071 85.4347C210.637 90.2386 216.595 94.5635 222.087 99.4534C227.555 104.319 232.285 109.848 235.627 116.396C243.478 131.754 247.864 148.98 249.732 166.058C250.739 175.248 251.12 184.499 251.55 193.739C251.98 203.027 252.607 212.315 253.196 221.592C253.774 230.72 254.278 239.849 254.388 248.99C254.499 258.389 253.872 267.739 253.565 277.126C252.877 298.234 253.381 319.366 253.381 340.474C253.381 342.698 256.833 342.698 256.833 340.474C256.833 321.357 256.415 302.239 256.845 283.122C257.067 273.735 257.779 264.323 257.853 254.888Z" fill="black"/>
<path d="M211.595 110.806C210.502 109.676 209.101 108.938 207.713 108.25C207.037 107.906 206.374 107.575 205.723 107.194C205.391 106.997 205.059 106.801 204.74 106.567C204.408 106.309 204.273 106.186 204.138 106.051C203.487 105.424 202.332 105.351 201.693 106.051C201.078 106.727 200.992 107.833 201.693 108.496C202.885 109.626 204.322 110.388 205.772 111.125C206.435 111.457 207.086 111.789 207.725 112.157C208.032 112.342 208.327 112.538 208.61 112.747C208.892 112.993 209.027 113.116 209.15 113.251C209.777 113.902 210.969 113.927 211.595 113.251C212.234 112.551 212.259 111.506 211.595 110.806Z" fill="black"/>
<path d="M191.409 84.7712C189.492 83.9235 187.735 82.6825 185.99 81.5399C183.41 79.8567 180.818 78.1612 178.152 76.6131C173.348 73.7995 167.29 70.4576 161.504 71.3054C156.27 72.0794 152.105 77.596 153.53 82.8669C154.918 88.0271 160.594 91.2338 164.895 93.7034C167.757 95.3498 170.694 96.8364 173.557 98.4828C175.621 99.6746 178.004 101.075 179.245 102.906C180.486 104.761 183.287 102.722 182.047 100.879C180.879 99.1585 179.11 97.893 177.378 96.7873C175.117 95.3375 172.734 94.0597 170.375 92.7819C166.074 90.4598 160.779 88.0517 157.867 83.9604C156.786 82.4491 156.38 80.8396 156.995 79.1195C157.707 77.1169 159.218 75.3599 161.332 74.8439C166.16 73.6521 171.763 76.9203 175.78 79.2056C178.557 80.7905 181.236 82.5474 183.914 84.292C185.868 85.5698 187.833 86.9705 189.983 87.9288C192.011 88.8134 193.448 85.6681 191.409 84.7712Z" fill="black"/>
<path d="M204.702 188.05C202.159 185.937 199.96 184.032 197.847 182.042C196.864 181.133 195.905 180.187 194.984 179.228C193.485 177.705 192.072 176.145 190.745 174.498C190.02 173.601 189.32 172.692 188.644 171.746C186.752 169.068 185.106 166.205 183.791 163.06C179.7 153.243 179.859 142.443 176.358 132.491C175.559 130.231 174.503 128.191 173.102 126.459C172.021 125.107 170.718 123.952 169.183 122.994C168.679 122.687 168.163 122.392 167.61 122.134C163.47 120.156 158.789 119.542 154.341 118.583C150.299 117.711 146.06 116.495 143.357 113.14C141.219 110.486 140.752 106.862 143.136 104.184C146.207 100.731 151.92 100.35 156.172 100.952C162.106 101.788 167.389 104.736 172.856 106.985C174.884 107.82 173.987 111.162 171.935 110.327C166.173 107.943 160.373 104.503 154.009 104.184C151.368 104.061 144.598 104.638 144.954 108.607C145.224 111.666 149.009 113.583 151.613 114.357C155.828 115.622 160.238 116.089 164.477 117.318C168.298 118.423 172.021 120.168 174.797 123.043C175.105 123.35 175.412 123.694 175.682 124.038C176.321 124.825 176.899 125.636 177.402 126.508C179.294 129.715 180.388 133.413 181.211 137C183.435 146.633 183.963 156.511 188.669 165.406C189.504 167.004 190.463 168.527 191.495 169.977C192.158 170.923 192.871 171.832 193.608 172.717C197.478 177.435 202.171 181.452 206.84 185.396C208.437 186.748 206.361 188.971 204.702 188.05Z" fill="black"/>
<path d="M181.408 111.887C175.879 108.84 170.055 106.334 164.563 103.188C161.578 101.468 158.592 99.6377 155.963 97.3893C154.071 95.7675 151.97 93.7156 151.355 91.3689C151.097 90.3737 151.159 89.4154 151.626 88.4694C152.338 87.0196 153.641 85.9261 154.955 85.0292C156.786 83.7883 155.053 80.7905 153.21 82.0437C150.495 83.8866 147.94 86.4176 147.755 89.8823C147.596 92.8679 149.34 95.5709 151.282 97.6841C156.356 103.201 163.629 106.788 170.239 110.118C173.372 111.703 176.579 113.165 179.651 114.86C181.616 115.954 183.361 112.968 181.408 111.887Z" fill="black"/>
<path d="M192.195 121.323C191.814 120.856 191.679 120.77 191.544 120.684C191.323 120.586 191.114 120.451 190.905 120.316C190.77 120.205 190.659 120.082 190.536 119.947C190.413 119.775 190.303 119.591 190.217 119.406C189.897 118.927 189.738 118.78 189.529 118.669C189.332 118.546 189.111 118.473 188.89 118.46C188.656 118.411 188.435 118.423 188.202 118.485C187.784 118.62 187.379 118.878 187.17 119.284C186.912 120.008 186.912 120.303 186.998 120.61C187.145 120.979 187.293 121.348 187.526 121.679C187.747 121.999 187.981 122.318 188.263 122.589C188.534 122.859 188.853 123.105 189.172 123.326C189.504 123.547 189.873 123.694 190.241 123.854C190.475 123.928 190.696 123.94 190.93 123.891C191.163 123.879 191.372 123.817 191.568 123.682C191.765 123.571 191.937 123.424 192.047 123.24C192.195 123.068 192.305 122.871 192.355 122.65C192.478 122.22 192.453 121.716 192.195 121.323Z" fill="black"/>
<path d="M199.837 118.35C199.702 117.944 199.444 117.502 199.038 117.318C198.719 117.17 198.436 116.998 198.154 116.802C197.896 116.593 197.662 116.347 197.441 116.089C197.257 115.819 197.085 115.524 196.95 115.217C196.839 115.02 196.692 114.848 196.508 114.738C196.336 114.59 196.139 114.48 195.918 114.43C195.5 114.32 194.947 114.369 194.591 114.602C194.222 114.836 193.903 115.192 193.792 115.634C193.731 116.409 193.804 116.691 193.964 116.961C194.284 117.686 194.763 118.362 195.316 118.915C195.635 119.234 196.004 119.529 196.385 119.787C196.667 119.984 196.974 120.156 197.294 120.303C197.49 120.426 197.712 120.5 197.933 120.512C198.166 120.561 198.387 120.549 198.621 120.488C199.026 120.377 199.456 120.07 199.653 119.689C199.874 119.283 199.972 118.792 199.837 118.35Z" fill="black"/>
<path d="M222.357 140.195C220.686 139.912 218.979 139.728 217.332 139.31C216.939 139.212 216.546 139.089 216.153 138.954C215.146 138.499 214.949 138.389 214.765 138.278C213.917 137.59 213.769 137.43 213.622 137.258C213.032 136.57 211.779 136.607 211.177 137.258C210.501 137.996 210.55 138.966 211.177 139.703C213.72 142.664 217.848 142.935 221.436 143.537C222.321 143.684 223.34 143.303 223.561 142.333C223.746 141.485 223.303 140.354 222.357 140.195Z" fill="black"/>
<path d="M289.208 368.438C286.997 370.096 284.846 371.853 282.77 373.672C274.28 381.019 266.478 389.214 257.079 395.443C248.528 401.107 240.124 407.889 229.988 410.42C210.662 415.249 191.114 403.822 180.142 388.403C174.282 380.147 170.977 370.637 170.203 360.562C169.343 349.455 171.05 338.312 172.893 327.389C174.835 315.852 176.432 304.266 178.3 292.717C180.327 280.173 182.575 267.641 184.553 255.084C185.855 246.852 187.17 238.62 188.522 230.389C188.706 229.246 188.89 228.103 189.087 226.973C189.578 223.938 190.094 220.916 190.598 217.881C192.392 207.155 193.915 196.343 194.321 185.47C194.37 184.131 194.407 182.791 194.407 181.465C194.419 181.145 194.419 180.826 194.419 180.506C194.419 179.929 194.652 179.499 194.996 179.228C195.979 178.43 197.872 178.86 197.872 180.506C197.872 181.01 197.859 181.526 197.859 182.042C197.847 182.583 197.835 183.123 197.822 183.651C197.798 184.978 197.749 186.305 197.687 187.632C197.663 188.234 197.626 188.824 197.589 189.414C196.876 201.589 194.837 213.642 192.748 225.646C192.662 226.101 192.601 226.543 192.515 226.998C192.318 228.14 192.121 229.283 191.937 230.425C190.18 241.004 188.608 251.607 186.875 262.186C184.873 274.46 182.686 286.697 180.757 298.971C179.848 304.795 179.098 310.655 178.189 316.479C177.378 321.651 176.432 326.799 175.621 331.96C173.913 342.587 172.5 353.645 174.061 364.383C175.449 374.003 179.688 382.96 185.991 390.344C191.962 397.347 199.678 403.048 208.462 405.96C217.825 409.056 227.666 408.638 236.573 404.301C241.095 402.102 245.272 399.252 249.413 396.438C253.897 393.379 258.443 390.455 262.645 387.015C271.11 380.048 278.642 372.025 287.451 365.452C289.245 364.137 290.977 367.135 289.208 368.438Z" fill="black"/>
<path d="M690.442 236.102C698.514 231.298 716.354 230.806 750.94 241.692C785.526 252.578 795.355 299.905 795.355 299.905C795.355 299.905 767.182 287.827 756.825 280.332C746.467 272.838 740.791 273.71 740.791 273.71C740.791 273.71 681.559 348.079 645.707 366.865C609.856 385.651 601.391 392.482 578.034 388.98C554.678 385.466 559.003 392.74 559.003 392.74C559.003 392.74 545.07 305.777 578.821 261.928C612.571 218.078 649.872 242.171 658.633 239.53C667.356 236.888 690.442 236.102 690.442 236.102Z" fill="white"/>
<path d="M692.088 368.229C675.44 364.69 641.223 375.429 617.436 391.364C593.638 407.299 590.37 444.404 591.058 443.532C591.746 442.659 613.726 443.31 637.733 442.586C661.741 441.861 688.377 454.233 711.083 464.32C733.788 474.419 789.236 515.566 789.236 515.566C789.236 515.566 776.36 481.73 766.973 458.816C757.586 435.89 728.775 391.806 721.563 383.095L707.814 372.812L692.088 368.229Z" fill="white"/>
<path d="M797.05 308.308C793.696 305.04 790.182 301.932 786.521 299.02C773.841 288.957 759.282 281.266 743.875 276.352C739.747 280.296 735.741 284.375 731.822 288.527C720.076 300.998 708.625 313.714 696.29 325.608C683.868 337.562 670.919 349.074 657.305 359.653C644.196 369.838 630.214 379.028 614.697 385.122C608.517 387.543 602.128 389.447 595.628 390.688C594.473 390.909 593.318 391.118 592.163 391.29C587.445 392.027 582.679 392.396 577.911 392.371C576.757 392.359 575.602 392.335 574.459 392.273C571.461 392.138 568.451 391.831 565.478 391.364C563.278 391.02 564.224 387.69 566.399 388.034C569.102 388.464 571.83 388.747 574.557 388.87C575.712 388.931 576.867 388.956 578.01 388.968C582.31 388.98 586.61 388.661 590.874 388.022C592.053 387.862 593.195 387.666 594.363 387.445C603.737 385.688 612.903 382.53 621.454 378.439C636.665 371.177 650.352 361.139 663.301 350.426C676.743 339.319 689.655 327.549 701.942 315.189C713.909 303.16 724.966 290.272 736.945 278.256C742.892 272.309 749.109 266.621 755.78 261.498C759.417 258.696 764.381 255.662 769.197 255.453C765.13 251.877 760.707 248.695 756.001 245.98C745.583 239.997 733.898 236.237 721.993 234.787C716.108 234.074 710.149 233.89 704.215 234.247C697.801 234.64 691.547 235.844 685.244 237.134C678.536 238.51 671.84 239.665 664.984 239.714C664.665 239.714 664.333 239.689 664.002 239.689C656.126 245.808 648.668 252.455 641.714 259.593C627.032 274.681 614.611 291.968 605.31 310.888C600.248 321.172 596.771 332.021 592.458 342.624C589.964 348.73 586.942 354.468 583.416 359.911C582.654 361.078 581.867 362.233 581.081 363.376C580.27 364.518 579.447 365.661 578.587 366.779C577.445 368.302 576.265 369.801 575.024 371.288C567.861 379.901 560.01 388.01 551.913 395.553C544.517 402.434 535.29 409.019 524.638 407.103C522.451 406.709 523.385 403.38 525.559 403.773C527.955 404.203 530.4 404.105 532.747 403.527C542.969 401.058 550.66 392.089 557.749 384.926C563.831 378.77 569.852 372.467 575.172 365.624C576.4 364.051 577.592 362.442 578.747 360.796C579.029 360.402 579.287 360.009 579.57 359.604C580.369 358.437 581.143 357.257 581.88 356.041C584.128 352.429 586.118 348.669 587.839 344.762C590.296 339.208 592.262 333.459 594.375 327.782C598.073 317.843 602.472 308.198 607.718 298.983C618.075 280.775 631.369 264.213 646.666 249.912C650.523 246.299 654.517 242.847 658.608 239.53C654.394 239.296 650.192 238.891 645.965 238.461C633.507 237.195 620.484 235.635 608.369 239.751C597.533 243.437 588.932 251.668 582.371 260.797C581.978 261.338 581.597 261.878 581.216 262.431C579.975 264.225 578.772 266.056 577.629 267.936C572.874 275.737 569.028 284.129 565.994 292.729C564.433 297.14 563.107 301.637 562.013 306.183C561.522 308.173 561.079 310.176 560.686 312.191C557.209 329.748 557.074 347.969 560.514 365.563C560.944 367.737 557.602 368.659 557.172 366.472C556.582 363.425 556.091 360.353 555.685 357.269C553.486 340.339 554.469 323.052 558.401 306.465C558.843 304.561 559.322 302.681 559.851 300.801C561.558 294.707 563.647 288.724 566.141 282.913C569.274 275.59 573.107 268.083 577.788 261.227C578.931 259.556 580.111 257.935 581.364 256.35C590.026 245.292 601.231 236.667 615.667 234.431C628.678 232.416 641.739 234.812 654.713 235.819C657.404 236.028 660.094 236.175 662.785 236.225C662.797 236.212 668.302 236.126 668.302 236.126C670.538 236.028 672.774 235.844 674.998 235.512C682.087 234.48 689.004 232.6 696.093 231.593C720.322 228.177 746.136 233.644 765.917 248.327C784.346 262.014 797.087 283.011 799.556 305.925C800.994 307.51 798.61 309.832 797.05 308.308Z" fill="black"/>
<path d="M791.545 516.082C791.324 515.431 791.103 514.78 790.881 514.141C784.468 495.294 776.973 476.791 768.459 458.791C759.662 440.214 749.784 422.178 738.849 404.781C733.689 396.561 728.553 387.936 721.722 380.97C715.063 374.2 706.561 369.851 697.26 368.02C677.049 364.015 656.838 371.177 638.261 378.537C629.181 382.137 620.286 386.376 612.939 392.924C608.651 396.745 604.965 401.156 601.648 405.837C600.825 406.967 600.063 408.098 599.289 409.253C597.95 411.268 596.647 413.32 595.394 415.384C594.165 417.399 592.949 419.414 591.757 421.441C590.615 423.358 593.6 425.09 594.743 423.186C599.461 415.236 604.24 407.201 610.433 400.308C616.871 393.158 624.771 388.12 633.519 384.226C642.696 380.146 652.317 376.62 661.986 373.905C671.385 371.251 681.128 369.666 690.896 370.563C699.877 371.386 708.883 374.409 715.861 380.257C723.16 386.363 728.271 394.62 733.345 402.544C744.095 419.315 753.875 436.713 762.635 454.626C770.793 471.311 778.042 488.426 784.345 505.897C772.059 490.502 759.502 475.316 746.712 460.364C739.021 451.37 731.281 442.389 723.307 433.641C716.254 425.938 708.87 418.48 700.602 412.066C692.677 405.923 683.892 400.738 674.248 397.863C663.792 394.743 652.747 394.681 642.18 397.261C619.598 402.753 601.746 418.59 586.413 435.263C585.848 435.877 585.295 436.479 584.742 437.106C575.466 437.118 566.177 437.278 556.913 437.462C554.702 437.499 554.689 440.951 556.913 440.915C565.145 440.755 573.389 440.607 581.633 440.571C581.289 440.951 580.945 441.332 580.614 441.713C579.139 443.372 581.584 445.829 583.059 444.158C584.115 442.954 585.197 441.75 586.278 440.558C610.752 440.571 635.226 441.787 659.123 447.254C690.33 454.368 718.798 469.394 745.349 486.915C760.276 496.768 774.664 507.384 789.039 518.036C789.284 518.22 789.567 518.318 789.837 518.318C790.845 518.331 791.901 517.164 791.545 516.082ZM710.197 462.342C696.019 455.228 681.202 449.318 665.819 445.338C649.171 441.025 632.019 438.875 614.868 437.88C606.39 437.401 597.888 437.18 589.398 437.13C602.545 422.903 617.165 409.499 635.607 402.852C645.928 399.129 657.096 397.691 667.933 399.854C677.577 401.77 686.472 406.206 694.471 411.821C702.838 417.681 710.259 424.795 717.25 432.204C724.953 440.362 732.288 448.913 739.623 457.403C754.158 474.247 768.385 491.374 782.257 508.772C759.232 491.805 735.802 475.181 710.197 462.342Z" fill="black"/>
<path d="M614.095 408.982L613.087 409.216L609.794 409.99L540.5 426.245L539.296 426.527L543.227 436.123L548.068 445.276L556.324 462.305L581.13 519.51L581.401 520.088H342.776L282.77 373.672L264.77 389.705C264.77 389.705 269.365 361.828 264.77 345.536C260.163 329.232 256.784 327.487 256.784 327.487L255.838 292.25L257.239 249.752C257.239 249.752 261.183 233.448 280.62 228.595C304.037 222.734 350.688 235.082 350.688 235.082L354.62 242.417L357.003 245.427C357.003 245.427 354.78 271.314 383.947 271.511C425.856 271.806 450.023 244.223 450.023 244.223C450.023 244.223 450.81 244.395 456.916 245.968C480.026 251.951 536.703 267.678 550.046 281.487C566.94 298.946 601.28 380.441 607.091 391.499C612.927 402.581 614.095 408.982 614.095 408.982Z" fill="black"/>
<path d="M615.507 518.368C614.315 519.498 613.148 520.653 611.981 521.82H2.82531C0.5892 521.82 0.601487 518.368 2.82531 518.368H615.507Z" fill="black"/>
<path d="M640.436 505.135C635.816 511.635 630.693 515.861 625.14 518.589C612.399 522.066 599.154 521.07 586.364 520.948C570.318 520.8 554.235 520.813 538.202 520.088C529.798 519.707 520.386 520.518 512.019 519.621C510.177 519.436 506.97 519.633 505.139 519.4C502.915 520.309 502.657 519.51 500.802 520.088C499.635 520.469 498.468 520.8 497.276 521.095C485.874 524.019 473.797 524.019 462.358 520.935C461.511 520.935 460.638 520.96 459.79 521.009C458.119 521.095 456.461 521.292 454.802 521.55C453.574 521.746 452.689 523.245 451.915 524.191C448.106 528.786 445.108 534.094 443.093 539.721C442.651 540.925 441.14 541.22 440.28 540.618C439.665 541.257 438.953 541.785 438.105 542.166C435.402 543.37 431.864 542.854 430.365 540.09C429.898 539.217 430.217 538.308 430.893 537.829L430.033 536.969C429.406 537.424 428.755 537.792 428.067 538.148C427.785 538.554 427.342 538.873 426.777 538.91C426.544 538.922 426.31 538.947 426.064 538.959C423.927 539.611 421.641 539.758 419.344 539.303C417.956 539.033 417.845 537.62 418.484 536.699C417.538 536.367 416.616 535.962 415.818 535.409C415.019 534.856 414.245 534.094 413.692 533.246C413.471 533.381 413.25 533.516 413.041 533.664C414.049 534.278 414.638 535.519 413.582 536.465C410.252 539.439 405.387 538.542 402.266 535.716C399.035 532.804 398.42 528.221 398.285 523.995C396.565 523.958 394.87 522.963 393.85 521.5C393.543 521.058 393.272 520.591 393.039 520.1C391.933 517.729 391.614 514.804 391.196 512.347C390.139 505.897 389.931 499.361 390.569 492.873C389.623 492.542 388.948 491.51 389.66 490.453C393.358 484.973 399.612 482.836 405.903 481.988C412.66 481.079 419.553 481.152 426.347 480.624C434.223 480.01 442.086 479.15 449.912 478.105C460.823 476.643 471.683 474.825 482.532 472.908C482.741 472.65 483.036 472.454 483.478 472.392C488.983 471.434 494.499 470.537 500.028 469.714C518.138 467.011 536.359 465.008 554.629 463.73C555.083 463.681 555.525 463.657 555.98 463.632C554.653 461.457 555.218 459.934 554.075 457.649C554.051 457.587 553.523 456.064 553.498 456.002L547.171 445.301L539.32 426.54L613.111 409.228C613.59 410.309 614.008 411.403 614.377 412.533C614.659 413.418 614.242 414.106 613.591 414.438C615.888 417.915 618.173 421.404 620.471 424.893C622.437 429.501 624.132 432.744 626.639 438.248C630.791 447.426 634.268 455.204 638.126 463.423C640.227 467.895 642.943 475.046 644.245 479.874C646.764 489.187 646.284 496.965 640.436 505.135Z" fill="white"/>
<path d="M592.274 461.47C591.758 461.371 591.242 461.31 590.713 461.261C582.015 460.487 573.291 463.055 564.666 463.816C553.83 464.787 542.944 465.401 532.083 466.249C510.533 467.969 489.253 471.765 467.998 475.623C457.493 477.54 446.988 479.445 436.422 481.079C431.839 481.779 427.219 482.614 422.587 482.922C419.159 483.155 415.707 483.118 412.279 483.241C406.013 483.462 399.133 484.187 394.685 489.126C393.481 490.478 392.535 492.062 391.798 493.721C391.663 494.151 391.614 494.311 391.564 494.458C391.466 494.815 391.392 495.183 391.331 495.552C391.012 497.309 390.913 499.606 390.913 501.621C390.889 506.757 391.319 512.065 392.805 517.004C393.334 518.773 394.12 520.714 395.238 521.894C395.595 522.262 395.435 522.152 395.914 522.397C395.938 522.41 396.356 522.545 396.43 522.557C396.59 522.582 396.897 522.52 397.081 522.471C397.339 522.385 397.474 522.348 397.732 522.201C398.199 519.461 398.826 516.746 399.563 514.067C400.927 509.116 402.413 503.919 404.809 499.275C404.674 499.201 404.539 499.115 404.416 498.992C404.256 498.832 404.134 498.648 404.06 498.439C403.961 498.23 403.9 497.997 403.912 497.776V495.736C403.912 495.281 404.109 494.864 404.416 494.52C404.723 494.188 405.19 494.041 405.632 494.016C405.878 494.016 406.087 494.065 406.296 494.163C406.517 494.237 406.701 494.36 406.849 494.52C407.021 494.679 407.131 494.864 407.205 495.073C407.439 494.999 407.586 494.765 407.758 494.532C415.339 484.617 427.92 483.204 439.53 482.491C441.754 482.356 441.729 485.809 439.53 485.944C433.608 486.313 427.588 486.767 421.924 488.635C417.427 490.133 413.422 492.763 410.535 496.535C406.775 501.462 404.981 507.703 403.286 513.564C402.266 517.028 401.394 520.567 400.878 524.154C400.509 526.759 400.288 529.216 401.406 531.649C402.327 533.688 403.851 535.728 405.89 536.736C408.041 537.817 409.724 536.76 410.915 534.856C411.395 534.069 412.193 533.922 412.869 534.131C410.633 528.958 411.886 522.717 413.385 517.495C414.306 514.252 415.462 511.069 416.42 507.826C417.157 505.344 417.931 502.874 419.024 500.528C421.089 496.117 424.59 493.008 428.927 490.92C435.353 487.836 442.565 485.661 449.691 485.17C451.915 485.022 451.903 488.475 449.691 488.622C442.848 489.089 435.55 491.264 429.492 494.495C425.954 496.387 423.423 499.017 421.813 502.702C420.867 504.84 420.253 507.101 419.577 509.337C418.754 512.065 417.808 514.755 416.997 517.471C415.474 522.545 413.705 529.044 416.653 533.946C419.209 538.161 424.332 539.967 428.485 536.932C428.534 536.244 428.436 535.63 428.387 535.028C428.006 530.31 429.406 525.309 430.819 520.862C432.355 516.045 434.259 511.106 437.11 506.892C439.997 502.641 444.42 500.245 449.2 498.587C454.176 496.854 459.41 495.97 464.619 495.343C466.831 495.073 466.794 498.537 464.619 498.795C459.078 499.471 453.438 500.503 448.254 502.616C445.772 503.624 443.314 504.963 441.459 506.941C439.899 508.588 438.793 510.689 437.786 512.704C435.525 517.237 433.83 522.139 432.712 527.091C431.839 530.936 430.807 536.146 433.399 539.586C434.689 541.318 436.901 541.711 438.855 540.864C440.894 539.991 442.123 537.755 443.069 535.876C444.998 532.054 446.177 527.742 448.573 524.154C451.129 520.333 455.33 520.223 459.545 520.493C466.695 520.948 473.772 522.017 480.947 522.066C486.341 522.103 491.538 521.414 496.588 519.805C497.854 519.399 499.107 518.945 500.372 518.417C500.741 518.269 501.122 518.109 501.49 517.95L506.282 518.048L510.091 518.122C507.388 519.105 504.771 520.309 502.117 521.427C499.721 522.447 497.313 523.368 494.794 524.007C486.968 525.973 478.773 525.739 470.799 525.027C467.04 524.695 463.317 524.191 459.545 523.958C457.505 523.835 454.937 523.491 453.033 524.498C451.608 525.248 450.883 526.992 450.207 528.393C449.212 530.445 448.303 532.521 447.418 534.622C445.477 539.205 442.897 544.169 437.38 544.697C433.768 545.041 431.249 542.977 429.812 540.176C424.381 543.788 417.575 541.429 414.048 536.269C412.132 539.402 409.281 541.331 405.866 540.409C402.856 539.598 400.447 537.043 398.948 534.413C397.413 531.735 396.897 528.958 397.192 525.899C392.117 526.145 390.115 520.505 389.156 516.918C387.743 511.561 387.289 505.835 387.424 500.307C387.486 498.144 387.608 495.908 388.112 493.783C388.788 490.895 390.704 488.094 392.793 486.018C397.867 480.943 405.215 479.997 412.046 479.739C415.658 479.616 419.283 479.653 422.883 479.395C427.92 479.027 432.945 478.105 437.933 477.307C449.126 475.537 460.282 473.461 471.45 471.446C482.557 469.419 493.688 467.453 504.857 465.819C516.148 464.185 527.476 463.042 538.841 462.219C549.665 461.433 560.661 461.162 571.399 459.516C577.936 458.509 585.037 456.936 591.733 457.845C591.807 458.238 591.868 458.631 591.93 459.025C592.089 459.885 592.188 460.683 592.274 461.47Z" fill="black"/>
<path d="M640.436 505.135C635.817 511.635 630.693 515.861 625.14 518.589C612.608 524.769 597.938 523.307 582.199 522.999C555.501 522.496 528.815 521.98 502.13 521.476C500.839 521.451 499.549 521.427 498.259 521.402C497.854 521.39 497.534 521.279 497.264 521.095C496.932 520.837 496.723 520.469 496.625 520.088C497.854 519.461 499.119 519.006 500.372 518.49C500.741 518.343 501.122 518.183 501.491 518.023L506.282 518.122L510.091 518.196L513.015 518.257L543.657 518.847C556.14 519.08 568.623 519.314 581.106 519.535C582.039 519.559 582.973 519.572 583.907 519.596C596.771 519.842 600.875 520.862 613.542 517.925C623.457 515.628 633.396 510.406 638.753 501.4C641.653 496.522 642.402 492.038 641.395 486.435C638.262 469.026 628.715 452.144 621.503 436.369C615.888 424.082 612.694 416.858 609.782 410.014L613.075 409.24L614.082 409.007C615.077 411.194 616.048 413.528 616.994 416.133C618.321 419.757 619.414 422.51 620.434 424.905C622.4 429.513 624.096 432.756 626.602 438.261C630.755 447.439 634.232 455.216 638.09 463.435C640.191 467.908 642.906 475.058 644.208 479.887C646.764 489.187 646.285 496.965 640.436 505.135Z" fill="black"/>
<path d="M558.978 464.062L555.317 464.332C554.789 463.263 554.26 462.182 553.732 461.101C549.825 453.14 545.918 445.178 542.023 437.216L537.17 427.019L540.5 426.232C540.635 426.515 540.77 426.798 540.917 427.08C545.795 437.02 550.661 446.959 555.538 456.911C556.177 458.214 556.803 459.528 557.442 460.843C557.946 461.924 558.462 462.993 558.978 464.062Z" fill="black"/>
<path d="M268.333 228.349C268.321 228.017 268.32 227.686 268.32 227.354C268.124 209.858 268.026 192.375 267.964 174.879C267.903 158.87 267.903 142.861 267.964 126.852V125.992C267.964 125.144 267.964 124.284 267.976 123.436H265.593H264.524C239.177 123.387 213.818 123.301 188.472 123.129C160.152 122.933 131.832 122.674 103.499 122.306C103.168 122.306 102.824 122.294 102.492 122.294C101.669 122.281 100.87 122.281 100.047 122.269C100.047 123.117 100.035 123.952 100.035 124.8V125.697C99.9489 154.471 100.035 183.258 100.281 212.033C100.317 216.689 100.366 221.334 100.403 226.002C100.403 226.297 100.44 229.43 100.44 229.43L101.816 229.455L103.917 229.492C120.086 229.713 136.243 229.897 152.411 230.081C183.287 230.389 214.174 230.61 245.062 230.72C251.685 230.745 258.295 230.77 264.905 230.782H265.765C266.625 230.794 267.497 230.794 268.37 230.794C268.345 229.971 268.333 229.16 268.333 228.349ZM264.745 215.694C264.782 219.183 264.807 222.673 264.843 226.162C247.458 215.203 230.11 204.219 212.786 193.198C204.211 187.743 195.635 182.263 187.071 176.796C206.262 164.853 225.417 152.837 244.559 140.797C251.218 136.595 257.865 132.405 264.524 128.191C264.426 157.346 264.487 186.526 264.745 215.694ZM136.685 126.127C167.573 126.446 198.448 126.668 229.336 126.778C239.632 126.815 249.915 126.84 260.199 126.852C242.888 137.811 225.527 148.697 208.154 159.57C200.058 164.632 191.961 169.694 183.852 174.732C167.524 164.301 151.207 153.82 134.928 143.316C125.897 137.492 116.892 131.668 107.873 125.808C117.481 125.918 127.089 126.016 136.685 126.127ZM103.499 171.218C103.45 156.486 103.45 141.767 103.499 127.036C124.755 140.834 146.047 154.57 167.388 168.257C171.799 171.083 176.222 173.921 180.633 176.734C163.653 187.313 146.649 197.854 129.62 208.347C121.044 213.63 112.456 218.913 103.868 224.184C103.659 206.529 103.549 188.873 103.499 171.218ZM204.186 227.084C173.31 226.875 142.435 226.568 111.547 226.174C110.134 226.15 108.709 226.138 107.271 226.113C126.93 214.06 146.538 201.946 166.135 189.795C172.032 186.133 177.93 182.46 183.815 178.798C204.296 191.896 224.814 204.931 245.369 217.93C250.345 221.076 255.309 224.209 260.285 227.342C241.585 227.292 222.898 227.206 204.186 227.084Z" fill="#8256E1"/>
<path d="M194.394 181.465C191.949 179.904 189.504 178.344 187.072 176.783C188.288 176.022 189.529 175.26 190.745 174.486C191.703 173.896 192.662 173.294 193.62 172.704C192.883 171.82 192.183 170.911 191.507 169.965C190.561 170.554 189.603 171.144 188.644 171.734C187.059 172.729 185.45 173.724 183.853 174.719C167.524 164.288 151.208 153.808 134.941 143.303C125.923 137.48 116.904 131.644 107.886 125.795C117.482 125.918 127.09 126.029 136.685 126.127C148.824 126.25 160.963 126.373 173.102 126.446C174.527 126.471 175.965 126.483 177.415 126.483C176.911 125.623 176.333 124.8 175.694 124.014C175.424 123.67 175.117 123.338 174.81 123.019C172.942 123.006 171.062 122.994 169.183 122.969C147.288 122.797 125.394 122.576 103.5 122.306C103.168 122.306 102.824 122.294 102.48 122.294C101.657 122.281 100.859 122.281 100.035 122.269C100.035 123.105 100.023 123.94 100.023 124.788V125.672C99.9372 154.447 100.023 183.246 100.269 212.021C100.306 216.677 100.355 221.321 100.392 225.978C100.392 226.273 100.428 229.406 100.428 229.406L101.805 229.43L103.906 229.467C120.074 229.688 136.231 229.885 152.4 230.057C164.44 230.18 176.481 230.29 188.522 230.364C189.664 230.376 190.807 230.389 191.937 230.401C192.121 229.246 192.318 228.103 192.515 226.973C191.372 226.973 190.217 226.961 189.087 226.948C163.249 226.752 137.398 226.482 111.548 226.138C110.147 226.113 108.709 226.101 107.284 226.076C126.942 214.023 146.551 201.921 166.148 189.758C172.045 186.109 177.943 182.435 183.828 178.762C187.317 180.998 190.807 183.234 194.308 185.445C195.426 186.17 196.544 186.883 197.675 187.595C197.748 186.268 197.785 184.942 197.81 183.615C196.679 182.927 195.537 182.189 194.394 181.465ZM129.596 208.347C121.02 213.63 112.432 218.913 103.844 224.184C103.647 206.516 103.549 188.873 103.488 171.205C103.439 156.486 103.439 141.755 103.488 127.024C124.743 140.821 146.035 154.557 167.377 168.244C171.787 171.07 176.21 173.908 180.609 176.722C163.629 187.313 146.625 197.854 129.596 208.347Z" fill="white"/>
<path d="M196.63 120.487C195.918 119.824 195.119 119.234 194.284 118.731C193.743 118.288 193.301 117.957 192.822 117.662C191.003 116.04 188.816 115.303 186.838 116.04C186.064 116.322 185.352 116.789 184.75 117.355C184.504 117.527 184.258 117.723 184.037 117.944C183.693 118.202 183.386 118.497 183.115 118.817C182.329 119.603 182.182 119.763 182.022 119.935C179.393 122.969 180.032 127.822 183.337 130.083C186.359 132.147 190.856 131.398 193.08 128.547C194.149 128.093 195.082 127.368 195.721 126.385C196.065 125.844 196.286 125.242 196.385 124.628C196.471 124.468 196.557 124.309 196.63 124.149C197.196 122.932 197.773 121.544 196.63 120.487Z" fill="#8256E1"/>
<path d="M108.906 127.994C108.906 128.855 108.132 129.715 107.21 129.653C105.269 129.555 103.34 129.444 101.399 129.334C100.453 129.285 99.5067 129.235 98.5606 129.174C97.6515 129.125 96.6442 129.174 95.7596 128.928C94.7153 128.633 93.9041 127.847 93.6338 126.803C93.4127 125.967 93.4988 125.07 93.5111 124.21C93.548 122.343 93.5726 120.475 93.5972 118.608C93.5972 118.067 93.8796 117.576 94.2973 117.281C94.1745 117.047 94.1009 116.789 94.1009 116.544C94.1009 115.61 94.8747 114.946 95.7962 114.885C99.5927 114.652 103.389 114.615 107.186 114.787C108.095 114.836 108.881 115.524 108.881 116.445C108.894 120.303 108.894 124.149 108.906 127.994Z" fill="black"/>
<path d="M1.27782 518.368L0 289.265C0.430021 289.265 0.847804 289.265 1.27782 289.265C126.967 289.265 230.381 392.691 230.381 518.368H1.27782Z" fill="black"/>
<path d="M720.653 144.298C718.859 141.657 716.07 139.9 713.146 138.745C712.434 138.462 711.697 138.241 710.959 138.069C710.873 137.553 710.628 137.111 710.247 136.792C710.529 116.077 710.812 95.3497 711.107 74.6227C711.143 71.8951 711.193 69.1676 711.217 66.4401C711.242 64.6831 709.878 63.7862 708.502 63.7862C707.126 63.7862 705.75 64.6708 705.725 66.4401C705.676 69.3519 705.639 72.2761 705.602 75.2002C705.32 96.1484 705.013 117.084 704.73 138.02C701.72 138.659 699.017 140.281 697.272 142.935C693.93 147.702 693.967 154.496 697.309 159.091C699.926 162.679 704.153 164.743 708.502 164.841C709.669 164.878 710.836 164.755 711.991 164.497C717.36 163.268 721.55 158.379 722.349 152.997C722.791 150.048 722.373 146.829 720.653 144.298ZM717.016 151.695C716.955 152.149 716.918 152.346 716.869 152.555C716.783 152.985 716.648 153.403 716.5 153.82C716.414 154.078 716.328 154.299 716.058 154.791C715.8 155.27 715.53 155.737 715.21 156.167C714.879 156.572 714.743 156.708 714.596 156.855C714.289 157.187 713.945 157.518 713.576 157.801C713.048 158.157 712.839 158.28 712.618 158.415C712.151 158.686 711.954 158.759 711.659 158.87C710.615 159.239 709.534 159.398 708.502 159.374C707.9 159.349 707.298 159.275 706.745 159.14C705.025 158.71 703.637 157.973 702.396 156.683C700.074 154.226 699.705 150.454 701.093 147.345C701.216 147.149 701.327 146.94 701.413 146.719C701.573 146.424 701.72 146.117 701.916 145.847C702.199 145.416 702.396 145.171 702.654 144.925C703.072 144.52 702.985 144.593 703.391 144.323C703.6 144.188 703.821 144.053 704.042 143.93C704.042 143.93 704.435 143.746 704.521 143.684C705.848 143.131 707.187 143.008 708.502 143.193C709.116 143.266 709.718 143.389 710.333 143.573C712.299 144.163 714.215 145.232 715.53 146.633C716.82 148.009 717.09 149.84 717.016 151.695Z" fill="black"/>
<path d="M756.665 151.449C755.928 161.819 751.885 171.119 744.428 178.393C741.565 181.206 738.407 183.651 735.078 185.851C729.242 189.709 722.853 192.817 716.562 195.79C713.38 197.289 710.591 192.547 713.785 191.048C719.24 188.468 724.806 185.814 729.991 182.607C732.645 180.985 735.176 179.192 737.547 177.213C745.165 170.861 750.116 162.642 751.062 152.653C751.566 147.321 751.222 141.939 750.558 136.632C750.251 134.162 749.92 131.57 748.765 129.334C747.524 126.913 745.496 124.96 743.727 122.932C736.589 114.676 729.966 105.928 723.971 96.7873C719.277 89.6489 715.014 82.2402 711.107 74.635C710.222 72.9026 709.35 71.1826 708.502 69.4256C707.556 71.3669 706.598 73.2958 705.603 75.2125C701.806 82.6089 697.617 89.8209 693.046 96.7873C687.05 105.928 680.44 114.664 673.302 122.932C671.545 124.96 669.506 126.913 668.265 129.334C667.098 131.57 666.778 134.162 666.471 136.632C665.807 141.939 665.463 147.321 665.967 152.653C666.901 162.642 671.864 170.861 679.47 177.213C681.988 179.314 684.704 181.194 687.517 182.89C692.567 185.974 697.961 188.541 703.256 191.048C706.451 192.559 703.662 197.289 700.479 195.79C693.661 192.571 686.731 189.193 680.514 184.856C677.713 182.914 675.059 180.789 672.602 178.393C665.156 171.107 661.114 161.819 660.377 151.449C659.959 145.613 660.487 139.703 661.347 133.929C661.765 131.103 662.429 128.375 663.903 125.894C665.205 123.719 666.962 121.851 668.633 119.947C683.807 102.574 696.364 83.0143 706.008 62.0538C706.561 60.8498 707.569 60.4812 708.527 60.6778C709.51 60.4812 710.505 60.8498 711.058 62.0538C720.703 83.0143 733.247 102.574 748.433 119.947C750.092 121.851 751.848 123.719 753.151 125.894C754.625 128.375 755.289 131.103 755.706 133.929C756.542 139.703 757.07 145.601 756.665 151.449Z" fill="white"/>
<path d="M740.226 205.337C729.659 204.477 719.093 203.826 708.503 203.42C697.457 202.978 686.387 202.806 675.317 202.904C673.118 202.916 672.061 200.582 672.958 198.751C675.256 194.033 677.738 189.426 680.441 184.929C680.6 184.671 680.711 184.536 680.846 184.413C681.227 183.578 682.013 182.927 683.205 182.914C684.63 182.902 686.068 182.89 687.505 182.877C694.508 182.828 701.512 182.779 708.503 182.742C715.666 182.693 722.841 182.644 729.991 182.595C730.827 182.595 731.662 182.595 732.498 182.583C734.488 182.583 735.36 184.327 735.078 185.838C736.54 187.583 737.756 189.672 738.641 191.109C740.644 194.414 742.069 198.076 742.867 201.86C743.199 203.469 742.105 205.497 740.226 205.337Z" fill="white"/>
<path d="M150.127 268.808C149.598 265.589 146.957 263.132 143.836 262.444C140.212 261.645 136.268 262.861 134.155 266.007C133.823 266.498 133.847 267.125 134.105 267.641C133.565 267.813 133.098 268.23 132.987 268.808C132.25 272.531 134.117 276.192 137.263 278.207C140.371 280.197 144.278 279.939 147.067 277.531C149.512 275.418 150.643 271.965 150.127 268.808ZM146.797 270.86C146.748 271.302 146.711 271.462 146.674 271.609C146.613 271.855 146.551 272.113 146.465 272.346C146.121 273.169 145.998 273.391 145.863 273.612C145.249 274.447 145.077 274.644 144.893 274.816C144.217 275.356 144.008 275.504 143.787 275.627C142.853 275.995 142.62 276.045 142.386 276.081C141.895 276.118 141.723 276.118 141.538 276.106C140.605 275.958 140.236 275.848 139.892 275.713C139.438 275.492 139.29 275.393 139.143 275.307C138.713 275.049 138.639 274.988 138.369 274.742C138.098 274.509 137.853 274.263 137.619 273.993C137.373 273.722 137.312 273.636 137.054 273.206C136.857 272.862 136.673 272.506 136.661 272.469C136.513 272.113 136.403 271.744 136.329 271.376C136.292 271.179 136.243 270.7 136.243 270.639C136.243 270.467 136.255 270.294 136.255 270.122C136.403 269.287 136.329 268.857 136.157 268.488C136.538 268.353 136.882 268.095 137.128 267.739C139.696 265.908 140.224 265.761 140.764 265.675C140.826 265.675 141.231 265.638 141.317 265.638C141.649 265.626 141.981 265.65 142.313 265.663C143.136 265.81 143.418 265.884 143.713 265.982C144.45 266.314 144.745 266.486 145.04 266.682C146.011 267.678 146.134 267.862 146.244 268.058C146.367 268.304 146.539 268.697 146.551 268.759C146.625 269.004 146.687 269.25 146.736 269.496C146.822 270.356 146.821 270.602 146.797 270.86Z" fill="white"/>
<path d="M593.319 85.6436C593.331 82.0191 593.331 78.6158 593.319 75.2125C593.319 74.8194 593.146 74.4876 592.876 74.2419C592.851 73.5047 592.237 72.8535 591.414 72.8658C587.212 72.9272 582.998 72.8658 578.796 72.6938C577.973 72.6569 577.346 73.3695 577.322 74.0944C577.297 74.6227 577.272 75.1388 577.248 75.6671C577.051 76.1831 576.928 76.6131 576.904 77.0677C576.83 78.0875 576.904 79.1318 576.904 80.1516C576.916 82.3754 576.928 84.5992 576.928 86.8353C576.941 87.6585 577.604 88.15 578.415 88.236C581.511 88.6046 584.632 88.7274 587.753 88.6046C588.502 88.5677 589.264 88.5309 590.026 88.4694C590.738 88.408 591.537 88.4203 592.225 88.2237C593.06 87.978 593.65 87.2653 593.601 86.4299C593.576 86.1596 593.466 85.877 593.319 85.6436Z" fill="white"/>
<path d="M476.894 89.3295C476.906 85.705 476.906 82.3017 476.894 78.8984C476.894 78.5053 476.722 78.1735 476.451 77.9277C476.427 77.1906 475.812 76.5394 474.989 76.5517C470.787 76.6131 466.573 76.5517 462.371 76.3797C461.548 76.3428 460.921 77.0554 460.897 77.7803C460.872 78.3086 460.848 78.837 460.823 79.353C460.627 79.869 460.504 80.299 460.479 80.7536C460.405 81.7733 460.479 82.8177 460.479 83.8375C460.491 86.0613 460.504 88.2851 460.504 90.5212C460.516 91.3444 461.179 91.8359 461.978 91.9219C465.074 92.2905 468.195 92.4133 471.316 92.2904C472.065 92.2536 472.827 92.2167 473.588 92.1553C474.301 92.0939 475.1 92.1062 475.788 91.9096C476.623 91.6639 477.213 90.9512 477.164 90.1157C477.164 89.8454 477.053 89.5629 476.894 89.3295Z" fill="#8256E1"/>
<path d="M316.09 477.54C309.677 471.458 300.069 469.235 291.579 471.618C287.304 472.822 283.679 475.23 280.669 478.462C277.634 481.718 274.649 486.079 269.82 486.534C266.994 486.804 264.181 485.932 261.539 484.998C258.935 484.064 256.33 483.044 253.873 481.742C251.366 480.415 249.179 478.781 247.189 476.766C245.321 474.862 243.564 472.871 241.426 471.262C234.534 466.04 224.877 464.885 216.756 467.625C212.578 469.038 208.855 471.446 205.919 474.739C202.565 478.498 199.8 482.59 194.677 483.99C190.278 485.182 185.536 484.408 181.371 482.725C176.96 480.943 173.545 477.946 170.166 474.69C166.91 471.544 163.408 468.239 158.936 466.998C153.923 465.61 148.837 467.33 144.659 470.144C136.907 475.353 130.149 486.558 119.411 484.298C114.46 483.253 110.319 480.059 107.174 476.201C105.527 474.174 103.955 472.085 101.682 470.721C99.4949 469.407 96.9518 468.841 94.4331 468.633C85.1446 467.871 75.9052 472.773 70.6589 480.341C69.3811 482.184 68.4106 484.199 67.6488 486.3C66.8994 488.401 70.2412 489.298 70.9784 487.222C73.9517 478.904 82.2204 472.675 91.0297 472.073C93.4256 471.913 95.9075 472.06 98.1927 472.884C100.699 473.793 102.358 475.685 103.98 477.724C107.051 481.57 110.688 484.801 115.307 486.657C119.829 488.475 124.731 488.487 129.203 486.534C133.712 484.556 137.312 481.029 140.863 477.712C144.426 474.382 148.616 470.746 153.641 470.058C158.408 469.407 162.339 472.146 165.669 475.206C169.06 478.314 172.156 481.693 176.174 484.015C180.093 486.288 184.553 487.762 189.099 487.996C193.449 488.217 197.92 487.136 201.434 484.519C205.378 481.57 207.713 477.012 211.681 474.1C218.34 469.198 227.801 468.264 235.332 471.667C237.225 472.515 239.006 473.621 240.554 474.997C242.63 476.84 244.363 479.014 246.439 480.857C250.432 484.396 255.421 486.485 260.384 488.278C265.262 490.035 270.68 491.092 275.386 488.278C279.293 485.956 281.726 481.988 285.055 479.002C291.297 473.4 301.138 472.798 308.51 476.447C310.402 477.38 312.122 478.572 313.658 480.022C315.267 481.521 317.712 479.076 316.09 477.54Z" fill="white"/>
<path d="M97.0006 442.217C95.6369 439.858 92.7498 438.666 90.1697 439.723C88.7567 440.3 87.5035 441.308 86.7663 442.672C86.5698 443.052 86.4099 443.433 86.2993 443.814C85.1444 443.826 84.1493 444.564 84.2599 445.522C84.3582 446.406 84.4687 447.279 84.567 448.163C84.653 448.864 84.653 449.539 85.1568 450.092C85.3902 450.35 85.6727 450.572 85.9429 450.793C86.9996 451.616 88.253 452.181 89.58 452.378C92.3935 452.795 95.3914 451.886 96.964 449.367C98.3032 447.254 98.2415 444.342 97.0006 442.217ZM94.4822 446.185C94.4085 446.652 94.3468 446.849 94.2854 447.058C94.1134 447.414 94.0276 447.586 93.9171 447.758C92.6516 448.839 92.1354 448.901 91.9634 448.938C91.3614 449.024 91.1278 449.048 90.8944 449.048C90.3169 449.085 89.7886 448.901 89.7026 448.876C88.8549 448.557 88.7075 448.483 88.5724 448.409C88.5601 448.249 88.769 448.188 88.941 448.077C89.8134 447.512 89.9362 446.603 89.5554 445.718C89.7274 446.124 89.6414 445.792 89.5677 445.571C89.7397 444.576 89.8749 444.232 89.924 444.158C90.2066 443.802 90.3294 443.667 90.4645 443.544C90.9806 443.175 91.1402 443.089 91.2999 443.003C93.0569 443.04 93.2657 443.212 93.3885 443.249C93.8677 443.79 93.9783 443.925 94.052 444.072C94.1995 444.49 94.3223 444.711 94.3715 444.908C94.4944 445.829 94.4945 446.013 94.4822 446.185Z" fill="white"/>
<path d="M756.665 151.449C755.928 161.819 751.886 171.119 744.428 178.393C741.565 181.207 738.408 183.651 735.078 185.851C736.54 187.595 737.757 189.684 738.641 191.122C740.644 194.427 742.069 198.088 742.868 201.872C743.212 203.482 742.118 205.497 740.226 205.349C729.66 204.489 719.094 203.838 708.503 203.432V182.755C715.666 182.705 722.841 182.656 729.992 182.607C732.646 180.985 735.176 179.192 737.548 177.213C745.165 170.861 750.117 162.642 751.063 152.653C751.566 147.321 751.222 141.939 750.559 136.632C750.252 134.162 749.92 131.57 748.765 129.334C747.524 126.913 745.497 124.96 743.728 122.932C736.589 114.676 729.967 105.928 723.971 96.7873C719.278 89.6489 715.015 82.2402 711.107 74.635C710.813 95.362 710.53 116.089 710.247 136.804C710.628 137.123 710.886 137.566 710.96 138.082C711.697 138.254 712.435 138.475 713.147 138.757C716.071 139.912 718.86 141.669 720.654 144.311C722.374 146.829 722.792 150.048 722.35 153.009C721.551 158.391 717.361 163.268 711.992 164.509C710.837 164.78 709.67 164.89 708.503 164.853V60.6901C709.486 60.4935 710.481 60.8621 711.034 62.0661C720.678 83.0266 733.223 102.586 748.409 119.959C750.068 121.864 751.824 123.731 753.127 125.906C754.601 128.388 755.265 131.115 755.682 133.941C756.542 139.703 757.071 145.601 756.665 151.449Z" fill="#8256E1"/>
<path d="M456.916 245.992C453.451 250.514 447.763 257.087 441.607 260.81C431.533 266.891 421.998 275.111 394.637 279.546C367.287 283.982 352.654 269.078 350.246 255.17C349.239 249.359 351.782 245.181 354.62 242.441L358.269 249.26C358.269 249.26 358.269 268.71 387.425 268.71C423.153 268.71 447.038 243.523 447.038 243.523C447.038 243.523 450.81 244.407 456.916 245.992Z" fill="#8256E1"/>
<path d="M530.633 431.737C529.478 432.019 528.336 432.302 527.193 432.597C526.652 431.552 526.099 430.484 525.547 429.439C523.261 425.065 520.964 420.691 518.629 416.33C507.645 395.64 496.391 375.085 484.879 354.689C483.786 352.748 486.771 351.003 487.864 352.945C491.108 358.707 494.352 364.481 497.558 370.256C508.284 389.57 518.765 409.007 528.999 428.591C529.54 429.648 530.093 430.692 530.633 431.737Z" fill="white"/>
<path d="M592.459 418.381C586.881 419.414 581.315 420.507 575.749 421.613C560.637 424.66 545.587 428.039 530.622 431.724C529.467 432.007 528.324 432.29 527.182 432.584C526.641 431.54 526.088 430.471 525.535 429.427C526.678 429.144 527.833 428.849 528.975 428.579C530.229 428.26 531.494 427.94 532.76 427.633C552.233 422.903 571.83 418.701 591.525 415.04C593.724 414.659 594.646 417.988 592.459 418.381Z" fill="white"/>
<path d="M78.2637 46.4994C75.3641 42.9978 72.4647 39.4962 69.5774 35.9823C69 35.282 67.7222 35.3434 67.1325 35.9823C66.4567 36.7195 66.5182 37.6778 67.1325 38.4273C70.0321 41.9289 72.9314 45.4305 75.8187 48.9444C76.3961 49.6447 77.6739 49.5833 78.2637 48.9444C78.9517 48.1949 78.878 47.2488 78.2637 46.4994Z" fill="black"/>
<path d="M79.3575 37.6655C78.6203 36.9898 77.6497 37.0389 76.9125 37.6655C73.4478 40.6142 69.9831 43.5629 66.5306 46.4993C65.8426 47.0891 65.8794 48.3423 66.5306 48.9444C67.2678 49.6201 68.2384 49.571 68.9756 48.9444C72.4403 45.9956 75.905 43.0469 79.3575 40.1105C80.0455 39.5207 80.0086 38.2676 79.3575 37.6655Z" fill="black"/>
<path d="M98.4879 38.501C98.4264 37.5304 97.7505 36.83 96.7553 36.7686C93.4749 36.572 90.1821 36.5966 86.9017 36.8546C86.0048 36.9283 85.1325 37.6041 85.1694 38.587C85.1817 38.8082 85.231 39.017 85.317 39.2259C84.7027 41.9903 84.4569 44.8407 84.6781 47.6666C84.7518 48.588 85.4151 49.4113 86.4103 49.399C89.8014 49.3498 93.2047 49.4358 96.5834 49.6692C97.5786 49.743 98.2297 48.8215 98.3157 47.9369C98.6351 44.8039 98.6967 41.6463 98.4879 38.501ZM95.1091 40.1596C95.1829 42.15 95.1459 44.1404 95.0107 46.1308C92.7009 45.9956 90.3912 45.9342 88.0691 45.9465C88.0322 43.9807 88.2288 42.1009 88.6465 40.2088C90.7966 40.0982 92.959 40.0736 95.1091 40.1596Z" fill="black"/>
<path d="M327.602 4.97157C327.172 2.45287 324.973 0.511684 322.503 0.106236C319.641 -0.360644 316.459 0.708232 315.046 3.37436C314.947 3.54637 314.898 3.74298 314.874 3.93956C314.738 4.11157 314.64 4.30811 314.566 4.51698C313.657 7.40426 315.119 10.4267 317.466 12.1468C318.56 12.9454 319.96 13.4123 321.312 13.3877C322.761 13.3509 324.064 12.7857 325.182 11.8765C327.16 10.2301 328.032 7.47798 327.602 4.97157ZM324.027 7.66227C323.793 8.16601 323.683 8.35033 323.572 8.53463C323.228 8.97694 323.081 9.12433 322.933 9.25948C322.54 9.54206 322.209 9.65268 322.098 9.76326C320.697 9.87384 320.378 9.80014 320.341 9.78786C319.788 9.54213 319.284 9.34554 319.211 9.16124C318.363 8.20291 318.216 7.96942 318.093 7.72369C317.773 6.47049 317.786 6.21247 317.773 5.95446C317.822 5.74559 317.859 5.58589 317.908 5.43845C318.093 5.00843 318.338 4.73816 318.363 4.61529C319.026 4.03784 319.211 3.91494 319.407 3.81665C319.862 3.63236 320.083 3.57094 320.304 3.52179C320.808 3.44807 321.017 3.43578 321.238 3.43578C321.828 3.5095 322.024 3.52184 322.208 3.57099C323.462 4.23445 323.609 4.38186 323.757 4.54158C324.162 5.3279 324.224 5.52445 324.261 5.73331C324.297 6.26163 324.297 6.47052 324.285 6.67938C324.162 7.21998 324.101 7.44112 324.027 7.66227Z" fill="black"/>
<path d="M95.4403 233.214C94.654 228.841 94.5557 224.467 95.084 220.068C93.5973 218.827 95.2312 216.173 97.0496 217.255C101.141 219.675 105.097 222.304 108.931 225.106C109.914 225.83 110.196 227.403 108.955 228.091C105.294 230.143 101.645 232.182 97.9834 234.222C97.1111 234.713 95.6369 234.357 95.4403 233.214Z" fill="black"/>
</svg>
