<svg width="800" height="524" viewBox="0 0 800 524" fill="none" xmlns="http://www.w3.org/2000/svg">
<path d="M799.996 122.068C799.984 122.591 799.752 123.102 799.287 123.463C797.38 124.928 795.613 126.521 794.008 128.3C780.149 143.519 778.649 165.749 777.138 185.259C776.289 196.095 775.312 207.047 772.278 217.534C769.266 227.94 764.162 237.183 756.314 244.717C748.908 251.845 739.723 257.879 734.561 267.017C731.596 272.261 730.305 278.156 728.934 283.957C727.689 289.201 726.213 294.363 724.004 299.305C715.702 317.907 699.693 332.569 681.183 340.754C659.034 350.567 633.676 351.322 610.237 346.207C607.888 345.695 608.446 341.986 610.795 342.498C613.69 343.137 616.608 343.684 619.55 344.126C642.501 347.625 667.15 345.102 687.543 333.359C705.087 323.267 719.167 306.92 724.295 287.132C725.783 281.411 726.818 275.551 728.992 270.04C730.945 265.053 734.003 260.658 737.654 256.786C744.804 249.194 753.78 243.415 759.989 234.928C772.836 217.43 772.301 194.2 774.312 173.574C775.777 158.471 778.963 142.147 788.02 129.765C789.311 128.021 790.706 126.346 792.229 124.765C790.706 125.009 789.183 125.253 787.66 125.498C769.929 128.334 752.21 131.171 734.479 133.997C719.748 136.357 703.227 137.74 690.6 146.484C684.636 150.623 680.846 156.401 677.009 162.412C673.509 167.923 669.696 173.527 663.731 176.597C660.115 178.457 656.069 178.911 652.105 179.538C648.466 180.108 644.978 181.12 641.711 182.875C635.56 186.177 630.549 191.467 626.921 197.385C617.922 212.081 617.794 230.114 617.678 246.81C617.666 249.194 613.946 249.624 613.958 247.206C614.085 228.266 614.434 207.907 626.072 191.944C630.281 186.177 635.827 181.294 642.396 178.387C646.07 176.771 649.931 176.085 653.872 175.481C657.651 174.911 661.29 174.074 664.44 171.783C670.01 167.726 673.253 161.18 676.974 155.564C680.985 149.495 685.938 144.507 692.344 141.008C698.925 137.403 706.157 135.31 713.459 133.787C722.097 131.962 730.875 130.776 739.584 129.381L795.427 120.452L797.961 120.045C799.287 119.87 800.066 120.986 799.996 122.068Z" fill="black"/>
<path d="M799.995 122.068C795.914 124.486 791.915 127.067 788.031 129.788C778.765 136.252 770.103 143.589 762.197 151.646C747.629 166.505 736.014 183.968 721.55 198.92C715.016 205.675 707.912 211.953 699.994 217.058C691.925 222.243 683.264 225.824 673.904 227.975C664.44 230.138 654.941 231.707 646.488 236.811C639.71 240.915 633.908 246.38 628.607 252.217C617.596 264.32 608.318 278.121 595.377 288.329C593.482 289.829 591.296 286.783 593.192 285.283C594.749 284.05 596.273 282.76 597.761 281.411C609.934 270.331 618.875 256.263 630.595 244.741C636.292 239.137 642.605 234.16 649.906 230.777C659.254 226.417 669.649 225.673 679.427 222.673C697.646 217.092 712.318 204.001 724.689 189.979C738.49 174.341 750.466 157.203 765.801 142.949C772.638 136.589 779.951 130.776 787.671 125.532C790.217 123.788 792.81 122.103 795.449 120.498L797.984 120.091C799.286 119.87 800.065 120.986 799.995 122.068Z" fill="black"/>
<path d="M786.334 2.58037C778.405 16.6021 772.789 31.3448 769.452 46.692C767.243 56.9118 765.429 68.271 758.581 76.5841C754.942 80.979 750.14 83.595 744.722 85.153C739.083 86.7923 732.967 87.7806 728.689 92.1755C724.91 96.0588 722.597 101.082 719.597 105.546C716.435 110.243 712.284 114.15 706.75 115.813C695.088 119.324 682.484 113.755 672.241 108.499C670.102 107.406 671.614 103.977 673.764 105.081C684.217 110.441 699.494 117.591 710.54 109.86C714.888 106.825 717.458 102 720.155 97.5819C722.922 93.0242 726.003 88.5712 730.77 85.932C736.025 83.0369 742.106 82.5137 747.605 80.2233C752.314 78.2584 755.942 74.6308 758.407 70.2127C763.767 60.5858 764.767 49.1684 767.545 38.6812C770.522 27.4498 774.742 16.5789 780.09 6.27764C780.358 5.75444 780.625 5.24287 780.904 4.71967C777.451 5.61492 773.986 6.53343 770.522 7.42869C761.476 9.7889 752.431 12.1491 743.374 14.521C731.433 17.6485 719.376 20.4854 707.575 24.1013C696.96 27.3568 686.507 31.554 677.625 38.3673C669.474 44.6108 662.998 52.9471 660.254 62.9693C657.464 73.1078 657.964 83.7461 658.743 94.152C658.813 95.1868 658.906 96.2216 658.975 97.2447C659.138 99.3259 656.336 99.9189 655.499 98.4539C655.36 98.233 655.278 97.9656 655.255 97.6517C654.232 84.6298 653.29 71.0614 657.743 58.5279C665.463 36.7977 687.786 26.0197 708.447 19.939C720.643 16.358 733.049 13.3699 745.35 10.1493C758.035 6.83572 770.708 3.53375 783.392 0.220153C783.578 0.173647 783.764 0.115508 783.95 0.0690011C785.334 -0.291426 787.229 0.999139 786.334 2.58037Z" fill="black"/>
<path d="M786.334 2.58039C784.102 4.04535 782.09 5.13825 780.091 6.26604C772.301 10.6028 764.627 15.1721 757.093 19.9158C739.188 31.182 721.888 43.4016 704.948 56.0398C696.379 62.4229 687.949 69.0036 680.113 76.2586C672.846 83.0021 666.219 90.4083 660.243 98.326C648.663 113.72 639.676 130.881 632.083 148.553C624.445 166.33 618.19 184.677 612.016 203.024C611.248 205.315 607.83 203.757 608.597 201.501C609.376 199.187 610.144 196.897 610.934 194.595C617.213 176.015 623.77 157.483 631.955 139.636C638.536 125.242 646.198 111.255 655.534 98.4423C656.581 96.989 657.662 95.5473 658.767 94.1288C659.801 92.7569 660.871 91.4082 661.976 90.0711C675.393 73.7472 692.054 60.83 708.994 48.4011C726.178 35.7862 743.711 23.6247 761.93 12.5328C764.79 10.8004 767.662 9.09133 770.545 7.41709C774.789 4.9406 779.091 2.54551 783.404 0.208553C783.59 0.162046 783.776 0.103907 783.962 0.0574005C785.334 -0.2914 787.23 0.999159 786.334 2.58039Z" fill="black"/>
<path d="M691.542 330.929C692.693 331.638 693.844 332.383 694.972 333.138C704.343 339.452 712.83 347.276 720.585 355.194C739.607 374.657 755.954 396.678 769.185 420.466C769.813 421.582 770.417 422.71 771.034 423.838C771.51 424.71 771.103 425.582 770.406 426.059C769.906 426.407 769.243 426.559 768.639 426.349C751.431 420.513 733.073 418.071 714.912 419.106C698.693 420.024 682.682 423.652 667.696 429.954C652.162 436.476 637.187 445.533 620.247 447.963C605.807 450.021 591.506 445.987 580.112 436.871C569.253 428.151 561.533 415.362 560.114 401.387C559.882 398.992 563.567 398.399 563.812 400.806C565.346 416.118 574.822 429.744 587.809 437.732C593.494 441.231 599.889 443.592 606.505 444.452C614.271 445.452 622.166 444.278 629.618 442.057C645.686 437.267 660.092 428.175 675.974 422.826C704.006 413.397 734.724 412.688 763.162 420.768C763.907 420.966 764.662 421.21 765.418 421.431C764.255 419.373 763.081 417.339 761.883 415.316C755.861 405.119 749.257 395.271 742.06 385.842C733.7 374.89 724.632 364.484 714.865 354.776C707.68 347.648 699.983 340.928 691.472 335.382C690.682 334.871 689.903 334.371 689.1 333.882C688.705 333.638 688.298 333.394 687.903 333.173L691.542 330.929Z" fill="black"/>
<path d="M769.185 420.455C769.801 421.571 770.429 422.699 771.034 423.826C771.51 424.71 771.115 425.582 770.417 426.059C768.034 424.245 765.616 422.478 763.174 420.745C761.639 419.652 760.105 418.583 758.547 417.525C742.014 406.258 724.329 396.725 705.843 389.109C687.461 381.517 668.3 375.808 648.744 372.204C629.153 368.588 609.155 367.03 589.251 367.832C566.404 368.751 542.802 371.995 522.072 382.168C519.897 383.226 518.363 379.808 520.525 378.75C523.246 377.413 526.025 376.192 528.862 375.076C550.092 366.739 573.508 364.24 596.168 363.937C616.341 363.67 636.536 365.716 656.278 369.89C676.137 374.076 695.541 380.354 714.109 388.574C730.817 395.969 746.862 404.933 761.918 415.304C763.523 416.397 765.127 417.525 766.708 418.664C767.545 419.245 768.359 419.85 769.185 420.455Z" fill="black"/>
<path d="M459.997 322.605C459.997 419.036 381.819 497.202 285.387 497.202C190.176 497.202 112.766 421.001 110.824 326.255C110.801 325.034 110.79 323.825 110.79 322.593C110.79 313.117 111.534 303.827 112.999 294.759C125.032 219.592 185.038 160.471 260.646 149.739C266.738 148.867 272.947 148.321 279.237 148.1C281.272 148.03 283.329 147.984 285.387 147.984C381.819 148.007 459.997 226.173 459.997 322.605Z" fill="#8256E1"/>
<path d="M157.518 441.499C161.017 438.406 164.528 435.279 168.016 432.174C185.724 416.42 203.373 400.596 220.953 384.703C238.625 368.751 256.228 352.729 273.773 336.65C275.958 334.65 278.144 332.65 280.319 330.639C282.109 328.999 279.447 326.372 277.668 327.988C260.135 344.079 242.555 360.124 224.894 376.087C207.326 391.981 189.688 407.816 172.004 423.594C166.342 428.64 160.68 433.686 154.995 438.732L157.518 441.499Z" fill="white"/>
<path d="M279.237 148.123V327.953L110.824 326.267C110.801 325.046 110.79 323.837 110.79 322.605C110.79 313.129 111.534 303.839 112.999 294.77L260.646 299.537V149.751C266.738 148.879 272.947 148.332 279.237 148.123Z" fill="white"/>
<path d="M268.762 314.943L87.9087 311.675C88.7574 264.506 108.034 219.488 141.589 186.305C175.144 153.134 220.383 134.369 267.564 134.066L268.762 314.943Z" fill="black"/>
<path d="M279.248 510.701C178.48 510.701 96.5 428.721 96.5 327.953L96.5349 324.104L98.3953 324.128L277.365 326.046L276.179 145.24L279.26 145.193C380.028 145.193 461.996 227.173 461.996 327.941C461.985 428.721 380.017 510.701 279.248 510.701ZM100.232 327.895C100.232 426.652 180.538 506.957 279.237 506.957C377.935 506.957 458.241 426.652 458.241 327.953C458.241 229.486 378.307 149.332 279.934 148.949L281.12 329.848L279.213 329.825L100.232 327.895Z" fill="black"/>
<path d="M335.452 491.552V34.0421C335.452 16.3231 349.823 1.95255 367.542 1.95255H607.121C624.84 1.95255 639.211 16.3231 639.211 34.0421V491.563C639.211 509.282 624.84 523.653 607.121 523.653H367.542C349.823 523.641 335.452 509.271 335.452 491.552Z" fill="black"/>
<path d="M627.2 47.2384V476.088C627.2 492.11 613.492 505.108 596.564 505.108H378.087C363.298 505.108 350.951 495.156 348.079 481.96C347.916 481.204 347.788 480.437 347.707 479.669C347.544 478.495 347.474 477.297 347.474 476.088V47.2384C347.474 31.3913 360.903 18.4857 377.564 18.2299C377.738 18.2183 377.913 18.2182 378.087 18.2182H423.791L436.895 30.6355C437.813 31.5075 439.081 32.0075 440.394 32.0075H535.908C537.163 32.0075 538.384 31.5424 539.291 30.7518C541.802 28.5311 547.313 23.6595 553.324 18.2299H596.552C612.074 18.2299 624.898 29.1706 626.898 43.3435C627.107 44.6108 627.2 45.913 627.2 47.2384Z" fill="white"/>
<path d="M620.817 88.0946C620.305 93.8032 619.689 99.5817 618.573 105.186C618.085 107.639 616.899 109.697 614.306 110.243C611.806 110.778 608.923 110.243 606.388 110.115C594.343 109.534 582.286 108.941 570.241 108.36C567.229 108.209 564.218 108.069 561.207 107.918C559.649 107.848 558.091 107.767 556.533 107.697C555.405 107.639 554.312 107.569 553.324 106.976C550.929 105.511 551.568 102.349 551.626 99.9654L551.848 90.9315C552.127 79.9675 552.382 68.9919 552.661 58.028C552.545 57.8071 552.475 57.5397 552.475 57.2141C552.452 55.5748 552.429 53.9354 552.406 52.296C552.394 50.8311 552.208 49.2615 552.406 47.8198C552.882 44.5759 555.766 44.4945 558.382 44.5643C565.009 44.7154 571.636 44.8666 578.252 45.0177C591.506 45.3317 604.737 45.6339 617.992 45.9246C618.689 45.9362 619.131 46.2734 619.352 46.7269C620.038 46.8664 620.643 47.3779 620.724 48.2848C621.968 61.5276 622.014 74.8634 620.817 88.0946Z" fill="white"/>
<path d="M603.191 94.4543C602.679 100.163 602.063 105.941 600.947 111.546C600.459 113.999 599.273 116.057 596.68 116.603C594.18 117.138 591.297 116.603 588.762 116.475C576.717 115.894 564.66 115.301 552.615 114.72C549.604 114.569 546.592 114.429 543.581 114.278C542.023 114.208 540.453 114.127 538.907 114.057C537.779 113.999 536.686 113.929 535.698 113.336C533.303 111.871 533.942 108.709 534.001 106.325L534.221 97.2913C534.5 86.3273 534.756 75.3517 535.035 64.3878C534.919 64.1669 534.849 63.8995 534.849 63.5739C534.826 61.9346 534.803 60.2952 534.779 58.6558C534.768 57.1909 534.582 55.6213 534.779 54.1796C535.256 50.9357 538.14 50.8543 540.767 50.9241C547.395 51.0752 554.022 51.2264 560.637 51.3775C573.892 51.6914 587.123 51.9937 600.377 52.2844C601.075 52.296 601.517 52.6332 601.738 53.0866C602.424 53.2262 603.028 53.7377 603.109 54.6446C604.342 67.8758 604.4 81.2116 603.191 94.4543Z" fill="#B5E6EB"/>
<path d="M610.946 48.0407C610.865 47.1222 610.26 46.6222 609.574 46.4711C609.353 46.0176 608.912 45.6921 608.214 45.6805C594.971 45.3782 581.728 45.0759 568.485 44.7736C561.858 44.6224 555.243 44.4713 548.616 44.3201C545.988 44.262 543.104 44.3318 542.639 47.5756C542.43 49.0173 542.616 50.5869 542.639 52.0519C542.663 53.6912 542.686 55.3422 542.709 56.9816C542.709 57.2955 542.791 57.5629 542.907 57.7838C542.639 68.7594 542.36 79.7233 542.093 90.6989L541.872 99.7212C541.814 102.105 541.174 105.279 543.57 106.732C544.546 107.325 545.651 107.395 546.767 107.453C548.325 107.534 549.883 107.604 551.441 107.685C554.452 107.837 557.464 107.976 560.475 108.127C572.52 108.709 584.565 109.302 596.611 109.883C599.145 110.011 602.028 110.534 604.528 110.011C607.133 109.464 608.319 107.406 608.807 104.953C609.935 99.3375 610.539 93.5591 611.051 87.8504C612.237 74.6076 612.19 61.2718 610.946 48.0407ZM607.819 80.8976C607.493 86.2808 606.97 91.6523 606.238 96.9889C605.889 99.5701 605.679 102.326 604.993 104.849C604.703 105.918 604.249 106.325 603.145 106.418C601.796 106.534 600.377 106.325 599.029 106.267C588.018 105.732 577.008 105.197 565.997 104.663C560.498 104.395 554.987 104.128 549.488 103.86C548.337 103.802 546.907 103.977 545.79 103.639C545.372 103.512 545.453 103.698 545.488 103.105C545.535 102.267 545.523 101.43 545.546 100.593C545.616 97.8958 545.674 95.1984 545.744 92.5011C546.058 80.0605 546.36 67.62 546.674 55.1795C546.685 54.7609 546.569 54.4005 546.383 54.0982C546.372 53.3889 546.36 52.6681 546.349 51.9589C546.337 51.238 546.325 50.5171 546.314 49.8079C546.314 49.494 546.116 48.3546 546.349 48.1104C546.581 47.8663 547.72 48.0523 548.034 48.0523C548.86 48.0639 549.685 48.0872 550.522 48.1104C551.976 48.1453 553.417 48.1802 554.871 48.2034C560.661 48.3313 566.462 48.4709 572.252 48.5988C583.937 48.8662 595.611 49.1336 607.295 49.401C608.249 59.8534 608.446 70.3871 607.819 80.8976Z" fill="black"/>
<path d="M523.234 89.4781C522.723 95.1868 522.107 100.965 520.99 106.569C520.502 109.011 519.316 111.08 516.724 111.627C514.224 112.162 511.34 111.627 508.806 111.499C496.761 110.906 484.704 110.325 472.658 109.743C469.647 109.592 466.636 109.453 463.624 109.302C462.066 109.232 460.497 109.15 458.95 109.081C457.823 109.023 456.73 108.953 455.741 108.36C453.346 106.895 453.986 103.721 454.044 101.349L454.265 92.315C454.544 81.3511 454.8 70.3755 455.079 59.4116C454.963 59.1907 454.893 58.9232 454.893 58.5977C454.869 56.9583 454.846 55.319 454.823 53.6796C454.811 52.2146 454.625 50.6451 454.823 49.2033C455.3 45.9595 458.183 45.8781 460.811 45.9479C467.438 46.099 474.065 46.2502 480.681 46.4013C493.935 46.7152 507.166 47.0175 520.421 47.3082C521.118 47.3198 521.56 47.657 521.781 48.1104C522.467 48.25 523.071 48.7615 523.153 49.6684C524.374 62.9112 524.432 76.247 523.234 89.4781Z" fill="white"/>
<path d="M505.608 97.5005C505.097 103.209 504.48 108.988 503.364 114.592C502.876 117.045 501.69 119.103 499.097 119.649C496.598 120.184 493.714 119.649 491.179 119.521C479.134 118.94 467.078 118.347 455.032 117.766C452.021 117.615 449.01 117.475 445.998 117.324C444.44 117.254 442.871 117.173 441.324 117.103C440.197 117.045 439.104 116.975 438.115 116.382C435.72 114.917 436.36 111.755 436.418 109.371L436.639 100.337C436.918 89.3735 437.174 78.3979 437.453 67.434C437.336 67.213 437.267 66.9456 437.267 66.6201C437.244 64.9807 437.22 63.3414 437.197 61.702C437.185 60.2371 436.999 58.6674 437.197 57.2257C437.674 53.9819 440.557 53.9005 443.173 53.9703C449.8 54.1214 456.427 54.2726 463.043 54.4237C476.297 54.7376 489.528 55.0399 502.783 55.3306C503.48 55.3422 503.922 55.6794 504.143 56.1328C504.829 56.2723 505.434 56.7839 505.515 57.6908C506.759 70.922 506.806 84.2578 505.608 97.5005Z" fill="#B5E6EB"/>
<path d="M513.352 49.4242C513.27 48.5057 512.666 48.0058 511.98 47.8546C511.759 47.4012 511.317 47.0757 510.62 47.064C497.377 46.7617 484.134 46.4594 470.891 46.1571C464.264 46.006 457.649 45.8549 451.021 45.7037C448.394 45.6456 445.51 45.7153 445.045 48.9592C444.836 50.4009 445.022 51.9705 445.045 53.4355C445.068 55.0748 445.092 56.7258 445.115 58.3651C445.115 58.6791 445.196 58.9465 445.313 59.1674C445.045 70.143 444.766 81.1069 444.499 92.0825L444.278 101.105C444.22 103.488 443.58 106.651 445.975 108.116C446.952 108.709 448.057 108.778 449.173 108.837C450.731 108.918 452.289 108.988 453.847 109.069C456.858 109.22 459.869 109.36 462.881 109.511C474.926 110.092 486.971 110.685 499.028 111.267C501.562 111.394 504.446 111.918 506.946 111.394C509.55 110.848 510.736 108.79 511.224 106.337C512.352 100.721 512.957 94.9427 513.468 89.234C514.643 75.9912 514.608 62.6554 513.352 49.4242ZM510.224 82.2812C509.899 87.6644 509.375 93.0359 508.643 98.3725C508.294 100.954 508.085 103.709 507.399 106.232C507.108 107.302 506.655 107.709 505.55 107.802C504.202 107.918 502.783 107.709 501.435 107.651C490.424 107.116 479.414 106.581 468.403 106.046C462.904 105.779 457.393 105.511 451.893 105.244C450.731 105.186 449.312 105.36 448.196 105.023C447.777 104.895 447.859 105.081 447.894 104.488C447.94 103.651 447.929 102.814 447.952 101.977C448.022 99.2794 448.091 96.582 448.149 93.8846C448.463 81.4441 448.766 69.0035 449.08 56.563C449.091 56.1445 448.975 55.784 448.789 55.4817C448.777 54.7725 448.766 54.0517 448.754 53.3424C448.742 52.6216 448.731 51.9007 448.719 51.1915C448.719 50.8776 448.521 49.7382 448.754 49.494C448.987 49.2499 450.126 49.4359 450.44 49.4359C451.266 49.4475 452.091 49.4708 452.928 49.494C454.381 49.5289 455.823 49.5638 457.276 49.5986C463.067 49.7265 468.868 49.8661 474.658 49.994C486.343 50.2614 498.016 50.5288 509.701 50.7962C510.655 61.2369 510.852 71.7707 510.224 82.2812Z" fill="black"/>
<path d="M518.293 18.2764C520.223 18.2648 519.979 15.2651 518.049 15.2767C497.784 15.3813 477.53 15.486 457.265 15.5906C455.335 15.6023 455.579 18.6019 457.509 18.5903C477.774 18.4857 498.028 18.381 518.293 18.2764Z" fill="#B5E6EB"/>
<path d="M431.279 211.093C465.868 206.814 470.263 161.982 472.809 156.634C479.216 143.193 477.855 119.998 478.925 109.081C480.96 88.5131 466.287 42.7156 434.558 40.2159C393.027 36.9488 364.333 52.9006 347.462 79.5722C332.499 103.232 353.043 116.696 311.745 142.74C291.236 155.68 302.281 187.968 313.373 199.618C344.218 232.009 396.689 215.372 431.279 211.093Z" fill="black"/>
<path d="M494.377 157.424C493.144 162.273 490.424 166.156 487.401 170.039C484.541 173.702 481.692 177.376 478.832 181.015C476.17 184.398 473.286 186.828 469.263 188.409C460.636 191.793 451.451 194.037 442.313 195.478C433.221 196.909 424.001 197.385 414.804 197.002C409.921 196.792 405.038 196.339 400.166 195.804C395.574 195.292 390.528 195.199 386.168 193.537C385.005 193.083 384.772 191.549 385.481 190.642C386.319 189.572 387.167 188.502 388.004 187.444C387.876 186.665 385.691 180.875 386.656 180.55L405.189 174.306C407.398 173.562 410.688 172.981 412.141 170.958C413.664 168.853 413.269 165.226 412.897 162.831C412.083 157.506 411.932 157.576 409.386 152.902C408.328 150.96 407.258 148.856 405.514 147.449C404.026 146.228 402.154 145.809 400.271 145.728C396.352 145.554 392.492 146.577 388.574 146.437C384.528 146.309 380.784 144.577 378.75 140.949C376.517 137.008 376.424 132.334 375.866 127.951C375.157 122.428 374.006 116.987 372.401 111.65C371.739 109.476 370.425 106.976 371.262 104.697C371.75 103.395 372.774 102.453 373.948 101.768C374.657 101.372 376.692 100.733 378.168 99.977C379.494 95.5356 381.156 91.3616 383.168 87.3737C382.935 87.0365 382.819 86.5947 382.924 86.0599C384.307 78.5491 390.004 72.166 397.422 70.1778C398.852 69.8058 400.015 70.7243 399.945 72.2125C399.805 74.689 400.096 77.1655 400.736 79.5373C404.235 85.2228 408.491 90.385 413.479 94.838C418.315 99.1631 423.78 102.953 429.698 105.639C430.674 106.093 431.511 106.465 432.441 105.802C432.988 105.43 433.43 104.883 433.93 104.442C434.918 103.581 436.058 102.895 437.255 102.36C439.662 101.302 442.51 100.919 445.103 101.5C451.219 102.86 453.928 109.057 452.149 114.801C450.475 120.207 445.626 123.254 440.499 124.87C442.813 130.125 445.08 135.403 447.475 140.612C449.486 144.972 452.288 149.739 457.683 149.762C460.764 149.774 463.752 148.6 466.624 147.611C469.74 146.542 472.879 145.449 476.018 144.379C481.611 142.461 487.715 139.694 493.749 141.17C494.517 141.356 495.295 141.949 495.319 142.821C495.423 147.67 495.586 152.681 494.377 157.424Z" fill="white"/>
<path d="M433.023 104.186C431.767 103.663 430.314 103.558 429.035 103.058C427.907 102.616 426.815 102.093 425.745 101.5C423.269 100.14 421.013 98.4074 418.804 96.6401C414.444 93.1521 409.909 89.6525 406.979 84.8275C403.956 79.8396 401.643 73.8635 401.468 67.992C401.41 65.9922 398.841 65.9457 398.004 67.3642C397.736 67.3293 397.446 67.3526 397.132 67.4688C392.423 69.1547 388.214 72.2241 385.238 76.247C382.273 80.2349 381.04 84.7577 379.854 89.5014C378.773 93.8149 377.494 98.0005 373.39 100.291C371.553 101.314 369.507 102.267 368.542 104.267C367.286 106.86 369.018 109.395 369.809 111.825C373.123 122.103 370.611 134.427 378.122 143.228C381.505 147.193 386.33 149.321 391.539 149.274C394.19 149.251 396.55 148.483 398.934 147.425C399.771 147.053 400.213 146.914 400.899 147.577C401.41 148.065 401.864 148.646 402.329 149.193C403.259 150.297 404.143 151.425 405.003 152.588C406.933 155.215 406.166 153.006 407.642 155.913C409.049 158.692 410.502 161.68 411.223 164.726C412.781 171.365 404.712 171.307 400.376 172.923C390.679 176.527 380.436 178.794 370.693 182.445C368.437 183.294 369.774 186.793 372.041 185.945C383.866 181.515 395.957 178.225 408.072 174.771C418.118 171.911 415.211 163.005 411.746 155.785C409.223 150.518 408.526 150.576 404.677 146.181C402.666 143.868 400.666 142.577 397.608 143.937C395.201 145.007 392.888 145.74 390.214 145.519C384.947 145.077 380.831 141.81 378.645 137.078C376.332 132.101 375.925 126.614 375.343 121.242C375.029 118.336 374.646 115.44 373.925 112.604C373.588 111.278 373.192 109.964 372.681 108.685C372.251 107.627 371.378 106.407 372.297 105.407C373.692 103.884 376.029 103.325 377.622 102.012C379.32 100.605 380.564 98.7795 381.471 96.7797C383.61 92.0476 383.889 86.6877 386.144 82.0022C388.551 77.0027 392.888 73.1543 398.039 71.1777C398.562 75.0029 399.852 78.6886 401.457 82.1882C403.422 86.4668 405.886 90.199 409.293 93.4661C412.56 96.582 416.165 99.5119 419.839 102.128C421.676 103.442 423.606 104.674 425.64 105.662C426.524 106.093 428.256 106.965 429.907 107.406C430.361 108.557 431.582 109.441 432.953 108.999C435.128 108.278 435.069 105.035 433.023 104.186Z" fill="black"/>
<path d="M455.358 112.708C455.265 110.336 454.497 107.965 453.555 105.802C452.567 103.558 451.404 101.302 449.102 100.186C444.986 98.1865 439.464 99.5817 435.685 101.698C433.488 102.919 431.511 104.651 430.046 106.686C428.488 108.848 427.058 111.766 428.849 114.231C430.267 116.185 433.302 113.999 431.895 112.045C431.174 111.046 432.988 108.953 433.592 108.22C434.674 106.93 435.964 105.86 437.406 105C440.045 103.43 443.859 102.407 446.905 103.325C448.602 103.837 449.312 105.476 449.986 106.976C450.707 108.592 451.311 110.278 451.544 112.034C451.742 113.592 451.66 115.254 450.823 116.626C449.87 118.196 448.068 119.184 446.556 120.138C443.138 122.277 438.72 124.579 434.615 123.102C432.36 122.289 430.825 125.707 433.092 126.521C438.196 128.358 443.254 126.439 447.695 123.812C449.777 122.579 452.114 121.231 453.555 119.242C454.951 117.324 455.462 115.057 455.358 112.708Z" fill="black"/>
<path d="M446.057 109.72C445.952 108.732 444.999 107.918 443.987 108.069C439.464 108.697 435 109.778 430.686 111.29C429.733 111.627 429.256 112.79 429.605 113.708C429.977 114.673 431.07 115.127 432.023 114.789C436.046 113.383 440.173 112.383 444.394 111.801C445.405 111.65 446.173 110.743 446.057 109.72Z" fill="black"/>
<path d="M516.968 141.473C515.689 141.287 514.41 141.124 513.119 140.996C509.34 140.612 505.527 140.438 501.667 140.519C494.981 140.682 488.331 141.635 481.913 143.577C475.6 145.484 469.496 148.111 463.066 149.681C460.171 150.39 457.009 151.146 454.149 149.948C451.44 148.809 449.916 146.147 448.475 143.751C445.091 138.066 442.045 132.183 439.348 126.16C438.36 123.951 441.859 122.626 442.847 124.812C445.777 131.381 448.998 138.101 453.067 144.054C454.032 145.449 455.125 146.612 456.892 146.809C458.45 146.984 460.113 146.565 461.624 146.193C465.264 145.356 468.775 144.112 472.286 142.868C478.495 140.682 484.668 138.636 491.191 137.647C497.551 136.682 504.027 136.566 510.433 137.02C511.817 137.124 513.189 137.24 514.572 137.403C515.851 137.554 517.13 137.717 518.409 137.915L516.968 141.473Z" fill="black"/>
<path d="M394.109 93.0708C394.051 92.0127 393.306 91.0477 392.376 90.9431C391.33 90.8268 390.446 91.4895 390.249 92.5127C389.97 93.966 389.679 95.4193 389.4 96.8843C389.284 97.4773 389.528 98.0702 389.946 98.4772C389.935 98.7213 389.958 98.9538 390.063 99.2096C390.225 99.6398 390.621 100.082 391.051 100.244C391.923 100.593 393.19 100.291 393.527 99.291C394.062 97.7214 394.411 96.1053 394.457 94.4311C394.446 93.9544 394.423 93.4777 394.109 93.0708Z" fill="black"/>
<path d="M406.328 85.2228C403.003 80.7 397.108 79.9094 391.888 79.5955C390.876 79.5373 389.923 80.107 389.76 81.165C389.62 82.0952 390.318 83.2346 391.33 83.2927C393.713 83.4323 396.108 83.6532 398.41 84.281C398.62 84.3508 398.759 84.3973 398.91 84.4438C399.178 84.5368 399.433 84.6298 399.689 84.7344C400.212 84.9554 400.724 85.1995 401.224 85.4902C401.387 85.6064 401.514 85.6878 401.631 85.7808C401.852 85.9436 402.061 86.1064 402.259 86.2808C402.375 86.3738 402.48 86.4784 402.596 86.5831C402.933 86.9551 403.119 87.1761 403.282 87.4086C403.886 88.2225 405.072 88.4317 405.898 87.8388C406.712 87.2458 406.933 86.0366 406.328 85.2228Z" fill="black"/>
<path d="M385.772 115.034C385.017 114.464 383.726 114.429 383.133 115.289C382.505 116.196 381.808 117.057 381.029 117.847C380.877 118.01 380.715 118.161 380.552 118.312C379.645 119.103 379.192 119.452 378.738 119.777C378.296 120.091 377.843 120.382 377.39 120.661C375.215 121.765 374.146 122.161 373.053 122.475C372.099 122.742 371.6 124.021 371.972 124.893C372.402 125.893 373.378 126.253 374.39 125.974C379.052 124.672 383.273 121.649 386.028 117.673C386.586 116.871 386.633 115.673 385.772 115.034Z" fill="black"/>
<path d="M627.2 324.023V477.344C627.2 493.365 613.492 506.364 596.564 506.364H567.601C549.103 481.541 504.922 420.001 488.866 389.19C478.681 369.634 468.531 341.94 461.008 319.349C453.648 297.258 448.777 280.039 448.777 280.039L536.593 272.226C536.593 272.563 545.36 285.039 553.045 290.84C554.696 292.073 556.277 293.015 557.73 293.456C565.95 295.979 601.168 295.352 625.805 322.477C626.246 322.977 626.723 323.488 627.2 324.023Z" fill="black"/>
<path d="M627.2 47.2384V172.527C626.816 172.748 626.328 172.853 625.886 172.841C613.387 172.365 598.854 171.086 590.599 160.389C590.111 159.761 590.122 159.099 590.401 158.575C590.355 158.262 590.39 157.936 590.553 157.576C596.308 144.705 601.54 131.253 604.26 117.371C604.911 109.988 605.563 102.593 606.214 95.2101C606.307 94.1288 607.26 93.6288 608.19 93.6637C608.33 84.3624 608.237 74.9913 610.713 65.969C613.236 56.7374 618.456 48.1104 626.921 43.3435C627.107 44.6108 627.2 45.913 627.2 47.2384Z" fill="white"/>
<path d="M634.106 38.158C633.699 37.2279 632.665 36.7047 631.688 37.0767C630.374 37.5767 629.095 38.2045 627.874 38.9137C627.619 38.9602 627.351 39.0532 627.095 39.2393C620.852 43.5295 615.736 49.2266 612.004 55.8073C608.004 62.8647 606.109 70.6662 605.668 78.7235C605.412 83.3044 605.47 87.9085 605.132 92.4778C604.784 97.1517 604.063 101.791 603.144 106.372C601.296 115.568 598.761 124.626 596.424 133.718C593.715 144.251 590.994 154.785 588.285 165.319C587.681 167.644 591.402 168.133 591.995 165.819C594.343 156.68 596.703 147.53 599.052 138.392C601.354 129.462 603.796 120.556 605.842 111.557C607.876 102.616 608.946 93.7567 609.179 84.5949C609.388 76.3749 610.109 68.4571 613.573 60.8998C616.759 53.9586 621.677 47.936 627.77 43.3667C628.793 42.6924 629.549 42.2157 630.328 41.7855C631.2 41.3321 632.095 40.9135 633.013 40.5647C633.943 40.2275 634.502 39.0881 634.106 38.158Z" fill="black"/>
<path d="M291.329 299.746C290.108 302.583 288.538 305.269 286.701 307.734C284.888 310.164 282.679 312.838 279.993 314.35C276.726 316.175 273.738 314.989 270.738 313.268C267.331 311.292 263.925 309.327 260.506 307.35C246.694 299.374 232.87 291.387 219.058 283.399C218.813 283.248 218.604 283.051 218.441 282.818C213.872 282.783 209.733 280.679 205.849 278.284C203.152 277.353 200.641 276.563 198.129 275.749C196.932 275.365 196.792 274.179 197.269 273.261C195.118 272.261 192.886 271.435 190.642 270.703C180.701 267.436 169.26 264.611 164.331 254.321C164.087 253.786 164.098 253.31 164.284 252.926C163.226 252.031 162.087 251.205 160.854 250.531C157.89 248.903 154.645 247.636 152.529 244.857C150.669 242.439 149.937 238.951 151.797 236.311C152.518 235.288 153.623 234.498 154.82 234.079C154.204 231.451 155.18 228.417 157.32 226.696C159.587 224.859 162.447 224.801 165.005 225.754C165.04 224.813 165.296 223.906 165.877 223.103C168.202 219.871 172.202 221.604 174.481 223.848C176.108 225.429 177.701 227.045 179.329 228.614C179.492 228.638 179.655 228.684 179.817 228.766C184.305 230.731 188.421 233.393 192.014 236.707C192.502 237.172 192.688 237.683 192.676 238.16C195.409 239.532 198.281 240.636 201.257 241.404C203.21 241.904 205.187 242.287 207.186 242.543C208.024 242.648 208.861 242.752 209.698 242.776C210.605 242.811 210.581 242.555 210.721 241.671C211.198 238.52 209.965 235.474 208.361 232.835C206.605 229.917 204.419 227.254 202.455 224.441C200.827 222.104 197.839 218.488 199.641 215.558C201.129 213.151 204.745 212.918 206.896 214.535C209.686 216.604 210.209 220.487 211.837 223.359C212.395 224.359 213.058 225.313 213.756 226.219C214.802 226.812 215.837 227.417 216.883 228.033C217.162 228.022 217.43 228.056 217.72 228.208C221.604 230.242 225.185 232.765 228.37 235.8C228.719 236.137 228.905 236.509 228.975 236.904C230.23 238.079 231.475 239.299 232.649 240.578C236.497 244.717 239.846 249.287 242.625 254.193C244.02 256.67 245.322 259.332 247.345 261.367C249.368 263.39 252.031 264.518 254.705 265.425C267.424 269.785 280.4 273.517 293.235 277.551C293.852 277.749 294.259 278.458 294.329 279.063C295.201 286.073 294.131 293.259 291.329 299.746Z" fill="white"/>
<path d="M312.955 281.969C292.446 273.924 271.541 266.89 250.357 260.844C247.869 258.948 246.311 256.251 244.904 253.461C243.288 250.252 241.649 247.078 239.614 244.101C235.417 237.974 230.068 232.8 223.976 228.568C221.197 226.638 218.337 224.813 215.768 222.592C214.454 221.452 213.233 220.232 212.198 218.825C211.128 217.371 210.419 215.732 209.443 214.232C207.676 211.512 204.257 209.361 201.071 211.128C198.176 212.732 197.572 216.453 197.886 219.464C198.316 223.499 200.339 227.219 202.792 230.382C204.06 232.009 205.49 233.463 206.873 234.998C207.989 236.253 209.605 238.079 209.106 239.857C198.967 240.602 190.584 232.974 183.283 226.998C181.341 225.417 179.388 223.859 177.33 222.441C175.318 221.057 173.156 219.604 170.703 219.197C167.191 218.616 163.75 221.022 163.75 224.394C161.425 223.138 158.843 222.673 156.251 224.103C153.17 225.812 151.612 229.603 152.495 232.94C150.705 233.3 149.147 234.323 148.286 236.253C146.438 240.369 148.844 244.822 151.821 247.671C154.076 249.856 156.681 251.763 159.308 253.589C161.25 256.17 163.959 258.344 166.343 260.297C176.725 268.761 190.142 272.924 202.083 278.679C227.848 291.096 251.95 306.467 276.901 320.372L300.793 333.685C302.886 334.859 304.398 331.429 302.316 330.266C280.447 318.082 259.03 305.141 237.172 292.968C226.243 286.887 215.209 280.981 203.978 275.458C196.246 271.656 187.526 268.703 179.713 264.634C177.121 263.274 174.609 261.797 172.272 260.111C168.924 257.728 165.459 255.03 162.796 251.879C162.552 251.577 162.285 251.228 162.018 250.833C160.448 248.403 159.122 244.415 162.459 243.101C166.459 241.532 169.749 246.299 171.784 248.88C174.167 251.914 176.888 254.67 180.202 256.693C184.062 259.041 188.352 259.82 192.782 260.39C197.188 260.96 201.595 261.518 205.931 262.46C214.628 264.355 223.337 268.227 228.243 275.993C229.534 278.039 232.568 275.842 231.289 273.807C226.499 266.227 218.291 261.89 209.861 259.576C204.92 258.216 199.851 257.53 194.781 256.867C189.968 256.239 185.201 255.693 181.12 252.833C177.318 250.17 174.993 246.415 171.865 243.101C169.04 240.09 164.529 237.834 160.506 239.892C157.82 241.241 156.634 244.078 156.716 246.927C154.542 245.276 152.274 243.276 151.6 240.613C151.263 239.288 151.298 237.381 152.751 236.718C154.67 235.846 157.216 237.032 158.715 238.195C160.622 239.671 162.645 236.521 160.762 235.056C159.599 234.16 158.099 233.451 156.541 233.079C156.507 232.928 156.46 232.765 156.378 232.602C154.925 229.684 157.727 226.301 160.843 227.15C162.994 227.731 164.703 229.533 166.215 231.068C167.773 232.649 169.331 234.195 171.005 235.649C177.923 241.648 185.934 246.229 194.63 249.124C196.921 249.891 198.06 246.322 195.77 245.555C185.387 242.09 176.516 236.137 168.842 228.405C168.284 227.847 167.68 227.266 167.04 226.708C167.633 226.15 167.703 225.289 167.424 224.51C167.249 224.034 167.912 223.394 168.249 223.173C169.052 222.65 170.04 222.813 170.9 223.08C172.993 223.731 174.911 225.278 176.667 226.557C180.19 229.126 183.445 232.033 186.875 234.719C193.607 239.997 201.444 244.334 210.257 243.508C210.908 243.45 211.314 243.125 211.535 242.706C211.873 242.543 212.187 242.264 212.396 241.846C213.989 238.695 212.21 235.428 210.105 233.009C207.78 230.347 205.292 227.905 203.56 224.789C202.141 222.243 200.781 218.534 201.967 215.651C202.513 214.314 203.606 213.884 204.873 214.697C206.199 215.558 206.908 217.244 207.641 218.581C210.908 224.487 216.639 227.987 222.011 231.742C227.638 235.672 232.533 240.427 236.44 246.078C238.637 249.263 240.288 252.682 242.079 256.088C243.753 259.274 245.706 262.367 248.811 264.332C249.229 264.599 249.659 264.669 250.066 264.634C270.843 270.564 291.329 277.505 311.455 285.399C313.676 286.271 315.211 282.853 312.955 281.969Z" fill="black"/>
<path d="M627.2 168.098V203.919C626.909 205.164 626.642 206.408 626.375 207.628C622.642 224.836 614.899 238.009 594.518 238.892C573.066 239.846 532.024 216.104 532.024 216.104C532.024 216.104 534.524 245.194 537.954 256.042C541.802 268.215 556.138 289.875 556.138 289.875L553.045 290.84L461.008 319.349L416.56 333.127L412.607 289.782C412.607 289.782 400.922 290.713 393.039 283.934C388.109 279.69 385.551 276.377 385.551 276.377C385.551 276.377 372.32 310.187 349.113 330.487C348.497 331.022 348.032 331.685 347.474 332.243C347.323 332.394 347.183 332.545 347.032 332.685C346.532 333.196 346.032 333.696 345.532 334.161C342.393 337.126 339.382 339.254 336.58 340.079C334.743 340.614 332.871 340.975 330.953 341.172C307.723 343.672 279.632 322.86 275.598 319.768C275.11 319.384 276.133 315.547 276.133 315.547L286.562 276.237L287.527 272.633C287.643 272.226 290.782 273.098 290.782 273.098C290.817 273.11 313.896 279.563 313.896 279.563C313.896 279.563 331.359 234.951 345.125 210.5C349.055 203.512 348.927 202.792 350.648 200.059C361.507 182.829 390.318 177.504 390.318 177.504C390.318 177.504 390.167 178.771 390.539 180.527C391.435 184.852 395.492 192.188 412.642 191.398C436.779 190.293 458.73 182.061 473.298 166.272C487.854 150.495 478.797 140.67 478.797 140.67C478.797 140.67 509.805 128.125 533.942 143.263C547.894 152.018 570.846 169.632 579.6 176.457C581.217 177.701 582.333 178.585 582.844 178.98C583.158 179.224 589.937 158.331 589.937 158.331C589.937 158.331 599.331 163.052 610.853 165.063C617.376 166.214 622.991 167.261 627.2 168.098Z" fill="#B5E6EB"/>
<path d="M642.431 69.6198C639.698 72.5962 636.664 75.0378 635.966 79.2466C635.594 81.5022 635.524 83.8159 635.129 86.0948C634.769 88.141 634.245 90.1641 633.606 92.1406C632.269 96.2797 630.281 100.186 627.804 103.732C626.711 105.29 625.339 107.639 623.526 108.418C621.828 109.127 620.166 108.244 619.236 106.779C618.073 104.965 617.701 102.5 617.259 100.419C616.794 98.1981 616.515 95.9309 616.387 93.6637C616.155 88.9549 616.608 84.2345 617.782 79.6652C618.305 77.6073 621.282 77.8049 621.526 79.5024C625.723 74.0844 628.514 67.5153 633.339 62.574C635.862 59.9929 639.966 56.9583 643.524 59.679C647.07 62.3996 644.826 67.0154 642.431 69.6198Z" fill="white"/>
<path d="M646.43 56.3886C641.024 51.4705 634.408 58.0977 630.699 61.795C625.118 67.3409 620.398 73.6775 616.515 80.514C615.329 82.6068 618.759 84.1182 619.933 82.0371C622.933 76.7353 626.525 71.7823 630.618 67.2712C632.595 65.0854 634.676 62.9926 636.908 61.0625C638.547 59.6557 641.559 57.2955 643.768 59.0395C645.86 60.6789 643.524 64.1087 642.431 65.6435C640.663 68.1432 638.803 70.5848 637.152 73.1659C635.524 75.7122 634.025 78.363 632.99 81.2116C631.897 84.188 631.409 87.2923 630.932 90.4199C630.409 93.8614 629.699 97.1168 628.165 100.256C626.618 103.419 624.572 106.279 622.549 109.139C621.154 111.092 624.049 113.487 625.444 111.522C627.513 108.616 629.583 105.686 631.234 102.5C632.839 99.3957 633.804 96.1053 634.373 92.6638C634.955 89.1526 635.303 85.5948 636.594 82.2463C637.896 78.8862 639.791 75.8168 641.849 72.8636C644.721 68.7478 651.825 61.2834 646.43 56.3886Z" fill="black"/>
<path d="M390.784 279.888C384.168 271.529 380.436 261.158 380.331 250.484C380.227 239.869 383.959 229.324 390.458 220.976C391.935 219.069 389.04 216.697 387.563 218.592C376.471 232.835 373.553 252.182 380.203 269.006C382.064 273.703 384.61 278.121 387.749 282.086C389.237 283.957 392.284 281.772 390.784 279.888Z" fill="white"/>
<path d="M582.833 179.003C581.17 185.619 579.136 192.142 576.706 198.525C575.845 200.78 572.439 199.246 573.288 197.002C575.845 190.293 577.95 183.457 579.589 176.481C581.205 177.725 582.321 178.597 582.833 179.003Z" fill="white"/>
<path d="M395.865 465.578C396.039 468.961 396.923 472.414 399.202 474.902C403.248 479.309 409.491 479.902 414.967 479.937C448.045 480.216 481.123 480.088 514.201 480.169C527.165 480.192 585.275 481.727 587.03 481.692C592.832 481.564 600.726 481.355 605.424 477.332C607.807 475.298 609.481 471.67 610.156 468.647C611.016 464.764 610.795 460.706 610.795 456.765V443.382C610.795 439.371 610.074 432.709 609.481 428.698C606.83 410.677 583.438 413.641 565.416 412.781C522.723 410.746 466.474 415.269 431.559 412.688C423.443 412.083 411.689 411.397 403.899 414.478C393.318 418.652 396.841 429.082 396.411 439.836C396.225 444.243 396.086 448.649 395.981 453.056C395.876 457.195 395.644 461.415 395.865 465.578Z" fill="#B5E6EB"/>
<path d="M515.688 380.04C515.572 382.238 514.956 384.47 513.386 386.075C510.596 388.923 506.305 389.307 502.527 389.342C479.75 389.528 456.962 389.435 434.185 389.493C425.256 389.504 414.129 388.691 405.56 391.353C401.142 392.725 396.503 396.62 387.958 402.305C386.865 403.038 385.435 402.491 385.667 401.282C386.33 397.701 386.993 394.12 387.644 390.551C386.435 390.528 385.237 390.504 384.028 390.469C381.598 390.411 379.145 390.353 376.773 389.807C375.715 389.574 374.703 389.237 373.773 388.807C372.866 388.621 372.006 388.295 371.285 387.667C370.75 387.214 370.355 386.644 370.076 386.028C369.157 384.923 368.471 383.598 368.099 382.017C367.506 379.505 367.657 376.878 367.657 374.32V365.658C367.657 363.054 368.157 358.752 368.564 356.147C370.39 344.486 386.504 346.404 398.922 345.846C428.325 344.532 467.066 347.462 491.11 345.788C496.69 345.404 504.794 344.951 510.166 346.951C517.455 349.66 515.025 356.403 515.328 363.368C515.456 366.216 515.549 369.076 515.618 371.925C515.688 374.611 515.851 377.343 515.688 380.04Z" fill="#B5E6EB"/>
<path d="M351.358 333.15C347.974 338.335 342.091 340.777 336.08 341.207C334.383 341.323 332.674 341.312 330.953 341.184C326.488 340.882 321.977 339.928 317.675 338.928C311.955 337.591 306.339 335.836 300.875 333.65C291.899 330.057 283.411 325.407 275.587 319.791C275.098 319.407 276.121 315.57 276.121 315.57C280.016 318.5 284.109 321.151 288.364 323.535C297.77 328.848 307.909 332.789 318.408 335.266C326.384 337.126 338.498 339.975 345.533 334.185C346.067 333.743 346.567 333.266 347.032 332.708C347.428 332.266 347.777 331.801 348.114 331.29C348.381 330.883 348.73 330.627 349.102 330.511C350.555 330.011 352.416 331.534 351.358 333.15Z" fill="white"/>
<path d="M391.69 180.271C391.306 180.364 390.923 180.445 390.539 180.538C382.691 182.294 374.808 184.34 367.588 187.944C360.728 191.363 354.938 196.188 350.88 202.745C346.218 210.291 342.998 218.79 339.347 226.847L315.768 278.842C315.407 279.644 314.419 279.83 313.663 279.702C304.629 278.26 295.595 277.667 286.562 276.237L287.527 272.633C288.608 272.807 289.701 272.959 290.782 273.098C298.235 274.11 305.641 274.656 313.047 275.83C317.407 266.227 321.767 256.612 326.127 246.996C330.138 238.137 334.161 229.289 338.172 220.429C341.788 212.442 344.986 203.885 350.404 196.885C360.042 184.422 376.006 179.91 390.702 176.655C393.05 176.143 394.05 179.748 391.69 180.271Z" fill="white"/>
<path d="M225.277 176.725C225.045 181.817 223.266 186.41 218.639 189.014C214.523 191.328 209.675 191.77 205.07 192.107C198.792 192.583 192.502 192.828 186.212 192.932C173.585 193.13 160.947 192.804 148.332 192.339C144.112 192.188 139.136 191.7 136.113 188.375C132.473 184.363 133.287 177.969 133.171 172.981C133.09 169.458 133.008 165.935 132.915 162.412C132.892 161.18 132.857 159.959 132.834 158.715C132.648 150.739 132.45 142.775 132.264 134.811C132.125 128.893 131.799 122.928 131.892 117.01C131.962 112.708 132.508 108.034 135.229 104.535C141.368 96.6169 157.296 98.9306 166.063 98.3725C178.096 97.5935 190.119 96.8145 202.164 96.0588C213.128 95.3496 224.847 97.3029 225.138 110.534C225.208 113.685 225.161 116.847 225.173 119.998C225.185 123.533 225.196 127.067 225.196 130.602L225.208 133.997C225.231 142.054 225.254 150.123 225.277 158.18C225.289 164.342 225.568 170.563 225.277 176.725Z" fill="white"/>
<path d="M225.277 158.18C225.254 150.123 225.231 142.054 225.208 133.997L225.196 130.602C225.196 127.067 225.185 123.533 225.173 119.998C225.161 116.847 225.208 113.685 225.138 110.534C224.847 97.2912 213.128 95.3496 202.164 96.0588C190.13 96.8262 178.108 97.6052 166.063 98.3725C157.296 98.9306 141.368 96.6285 135.229 104.535C132.508 108.034 131.962 112.708 131.892 117.01C131.799 122.928 132.125 128.893 132.264 134.811C132.45 142.775 132.648 150.751 132.834 158.715C132.857 159.959 132.892 161.18 132.915 162.412C133.008 165.935 133.09 169.458 133.171 172.981C133.287 177.969 132.473 184.363 136.113 188.375C139.136 191.7 144.112 192.188 148.332 192.339C160.947 192.804 173.585 193.13 186.212 192.932C192.502 192.828 198.792 192.583 205.07 192.107C209.675 191.77 214.523 191.328 218.639 189.014C223.266 186.41 225.045 181.817 225.277 176.725C225.568 170.563 225.289 164.342 225.277 158.18ZM182.422 143.903C178.794 146.856 175.911 150.495 172.597 153.762C169.318 156.994 165.586 159.564 160.796 159.32C157.901 159.18 155.099 158.238 152.297 157.564C150.099 157.029 147.844 156.669 145.577 156.587C142.449 156.471 139.275 156.843 136.241 157.645C136.159 153.39 136.089 149.135 135.985 144.879L135.555 127.09C135.45 122.335 134.938 117.347 135.694 112.627C136.368 108.43 138.31 104.837 142.705 103.802C153.587 101.233 166.807 101.512 178.038 100.849C188.444 100.233 198.897 100 209.314 100.326C218.65 100.616 221.65 103.628 221.673 113.08C221.685 118.952 221.708 124.823 221.72 130.695C207.582 131.264 193.734 134.694 182.422 143.903Z" fill="#B5E6EB"/>
<path d="M171.47 133.473C169.714 139.124 164.761 142.868 158.855 143.112C153.03 143.344 147.484 140.124 145.252 134.683C143.101 129.416 144.322 122.882 148.449 118.905C148.775 118.591 149.123 118.452 149.46 118.417C154.134 114.603 161.378 114.08 166.366 117.65C171.354 121.219 173.295 127.625 171.47 133.473Z" fill="#B5E6EB"/>
<path d="M290.375 31.4959C281.515 25.8802 271.807 21.0435 261.343 19.4274C251.309 17.8811 240.834 19.2298 232.172 24.7641C227.8 27.5428 223.94 31.0657 219.394 33.5887C215.232 35.9024 210.558 37.3906 205.814 37.9254C201.164 38.4486 196.42 38.1347 191.909 36.8674C187.06 35.5071 182.933 32.9376 178.887 30.0077C174.771 27.0196 170.702 24.2292 165.958 22.3225C161.633 20.5785 157.029 19.5902 152.378 19.253C143.123 18.5787 133.554 20.7296 125.625 25.6012C117.417 30.6472 110.859 38.53 101.093 40.6693C92.8494 42.4715 83.6178 40.4136 77.0255 35.0886C73.3631 32.1354 70.9798 27.9498 67.3407 24.985C63.4458 21.8225 58.5043 20.7645 53.5863 20.5436C44.2152 20.1018 34.6814 23.148 27.2287 28.8218C25.4033 30.2054 23.7173 31.7284 22.1477 33.4027C20.5083 35.1583 23.1476 37.8208 24.7986 36.0536C31.1119 29.2985 39.9365 25.0082 49.1797 24.3455C53.8071 24.0083 59.0857 24.2641 63.1899 26.6476C67.2011 28.9729 69.5381 33.2864 72.8517 36.4024C79.0604 42.2506 87.7337 45.3316 96.2328 45.0177C100.477 44.8666 104.639 43.8783 108.487 42.0646C112.894 39.995 116.696 36.879 120.498 33.891C124.311 30.8913 128.23 28.0312 132.729 26.1244C136.926 24.3455 141.461 23.2875 146.007 22.9735C155.401 22.3341 164.679 24.7408 172.481 30.0193C176.666 32.8562 180.549 36.1698 185.165 38.3324C189.351 40.2857 193.816 41.4251 198.42 41.7971C207.884 42.5529 217.325 39.809 225.091 34.4258C229.289 31.5075 233.195 28.1125 237.834 25.8919C242.322 23.7409 247.345 22.7294 252.309 22.5782C262.738 22.276 272.761 25.8221 281.806 30.7751C284.073 32.0191 286.294 33.3562 288.48 34.7398C290.526 36.0303 292.41 32.7865 290.375 31.4959Z" fill="#B5E6EB"/>
<path d="M47.0758 83.8043C46.5759 81.1418 44.239 79.3048 41.6463 78.956C38.7977 78.5723 35.6352 79.8629 34.2865 82.5021C33.9493 83.1765 33.9843 84.0252 34.4378 84.6182C34.2983 85.5018 34.333 86.4087 34.6237 87.2923C35.0539 88.5829 35.8328 89.7804 36.8908 90.6292C38.0651 91.5709 39.4836 92.2104 41.0067 92.1755C42.4484 92.1523 43.7507 91.5709 44.832 90.6524C46.7852 89.0247 47.5409 86.2459 47.0758 83.8043ZM43.239 86.5598C43.1343 86.7807 43.0646 86.9435 42.9832 87.083C42.6577 87.5481 42.5531 87.6876 42.4368 87.7922C42.0764 88.0829 41.9138 88.1876 41.751 88.2689C41.0069 88.4317 40.7976 88.4085 40.6 88.4085C38.5188 86.8738 38.4025 86.6412 38.2746 86.4087C38.1932 84.7112 38.3792 84.281 38.1583 84.7926C38.3559 84.3391 38.4256 83.8276 38.3325 83.3625C39.251 82.8858 39.4488 82.7928 39.6465 82.7347C39.8209 82.6881 39.9952 82.6533 40.1696 82.63C40.7277 82.6068 40.9371 82.6184 41.1464 82.63C41.6231 82.7347 41.8091 82.7928 41.9951 82.8509C42.6811 83.3043 42.8437 83.4206 42.9716 83.5718C43.3204 84.2229 43.3903 84.3856 43.4252 84.56C43.4833 85.0018 43.495 85.1995 43.495 85.3855C43.4369 85.8855 43.4018 86.0715 43.3437 86.2692C43.2972 86.3738 43.2738 86.4668 43.239 86.5598Z" fill="#8256E1"/>
<path d="M129.777 391.167C125.068 391.341 119.499 390.597 113.941 390.4C108.511 390.214 102.582 390.016 97.1405 389.923C86.4789 389.737 75.6313 388.644 64.9696 388.504C45.2857 388.249 28.1013 388.563 8.41733 388.504C6.84773 388.504 5.32461 388.504 3.74338 388.504C2.72024 388.504 2.53442 387.4 2.49954 386.377C2.267 377.134 1.95296 370.065 1.79018 360.821C1.25536 328.116 1.05776 295.805 1.55771 263.099C1.56933 262.227 35.5192 228.231 35.5424 228.231C48.7271 227.103 59.7258 227.231 72.9337 226.44C81.5375 225.917 91.0017 225.812 99.559 226.382C107.988 226.952 115.022 227.161 123.335 226.196C128.381 225.615 129.742 227.987 129.788 232.568C130.184 271.226 130.823 310.803 131.462 349.45C131.66 361.205 131.823 372.971 131.962 384.726C131.986 386.388 132.602 386.551 131.997 388.109C131.532 389.283 130.742 391.132 129.777 391.167Z" fill="white"/>
<path d="M133.462 383.017C133.427 379.273 133.392 375.529 133.334 371.774C133.183 357.38 133.02 342.986 132.857 328.592C132.625 306.746 132.38 284.922 132.136 263.076C132.067 256.542 131.997 249.996 131.927 243.473C131.892 240.206 131.857 236.928 131.811 233.66C131.787 230.638 131.88 227.661 131.043 224.72C130.753 223.696 127.904 224.243 126.951 224.255C125.311 224.278 123.66 224.301 122.033 224.348C118.754 224.394 115.475 224.452 112.196 224.499C105.639 224.615 99.0816 224.72 92.5242 224.824C83.8623 224.964 75.2003 225.115 66.5501 225.254C56.7604 225.417 36.6464 227.231 35.7976 227.301C35.7744 227.301 0.371173 262.006 0.359547 262.878C-0.1404 295.584 -0.11709 328.313 0.417737 361.019C0.58051 370.262 0.766537 379.505 0.99907 388.737C1.03395 389.76 1.84766 390.609 2.87081 390.609C36.0301 390.679 69.1778 391.039 102.325 391.667C107.999 391.783 113.662 391.888 119.335 392.016C123.114 392.109 129.009 393.818 132.252 391.039C134.45 389.167 133.485 385.714 133.462 383.017ZM30.8446 386.981C22.1363 386.923 13.4279 386.888 4.70791 386.865C3.90567 354.787 3.59172 322.674 3.801 290.585C3.85913 281.597 3.96378 272.575 4.1033 263.588C4.28933 263.611 4.47535 263.622 4.68463 263.588C9.812 262.797 14.9859 262.681 20.1714 262.96C25.2872 263.239 30.4144 263.541 35.4488 262.285C36.2277 262.088 36.8442 261.285 36.8209 260.472C36.5767 250.635 36.4951 240.788 36.5881 230.94C36.7393 230.905 36.879 230.87 37.0301 230.835C46.4361 229.033 56.0977 229.149 65.6315 228.987C75.9909 228.824 86.3735 228.649 96.7329 228.475C107.162 228.312 117.591 228.138 128.02 227.975C128.253 249.229 128.497 270.494 128.73 291.759C128.962 313.605 129.206 335.44 129.451 357.275L129.788 388.493C96.8029 387.726 63.8295 387.214 30.8446 386.981Z" fill="black"/>
<path d="M52.0516 244.438C70.9798 244.473 89.9081 244.508 108.836 244.543C111.243 244.543 111.255 240.799 108.836 240.799C89.9081 240.764 70.9798 240.729 52.0516 240.695C49.6332 240.683 49.6332 244.427 52.0516 244.438Z" fill="black"/>
<path d="M110.081 276.179C86.6652 277.353 63.2256 278.225 39.7746 278.76C33.1358 278.911 26.4971 279.039 19.8582 279.132C17.4515 279.167 17.4399 282.911 19.8582 282.876C43.3092 282.516 66.7486 281.853 90.1763 280.853C96.8151 280.574 103.442 280.26 110.081 279.923C112.488 279.807 112.5 276.051 110.081 276.179Z" fill="black"/>
<path d="M29.3222 295.189C29.8338 295.131 30.2758 295.014 30.6478 294.642C30.9734 294.317 31.2175 293.782 31.1942 293.317C31.1477 292.387 30.3686 291.329 29.3222 291.445C26.7992 291.712 24.2879 291.98 21.7649 292.247C21.2533 292.305 20.8116 292.422 20.4396 292.794C20.114 293.119 19.8699 293.654 19.8931 294.119C19.9396 295.049 20.7185 296.107 21.7649 295.991C24.2879 295.735 26.7992 295.456 29.3222 295.189Z" fill="black"/>
<path d="M108.802 289.852C85.9205 291.317 62.9693 291.654 40.0531 290.829C37.6464 290.747 37.6464 294.491 40.0531 294.573C62.9693 295.386 85.9088 295.061 108.802 293.596C111.197 293.445 111.22 289.701 108.802 289.852Z" fill="black"/>
<path d="M50.7964 319.814C40.0766 319.128 29.3337 319.256 18.6372 320.209C16.2537 320.419 16.2304 324.174 18.6372 323.953C29.3337 323 40.0883 322.872 50.7964 323.558C53.2031 323.709 53.1915 319.965 50.7964 319.814Z" fill="black"/>
<path d="M107.569 320C92.4197 319.756 77.2701 319.814 62.1322 320.175C59.7254 320.233 59.7138 323.976 62.1322 323.918C77.2701 323.558 92.4197 323.5 107.569 323.744C109.976 323.779 109.976 320.035 107.569 320Z" fill="black"/>
<path d="M106.942 366.635H89.2694C86.8626 366.635 86.851 370.378 89.2694 370.378H106.942C109.349 370.378 109.349 366.635 106.942 366.635Z" fill="black"/>
<path d="M190.549 433.314C190.119 434.86 189.712 436.406 189.305 437.964C189.246 438.197 189.177 438.441 189.119 438.674C184.619 455.904 181.084 473.379 178.515 490.994C178.341 492.249 178.155 493.528 177.98 494.795C176.794 494.354 175.597 493.9 174.411 493.435C172.783 492.807 171.167 492.191 169.539 491.54C156.901 486.529 144.449 481.041 132.241 475.053C130.927 474.426 129.625 473.774 128.323 473.135C129.544 472.344 130.753 471.577 131.985 470.786C135.473 468.554 138.961 466.333 142.449 464.089C156.936 454.835 171.411 445.568 185.886 436.313L190.549 433.314Z" fill="black"/>
</svg>
