<svg width="352" height="263" viewBox="0 0 352 263" fill="none" xmlns="http://www.w3.org/2000/svg">
<g clip-path="url(#clip0)">
<path d="M157.352 235.597C153.738 240.858 148.164 244.489 142.096 246.329C135.897 248.209 129.215 248.411 122.891 247.02C119.686 246.316 116.538 245.189 113.643 243.618C113.201 243.809 112.608 243.521 112.624 243.039C110.004 241.487 107.627 239.551 105.654 237.2C101.554 232.312 99.2521 225.69 100.166 219.312C100.282 218.511 100.454 217.72 100.662 216.934C100.894 216.065 102.198 216.574 101.969 217.435C100.387 223.382 102.047 229.856 105.567 234.803C105.7 234.989 105.842 235.161 105.98 235.341C106.182 231.812 108.923 229.278 111.503 227.11C112.918 225.921 114.347 224.716 115.349 223.142C116.384 221.526 116.95 219.613 118.206 218.134C119.487 216.628 121.33 215.64 123.328 216.127C123.697 216.219 123.851 216.708 123.729 217.031C123.584 217.421 123.19 217.521 122.826 217.432C121.317 217.063 119.843 218.228 119.018 219.369C117.991 220.789 117.43 222.483 116.489 223.957C114.697 226.766 111.678 228.374 109.519 230.838C108.333 232.194 107.303 233.875 107.352 235.739C107.36 236.094 107.144 236.339 106.877 236.452C107.783 237.504 108.77 238.477 109.832 239.362C109.864 239.311 109.904 239.263 109.953 239.217C112.503 236.893 114.683 234.109 117.608 232.223C120.514 230.349 123.845 229.725 127.263 229.735C130.738 229.746 134.177 230.33 137.638 230.553C139.39 230.666 141.153 230.688 142.897 230.472C144.641 230.257 146.296 229.749 147.945 229.157C150.916 228.089 154.212 226.707 157.377 227.314C157.487 227.296 157.606 227.304 157.735 227.352C157.867 227.401 157.997 227.452 158.129 227.5C158.484 227.608 158.838 227.731 159.188 227.898C159.296 227.949 159.379 228.016 159.444 228.092C160.35 225.198 160.738 222.145 160.538 219.121C160.487 218.344 160.395 217.572 160.274 216.802C160.131 215.915 161.517 215.702 161.66 216.593C162.714 223.183 161.129 230.098 157.352 235.597ZM121.088 245.137C127.061 246.832 133.503 246.991 139.549 245.579C144.783 244.355 149.813 241.832 153.587 237.977C152.293 234.693 147.867 237.248 145.692 237.662C142.665 238.241 139.597 237.514 136.692 236.681C133.748 235.839 130.789 234.798 127.694 234.749C125.026 234.709 122.374 235.486 120.069 236.804C117.735 238.136 115.748 240.105 114.433 242.45C116.538 243.588 118.786 244.484 121.088 245.137ZM158.692 229.203C158.385 229.087 158.075 228.971 157.767 228.856C154.851 227.982 151.754 229.259 148.991 230.263C147.376 230.849 145.746 231.419 144.048 231.715C142.425 231.997 140.77 232.057 139.126 232.016C132.643 231.852 125.395 229.569 119.32 232.823C116.004 234.599 113.657 237.713 110.929 240.218C111.667 240.766 112.433 241.28 113.223 241.756C115.899 237.054 120.956 233.794 126.387 233.399C129.635 233.162 132.77 234.071 135.853 234.981C138.953 235.895 142.223 236.896 145.482 236.274C147.366 235.914 149.102 234.884 151.061 234.919C152.538 234.943 153.897 235.605 154.603 236.869C154.651 236.815 154.7 236.761 154.746 236.707C155.767 235.5 156.665 234.19 157.433 232.807C158.067 231.664 158.608 230.47 159.059 229.24C158.945 229.262 158.824 229.254 158.692 229.203Z" fill="black"/>
<path d="M31.0386 57.8424C30.3809 56.9682 29.2488 56.8014 28.2245 56.7046C27.0251 56.5916 25.8175 56.562 24.6153 56.6185C22.2164 56.7315 19.8201 57.1484 17.5371 57.8989C13.2325 59.3137 9.32948 61.8314 6.45614 65.3363C6.46422 65.3901 6.46692 65.4493 6.45883 65.5112C6.27284 67.4129 7.68795 69.008 9.24322 69.901C10.998 70.9097 13.0384 71.2944 14.9279 71.9776C18.6449 73.3198 21.9954 75.547 24.7178 78.3983C25.3404 79.0492 24.2541 79.9315 23.6369 79.286C20.7312 76.2437 17.1058 74.0945 13.1004 72.8411C11.1192 72.2224 9.00063 71.6683 7.37798 70.3045C6.34562 69.4357 5.52891 68.3059 5.20276 67.0283C5.0006 67.3268 4.80383 67.6281 4.61515 67.9374C4.31865 71.211 6.98444 73.882 9.47503 75.6224C12.1516 77.4918 15.2352 79.0412 17.1409 81.7929C18.3269 83.5063 18.9145 85.5426 20.0627 87.2748C20.556 88.0173 19.4778 88.9103 18.9819 88.1625C17.9252 86.5674 17.3295 84.7437 16.343 83.1136C15.4373 81.6181 14.1058 80.4614 12.6988 79.4554C9.87935 77.438 6.67986 75.8564 4.68793 72.9029C4.11649 72.0556 3.67714 71.1384 3.42646 70.1754C2.18656 72.8384 1.46687 75.738 1.39409 78.6861C1.28628 82.9603 2.69869 87.1861 5.18119 90.6533C7.93594 94.4998 11.9036 97.3995 16.4886 98.6503C17.3592 98.887 16.8498 100.189 15.9872 99.9549C7.21356 97.5609 0.407563 89.1873 0.0194196 80.0929C-0.169261 75.6788 1.02482 71.2917 3.25934 67.4963C3.29438 67.3053 3.38872 67.1654 3.51541 67.074C3.72565 66.7324 3.94129 66.3961 4.16771 66.0653C7.06261 61.8557 11.2945 58.6978 16.0843 56.9359C18.7554 55.9541 21.5749 55.3758 24.4159 55.2386C25.8472 55.1687 27.3 55.1821 28.7259 55.3516C30.0062 55.5049 31.327 55.8842 32.1329 56.9547C32.6612 57.6729 31.5804 58.5606 31.0386 57.8424Z" fill="black"/>
<path d="M7.7715 81.4836C7.83889 81.1689 7.92514 80.8945 8.2486 80.7546C8.41032 80.6847 8.59092 80.6444 8.76343 80.6067C10.0114 80.3404 11.405 80.8246 12.2352 81.7849C13.0896 82.7774 13.1516 84.1788 12.5397 85.3059C11.8982 86.4894 10.5802 87.1646 9.25669 86.7611C7.80654 86.32 6.83888 84.6603 7.34562 83.2078C7.40762 83.0329 7.54508 82.9011 7.70951 82.8258C7.70412 82.7693 7.69333 82.7129 7.69333 82.6564C7.67716 82.2637 7.69064 81.8709 7.7715 81.4836ZM9.23243 85.1364C9.26748 85.2225 9.34564 85.2736 9.4292 85.3247C9.50467 85.3624 9.54241 85.3812 9.58284 85.3946C9.65292 85.4215 9.723 85.4458 9.79578 85.4673C9.89282 85.4807 9.95481 85.4861 10.0168 85.4969C10.0977 85.4996 10.1408 85.4942 10.1839 85.4888C10.2163 85.4834 10.3591 85.4511 10.3753 85.4538C10.4346 85.435 10.4912 85.4135 10.5478 85.3893C10.5828 85.3731 10.6179 85.357 10.6529 85.3382C10.785 85.2521 10.847 85.2064 10.9063 85.1579C10.944 85.1257 10.9791 85.0907 11.0168 85.0584C11.1327 84.9266 11.2244 84.7948 11.3106 84.6549C11.3241 84.6253 11.3834 84.5097 11.3942 84.4882C11.4292 84.4048 11.4616 84.3187 11.4885 84.2326C11.5316 84.0147 11.5505 83.9179 11.5586 83.8157C11.5613 83.7754 11.5613 83.735 11.564 83.6973C11.5532 83.579 11.5451 83.4902 11.529 83.4015C11.5209 83.3638 11.4885 83.2589 11.4858 83.2455C11.4562 83.1648 11.4238 83.0841 11.3861 83.006C11.254 82.7962 11.1974 82.7236 11.1354 82.6537C11.1139 82.6295 11.033 82.5488 11.0195 82.5353C10.9494 82.4761 10.8794 82.417 10.8039 82.3632C10.7257 82.3094 10.6475 82.2583 10.564 82.2125C10.4508 82.1614 10.405 82.1372 10.3564 82.1184C10.2594 82.0781 10.1597 82.0485 10.0572 82.0162C9.96559 81.9947 9.91169 81.9839 9.86047 81.9758C9.74457 81.957 9.63136 81.9463 9.51546 81.9409C9.48042 81.9382 9.44268 81.9382 9.40764 81.9382C9.2513 81.9516 9.18391 81.9624 9.11653 81.9732C9.01949 82.7667 9.17314 83.4956 9.59093 84.2192C9.77691 84.542 9.55319 84.9939 9.23243 85.1364Z" fill="black"/>
<path d="M201.401 238.338C200.733 239.244 199.924 240.07 199.18 240.917C198.382 242.036 197.474 243.074 196.471 244.016C195.711 244.731 194.426 243.553 195.121 242.752C195.258 242.593 195.396 242.434 195.536 242.276C195.544 242.235 195.555 242.195 195.568 242.152C195.471 241.996 195.42 241.802 195.455 241.571C195.477 241.426 195.504 241.283 195.528 241.14C195.469 240.931 195.496 240.694 195.649 240.46C195.973 238.798 196.455 237.17 197.099 235.605C196.946 235.363 196.889 235.077 197.002 234.784C197.091 234.55 197.285 234.362 197.515 234.262C197.609 233.856 197.903 233.622 198.231 233.55C198.358 233.474 198.498 233.423 198.665 233.423C199.002 233.42 199.428 233.617 199.536 233.969C199.601 234.176 199.649 234.381 199.687 234.582C200.215 234.765 200.719 235.01 201.156 235.328C202.221 236.102 202.121 237.361 201.401 238.338Z" fill="#B5E6EB"/>
<path d="M202.45 239.266C200.277 241.805 198.253 244.468 196.38 247.236C195.978 247.827 195.286 247.679 194.927 247.257C194.887 247.225 194.843 247.195 194.806 247.16C194.757 247.125 194.711 247.082 194.671 247.039C194.059 246.407 193.717 245.425 193.329 244.688L191.498 241.205C190.296 238.916 189.094 236.627 187.892 234.338C187.606 233.794 188.037 233.125 188.606 233.039C191.587 232.581 194.544 231.936 197.436 231.08C197.798 230.798 198.342 230.739 198.728 231.183C199.895 232.533 201.062 233.883 202.232 235.233C202.717 235.793 203.399 236.409 203.49 237.186C203.593 238.063 202.97 238.655 202.45 239.266ZM190.164 234.66C191.07 236.385 191.976 238.109 192.881 239.833C193.42 240.858 193.959 241.883 194.496 242.908C194.547 243.004 194.598 243.101 194.647 243.198C194.97 239.83 195.606 236.498 196.547 233.246C194.442 233.813 192.312 234.287 190.164 234.66ZM201.517 237.267C201.388 237.151 201.283 236.99 201.167 236.858C200.914 236.565 200.66 236.272 200.404 235.979C199.728 235.196 199.051 234.413 198.374 233.633C197.396 236.976 196.76 240.403 196.461 243.873C197.657 242.216 198.908 240.594 200.218 239.023C200.453 238.741 200.69 238.461 200.93 238.182C201.127 237.95 201.474 237.679 201.596 237.404C201.628 237.34 201.749 237.474 201.517 237.267Z" fill="black"/>
<path d="M68.1627 192.204C65.7045 191.881 63.249 191.558 60.7907 191.235C60.7934 192.438 60.939 193.627 61.2274 194.797C61.3864 195.434 60.5912 195.749 60.1276 195.469C58.8473 194.7 57.5697 193.931 56.292 193.161C55.8904 192.919 55.8554 192.844 55.4969 193.14C55.23 193.36 54.9686 193.584 54.7098 193.81C54.1896 194.261 53.6801 194.727 53.1815 195.203C51.1761 197.113 49.362 199.208 47.734 201.446C47.2488 202.11 46.2865 201.529 46.513 200.787C47.7232 196.814 49.4645 193.021 51.6586 189.495C50.0548 188.562 48.575 187.467 47.2246 186.178C46.7987 185.772 47.2084 185.156 47.6612 185.043C48.9604 184.723 50.2704 184.677 51.5723 184.866C51.3108 183.131 51.2758 181.369 51.4699 179.621C51.5319 179.061 52.354 178.744 52.7071 179.255C53.5454 180.468 54.3837 181.681 55.2219 182.894C57.6667 180.683 60.1088 178.469 62.5535 176.258C63.0091 175.847 63.7692 176.288 63.6937 176.874C63.2975 180.024 62.4295 183.099 61.1142 185.985C63.9471 187.233 66.5266 188.946 68.7881 191.061C69.2409 191.496 68.7234 192.279 68.1627 192.204ZM55.54 184.489C55.2758 184.729 54.761 184.694 54.5535 184.392C53.9497 183.518 53.3486 182.647 52.7448 181.772C52.7394 183.064 52.8634 184.352 53.1195 185.63C53.2327 186.2 52.6505 186.504 52.1761 186.386C51.23 186.152 50.265 186.095 49.3081 186.184C50.4753 187.163 51.7475 188.021 53.0979 188.723C53.7718 189.075 53.5103 190.076 52.9227 190.106C51.4726 192.414 50.2354 194.837 49.2165 197.357C50.3755 196.026 51.5993 194.751 52.8985 193.557C53.4564 193.043 54.0252 192.54 54.6101 192.058C55.23 191.547 55.8095 191.303 56.567 191.701C57.5858 192.239 58.5751 192.857 59.5589 193.473C59.4106 192.438 59.3567 191.391 59.4106 190.34C59.443 189.713 60.1276 189.6 60.5266 189.893C60.6317 189.842 60.7584 189.818 60.9066 189.837C62.6101 190.06 64.311 190.283 66.0145 190.506C64.2948 189.164 62.3945 188.053 60.3918 187.19C59.8662 187.47 59.0683 187.02 59.3918 186.367C60.602 183.914 61.4727 181.326 61.9875 178.649C59.8365 180.602 57.6883 182.547 55.54 184.489Z" fill="#B5E6EB"/>
<path d="M216.485 235.618C215.614 236.498 214.86 237.488 214.216 238.542C213.946 238.983 213.183 238.9 213.008 238.418C212.601 237.307 212.016 236.301 211.245 235.403C211.164 235.309 211.118 235.212 211.094 235.115C210.949 235.075 210.814 234.997 210.722 234.889C210.461 234.572 210.552 234.176 210.819 233.905C211.83 232.882 212.841 231.858 213.854 230.835C214.186 230.502 214.763 230.717 214.938 231.091C215.517 232.326 216.1 233.56 216.679 234.795C216.819 235.094 216.701 235.398 216.485 235.618ZM214.089 232.573C213.474 233.195 212.86 233.816 212.245 234.437C212.272 234.461 212.299 234.483 212.326 234.515C212.895 235.18 213.375 235.914 213.771 236.691C214.21 236.081 214.693 235.502 215.207 234.948C214.835 234.157 214.461 233.367 214.089 232.573Z" fill="#B5E6EB"/>
<path d="M370.902 199.074C374.767 224.536 358.459 250.291 344.074 255.725C330.187 260.967 312.75 263.883 299.173 262.761C279.491 261.134 260.343 257.411 242.442 246.523C229.011 238.354 218.065 226.303 203.741 219.56C196.153 215.982 188.196 214.707 179.881 216.001C175.094 216.741 170.423 218.051 165.714 219.148C160.908 220.27 156.067 221.23 151.196 222.032C142.428 223.465 133.495 224.579 124.595 224.617C117.277 224.643 109.732 223.839 102.931 220.985C96.3087 218.196 90.942 213.376 87.7749 206.906C84.4703 200.155 83.5619 192.54 82.26 185.229C80.9339 177.789 79.1522 170.211 74.1629 164.294C69.4459 158.691 62.7989 155.213 56.2517 152.181C49.6074 149.107 42.7233 146.387 36.5777 142.344C30.8984 138.608 26.114 133.6 22.4994 127.862C15.2325 116.323 12.4508 102.091 14.5343 88.6413C15.6314 81.5347 18.192 75.0709 21.6988 68.8224C23.6665 65.3121 25.5344 63.8004 26.4024 59.8356C26.4859 59.4132 27.9118 54.6872 27.9522 54.5527C33.9631 34.7714 59.3542 23.5439 83.5781 24.3939C111.322 25.3677 157.174 36.189 200.684 25.0422C245.213 13.6345 256.205 16.3862 277.769 17.5832C318.696 19.8561 333.721 32.3398 341.357 39.2151C361.187 57.065 371.783 73.3172 370.519 116.818C369.734 143.59 363.125 147.856 370.902 199.074Z" fill="black"/>
<path d="M213.784 164.538C213.784 177.321 219.304 187.332 226.35 187.332C233.396 187.332 238.916 177.321 238.916 164.538C238.916 151.759 233.396 141.747 226.35 141.747C219.304 141.747 213.784 151.759 213.784 164.538ZM216.884 164.538C216.884 153.862 221.218 144.841 226.35 144.841C231.48 144.841 235.817 153.862 235.817 164.538C235.817 175.217 231.482 184.236 226.35 184.236C221.218 184.236 216.884 175.217 216.884 164.538Z" fill="#B5E6EB"/>
<path d="M290.618 190.549C286.338 192.664 282.06 194.783 277.78 196.898C277.701 197.191 277.513 197.47 277.179 197.675C271.335 201.236 265.391 204.889 260.095 209.271L251.653 217.76C251.246 218.169 250.715 218.115 250.318 217.838C248.933 219.226 247.569 220.638 246.229 222.072C246.165 222.244 246.057 222.408 245.893 222.543C245.445 222.906 244.599 222.906 244.251 222.379C240.645 216.91 236.976 211.364 234.661 205.204C233.475 202.051 232.69 198.78 232.351 195.434C231.992 191.913 232.03 188.365 232.076 184.831C232.154 178.814 232.248 172.63 230.262 166.86C229.375 164.294 228.105 161.867 226.291 159.829C224.41 157.714 221.871 156.34 219.96 154.258C217.585 151.673 216.825 147.818 218.423 144.623C219.094 143.286 220.07 142.172 220.995 141.013C221.733 140.085 222.437 139.127 222.655 137.968C222.189 137.669 222.062 137.11 222.197 136.575C223.82 130.278 221.501 123.069 225.642 117.471C225.693 117.401 225.749 117.345 225.809 117.288C225.855 117.13 225.892 116.968 225.944 116.804C226.243 115.785 226.615 114.798 227.054 113.832C227.755 108.336 228.892 102.664 232.216 98.1984C232.151 98.0343 232.122 97.8541 232.165 97.6766C232.688 95.5301 234.467 94.3088 236.499 93.7144C238.887 93.0204 241.45 92.9962 243.901 93.3459C248.93 94.0641 253.734 96.1353 258.48 97.8487C260.693 98.6449 262.901 99.4411 265.106 100.237C265.068 99.7477 265.311 99.39 265.647 99.1883C265.348 95.6861 265.138 92.1704 265.028 88.6548C264.949 86.1855 264.912 83.7189 264.92 81.2496C264.928 78.8825 265.079 76.5181 265.065 74.1564C265.054 73.2903 264.939 72.3919 264.37 71.7302C263.909 71.1895 263.232 70.8721 262.556 70.6488C260.717 70.0382 258.637 70.0571 256.723 69.9226C251.852 69.5863 246.971 69.4196 242.084 69.4142C236.572 69.4088 231.062 69.624 225.564 70.0436C225.48 70.0517 225.396 70.049 225.316 70.0382C223.817 70.3879 222.253 70.3045 220.793 69.7719C219.547 69.78 218.286 69.702 217.041 69.6052C212.65 69.7692 208.248 69.6939 203.865 69.3711C203.073 69.312 202.774 68.6341 202.884 68.0289C202.852 67.9778 202.814 67.9213 202.79 67.8648C202.515 67.2488 202.822 66.6275 203.383 66.3289C211.154 62.1569 219.828 59.8571 228.564 58.8672C237.93 57.8101 247.399 58.2486 256.744 59.2357C262.162 59.8087 267.561 60.5672 272.96 61.3258C273.488 61.4011 273.885 61.7857 273.982 62.3076C274.046 62.633 274.108 62.9585 274.168 63.2867C274.214 63.5099 274.192 63.7063 274.13 63.8731C275.788 68.1849 277.817 72.3381 280.206 76.2975C282.893 80.7546 285.936 85.0261 288.074 89.7926C290.146 94.4272 291.419 99.6617 290.491 104.732C289.632 109.388 287.136 113.496 284.303 117.218C280.788 121.834 276.966 126.235 273.267 130.7C269.146 146.772 274.634 163.503 283.068 177.27C285.499 181.243 288.206 185.043 291.039 188.736C291.518 189.363 291.308 190.205 290.618 190.549Z" fill="white"/>
<path d="M330.489 165.173C328.389 168.528 324.904 171.04 320.998 171.804C317.381 172.511 312.397 171.274 311.516 167.188C309.888 164.818 309.111 161.916 308.963 159.051C308.828 156.555 309.136 154.11 309.596 151.684C308.869 146.371 311.109 141.016 313.254 136.236C313.516 135.655 314.141 135.337 314.761 135.566C318.955 137.083 323.004 139.213 326.54 141.941C328.163 143.194 329.713 144.633 330.839 146.36C332.095 148.292 332.81 150.476 333.079 152.76C333.583 157.039 332.791 161.499 330.489 165.173Z" fill="white"/>
<path d="M250.747 175.537C250.598 177.442 250.461 180.433 248.054 180.85C246.291 181.156 245.251 179.669 244.746 178.163C244.563 178.007 244.426 177.783 244.377 177.474C244.137 175.903 244.046 174.305 244.108 172.716C244.113 171.685 244.175 170.658 244.307 169.641C244.455 168.474 244.644 167.239 245.03 166.123C245.296 165.351 245.897 164.67 246.652 164.495C246.765 164.431 246.881 164.377 247.008 164.331C249.318 163.5 250.515 166.099 250.69 167.941C250.927 170.464 250.943 173.017 250.747 175.537Z" fill="black"/>
<path d="M293.726 190.243C293.693 191.058 292.718 191.72 291.976 191.254C285.807 194.673 279.653 198.124 273.712 201.922C267.292 206.03 261.097 210.543 255.553 215.78C252.477 218.683 249.631 221.806 247.07 225.168C246.758 225.577 246.329 225.679 245.936 225.596C245.615 225.62 245.283 225.512 245.011 225.214C237.475 216.953 232.841 206.363 230.96 195.405C230.488 192.653 230.189 189.869 230.065 187.074C229.925 183.922 230.022 180.764 229.989 177.606C229.933 172.102 229.318 166.155 225.873 161.623C225.132 160.649 224.286 159.775 223.313 159.038C222.305 158.279 221.183 157.682 220.108 157.031C217.836 155.654 215.871 153.833 215.482 151.076C215.073 148.152 216.337 145.311 217.801 142.861C219.224 140.478 220.973 138.129 221.259 135.284C221.418 133.705 221.213 132.126 221.146 130.552C221.081 128.965 221.173 127.4 221.458 125.839C222.051 122.604 223.124 119.446 224.043 116.288C224.973 113.098 225.9 109.907 226.83 106.712C227.302 105.095 227.774 103.479 228.24 101.865C228.609 100.609 228.968 99.3416 229.542 98.1581C230.14 96.9288 230.922 95.7775 232.024 94.9437C233.111 94.1152 234.391 93.6122 235.725 93.3271C238.456 92.7407 241.413 92.9881 244.173 93.2302C250.291 93.7763 256.348 95.2557 262.019 97.6039C262.766 97.9106 263.504 98.2388 264.232 98.5777C264.41 93.4885 264.588 88.3939 264.763 83.302C264.814 81.8683 264.866 80.4346 264.912 78.9982C264.949 77.9169 265.027 76.8221 264.944 75.7434C264.874 74.8504 264.728 73.8767 264.235 73.1128C263.693 72.2897 262.75 71.9534 261.812 71.7624C250.933 69.5272 239.663 70.8694 228.693 71.5284C219.35 72.0906 209.76 72.2224 200.666 69.7451C200.517 69.8284 200.366 69.9038 200.218 69.9871C200.124 70.0383 200.027 70.0705 199.924 70.084C199.428 70.162 198.873 69.8419 198.679 69.3954C198.636 69.3066 198.614 69.2178 198.601 69.1291C194.555 67.8299 190.798 65.9201 187.396 63.5073C186.949 63.1899 186.501 62.859 186.062 62.5255C185.908 62.4098 185.757 62.2888 185.604 62.1677C182.571 59.7684 179.854 56.9521 177.498 53.8076C176.485 52.4519 175.539 51.0559 174.66 49.6168C174.245 48.947 173.843 48.2665 173.461 47.5779C171.854 44.7051 170.487 41.6952 169.339 38.6045C170.175 38.6287 171.01 38.6556 171.846 38.6825C171.002 38.6207 170.169 38.5938 169.339 38.5695C169.051 37.7976 168.779 37.0175 168.517 36.2375C169.342 36.2617 170.164 36.2832 170.992 36.3127C175.741 36.4983 180.504 36.6463 185.24 36.8292C185.674 36.8427 186.108 36.8561 186.536 36.8749C186.822 36.883 187.105 36.8938 187.385 36.9072C193.531 37.1412 199.658 37.4075 205.8 37.6738C228.423 38.6529 251.124 39.6536 273.739 40.6999C273.747 40.6676 276.227 40.7833 276.227 40.7833C275.909 41.5472 275.559 42.4564 275.316 43.2526C274.513 43.2149 273.709 43.1746 272.912 43.1369C273.704 43.2069 274.507 43.2499 275.316 43.2849C272.227 43.1396 273.623 51.5831 275.82 59.8356C277.688 66.8642 280.135 73.7502 280.898 75.1006C283.982 80.5691 288.165 85.4861 290.648 91.2747C292.976 96.7055 293.276 102.814 291.637 108.482C290.06 113.95 286.48 118.136 282.672 122.219C278.869 126.289 275.111 130.461 274.044 136.112C272.928 142.014 273.629 148.351 274.957 154.158C277.631 165.824 283.739 176.484 290.82 186.022C291.383 186.786 291.963 187.545 292.542 188.295C293.092 188.016 293.82 188.365 294.06 188.895C294.276 189.404 294.103 189.907 293.726 190.243ZM226.283 126.689C228.669 127.537 230.865 128.887 232.938 130.358C234.394 131.391 235.779 132.604 237.353 133.46C238.623 134.148 240.227 134.595 241.604 133.955C242.364 133.597 242.83 132.887 243.06 132.101C243.022 132.069 242.981 132.037 242.938 131.994C240.202 129.04 237.062 126.49 233.62 124.398C232.798 123.895 231.96 123.419 231.1 122.983C230.628 122.741 230.154 122.499 229.666 122.281C229.321 122.122 229.13 121.961 228.811 122.187C228.108 122.698 227.537 123.564 227.127 124.314C226.72 125.054 226.445 125.858 226.283 126.689ZM273.877 159.102C272.116 153.333 271.138 147.361 271.222 141.322C271.265 138.049 271.669 134.711 272.92 131.655C273.952 129.135 275.505 126.867 277.24 124.785C280.707 120.621 285.025 117.017 287.618 112.188C290.418 106.981 291.084 100.708 289.507 95.0271C287.809 88.8996 283.44 83.8453 280.192 78.5006C276.968 73.1908 274.259 67.5286 272.758 61.4791C272.631 61.4657 272.507 61.4549 272.381 61.4414C262.628 60.4623 252.822 59.6635 243.008 59.8491C233.52 60.032 223.946 61.1482 214.836 63.8865C211.059 65.019 207.364 66.4285 203.814 68.1338C211.55 69.8069 219.558 69.7316 227.321 69.2878C238.442 68.6557 249.72 67.3188 260.796 69.2178C262.041 69.433 263.329 69.6267 264.451 70.2481C265.421 70.7833 266.162 71.6414 266.607 72.6501C267.518 74.7078 267.308 77.0749 267.227 79.2591C267.03 84.9966 266.831 90.7287 266.629 96.4661C266.591 97.5744 266.553 98.6772 266.513 99.7854C266.817 100.097 266.955 100.531 266.779 100.988C266.577 101.51 265.893 101.905 265.337 101.682C265.292 101.682 265.243 101.687 265.197 101.682C264.866 101.644 264.604 101.483 264.426 101.254C259.316 98.7821 253.874 97.0149 248.264 96.0976C245.405 95.6323 242.502 95.3579 239.604 95.3256C237.267 95.3014 234.526 95.5301 232.822 97.3377C231.992 98.228 231.496 99.3739 231.1 100.504C230.615 101.878 230.24 103.293 229.836 104.689C229.113 107.185 228.386 109.676 227.66 112.172C234.081 114.087 239.653 118.456 243.14 124.158C244.971 127.149 246.849 131.399 244.383 134.6C243.202 136.136 241.27 136.752 239.38 136.548C237.402 136.33 235.671 135.254 234.097 134.103C230.855 131.728 227.526 129.083 223.485 128.322C223.396 129.691 223.504 131.047 223.582 132.422C223.671 134 223.677 135.566 223.294 137.107C222.957 138.452 222.369 139.687 221.698 140.892C220.377 143.272 218.615 145.47 217.96 148.157C217.671 149.354 217.596 150.678 218.067 151.837C218.507 152.908 219.326 153.701 220.256 154.357C221.256 155.07 222.342 155.643 223.383 156.286C224.48 156.961 225.474 157.749 226.377 158.661C230.111 162.424 231.661 167.863 232.103 173.009C232.626 179.034 232.041 185.094 232.709 191.12C233.884 201.755 237.634 212.23 244.254 220.714C244.809 221.421 245.388 222.11 245.976 222.79C250.502 217.071 255.833 212.028 261.596 207.563C267.742 202.799 274.346 198.654 281.065 194.746C284.179 192.938 287.319 191.184 290.47 189.436C283.435 180.271 277.262 170.195 273.877 159.102Z" fill="black"/>
<path d="M276.221 40.7859C276.221 40.7859 273.372 40.6972 275.292 38.3409C279.391 33.3081 281.852 29.666 285.038 20.6738C289.017 9.43828 288.251 -0.288237 288.251 -0.282857C258.828 -0.293616 171.716 -0.307076 171.282 -0.293627C166.385 -0.153754 169.342 36.2643 168.517 36.2401C168.778 37.0228 169.048 37.8002 169.339 38.5722C170.169 38.5964 170.175 38.6287 169.339 38.6045C170.487 41.6978 171.854 44.7051 173.46 47.5779C173.843 48.2665 174.245 48.947 174.66 49.6168C175.539 51.0558 176.485 52.4519 177.498 53.8076C179.854 56.952 182.571 59.7683 185.603 62.1677C185.757 62.2887 185.908 62.4097 186.062 62.5254C186.501 62.8616 186.948 63.1925 187.396 63.5072C190.797 65.92 194.555 67.8298 198.601 69.129C198.614 69.2178 198.639 69.3066 198.679 69.3953C198.876 69.8418 199.431 70.1646 199.924 70.0839C200.895 69.4276 203.854 68.6018 203.822 68.5937C207.374 66.8884 211.07 65.4789 214.844 64.3464C223.954 61.6082 233.528 60.4892 243.016 60.309C252.83 60.1234 262.634 60.4569 272.389 61.436C273.564 60.9761 272.725 60.4219 273.828 59.8167C270.184 51.7068 274.658 41.6709 276.221 40.7859Z" fill="#B5E6EB"/>
<path d="M264.135 189.904C263.99 189.145 263.229 188.72 262.507 189.014C260.089 190.001 257.663 190.969 255.162 191.738C253.011 192.4 250.785 192.873 248.539 193.032C247.456 193.107 246.375 193.089 245.297 192.976C244.294 192.868 243.305 192.588 242.297 192.551C241.302 192.508 239.752 192.723 239.318 193.791C238.992 194.587 239.043 195.663 239.248 196.483C239.453 197.306 239.828 198.07 240.332 198.732C240.07 199.286 240.178 200.037 240.911 200.338C242.852 201.139 244.949 201.39 247.035 201.242C250.768 200.973 254.189 199.326 257.278 197.314C258.809 196.314 260.27 195.208 261.725 194.1C263.049 193.099 264.488 191.738 264.135 189.904Z" fill="black"/>
<path d="M314.462 135.039C313.068 139.407 310.963 143.488 310.23 148.055C309.559 152.24 309.737 156.52 310.729 160.638C311.289 162.965 312.138 165.214 313.216 167.352C313.893 168.692 311.758 169.636 311.084 168.299C307.012 160.221 306.408 150.627 309.348 142.086C310.262 139.434 311.429 136.876 312.281 134.202C312.739 132.774 314.917 133.613 314.462 135.039Z" fill="black"/>
<path d="M332.405 164.156C330.61 168.097 327.397 171.392 323.125 172.517C318.85 173.644 313.772 172.336 311.098 168.689C310.214 167.481 312.014 165.999 312.901 167.209C314.898 169.934 318.432 170.965 321.694 170.44C325.292 169.862 328.184 167.255 329.845 164.105C333.634 156.905 331.591 147.385 325.586 142.005C322.168 138.944 317.774 137.158 313.184 136.992C312.553 136.97 312.087 136.298 312.152 135.706C312.224 135.041 312.807 134.654 313.44 134.676C317.982 134.84 322.481 136.515 326.036 139.343C329.729 142.277 332.281 146.352 333.443 150.906C334.553 155.258 334.276 160.049 332.405 164.156Z" fill="black"/>
<path d="M325.012 158.995C324.764 159.64 324.117 159.818 323.505 159.664C318.109 158.314 312.993 155.955 308.443 152.762C307.211 151.899 308.575 150.008 309.804 150.871C314.2 153.957 319.127 156.186 324.34 157.491C324.952 157.642 325.216 158.457 325.012 158.995Z" fill="black"/>
<path d="M73.9445 70.1055C73.8502 70.1243 73.7666 70.2534 73.6885 70.3664C73.772 70.2776 73.8556 70.1942 73.9445 70.1055Z" fill="black"/>
<path d="M186.792 53.2992C186.773 52.2152 186.735 51.1231 186.697 50.0391C186.595 47.0453 186.347 44.8396 185.479 41.9749C184.201 37.7491 182.916 34.0506 182.87 30.3493C182.724 18.9336 186.018 0.766246 186.024 -0.2828C185.595 -0.301629 133.344 -0.290878 133.344 -0.290878C133.088 -0.183283 128.236 35.6268 127.977 35.7533C126.67 36.3908 125.419 37.1224 124.066 37.6684C124.028 37.6819 123.988 37.7007 123.95 37.7142C122.573 38.2495 121.155 38.6502 119.721 38.9999C116.716 39.7262 113.697 40.3422 110.724 41.2029C104.713 42.9594 98.9042 45.3238 93.3974 48.3095C92.9122 48.5705 92.6507 49.0304 92.7343 49.563C88.7666 51.6073 85.2113 54.3967 82.276 57.8047C81.9822 57.7402 81.6587 57.7994 81.3622 58.0576C80.2005 59.0367 79.0388 60.0077 77.8797 60.9869C77.7908 60.9869 77.7072 60.9922 77.6183 60.9949C77.3757 61.0084 77.1331 61.0407 76.8905 61.0918C75.2517 61.4361 73.7395 62.5739 72.4565 63.631C71.8877 64.1017 71.319 64.5724 70.7449 65.0378C69.7745 65.643 68.8554 66.3128 67.9767 67.039C67.4807 67.3269 66.9874 67.612 66.4915 67.9052C63.2192 69.815 59.831 72.1094 58.3485 75.7569C57.2057 78.5732 57.575 82.0808 59.7017 84.2918C59.0817 85.6932 58.8149 87.1942 58.8795 88.7489C59.0251 91.9445 60.8014 95.0835 63.7502 96.4554C66.7098 97.8326 69.9282 97.1225 72.8743 95.9066C72.8419 96.1407 72.8177 96.372 72.8177 96.6087C72.8123 98.0397 73.2436 99.5326 74.2355 100.6C75.4808 101.945 77.3245 102.421 79.1169 102.166C80.5725 101.956 81.9121 101.319 83.1304 100.512C85.1655 99.8688 86.9229 98.6476 88.5213 97.2247C90.1548 95.7721 91.6669 94.1878 93.3381 92.7729C95.0362 91.3339 96.8368 90.0158 98.7182 88.8296C102.395 86.4975 106.459 84.6711 110.646 83.4553C111.252 83.2831 111.729 82.8232 111.627 82.1319C111.602 81.9785 111.548 81.8387 111.473 81.7176C112.206 81.3787 112.939 81.0479 113.681 80.7304C120.654 77.7259 128.274 75.5336 135.88 76.7172C134.578 78.6861 133.276 80.6524 131.975 82.6214C128.95 85.9891 126.557 89.8948 124.988 94.1582C123.425 98.4001 121.983 104.073 125.842 107.543C127.438 108.982 129.702 109.377 131.681 108.522C133.678 107.651 135.088 105.808 136.034 103.912C136.999 101.975 137.57 99.8123 138.899 98.072C140.266 96.2832 142.433 95.409 144.355 94.3654C147.603 92.6089 150.635 90.4919 153.395 88.0469C156.719 86.5567 159.994 84.9724 163.217 83.2777C166.447 81.5831 169.713 79.8266 172.584 77.5591C174.824 76.8086 176.864 75.5094 178.46 73.7825C179.226 73.3495 179.948 72.8465 180.611 72.2735C183.519 69.7451 185.207 66.2321 186.053 62.5362C186.339 61.3123 186.53 60.0589 186.641 58.8188C186.711 58.0361 186.754 57.2506 186.776 56.4571C186.816 55.4027 186.816 54.351 186.792 53.2992Z" fill="white"/>
<path d="M60.3163 82.7532C62.5293 84.2515 65.4323 83.6812 67.7045 82.6645C70.0522 81.6208 72.2598 80.1683 74.4162 78.7668C74.0658 78.2773 73.7585 77.7555 73.5051 77.2148C72.1601 74.3474 72.4539 71.0523 73.5375 68.1473C74.5078 65.5542 75.9768 63.2006 77.621 60.9896C77.7612 60.7986 77.9014 60.6157 78.0415 60.4301C77.6534 60.6452 77.2706 60.8685 76.8933 61.0864C74.0038 62.781 71.2598 64.6774 68.7827 66.7405C64.8824 69.9871 59.3055 72.0825 58.4591 77.4085C58.1519 79.3774 58.5858 81.5724 60.3163 82.7532ZM187.099 -0.28279C187.099 -0.28279 184.687 17.8011 184.924 30.5753C185.069 38.3786 187.878 45.0037 188.034 46.163C188.463 49.3451 189.132 52.4788 188.967 55.7094C188.838 58.3831 188.291 60.9949 187.39 63.51C187.326 63.6767 187.264 63.8462 187.204 64.0076C185.199 69.3066 181.517 73.9628 176.751 76.9781C173.983 78.7238 170.951 79.9584 168.021 81.3921C165.002 82.8635 162.061 84.5178 159.228 86.3415C158.527 86.788 157.832 87.2507 157.142 87.7187C157.058 87.7752 156.969 87.8209 156.889 87.8478C154.778 89.529 152.352 90.6426 149.913 91.7589C147.403 92.9101 144.956 94.1932 142.88 96.0627C141.765 97.0579 140.751 98.1688 139.851 99.3685C138.988 100.533 138.282 101.803 137.565 103.056C136.115 105.596 134.471 108.178 131.772 109.482C129.136 110.757 126.074 110.534 124.069 108.234C122.201 106.082 121.535 103.062 121.592 100.253C121.721 93.9861 125.247 88.3589 128.91 83.5494C130.365 81.6342 131.888 79.7729 133.479 77.9653C129.312 77.6721 125.101 78.0809 121.074 79.1811C118.26 79.945 115.562 81.0667 112.945 82.3524C110.349 83.6194 107.775 84.9428 105.23 86.3119C102.646 87.7053 100.106 89.2035 97.7506 90.9654C95.7479 92.4636 93.8961 94.1502 92.0255 95.8098C90.0659 97.5367 88.0767 99.2609 85.9068 100.724C83.9041 102.069 81.6561 103.355 79.2626 103.799C76.5563 104.307 73.4997 103.729 72.2814 100.972C71.6426 99.5407 71.7585 97.9725 72.2194 96.493C71.0307 97.1171 69.7746 97.6147 68.4619 97.8702C66.1762 98.3221 63.726 98.1688 61.629 97.0929C59.2435 95.869 57.8257 93.5476 57.5508 90.9223C57.3082 88.5741 57.9254 86.5217 58.9308 84.472C57.106 83.1271 56.1599 80.9429 56.1438 78.6646C56.0979 71.558 63.7368 67.8648 68.8096 63.8408C72.7612 60.7017 77.2895 58.1975 81.6427 56.2124C81.7559 56.0994 81.861 55.9945 81.9688 55.8815C82.5294 55.3086 83.0982 54.7544 83.6858 54.2084C84.861 53.1244 86.0901 52.0888 87.3597 51.1124C94.8261 45.3507 103.748 41.4961 112.937 39.4196C114.263 39.1156 115.603 38.852 116.945 38.618C117.179 38.5803 117.417 38.5938 117.627 38.6556C118.745 38.3356 119.861 37.9993 120.972 37.6443C123.147 36.9557 125.298 36.1998 127.43 35.3848C127.869 35.3901 131.964 -0.285483 131.964 -0.285483L137.533 -0.28279L133.107 35.4493C131.293 36.2509 129.452 36.996 127.6 37.6953C124.454 38.887 121.263 39.9414 118.028 40.8613C117.743 40.9447 117.487 40.9124 117.274 40.8102C106.923 42.6259 96.8396 46.5611 88.5026 53.0302C88.33 53.1594 88.1629 53.2965 87.9985 53.431C87.9015 53.5063 87.8125 53.5763 87.7236 53.6489C87.6724 53.6866 87.6292 53.7242 87.5942 53.7619C86.0497 55.0154 84.5888 56.3522 83.2114 57.7752C81.2276 59.8383 79.4324 62.0816 77.8906 64.481C76.2706 67.0095 74.834 69.9064 74.8232 72.9702C74.8232 74.6325 75.3191 76.2491 76.2787 77.5564C76.7181 78.1535 77.2545 78.6835 77.8798 79.1219C78.7612 79.7271 79.7639 80.1172 80.7882 80.1145C81.9931 80.1064 83.047 79.5657 83.9904 78.8422C85.1332 77.976 86.0713 76.8221 87.0201 75.7488C88.1036 74.5196 89.1575 73.2768 90.1899 72.0099C90.4837 71.6548 90.7694 71.2971 91.0578 70.934C91.8314 69.9602 92.5969 68.9677 93.3436 67.9724C93.6104 67.6147 93.88 67.2462 94.1549 66.8884C94.7748 66.0599 95.4056 65.2341 96.1064 64.4756C98.2681 62.1139 101.066 60.777 104.001 59.6231C109.896 57.3179 116.196 55.9945 122.524 55.7255C129.328 55.4404 136.085 56.4087 142.856 56.8794C149.099 57.3071 155.522 57.3313 161.56 55.4592C166.121 54.047 170.533 51.4109 173.455 47.5806C173.652 47.325 173.838 47.0695 174.018 46.8032C174.738 45.7542 175.339 44.6244 175.824 43.4463C176.053 42.8922 176.838 42.7254 177.331 42.9863C177.905 43.2983 178.018 43.9358 177.789 44.4899C177.018 46.3675 175.945 48.0863 174.654 49.6222C172.433 52.2717 169.557 54.3994 166.455 55.9057C160.719 58.687 154.279 59.4321 147.969 59.3326C141.064 59.2196 134.225 58.141 127.328 57.9365C120.716 57.7375 114.163 58.566 107.867 60.6049C104.95 61.549 101.829 62.6115 99.3544 64.4756C99.1253 64.6585 98.8935 64.8441 98.6859 65.0378C104.939 62.8267 103.888 62.3183 110.433 61.4226C111.031 61.3392 111.562 61.9498 111.581 62.5039C111.6 63.1549 111.096 63.5664 110.495 63.6444C104.131 64.516 105.39 65.0136 99.3086 67.1708C98.0444 67.6227 96.8018 68.1204 95.5808 68.6745C94.7775 69.7397 93.9797 70.8075 93.1576 71.8566C91.1279 74.4362 89.0362 77.048 86.7182 79.3721C84.6885 81.4029 82.0658 82.8985 79.1197 82.1184C77.9526 81.8064 76.869 81.2146 75.9499 80.4238C73.3973 82.0592 70.8016 83.7942 67.9875 84.9508C65.7854 85.86 63.2085 86.2312 60.912 85.4861C59.3918 88.714 58.7799 92.9828 62.4619 95.0244C66.6209 97.3242 71.2409 94.7957 74.6129 92.2995C76.6103 90.8228 78.5429 89.2627 80.5348 87.7833C82.5591 86.285 84.613 84.8271 86.7128 83.4257C90.8368 80.674 95.1226 78.1482 99.6024 76.0124C104.656 73.605 107.662 71.8404 113.142 70.6515C113.729 70.5251 114.346 70.7806 114.532 71.3912C114.697 71.9265 114.384 72.6474 113.791 72.7792C103.613 74.9822 96.5161 79.5603 87.9042 85.3059C85.7586 86.7369 83.6481 88.2352 81.5753 89.7711C79.6049 91.237 77.7019 92.7891 75.7235 94.2362C75.6992 94.3062 75.6669 94.3761 75.621 94.4514C74.6642 96.0115 73.4458 98.3598 74.338 100.194C75.2302 102.021 77.6318 101.953 79.3165 101.518C81.5995 100.931 83.6885 99.6025 85.5834 98.2334C87.5565 96.8185 89.3786 95.1911 91.1926 93.5799C93.0875 91.8987 94.9905 90.2176 97.0444 88.7274C99.3113 87.0839 101.74 85.6717 104.209 84.3456C106.697 83.0141 109.206 81.7203 111.74 80.4803C114.301 79.2376 116.91 78.0863 119.646 77.282C124.719 75.7838 130.072 75.3319 135.322 75.921C135.552 75.6735 135.783 75.4234 136.012 75.1813C137.212 73.909 138.557 72.7362 139.635 71.3617C140.452 70.318 141.12 68.7525 140.382 67.4963C139.678 66.294 141.492 65.1212 142.196 66.3262C142.934 67.5824 143.004 69.1075 142.533 70.4848C142.037 71.9238 141.066 73.0885 140.026 74.1537C139.325 74.8612 138.63 75.5794 137.945 76.3002C137.328 76.9485 136.721 77.5994 136.126 78.2558C135.239 79.2187 134.371 80.2032 133.527 81.2092C129.751 85.7067 125.794 90.6991 124.276 96.5172C123.586 99.1587 123.465 102.031 124.406 104.624C125.204 106.814 127.034 108.584 129.479 108.03C132.158 107.425 133.861 105.114 135.196 102.86C136.684 100.337 138.088 97.8353 140.134 95.7157C142.379 93.4024 145.021 91.6862 147.907 90.3225C150.627 89.0421 153.562 87.9285 155.87 85.9219C156.018 85.7928 156.188 85.6932 156.366 85.6421C159.007 83.8587 161.738 82.2153 164.554 80.7278C167.439 79.2107 170.452 77.9653 173.342 76.4428C175.87 75.1006 178.191 73.4705 180.158 71.3563C181.991 69.3819 183.485 67.1171 184.611 64.6585C184.981 63.8489 185.307 63.015 185.592 62.1677C186.153 60.4919 186.536 58.7489 186.722 56.9978C186.741 56.8149 186.76 56.6347 186.773 56.4518C186.857 55.3893 186.851 54.3375 186.786 53.2939C186.684 51.4674 186.409 49.6572 186.123 47.8361C185.576 44.3797 182.875 36.8292 182.18 31.3661C181.485 25.903 184.919 -0.288175 184.919 -0.288175H187.099V-0.28279Z" fill="black"/>
<path d="M235.431 165.114C235.431 179.333 242.089 190.469 250.585 190.469C259.084 190.469 265.739 179.33 265.739 165.114C265.739 150.895 259.084 139.757 250.585 139.757C242.089 139.757 235.431 150.895 235.431 165.114ZM238.534 165.114C238.534 153.047 244.054 142.853 250.588 142.853C257.121 142.853 262.642 153.047 262.642 165.114C262.642 177.181 257.121 187.375 250.588 187.375C244.051 187.375 238.534 177.181 238.534 165.114Z" fill="#B5E6EB"/>
<path d="M237.528 163.869C235.825 165.547 233.534 166.655 231.156 166.946C229.019 167.21 226.528 166.75 225.488 164.643C224.825 163.298 226.957 162.352 227.62 163.697C227.722 163.906 227.862 164.065 228.124 164.245C228.302 164.369 228.66 164.512 228.873 164.568C229.709 164.789 230.466 164.716 231.302 164.571C233.116 164.253 234.741 163.355 236.046 162.069C236.493 161.628 237.315 161.776 237.687 162.231C238.118 162.755 237.978 163.425 237.528 163.869Z" fill="#B5E6EB"/>
<path d="M166.129 189.371C163.301 194.275 158.878 198.095 153.781 200.515C152.207 201.263 150.552 201.885 148.848 202.379C147.193 203.679 145.199 204.504 143.102 204.738C142.827 204.768 142.584 204.669 142.398 204.507C142.347 204.515 142.296 204.523 142.242 204.523C141.288 204.526 140.331 204.526 139.374 204.521C136.263 204.803 133.115 204.615 130.045 203.926C129.635 203.835 129.298 203.555 129.231 203.151C128.662 203.03 128.099 202.891 127.549 202.71C126.048 202.215 124.697 201.398 123.412 200.497C118.872 197.317 114.94 193.247 111.91 188.615C110.163 185.944 108.697 183.107 107.562 180.124C107.476 179.895 107.481 179.682 107.543 179.497C106.791 177.907 106.153 176.266 105.705 174.556C104.87 171.39 104.875 168.092 105.519 164.888C107.543 154.755 115.207 145.185 125.633 142.936C126.258 142.802 126.889 142.7 127.522 142.624C127.355 142.121 127.56 141.508 128.236 141.446C131.651 141.139 135.021 141.121 138.406 141.734C141.557 142.301 144.627 143.289 147.517 144.658C147.943 144.857 148.361 145.072 148.776 145.287C148.126 144.491 149.024 143.283 149.994 143.91C152.94 145.809 155.371 148.284 157.544 150.99C160.417 153.975 163.005 157.211 164.894 160.913C165.323 161.754 165.7 162.621 166.037 163.503C167.784 166.596 169.164 169.859 169.59 173.461C170.237 178.967 168.886 184.583 166.129 189.371Z" fill="white"/>
<path d="M148.751 141.199L147.838 133.481C147.563 131.152 147.549 128.586 146.344 126.507C145.808 125.584 145.131 124.763 144.412 123.983C143.722 123.233 142.983 122.275 141.98 121.947C141.155 121.678 140.239 121.807 139.492 122.251C139.129 122.466 138.797 122.746 138.554 123.098C138.279 123.494 138.247 123.927 138.045 124.347C137.859 124.753 137.252 124.529 136.859 124.551C136.417 124.575 135.986 124.718 135.603 124.941C134.708 125.476 134.142 126.375 133.829 127.348C133.708 127.717 133.614 128.094 133.53 128.47C133.358 128.521 133.204 128.637 133.102 128.833C131.147 132.656 129.546 136.653 128.328 140.774C128.169 141.301 128.581 141.691 128.996 141.71C129.182 142.083 129.775 142.151 130.115 141.855C130.242 141.925 130.376 141.949 130.517 141.93C130.676 142.051 130.773 142.121 130.875 142.191C131.123 142.358 131.39 142.509 131.654 142.643C132.166 142.909 132.708 143.108 133.269 143.262C134.406 143.574 135.579 143.722 136.754 143.829C139.619 144.082 142.484 144.305 145.344 144.542C146.29 144.617 147.584 144.924 148.377 144.222C149.236 143.471 148.867 142.17 148.751 141.199Z" fill="white"/>
<path d="M165.474 192.153C163.484 194.603 161.126 197.358 158.576 199.189C151.204 204.478 140.058 208.227 130.853 205.554C124.81 203.797 119.495 199.725 115.185 195.238C107.255 186.98 101.775 175.392 103.602 163.917C105.201 153.873 112.762 144.289 122.991 141.992C124.123 141.737 125.276 141.581 126.438 141.505L130.527 131.574L132.613 126.507C133.223 125.027 133.832 123.389 135.659 123.174C136.064 123.125 136.468 123.166 136.87 123.238C137.595 121.91 138.924 120.955 140.457 120.688C142.436 120.344 144.436 121.369 145.463 123.088C145.934 123.876 146.172 124.734 146.188 125.622C146.875 125.818 147.565 126.068 148.104 126.555C148.74 127.128 149.037 127.903 149.188 128.715C149.514 130.458 149.703 132.231 149.951 133.987C150.436 137.417 150.924 140.843 151.409 144.273C151.673 144.295 151.94 144.397 152.172 144.569C162.333 152.111 171.336 162.89 171.514 175.984C171.598 182.05 169.183 187.583 165.474 192.153ZM143.678 124.699C143.665 124.664 143.597 124.527 143.576 124.478C143.49 124.322 143.401 124.166 143.296 124.018C143.263 123.973 143.231 123.93 143.196 123.887C143.137 123.825 143.077 123.76 143.018 123.701C142.932 123.618 142.843 123.537 142.748 123.459C142.716 123.432 142.681 123.405 142.649 123.381C142.452 123.265 142.269 123.168 142.077 123.077C141.918 123.034 141.802 122.999 141.684 122.975C141.657 122.969 141.481 122.951 141.441 122.942C141.374 122.942 141.296 122.94 141.282 122.94C141.163 122.942 141.045 122.956 140.926 122.964C140.654 123.023 140.444 123.09 140.234 123.168C140.037 123.273 139.932 123.33 139.829 123.394C139.754 123.443 139.684 123.497 139.608 123.548C139.43 123.706 139.368 123.771 139.309 123.835C139.697 123.935 140.085 124.037 140.473 124.137C141.573 124.422 142.673 124.702 143.773 124.984C143.74 124.868 143.711 124.785 143.678 124.699ZM145.889 127.943C144.387 127.421 142.765 127.128 141.225 126.73C140.069 126.431 138.913 126.098 137.751 125.81C137.611 125.831 137.465 125.829 137.32 125.788C137.193 125.753 137.074 125.694 136.964 125.627C136.864 125.605 136.762 125.579 136.662 125.557C136.18 125.452 135.778 125.396 135.487 125.839C135.393 125.982 135.309 126.138 135.231 126.297C139.223 127.184 143.155 128.333 146.996 129.753C146.972 129.584 146.951 129.412 146.921 129.245C146.8 128.537 146.6 128.19 145.889 127.943ZM147.312 131.991C147.085 132.101 146.832 132.142 146.589 132.053C142.595 130.571 138.503 129.385 134.349 128.478L133.382 130.826C138.034 132.15 142.773 133.126 147.562 133.742L147.312 131.991ZM147.956 136.54L147.878 135.996C147.689 136.05 147.482 136.069 147.271 136.042C142.277 135.41 137.336 134.385 132.49 132.986C132.131 133.858 131.773 134.729 131.414 135.598C136.91 136.935 142.517 137.723 148.153 137.933C148.085 137.468 148.021 137.005 147.956 136.54ZM148.484 140.273C142.436 140.066 136.411 139.235 130.519 137.772C130.107 138.772 129.697 139.77 129.285 140.771C132.689 141.363 136.115 141.823 139.552 142.105C142.611 142.358 145.818 142.229 148.851 142.874C148.73 142.006 148.606 141.139 148.484 140.273ZM166.382 186.95C167.716 184.599 168.652 182.09 168.983 179.513C170.538 167.465 163.145 156.655 154.204 149.115C153.36 148.402 152.495 147.721 151.619 147.049C151.185 147.886 149.544 147.74 149.368 146.514L149.207 145.362C147.659 144.956 146.083 144.814 144.49 144.733C142.705 144.644 140.924 144.542 139.142 144.386C135.535 144.071 131.945 143.603 128.379 142.968C128.247 143.267 127.958 143.453 127.64 143.523C127.468 143.681 127.236 143.789 126.932 143.805C117.152 144.287 109.29 152.187 106.646 161.165C103.605 171.481 107.651 182.518 114.284 190.732C117.834 195.128 122.325 199.125 127.39 201.691C136.088 206.1 147.126 204.104 154.932 199.197C159.282 196.462 163.662 191.741 166.382 186.95Z" fill="white"/>
<path d="M180.422 172.745C177.87 172.248 175.325 171.75 172.775 171.252C164.207 169.577 155.641 167.903 147.074 166.236C148.57 164.694 149.821 162.314 151.255 160.703C157.565 153.623 163.5 146.651 168.53 138.299C168.924 137.648 168.056 136.978 167.622 137.538C166.131 139.466 163.622 141.473 161.657 142.721C154.446 147.305 148.023 151.447 141.64 157.392C141.729 152.811 141.584 148.198 141.209 143.59C141.153 142.909 140.344 142.923 140.163 143.415C138.29 148.445 136.411 153.472 134.541 158.502C134.096 158.131 133.659 157.76 133.217 157.394C126.867 152.13 120.443 146.987 113.958 141.96C113.67 141.737 113.228 142.051 113.427 142.449C114.403 144.402 115.414 146.333 116.457 148.246C118.966 152.851 121.662 157.332 124.524 161.676C123.179 161.545 121.837 161.437 120.492 161.354C109.832 160.676 99.2169 161.321 88.8071 162.965C88.1844 163.064 88.2869 164.054 88.8799 164.2C91.985 164.974 95.0848 165.741 98.1845 166.513C106.977 168.7 115.77 170.887 124.565 173.073C120.724 175.104 116.974 177.305 113.325 179.658C112.907 179.927 113.346 180.516 113.759 180.363L124.333 176.398C123.417 178.631 122.476 180.852 121.503 183.061C119.546 187.491 117.47 191.87 115.279 196.187C113.085 200.515 110.77 204.782 108.346 208.983C108.125 209.365 108.584 209.9 108.953 209.551C111.648 206.976 113.95 204.028 116.074 200.973C119.872 195.512 123.179 189.664 127.683 184.729C128.336 184.013 129.026 183.333 129.732 182.668C129.948 183.833 130.163 185 130.387 186.165C132.298 196.104 134.465 206 136.88 215.834C137.039 216.48 137.983 216.603 137.953 215.848C137.861 213.195 137.84 210.551 137.883 207.91C138.047 199.02 139.018 190.237 140.775 181.727C144.975 187.055 149.172 192.379 153.371 197.71C153.802 198.264 154.498 197.777 154.263 197.107C152.223 191.389 149.996 185.74 147.603 180.167C150.937 181.019 154.279 181.78 157.633 182.45C158.282 182.582 158.379 181.565 157.843 181.259C155.285 179.814 152.845 178.106 150.53 176.172L156.104 175.763C164.234 175.166 172.36 174.569 180.49 173.972C181.123 173.934 181.01 172.864 180.422 172.745Z" fill="#8256E1"/>
<path d="M183.827 160.132C185.849 161.534 187.854 162.954 189.849 164.393C197.191 169.7 204.612 175.126 210.817 181.767C212.315 183.37 213.733 185.049 215.038 186.813C216.337 188.572 217.625 190.42 218.396 192.481C219.111 194.388 219.385 196.588 218.458 198.476C217.663 200.098 216.178 201.201 214.496 201.796C212.72 202.425 210.819 202.565 208.951 202.565C206.666 202.562 204.377 202.409 202.116 202.089C197.625 201.454 193.207 200.187 189.062 198.35C187.016 197.444 185.051 196.384 183.145 195.214C182.124 194.584 183.296 193.134 184.307 193.756C191.765 198.337 200.601 200.835 209.366 200.709C212.536 200.663 217.111 199.907 217.197 195.875C217.24 193.799 216.159 191.776 215.051 190.087C213.876 188.293 212.563 186.585 211.172 184.952C205.644 178.475 198.773 173.275 191.954 168.237C184.703 162.879 177.261 157.782 169.649 152.951C154.49 143.334 138.641 134.799 122.271 127.418C105.578 119.892 87.9422 112.869 69.4218 112.057C67.128 111.957 64.8261 111.965 62.5323 112.081C60.4918 112.183 58.3894 112.285 56.3921 112.742C54.8907 113.087 53.2842 113.695 52.3354 114.97C51.0982 116.632 51.5726 118.735 52.4432 120.444C53.4001 122.321 54.8691 123.908 56.2896 125.444C57.6805 126.945 59.1387 128.381 60.6589 129.756C63.8153 132.61 67.225 135.181 70.8369 137.433C72.5755 138.517 74.368 139.512 76.1955 140.44C77.2629 140.983 76.5162 142.689 75.4434 142.145C67.5215 138.124 60.3759 132.696 54.4028 126.13C51.8098 123.281 48.4162 119.142 50.171 115.029C51.6535 111.562 55.8233 110.782 59.1737 110.461C78.7534 108.581 97.9908 114.964 115.756 122.526C133.193 129.95 150.061 138.692 166.202 148.612C172.175 152.289 178.056 156.13 183.827 160.132Z" fill="#B7C2CC"/>
<path d="M207.159 70.3341C207.094 70.9178 206.493 71.4881 205.87 71.3643C198.633 69.9199 191.32 69.1452 186.282 63.2867C185.304 62.1462 187.11 60.6721 188.086 61.8073C192.689 67.1628 199.522 67.7303 206.126 69.0484C206.746 69.1721 207.234 69.6697 207.159 70.3341Z" fill="black"/>
<path d="M276.442 40.794C276.367 40.7887 276.297 40.7887 276.224 40.786C275.445 40.7483 278.353 34.6208 276.766 36.4983C271.014 43.2956 270.892 47.3708 270.623 49.4957C270.329 51.7821 270.701 54.0631 271.24 56.285C271.795 58.5713 272.453 60.8335 273.186 63.0715C273.383 63.6713 274.194 63.8946 274.725 63.6633C275.343 63.3889 275.51 62.7218 275.313 62.1273C274.661 60.1234 274.076 58.0979 273.577 56.0509C273.087 54.0578 272.685 52.0188 272.919 49.9584C273.135 48.0217 273.825 46.1872 274.628 44.4254C274.806 44.0299 274.992 43.6372 275.184 43.2526C275.418 42.763 275.663 42.2735 275.906 41.7893C276.052 41.4988 276.273 41.0738 276.442 40.794Z" fill="black"/>
<path d="M318.834 211.041C318.812 211.156 318.782 211.275 318.75 211.388C318.739 211.425 318.723 211.46 318.704 211.495C318.642 211.611 318.588 211.74 318.505 211.845C318.4 211.98 318.267 212.13 318.119 212.227C318.003 212.302 317.885 212.383 317.758 212.445C317.674 212.485 317.583 212.507 317.494 212.534C317.41 212.558 317.321 212.59 317.232 212.601C317.095 212.62 316.957 212.617 316.82 212.612C316.782 212.609 316.745 212.604 316.707 212.596C316.594 212.571 316.435 212.544 316.316 212.488C316.203 212.434 316.068 212.372 315.966 212.292C315.877 212.222 315.79 212.136 315.709 212.055C315.48 211.767 315.378 211.533 315.321 211.24C315.297 211.111 315.305 210.955 315.305 210.836C315.305 210.799 315.31 210.761 315.316 210.726C315.267 210.355 315.324 210.051 315.505 209.803C315.583 209.696 315.682 209.596 315.78 209.505C315.879 209.411 316.036 209.33 316.135 209.271C316.286 209.182 316.472 209.139 316.639 209.101C316.809 209.066 316.995 209.069 317.168 209.083C317.34 209.096 317.515 209.142 317.68 209.204C317.761 209.233 317.836 209.279 317.912 209.319C317.987 209.36 318.068 209.397 318.138 209.451C318.243 209.532 318.34 209.629 318.432 209.725C318.526 209.825 318.604 209.976 318.664 210.081C318.683 210.11 318.699 210.142 318.712 210.175C318.761 210.306 318.807 210.441 318.828 210.581C318.839 210.761 318.847 210.877 318.839 210.99C318.839 211.003 318.836 211.022 318.834 211.041Z" fill="#B7C2CC"/>
<path d="M310.548 208.133C310.523 208.23 310.499 208.327 310.478 208.424C310.405 208.615 310.286 208.776 310.13 208.905C310.041 208.959 309.952 209.015 309.863 209.069C309.669 209.153 309.469 209.185 309.259 209.163H309.022C308.868 209.153 308.728 209.104 308.601 209.023C308.461 208.962 308.345 208.87 308.248 208.746C308.141 208.625 308.07 208.485 308.041 208.329C307.984 208.184 307.968 208.034 307.99 207.878C308.014 207.781 308.035 207.684 308.06 207.587C308.135 207.396 308.251 207.235 308.407 207.106C308.496 207.052 308.585 206.995 308.674 206.941C308.866 206.858 309.068 206.826 309.278 206.847H309.513C309.666 206.858 309.806 206.906 309.933 206.987C310.073 207.049 310.189 207.14 310.286 207.264C310.394 207.385 310.464 207.525 310.494 207.681C310.553 207.826 310.569 207.977 310.548 208.133Z" fill="white"/>
<path d="M337.184 244.285C336.809 244.449 336.386 244.522 335.977 244.481C335.599 244.444 335.184 244.293 334.893 244.048C334.64 243.836 334.419 243.577 334.278 243.279C334.149 243.115 334.066 242.932 334.033 242.725C333.917 242.329 333.985 241.877 334.114 241.495C334.246 241.1 334.51 240.748 334.82 240.471C335.44 239.916 336.432 239.744 337.181 240.134C337.553 240.328 337.901 240.573 338.13 240.931C338.249 241.116 338.359 241.286 338.424 241.493C338.529 241.832 338.57 242.055 338.559 242.413C338.526 243.23 337.912 243.965 337.184 244.285Z" fill="white"/>
<path d="M327.071 103.089C327.055 103.237 327.015 103.387 326.974 103.527C326.92 103.721 326.818 103.909 326.697 104.068C326.497 104.329 326.284 104.493 325.996 104.646C325.947 104.67 325.896 104.689 325.845 104.705C325.705 104.748 325.54 104.81 325.384 104.821C325.052 104.845 324.799 104.821 324.481 104.721C324.171 104.624 323.915 104.423 323.691 104.191C323.537 104.03 323.411 103.82 323.343 103.608C323.295 103.457 323.236 103.298 323.225 103.137C323.219 103.059 323.214 102.978 323.211 102.895C323.141 102.709 323.09 102.556 323.071 102.405C323.033 102.099 323.066 101.846 323.157 101.553C323.198 101.424 323.279 101.294 323.346 101.184C323.527 100.886 323.864 100.708 324.201 100.654C324.419 100.619 324.651 100.617 324.872 100.63C325.314 100.654 325.742 100.816 326.114 101.052C326.168 101.085 326.217 101.122 326.263 101.165C326.378 101.268 326.502 101.372 326.599 101.493C326.726 101.652 326.845 101.838 326.915 102.029C326.985 102.222 327.055 102.435 327.066 102.645C327.077 102.79 327.085 102.941 327.071 103.089Z" fill="white"/>
<path d="M180.178 125.108C180.175 125.223 180.121 125.385 180.099 125.466C180.027 125.635 179.97 125.74 179.913 125.831C179.819 125.952 179.738 126.03 179.663 126.108C179.544 126.216 179.372 126.307 179.304 126.345C179.172 126.423 178.992 126.458 178.857 126.493C178.644 126.523 178.514 126.52 178.388 126.517C178.234 126.517 178.062 126.463 177.924 126.423C177.773 126.383 177.63 126.294 177.501 126.216C177.485 126.205 177.374 126.103 177.374 126.103C177.331 126.071 177.293 126.033 177.258 125.993C177.183 125.885 177.075 125.74 177.037 125.622C177 125.511 176.948 125.379 176.938 125.256C176.927 125.148 176.93 125.03 176.93 124.922C176.983 124.46 177.196 124.067 177.523 123.798C177.749 123.612 177.956 123.537 178.234 123.47C178.355 123.44 178.509 123.451 178.617 123.454C178.719 123.467 178.797 123.491 178.827 123.497C178.881 123.51 178.943 123.521 179 123.54C179.051 123.558 179.097 123.583 179.142 123.61C179.296 123.653 179.436 123.739 179.541 123.803C179.676 123.908 179.757 123.986 179.832 124.061C180.032 124.293 180.102 124.494 180.161 124.75C180.178 124.874 180.178 125.032 180.178 125.108Z" fill="#B7C2CC"/>
<path d="M224.272 94.7419C224.232 95.0593 224.126 95.2799 223.976 95.5516C223.876 95.7291 223.725 95.8797 223.579 96.0142C223.428 96.1568 223.24 96.2671 223.056 96.3558C222.604 96.5764 222.081 96.5925 221.606 96.4338C221.469 96.3881 221.339 96.3074 221.218 96.2348C220.992 96.0949 220.865 95.8851 220.738 95.6618C220.711 95.6161 220.692 95.5677 220.674 95.5166C220.655 95.4628 220.639 95.409 220.62 95.3525C220.569 95.2718 220.52 95.1911 220.469 95.1077C220.383 94.9167 220.353 94.715 220.374 94.5052C220.374 94.4568 220.38 94.4111 220.388 94.3653C220.415 94.2335 220.442 94.0829 220.498 93.9565C220.631 93.6686 220.76 93.4938 220.989 93.2732C221.159 93.1118 221.372 92.9962 221.593 92.9101C221.806 92.7891 222.035 92.6976 222.277 92.6572C222.563 92.6088 222.897 92.6949 223.132 92.8644C223.439 93.0123 223.622 93.1522 223.83 93.362C223.865 93.397 223.895 93.4346 223.922 93.475C224.005 93.5987 224.097 93.7305 224.148 93.8731C224.256 94.1609 224.312 94.4299 224.272 94.7419Z" fill="white"/>
<path d="M293.58 224.2C293.58 224.192 293.586 224.31 293.583 224.358C293.564 224.592 293.472 224.781 293.351 224.974C293.297 225.06 293.114 225.23 293.122 225.224C293.079 225.251 293.033 225.278 292.99 225.305C292.947 225.343 292.898 225.37 292.847 225.391C292.766 225.421 292.699 225.437 292.64 225.456C292.537 225.485 292.437 225.52 292.33 225.526C292.219 225.531 292.106 225.534 291.998 225.534C291.75 225.502 291.631 225.469 291.513 225.437C291.319 225.359 291.208 225.294 291.106 225.235C290.99 225.141 290.914 225.071 290.842 225.001C290.734 224.88 290.664 224.74 290.634 224.584C290.613 224.533 290.596 224.482 290.588 224.426C290.575 224.31 290.572 224.192 290.58 224.073C290.594 223.992 290.615 223.92 290.623 223.888C290.634 223.842 290.648 223.78 290.664 223.729C290.728 223.594 290.782 223.489 290.831 223.409C290.939 223.28 291.02 223.191 291.087 223.124C291.23 223.013 291.338 222.943 291.451 222.89C291.588 222.841 291.715 222.804 291.809 222.779C291.971 222.766 292.103 222.761 292.192 222.763C292.33 222.785 292.459 222.817 292.543 222.841C292.731 222.908 292.839 222.981 292.933 223.075C293.071 223.172 293.114 223.218 293.152 223.25C293.187 223.282 293.238 223.325 293.276 223.366C293.338 223.449 293.432 223.608 293.467 223.664C293.502 223.75 293.567 223.968 293.578 224.011C293.583 224.089 293.583 224.275 293.58 224.2Z" fill="white"/>
<path d="M155.023 99.3712C155.007 99.5003 154.969 99.6294 154.934 99.7531C154.924 99.7908 154.907 99.8284 154.891 99.8661C154.816 100.017 154.74 100.181 154.624 100.307C154.538 100.404 154.452 100.506 154.352 100.59C154.247 100.678 154.102 100.756 153.994 100.821C153.845 100.91 153.668 100.95 153.503 100.993C153.465 101.001 153.43 101.009 153.393 101.012C153.279 101.02 153.163 101.02 153.05 101.02C152.856 101.004 152.727 100.966 152.603 100.929C152.571 100.918 152.538 100.907 152.506 100.891C152.393 100.834 152.277 100.778 152.172 100.708C152.104 100.662 152.045 100.6 151.986 100.544C151.897 100.463 151.818 100.391 151.754 100.291C151.659 100.143 151.557 100.001 151.506 99.8338C151.465 99.7047 151.417 99.5729 151.398 99.4384C151.379 99.3066 151.385 99.1721 151.385 99.0403C151.385 99.0026 151.385 98.9677 151.39 98.93C151.409 98.7982 151.444 98.6664 151.482 98.54C151.492 98.505 151.506 98.4727 151.522 98.4405C151.581 98.3221 151.638 98.1957 151.721 98.0908C151.781 98.002 151.856 97.9321 151.94 97.8702C151.977 97.8299 152.01 97.7868 152.053 97.7492C152.158 97.6711 152.274 97.6012 152.39 97.5394C152.42 97.5232 152.452 97.5098 152.484 97.499C152.638 97.4479 152.802 97.3887 152.969 97.3806C153.131 97.3753 153.298 97.3591 153.46 97.3968C153.616 97.4318 153.783 97.4613 153.929 97.534C154.069 97.6039 154.22 97.6738 154.341 97.7787C154.46 97.881 154.595 97.9913 154.684 98.1257C154.746 98.2226 154.835 98.3463 154.886 98.4647C154.942 98.6207 154.978 98.7363 155.004 98.8493C155.013 98.8843 155.018 98.9219 155.021 98.9569C155.029 99.0699 155.029 99.1882 155.029 99.2985C155.026 99.3281 155.026 99.3496 155.023 99.3712Z" fill="#B7C2CC"/>
<path d="M44.8148 57.1349C44.7878 57.2694 44.7582 57.4066 44.7151 57.5357C44.6692 57.6702 44.5857 57.8074 44.5183 57.9204C44.4266 58.0818 44.2892 58.2243 44.1463 58.34C43.8983 58.539 43.6584 58.6305 43.3566 58.7058C43.2568 58.73 43.1598 58.7273 43.0601 58.7273C42.9495 58.73 42.8525 58.7354 42.7474 58.7112C42.6099 58.6816 42.4644 58.6547 42.3323 58.5982C42.2676 58.5686 42.2029 58.531 42.1409 58.4987C42.0735 58.461 42.0035 58.4288 41.9388 58.3857C41.8956 58.3561 41.8579 58.3265 41.8202 58.2916C41.7123 58.1921 41.583 58.0872 41.494 57.9661C41.2892 57.6864 41.2002 57.4739 41.1166 57.143C41.1059 57.0946 41.0978 57.0489 41.0951 56.9978C41.087 56.8579 41.0735 56.6938 41.1005 56.5485C41.1463 56.3065 41.1733 56.2123 41.2784 56.0186C41.308 55.9621 41.335 55.9003 41.3754 55.8492C41.4078 55.8062 41.4832 55.7335 41.494 55.7228C41.5264 55.6878 41.5722 55.6313 41.618 55.5936C41.715 55.5237 41.8444 55.443 41.9253 55.4027C42.2164 55.3004 42.3431 55.2762 42.5452 55.2736C42.715 55.1686 42.8552 55.1095 43.0843 55.061C43.4159 55.0288 43.4105 55.0315 43.6153 55.0799C43.7905 55.1229 43.8606 55.1579 44.0358 55.2628C44.1571 55.3354 44.2649 55.4538 44.3593 55.5452C44.494 55.6743 44.5911 55.8492 44.6692 56.016C44.7501 56.1908 44.8094 56.3845 44.8256 56.5754C44.839 56.7557 44.8498 56.952 44.8148 57.1349Z" fill="#B7C2CC"/>
<path d="M49.4432 71.4127C48.8125 71.4127 48.3488 70.7026 48.4108 70.127C48.4863 69.4465 49.0658 69.0968 49.6993 69.0968C50.33 69.0968 50.7936 69.8069 50.7316 70.3825C50.6561 71.0657 50.0766 71.4127 49.4432 71.4127Z" fill="#B7C2CC"/>
<path d="M44.8471 74.8558C44.8255 74.9983 44.7878 75.1409 44.75 75.2781C44.7285 75.3534 44.6584 75.4852 44.6584 75.4852C44.5964 75.6251 44.5047 75.7407 44.3807 75.8376C44.2918 75.8914 44.2028 75.9479 44.1139 76.0017C43.8282 76.0958 43.5721 76.1765 43.316 76.2599C43.2163 76.2895 43.1166 76.3191 43.0169 76.3486C42.8632 76.3782 42.715 76.3675 42.5694 76.3191C42.467 76.3083 42.3753 76.2733 42.2918 76.2141C42.1516 76.1523 42.0357 76.0608 41.9387 75.9371C41.8282 75.7892 41.7608 75.6842 41.7123 75.5901C41.6718 75.4933 41.653 75.4206 41.6395 75.3669C41.6233 75.3131 41.6017 75.2485 41.5883 75.1866C41.5721 75.114 41.5775 75.0279 41.5775 74.9553C41.5748 74.8827 41.5694 74.8047 41.5802 74.732C41.6098 74.5895 41.6341 74.4792 41.6664 74.377C41.7419 74.2102 41.7958 74.108 41.8497 74.0192C41.971 73.8686 42.0492 73.7825 42.1301 73.7099C42.2594 73.5969 42.2783 73.5593 42.3026 73.5243C42.4697 73.2983 42.653 73.1611 42.9009 73.032C43.0142 72.9729 43.1462 72.9433 43.2702 72.9191C43.3592 72.9083 43.4939 72.911 43.4724 72.911C43.4885 72.911 43.591 72.9029 43.6449 72.9083C43.7311 72.9218 43.901 72.9621 43.9656 72.9836C43.9522 72.9756 44.219 73.0993 44.2945 73.1558C44.4454 73.258 44.5452 73.371 44.6152 73.5108C44.6557 73.5566 44.6853 73.605 44.7042 73.6615C44.7527 73.8013 44.7958 73.9466 44.8282 74.0918C44.839 74.1456 44.8471 74.1994 44.8524 74.2559C44.8659 74.4496 44.874 74.6567 44.8471 74.8558Z" fill="white"/>
<path d="M197.091 91.0192C197.08 91.1725 197.032 91.3124 196.948 91.4388C196.886 91.5787 196.795 91.6943 196.671 91.7912C196.582 91.845 196.493 91.9014 196.404 91.9552C196.212 92.0413 196.01 92.0709 195.8 92.0494C195.703 92.0252 195.606 92.0036 195.509 91.9794C195.318 91.9068 195.156 91.7885 195.026 91.6324C194.964 91.541 194.905 91.4522 194.843 91.3608C194.735 91.2397 194.665 91.0999 194.636 90.9438C194.579 90.7986 194.563 90.648 194.584 90.4919C194.595 90.3386 194.644 90.1987 194.725 90.0723C194.787 89.9324 194.878 89.8141 195.002 89.72C195.091 89.6662 195.18 89.6097 195.269 89.5559C195.46 89.4698 195.663 89.4402 195.873 89.4617C195.97 89.4859 196.067 89.5074 196.164 89.5317C196.355 89.607 196.517 89.7226 196.646 89.8786C196.708 89.9701 196.768 90.0589 196.83 90.1503C196.937 90.2714 197.008 90.4112 197.037 90.5673C197.099 90.7125 197.115 90.8632 197.091 91.0192Z" fill="#B7C2CC"/>
<path d="M224.256 218.782C224.2 219.051 224.135 219.288 223.96 219.509C223.879 219.611 223.79 219.708 223.693 219.794C223.555 219.899 223.445 219.958 223.342 220.02C223.191 220.108 223.008 220.149 222.841 220.186C222.677 220.221 222.499 220.221 222.334 220.205C222.208 220.194 222.054 220.146 221.949 220.119C221.911 220.108 221.876 220.098 221.841 220.079C221.577 219.95 221.396 219.842 221.205 219.613C221.121 219.517 221.03 219.35 220.984 219.266C220.919 219.145 220.884 219.008 220.863 218.874C220.819 218.624 220.854 218.303 220.968 218.075C220.987 218.034 221.011 217.986 221.035 217.94C221.054 217.852 221.078 217.76 221.116 217.682C221.205 217.502 221.31 217.284 221.485 217.166C221.585 217.098 221.687 217.034 221.793 216.975C221.916 216.907 222.073 216.875 222.202 216.843C222.329 216.813 222.504 216.824 222.609 216.824C222.65 216.824 222.687 216.827 222.728 216.835C222.857 216.859 222.995 216.889 223.121 216.934C223.251 216.983 223.375 217.058 223.493 217.128C223.528 217.15 223.561 217.174 223.593 217.201C223.698 217.289 223.811 217.384 223.898 217.494C223.984 217.601 224.051 217.725 224.119 217.843C224.191 218.008 224.218 218.129 224.251 218.247C224.262 218.285 224.267 218.322 224.27 218.363C224.27 218.492 224.283 218.648 224.256 218.782Z" fill="white"/>
<path d="M228.682 223.619C228.609 223.81 228.491 223.971 228.334 224.1L228.097 224.337C227.976 224.444 227.836 224.514 227.682 224.544C227.536 224.6 227.385 224.617 227.229 224.595C227.075 224.584 226.935 224.536 226.809 224.455C226.668 224.393 226.553 224.302 226.455 224.178C226.402 224.089 226.345 224.001 226.291 223.912C226.205 223.721 226.175 223.519 226.197 223.309C226.221 223.212 226.243 223.116 226.267 223.019C226.342 222.828 226.458 222.666 226.615 222.537L226.852 222.301C226.973 222.193 227.113 222.123 227.269 222.093C227.415 222.037 227.566 222.021 227.722 222.042C227.876 222.053 228.016 222.102 228.143 222.182C228.283 222.244 228.399 222.336 228.496 222.459C228.55 222.548 228.606 222.637 228.66 222.726C228.747 222.917 228.776 223.118 228.755 223.328C228.73 223.428 228.706 223.522 228.682 223.619Z" fill="#B7C2CC"/>
<path d="M305.914 251.962C305.858 252.271 305.785 252.451 305.629 252.72C305.443 253.038 305.133 253.256 304.817 253.428C304.658 253.514 304.472 253.557 304.297 253.605C304.214 253.629 304.127 253.643 304.038 253.646C303.863 253.654 303.68 253.667 303.505 253.632C303.189 253.57 303.022 253.503 302.747 253.347C302.712 253.325 302.677 253.304 302.645 253.28C302.54 253.196 302.435 253.1 302.346 252.997C302.286 252.93 302.243 252.849 302.195 252.774C302.133 252.675 302.073 252.586 302.038 252.475C301.993 252.336 301.933 252.177 301.92 252.026C301.909 251.908 301.909 251.784 301.912 251.666C301.912 251.628 301.914 251.588 301.92 251.55C301.925 251.445 301.928 251.359 301.941 251.276C301.963 251.139 301.998 250.999 302.041 250.864C302.057 250.81 302.079 250.762 302.103 250.714C302.152 250.619 302.189 250.517 302.254 250.434C302.308 250.367 302.405 250.267 302.464 250.205C302.621 250.063 302.771 249.982 302.882 249.92C303.041 249.829 303.23 249.783 303.405 249.743C303.448 249.732 303.491 249.726 303.537 249.724C303.677 249.713 303.817 249.71 303.957 249.716C304.141 249.726 304.329 249.78 304.499 249.831C304.863 249.942 305.152 250.168 305.416 250.428C305.548 250.56 305.645 250.727 305.734 250.888C305.823 251.05 305.874 251.241 305.906 251.418C305.939 251.593 305.944 251.784 305.914 251.962Z" fill="#B7C2CC"/>
<path d="M316.122 114.004C315.491 114.004 315.028 113.294 315.09 112.718C315.165 112.038 315.745 111.688 316.378 111.688C317.009 111.688 317.475 112.398 317.41 112.974C317.332 113.654 316.753 114.004 316.122 114.004Z" fill="#B7C2CC"/>
<path d="M300.179 65.4708C299.974 65.9415 299.615 66.3423 299.138 66.5495C298.941 66.6167 298.823 66.6544 298.704 66.6813C298.505 66.7028 298.375 66.7055 298.251 66.7001C298.106 66.6947 297.955 66.6463 297.815 66.6086C297.761 66.5925 297.712 66.5737 297.664 66.5468C297.542 66.4849 297.4 66.4176 297.289 66.3289C297.173 66.2347 297.055 66.1298 296.958 66.0142C296.863 65.9012 296.78 65.7506 296.715 65.6349C296.685 65.5838 296.661 65.5327 296.642 65.4762C296.596 65.339 296.548 65.1965 296.524 65.0539C296.507 64.8495 296.502 64.7203 296.507 64.5993C296.515 64.4567 296.561 64.3115 296.599 64.1743C296.648 64.0021 296.747 63.8515 296.869 63.7224C296.928 63.5422 297.011 63.4184 297.125 63.3162C297.222 63.1925 297.346 63.1011 297.494 63.0419C297.639 62.9719 297.788 62.9397 297.947 62.9504C298.098 62.9343 298.246 62.9585 298.389 63.0177C298.448 63.0419 298.502 63.0742 298.559 63.1064C298.796 63.0607 299.03 63.1091 299.257 63.1764C299.397 63.2194 299.534 63.2947 299.65 63.3862C299.745 63.4588 299.842 63.5529 299.923 63.6417C299.976 63.7036 300.017 63.7816 300.06 63.8488C300.197 64.0721 300.303 64.3196 300.313 64.5859C300.316 64.8979 300.305 65.1803 300.179 65.4708Z" fill="white"/>
<path d="M300.82 175.352C300.599 175.831 300.381 176.309 300.16 176.788C299.866 177.428 298.96 177.34 298.815 176.643C298.806 176.608 298.771 176.457 298.769 176.447C298.736 176.344 298.699 176.245 298.658 176.145C298.621 176.054 298.577 175.962 298.529 175.876C298.505 175.833 298.483 175.787 298.456 175.744C298.3 175.521 298.178 175.362 298.038 175.217C298.009 175.188 297.979 175.158 297.949 175.128C297.939 175.12 297.877 175.069 297.868 175.061C297.782 174.991 297.691 174.924 297.599 174.86C297.37 174.701 297.292 174.475 297.316 174.257C297.238 174.09 297.222 173.899 297.302 173.73L298.383 171.47C298.596 171.024 299.238 170.827 299.577 171.277C299.877 171.672 300.173 172.067 300.472 172.463C300.774 172.864 301.265 173.334 301.327 173.848C301.386 174.37 301.028 174.903 300.82 175.352Z" fill="white"/>
<path d="M183.884 142.129C182.488 143.211 181.089 144.292 179.692 145.373C179.404 145.596 178.938 145.586 178.706 145.276C178.485 144.98 178.493 144.531 178.803 144.292C180.199 143.211 181.598 142.129 182.994 141.048C183.283 140.825 183.749 140.835 183.981 141.145C184.202 141.443 184.194 141.89 183.884 142.129Z" fill="white"/>
<path d="M99.1336 139.496C98.9234 139.786 98.449 139.897 98.1579 139.655C96.2145 138.062 94.2737 136.47 92.3303 134.877C92.0392 134.638 91.9395 134.224 92.1713 133.901C92.3815 133.61 92.8559 133.5 93.1497 133.742C95.0932 135.335 97.0339 136.927 98.9746 138.519C99.2657 138.759 99.3627 139.176 99.1336 139.496Z" fill="white"/>
<path d="M105.185 135.37C105.166 135.536 105.072 135.73 104.934 135.832C104.659 136.037 104.161 136.064 103.948 135.735C103.258 134.665 102.568 133.597 101.875 132.526C101.77 132.362 101.697 132.206 101.719 132.007C101.738 131.841 101.832 131.647 101.969 131.545C102.244 131.34 102.743 131.313 102.956 131.641C103.646 132.712 104.336 133.78 105.029 134.85C105.136 135.012 105.209 135.168 105.185 135.37Z" fill="white"/>
<path d="M63.9366 108.065C63.2978 108.581 62.6563 109.1 62.0174 109.617C61.6589 110.284 61.2897 110.948 60.9069 111.599C59.7021 113.649 58.3678 115.623 56.9177 117.509C56.198 118.445 55.4567 119.368 54.6777 120.247C54.0012 121.011 53.2438 121.77 52.2411 122.076C50.958 122.477 49.6939 121.891 48.4836 121.485C47.1063 121.019 45.7316 120.554 44.3488 120.088C41.5213 119.134 38.6884 118.179 35.8609 117.224C35.5751 117.127 35.4458 116.917 35.4215 116.694C35.3002 116.74 35.1789 116.788 35.0468 116.823C34.6829 116.931 34.2948 116.842 34.1223 116.468C33.9821 116.156 34.1169 115.653 34.4781 115.545C35.4727 115.247 36.2193 114.59 36.8716 113.808C37.6318 112.89 38.3137 111.909 39.0226 110.954L43.7693 104.568C44.5024 103.575 45.2033 102.543 45.9903 101.596C46.6265 100.837 47.4189 100.181 48.4594 100.194C49.0524 100.202 49.6022 100.428 50.1494 100.635C50.7559 100.869 51.3677 101.106 51.9742 101.343L55.6292 102.755C56.8853 103.239 58.1387 103.729 59.3948 104.213L61.1118 104.88C61.1819 104.907 61.2546 104.934 61.3247 104.961C61.6266 104.791 61.9797 104.85 62.2196 105.111C62.8234 105.765 63.4272 106.421 64.0309 107.075C64.287 107.357 64.2169 107.836 63.9366 108.065Z" fill="black"/>
<path d="M68.9609 120.22C68.8019 118.41 67.9474 116.508 67.0391 114.962C66.872 114.668 66.5782 114.572 66.3113 114.598C65.756 112.651 65.2062 110.709 64.6536 108.764C64.4811 108.167 63.818 107.973 63.3948 108.463C59.5404 112.92 55.8072 117.474 52.1845 122.117C51.7559 122.13 51.3866 122.544 51.5268 123.002C51.4001 123.332 51.5861 123.653 51.8718 123.809C52.1791 124.511 52.4918 125.215 52.8045 125.917C52.9311 126.205 53.1872 126.324 53.4433 126.313C53.8395 127.37 54.2357 128.427 54.632 129.484C55.2627 131.171 55.8692 132.89 57.0066 134.318C57.3004 134.694 57.8315 134.622 58.1118 134.286C60.7803 131.114 63.4461 127.948 66.1091 124.78C66.7803 123.983 67.4623 123.187 68.1307 122.38C68.6671 121.737 69.0337 121.086 68.9609 120.22Z" fill="#8256E1"/>
<path d="M56.0576 135.3C55.8204 135.448 55.5213 135.44 55.2867 135.275C55.1655 135.197 55.0522 135.103 54.9498 135.006C54.8339 135.071 54.6937 135.109 54.5347 135.109C51.0387 135.09 48.0252 133.185 45.0333 131.612C44.2813 131.216 43.5157 130.834 42.7314 130.498C41.9605 130.167 41.1491 129.971 40.3756 129.675C40.106 129.791 39.8068 129.764 39.6047 129.452C37.947 126.894 36.7394 124.091 36.0251 121.148C35.7259 120.559 35.4159 119.978 35.1006 119.403C35.0224 119.335 34.9469 119.263 34.8769 119.182C34.761 119.053 34.7178 118.883 34.7259 118.717C34.6046 118.496 34.6612 118.249 34.8041 118.055C34.9227 117.786 35.2111 117.59 35.5157 117.638C36.3027 117.762 37.0089 118.087 37.7152 118.437C38.0413 118.598 38.3675 118.76 38.7044 118.897C38.8769 118.967 39.0494 119.029 39.2273 119.08C39.4968 119.139 39.5939 119.152 39.6909 119.166C39.92 119.193 40.0791 119.319 40.1788 119.481C43.9901 120.67 47.8015 121.858 51.6156 123.05C52.2544 123.246 52.1466 123.959 51.7099 124.252C52.8662 126.66 53.8204 129.156 54.5698 131.717C54.7665 131.717 54.9579 131.795 55.0981 131.953C55.7504 132.709 56.1897 133.629 56.3865 134.608C56.4404 134.875 56.2814 135.165 56.0576 135.3Z" fill="black"/>
<path d="M70.3488 121.657C68.1843 124.193 65.9821 126.698 63.7422 129.167C62.6344 130.388 61.5158 131.598 60.3891 132.801C59.3729 133.885 58.3028 134.98 57.5966 136.303C57.2193 137.008 56.1276 136.682 56.2139 136.031C55.9605 136.144 55.7502 136.193 55.5103 136.104L43.4509 131.695C42.4375 131.324 41.424 130.953 40.4078 130.582C39.901 130.396 39.3943 130.21 38.8876 130.025C38.3107 129.815 38.1813 129.562 37.9819 128.995C37.273 126.967 36.5641 124.936 35.8552 122.908C35.0573 120.624 34.2595 118.343 33.4616 116.059C33.2837 115.553 33.6746 115.145 34.0789 115.083C38.6126 109.883 43.0008 104.563 47.238 99.1211C47.6423 98.5992 48.362 98.9005 48.4995 99.3766C54.0818 101.074 59.7179 102.865 64.5913 106.163C64.8339 106.201 65.0307 106.327 65.1196 106.607C66.5859 111.217 68.2059 115.779 69.9741 120.285C70.0226 120.409 70.0334 120.524 70.0199 120.632C70.4242 120.783 70.7019 121.242 70.3488 121.657ZM39.3593 128.712C44.7205 130.673 50.0844 132.634 55.4484 134.595C55.4726 134.568 55.4996 134.541 55.5238 134.514C55.5696 134.474 55.6236 134.444 55.6802 134.423C55.7179 134.396 55.7583 134.372 55.8041 134.353C53.8149 130.899 52.1896 127.254 50.9523 123.467C50.9335 123.413 50.9227 123.357 50.9173 123.306C50.7017 123.228 50.5103 123.098 50.3567 122.929C50.2623 122.937 50.1599 122.926 50.0548 122.889C47.0817 121.853 44.1113 120.817 41.1383 119.782C39.7366 119.295 38.3296 118.824 36.9361 118.313C36.4455 118.136 35.9657 117.931 35.5102 117.689C36.7932 121.364 38.0762 125.038 39.3593 128.712ZM47.8283 100.635C43.7744 105.816 39.5857 110.892 35.2622 115.852C35.9926 116.498 36.9414 116.836 37.8579 117.159C39.2622 117.652 40.6692 118.138 42.0736 118.628C44.8634 119.599 47.6531 120.573 50.4429 121.544C50.8095 121.436 51.2839 121.587 51.3998 122.068C51.3486 121.848 51.3648 122.079 51.4887 121.963C51.602 121.858 51.7394 121.778 51.8499 121.665C52.0979 121.412 52.3162 121.124 52.5481 120.858C53.0871 120.234 53.6262 119.612 54.1626 118.986C55.2624 117.708 56.3567 116.428 57.443 115.139C59.5885 112.592 61.6937 110.007 63.7126 107.357C58.9497 104.041 53.3459 102.309 47.8283 100.635ZM68.6964 120.858C67.1331 116.88 65.6964 112.855 64.3703 108.791C62.0872 111.758 59.7018 114.647 57.2759 117.498C55.9901 119.01 54.6909 120.511 53.3944 122.012C53.0683 122.391 52.7286 122.821 52.3028 123.098C53.5535 126.88 55.1869 130.523 57.1896 133.966C57.2516 134.073 57.2786 134.178 57.2812 134.275C57.8203 133.554 58.416 132.876 59.0414 132.209C60.1869 130.985 61.3271 129.756 62.4565 128.513C64.656 126.098 66.8123 123.642 68.9363 121.159C68.8339 121.097 68.7504 120.998 68.6964 120.858Z" fill="white"/>
<path d="M201.474 205.454C201.315 205.427 201.156 205.414 200.994 205.4C200.905 205.467 200.806 205.513 200.692 205.519C199.218 205.607 197.757 205.876 196.356 206.352C196.153 206.422 195.94 206.406 195.76 206.323C195.714 206.366 195.671 206.409 195.625 206.452C195.356 206.716 194.865 206.629 194.639 206.355C194.382 206.043 194.463 205.637 194.736 205.371C195.393 204.733 196.048 204.093 196.706 203.455C196.757 203.283 196.876 203.138 197.083 203.071C197.35 202.831 197.585 202.6 197.819 202.374C198.736 201.486 199.687 200.642 200.841 200.072C201.315 199.838 201.889 200.273 201.822 200.787C201.779 201.121 201.733 201.457 201.69 201.79C201.884 201.893 202.032 202.076 202.059 202.299C202.118 203.084 202.178 203.87 202.237 204.652C202.275 205.075 201.951 205.537 201.474 205.454Z" fill="black"/>
<path d="M200.027 198.503C198.107 198.108 196.364 197.107 195.024 195.695C195.024 195.657 195.018 195.62 195.018 195.582C195.01 195.187 194.725 195.009 194.417 195.009C193.946 194.501 193.21 194.977 193.231 195.601L193.431 201.554C193.439 201.782 193.603 201.963 193.806 202.062C193.83 203.025 193.857 203.991 193.881 204.959C193.895 205.336 194.342 205.591 194.679 205.545C195.086 205.484 195.277 205.126 195.266 204.749C196.975 203.073 198.687 201.406 200.396 199.738C200.843 199.305 200.638 198.63 200.027 198.503Z" fill="#8256E1"/>
<path d="M202.895 204.994C202.892 205.075 202.868 205.147 202.836 205.217C202.995 205.594 202.857 206.121 202.331 206.223L193.846 207.864C193.253 207.98 192.968 207.396 193.105 206.95C193.089 206.904 193.07 206.863 193.065 206.81C192.528 202.622 192.207 198.409 192.108 194.189C192.094 193.605 192.668 193.153 193.207 193.516C196.048 195.429 199.03 197.118 202.135 198.568C202.391 198.689 202.561 198.953 202.577 199.219C202.641 199.305 202.687 199.404 202.698 199.517C202.903 201.336 202.965 203.168 202.895 204.994ZM193.544 195.397C193.658 198.587 193.895 201.772 194.259 204.946C196.078 202.796 198.296 201.032 200.552 199.345C198.14 198.164 195.8 196.849 193.544 195.397ZM201.385 200.464C199.089 202.18 196.827 203.975 195.03 206.215C197.189 205.798 199.35 205.379 201.509 204.962C201.504 204.921 201.501 204.881 201.504 204.841C201.561 203.38 201.515 201.919 201.385 200.464Z" fill="white"/>
</g>
<defs>
<clipPath id="clip0">
<rect width="352" height="263" fill="white" transform="matrix(1 0 0 -1 0 263)"/>
</clipPath>
</defs>
</svg>
