<svg width="500" height="375" viewBox="0 0 500 375" fill="none" xmlns="http://www.w3.org/2000/svg">
<g clip-path="url(#clip0)">
<path d="M223.512 336.025C218.378 343.508 210.46 348.673 201.841 351.29C193.035 353.964 183.544 354.251 174.561 352.273C170.009 351.27 165.537 349.667 161.425 347.433C160.797 347.705 159.955 347.296 159.978 346.611C156.256 344.403 152.879 341.649 150.077 338.305C144.253 331.354 140.983 321.935 142.281 312.864C142.446 311.724 142.691 310.599 142.986 309.482C143.315 308.247 145.168 308.97 144.843 310.194C142.595 318.653 144.954 327.861 149.954 334.896C150.142 335.16 150.345 335.405 150.54 335.662C150.827 330.642 154.721 327.038 158.385 323.955C160.395 322.264 162.424 320.55 163.849 318.312C165.319 316.013 166.123 313.293 167.907 311.189C169.726 309.046 172.345 307.642 175.182 308.335C175.706 308.465 175.924 309.161 175.752 309.62C175.545 310.175 174.986 310.316 174.47 310.19C172.325 309.666 170.231 311.323 169.06 312.945C167.601 314.965 166.804 317.375 165.468 319.471C162.922 323.465 158.634 325.753 155.567 329.257C153.882 331.186 152.42 333.577 152.489 336.228C152.5 336.733 152.194 337.081 151.815 337.242C153.101 338.737 154.503 340.122 156.011 341.381C156.057 341.308 156.114 341.239 156.183 341.174C159.805 337.869 162.903 333.909 167.057 331.228C171.184 328.561 175.917 327.674 180.772 327.689C185.707 327.704 190.592 328.534 195.509 328.852C197.997 329.013 200.501 329.043 202.978 328.737C205.456 328.431 207.806 327.708 210.15 326.866C214.369 325.348 219.052 323.381 223.546 324.246C223.703 324.219 223.872 324.23 224.056 324.299C224.243 324.368 224.427 324.441 224.615 324.51C225.12 324.663 225.622 324.839 226.119 325.076C226.273 325.149 226.391 325.244 226.483 325.351C227.77 321.235 228.321 316.893 228.038 312.593C227.965 311.487 227.835 310.389 227.662 309.295C227.459 308.032 229.427 307.73 229.63 308.997C231.127 318.369 228.876 328.205 223.512 336.025ZM172 349.595C180.485 352.005 189.635 352.231 198.223 350.222C205.659 348.482 212.803 344.893 218.163 339.411C216.325 334.74 210.039 338.374 206.949 338.963C202.649 339.786 198.292 338.753 194.165 337.567C189.984 336.369 185.78 334.889 181.384 334.82C177.594 334.763 173.826 335.868 170.553 337.743C167.237 339.637 164.415 342.437 162.547 345.773C165.537 347.391 168.73 348.665 172 349.595ZM225.415 326.931C224.978 326.767 224.538 326.602 224.102 326.438C219.959 325.194 215.56 327.012 211.635 328.439C209.342 329.273 207.025 330.084 204.613 330.505C202.308 330.906 199.958 330.99 197.622 330.933C188.414 330.7 178.118 327.452 169.488 332.081C164.779 334.606 161.444 339.036 157.569 342.598C158.619 343.378 159.706 344.109 160.828 344.786C164.63 338.099 171.812 333.462 179.527 332.899C184.141 332.563 188.594 333.856 192.974 335.149C197.377 336.45 202.021 337.873 206.65 336.989C209.327 336.476 211.792 335.011 214.576 335.061C216.674 335.095 218.604 336.037 219.607 337.835C219.676 337.758 219.745 337.682 219.81 337.605C221.261 335.887 222.536 334.024 223.627 332.058C224.527 330.432 225.296 328.733 225.936 326.985C225.775 327.016 225.603 327.004 225.415 326.931Z" fill="black"/>
<path d="M44.0889 83.2117C43.1547 81.9683 41.5466 81.7312 40.0917 81.5934C38.3879 81.4328 36.6726 81.3907 34.965 81.471C31.5574 81.6317 28.1536 82.2247 24.9107 83.292C18.7961 85.3044 13.2521 88.8852 9.17065 93.8701C9.18213 93.9466 9.18596 94.0308 9.17447 94.1188C8.91029 96.8235 10.9204 99.0922 13.1296 100.362C15.6221 101.797 18.5205 102.344 21.2044 103.316C26.4843 105.225 31.2434 108.392 35.1105 112.448C35.9949 113.373 34.4519 114.628 33.5751 113.71C29.4477 109.383 24.2981 106.327 18.6085 104.544C15.7944 103.664 12.785 102.876 10.4801 100.936C9.01367 99.7004 7.85356 98.0937 7.39028 96.2765C7.10312 96.7011 6.82362 97.1296 6.55561 97.5695C6.13445 102.225 9.92108 106.024 13.4589 108.5C17.2608 111.158 21.6409 113.362 24.3478 117.276C26.0325 119.713 26.8671 122.609 28.4982 125.072C29.1989 126.128 27.6674 127.398 26.9629 126.335C25.462 124.066 24.6158 121.472 23.2145 119.154C21.9281 117.027 20.0367 115.382 18.038 113.951C14.0332 111.082 9.48844 108.832 6.65899 104.632C5.84729 103.427 5.2232 102.122 4.86713 100.752C3.1059 104.54 2.08362 108.664 1.98025 112.857C1.8271 118.936 3.83337 124.946 7.35965 129.878C11.2726 135.348 16.9086 139.472 23.4213 141.251C24.658 141.588 23.9343 143.44 22.7091 143.107C10.2465 139.702 0.578925 127.793 0.0275846 114.858C-0.240428 108.58 1.45571 102.34 4.62975 96.9421C4.67952 96.6705 4.81352 96.4716 4.99348 96.3415C5.29212 95.8556 5.59842 95.3774 5.92004 94.9068C10.0321 88.9196 16.0433 84.4283 22.847 81.9224C26.6413 80.5261 30.6461 79.7035 34.6816 79.5084C36.7147 79.409 38.7784 79.4281 40.8038 79.6691C42.6225 79.8872 44.4986 80.4266 45.6434 81.9492C46.3938 82.9707 44.8585 84.2332 44.0889 83.2117Z" fill="black"/>
<path d="M11.0391 116.836C11.1348 116.388 11.2573 115.998 11.7167 115.799C11.9465 115.7 12.203 115.642 12.448 115.589C14.2208 115.21 16.2002 115.898 17.3795 117.264C18.5932 118.676 18.6813 120.669 17.8121 122.272C16.9009 123.955 15.0286 124.916 13.1487 124.342C11.0888 123.714 9.71431 121.354 10.4341 119.288C10.5222 119.039 10.7174 118.852 10.951 118.745C10.9433 118.664 10.928 118.584 10.928 118.504C10.9051 117.945 10.9242 117.387 11.0391 116.836ZM13.1142 122.031C13.164 122.153 13.2751 122.226 13.3937 122.299C13.501 122.352 13.5546 122.379 13.612 122.398C13.7115 122.437 13.8111 122.471 13.9145 122.502C14.0523 122.521 14.1404 122.528 14.2284 122.544C14.3433 122.547 14.4045 122.54 14.4658 122.532C14.5117 122.525 14.7147 122.479 14.7376 122.482C14.8219 122.456 14.9023 122.425 14.9827 122.391C15.0324 122.368 15.0822 122.345 15.132 122.318C15.3196 122.196 15.4077 122.13 15.4919 122.062C15.5455 122.016 15.5953 121.966 15.6489 121.92C15.8135 121.733 15.9437 121.545 16.0662 121.346C16.0854 121.304 16.1696 121.14 16.1849 121.109C16.2347 120.99 16.2806 120.868 16.3189 120.746C16.3802 120.436 16.407 120.298 16.4185 120.153C16.4223 120.095 16.4223 120.038 16.4261 119.984C16.4108 119.816 16.3993 119.69 16.3763 119.563C16.3649 119.51 16.3189 119.361 16.3151 119.342C16.273 119.227 16.227 119.112 16.1734 119.001C15.9858 118.703 15.9054 118.599 15.8173 118.5C15.7867 118.465 15.6719 118.351 15.6527 118.332C15.5532 118.247 15.4536 118.163 15.3464 118.087C15.2354 118.01 15.1243 117.938 15.0057 117.872C14.8448 117.8 14.7798 117.765 14.7108 117.739C14.573 117.681 14.4313 117.639 14.2858 117.593C14.1557 117.563 14.0791 117.547 14.0063 117.536C13.8417 117.509 13.6809 117.494 13.5163 117.486C13.4665 117.482 13.4129 117.482 13.3631 117.482C13.141 117.501 13.0453 117.517 12.9496 117.532C12.8118 118.661 13.03 119.697 13.6235 120.726C13.8877 121.186 13.5699 121.828 13.1142 122.031Z" fill="black"/>
<path d="M286.081 339.923C285.132 341.213 283.983 342.387 282.927 343.592C281.793 345.184 280.503 346.661 279.079 348C277.999 349.017 276.173 347.341 277.16 346.201C277.356 345.976 277.551 345.75 277.75 345.524C277.762 345.467 277.777 345.41 277.796 345.348C277.658 345.126 277.585 344.851 277.635 344.522C277.666 344.315 277.704 344.113 277.739 343.91C277.654 343.611 277.693 343.275 277.911 342.942C278.37 340.578 279.056 338.263 279.971 336.037C279.753 335.692 279.672 335.287 279.833 334.87C279.959 334.537 280.235 334.269 280.56 334.128C280.694 333.55 281.112 333.217 281.579 333.114C281.759 333.007 281.958 332.934 282.195 332.934C282.674 332.93 283.279 333.209 283.432 333.711C283.524 334.005 283.593 334.296 283.646 334.583C284.397 334.843 285.113 335.191 285.733 335.643C287.245 336.744 287.104 338.535 286.081 339.923Z" fill="#B5E6EB"/>
<path d="M287.571 341.243C284.485 344.855 281.61 348.642 278.949 352.579C278.378 353.421 277.394 353.21 276.885 352.609C276.828 352.564 276.766 352.521 276.713 352.472C276.644 352.422 276.579 352.361 276.521 352.3C275.652 351.401 275.166 350.004 274.615 348.956L272.015 344.002C270.307 340.746 268.6 337.49 266.892 334.235C266.486 333.462 267.099 332.509 267.907 332.387C272.141 331.737 276.341 330.818 280.45 329.602C280.963 329.2 281.736 329.116 282.284 329.747C283.941 331.668 285.599 333.588 287.261 335.509C287.95 336.304 288.919 337.18 289.049 338.286C289.194 339.533 288.31 340.375 287.571 341.243ZM270.12 334.694C271.406 337.146 272.692 339.598 273.979 342.051C274.745 343.508 275.51 344.966 276.272 346.423C276.345 346.561 276.418 346.699 276.487 346.837C276.946 342.047 277.85 337.307 279.186 332.681C276.196 333.489 273.171 334.162 270.12 334.694ZM286.246 338.401C286.063 338.236 285.913 338.007 285.749 337.819C285.389 337.402 285.029 336.985 284.665 336.568C283.704 335.455 282.743 334.342 281.782 333.232C280.392 337.988 279.489 342.862 279.064 347.797C280.764 345.44 282.54 343.133 284.401 340.899C284.734 340.497 285.071 340.099 285.412 339.702C285.691 339.373 286.185 338.986 286.357 338.596C286.403 338.504 286.576 338.695 286.246 338.401Z" fill="black"/>
<path d="M96.8223 274.309C93.3304 273.85 89.8424 273.391 86.3506 272.932C86.3544 274.642 86.5612 276.333 86.9709 277.997C87.1968 278.904 86.0673 279.351 85.4087 278.953C83.5901 277.859 81.7753 276.765 79.9604 275.671C79.39 275.327 79.3402 275.219 78.831 275.64C78.4519 275.954 78.0805 276.272 77.713 276.593C76.974 277.236 76.2504 277.897 75.5421 278.575C72.6935 281.291 70.1167 284.271 67.8041 287.454C67.115 288.399 65.7481 287.573 66.0697 286.517C67.7888 280.866 70.2622 275.472 73.3788 270.457C71.1007 269.129 68.9987 267.572 67.0805 265.739C66.4756 265.162 67.0575 264.286 67.7008 264.125C69.5462 263.67 71.407 263.605 73.2563 263.872C72.8849 261.405 72.8351 258.899 73.1108 256.412C73.1989 255.617 74.3666 255.165 74.8682 255.892C76.0589 257.617 77.2497 259.343 78.4404 261.068C81.9131 257.924 85.3819 254.775 88.8546 251.63C89.5017 251.045 90.5814 251.672 90.4742 252.506C89.9114 256.986 88.6785 261.359 86.8101 265.464C90.8341 267.239 94.4982 269.676 97.7105 272.683C98.3538 273.303 97.6186 274.416 96.8223 274.309ZM78.8922 263.337C78.517 263.677 77.7857 263.628 77.4909 263.199C76.6332 261.956 75.7794 260.716 74.9218 259.473C74.9141 261.309 75.0903 263.142 75.454 264.959C75.6148 265.77 74.7878 266.202 74.1139 266.034C72.77 265.701 71.3993 265.621 70.0401 265.747C71.698 267.14 73.5052 268.36 75.4234 269.359C76.3806 269.86 76.0092 271.283 75.1745 271.325C73.1146 274.607 71.3572 278.054 69.91 281.639C71.5563 279.745 73.2946 277.932 75.14 276.233C75.9326 275.503 76.7404 274.787 77.5713 274.102C78.4519 273.376 79.2751 273.027 80.351 273.594C81.7982 274.359 83.2034 275.239 84.6009 276.115C84.3903 274.642 84.3137 273.154 84.3903 271.658C84.4362 270.766 85.4088 270.606 85.9754 271.023C86.1247 270.95 86.3047 270.916 86.5153 270.942C88.935 271.26 91.351 271.577 93.7707 271.895C91.328 269.986 88.6287 268.406 85.784 267.178C85.0374 267.576 83.9041 266.937 84.3635 266.007C86.0826 262.518 87.3193 258.838 88.0506 255.031C84.9952 257.809 81.9437 260.575 78.8922 263.337Z" fill="#B5E6EB"/>
<path d="M307.507 336.056C306.271 337.307 305.199 338.715 304.283 340.214C303.901 340.842 302.817 340.723 302.568 340.038C301.99 338.458 301.159 337.027 300.064 335.75C299.949 335.616 299.884 335.478 299.85 335.34C299.643 335.283 299.452 335.172 299.321 335.019C298.95 334.567 299.08 334.005 299.459 333.619C300.895 332.165 302.331 330.707 303.77 329.254C304.241 328.779 305.061 329.085 305.31 329.617C306.133 331.373 306.96 333.129 307.783 334.885C307.982 335.31 307.814 335.742 307.507 336.056ZM304.104 331.725C303.231 332.609 302.358 333.492 301.485 334.376C301.523 334.411 301.561 334.441 301.6 334.487C302.407 335.432 303.089 336.477 303.652 337.582C304.276 336.714 304.961 335.891 305.692 335.103C305.164 333.978 304.632 332.854 304.104 331.725Z" fill="#B5E6EB"/>
<path d="M526.849 284.08C532.339 320.294 509.175 356.925 488.741 364.653C469.016 372.109 444.247 376.256 424.962 374.661C397.004 372.346 369.805 367.051 344.378 351.565C325.299 339.946 309.751 322.807 289.405 313.216C278.627 308.128 267.324 306.315 255.513 308.155C248.713 309.207 242.078 311.07 235.389 312.631C228.562 314.226 221.686 315.592 214.767 316.732C202.312 318.771 189.624 320.355 176.981 320.409C166.586 320.447 155.869 319.303 146.209 315.244C136.802 311.277 129.179 304.421 124.68 295.22C119.986 285.618 118.696 274.787 116.847 264.389C114.963 253.807 112.432 243.03 105.345 234.614C98.6448 226.645 89.2031 221.698 79.903 217.386C70.4652 213.014 60.6865 209.146 51.957 203.396C43.8898 198.082 37.0938 190.959 31.9594 182.798C21.6371 166.386 17.6858 146.144 20.6454 127.016C22.2037 116.908 25.841 107.715 30.8223 98.8282C33.6172 93.8357 36.2706 91.6856 37.5034 86.0465C37.6221 85.4459 39.6475 78.7242 39.705 78.5329C48.2431 50.3987 84.3099 34.4303 118.719 35.6392C158.128 37.0241 223.259 52.4149 285.063 36.5612C348.314 20.3364 363.928 24.2501 394.558 25.9525C452.694 29.1852 474.035 46.9403 484.882 56.7188C513.05 82.1061 528.101 105.221 526.305 167.09C525.191 205.167 515.803 211.235 526.849 284.08Z" fill="black"/>
<path d="M303.671 234.962C303.671 253.141 311.512 267.381 321.521 267.381C331.529 267.381 339.37 253.141 339.37 234.962C339.37 216.786 331.529 202.547 321.521 202.547C311.512 202.547 303.671 216.786 303.671 234.962ZM308.074 234.962C308.074 219.777 314.231 206.946 321.521 206.946C328.807 206.946 334.967 219.777 334.967 234.962C334.967 250.15 328.81 262.977 321.521 262.977C314.231 262.977 308.074 250.15 308.074 234.962Z" fill="#B5E6EB"/>
<path d="M412.809 271.956C406.729 274.963 400.653 277.978 394.573 280.985C394.462 281.402 394.194 281.8 393.719 282.09C385.419 287.156 376.976 292.351 369.453 298.583L357.461 310.657C356.883 311.238 356.129 311.162 355.566 310.768C353.598 312.742 351.66 314.75 349.758 316.789C349.666 317.034 349.513 317.268 349.279 317.459C348.643 317.975 347.441 317.975 346.947 317.226C341.824 309.448 336.613 301.559 333.325 292.799C331.64 288.315 330.526 283.663 330.043 278.904C329.534 273.896 329.588 268.85 329.653 263.823C329.764 255.265 329.898 246.469 327.076 238.263C325.816 234.614 324.013 231.163 321.436 228.263C318.764 225.256 315.157 223.301 312.443 220.34C309.069 216.663 307.99 211.181 310.26 206.636C311.214 204.735 312.6 203.151 313.913 201.502C314.962 200.182 315.961 198.82 316.271 197.172C315.609 196.747 315.429 195.951 315.62 195.19C317.925 186.234 314.633 175.981 320.514 168.02C320.586 167.92 320.667 167.84 320.751 167.76C320.816 167.534 320.87 167.304 320.942 167.071C321.367 165.621 321.896 164.217 322.52 162.844C323.515 155.028 325.131 146.959 329.852 140.609C329.76 140.375 329.718 140.119 329.779 139.866C330.522 136.814 333.049 135.077 335.936 134.231C339.328 133.244 342.969 133.21 346.45 133.707C353.594 134.729 360.417 137.674 367.159 140.111C370.303 141.244 373.438 142.376 376.57 143.508C376.517 142.812 376.861 142.303 377.34 142.016C376.915 137.035 376.616 132.035 376.459 127.035C376.348 123.523 376.295 120.015 376.306 116.503C376.318 113.136 376.532 109.774 376.513 106.415C376.498 105.183 376.333 103.905 375.525 102.964C374.87 102.195 373.909 101.743 372.948 101.426C370.337 100.557 367.381 100.584 364.663 100.393C357.744 99.9147 350.81 99.6775 343.869 99.6699C336.039 99.6622 328.213 99.9683 320.403 100.565C320.284 100.577 320.165 100.573 320.05 100.557C317.921 101.055 315.701 100.936 313.626 100.179C311.857 100.19 310.065 100.079 308.296 99.9415C302.059 100.175 295.807 100.068 289.581 99.6086C288.455 99.5245 288.03 98.5604 288.187 97.6996C288.141 97.6269 288.088 97.5466 288.053 97.4663C287.663 96.5902 288.099 95.7064 288.896 95.2818C299.934 89.3481 312.255 86.0772 324.664 84.6693C337.969 83.1658 351.419 83.7894 364.694 85.1934C372.389 86.0083 380.058 87.0872 387.727 88.166C388.478 88.2731 389.041 88.8202 389.178 89.5624C389.27 90.0253 389.358 90.4882 389.443 90.9549C389.508 91.2725 389.477 91.5517 389.389 91.7889C391.744 97.9215 394.627 103.828 398.019 109.46C401.836 115.799 406.159 121.874 409.195 128.653C412.139 135.245 413.947 142.69 412.63 149.901C411.408 156.524 407.863 162.365 403.839 167.66C398.846 174.225 393.417 180.484 388.164 186.834C382.31 209.693 390.105 233.489 402.085 253.069C405.539 258.719 409.383 264.125 413.407 269.378C414.088 270.269 413.79 271.466 412.809 271.956Z" fill="white"/>
<path d="M469.445 235.865C466.462 240.635 461.511 244.208 455.963 245.295C450.825 246.301 443.746 244.541 442.494 238.73C440.181 235.36 439.079 231.232 438.868 227.157C438.677 223.607 439.113 220.13 439.768 216.679C438.734 209.123 441.916 201.506 444.963 194.708C445.335 193.881 446.223 193.43 447.104 193.755C453.061 195.913 458.812 198.943 463.835 202.822C466.14 204.605 468.342 206.652 469.942 209.108C471.726 211.855 472.741 214.961 473.124 218.209C473.84 224.296 472.714 230.639 469.445 235.865Z" fill="white"/>
<path d="M356.175 250.605C355.964 253.314 355.769 257.568 352.35 258.161C349.846 258.597 348.368 256.481 347.652 254.339C347.392 254.117 347.196 253.799 347.127 253.359C346.787 251.125 346.656 248.853 346.744 246.592C346.752 245.127 346.84 243.665 347.028 242.219C347.238 240.559 347.506 238.803 348.054 237.215C348.433 236.117 349.287 235.149 350.359 234.9C350.52 234.809 350.684 234.732 350.864 234.667C354.145 233.485 355.845 237.181 356.094 239.801C356.431 243.39 356.454 247.02 356.175 250.605Z" fill="black"/>
<path d="M417.224 271.52C417.178 272.679 415.792 273.62 414.739 272.959C405.975 277.821 397.234 282.729 388.795 288.131C379.675 293.973 370.877 300.393 363.001 307.841C358.632 311.969 354.589 316.411 350.952 321.193C350.508 321.774 349.899 321.92 349.34 321.801C348.884 321.836 348.414 321.683 348.027 321.258C337.322 309.509 330.74 294.447 328.068 278.862C327.397 274.948 326.973 270.988 326.796 267.013C326.597 262.53 326.735 258.038 326.689 253.547C326.609 245.72 325.736 237.261 320.843 230.815C319.79 229.43 318.588 228.186 317.205 227.138C315.773 226.059 314.181 225.21 312.653 224.284C309.425 222.325 306.634 219.735 306.083 215.814C305.501 211.656 307.297 207.616 309.376 204.13C311.397 200.741 313.882 197.401 314.288 193.353C314.514 191.108 314.223 188.862 314.127 186.624C314.035 184.367 314.165 182.14 314.571 179.921C315.413 175.319 316.937 170.828 318.243 166.336C319.564 161.799 320.881 157.262 322.202 152.717C322.872 150.418 323.542 148.118 324.204 145.823C324.729 144.036 325.238 142.235 326.054 140.551C326.904 138.803 328.014 137.165 329.58 135.98C331.123 134.801 332.942 134.086 334.837 133.68C338.715 132.846 342.915 133.198 346.836 133.543C355.527 134.319 364.131 136.423 372.186 139.763C373.247 140.199 374.296 140.666 375.33 141.148C375.582 133.91 375.835 126.664 376.084 119.422C376.157 117.383 376.229 115.344 376.294 113.301C376.348 111.763 376.459 110.206 376.34 108.672C376.241 107.402 376.034 106.017 375.333 104.93C374.564 103.76 373.224 103.281 371.891 103.01C356.439 99.8305 340.431 101.74 324.848 102.677C311.577 103.476 297.954 103.664 285.036 100.14C284.826 100.259 284.611 100.366 284.401 100.485C284.267 100.557 284.129 100.603 283.983 100.622C283.279 100.733 282.49 100.278 282.214 99.6431C282.153 99.5168 282.122 99.3906 282.103 99.2643C276.356 97.4165 271.019 94.7003 266.187 91.2686C265.552 90.8172 264.916 90.3466 264.292 89.8722C264.074 89.7077 263.859 89.5356 263.641 89.3634C259.334 85.9509 255.474 81.9454 252.128 77.4732C250.688 75.545 249.345 73.5595 248.096 71.5127C247.507 70.5601 246.936 69.5923 246.393 68.6129C244.111 64.527 242.169 60.2461 240.538 55.8503C241.725 55.8848 242.912 55.9231 244.099 55.9613C242.901 55.8733 241.718 55.835 240.538 55.8006C240.129 54.7026 239.742 53.5932 239.371 52.4838C240.542 52.5182 241.71 52.5488 242.885 52.5909C249.632 52.8548 256.397 53.0653 263.124 53.3254C263.741 53.3445 264.357 53.3637 264.966 53.3905C265.372 53.4019 265.774 53.4172 266.172 53.4364C274.901 53.7692 283.604 54.1479 292.33 54.5267C324.465 55.9192 356.71 57.3424 388.834 58.8306C388.845 58.7847 392.368 58.9492 392.368 58.9492C391.916 60.0357 391.418 61.3288 391.073 62.4612C389.933 62.4076 388.792 62.3502 387.658 62.2966C388.784 62.3961 389.925 62.4573 391.073 62.5071C386.686 62.3005 388.669 74.3093 391.789 86.0466C394.443 96.0431 397.919 105.837 399.003 107.757C403.383 115.535 409.325 122.528 412.851 130.761C416.159 138.485 416.584 147.173 414.257 155.234C412.017 163.012 406.932 168.965 401.522 174.772C396.12 180.56 390.783 186.494 389.266 194.532C387.681 202.925 388.677 211.939 390.564 220.198C394.362 236.79 403.038 251.952 413.096 265.518C413.897 266.604 414.72 267.683 415.543 268.75C416.324 268.352 417.358 268.85 417.699 269.603C418.005 270.326 417.76 271.042 417.224 271.52ZM321.425 181.13C324.813 182.335 327.934 184.256 330.878 186.349C332.945 187.818 334.913 189.543 337.149 190.76C338.953 191.739 341.231 192.374 343.187 191.464C344.267 190.955 344.929 189.945 345.255 188.828C345.201 188.782 345.144 188.736 345.083 188.675C341.196 184.474 336.736 180.847 331.847 177.871C330.679 177.155 329.488 176.478 328.267 175.859C327.597 175.514 326.923 175.17 326.23 174.86C325.74 174.634 325.468 174.405 325.016 174.726C324.017 175.453 323.205 176.685 322.623 177.752C322.045 178.804 321.654 179.948 321.425 181.13ZM389.029 227.23C386.529 219.024 385.139 210.531 385.258 201.942C385.319 197.286 385.893 192.539 387.67 188.193C389.136 184.608 391.341 181.383 393.807 178.422C398.731 172.5 404.865 167.373 408.548 160.506C412.526 153.099 413.472 144.178 411.232 136.098C408.82 127.383 402.613 120.195 398 112.593C393.421 105.041 389.573 96.9881 387.44 88.3841C387.26 88.3649 387.084 88.3496 386.904 88.3305C373.052 86.938 359.123 85.8017 345.182 86.0657C331.705 86.3258 318.105 87.9135 305.164 91.808C299.8 93.4187 294.551 95.4233 289.508 97.8488C300.497 100.228 311.872 100.121 322.899 99.49C338.696 98.591 354.716 96.6896 370.448 99.3906C372.217 99.6966 374.047 99.9721 375.64 100.856C377.018 101.617 378.071 102.838 378.703 104.272C379.997 107.199 379.698 110.565 379.583 113.672C379.304 121.832 379.021 129.985 378.733 138.145C378.68 139.721 378.626 141.29 378.569 142.866C379.001 143.31 379.197 143.925 378.948 144.576C378.661 145.318 377.688 145.88 376.899 145.563C376.834 145.563 376.765 145.571 376.7 145.563C376.229 145.509 375.858 145.28 375.605 144.955C368.346 141.439 360.616 138.925 352.648 137.621C348.586 136.959 344.462 136.569 340.346 136.523C337.027 136.488 333.133 136.814 330.713 139.384C329.534 140.651 328.829 142.28 328.267 143.887C327.577 145.842 327.045 147.854 326.471 149.84C325.445 153.39 324.411 156.933 323.381 160.483C332.501 163.207 340.415 169.42 345.37 177.53C347.969 181.785 350.638 187.829 347.135 192.382C345.458 194.566 342.713 195.442 340.029 195.152C337.218 194.842 334.76 193.311 332.524 191.674C327.918 188.296 323.19 184.535 317.45 183.453C317.324 185.4 317.477 187.328 317.588 189.283C317.715 191.529 317.722 193.755 317.179 195.947C316.7 197.86 315.865 199.616 314.912 201.33C313.036 204.716 310.532 207.841 309.601 211.663C309.192 213.366 309.085 215.248 309.755 216.897C310.379 218.419 311.543 219.548 312.864 220.481C314.284 221.495 315.827 222.31 317.305 223.224C318.863 224.185 320.276 225.306 321.559 226.603C326.861 231.955 329.063 239.69 329.691 247.009C330.434 255.578 329.603 264.198 330.552 272.767C332.222 287.894 337.548 302.791 346.951 314.858C347.74 315.864 348.563 316.843 349.398 317.811C355.826 309.678 363.399 302.504 371.585 296.154C380.315 289.378 389.695 283.483 399.24 277.924C403.662 275.353 408.123 272.859 412.599 270.372C402.606 257.338 393.838 243.007 389.029 227.23Z" fill="black"/>
<path d="M392.36 58.953C392.36 58.953 388.313 58.8267 391.039 55.4754C396.863 48.3175 400.358 43.1375 404.884 30.3482C410.535 14.3683 409.448 0.534629 409.448 0.54228C367.653 0.526978 243.915 0.507834 243.299 0.526963C236.342 0.725899 240.542 52.522 239.371 52.4875C239.742 53.6008 240.125 54.7064 240.538 55.8044C241.718 55.8389 241.725 55.8848 240.538 55.8503C242.169 60.2499 244.111 64.527 246.392 68.6129C246.936 69.5922 247.507 70.5601 248.096 71.5127C249.344 73.5595 250.688 75.545 252.128 77.4732C255.474 81.9454 259.334 85.9509 263.641 89.3634C263.859 89.5356 264.074 89.7077 264.292 89.8722C264.916 90.3504 265.552 90.821 266.187 91.2686C271.019 94.7003 276.356 97.4165 282.103 99.2643C282.122 99.3906 282.157 99.5168 282.214 99.6431C282.494 100.278 283.283 100.737 283.983 100.622C285.362 99.689 289.566 98.5145 289.52 98.503C294.566 96.0775 299.815 94.0728 305.175 92.4622C318.117 88.5677 331.716 86.9762 345.193 86.7199C359.134 86.4559 373.059 86.9303 386.915 88.3228C388.585 87.6686 387.394 86.8806 388.96 86.0198C383.783 74.4853 390.139 60.2116 392.36 58.953Z" fill="#B5E6EB"/>
<path d="M375.192 271.038C374.985 269.959 373.905 269.355 372.879 269.772C369.445 271.176 365.999 272.553 362.446 273.647C359.391 274.588 356.228 275.262 353.039 275.487C351.5 275.594 349.964 275.568 348.433 275.407C347.009 275.254 345.603 274.856 344.171 274.802C342.759 274.741 340.557 275.047 339.941 276.566C339.477 277.699 339.55 279.229 339.841 280.396C340.132 281.566 340.664 282.653 341.38 283.594C341.009 284.382 341.162 285.449 342.203 285.878C344.96 287.018 347.939 287.374 350.902 287.163C356.205 286.781 361.064 284.439 365.452 281.578C367.626 280.155 369.702 278.582 371.769 277.006C373.649 275.583 375.694 273.647 375.192 271.038Z" fill="black"/>
<path d="M446.679 193.005C444.699 199.218 441.709 205.022 440.668 211.518C439.714 217.471 439.967 223.557 441.376 229.414C442.172 232.724 443.378 235.922 444.91 238.963C445.871 240.869 442.838 242.211 441.881 240.31C436.096 228.821 435.238 215.175 439.416 203.029C440.713 199.257 442.371 195.618 443.581 191.816C444.232 189.784 447.326 190.978 446.679 193.005Z" fill="black"/>
<path d="M472.167 234.418C469.617 240.023 465.053 244.71 458.984 246.309C452.912 247.912 445.699 246.052 441.9 240.865C440.645 239.147 443.202 237.039 444.462 238.761C447.299 242.636 452.318 244.101 456.951 243.355C462.063 242.533 466.171 238.826 468.529 234.346C473.913 224.104 471.01 210.565 462.48 202.914C457.625 198.56 451.384 196.02 444.864 195.783C443.968 195.752 443.306 194.796 443.397 193.954C443.501 193.009 444.328 192.458 445.228 192.489C451.679 192.722 458.069 195.106 463.119 199.126C468.365 203.3 471.991 209.096 473.641 215.573C475.218 221.763 474.824 228.577 472.167 234.418Z" fill="black"/>
<path d="M461.664 227.077C461.312 227.995 460.393 228.248 459.524 228.03C451.859 226.109 444.592 222.754 438.129 218.213C436.379 216.985 438.317 214.295 440.063 215.523C446.307 219.911 453.306 223.083 460.711 224.938C461.58 225.153 461.955 226.312 461.664 227.077Z" fill="black"/>
<path d="M105.035 100.653C104.901 100.68 104.782 100.863 104.671 101.024C104.79 100.898 104.909 100.779 105.035 100.653Z" fill="black"/>
<path d="M265.329 76.7501C265.303 75.2083 265.249 73.6551 265.195 72.1134C265.05 67.8554 264.698 64.7183 263.465 60.6439C261.65 54.6338 259.824 49.3734 259.759 44.1093C259.552 27.873 264.231 2.03429 264.238 0.542273C263.63 0.515494 189.409 0.530785 189.409 0.530785C189.045 0.683813 182.154 51.6153 181.786 51.7951C179.929 52.7018 178.153 53.7424 176.231 54.519C176.177 54.5381 176.12 54.5649 176.066 54.584C174.109 55.3454 172.096 55.9153 170.059 56.4127C165.79 57.4456 161.501 58.3217 157.278 59.546C148.74 62.0441 140.489 65.4069 132.667 69.6534C131.978 70.0245 131.606 70.6787 131.725 71.4362C126.089 74.3437 121.039 78.311 116.87 83.1581C116.452 83.0663 115.993 83.1505 115.572 83.5177C113.921 84.9103 112.271 86.2914 110.625 87.6839C110.499 87.6839 110.38 87.6916 110.253 87.6954C109.909 87.7145 109.564 87.7605 109.22 87.8331C106.892 88.3228 104.744 89.9411 102.921 91.4446C102.114 92.1141 101.306 92.7836 100.49 93.4454C99.1118 94.3062 97.8062 95.2588 96.558 96.2917C95.8535 96.7011 95.1529 97.1066 94.4484 97.5236C89.8003 100.24 84.9875 103.503 82.8817 108.691C81.2583 112.696 81.7829 117.685 84.8038 120.83C83.9231 122.823 83.5441 124.958 83.636 127.169C83.8427 131.714 86.3659 136.178 90.5545 138.13C94.7585 140.088 99.33 139.078 103.515 137.349C103.469 137.682 103.434 138.011 103.434 138.348C103.427 140.383 104.039 142.506 105.448 144.025C107.217 145.938 109.836 146.615 112.382 146.252C114.45 145.953 116.353 145.046 118.083 143.899C120.974 142.984 123.47 141.247 125.741 139.224C128.061 137.158 130.209 134.904 132.583 132.892C134.995 130.845 137.552 128.971 140.225 127.284C145.447 123.967 151.221 121.369 157.167 119.64C158.029 119.395 158.706 118.741 158.561 117.758C158.526 117.54 158.45 117.341 158.343 117.169C159.384 116.687 160.425 116.216 161.478 115.765C171.383 111.491 182.207 108.373 193.012 110.057C191.163 112.857 189.313 115.654 187.464 118.454C183.168 123.244 179.768 128.799 177.54 134.862C175.319 140.896 173.271 148.964 178.754 153.899C181.02 155.946 184.236 156.508 187.047 155.292C189.884 154.052 191.886 151.431 193.23 148.734C194.601 145.98 195.413 142.904 197.3 140.429C199.241 137.885 202.32 136.641 205.05 135.157C209.663 132.659 213.971 129.648 217.891 126.17C222.612 124.051 227.264 121.798 231.843 119.387C236.43 116.977 241.071 114.479 245.148 111.254C248.33 110.187 251.228 108.339 253.495 105.883C254.582 105.267 255.608 104.551 256.55 103.737C260.681 100.14 263.078 95.144 264.28 89.8875C264.686 88.1468 264.958 86.3641 265.115 84.6004C265.215 83.4871 265.276 82.37 265.307 81.2415C265.364 79.7418 265.364 78.2459 265.329 76.7501Z" fill="white"/>
<path d="M85.6767 118.641C88.8201 120.772 92.9437 119.961 96.1713 118.515C99.5062 117.031 102.642 114.965 105.705 112.972C105.207 112.276 104.771 111.533 104.411 110.764C102.5 106.686 102.918 102 104.457 97.868C105.835 94.18 107.922 90.8325 110.257 87.6878C110.456 87.4162 110.656 87.156 110.855 86.892C110.303 87.1981 109.76 87.5156 109.224 87.8255C105.119 90.2357 101.221 92.9328 97.7028 95.8671C92.1626 100.485 84.2409 103.465 83.0387 111.04C82.6022 113.84 83.2187 116.962 85.6767 118.641ZM265.766 0.542321C265.766 0.542321 262.339 26.2625 262.676 44.4307C262.883 55.529 266.873 64.9517 267.095 66.6006C267.703 71.1264 268.653 75.5833 268.419 80.178C268.236 83.9807 267.458 87.6954 266.18 91.2725C266.088 91.5097 266 91.7507 265.915 91.9802C263.067 99.5168 257.837 106.139 251.067 110.428C247.135 112.911 242.828 114.667 238.666 116.706C234.378 118.798 230.201 121.151 226.177 123.745C225.181 124.38 224.193 125.038 223.213 125.704C223.095 125.784 222.968 125.849 222.853 125.887C219.855 128.278 216.41 129.862 212.945 131.45C209.38 133.087 205.903 134.912 202.955 137.571C201.37 138.987 199.931 140.567 198.652 142.273C197.427 143.929 196.423 145.735 195.405 147.518C193.345 151.129 191.01 154.802 187.177 156.657C183.432 158.471 179.083 158.153 176.234 154.882C173.581 151.822 172.635 147.525 172.716 143.531C172.9 134.618 177.908 126.614 183.111 119.774C185.178 117.05 187.342 114.403 189.601 111.832C183.681 111.415 177.701 111.996 171.981 113.561C167.983 114.647 164.151 116.243 160.433 118.071C156.746 119.873 153.09 121.756 149.475 123.703C145.803 125.685 142.197 127.816 138.85 130.321C136.006 132.452 133.375 134.851 130.718 137.211C127.935 139.668 125.109 142.12 122.027 144.201C119.182 146.114 115.989 147.942 112.589 148.574C108.745 149.297 104.403 148.474 102.673 144.553C101.765 142.518 101.93 140.287 102.585 138.183C100.896 139.071 99.1118 139.778 97.2472 140.142C94.0004 140.785 90.5201 140.567 87.5413 139.036C84.1529 137.296 82.1389 133.994 81.7484 130.26C81.4038 126.92 82.2806 124.001 83.7087 121.086C81.1167 119.173 79.7728 116.067 79.7498 112.826C79.6847 102.719 90.5354 97.4663 97.7411 91.743C103.354 87.2784 109.786 83.7167 115.97 80.8934C116.131 80.7327 116.28 80.5835 116.433 80.4228C117.229 79.6079 118.037 78.8198 118.872 78.0432C120.541 76.5015 122.287 75.0286 124.091 73.6398C134.696 65.4452 147.369 59.963 160.422 57.0096C162.305 56.5773 164.208 56.2023 166.115 55.8695C166.448 55.816 166.785 55.8351 167.084 55.9231C168.673 55.4678 170.258 54.9896 171.835 54.4846C174.925 53.5052 177.98 52.4302 181.009 51.271C181.633 51.2787 187.449 0.538492 187.449 0.538492L195.359 0.542321L189.072 51.3628C186.495 52.5029 183.88 53.5626 181.25 54.5573C176.782 56.2521 172.249 57.7517 167.654 59.0601C167.248 59.1787 166.885 59.1328 166.582 58.9875C151.88 61.5698 137.556 67.1668 125.714 76.3676C125.469 76.5512 125.232 76.7463 124.998 76.9376C124.86 77.0447 124.734 77.1442 124.607 77.2475C124.535 77.301 124.473 77.3546 124.424 77.4082C122.23 79.1909 120.155 81.0923 118.198 83.1161C115.38 86.0504 112.83 89.241 110.64 92.6535C108.339 96.2497 106.298 100.37 106.283 104.727C106.283 107.092 106.988 109.391 108.351 111.25C108.975 112.1 109.737 112.853 110.625 113.477C111.877 114.338 113.301 114.892 114.756 114.888C116.468 114.877 117.965 114.108 119.305 113.079C120.928 111.847 122.26 110.206 123.608 108.679C125.147 106.931 126.644 105.164 128.111 103.362C128.528 102.857 128.934 102.348 129.344 101.831C130.443 100.446 131.53 99.0348 132.59 97.6193C132.969 97.1105 133.352 96.5864 133.743 96.0775C134.624 94.8992 135.519 93.7247 136.515 92.6459C139.586 89.2869 143.56 87.3856 147.729 85.7443C156.103 82.4657 165.051 80.5835 174.041 80.2009C183.704 79.7954 193.303 81.1726 202.921 81.8421C211.788 82.4504 220.912 82.4849 229.489 79.8222C235.967 77.8137 242.234 74.0645 246.385 68.6167C246.664 68.2533 246.929 67.8898 247.185 67.5111C248.207 66.0191 249.061 64.4123 249.75 62.7366C250.076 61.9485 251.19 61.7113 251.891 62.0824C252.706 62.5262 252.867 63.4329 252.541 64.221C251.446 66.8913 249.923 69.3359 248.089 71.5204C244.934 75.2887 240.848 78.3148 236.442 80.4572C228.294 84.413 219.147 85.4727 210.184 85.3312C200.375 85.1705 190.661 83.6364 180.863 83.3456C171.471 83.0625 162.164 84.2409 153.22 87.1407C149.077 88.4835 144.643 89.9947 141.129 92.6459C140.803 92.906 140.474 93.17 140.179 93.4455C149.062 90.3007 147.569 89.5777 156.865 88.3037C157.715 88.1851 158.469 89.0536 158.496 89.8417C158.523 90.7675 157.807 91.3528 156.953 91.4638C147.913 92.7033 149.701 93.411 141.063 96.4792C139.268 97.122 137.503 97.8297 135.768 98.6178C134.627 100.133 133.494 101.652 132.326 103.144C129.443 106.812 126.472 110.527 123.179 113.833C120.296 116.721 116.571 118.848 112.386 117.739C110.728 117.295 109.189 116.453 107.883 115.328C104.258 117.654 100.571 120.122 96.5734 121.767C93.4453 123.06 89.785 123.588 86.5229 122.528C84.3635 127.119 83.4943 133.191 88.7244 136.094C94.6322 139.365 101.195 135.769 105.984 132.219C108.822 130.119 111.567 127.9 114.396 125.796C117.272 123.665 120.189 121.591 123.172 119.598C129.03 115.684 135.117 112.092 141.481 109.054C148.66 105.63 152.929 103.121 160.713 101.43C161.547 101.25 162.424 101.613 162.688 102.482C162.922 103.243 162.478 104.268 161.635 104.456C147.178 107.589 137.097 114.1 124.864 122.272C121.816 124.307 118.818 126.438 115.874 128.623C113.075 130.708 110.372 132.915 107.562 134.973C107.527 135.073 107.481 135.172 107.416 135.279C106.057 137.498 104.327 140.838 105.594 143.447C106.861 146.045 110.273 145.949 112.666 145.33C115.909 144.496 118.876 142.606 121.567 140.658C124.37 138.646 126.958 136.331 129.535 134.04C132.227 131.649 134.93 129.258 137.847 127.138C141.067 124.801 144.517 122.792 148.024 120.906C151.558 119.013 155.123 117.172 158.722 115.409C162.359 113.641 166.065 112.004 169.951 110.86C177.157 108.729 184.761 108.086 192.219 108.924C192.545 108.572 192.874 108.216 193.2 107.872C194.903 106.063 196.814 104.395 198.345 102.44C199.506 100.955 200.455 98.7288 199.406 96.9422C198.407 95.2321 200.983 93.5641 201.983 95.278C203.032 97.0646 203.131 99.2337 202.461 101.192C201.757 103.239 200.379 104.896 198.901 106.411C197.905 107.417 196.917 108.438 195.945 109.464C195.068 110.386 194.207 111.311 193.36 112.245C192.101 113.615 190.868 115.015 189.67 116.446C184.305 122.842 178.685 129.943 176.529 138.218C175.549 141.974 175.377 146.06 176.713 149.748C177.846 152.862 180.446 155.38 183.919 154.592C187.724 153.731 190.144 150.444 192.04 147.239C194.153 143.65 196.148 140.092 199.054 137.078C202.243 133.787 205.995 131.347 210.096 129.407C213.959 127.586 218.129 126.002 221.406 123.148C221.617 122.965 221.858 122.823 222.111 122.75C225.863 120.214 229.741 117.876 233.742 115.761C237.839 113.603 242.12 111.832 246.224 109.666C249.815 107.757 253.112 105.439 255.907 102.432C258.511 99.624 260.632 96.4027 262.232 92.9061C262.757 91.7545 263.22 90.5685 263.626 89.3635C264.422 86.98 264.966 84.501 265.23 82.0105C265.257 81.7503 265.284 81.494 265.303 81.2339C265.421 79.7227 265.414 78.2269 265.322 76.7425C265.176 74.1448 264.786 71.5701 264.38 68.9801C263.603 64.0641 259.766 53.3254 258.779 45.5554C257.791 37.7854 262.669 0.534662 262.669 0.534662H265.766V0.542321Z" fill="black"/>
<path d="M334.419 235.78C334.419 256.003 343.876 271.841 355.945 271.841C368.017 271.841 377.47 255.999 377.47 235.78C377.47 215.558 368.017 199.716 355.945 199.716C343.876 199.716 334.419 215.558 334.419 235.78ZM338.826 235.78C338.826 218.618 346.668 204.119 355.949 204.119C365.229 204.119 373.071 218.618 373.071 235.78C373.071 252.942 365.229 267.442 355.949 267.442C346.664 267.442 338.826 252.942 338.826 235.78Z" fill="#B5E6EB"/>
<path d="M337.398 234.009C334.978 236.396 331.724 237.973 328.347 238.386C325.311 238.761 321.773 238.106 320.295 235.111C319.353 233.198 322.382 231.851 323.324 233.764C323.469 234.063 323.668 234.288 324.04 234.545C324.292 234.721 324.802 234.923 325.104 235.004C326.291 235.318 327.367 235.214 328.554 235.008C331.13 234.556 333.439 233.278 335.292 231.45C335.928 230.822 337.096 231.033 337.624 231.679C338.237 232.425 338.038 233.378 337.398 234.009Z" fill="#B5E6EB"/>
<path d="M235.979 270.281C231.962 277.255 225.679 282.687 218.439 286.13C216.203 287.194 213.852 288.078 211.432 288.782C209.082 290.629 206.248 291.804 203.269 292.137C202.879 292.179 202.534 292.037 202.27 291.808C202.197 291.819 202.125 291.831 202.048 291.831C200.693 291.835 199.334 291.834 197.974 291.827C193.556 292.229 189.084 291.961 184.723 290.981C184.141 290.851 183.662 290.453 183.567 289.88C182.759 289.707 181.959 289.508 181.178 289.252C179.045 288.548 177.127 287.385 175.3 286.104C168.853 281.582 163.267 275.793 158.963 269.206C156.482 265.407 154.399 261.37 152.787 257.128C152.665 256.803 152.673 256.5 152.761 256.236C151.692 253.975 150.785 251.642 150.149 249.209C148.962 244.706 148.97 240.015 149.885 235.459C152.761 221.048 163.646 207.436 178.455 204.238C179.344 204.046 180.24 203.901 181.139 203.794C180.902 203.078 181.193 202.206 182.154 202.118C187.005 201.682 191.791 201.655 196.6 202.528C201.076 203.335 205.437 204.739 209.541 206.686C210.146 206.969 210.739 207.275 211.329 207.581C210.406 206.449 211.681 204.731 213.06 205.622C217.244 208.323 220.698 211.843 223.784 215.692C227.865 219.938 231.541 224.541 234.225 229.805C234.834 231.002 235.37 232.234 235.848 233.489C238.329 237.888 240.29 242.529 240.895 247.652C241.814 255.483 239.895 263.471 235.979 270.281Z" fill="white"/>
<path d="M211.294 201.766L209.996 190.79C209.606 187.477 209.587 183.827 207.875 180.87C207.113 179.558 206.152 178.391 205.13 177.282C204.15 176.214 203.101 174.852 201.677 174.386C200.505 174.003 199.203 174.187 198.143 174.818C197.626 175.124 197.155 175.522 196.81 176.023C196.42 176.585 196.374 177.201 196.087 177.798C195.822 178.376 194.961 178.058 194.402 178.089C193.774 178.123 193.161 178.326 192.618 178.644C191.347 179.405 190.543 180.683 190.098 182.068C189.926 182.592 189.792 183.127 189.673 183.663C189.428 183.736 189.21 183.9 189.065 184.179C186.289 189.616 184.015 195.301 182.284 201.162C182.058 201.912 182.644 202.466 183.233 202.493C183.498 203.025 184.34 203.12 184.822 202.7C185.002 202.799 185.194 202.834 185.393 202.807C185.619 202.979 185.757 203.078 185.902 203.178C186.254 203.415 186.633 203.629 187.009 203.821C187.736 204.199 188.506 204.482 189.302 204.7C190.918 205.144 192.583 205.355 194.253 205.508C198.323 205.867 202.393 206.185 206.455 206.521C207.799 206.629 209.637 207.065 210.762 206.066C211.984 204.999 211.459 203.147 211.294 201.766Z" fill="white"/>
<path d="M235.048 274.236C232.223 277.722 228.872 281.639 225.25 284.244C214.779 291.766 198.947 297.099 185.872 293.296C177.288 290.798 169.737 285.006 163.615 278.624C152.351 266.879 144.567 250.398 147.163 234.078C149.433 219.793 160.173 206.162 174.703 202.895C176.311 202.531 177.95 202.309 179.6 202.202L185.408 188.078L188.372 180.87C189.237 178.766 190.102 176.436 192.698 176.13C193.273 176.061 193.847 176.119 194.417 176.222C195.447 174.332 197.335 172.974 199.514 172.595C202.324 172.106 205.165 173.563 206.624 176.008C207.294 177.129 207.63 178.349 207.653 179.612C208.63 179.891 209.61 180.247 210.376 180.939C211.279 181.754 211.7 182.856 211.915 184.011C212.378 186.49 212.646 189.011 212.998 191.509C213.688 196.387 214.381 201.261 215.07 206.139C215.445 206.17 215.824 206.315 216.153 206.56C230.588 217.287 243.376 232.617 243.628 251.24C243.747 259.867 240.317 267.736 235.048 274.236ZM204.089 178.299C204.07 178.25 203.974 178.054 203.943 177.986C203.821 177.764 203.694 177.542 203.545 177.331C203.499 177.266 203.453 177.205 203.404 177.144C203.319 177.056 203.235 176.964 203.151 176.88C203.028 176.761 202.902 176.647 202.768 176.536C202.722 176.497 202.672 176.459 202.626 176.425C202.347 176.26 202.086 176.123 201.815 175.992C201.589 175.931 201.424 175.882 201.256 175.847C201.217 175.839 200.968 175.813 200.911 175.801C200.815 175.801 200.704 175.797 200.685 175.797C200.517 175.801 200.348 175.82 200.18 175.832C199.793 175.916 199.494 176.012 199.196 176.123C198.916 176.272 198.767 176.352 198.621 176.444C198.514 176.513 198.415 176.589 198.307 176.662C198.055 176.888 197.967 176.979 197.882 177.071C198.434 177.213 198.985 177.358 199.536 177.5C201.099 177.905 202.661 178.303 204.223 178.705C204.177 178.54 204.135 178.422 204.089 178.299ZM207.228 182.913C205.096 182.171 202.791 181.754 200.605 181.188C198.962 180.763 197.32 180.289 195.669 179.879C195.47 179.91 195.264 179.906 195.057 179.849C194.877 179.799 194.708 179.715 194.551 179.619C194.41 179.589 194.264 179.55 194.123 179.52C193.437 179.371 192.867 179.29 192.453 179.921C192.319 180.124 192.201 180.346 192.09 180.572C197.76 181.834 203.346 183.468 208.802 185.488C208.768 185.247 208.737 185.002 208.695 184.765C208.523 183.759 208.239 183.265 207.228 182.913ZM209.25 188.671C208.928 188.828 208.569 188.885 208.224 188.759C202.55 186.651 196.738 184.964 190.838 183.674L189.463 187.014C196.071 188.897 202.802 190.285 209.606 191.161L209.25 188.671ZM210.165 195.14L210.054 194.367C209.786 194.444 209.491 194.471 209.193 194.432C202.098 193.533 195.08 192.076 188.196 190.086C187.686 191.326 187.177 192.565 186.668 193.801C194.475 195.702 202.439 196.823 210.445 197.122C210.349 196.46 210.257 195.802 210.165 195.14ZM210.916 200.45C202.324 200.156 193.767 198.973 185.397 196.892C184.811 198.315 184.229 199.735 183.643 201.158C188.479 202 193.345 202.654 198.227 203.055C202.573 203.415 207.129 203.231 211.436 204.15C211.264 202.914 211.088 201.682 210.916 200.45ZM236.338 266.837C238.234 263.494 239.562 259.924 240.033 256.259C242.242 239.124 231.74 223.749 219.04 213.025C217.842 212.011 216.613 211.043 215.368 210.087C214.752 211.277 212.42 211.07 212.171 209.326L211.942 207.688C209.744 207.111 207.504 206.908 205.241 206.793C202.707 206.667 200.176 206.521 197.645 206.3C192.522 205.852 187.422 205.186 182.357 204.283C182.169 204.708 181.76 204.972 181.308 205.072C181.063 205.297 180.733 205.45 180.301 205.473C166.41 206.158 155.242 217.394 151.486 230.164C147.167 244.836 152.914 260.533 162.336 272.216C167.379 278.468 173.757 284.153 180.952 287.802C193.307 294.073 208.986 291.234 220.074 284.256C226.254 280.365 232.475 273.651 236.338 266.837Z" fill="white"/>
<path d="M256.282 246.634C252.656 245.926 249.042 245.218 245.42 244.511C233.248 242.127 221.081 239.748 208.913 237.376C211.038 235.184 212.814 231.798 214.851 229.506C223.814 219.437 232.245 209.521 239.39 197.642C239.949 196.716 238.716 195.764 238.099 196.559C235.982 199.302 232.417 202.156 229.626 203.932C219.384 210.45 210.26 216.342 201.194 224.797C201.32 218.282 201.114 211.721 200.581 205.167C200.501 204.199 199.352 204.218 199.096 204.919C196.435 212.073 193.766 219.223 191.109 226.377C190.477 225.849 189.857 225.321 189.229 224.801C180.209 217.314 171.085 209.999 161.873 202.849C161.463 202.531 160.835 202.979 161.118 203.545C162.504 206.323 163.94 209.069 165.422 211.79C168.986 218.339 172.815 224.713 176.881 230.891C174.971 230.704 173.064 230.551 171.154 230.432C156.011 229.468 140.933 230.386 126.147 232.724C125.262 232.865 125.408 234.273 126.25 234.48C130.661 235.581 135.064 236.672 139.467 237.77C151.956 240.88 164.446 243.99 176.939 247.101C171.483 249.989 166.157 253.118 160.973 256.466C160.379 256.849 161.004 257.686 161.589 257.468L176.61 251.829C175.308 255.005 173.972 258.165 172.589 261.305C169.81 267.606 166.862 273.835 163.749 279.975C160.632 286.13 157.343 292.198 153.901 298.174C153.587 298.717 154.238 299.478 154.763 298.981C158.591 295.32 161.861 291.127 164.878 286.781C170.273 279.015 174.971 270.698 181.369 263.677C182.295 262.66 183.275 261.692 184.279 260.747C184.585 262.403 184.891 264.064 185.209 265.72C187.924 279.856 191.002 293.931 194.432 307.918C194.658 308.836 195.998 309.012 195.956 307.937C195.826 304.165 195.795 300.404 195.857 296.647C196.09 284.003 197.469 271.512 199.965 259.408C205.93 266.987 211.891 274.558 217.857 282.14C218.469 282.928 219.457 282.236 219.124 281.283C216.226 273.15 213.063 265.116 209.663 257.189C214.399 258.402 219.147 259.484 223.91 260.437C224.833 260.624 224.971 259.178 224.209 258.742C220.575 256.688 217.11 254.259 213.821 251.508L221.739 250.926C233.287 250.077 244.83 249.228 256.378 248.378C257.278 248.325 257.117 246.802 256.282 246.634Z" fill="#8256E1"/>
<path d="M261.118 228.695C263.989 230.688 266.838 232.708 269.671 234.755C280.101 242.303 290.641 250.02 299.455 259.465C301.584 261.745 303.598 264.133 305.451 266.642C307.297 269.144 309.127 271.773 310.222 274.703C311.236 277.415 311.627 280.545 310.31 283.23C309.18 285.537 307.071 287.106 304.681 287.951C302.158 288.847 299.459 289.046 296.806 289.046C293.559 289.042 290.308 288.824 287.096 288.368C280.717 287.466 274.442 285.664 268.553 283.051C265.647 281.761 262.856 280.254 260.149 278.59C258.698 277.695 260.364 275.633 261.799 276.516C272.394 283.032 284.944 286.586 297.395 286.406C301.898 286.341 308.395 285.266 308.518 279.531C308.579 276.578 307.044 273.701 305.47 271.298C303.801 268.746 301.936 266.317 299.961 263.995C292.108 254.783 282.348 247.388 272.662 240.222C262.362 232.601 251.791 225.352 240.979 218.481C219.446 204.804 196.933 192.665 173.681 182.167C149.969 171.463 124.918 161.474 98.6103 160.319C95.3521 160.177 92.0823 160.189 88.824 160.353C85.9257 160.498 82.9392 160.644 80.1021 161.294C77.9695 161.784 75.6876 162.648 74.3399 164.462C72.5825 166.826 73.2563 169.818 74.493 172.247C75.8522 174.917 77.9389 177.175 79.9566 179.359C81.9323 181.494 84.0036 183.537 86.163 185.492C90.6465 189.551 95.4899 193.208 100.62 196.41C103.09 197.952 105.636 199.367 108.232 200.687C109.748 201.46 108.688 203.886 107.164 203.113C95.9111 197.393 85.761 189.673 77.2765 180.335C73.5933 176.283 68.7728 170.395 71.2654 164.546C73.3712 159.615 79.2943 158.505 84.0534 158.05C111.865 155.376 139.191 164.454 164.427 175.208C189.195 185.767 213.155 198.201 236.082 212.31C244.566 217.539 252.921 223.003 261.118 228.695Z" fill="#B7C2CC"/>
<path d="M294.26 100.978C294.168 101.808 293.314 102.619 292.43 102.443C282.149 100.389 271.762 99.2873 264.606 90.9549C263.216 89.3328 265.781 87.2363 267.167 88.8508C273.707 96.4677 283.413 97.2749 292.793 99.1495C293.674 99.3255 294.367 100.033 294.26 100.978Z" fill="black"/>
<path d="M392.674 58.9645C392.567 58.9568 392.467 58.9568 392.364 58.953C391.257 58.8994 395.388 50.1845 393.133 52.8549C384.963 62.5224 384.79 68.3183 384.408 71.3406C383.99 74.5924 384.519 77.8366 385.284 80.9966C386.073 84.2485 387.007 87.4659 388.049 90.6489C388.328 91.502 389.481 91.8195 390.235 91.4905C391.112 91.1003 391.349 90.1515 391.07 89.306C390.143 86.4559 389.312 83.5752 388.604 80.6638C387.907 77.829 387.337 74.9291 387.67 71.9986C387.976 69.2441 388.956 66.635 390.097 64.1292C390.35 63.5668 390.614 63.0082 390.886 62.4612C391.219 61.7649 391.567 61.0686 391.912 60.38C392.119 59.9668 392.433 59.3623 392.674 58.9645Z" fill="black"/>
<path d="M452.889 301.1C452.858 301.265 452.816 301.433 452.77 301.594C452.755 301.647 452.732 301.697 452.705 301.747C452.617 301.911 452.54 302.095 452.422 302.244C452.272 302.435 452.085 302.65 451.874 302.787C451.709 302.895 451.541 303.009 451.361 303.097C451.242 303.155 451.112 303.185 450.986 303.224C450.867 303.258 450.741 303.304 450.614 303.319C450.419 303.346 450.224 303.342 450.029 303.335C449.975 303.331 449.921 303.323 449.868 303.312C449.707 303.277 449.481 303.239 449.313 303.159C449.152 303.082 448.96 302.994 448.815 302.879C448.689 302.78 448.566 302.657 448.451 302.543C448.126 302.133 447.98 301.8 447.9 301.383C447.865 301.2 447.877 300.978 447.877 300.81C447.877 300.756 447.885 300.702 447.892 300.653C447.823 300.125 447.904 299.692 448.16 299.34C448.271 299.187 448.413 299.046 448.551 298.916C448.692 298.782 448.914 298.667 449.056 298.583C449.271 298.457 449.535 298.396 449.772 298.342C450.013 298.292 450.278 298.296 450.523 298.315C450.768 298.334 451.016 298.399 451.25 298.487C451.365 298.529 451.472 298.594 451.579 298.652C451.687 298.709 451.801 298.763 451.901 298.839C452.05 298.954 452.188 299.092 452.318 299.23C452.452 299.371 452.563 299.585 452.648 299.735C452.674 299.777 452.697 299.823 452.716 299.868C452.785 300.056 452.85 300.247 452.881 300.446C452.896 300.702 452.908 300.867 452.896 301.028C452.896 301.047 452.893 301.074 452.889 301.1Z" fill="#B7C2CC"/>
<path d="M441.119 296.965C441.085 297.102 441.05 297.24 441.02 297.378C440.916 297.65 440.748 297.879 440.526 298.063C440.399 298.139 440.273 298.22 440.147 298.296C439.871 298.415 439.588 298.461 439.289 298.43H438.952C438.734 298.415 438.535 298.346 438.355 298.231C438.156 298.143 437.991 298.013 437.853 297.837C437.7 297.665 437.601 297.466 437.558 297.244C437.478 297.037 437.455 296.823 437.486 296.601C437.52 296.464 437.551 296.326 437.585 296.188C437.692 295.916 437.857 295.687 438.079 295.503C438.205 295.427 438.332 295.346 438.458 295.27C438.73 295.151 439.017 295.105 439.316 295.136H439.649C439.867 295.151 440.066 295.22 440.246 295.335C440.445 295.423 440.61 295.553 440.748 295.729C440.901 295.901 441.001 296.1 441.043 296.322C441.127 296.529 441.15 296.743 441.119 296.965Z" fill="white"/>
<path d="M478.955 348.382C478.423 348.615 477.822 348.719 477.24 348.661C476.704 348.608 476.114 348.394 475.701 348.045C475.341 347.743 475.027 347.376 474.828 346.951C474.644 346.718 474.525 346.458 474.479 346.163C474.315 345.601 474.41 344.958 474.594 344.415C474.782 343.852 475.157 343.351 475.597 342.957C476.478 342.169 477.887 341.924 478.951 342.479C479.479 342.754 479.973 343.103 480.299 343.611C480.467 343.875 480.624 344.116 480.716 344.411C480.865 344.893 480.923 345.211 480.908 345.719C480.862 346.882 479.989 347.927 478.955 348.382Z" fill="white"/>
<path d="M464.59 147.564C464.567 147.774 464.509 147.988 464.452 148.187C464.375 148.463 464.23 148.731 464.057 148.956C463.774 149.327 463.472 149.561 463.062 149.779C462.993 149.813 462.92 149.84 462.847 149.863C462.648 149.924 462.415 150.012 462.193 150.027C461.722 150.062 461.362 150.027 460.91 149.886C460.47 149.748 460.106 149.461 459.788 149.132C459.57 148.903 459.39 148.604 459.294 148.302C459.225 148.088 459.141 147.862 459.126 147.633C459.118 147.522 459.111 147.407 459.107 147.288C459.007 147.024 458.935 146.806 458.908 146.592C458.854 146.156 458.9 145.796 459.03 145.379C459.088 145.196 459.203 145.012 459.298 144.855C459.555 144.43 460.033 144.178 460.512 144.101C460.822 144.052 461.151 144.048 461.465 144.067C462.093 144.101 462.702 144.331 463.23 144.668C463.307 144.714 463.376 144.767 463.441 144.828C463.606 144.974 463.782 145.123 463.92 145.295C464.099 145.521 464.268 145.785 464.368 146.056C464.467 146.332 464.567 146.634 464.582 146.932C464.597 147.139 464.609 147.353 464.59 147.564Z" fill="white"/>
<path d="M255.934 178.881C255.93 179.045 255.854 179.275 255.823 179.39C255.719 179.631 255.639 179.78 255.559 179.91C255.425 180.082 255.31 180.193 255.203 180.304C255.034 180.457 254.789 180.587 254.693 180.641C254.506 180.752 254.249 180.801 254.058 180.851C253.755 180.893 253.572 180.889 253.392 180.886C253.173 180.886 252.928 180.809 252.733 180.752C252.519 180.694 252.316 180.568 252.132 180.457C252.109 180.442 251.952 180.296 251.952 180.296C251.891 180.25 251.837 180.197 251.787 180.14C251.68 179.986 251.527 179.78 251.473 179.612C251.42 179.455 251.347 179.267 251.332 179.091C251.316 178.938 251.32 178.77 251.32 178.617C251.397 177.959 251.699 177.4 252.163 177.018C252.484 176.754 252.779 176.647 253.173 176.551C253.346 176.509 253.564 176.524 253.717 176.528C253.863 176.547 253.974 176.582 254.016 176.589C254.092 176.608 254.18 176.624 254.261 176.651C254.333 176.677 254.399 176.712 254.464 176.75C254.682 176.811 254.881 176.934 255.03 177.025C255.222 177.175 255.337 177.286 255.444 177.393C255.727 177.722 255.827 178.009 255.911 178.372C255.934 178.548 255.934 178.774 255.934 178.881Z" fill="#B7C2CC"/>
<path d="M318.568 135.693C318.511 136.144 318.362 136.458 318.147 136.844C318.006 137.097 317.791 137.311 317.584 137.502C317.37 137.705 317.102 137.862 316.842 137.988C316.198 138.302 315.456 138.325 314.782 138.099C314.587 138.034 314.403 137.919 314.23 137.816C313.909 137.617 313.729 137.318 313.549 137.001C313.511 136.936 313.484 136.867 313.457 136.794C313.43 136.718 313.407 136.641 313.38 136.561C313.308 136.446 313.239 136.331 313.166 136.213C313.044 135.941 313.001 135.654 313.032 135.356C313.032 135.287 313.04 135.222 313.051 135.157C313.089 134.97 313.128 134.755 313.208 134.575C313.396 134.166 313.58 133.917 313.905 133.604C314.146 133.374 314.449 133.21 314.763 133.087C315.065 132.915 315.391 132.785 315.735 132.728C316.141 132.659 316.616 132.781 316.949 133.022C317.385 133.233 317.646 133.432 317.941 133.73C317.99 133.78 318.032 133.833 318.071 133.891C318.189 134.067 318.32 134.254 318.392 134.457C318.545 134.866 318.626 135.249 318.568 135.693Z" fill="white"/>
<path d="M417.017 319.816C417.017 319.804 417.025 319.972 417.021 320.041C416.994 320.374 416.864 320.642 416.692 320.917C416.615 321.04 416.355 321.281 416.367 321.273C416.305 321.311 416.24 321.35 416.179 321.388C416.118 321.442 416.049 321.48 415.976 321.51C415.861 321.552 415.765 321.575 415.681 321.602C415.536 321.644 415.394 321.694 415.241 321.702C415.084 321.709 414.923 321.713 414.77 321.713C414.418 321.667 414.249 321.621 414.081 321.575C413.805 321.464 413.648 321.373 413.503 321.288C413.338 321.155 413.231 321.055 413.127 320.956C412.974 320.784 412.875 320.585 412.833 320.363C412.802 320.29 412.779 320.217 412.767 320.137C412.748 319.972 412.744 319.804 412.756 319.636C412.775 319.521 412.806 319.418 412.817 319.372C412.833 319.307 412.852 319.219 412.875 319.146C412.967 318.955 413.043 318.806 413.112 318.691C413.265 318.507 413.38 318.381 413.476 318.285C413.679 318.128 413.832 318.029 413.993 317.952C414.188 317.884 414.368 317.83 414.502 317.796C414.732 317.777 414.919 317.769 415.046 317.773C415.241 317.803 415.425 317.849 415.543 317.884C415.811 317.979 415.964 318.083 416.098 318.216C416.294 318.354 416.355 318.419 416.409 318.465C416.458 318.511 416.531 318.572 416.585 318.63C416.673 318.748 416.807 318.974 416.857 319.054C416.906 319.177 416.998 319.487 417.014 319.548C417.021 319.659 417.021 319.923 417.017 319.816Z" fill="white"/>
<path d="M220.204 142.277C220.181 142.46 220.127 142.644 220.078 142.82C220.062 142.873 220.039 142.927 220.016 142.981C219.909 143.195 219.802 143.428 219.637 143.608C219.515 143.746 219.392 143.891 219.251 144.01C219.101 144.136 218.895 144.247 218.741 144.339C218.531 144.465 218.278 144.522 218.045 144.583C217.991 144.595 217.941 144.606 217.888 144.61C217.727 144.622 217.562 144.622 217.401 144.622C217.126 144.599 216.942 144.545 216.766 144.492C216.72 144.476 216.674 144.461 216.628 144.438C216.467 144.358 216.303 144.277 216.153 144.178C216.057 144.113 215.973 144.025 215.889 143.945C215.763 143.83 215.652 143.727 215.56 143.585C215.426 143.375 215.28 143.172 215.207 142.935C215.15 142.751 215.081 142.564 215.054 142.372C215.028 142.185 215.035 141.993 215.035 141.806C215.035 141.752 215.035 141.703 215.043 141.649C215.07 141.462 215.119 141.274 215.173 141.094C215.188 141.045 215.207 140.999 215.23 140.953C215.315 140.785 215.395 140.605 215.514 140.456C215.598 140.329 215.705 140.23 215.824 140.142C215.878 140.084 215.923 140.023 215.985 139.97C216.134 139.859 216.299 139.759 216.463 139.671C216.505 139.648 216.551 139.629 216.597 139.614C216.816 139.541 217.049 139.457 217.286 139.446C217.516 139.438 217.754 139.415 217.983 139.469C218.205 139.518 218.443 139.56 218.65 139.664C218.849 139.763 219.063 139.863 219.235 140.012C219.404 140.157 219.595 140.314 219.722 140.505C219.81 140.643 219.936 140.819 220.009 140.987C220.089 141.209 220.139 141.374 220.177 141.534C220.189 141.584 220.196 141.638 220.2 141.687C220.212 141.848 220.212 142.016 220.212 142.173C220.208 142.215 220.208 142.246 220.204 142.277Z" fill="#B7C2CC"/>
<path d="M63.6576 82.2056C63.6193 82.3968 63.5772 82.5919 63.516 82.7756C63.4509 82.9669 63.3322 83.162 63.2365 83.3226C63.1063 83.5522 62.911 83.7549 62.7081 83.9194C62.3559 84.2025 62.0151 84.3326 61.5863 84.4398C61.4446 84.4742 61.3068 84.4703 61.1651 84.4703C61.0081 84.4742 60.8703 84.4818 60.721 84.4474C60.5257 84.4053 60.319 84.3671 60.1314 84.2867C60.0395 84.2446 59.9476 84.1911 59.8595 84.1452C59.7638 84.0916 59.6643 84.0457 59.5724 83.9845C59.5111 83.9424 59.4575 83.9003 59.4039 83.8506C59.2507 83.709 59.067 83.5599 58.9406 83.3877C58.6496 82.9898 58.5233 82.6876 58.4046 82.217C58.3893 82.1482 58.3778 82.0831 58.374 82.0104C58.3625 81.8115 58.3433 81.5781 58.3816 81.3716C58.4467 81.0272 58.485 80.8933 58.6343 80.6179C58.6764 80.5375 58.7147 80.4496 58.7721 80.3769C58.8181 80.3157 58.9253 80.2124 58.9406 80.1971C58.9866 80.1473 59.0517 80.067 59.1167 80.0134C59.2546 79.914 59.4383 79.7992 59.5532 79.7418C59.9667 79.5964 60.1467 79.562 60.4338 79.5582C60.675 79.409 60.8741 79.3248 61.1996 79.2559C61.6705 79.21 61.6628 79.2139 61.9538 79.2827C62.2027 79.3439 62.3023 79.3937 62.5511 79.5429C62.7234 79.6462 62.8766 79.8145 63.0106 79.9446C63.202 80.1282 63.3398 80.3769 63.4509 80.6141C63.5657 80.8627 63.65 81.1382 63.673 81.4098C63.6921 81.6661 63.7074 81.9454 63.6576 82.2056Z" fill="#B7C2CC"/>
<path d="M70.2316 102.512C69.3357 102.512 68.6772 101.502 68.7652 100.684C68.8724 99.7158 69.6956 99.2184 70.5954 99.2184C71.4913 99.2184 72.1498 100.228 72.0618 101.047C71.9546 102.019 71.1314 102.512 70.2316 102.512Z" fill="#B7C2CC"/>
<path d="M63.7038 107.409C63.6732 107.612 63.6196 107.815 63.566 108.01C63.5354 108.117 63.4358 108.304 63.4358 108.304C63.3477 108.503 63.2176 108.668 63.0414 108.806C62.9151 108.882 62.7887 108.962 62.6624 109.039C62.2565 109.173 61.8928 109.288 61.5291 109.406C61.3874 109.448 61.2458 109.49 61.1041 109.533C60.8859 109.575 60.6753 109.559 60.4685 109.49C60.323 109.475 60.1929 109.425 60.0742 109.341C59.8751 109.253 59.7104 109.123 59.5726 108.947C59.4156 108.737 59.3199 108.588 59.251 108.454C59.1935 108.316 59.1667 108.213 59.1476 108.136C59.1246 108.06 59.094 107.968 59.0748 107.88C59.0519 107.777 59.0595 107.654 59.0595 107.551C59.0557 107.448 59.048 107.337 59.0634 107.233C59.1055 107.03 59.1399 106.874 59.1859 106.728C59.2931 106.491 59.3697 106.346 59.4462 106.219C59.6185 106.005 59.7296 105.883 59.8444 105.779C60.0282 105.619 60.055 105.565 60.0895 105.516C60.3268 105.194 60.5872 104.999 60.9395 104.815C61.1003 104.731 61.2879 104.689 61.464 104.655C61.5903 104.639 61.7818 104.643 61.7511 104.643C61.7741 104.643 61.9196 104.632 61.9962 104.639C62.1187 104.659 62.3599 104.716 62.4518 104.747C62.4327 104.735 62.8117 104.911 62.9189 104.991C63.1333 105.137 63.275 105.297 63.3745 105.496C63.432 105.561 63.4741 105.63 63.5009 105.711C63.5698 105.91 63.6311 106.116 63.677 106.323C63.6923 106.399 63.7038 106.476 63.7115 106.556C63.7306 106.832 63.7421 107.126 63.7038 107.409Z" fill="white"/>
<path d="M279.959 130.398C279.944 130.616 279.875 130.815 279.757 130.995C279.668 131.194 279.538 131.358 279.362 131.496C279.236 131.572 279.11 131.653 278.983 131.729C278.711 131.852 278.424 131.894 278.126 131.863C277.988 131.829 277.85 131.798 277.712 131.764C277.44 131.66 277.21 131.492 277.027 131.27C276.939 131.14 276.854 131.014 276.766 130.884C276.613 130.712 276.514 130.513 276.472 130.291C276.391 130.084 276.368 129.87 276.399 129.648C276.414 129.43 276.483 129.231 276.598 129.051C276.686 128.852 276.816 128.684 276.992 128.55C277.119 128.473 277.245 128.393 277.371 128.317C277.643 128.194 277.93 128.152 278.229 128.183C278.367 128.217 278.505 128.248 278.642 128.282C278.914 128.389 279.144 128.554 279.328 128.776C279.416 128.906 279.5 129.032 279.588 129.162C279.741 129.334 279.841 129.533 279.883 129.755C279.971 129.962 279.994 130.176 279.959 130.398Z" fill="#B7C2CC"/>
<path d="M318.545 312.111C318.465 312.493 318.373 312.83 318.124 313.144C318.009 313.289 317.883 313.427 317.745 313.549C317.55 313.698 317.393 313.783 317.248 313.87C317.033 313.997 316.773 314.054 316.535 314.108C316.302 314.157 316.049 314.157 315.816 314.134C315.636 314.119 315.417 314.05 315.268 314.012C315.214 313.997 315.165 313.981 315.115 313.955C314.74 313.771 314.483 313.618 314.211 313.293C314.093 313.155 313.962 312.918 313.897 312.799C313.805 312.627 313.756 312.432 313.725 312.241C313.664 311.885 313.714 311.43 313.874 311.105C313.901 311.047 313.936 310.978 313.97 310.913C313.997 310.787 314.031 310.657 314.085 310.546C314.211 310.29 314.361 309.98 314.609 309.811C314.751 309.716 314.897 309.624 315.046 309.54C315.222 309.444 315.444 309.398 315.628 309.352C315.808 309.31 316.057 309.326 316.206 309.326C316.264 309.326 316.317 309.329 316.375 309.341C316.558 309.375 316.754 309.417 316.934 309.482C317.117 309.551 317.293 309.658 317.462 309.758C317.512 309.788 317.558 309.823 317.604 309.861C317.753 309.987 317.914 310.121 318.036 310.278C318.159 310.431 318.254 310.607 318.35 310.776C318.454 311.009 318.492 311.181 318.538 311.349C318.553 311.403 318.561 311.456 318.565 311.514C318.565 311.698 318.584 311.919 318.545 312.111Z" fill="white"/>
<path d="M324.832 318.989C324.729 319.261 324.56 319.49 324.338 319.674L324.001 320.011C323.829 320.164 323.63 320.263 323.412 320.305C323.205 320.386 322.991 320.409 322.769 320.378C322.55 320.363 322.351 320.294 322.171 320.179C321.972 320.091 321.807 319.961 321.67 319.785C321.593 319.659 321.513 319.533 321.436 319.406C321.314 319.135 321.271 318.848 321.302 318.549C321.337 318.412 321.367 318.274 321.402 318.136C321.509 317.865 321.673 317.635 321.896 317.451L322.232 317.115C322.405 316.962 322.604 316.862 322.826 316.82C323.033 316.74 323.247 316.717 323.469 316.747C323.687 316.763 323.887 316.832 324.066 316.946C324.266 317.034 324.43 317.164 324.568 317.34C324.645 317.467 324.725 317.593 324.802 317.719C324.924 317.991 324.966 318.278 324.936 318.576C324.901 318.718 324.867 318.852 324.832 318.989Z" fill="#B7C2CC"/>
<path d="M434.537 359.301C434.457 359.741 434.354 359.997 434.132 360.379C433.867 360.831 433.427 361.141 432.979 361.386C432.753 361.508 432.489 361.569 432.24 361.638C432.121 361.673 431.999 361.692 431.873 361.696C431.624 361.707 431.363 361.726 431.115 361.676C430.667 361.588 430.429 361.493 430.039 361.271C429.989 361.24 429.939 361.21 429.893 361.175C429.744 361.057 429.595 360.919 429.468 360.774C429.384 360.678 429.323 360.563 429.254 360.456C429.166 360.314 429.081 360.188 429.032 360.031C428.967 359.832 428.882 359.607 428.863 359.392C428.848 359.224 428.848 359.048 428.852 358.88C428.852 358.826 428.856 358.769 428.863 358.715C428.871 358.566 428.875 358.444 428.894 358.325C428.924 358.13 428.974 357.931 429.036 357.74C429.058 357.663 429.089 357.594 429.124 357.525C429.192 357.392 429.246 357.246 429.338 357.128C429.415 357.032 429.552 356.89 429.637 356.802C429.859 356.6 430.073 356.485 430.23 356.397C430.456 356.267 430.724 356.202 430.973 356.144C431.034 356.129 431.095 356.121 431.16 356.118C431.36 356.102 431.559 356.099 431.758 356.106C432.018 356.121 432.286 356.198 432.527 356.271C433.044 356.428 433.454 356.749 433.829 357.12C434.017 357.307 434.155 357.545 434.281 357.774C434.407 358.004 434.48 358.275 434.526 358.528C434.572 358.776 434.58 359.048 434.537 359.301Z" fill="#B7C2CC"/>
<path d="M449.037 163.088C448.141 163.088 447.482 162.078 447.57 161.26C447.678 160.292 448.501 159.794 449.401 159.794C450.296 159.794 450.959 160.804 450.867 161.623C450.756 162.591 449.933 163.088 449.037 163.088Z" fill="#B7C2CC"/>
<path d="M426.39 94.0614C426.099 94.7309 425.59 95.3009 424.912 95.5955C424.633 95.6911 424.464 95.7447 424.296 95.7829C424.012 95.8135 423.829 95.8174 423.652 95.8097C423.446 95.8021 423.231 95.7332 423.032 95.6797C422.956 95.6567 422.887 95.6299 422.818 95.5917C422.645 95.5037 422.443 95.408 422.286 95.2818C422.121 95.1479 421.952 94.9987 421.815 94.8342C421.681 94.6735 421.562 94.4592 421.47 94.2947C421.428 94.222 421.393 94.1494 421.367 94.069C421.302 93.8739 421.233 93.6712 421.198 93.4684C421.175 93.1776 421.168 92.994 421.175 92.8219C421.187 92.6191 421.252 92.4125 421.305 92.2174C421.374 91.9725 421.516 91.7583 421.688 91.5747C421.773 91.3184 421.891 91.1424 422.052 90.997C422.19 90.821 422.366 90.691 422.577 90.6068C422.783 90.5073 422.994 90.4614 423.22 90.4767C423.434 90.4538 423.645 90.4882 423.848 90.5723C423.932 90.6068 424.008 90.6527 424.089 90.6986C424.426 90.6336 424.759 90.7024 425.081 90.7981C425.28 90.8593 425.475 90.9664 425.64 91.0965C425.774 91.1998 425.911 91.3337 426.026 91.4599C426.103 91.5479 426.16 91.6589 426.222 91.7545C426.417 92.072 426.566 92.424 426.581 92.8027C426.585 93.2465 426.57 93.6482 426.39 94.0614Z" fill="white"/>
<path d="M427.301 250.341C426.987 251.022 426.677 251.703 426.363 252.384C425.946 253.294 424.66 253.168 424.453 252.177C424.441 252.128 424.392 251.913 424.388 251.898C424.342 251.753 424.288 251.611 424.231 251.47C424.177 251.34 424.116 251.209 424.047 251.087C424.012 251.026 423.982 250.961 423.944 250.9C423.722 250.582 423.549 250.356 423.35 250.15C423.308 250.108 423.266 250.066 423.224 250.024C423.208 250.012 423.12 249.939 423.109 249.928C422.986 249.828 422.856 249.733 422.726 249.641C422.401 249.415 422.29 249.094 422.324 248.784C422.213 248.547 422.19 248.275 422.305 248.034L423.84 244.821C424.143 244.185 425.054 243.906 425.536 244.545C425.961 245.107 426.383 245.67 426.807 246.232C427.236 246.802 427.933 247.472 428.021 248.202C428.105 248.945 427.596 249.702 427.301 250.341Z" fill="white"/>
<path d="M261.198 203.09C259.215 204.628 257.228 206.166 255.245 207.704C254.835 208.021 254.172 208.006 253.843 207.566C253.529 207.145 253.541 206.506 253.981 206.166C255.964 204.628 257.951 203.09 259.935 201.552C260.344 201.234 261.007 201.25 261.336 201.69C261.65 202.114 261.639 202.749 261.198 203.09Z" fill="white"/>
<path d="M140.815 199.345C140.516 199.758 139.842 199.915 139.429 199.57C136.668 197.305 133.911 195.041 131.151 192.776C130.737 192.435 130.596 191.846 130.925 191.387C131.224 190.974 131.897 190.817 132.315 191.161C135.075 193.426 137.832 195.691 140.589 197.956C141.002 198.296 141.14 198.889 140.815 199.345Z" fill="white"/>
<path d="M149.41 193.476C149.383 193.713 149.249 193.989 149.054 194.134C148.664 194.425 147.955 194.463 147.653 193.996C146.673 192.474 145.692 190.955 144.708 189.432C144.559 189.199 144.456 188.977 144.486 188.694C144.513 188.457 144.647 188.181 144.842 188.036C145.233 187.745 145.941 187.707 146.244 188.173C147.224 189.696 148.204 191.215 149.188 192.738C149.341 192.967 149.445 193.189 149.41 193.476Z" fill="white"/>
<path d="M90.8188 154.641C89.9113 155.376 89.0001 156.114 88.0927 156.849C87.5835 157.797 87.0589 158.742 86.5152 159.668C84.8038 162.583 82.9086 165.391 80.8487 168.073C79.8264 169.405 78.7735 170.717 77.667 171.968C76.706 173.054 75.6301 174.133 74.2058 174.569C72.3833 175.139 70.5876 174.305 68.8685 173.728C66.912 173.066 64.9593 172.404 62.9952 171.742C58.9788 170.384 54.9548 169.026 50.9385 167.668C50.5326 167.53 50.3488 167.232 50.3144 166.914C50.1421 166.979 49.9698 167.048 49.7822 167.098C49.2653 167.251 48.7139 167.125 48.4689 166.593C48.2698 166.149 48.4613 165.434 48.9743 165.281C50.3871 164.856 51.4477 163.922 52.3742 162.809C53.4539 161.505 54.4226 160.108 55.4296 158.75L62.172 149.668C63.2134 148.256 64.2089 146.787 65.3269 145.44C66.2305 144.362 67.3561 143.428 68.834 143.447C69.6764 143.459 70.4574 143.78 71.2347 144.075C72.0962 144.408 72.9653 144.744 73.8267 145.081L79.0185 147.089C80.8027 147.778 82.5831 148.474 84.3673 149.163L86.8062 150.112C86.9058 150.15 87.0092 150.188 87.1087 150.226C87.5375 149.985 88.0391 150.07 88.3798 150.441C89.2375 151.37 90.0951 152.304 90.9528 153.233C91.3165 153.635 91.217 154.316 90.8188 154.641Z" fill="black"/>
<path d="M97.9557 171.93C97.7298 169.355 96.5161 166.65 95.2258 164.45C94.9884 164.033 94.571 163.896 94.192 163.934C93.4033 161.164 92.6222 158.402 91.8373 155.636C91.5923 154.787 90.6504 154.511 90.0493 155.207C84.5742 161.547 79.2714 168.024 74.1255 174.627C73.5167 174.646 72.9922 175.235 73.1913 175.885C73.0113 176.356 73.2755 176.811 73.6814 177.033C74.1178 178.032 74.562 179.034 75.0061 180.032C75.1861 180.442 75.5498 180.61 75.9135 180.595C76.4764 182.098 77.0392 183.602 77.602 185.105C78.4979 187.504 79.3594 189.949 80.9752 191.98C81.3925 192.516 82.1468 192.412 82.5449 191.934C86.3354 187.424 90.122 182.921 93.9048 178.414C94.8582 177.282 95.8269 176.149 96.7764 175.002C97.5383 174.087 98.0591 173.161 97.9557 171.93Z" fill="#8256E1"/>
<path d="M79.6273 193.376C79.2903 193.587 78.8653 193.575 78.5322 193.342C78.3599 193.231 78.1991 193.097 78.0536 192.959C77.889 193.051 77.6899 193.105 77.464 193.105C72.4981 193.078 68.2176 190.369 63.9677 188.131C62.8994 187.569 61.8121 187.026 60.6979 186.548C59.6029 186.077 58.4504 185.798 57.3516 185.377C56.9687 185.541 56.5437 185.503 56.2566 185.059C53.9019 181.421 52.1866 177.435 51.172 173.249C50.747 172.412 50.3067 171.585 49.8587 170.767C49.7477 170.671 49.6405 170.568 49.5409 170.453C49.3763 170.269 49.315 170.028 49.3265 169.791C49.1542 169.477 49.2346 169.125 49.4375 168.85C49.606 168.467 50.0157 168.188 50.4483 168.257C51.5663 168.433 52.5695 168.896 53.5726 169.393C54.0359 169.623 54.4992 169.852 54.9778 170.047C55.2228 170.147 55.4678 170.235 55.7205 170.307C56.1034 170.392 56.2412 170.411 56.3791 170.43C56.7045 170.468 56.9304 170.648 57.0721 170.878C62.4859 172.568 67.8998 174.259 73.3175 175.954C74.2249 176.233 74.0717 177.247 73.4515 177.664C75.094 181.088 76.4494 184.639 77.5138 188.281C77.7933 188.281 78.0651 188.392 78.2642 188.617C79.1908 189.692 79.8149 191.001 80.0944 192.393C80.1709 192.772 79.945 193.185 79.6273 193.376Z" fill="black"/>
<path d="M99.9275 173.973C96.853 177.58 93.7249 181.142 90.5432 184.654C88.9696 186.391 87.3806 188.112 85.7802 189.822C84.3368 191.364 82.8168 192.921 81.8136 194.803C81.2776 195.806 79.727 195.343 79.8495 194.417C79.4896 194.578 79.1909 194.647 78.8502 194.52L61.7203 188.25C60.2807 187.722 58.8411 187.194 57.3977 186.666C56.6779 186.402 55.9581 186.138 55.2383 185.874C54.4189 185.576 54.2351 185.216 53.9518 184.409C52.9448 181.524 51.9379 178.636 50.9309 175.751C49.7976 172.503 48.6643 169.259 47.531 166.011C47.2783 165.292 47.8334 164.711 48.4078 164.623C54.8477 157.227 61.0809 149.66 67.0997 141.921C67.674 141.179 68.6963 141.607 68.8916 142.284C76.8209 144.698 84.8269 147.246 91.7492 151.937C92.0938 151.99 92.3733 152.17 92.4997 152.568C94.5825 159.125 96.8836 165.613 99.3953 172.021C99.4642 172.197 99.4795 172.362 99.4604 172.515C100.035 172.729 100.429 173.383 99.9275 173.973ZM55.9083 184.007C63.5237 186.796 71.1429 189.585 78.7621 192.374C78.7966 192.336 78.8349 192.298 78.8693 192.259C78.9344 192.202 79.011 192.16 79.0914 192.129C79.145 192.091 79.2024 192.057 79.2675 192.03C76.4419 187.118 74.1331 181.934 72.3757 176.547C72.3489 176.471 72.3336 176.39 72.326 176.318C72.0197 176.207 71.7478 176.023 71.5296 175.782C71.3956 175.794 71.2501 175.778 71.1008 175.725C66.8777 174.252 62.6584 172.779 58.4353 171.306C56.4443 170.614 54.4457 169.944 52.4662 169.217C51.7694 168.965 51.0879 168.674 50.4408 168.33C52.2633 173.556 54.0858 178.781 55.9083 184.007ZM67.9382 144.075C62.1798 151.443 56.2299 158.662 50.0886 165.717C51.1262 166.635 52.4739 167.117 53.7757 167.576C55.7704 168.276 57.7691 168.969 59.7638 169.665C63.7266 171.046 67.6894 172.431 71.6521 173.812C72.1728 173.659 72.8467 173.873 73.0113 174.558C72.9386 174.244 72.9616 174.573 73.1377 174.409C73.2985 174.259 73.4938 174.145 73.6507 173.984C74.003 173.624 74.3131 173.215 74.6424 172.836C75.4081 171.949 76.1739 171.065 76.9358 170.174C78.4979 168.356 80.0524 166.535 81.5954 164.703C84.6431 161.08 87.6333 157.403 90.5011 153.635C83.7357 148.918 75.7757 146.454 67.9382 144.075ZM97.5804 172.836C95.3598 167.178 93.319 161.455 91.4353 155.674C88.1923 159.894 84.8039 164.003 81.358 168.058C79.5317 170.208 77.6862 172.343 75.8446 174.478C75.3813 175.017 74.8989 175.629 74.294 176.023C76.0705 181.402 78.3907 186.582 81.2355 191.479C81.3236 191.632 81.3618 191.781 81.3657 191.919C82.1314 190.894 82.9776 189.929 83.8658 188.981C85.4931 187.24 87.1126 185.492 88.7169 183.724C91.8411 180.289 94.9041 176.796 97.9212 173.265C97.7757 173.177 97.657 173.035 97.5804 172.836Z" fill="white"/>
<path d="M286.185 293.154C285.959 293.116 285.733 293.097 285.503 293.078C285.377 293.173 285.235 293.239 285.075 293.246C282.98 293.372 280.905 293.755 278.914 294.432C278.627 294.532 278.325 294.509 278.068 294.39C278.003 294.451 277.942 294.512 277.877 294.574C277.494 294.949 276.797 294.826 276.475 294.436C276.112 293.992 276.226 293.415 276.613 293.036C277.547 292.129 278.478 291.219 279.412 290.312C279.485 290.067 279.653 289.86 279.948 289.765C280.327 289.424 280.66 289.095 280.993 288.774C282.295 287.511 283.646 286.31 285.285 285.499C285.959 285.166 286.775 285.786 286.679 286.517C286.618 286.991 286.553 287.469 286.491 287.944C286.767 288.089 286.978 288.349 287.016 288.667C287.1 289.784 287.184 290.901 287.269 292.014C287.322 292.615 286.863 293.273 286.185 293.154Z" fill="black"/>
<path d="M284.129 283.269C281.402 282.706 278.925 281.283 277.022 279.275C277.022 279.221 277.015 279.168 277.015 279.114C277.003 278.552 276.597 278.299 276.161 278.299C275.491 277.576 274.446 278.253 274.476 279.141L274.76 287.607C274.771 287.932 275.005 288.189 275.292 288.33C275.326 289.7 275.365 291.073 275.399 292.45C275.418 292.986 276.054 293.349 276.532 293.284C277.11 293.196 277.382 292.688 277.367 292.152C279.794 289.769 282.226 287.397 284.653 285.025C285.289 284.409 284.998 283.449 284.129 283.269Z" fill="#8256E1"/>
<path d="M288.202 292.5C288.199 292.615 288.164 292.718 288.118 292.818C288.344 293.353 288.149 294.103 287.402 294.248L275.349 296.582C274.507 296.747 274.101 295.916 274.296 295.281C274.273 295.216 274.247 295.159 274.239 295.082C273.477 289.126 273.021 283.135 272.88 277.132C272.861 276.302 273.676 275.659 274.442 276.176C278.477 278.896 282.712 281.299 287.123 283.361C287.486 283.533 287.728 283.908 287.751 284.286C287.842 284.409 287.908 284.55 287.923 284.711C288.214 287.297 288.302 289.902 288.202 292.5ZM274.92 278.85C275.081 283.387 275.418 287.917 275.935 292.431C278.519 289.375 281.671 286.865 284.875 284.466C281.448 282.787 278.125 280.916 274.92 278.85ZM286.058 286.058C282.796 288.498 279.584 291.05 277.03 294.237C280.097 293.644 283.168 293.047 286.234 292.454C286.227 292.397 286.223 292.339 286.227 292.282C286.307 290.205 286.242 288.127 286.058 286.058Z" fill="white"/>
</g>
<defs>
<clipPath id="clip0">
<rect width="500" height="374.055" fill="white" transform="matrix(1 0 0 -1 0 375)"/>
</clipPath>
</defs>
</svg>
