<svg width="476" height="337" viewBox="0 0 476 337" fill="none" xmlns="http://www.w3.org/2000/svg">
<path d="M382.006 175.084L388.333 181.423L382.006 187.757L375.679 181.423L382.006 175.084Z" fill="white"/>
<path d="M382.006 189.695L373.743 181.423L382.006 173.146L390.272 181.423L382.006 189.695ZM377.615 181.423L382.006 185.819L386.397 181.423L382.006 177.025L377.615 181.423Z" fill="#191919"/>
<path d="M235.244 175.41L242.157 156.67L254.879 172.048L235.244 175.41Z" fill="#8256E1"/>
<path d="M212.864 220.957L200.954 217.763L209.67 209.034L212.864 220.957Z" fill="white"/>
<path d="M214.802 222.895L198.309 218.472L210.382 206.386L214.802 222.895ZM203.601 217.051L210.928 219.016L208.964 211.682L203.601 217.051Z" fill="#191919"/>
<path fill-rule="evenodd" clip-rule="evenodd" d="M252.432 83.1477C262.621 83.1477 270.878 91.4144 270.878 101.617C270.878 111.816 262.621 120.083 252.432 120.083C242.244 120.083 233.984 111.816 233.984 101.617C233.984 91.4144 242.244 83.1477 252.432 83.1477Z" fill="#B5E6EB"/>
<path fill-rule="evenodd" clip-rule="evenodd" d="M267.136 156.487C270.767 156.487 273.71 159.434 273.71 163.069C273.71 166.703 270.767 169.65 267.136 169.65C263.506 169.65 260.56 166.703 260.56 163.069C260.56 159.434 263.506 156.487 267.136 156.487Z" fill="#8256E1"/>
<path fill-rule="evenodd" clip-rule="evenodd" d="M44.2693 56.6324H55.6849V68.0606H44.2693V56.6324Z" fill="#B5E6EB"/>
<path fill-rule="evenodd" clip-rule="evenodd" d="M44.2693 270.013H55.6849V281.441H44.2693V270.013Z" fill="#B5E6EB"/>
<path fill-rule="evenodd" clip-rule="evenodd" d="M420.315 56.695H431.731V68.1232H420.315V56.695Z" fill="#B5E6EB"/>
<path fill-rule="evenodd" clip-rule="evenodd" d="M420.315 270.073H431.731V281.501H420.315V270.073Z" fill="#B5E6EB"/>
<path d="M426.715 277.22H49.2874C48.5298 277.22 47.9161 276.605 47.9161 275.85V62.2894C47.9161 61.531 48.5298 60.9194 49.2874 60.9194H426.715C427.473 60.9194 428.084 61.5337 428.084 62.2894V275.85C428.084 276.605 427.47 277.22 426.715 277.22ZM50.656 274.477H425.344V63.6595H50.656V274.477Z" fill="#B5E6EB"/>
<path d="M78.0979 9.65302H244.941C245.443 9.65302 245.853 10.0581 245.853 10.5637V181.978C245.853 182.483 245.446 182.888 244.941 182.888H78.0979C77.5928 182.888 77.1855 182.481 77.1855 181.978V10.5664C77.1855 10.0608 77.5928 9.65302 78.0979 9.65302Z" fill="#8256E1"/>
<path d="M244.941 184.264H78.0978C76.8379 184.264 75.8142 183.239 75.8142 181.981V10.5664C75.8142 9.3078 76.8379 8.28296 78.0978 8.28296H244.941C246.198 8.28296 247.222 9.3078 247.222 10.5664V181.981C247.224 183.239 246.201 184.264 244.941 184.264ZM78.554 181.521H244.482V11.0258H78.554V181.521Z" fill="#191919"/>
<path fill-rule="evenodd" clip-rule="evenodd" d="M93.7033 44.1795C94.8873 42.4478 97.6733 43.6684 99.8755 43.7934C104.272 44.0463 108.967 43.3775 113.667 43.2144C127.184 42.7469 141.687 41.896 154.849 41.2844C157.01 41.1838 160.022 41.0859 162.949 41.1892C165.852 41.2871 168.936 41.3224 169.99 43.1193C170.72 44.3616 170.473 47.5122 170.473 49.6869C170.473 61.3842 170.609 72.1572 169.99 83.9632C169.718 89.1363 168.803 94.6873 165.167 96.1281C163.161 96.9218 159.169 96.669 156.198 96.8049C146.651 97.2399 138.035 97.7482 129.194 98.542C122.549 99.1401 117.8 99.7979 111.256 99.7979C108.307 99.7979 105.116 99.7979 101.708 99.7979C98.3847 99.7979 93.6572 100.051 92.256 98.4469C90.2982 96.2069 91.0992 90.2183 91.0992 85.896C91.0992 73.9813 91.6776 63.9395 91.6776 51.8127C91.6803 48.7355 90.7028 44.1414 93.7033 44.1795ZM150.51 44.8563C148.093 44.9379 145.695 45.1146 143.276 45.2424C133.663 45.7453 123.899 46.2971 114.053 46.6913C109.005 46.8924 103.987 47.4714 99.1993 47.1751C97.9258 47.0963 96.5409 46.6151 95.2457 46.9821C95.0855 49.6217 95.0855 52.9354 95.2457 55.575C119.299 53.8923 142.909 56.9179 167 56.733C167 52.8376 167 48.9448 167 45.0493C161.583 44.2855 156.117 44.6688 150.51 44.8563ZM95.1506 59.0491C95.1344 65.1302 94.7325 71.3689 94.6673 77.5859C94.6021 83.743 94.0944 90.2074 94.8601 96.0275C112.415 97.2671 130.03 94.9021 146.651 93.7114C150.914 93.4042 155.397 93.4314 159.864 93.2275C161.344 93.1596 163.373 93.2683 164.108 92.8415C165.444 92.0668 166.102 88.3399 166.327 86.1787C167.201 77.7707 166.585 68.7021 167.003 60.2071C143.173 60.3702 118.701 57.3148 95.1506 59.0491Z" fill="white"/>
<path fill-rule="evenodd" clip-rule="evenodd" d="M209.534 46.6912C210.254 46.4982 211.938 46.7293 213.2 46.7891C219.514 47.0826 224.923 46.8842 231.524 46.8842C233.892 46.8842 237.052 46.5825 237.118 48.6213C237.191 50.9509 233.384 50.3583 230.753 50.3583C224.977 50.3583 220.431 50.5051 214.648 50.2604C212.231 50.1571 208.503 50.5432 208.283 48.5207C208.177 47.5611 208.701 46.9141 209.534 46.6912Z" fill="white"/>
<path fill-rule="evenodd" clip-rule="evenodd" d="M100.264 49.0074C102.398 48.7219 102.759 51.984 100.842 52.2885C98.7594 52.6228 97.9041 49.3227 100.264 49.0074Z" fill="white"/>
<path fill-rule="evenodd" clip-rule="evenodd" d="M107.4 49.3934C108.597 49.2738 109.249 50.005 109.233 51.0353C109.2 53.1312 106.121 53.2046 105.857 51.3261C105.678 50.0594 106.346 49.4994 107.4 49.3934Z" fill="white"/>
<path fill-rule="evenodd" clip-rule="evenodd" d="M227.861 58.47C228.722 58.2281 233.15 58.0324 234.226 58.47C235.287 58.8995 235.54 60.7535 234.516 61.463C233.669 62.0474 228.271 62.1453 227.282 61.463C226.009 60.5849 226.821 58.7582 227.861 58.47Z" fill="white"/>
<path fill-rule="evenodd" clip-rule="evenodd" d="M215.321 58.9513C215.348 58.9432 215.329 58.8616 215.419 58.8534C217.898 58.6713 222.981 58.3669 223.038 60.7835C223.049 61.3055 222.674 62.333 221.689 62.5206C221.186 62.6157 220.29 62.3683 219.568 62.3276C216.934 62.1781 213.806 62.8957 214.167 60.2018C214.248 59.582 214.626 59.1552 215.321 58.9513Z" fill="white"/>
<path fill-rule="evenodd" clip-rule="evenodd" d="M231.719 68.607C233.093 68.5445 234.397 68.7022 234.418 70.2489C234.446 72.1899 231.863 72.0839 229.789 72.179C225.262 72.3883 221.455 72.2714 216.961 72.4699C214.629 72.5732 212.223 72.7798 212.138 70.9258C212.065 69.3057 213.735 69.0746 215.707 68.9958C219.625 68.8381 222.582 68.9523 226.316 68.8028C228.195 68.7266 229.973 68.6859 231.719 68.607Z" fill="white"/>
<path fill-rule="evenodd" clip-rule="evenodd" d="M129.968 108.578C131.635 108.472 132.968 108.475 133.055 110.027C133.15 111.77 131.271 111.9 129.196 112.055C118.107 112.884 106.726 112.539 96.5029 114.083C94.5668 114.374 92.5384 114.744 92.5493 112.634C92.5574 111.158 93.9939 110.984 95.8295 110.701C103.427 109.541 111.514 109.397 119.94 109.06C123.312 108.926 126.725 108.788 129.968 108.578Z" fill="white"/>
<path fill-rule="evenodd" clip-rule="evenodd" d="M94.5722 120.939C95.433 120.727 96.3128 121.072 97.1763 121.132C101.597 121.436 107.826 121.357 112.896 121.518C115.255 121.591 116.82 121.632 116.657 123.546C116.483 125.585 113.683 125 111.448 124.897C106.574 124.677 102.827 124.785 98.0425 124.606C95.7942 124.522 93.2851 124.397 93.3177 122.483C93.334 121.627 93.725 121.148 94.5722 120.939Z" fill="white"/>
<path fill-rule="evenodd" clip-rule="evenodd" d="M103.061 130.595C104.972 130.502 107.06 130.176 107.207 132.044C107.37 134.08 105.553 133.889 103.446 133.974C100.891 134.074 94.0726 135.705 94.0917 132.718C94.1052 130.676 96.4703 131.049 98.5286 130.883C100.4 130.733 101.654 130.66 103.061 130.595Z" fill="white"/>
<path fill-rule="evenodd" clip-rule="evenodd" d="M72.6018 0H254.879V31.4465H72.6018V0Z" fill="#191919"/>
<path fill-rule="evenodd" clip-rule="evenodd" d="M123.948 16.1826C126.066 16.1826 127.782 17.9007 127.782 20.021C127.782 22.1414 126.066 23.8594 123.948 23.8594C121.827 23.8594 120.111 22.1414 120.111 20.021C120.111 17.9007 121.827 16.1826 123.948 16.1826Z" fill="white"/>
<path fill-rule="evenodd" clip-rule="evenodd" d="M109.518 16.1826C111.636 16.1826 113.355 17.9007 113.355 20.021C113.355 22.1414 111.636 23.8594 109.518 23.8594C107.4 23.8594 105.684 22.1414 105.684 20.021C105.681 17.9007 107.4 16.1826 109.518 16.1826Z" fill="white"/>
<path fill-rule="evenodd" clip-rule="evenodd" d="M94.9063 16.1826C97.0243 16.1826 98.7404 17.9007 98.7404 20.021C98.7404 22.1414 97.0243 23.8594 94.9063 23.8594C92.7882 23.8594 91.0694 22.1414 91.0694 20.021C91.0721 17.9007 92.7882 16.1826 94.9063 16.1826Z" fill="white"/>
<path fill-rule="evenodd" clip-rule="evenodd" d="M293.517 323.889C294.266 324.311 393.422 323.522 393.422 323.522C393.422 323.522 409.291 322.185 415.612 314.103C421.934 306.027 416.962 291.831 411.778 274.061C406.594 256.293 397.967 219.793 387.032 212.631C376.095 205.465 366.738 203.885 359.27 203.214C351.803 202.54 341.169 201.879 339.909 197.179C338.652 192.487 336.165 175.973 336.165 175.973L338.63 173.412C338.63 173.412 342.421 176.044 346.394 173.23C350.364 170.416 351.374 167.997 351.233 165.825C351.094 163.653 349.315 161.802 349.315 161.802C349.315 161.802 361.557 147.163 358.447 136.752C355.338 126.34 339.274 115.896 331.052 112.892C322.829 109.886 312.063 109.679 310.596 112.982C309.127 116.288 309.225 121.942 309.225 121.942C309.225 121.942 303.292 123.394 302.556 126.607C301.823 129.814 305.663 136.113 305.663 136.113L301.188 142.509L302.467 146.35C302.467 146.35 296.4 160.829 301.277 168.563C308.478 179.985 319.269 178.713 319.269 178.713C319.269 178.713 320.643 185.558 320.548 191.422C320.453 197.282 323.019 200.917 316.619 201.202C310.222 201.488 289.954 197.176 275.983 210.891C262.012 224.608 215.345 272.332 215.345 272.332L236.441 298.567L286.302 255.141C286.302 255.138 292.764 323.462 293.517 323.889Z" fill="white"/>
<path fill-rule="evenodd" clip-rule="evenodd" d="M313.635 130.217C319.78 130.282 330.582 130.475 337.419 133.522C344.254 136.572 345.346 137.565 344.156 141.392C342.967 145.222 342.033 146.603 340.786 149.591C339.545 152.576 335.125 165.102 336.692 165.2C338.256 165.298 344.354 161.364 344.354 161.364L349.639 160.704L353.668 154.949C353.668 154.949 359.553 145.682 358.227 136.233C357.054 133.482 357.758 132.435 355.346 129.988C347.42 121.942 334.487 115.948 327.636 114.695C318.702 113.061 315.245 114.26 313.48 117.073C311.715 119.884 311.656 124.747 311.656 124.747C311.656 124.747 306.331 127.648 305.445 130.415C305.079 131.565 305.473 133.275 306.059 134.879C306.887 137.141 307.493 130.149 313.635 130.217Z" fill="#191919"/>
<path fill-rule="evenodd" clip-rule="evenodd" d="M377.882 291.646L369.662 268.426C369.662 268.426 373.121 260.366 387.013 256.544C400.905 252.711 405.644 253.983 405.644 253.983C405.644 253.983 399.295 231.931 395.141 223.996C390.986 216.058 383.768 206.995 374.775 205.071C365.784 203.146 351.762 202.146 351.762 202.146C351.762 202.146 343.138 209.295 332.037 211.285C320.934 213.277 311.392 209.961 310.211 207.449C309.03 204.932 309.024 200.68 309.024 200.68C309.024 200.68 289.864 197.166 277.517 207.903C265.173 218.641 249.573 236.156 249.573 236.156C249.573 236.156 257.442 238.7 264.549 244.474C274.386 252.458 276.695 262.027 276.695 262.027L287.287 253.252L293.498 321.91L383.356 323.46L380.07 320.535L339.798 313.407C339.798 313.407 330.06 315.041 327.467 311.121C324.877 307.198 324.271 303.531 324.271 303.531C324.271 303.531 318.65 302.792 315.414 300.421C312.177 298.059 311.943 295.944 311.943 295.944C311.943 295.944 300.297 295.476 297.603 294.479C294.91 293.487 294.114 291.078 295.504 288.903C296.894 286.729 298.972 286.071 298.972 286.071C298.972 286.071 302.13 276.445 307.65 272.452C313.168 268.458 321.45 266.724 324.453 270.073C327.456 273.422 327.888 278.255 330.845 281.501C333.805 284.744 340.708 291.1 340.708 291.1L377.882 291.646Z" fill="#B5E6EB"/>
<path fill-rule="evenodd" clip-rule="evenodd" d="M350.92 160.753C351.99 162.079 352.677 163.433 352.381 166.056C351.882 170.504 347.692 175.266 341.699 174.195C340.971 174.062 340.108 173.627 339.415 173.649C338.541 173.67 338.055 174.385 337.313 174.744C337.68 178.574 338.343 182.252 339.051 185.898C339.741 189.451 340.137 193.219 341.606 196.133C343.485 199.857 350.763 200.121 356.305 200.702C361.795 201.281 367.452 201.893 372.195 203.081C382.275 205.604 389.178 210.285 393.924 217.888C396.205 221.539 397.837 226.019 399.312 230.779C405.147 249.62 412.538 266.482 417.391 285.81C418.664 290.874 419.881 296.017 420.128 301.348C420.408 307.37 418.664 312.257 416.019 315.519C413.22 318.961 409.016 320.442 403.602 321.367C387.16 324.169 368.397 321.32 354.021 318.355C349.041 317.324 344.333 315.843 339.412 314.785C338.465 314.581 336.947 314.845 336.034 314.785C328.741 314.291 325.227 310.273 323.158 304.001C317.404 303.545 314.319 300.416 311.745 296.779C308.783 296.461 306.007 296.461 302.98 296.227C302.04 296.156 300.96 295.765 300.33 295.863C299.789 295.947 298.801 297.116 298.412 297.51C297.038 298.88 296.406 299.516 294.942 300.981C294.366 301.558 293.4 302.351 293.297 302.811C293.145 303.512 293.549 305.053 293.663 306.192C294.271 312.132 294.88 316.908 295.762 322.644C296.007 324.245 297.41 328.641 294.942 328.404C293.275 328.244 293.329 325.031 293.022 323.104C292.012 316.753 291.377 310.49 290.557 304.091C289.897 303.711 289.68 304.708 289.185 305.002C288.664 305.314 287.871 305.431 287.179 305.091C286.723 303.626 287.714 302.833 288.365 302.167C287.871 300.149 289.376 299.339 290.101 298.238C288.518 284.622 287.171 270.758 285.628 257.101C283.785 258.465 281.789 260.257 279.877 261.948C267.56 272.821 255.205 283.768 242.714 294.857C241.78 295.686 240.601 297.067 239.608 296.958C238.961 296.887 238.38 296.534 238.331 295.767C238.274 294.919 239.456 293.979 240.338 293.207C251.621 283.393 262.393 273.569 273.757 263.682C274.511 263.027 275.899 262.13 276.038 261.491C276.355 260.018 275.017 257.941 274.395 256.916C272.051 253.05 269.192 250.044 265.901 247.046C262.713 244.14 259.346 241.56 255.037 239.551C253.839 238.991 251.835 237.898 250.29 238.178C249.174 238.379 247.205 241.187 246.453 242.016C239.043 250.169 231.804 257.579 224.358 265.966C223.703 266.705 221.719 269.717 220.431 269.714C219.611 269.712 219.112 269.133 219.063 268.524C218.981 267.564 220.537 266.14 221.254 265.327C227.141 258.68 233.267 252.104 239.149 245.765C246.187 238.184 252.935 230.779 259.968 223.735C266.873 216.825 273.689 208.371 282.522 203.442C286.823 201.042 292.544 199.161 299.325 198.87C302.534 198.74 306.146 198.799 309.733 198.962C312.831 199.104 318.447 199.656 319.411 198.052C320.027 197.022 319.772 194.882 319.595 193.205C319.416 191.509 319.215 189.853 319.047 188.453C318.623 184.897 317.923 182.081 318.134 179.129C312.364 178.787 308.272 177.028 304.986 173.921C300.864 170.014 297.883 163.83 299.417 155.27C299.727 153.541 300.091 150.852 301.519 150.792C302.222 150.763 302.532 151.173 302.706 151.431C303.297 152.323 302.184 155.547 301.975 157.192C301.074 164.259 303.583 169.117 307.455 172.366C311.283 175.579 317.135 177.308 323.706 175.476C324.532 175.247 325.485 174.986 326.354 174.655C327.467 174.225 329.778 172.972 329.824 175.201C329.854 176.612 326.908 177.416 325.808 177.762C323.967 178.341 322.172 178.689 320.421 178.952C320.977 181.249 321.298 184.449 321.697 187.725C322.088 190.932 322.734 194.355 322.52 197.049C322.096 202.333 316.22 202.127 310.284 201.806C310.653 206.933 315.663 208.936 320.421 210.035C323.91 210.834 328.184 210.532 331.744 209.939C339.095 208.716 344.952 205.965 349.549 202.717C346.046 202.083 343.331 201.537 341.24 199.974C339.097 198.375 338.34 195.554 337.59 192.572C336.113 186.7 335.108 180.064 334.484 173.562C334.951 172.733 335.695 172.398 336.583 171.912C337.343 171.498 338.28 170.759 339.141 170.726C340.338 170.669 341.72 171.607 343.249 171.637C345.981 171.694 348.123 169.848 349.093 167.617C349.506 166.668 350.228 163.933 349.093 162.952C347.773 161.816 344.558 162.609 343.705 163.773C345.05 164.368 348.02 164.191 347.903 165.967C347.803 167.47 345.775 166.801 344.8 166.516C343.733 166.2 341.97 165.553 341.24 165.605C339.871 165.697 336.07 169.68 334.758 166.608C333.892 164.58 335.869 161.318 336.401 159.663C337.884 155.039 338.332 149.681 340.417 145.769C340.871 144.918 341.463 143.991 342.06 142.936C342.579 142.023 343.331 140.647 343.157 139.552C342.834 137.543 339.583 135.947 337.77 135.167C331.845 132.62 325.357 131.655 317.133 131.326C315.547 131.261 313.559 131.062 312.294 131.326C310.982 131.601 309.146 133.925 308.275 134.803C306.909 136.17 305.953 137.426 304.989 138.913C310.759 137.461 314.849 141.958 314.849 147.142C314.849 152.255 311.533 155.917 308.001 157.469C308.574 158.706 309.011 160.97 307.181 160.946C306.018 160.927 304.78 157.73 305.079 156.466C305.478 154.788 307.531 155.183 308.459 154.087C306.572 153.367 306.458 151.915 307.091 149.613C307.493 148.142 308.071 146.715 309.738 146.688C310.634 146.669 311.463 147.177 312.022 148.055C312.277 144.804 310.7 141.784 308.003 141.384C306.665 141.183 305.255 141.678 304.261 142.113C303.202 142.583 300.726 144.497 300.245 142.384C299.955 141.12 301.475 139.372 301.981 138.549C302.82 137.179 303.488 136.225 304.172 135.26C302.48 132.658 299.906 127.92 302.255 124.47C303.509 122.624 305.486 121.692 307.642 120.635C306.825 112.496 311.224 109.201 318.232 108.75C326.311 108.23 333.159 111.289 338.685 114.235C344.262 117.209 349.793 120.7 353.842 125.022C357.918 129.371 361.687 135.268 359.96 143.945C358.564 150.956 354.912 155.838 350.92 160.753ZM357.038 144.393C357.907 140.9 357.893 137.062 356.672 133.881C355.591 131.073 353.712 128.817 351.648 126.751C347.626 122.725 342.785 119.493 337.495 116.698C332.303 113.955 325.713 110.981 318.411 111.487C313.953 111.797 310.738 113.287 310.377 117.43C310.26 118.791 310.765 121.246 310.377 122.092C309.923 123.081 307.694 123.554 306.632 124.193C305.728 124.739 304.484 125.612 304.166 126.936C303.607 129.265 305.101 131.155 305.994 132.968C307.805 131.927 309.179 129.222 311.289 128.676C312.557 128.341 314.461 128.583 316.22 128.583C321.26 128.583 326.164 129.165 330.009 129.953C335.415 131.062 341.031 132.794 344.162 135.985C344.724 136.562 345.245 137.41 345.533 138.089C346.891 141.316 344.403 144.165 343.16 146.41C340.333 151.502 340.097 158.918 337.68 164.325C341.131 163.123 342.652 159.19 348.18 159.755C352.025 155.194 355.479 150.643 357.038 144.393ZM284.173 205.544C279.828 207.873 276.019 211.241 272.578 214.683C266.145 221.123 259.68 227.824 253.587 234.432C253.196 234.856 252.397 235.223 252.585 235.707C258.773 237.518 263.525 241.383 267.832 245.213C272.13 249.044 276.317 253.51 278.514 259.384C280.477 257.982 281.813 256.593 283.627 254.997C284.154 254.535 285.145 253.967 285.27 253.352C285.387 252.77 285.083 251.599 284.998 250.791C284.789 248.834 284.643 247.334 284.45 245.583C284.349 244.689 284.385 243.656 284.176 242.933C284.015 242.375 283.407 241.688 282.989 241.013C282.592 240.375 282.177 239.703 281.802 239.091C281.17 238.072 279.529 236.175 279.608 235.071C279.654 234.438 280.284 233.761 281.069 233.793C282.359 233.848 283.502 236.623 284.173 237.724C285.112 239.257 286.448 240.698 286.823 242.204C287.323 244.221 287.309 246.578 287.554 248.785C289.27 264.264 290.861 280.175 292.485 295.496C293.348 295.047 294.214 293.818 294.95 292.935C293.147 289.453 295.442 285.603 298.695 285.166C299.452 279.639 302.687 275.586 306.092 272.645C309.326 269.845 313.252 267.548 318.417 267.254C320.926 265.351 322.81 261.241 326.177 259.754C326.957 259.409 328.076 259.058 329.192 259.208C331.948 259.58 332.195 262.853 330.927 264.965C330.481 265.713 329.523 266.645 328.738 267.434C328.412 267.757 326.349 269.448 326.362 269.809C326.362 269.777 327.158 270.628 327.367 270.908C328.361 272.24 328.985 273.678 329.558 275.018C331.858 280.392 334.283 283.912 338.323 287.449C339.144 288.169 340.018 289.216 340.697 289.371C341.221 289.491 342.128 289.36 342.796 289.371C354.312 289.545 365.491 289.855 376.763 290.01C373.483 281.537 369.363 271.372 365.806 262.497C365.244 261.094 363.256 257.318 365.896 257.378C367.229 257.408 367.818 259.857 368.179 260.76C368.823 262.364 369.214 263.53 369.733 264.965C370.773 264.229 371.576 263.234 372.562 262.404C375.652 259.822 379.296 257.984 383.245 256.28C388.925 253.831 395.936 251.264 403.515 251.892C401.435 245.999 399.254 239.676 397.308 233.429C395.339 227.125 393.343 221.242 389.544 216.518C385.93 212.022 381.205 208.757 374.753 206.645C369.146 204.81 362.917 204.25 356.218 203.538C355.26 203.437 353.994 203.054 353.478 203.173C353.071 203.268 352.588 204.027 352.11 204.361C346.755 208.075 340.249 211.299 332.111 212.68C327.915 213.392 323.193 213.514 319.237 212.497C313.247 210.956 308.085 208.425 307.365 201.621C298.051 201.067 290.103 202.366 284.173 205.544ZM335.945 312.037C337.085 312.108 338.353 311.866 339.779 312.037C341.055 312.187 342.367 312.798 343.708 313.135C347.876 314.187 351.941 315.038 356.126 315.878C367.158 318.096 379.497 320.206 392.74 319.624C399.217 319.339 405.424 318.936 410.089 316.699C414.749 314.465 416.888 309.805 417.304 303.721C417.714 297.678 415.952 291.499 414.654 286.261C412.294 276.749 409.31 268.1 406.16 259.295C405.723 258.069 405.386 256.397 404.791 255.549C404.083 254.535 401.788 254.467 400.224 254.54C393.845 254.842 388.903 256.647 383.513 259.112C381.175 260.181 378.873 261.331 376.575 262.856C374.672 264.125 371.566 266.224 371.37 268.341C371.302 269.067 371.807 270.122 372.193 271.084C374.775 277.549 377.328 283.836 379.769 290.094C381.403 290.567 385.876 289.113 385.887 291.559C385.895 293.131 383.828 293.025 381.775 292.927C369.45 292.345 355.998 292.579 344.249 292.106C344.65 293.277 348.457 294.12 348.267 296.126C348.194 296.874 347.605 297.306 346.988 297.32C345.853 297.341 344.249 295.629 343.336 294.941C337.395 290.464 331.779 286.299 328.545 279.495C327.41 277.106 326.27 273.237 324.345 271.538C321.455 268.991 315.596 270.087 312.476 271.538C308.335 273.463 305.323 276.673 303.072 280.588C302.062 282.341 300.427 285.168 302.342 287.259C303.718 286.28 304.275 284.559 305.079 283.149C307.585 278.772 311.072 275.04 318.137 275.836C319.112 275.23 322.987 273.308 322.794 276.018C322.699 277.345 320.19 277.815 318.96 278.487C314.841 280.737 311.346 284.388 312.383 290.553C313.852 287.264 316.579 284.331 319.962 282.51C321.037 281.928 324.861 279.838 324.801 282.51C324.771 283.869 322.332 284.407 321.423 284.886C317.361 287.014 315.294 290.254 313.57 294.395C313.893 294.927 314.311 295.623 314.757 296.219C315.153 296.754 315.726 297.692 316.125 297.594C317.972 294.038 321.154 290.847 324.798 288.634C325.71 288.08 330.145 285.225 330.004 288.267C329.957 289.257 328.722 289.616 327.809 290.094C325.243 291.442 322.688 293.334 320.961 295.308C319.785 296.648 319.305 298.206 317.673 299.144C320.081 301.582 324.744 301.525 328.173 300.334C329.325 299.937 333.346 297.447 333.286 300.245C333.259 301.49 331.193 302.118 330.183 302.528C328.725 303.126 327.489 303.526 325.89 303.721C327.932 308.557 330.194 311.681 335.945 312.037ZM297.139 290.649C297.856 289.692 298.877 289.039 299.423 287.906C298.027 288.129 296.802 288.999 297.139 290.649ZM307.457 288.458C306.276 289.67 304.897 291.108 303.713 292.293C303.327 292.679 302.657 293.049 302.801 293.389C305.16 293.565 308.318 293.894 310.379 293.759C309.798 292.421 309.456 290.842 309.467 288.914C308.758 288.797 308.25 288.479 307.457 288.458Z" fill="#191919"/>
<path fill-rule="evenodd" clip-rule="evenodd" d="M324.532 141.925C329.594 141.411 331.82 143.912 333.843 146.954C334.65 148.161 335.711 149.643 335.489 150.61C335.356 151.187 334.658 151.564 334.028 151.521C333.257 151.472 332.705 150.518 332.382 149.971C330.889 147.43 329.403 144.184 324.896 144.578C323.427 144.703 320.755 146.057 320.787 143.754C320.809 142.11 323.353 142.042 324.532 141.925Z" fill="#191919"/>
<path fill-rule="evenodd" clip-rule="evenodd" d="M325.17 149.607C326.302 149.488 327.823 150.148 327.91 151.891C327.942 152.589 327.359 154.933 326.997 155.642C325.857 157.858 322.362 156.925 322.248 154.631C322.207 153.81 322.555 153.209 322.704 152.625C323.123 151.015 323.299 149.795 325.17 149.607Z" fill="#191919"/>
<path fill-rule="evenodd" clip-rule="evenodd" d="M321.518 165.235C320.133 165.662 318.262 167.628 315.949 167.886C314.197 168.082 311.62 167.989 311.566 166.421C311.484 164.189 314.078 165.431 315.949 165.053C318.455 164.539 319.367 162.675 321.244 162.221C325.181 161.258 324.638 166.695 323.068 168.617C322.262 169.601 320.923 170.362 319.783 170.811C318.452 171.327 314.648 172.523 314.488 170.444C314.395 169.25 315.324 169.022 316.589 168.799C318.941 168.378 321.225 167.6 321.518 165.235Z" fill="#191919"/>
<path fill-rule="evenodd" clip-rule="evenodd" d="M231.652 184.063H89.098C89.098 184.063 94.4555 155.218 102.795 134.974C115.603 103.897 130.56 101.975 130.56 101.975C130.56 101.975 146.146 64.7685 150.102 53.9764C154.059 43.1789 159.014 26.9419 168.64 27.1893C178.267 27.4394 198.458 33.7923 205.535 45.8403C212.611 57.8909 213.214 58.7961 210.74 76.4685C208.266 94.1381 204.804 118.886 204.804 118.886C204.804 118.886 206.751 119.484 209.372 122.453C211.989 125.419 215.033 129.858 215.033 129.858C215.033 129.858 219.201 120.762 223.25 116.877C227.299 112.99 230.918 107.583 232.11 104.903C233.3 102.22 233.112 97.5388 234.758 97.4953C236.406 97.4545 239.238 98.0526 238.959 101.793C238.679 105.534 236.129 113.221 236.129 113.221C236.129 113.221 250.828 105.284 255.305 104.995C259.783 104.71 263.56 106.76 260.329 109.562C257.095 112.368 247.086 116.606 247.086 116.606C247.086 116.606 259.756 113.322 262.976 119.166C266.197 125.003 264.888 130.967 260.785 134.615C256.679 138.263 246.355 137.997 246.355 137.997C246.355 137.997 240.927 141.014 238.046 142.025C235.163 143.028 232.477 143.665 232.477 143.665L231.652 184.063Z" fill="white"/>
<path fill-rule="evenodd" clip-rule="evenodd" d="M216.339 129.755C216.339 129.755 212.731 123.5 208.853 120.7C204.975 117.902 202.368 116.312 202.368 116.312C202.368 116.312 179.706 125.824 158.352 119.601C136.998 113.382 126.389 105.52 126.389 105.52C126.389 105.52 110.745 109.399 99.3568 143.461C87.9711 177.522 89.1305 185.24 89.1305 185.24L101.461 184.968C101.461 184.968 131.64 155.645 138.081 150.776C144.519 145.905 150.165 143.686 155.615 144.195C161.062 144.7 166.229 146.299 168.309 145.198C170.389 144.097 170.036 142.537 171.413 143.92C172.795 145.304 173.515 146.557 171.049 148.487C168.586 150.423 165.116 150.591 165.116 150.591L159.726 151.32C159.726 151.32 172.097 156.784 177.259 160.829C182.421 164.874 184.121 168.788 181.916 169.242C179.714 169.693 175.98 167.962 175.98 167.962C175.98 167.962 168.42 174.056 161.735 175.644C155.05 177.223 147.669 177.011 147.669 177.011L133.424 192.281L200.451 189.173L216.339 129.755Z" fill="#191919"/>
<path fill-rule="evenodd" clip-rule="evenodd" d="M163.451 75.6231L173.129 134.776C173.129 134.776 167.25 137.69 161.257 134.958C155.264 132.226 151.669 130.752 151.669 130.752L146.646 100.401C146.646 100.401 143.173 100.072 138.977 100.766C134.779 101.462 130.209 102.505 130.209 102.505C130.209 102.505 145.187 66.2936 150.846 53.6829C156.505 41.075 160.038 28.516 166.281 27.7195C172.521 26.923 196.796 29.4484 205.274 46.5498C213.751 63.654 211.715 62.9391 211.302 68.7673C210.887 74.5956 206.414 101.546 205.548 112.191C204.685 122.836 204.177 139.253 204.177 139.253L186.28 138.337L178.519 107.344C178.519 107.344 170.674 106.621 171.301 102.959C171.931 99.2977 175.595 89.7914 175.595 89.7914C175.595 89.7914 186.462 93.3308 192.397 88.5138C198.336 83.694 198.328 73.8806 198.333 73.0597C198.339 72.2469 200.069 69.3137 200.069 69.3137L201.711 67.1172L201.347 59.0735L165.366 65.3829C165.366 65.3829 161.192 62.3601 158.699 63.2789C156.204 64.195 155.875 68.1231 156.779 70.8659C157.689 73.6169 163.451 75.6231 163.451 75.6231Z" fill="white"/>
<path fill-rule="evenodd" clip-rule="evenodd" d="M159.473 77.825L169.151 136.977C169.151 136.977 163.465 137.692 157.472 134.963C151.482 132.231 149.073 123.393 149.073 123.393L146.143 101.614C146.143 101.614 139.645 100.918 135.45 101.614C131.252 102.31 131.654 99.0203 131.654 99.0203C131.654 99.0203 143.976 68.6096 149.638 55.9989C155.297 43.391 156.06 30.7178 162.303 29.9213C168.543 29.1248 190.844 32.7811 201.296 48.7517C210.116 62.2295 207.737 65.1409 207.324 70.9692C206.909 76.8001 202.436 103.748 201.57 114.393C200.707 125.038 200.202 139.63 200.202 139.63L186.285 138.337L177.805 107.828C177.805 107.828 170.68 106.624 171.307 102.959C171.937 99.2976 175.6 89.7914 175.6 89.7914C175.6 89.7914 182.486 95.5326 188.422 90.7183C194.361 85.8986 198.018 82.0466 198.024 81.223C198.029 80.4102 200.014 73.5843 200.014 73.5843L202.472 67.4461L201.356 59.1169L165.947 66.3859L158.748 63.0994C158.748 63.0994 157.222 64.5673 154.729 65.4834C152.234 66.3995 151.905 70.3276 152.81 73.0705C153.711 75.8188 159.473 77.825 159.473 77.825Z" fill="#191919"/>
<path fill-rule="evenodd" clip-rule="evenodd" d="M206.279 117.166C209.836 120.191 213.168 123.432 215.411 127.77C217.14 120.991 221.357 116.709 225.544 112.137C227.502 110.005 229.474 107.67 230.75 104.463C231.271 103.15 231.847 101.347 232.393 99.7054C232.93 98.0907 233.631 96.022 235.407 96.1416C238.391 96.34 240.403 99.9419 240.428 103.454C240.449 106.096 239.401 108.638 238.603 110.495C241.831 108.888 244.935 107.292 248.921 105.738C251.892 104.58 257.6 102.144 261.065 104.096C262.238 104.751 262.83 106.194 262.344 107.934C261.23 111.911 256.848 113.151 253.212 114.605C258.037 114.689 261.621 115.293 263.897 117.622C267.913 121.743 266.227 130.059 263.166 133.802C260.742 136.771 256.796 138.35 252.117 139.013C250.515 139.242 248.753 138.978 247.004 139.288C246.035 139.459 244.835 140.378 243.901 140.84C240.8 142.376 237.332 143.703 233.585 144.496C232.998 157.621 232.452 170.346 231.847 183.892C231.76 185.871 231.985 188.244 230.386 188.282C228.512 188.328 229.031 185.134 229.11 183.53C229.688 171.384 230.144 160.301 230.663 148.153C230.731 146.522 230.606 143.338 231.209 142.577C231.817 141.816 233.683 141.743 235.228 141.297C238.187 140.443 240.289 139.473 242.806 138.28C243.854 137.782 245.291 136.722 246.274 136.545C247.941 136.243 249.633 136.521 251.113 136.363C255.479 135.89 259.025 134.656 261.247 131.611C257.084 131.921 252.625 132.103 248.099 132.34C246.714 132.413 244.878 132.715 244.81 131.244C244.74 129.681 246.746 129.858 248.465 129.779C253.138 129.562 258.07 129.121 262.708 128.958C263.242 127.632 263.536 126.068 263.53 124.201C258.803 124.446 253.858 124.894 248.919 125.209C247.227 125.315 245.025 125.634 244.9 124.201C244.753 122.51 247.021 122.643 248.462 122.559C253.339 122.271 258.205 121.92 262.979 121.643C261.953 116.415 252.886 117.111 247.365 118.261C245.657 118.615 241.549 120.504 241.612 117.894C241.644 116.543 244.099 115.76 245.174 115.247C246.643 114.537 248.05 113.928 249.372 113.327C252.294 111.993 255.743 111.057 257.866 109.576C258.757 108.956 259.631 107.931 259.783 106.651C257.679 105.732 255.292 106.455 253.394 107.021C247.623 108.725 242.478 111.699 237.598 114.238C238.611 116.823 239.043 120.909 237.962 124.019C237.498 125.356 236.944 126.438 236.048 127.767C235.594 128.442 234.356 130.584 233.126 130.51C232.52 130.472 231.904 129.858 231.847 129.322C231.73 128.192 233.338 127.006 234.038 125.941C235.562 123.633 236.365 120.653 235.591 117.073C235.445 116.396 235.173 115.63 234.953 114.969C234.717 114.262 234.288 113.509 234.313 112.868C234.342 112.177 234.937 111.62 235.317 110.949C236.865 108.236 239.412 101.451 235.591 99.0666C234.052 103.321 233.039 107.072 230.753 110.22C228.491 113.333 225.68 115.82 223.266 118.721C220.844 121.632 219.109 125.093 217.879 129.322C214.308 141.62 211.05 154.198 207.563 166.801C205.624 173.809 203.618 181.312 201.538 188.744C201.204 189.94 200.785 190.997 199.892 191.027C197.592 191.101 198.79 188.325 199.254 186.637C203.976 169.402 208.429 152.828 213.314 135.447C213.654 134.248 214.343 132.753 214.319 131.886C214.292 130.953 213.233 129.388 212.766 128.594C210.968 125.525 208.731 122.85 206.099 120.73C205.907 125.12 205.733 130.684 205.733 135.993C205.733 137.562 206.14 139.747 205.369 140.568C204.416 141.577 202.455 140.742 200.986 140.933C202.485 144.63 204.639 148.487 204.639 153.728C204.639 164.118 197.606 169.905 189.481 172.376C188.39 175.91 187.347 179.447 186.195 183.255C185.821 184.492 185.658 186.314 184.278 186.273C181.968 186.202 183.393 183.117 183.819 181.703C184.561 179.251 185.356 176.519 186.103 174.026C186.462 172.839 186.872 170.892 187.382 170.373C188.047 169.691 190.801 169.033 191.675 168.633C195.944 166.684 199.009 164.025 200.715 159.584C203.24 153.011 200.644 145.483 197.701 140.935C195.824 140.848 193.948 140.846 191.857 140.846C190.285 140.846 187.483 141.15 186.288 140.481C185.411 139.987 185.21 138.032 184.917 136.73C182.809 127.362 179.915 117.337 177.246 108.94C174.204 107.978 170.473 107.148 169.941 103.916C169.58 101.709 170.65 98.455 171.22 96.601C171.937 94.2632 172.833 92.1184 173.593 90.384C172.113 89.2613 170.348 88.1386 168.847 86.9126C168.334 86.494 167.75 86.1352 167.839 85.1783C167.902 84.515 168.38 84.0719 168.847 83.9876C169.998 83.7838 170.851 84.9962 171.676 85.6323C173.957 87.3911 176.906 89.6419 180.623 89.9273C186.483 90.3813 190.823 87.8804 193.679 85.1756C196.082 82.8976 197.367 80.1765 197.79 75.9385C197.97 74.1552 198.008 72.796 199.251 72.7389C202.026 72.6247 200.071 79.3609 199.615 80.6929C198.673 83.4494 197.255 85.4338 195.599 87.0893C191.814 90.8788 183.206 94.6411 176.059 91.5693C175.032 94.0213 173.884 96.8946 173.137 100.067C172.912 101.035 172.504 102.448 172.681 103.362C172.963 104.824 175.581 105.708 177.153 106.102C177.859 106.287 178.649 106.268 179.073 106.564C179.749 107.037 180.146 109.013 180.534 110.22C183.358 119.036 185.815 128.637 188.023 138.008C192.949 138.135 198.04 138.095 202.906 138.28C203.085 127.012 203.254 116.598 204.549 106.472C205.814 96.5929 207.883 87.1464 209.295 77.7679C210.083 72.5541 210.547 67.3782 210.118 62.2296C209.686 57.0565 208.285 53.2154 206.102 49.5211C202.072 42.706 195.865 37.5438 188.479 33.8006C182.459 30.7451 169.928 25.6182 162.637 31.3322C159.655 33.6728 157.684 37.5683 156.063 41.48C154.384 45.5277 153.108 49.7793 151.68 53.8216C148.81 61.9387 145.231 69.6535 141.818 77.4037C138.404 85.1647 135.143 92.9828 132.048 100.989C136.045 100.143 140.188 99.4445 145.014 99.4309C145.339 97.7835 143.276 92.3549 146.018 92.5778C147.506 92.6974 147.417 94.8585 147.572 96.688C148.557 108.325 150.933 120.417 153.505 129.779C158.001 132.633 163.728 134.71 171.402 134.08C167.443 115.828 164.222 96.8375 162.088 76.7621C158.107 75.6258 154.887 72.2469 154.966 66.9841C155.017 63.6622 157.844 60.9737 160.901 61.4983C163.071 61.8708 164.231 63.5371 165.74 64.8827C177.468 62.6645 190.16 60.1337 201.991 57.3827C203.316 57.0728 206.175 56.086 206.189 58.1166C206.203 59.8184 203.805 59.6281 202.719 60.0358C202.814 60.6556 203.427 61.6207 203.634 62.4144C204.171 64.4913 204.307 68.49 202.537 68.7211C201.812 68.8162 201.106 68.1285 200.256 67.6256C199.056 66.9134 197.329 66.0652 195.417 66.5274C193.177 67.0738 192.104 68.7728 190.85 70.8279C192.159 69.6426 194.844 70.0015 195.143 72.2876C195.36 73.9703 194.23 77.1971 192.677 77.4988C191.496 77.7245 190.861 77.2542 190.209 76.7649C190.44 77.7136 190.649 78.2573 190.939 78.9586C191.14 79.4398 191.795 80.2689 191.67 81.1524C191.499 82.3947 186.619 84.7434 186.557 82.0685C186.527 80.8153 187.589 80.7419 188.474 80.239C184.132 71.6189 191.963 59.7912 201.163 64.9752C201.166 63.0804 200.492 61.868 199.794 60.6747C194.983 61.8001 190.049 62.8032 185.185 63.8715C184.982 64.1026 185.422 64.3771 185.46 64.7903C185.647 66.859 183.448 66.1849 182.448 65.7934C181.517 65.4291 180.382 64.9915 179.801 64.9724C178.772 64.9371 177.254 65.4618 176.056 65.701C173.463 66.2229 171.394 66.6334 168.57 67.1635C167.497 67.3646 165.656 67.9545 164.643 67.7153C163.812 67.5196 163.201 66.2773 162.634 65.7037C162.012 65.073 161.211 64.0971 159.897 64.2412C158.726 64.3717 158.186 65.2742 157.98 65.7934C156.885 68.5091 158.976 72.5051 161.36 73.5653C162.392 74.0247 163.56 73.6903 164.372 74.6608C164.793 75.1664 164.947 77.0476 165.102 78.4068C167.291 97.5117 170.118 114.668 173.775 132.155C174.036 133.405 174.766 135.075 174.231 135.993C173.561 137.149 169.664 136.92 167.839 136.909C162.65 136.88 159.756 135.849 155.97 134.169C154.485 133.506 151.984 132.658 151.224 131.609C150.716 130.907 150.515 129.322 150.219 128.137C148.142 119.811 146.404 111.446 145.377 102.174C133.411 102.63 124.876 104.917 118.807 110.767C113.089 116.282 109.073 124.758 105.57 132.612C98.8409 147.688 93.8879 164.77 90.8684 183.709C90.6105 185.324 90.0999 187.863 88.3132 186.542C87.2216 185.735 88.354 181.885 88.6771 179.963C91.2975 164.431 95.5498 150.064 100.728 136.999C103.704 129.488 107.139 122.265 111.139 115.978C115.226 109.551 120.627 104.34 128.577 102.081C133.84 88.2474 140.11 74.9299 145.926 61.0389C148.704 54.406 150.901 46.6613 153.871 39.7375C156.883 32.7159 160.581 26.6131 169.664 26.0314C175.413 25.6589 180.273 27.3226 184.458 28.9564C188.973 30.7179 192.495 32.6371 195.966 35.0809C202.705 39.83 208.712 46.1829 211.487 54.8246C214.585 64.4668 212.377 76.6833 210.664 86.2684C208.839 96.4841 206.903 106.371 206.279 117.166Z" fill="#191919"/>
<path fill-rule="evenodd" clip-rule="evenodd" d="M159.986 65.9783C160.961 65.7472 164.078 67.8376 164.277 68.8136C164.453 69.6753 163.859 70.3277 163.272 70.3685C162.398 70.4283 161.621 69.3654 160.988 68.906C160.546 68.5825 159.09 68.2427 159.071 67.0765C159.06 66.4051 159.552 66.0788 159.986 65.9783Z" fill="#191919"/>
<path fill-rule="evenodd" clip-rule="evenodd" d="M177.517 66.6171C178.652 66.5029 180.17 67.1635 180.257 68.906C180.29 69.5992 179.706 71.9506 179.345 72.652C178.204 74.8756 174.709 73.9432 174.595 71.6489C174.555 70.8252 174.902 70.2217 175.054 69.6345C175.47 68.0307 175.649 66.8128 177.517 66.6171Z" fill="#191919"/>
<path fill-rule="evenodd" clip-rule="evenodd" d="M178.247 81.1524C178.209 82.4273 178.701 83.1884 179.708 84.1698C180.423 84.8657 181.788 85.4991 181.81 86.4587C181.826 87.1383 181.416 87.6956 180.898 87.826C179.507 88.1849 178.296 86.6408 177.427 85.7247C176.382 84.6238 175.643 83.2564 175.51 82.0712C175.242 79.6627 176.787 77.2406 179.347 78.3198C181.129 79.0728 180.781 80.9729 182.269 82.1609C183.442 83.0987 185.253 82.4735 185.283 84.1725C185.313 86.282 182.198 85.4175 180.99 84.6292C179.831 83.8735 179.187 82.5034 178.247 81.1524Z" fill="#191919"/>
<path fill-rule="evenodd" clip-rule="evenodd" d="M133.231 152.086C137.424 149.202 141.744 144.051 149.394 143.496C153.649 143.183 157.135 144.407 161.355 144.407C163.131 144.407 164.738 143.958 166.283 143.496C168.002 142.974 170.902 141.808 172.401 143.039C173.091 143.599 173.357 144.619 173.406 145.41C173.718 150.48 168.643 153.638 162.995 152.179C167.88 155.047 175.049 157.012 179.795 160.676C181.308 161.845 182.964 163.438 183.722 165.156C185.093 168.272 182.712 171.343 179.157 170.824C178.131 170.669 177.536 169.829 176.235 170C175.38 170.115 174.424 171.21 173.221 171.92C172.385 172.412 171.378 172.776 170.663 173.2C169.881 173.668 169.208 174.369 168.562 174.755C164.437 177.24 158.132 179.349 151.579 178.596C150.754 178.501 149.671 177.995 148.84 178.137C148.231 178.24 147.156 179.594 146.648 180.148C142.6 184.563 138.551 188.437 134.231 192.759C133.514 193.474 132.735 194.542 131.855 194.501C131.236 194.472 130.633 194.045 130.579 193.308C130.473 191.938 133.289 189.771 134.049 189.016C137.88 185.177 141.989 180.975 145.554 177.313C144.392 176.457 140.349 176.47 140.259 174.48C140.139 171.912 143.129 173.597 144.642 174.116C147.854 175.22 151.805 176.188 156.147 175.943C158.623 175.807 160.825 175.024 162.724 174.388C161.097 174.105 159.517 174.018 157.7 173.659C156.402 173.398 153.885 173.135 153.684 171.92C153.252 169.337 156.891 170.615 158.43 170.917C162.218 171.653 167.861 172.279 170.574 170.093C166.218 169.9 162.373 169.389 158.52 168.359C157.532 168.089 155.799 167.747 155.78 166.526C155.745 164.286 158.83 165.534 160.345 165.888C163.992 166.744 168.377 167.538 172.673 167.353C169.308 165.559 164.657 164.069 160.437 162.506C159.413 162.125 156.918 161.628 156.695 160.587C156.112 157.904 159.359 159.173 160.711 159.673C165.664 161.511 171.521 163.24 175.687 165.888C177.202 166.855 179.499 169.016 181.346 167.445C180.928 164.615 178.402 162.957 176.325 161.688C170.767 158.284 164.133 156.088 157.972 153.095C156.953 152.6 154.974 151.768 154.957 150.716C154.949 150.064 155.484 149.452 155.962 149.349C157.078 149.099 157.982 150.23 158.702 150.259C159.294 150.289 160.453 149.545 161.531 149.439C163.791 149.213 166.153 150.061 167.831 149.531C169.699 148.941 170.674 147.343 170.571 145.323C167.003 145.91 164.508 147.324 160.711 147.152C157.059 146.992 153.687 145.975 149.752 146.242C143.876 146.636 138.937 150.768 135.51 153.916C131.494 157.613 127.893 161.291 124.553 164.89C118.509 171.398 111.696 177.468 104.831 183.535C103.924 184.335 102.653 185.822 101.635 185.729C100.736 185.645 100.465 184.957 100.448 184.446C100.41 183.185 103.093 181.437 103.826 180.79C111.921 173.678 119.35 166.665 126.747 158.58C127.361 157.909 128.154 157.414 128.482 156.841C128.822 156.251 129.012 155.381 129.302 154.647C130.706 151.105 132.067 147.712 133.503 144.042C133.924 142.958 134.546 140.079 135.784 139.93C138.209 139.633 137.038 142.553 136.514 143.863C135.439 146.56 134.198 149.656 133.231 152.086Z" fill="#191919"/>
<path fill-rule="evenodd" clip-rule="evenodd" d="M149.899 115.556C149.985 116.655 150.265 117.568 150.355 118.666C140.577 115.14 131.526 110.886 123.603 105.504C124.602 105.194 125.55 104.346 126.342 104.136C133.682 108.453 141.418 112.376 149.899 115.556Z" fill="#191919"/>
<path fill-rule="evenodd" clip-rule="evenodd" d="M169.623 120.126C173.751 120.507 178.348 120.898 182.864 120.583C182.85 121.695 183.062 122.578 183.412 123.326C179.029 123.796 173.965 123.41 169.898 122.961C169.925 121.896 169.803 120.985 169.623 120.126Z" fill="#191919"/>
<path fill-rule="evenodd" clip-rule="evenodd" d="M59.1987 321.646H435.986C439.72 321.646 442.744 324.678 442.744 328.41C442.744 332.148 439.72 335.176 435.986 335.176H59.1987C55.4677 335.176 52.4428 332.15 52.4428 328.41C52.44 324.675 55.465 321.646 59.1987 321.646Z" fill="#191919"/>
<path fill-rule="evenodd" clip-rule="evenodd" d="M134.991 268.654C137.237 269.369 141.408 267.088 145.516 263.622C149.624 260.154 148.549 256.429 148.834 253.181C149.122 249.932 154.07 234.375 151.68 229.925C149.288 225.472 138.016 212.848 130.345 215.311C122.677 217.766 121.324 229.629 123.421 233.247C125.52 236.862 131.909 241.318 130.723 245.208C129.536 249.095 123.443 251.05 123.896 256.69C124.347 262.331 132.743 267.936 134.991 268.654Z" fill="white"/>
<path fill-rule="evenodd" clip-rule="evenodd" d="M152.549 232.703C152.549 226.519 147.903 222.476 144.424 219.448C142.407 217.695 140.837 216.249 138.489 214.696C136.368 213.296 132.656 211.073 129.264 212.138C126.071 213.136 124.515 216.27 123.239 219.63C122.332 222.014 121.724 224.265 121.411 227.313V230.055C122.02 234.133 124.768 236.707 126.981 239.651C127.681 240.581 128.585 241.761 128.624 242.941C128.681 244.737 126.924 246.629 125.794 247.785C123.782 249.845 121.952 251.316 121.96 255.19C121.971 261.82 126.888 264.43 131.363 266.892C132.889 267.727 134.304 268.972 135.746 267.896C137.736 270.399 139.656 274.757 137.848 278.682C136.81 280.927 134.888 282.926 133.191 285.081C131.562 287.144 130.193 289.403 129.354 292.301C128.607 294.886 127.975 298.23 127.619 301.628C127.45 303.259 127.304 305.806 127.252 306.747C127.103 309.694 127.252 310.708 128.621 310.68C130.16 310.648 129.97 308.397 130.082 306.018C130.348 300.44 130.994 294.96 132.914 290.752C135.274 285.568 141.454 282.11 141.497 275.118C141.535 268.567 135.803 265.824 135.287 259.944C135.048 257.212 135.944 254.63 136.838 252.539C137.736 250.449 138.828 248.5 139.759 246.507C141.598 242.587 142.114 235.908 140.034 231.608C138.942 229.354 137.212 227.465 135.23 225.589C134.836 226.508 134.06 227.239 132.892 227.438C133.498 228.008 134.095 228.5 134.372 228.775C135.806 230.213 136.729 231.276 137.476 232.798C138.88 235.658 138.942 239.983 138.024 243.313C136.482 248.918 130.872 254.564 132.819 261.958C133.082 262.956 133.392 263.878 134.098 265.066C131.695 263.823 128.004 262.293 126.429 260.129C125.208 258.449 124.26 255.742 125.061 253.181C125.544 251.631 127.336 250.215 128.347 249.071C129.927 247.274 132.167 245.107 131.268 241.576C130.136 237.131 125.623 235.375 124.42 230.7C123.684 227.834 124.683 223.537 125.699 220.826C126.484 218.722 128.143 215.115 130.538 214.702C132.963 214.283 135.678 216.24 137.204 217.26C139.102 218.527 140.742 219.908 142.315 221.283C145.551 224.107 149.475 227.168 149.711 232.344C149.806 234.383 149.171 236.463 148.617 238.469C148.077 240.434 147.512 242.264 146.974 244.042C146.447 245.787 145.774 247.815 145.788 249.892C145.801 252.248 146.934 254.999 146.244 257.299C145.546 259.615 142.806 261.469 140.764 262.779C140.006 263.269 139.113 263.744 139.214 264.791C139.249 265.193 139.491 265.702 140.034 265.889C141.657 266.455 144.202 263.796 145.054 263.057C147.17 261.227 149.111 259.561 149.255 256.016C149.35 253.681 148.584 251.707 148.617 249.62C148.647 247.535 149.326 245.781 149.896 243.952C150.996 240.434 152.549 236.694 152.549 232.703Z" fill="#191919"/>
<path fill-rule="evenodd" clip-rule="evenodd" d="M108.366 263.456C106.183 263.416 92.981 263.761 90.92 258.425C88.859 253.091 97.5401 243.593 94.5233 239.54C91.5038 235.487 87.7212 233.492 87.6968 227.671C87.6724 221.849 88.5141 215.887 92.0604 214.764C95.6068 213.642 103.995 215.74 105.618 219.984C107.245 224.233 105.494 230.789 108.749 234.791C112.002 238.798 116.852 240.578 116.809 246.374C116.765 252.167 113.74 258.841 112.543 260.137C111.34 261.431 110.55 263.497 108.366 263.456Z" fill="white"/>
<path fill-rule="evenodd" clip-rule="evenodd" d="M121.786 166.896C127.871 165.48 134.869 169.865 134.782 174.372C134.69 178.879 131.654 188.681 134.557 194.425C137.459 200.169 145.421 207.958 142.939 216.542C139.941 226.905 132.925 226.434 133.737 232.39C134.549 238.349 139.211 242.557 138.005 246.344C136.8 250.133 132.335 260.102 125.77 260.012C119.204 259.925 111.935 253.977 107.367 249.144C102.803 244.311 98.6454 233.214 105.608 226.701C112.567 220.188 117.773 211.565 112.203 204.652C106.637 197.736 99.6637 184.269 107.506 176.644C115.351 169.019 116.173 168.209 121.786 166.896Z" fill="white"/>
<path fill-rule="evenodd" clip-rule="evenodd" d="M129.058 267.806C131.304 268.521 135.474 266.24 139.583 262.774C143.691 259.305 142.613 255.581 142.901 252.333C143.189 249.082 148.136 233.527 145.747 229.077C143.355 224.624 132.083 212 124.412 214.463C116.744 216.917 115.391 228.781 117.488 232.399C119.587 236.017 125.976 240.47 124.789 244.36C123.603 248.244 117.509 250.201 117.963 255.842C118.416 261.483 126.812 267.088 129.058 267.806Z" fill="#B5E6EB"/>
<path fill-rule="evenodd" clip-rule="evenodd" d="M104.13 265.153C101.947 265.112 88.745 265.457 86.684 260.121C84.623 254.787 93.3042 245.289 90.2846 241.236C87.2678 237.183 83.4852 235.19 83.4581 229.368C83.4337 223.545 84.2754 217.583 87.8218 216.461C91.3681 215.338 99.756 217.437 101.38 221.68C103.006 225.929 101.255 232.486 104.511 236.487C107.764 240.494 112.613 242.275 112.57 248.07C112.527 253.86 109.502 260.537 108.304 261.833C107.104 263.127 106.314 265.193 104.13 265.153Z" fill="#B5E6EB"/>
<path fill-rule="evenodd" clip-rule="evenodd" d="M104.809 260.298C102.629 258.528 100.334 256.242 100.063 252.254C99.8944 249.791 100.419 247.111 100.886 244.667C101.309 242.454 102.159 239.382 101.708 237.354C100.986 234.114 97.5429 233.339 96.2314 230.317C95.7915 229.308 95.5417 227.37 95.4982 225.744C95.4602 224.105 95.5009 222.161 97.1437 222.273C99.2047 222.409 98.0317 227.022 98.6969 228.944C99.3676 230.896 102.246 232.459 103.446 234.34C106.411 238.988 102.482 246.447 102.898 252.167C103.433 259.526 113.347 258.941 113.762 266.974C113.968 270.973 112.307 274.08 111.207 277.209C110.118 280.302 108.98 283.54 108.467 287.175C107.685 292.712 107.737 298.921 107.737 305.548C107.737 307.704 108.149 310.357 106.458 310.392C104.714 310.433 104.904 307.832 104.904 305.548C104.904 299.013 104.904 292.693 105.635 287.175C106.363 281.692 108.386 277.125 109.928 272.275C110.409 270.761 111.098 268.967 110.93 266.974C110.767 265.028 109.871 264.106 108.557 262.861C105.714 263.315 102.167 263.231 98.9712 262.861C94.317 262.326 89.3478 261.14 88.9242 256.647C88.4191 251.27 92.9946 246.744 92.8507 241.473C92.6932 235.636 85.6413 233.606 84.9977 227.397C84.4085 221.724 86.7329 215.17 90.2032 212.954C91.3246 212.239 92.8887 211.796 95.042 212.043C99.3894 212.527 104.345 216.216 106.183 219.35C107.997 222.444 107.267 229.27 108.923 232.516C111.307 237.191 117.2 239.73 117.689 245.588C117.963 248.872 116.643 251.618 115.497 254.086C115.011 255.13 114.416 256.294 113.672 257.563C113.086 258.563 112.277 260.306 110.933 260.121C108.961 259.844 110.235 257.753 110.751 256.921C112.095 254.758 113.254 252.594 114.131 250.066C114.563 248.818 115.03 247.252 114.859 245.681C114.577 243.03 111.956 240.486 110.384 238.915C107.378 235.906 105.105 232.554 104.815 226.848C104.709 224.776 104.712 222.903 103.992 221.275C103.191 219.459 101.385 218.048 99.4274 216.792C97.657 215.664 94.7678 214.321 92.5792 214.966C90.6458 215.537 89.5705 217.872 88.8346 219.989C88.1422 221.987 87.3982 225.168 87.9222 227.674C88.4137 230.023 90.4177 231.727 92.1202 233.706C94.1378 236.041 95.9897 238.825 95.5905 242.848C95.2348 246.412 93.3014 249.669 92.3022 253.083C91.9356 254.339 91.5174 255.755 91.846 256.921C92.3375 258.675 95.2267 259.387 97.2334 259.757C99.8293 260.222 102.118 260.238 104.809 260.298Z" fill="#191919"/>
<path fill-rule="evenodd" clip-rule="evenodd" d="M116.703 166.896C122.788 165.48 129.788 169.865 129.699 174.372C129.609 178.879 126.571 188.681 129.473 194.425C132.376 200.169 140.338 207.958 137.856 216.542C134.858 226.905 127.841 226.434 128.653 232.39C129.465 238.349 134.128 242.557 132.922 246.344C131.716 250.133 127.252 260.102 120.686 260.012C114.121 259.925 106.851 253.977 102.284 249.144C97.7195 244.311 93.5622 233.214 100.524 226.701C107.484 220.188 112.689 211.565 107.12 204.652C101.556 197.736 94.5804 184.269 102.423 176.644C110.265 169.019 111.087 168.209 116.703 166.896Z" fill="#B5E6EB"/>
<path fill-rule="evenodd" clip-rule="evenodd" d="M125.873 259.667C126.696 263.214 128.243 266.825 128.52 271C129.074 279.299 124.548 283.855 122.313 290.015C120.822 294.117 120.198 301.071 119.94 306.557C119.853 308.364 120.377 311.439 118.386 311.404C116.611 311.368 117.018 308.821 117.107 306.831C117.365 301.155 117.83 295.395 119.114 290.836C120.898 284.519 125.191 280.332 125.688 273.376C126.014 268.869 124.453 264.84 123.315 261.127C121.368 254.771 119.32 248.856 117.471 242.299C116.592 239.173 115.397 235.269 115.736 231.88C116.076 228.495 117.851 225.508 119.481 223.105C121.235 220.514 123.611 218.225 124.778 215.7C125.797 213.49 126.915 209.779 126.057 206.65C125.552 204.815 124.425 203.29 123.41 201.806C121.373 198.835 119.326 196.241 118.023 192.3C117.422 190.478 116.765 188.241 116.928 185.987C117.045 184.313 117.735 182.946 118.479 181.513C118.938 180.63 120.61 177.098 122.131 179.042C123.011 180.173 121.496 181.758 121.124 182.424C120.491 183.568 119.855 184.916 119.755 185.987C119.608 187.504 120.043 189.187 120.396 190.38C120.768 191.639 121.189 192.957 121.675 194.037C123.557 198.215 127.29 201.197 128.705 205.465C129.256 207.128 129.294 209.116 129.072 210.766C128.241 216.888 125.221 219.88 122.316 224.11C120.61 226.589 118.571 229.618 118.481 232.796C118.422 234.881 119.071 237.131 119.578 239.192C121.064 245.265 123.212 250.916 124.966 256.745C126.818 255.951 128.556 254.442 130.356 252.996C132.105 251.588 133.851 250.074 135.013 248.334C135.7 247.301 136.254 246.311 136.107 244.496C135.692 239.32 129.134 235.15 131.54 229.047C133.207 224.823 137.764 223.597 139.667 220.09C141.429 216.836 142.032 210.798 140.397 206.742C139.197 203.769 137.052 201.8 135.284 199.158C133.614 196.663 131.961 193.262 131.722 190.013C131.513 187.162 132.037 184.631 132.452 182.426C132.811 180.548 133.883 177.468 133.275 174.934C132.835 173.089 131.572 171.341 130.538 170.177C129.3 168.791 127.896 167.818 125.973 167.252C121.881 166.053 117.545 168.402 114.74 170.177C111.831 172.023 109.39 174.353 107.253 177.582C105.132 180.784 102.417 186.874 104.424 191.473C105.771 194.564 108.106 196.981 110.085 199.794C112.347 203.005 114.835 206.457 114.468 211.587C114.034 217.687 109.743 222.172 106.707 226.209C105.651 227.612 104.274 229.267 103.693 230.868C102.352 234.579 102.357 239.719 103.875 242.843C105.274 245.719 108.684 248.285 110.998 250.155C112.247 251.164 113.556 252.123 115.106 253.262C116.244 254.102 119.942 256.09 118.028 257.558C116.665 258.604 114.237 256.168 113.281 255.453C111.72 254.298 110.311 253.175 109.173 252.257C106.71 250.286 103.468 247.788 101.776 245.037C99.4274 241.22 99.3242 233.967 101.32 229.406C103.935 223.423 109.871 219.845 111.454 212.766C112.651 207.422 109.143 203.32 106.889 200.335C104.231 196.82 101.152 193.314 100.864 188.999C100.405 182.092 104.489 175.976 107.804 172.368C111.747 168.071 116.575 164.909 123.233 164.137C126.391 163.773 129.655 165.42 131.635 167.244C133.541 169.006 135.846 172.061 136.199 174.926C136.297 175.712 136.254 176.59 136.199 177.392C135.901 181.948 134.223 184.761 134.557 189.731C134.999 196.364 140.541 199.963 142.955 205.546C144.995 210.255 144.232 217.809 142.135 221.541C141.18 223.24 139.306 224.779 137.66 226.111C136.17 227.321 133.992 229.112 133.826 231.23C133.644 233.559 135.344 235.846 136.292 237.539C137.592 239.858 139.412 242.511 138.939 246.222C138.831 247.084 138.38 248 138.03 248.69C135.548 253.534 130.076 256.777 125.873 259.667Z" fill="#191919"/>
<path d="M103.452 284.962H143.371C146.773 284.962 149.532 287.085 149.532 289.705L143.558 315.62C143.558 318.243 141.435 320.369 138.82 320.369H108.098C105.48 320.369 103.357 318.243 103.357 315.62L97.2877 289.705C97.2877 287.085 100.046 284.962 103.452 284.962Z" fill="#191919"/>
<path d="M138.82 321.739H108.098C104.785 321.739 102.078 319.083 101.991 315.786L95.9544 290.015C95.93 289.912 95.9191 289.809 95.9191 289.703C95.9191 286.332 99.2971 283.589 103.452 283.589H143.371C147.523 283.589 150.903 286.332 150.903 289.703C150.903 289.806 150.893 289.909 150.868 290.01L144.927 315.783C144.84 319.083 142.133 321.739 138.82 321.739ZM98.6617 289.564L104.69 315.304C104.714 315.408 104.725 315.511 104.725 315.617C104.725 317.479 106.238 318.996 108.095 318.996H138.817C140.674 318.996 142.187 317.479 142.187 315.617C142.187 315.514 142.198 315.41 142.222 315.31L148.158 289.567C148.052 287.8 145.902 286.334 143.371 286.334H103.452C100.918 286.334 98.7703 287.8 98.6617 289.564Z" fill="#191919"/>
<path d="M95.3407 277.671H151.848C152.845 277.671 153.649 278.519 153.649 279.568L155.215 290.483C155.215 291.532 154.366 292.383 153.317 292.383H93.869C92.8208 292.383 91.9709 291.532 91.9709 290.483L93.535 279.568C93.5377 278.519 94.3441 277.671 95.3407 277.671Z" fill="#B5E6EB"/>
<path d="M153.317 293.756H93.869C92.0687 293.756 90.6024 292.288 90.6024 290.486C90.6024 290.42 90.6078 290.355 90.6159 290.29L92.1692 279.46C92.2262 277.709 93.6273 276.301 95.3407 276.301H151.848C153.562 276.301 154.96 277.709 155.017 279.46L156.57 290.29C156.579 290.355 156.584 290.42 156.584 290.486C156.584 292.288 155.12 293.756 153.317 293.756ZM93.3476 290.551C93.3802 290.812 93.6029 291.013 93.8717 291.013H153.32C153.589 291.013 153.809 290.812 153.844 290.551L152.296 279.764C152.288 279.699 152.283 279.634 152.283 279.568C152.283 279.278 152.09 279.041 151.851 279.041H95.3434C95.1045 279.041 94.909 279.278 94.909 279.568C94.909 279.634 94.9035 279.699 94.8954 279.764L93.3476 290.551Z" fill="#191919"/>
<path d="M156.386 309.128H272.304C274.826 309.128 276.871 311.17 276.871 313.695V316.615C276.871 319.137 274.826 321.187 272.304 321.187H156.386C153.863 321.187 151.818 319.137 151.818 316.615V313.695C151.818 311.173 153.86 309.128 156.386 309.128Z" fill="white"/>
<path d="M272.304 322.56H156.386C153.111 322.56 150.45 319.896 150.45 316.618V313.698C150.45 310.422 153.114 307.758 156.386 307.758H272.304C275.579 307.758 278.24 310.422 278.24 313.698V316.618C278.24 319.896 275.579 322.56 272.304 322.56ZM156.386 310.501C154.624 310.501 153.187 311.936 153.187 313.698V316.618C153.187 318.382 154.621 319.817 156.386 319.817H272.304C274.066 319.817 275.5 318.382 275.5 316.618V313.698C275.5 311.936 274.066 310.501 272.304 310.501H156.386Z" fill="#191919"/>
<path d="M129.452 250.582H221.118C223.641 250.582 226.354 252.314 227.176 254.453L246.972 305.861C247.794 307.995 244.292 312.711 241.766 312.711H150.11C147.588 312.711 144.872 310.982 144.052 308.843L124.26 257.471C123.442 255.331 126.926 250.582 129.452 250.582Z" fill="white"/>
<path d="M241.769 314.081H150.113C147.023 314.081 143.8 311.996 142.776 309.335L122.986 257.963C122.24 256.019 123.619 253.681 124.246 252.765C125.425 251.047 127.41 249.212 129.452 249.212H221.118C224.209 249.212 227.432 251.3 228.455 253.961L248.251 305.369C248.992 307.293 247.629 309.604 247.01 310.509C245.829 312.235 243.827 314.081 241.769 314.081ZM129.452 251.952C128.8 251.952 127.521 252.836 126.505 254.317C125.628 255.598 125.414 256.644 125.541 256.978L145.331 308.351C145.956 309.971 148.145 311.341 150.113 311.341H241.769C242.432 311.341 243.73 310.449 244.753 308.957C245.611 307.704 245.823 306.682 245.696 306.356L225.9 254.948C225.276 253.325 223.087 251.955 221.118 251.955H129.452V251.952Z" fill="#191919"/>
<path d="M7.69548 321.595H468.307C471.577 321.595 474.224 324.248 474.224 327.518V329.296C474.224 332.569 471.577 335.22 468.307 335.22H7.69548C4.42613 335.22 1.77588 332.566 1.77588 329.296V327.518C1.77588 324.248 4.42613 321.595 7.69548 321.595Z" fill="#191919"/>
<path d="M468.307 337H7.69549C3.45131 337 0 333.545 0 329.299V327.521C0 323.275 3.45131 319.82 7.69549 319.82H468.307C472.549 319.82 476 323.275 476 327.521V329.299C476 333.545 472.549 337 468.307 337ZM7.69549 323.373C5.40911 323.373 3.55177 325.232 3.55177 327.518V329.296C3.55177 331.582 5.41183 333.444 7.69549 333.444H468.307C470.591 333.444 472.448 331.585 472.448 329.296V327.518C472.448 325.232 470.591 323.373 468.307 323.373H7.69549Z" fill="#191919"/>
<path fill-rule="evenodd" clip-rule="evenodd" d="M350.41 73.8672C353.022 73.5355 354.999 74.3619 355.985 76.1914C357.334 78.7005 356.036 81.9816 354.22 83.6317C351.977 85.6677 348.227 85.211 346.323 83.7241C345.623 83.1777 344.618 82.1365 344.466 80.2826C344.325 78.5591 344.822 76.4687 345.859 75.6314C346.157 75.3922 346.679 75.452 347.347 75.1666C348.419 74.7099 348.824 73.9895 350.225 73.8644C350.285 73.8617 350.347 73.8753 350.41 73.8672ZM347.808 79.6329C347.602 81.4134 350.402 82.2697 351.803 81.3074C352.854 80.587 352.984 79.3801 353.104 77.9611C351.607 75.8163 347.985 78.1187 347.808 79.6329Z" fill="#B5E6EB"/>
<path fill-rule="evenodd" clip-rule="evenodd" d="M356.169 85.3985C358.64 85.0506 361.019 86.1026 361.744 88.0028C363.596 92.8687 355.86 94.845 353.568 91.814C353.171 91.292 352.52 89.5849 353.011 88.0028C353.19 87.4238 353.446 87.6303 353.94 86.9779C354.293 86.5131 354.247 86.0564 354.684 85.771C355.078 85.51 355.488 85.4937 356.169 85.3985ZM356.354 89.8622C357.152 90.0633 358.39 90.0062 358.583 89.3049C358.393 88.435 355.479 88.1767 356.354 89.8622Z" fill="#B5E6EB"/>
<path fill-rule="evenodd" clip-rule="evenodd" d="M391.841 133.667C392.67 132.457 393.205 131.054 394.255 129.853C395.127 128.858 396.482 127.469 398.157 127.526C399.7 127.58 400.718 128.844 400.851 130.037C401.248 133.62 396.8 135.561 394.348 136.548C393.908 138.185 393.069 139.661 393.699 141.292C394.546 143.496 399.233 143.733 401.408 144.453C403.732 145.222 406.803 146.962 408.096 148.544C409.323 150.048 409.464 152.502 408.375 154.498C408.109 154.984 407.311 155.637 407.354 156.449C407.452 158.399 411.058 157.564 411.164 159.703C411.276 161.984 408.34 161.383 407.17 160.821C405.459 159.997 403.537 158.265 404.104 155.52C404.354 154.316 405.913 152.894 405.869 151.613C405.807 149.738 401.617 148.02 400.018 147.522C397.389 146.701 394.459 146.465 392.585 145.106C390.533 143.613 389.52 140.59 390.633 137.2C384.559 137.29 380.209 133.571 380.507 127.621C380.947 118.819 390.31 115.82 394.999 111.253C394.326 110.498 393.321 109.302 392.213 109.117C391.296 108.962 390.519 109.402 389.892 108.929C388.29 107.725 390.025 105.893 391.564 105.768C392.192 105.716 392.871 105.814 393.329 105.952C395.228 106.534 398.041 108.793 398.345 110.324C398.405 110.62 398.375 111.737 398.345 111.906C397.989 113.841 395.054 115.766 393.142 117.019C389.824 119.199 385.675 121.572 384.225 125.761C382.547 130.597 386.256 134.863 391.841 133.667Z" fill="#B5E6EB"/>
<path fill-rule="evenodd" clip-rule="evenodd" d="M288.075 180.91C288.884 180.714 289.927 181.116 290.12 182.027C290.386 183.299 289.479 184.753 289.376 186.398C289.275 187.996 289.164 189.788 287.146 189.282C285.194 188.793 286.22 182.807 287.054 181.562C287.247 181.274 287.659 181.01 288.075 180.91Z" fill="#8256E1"/>
<path fill-rule="evenodd" clip-rule="evenodd" d="M278.601 183.141C280.616 182.753 280.57 184.889 280.923 186.583C281.197 187.89 281.775 189.125 281.387 190.117C281.072 190.919 279.673 191.422 278.785 190.766C278.251 190.372 277.042 185.311 277.393 184.163C277.572 183.579 278.022 183.253 278.601 183.141Z" fill="#8256E1"/>
<path fill-rule="evenodd" clip-rule="evenodd" d="M399.086 189.837C401.147 189.364 404.446 192.506 404.381 194.396C404.343 195.486 403.36 196.26 402.432 196.907C401.449 197.59 400.2 198.794 398.714 198.49C397.837 198.307 395.084 195.592 394.905 194.583C394.614 192.928 395.779 192.452 396.762 191.607C397.538 190.941 398.079 190.071 399.086 189.837ZM398.809 194.116C398.891 194.499 399.219 194.635 399.553 194.765C400.419 194.42 400.653 193.827 399.738 193.371C399.42 193.613 399.225 193.972 398.809 194.116Z" fill="#8256E1"/>
<path fill-rule="evenodd" clip-rule="evenodd" d="M268.38 190.024C270.121 189.676 270.941 192.022 272.374 192.721C273.36 193.202 274.335 193.156 274.324 194.488C274.311 196.119 272.326 196.445 270.979 195.79C269.724 195.178 267.044 193.001 267.077 191.511C267.101 190.633 267.739 190.152 268.38 190.024Z" fill="#8256E1"/>
<path fill-rule="evenodd" clip-rule="evenodd" d="M157.274 194.953C160.842 194.469 164.328 198.443 162.941 202.205C161.344 206.53 155.24 207.134 153.187 203.135C151.381 199.62 153.592 195.453 157.274 194.953ZM157.553 202.578C158.498 202.643 159.791 201.548 159.875 200.626C159.997 199.283 158.759 198.068 157.553 198.302C155.536 198.691 155.34 202.423 157.553 202.578Z" fill="#B5E6EB"/>
<path fill-rule="evenodd" clip-rule="evenodd" d="M168.7 212.995C167.994 212.321 167.419 211.853 167.587 210.298C167.812 208.205 170.014 206.264 172.325 206.484C174.166 206.661 176.407 208.341 176.692 210.203C177.088 212.786 174.557 215.267 171.769 215.412C170.416 215.482 168.336 214.824 168.7 212.995ZM170.837 211.878C171.934 212.361 172.939 211.543 173.346 210.763C172.605 209.374 170.468 209.749 170.837 211.878Z" fill="#B5E6EB"/>
<path fill-rule="evenodd" clip-rule="evenodd" d="M240.14 213.925C241.973 213.658 242.516 216.325 242.649 217.738C243.04 221.944 241.237 224.657 238.282 225.736C235.513 226.75 233.028 225.255 231.315 223.784C230.783 223.328 229.544 221.767 228.341 221.737C227.125 221.707 226.278 222.827 226.017 223.319C225.314 224.657 225.384 226.443 225.181 227.875C224.439 233.127 222.419 237.2 216.171 236.898C214.43 236.813 212.565 236.21 211.153 235.688C209.605 235.12 208.025 234.081 206.51 234.198C205.434 234.285 204.253 235.321 204 236.338C203.762 237.306 204.31 238.252 203.816 239.034C203.58 239.407 202.985 239.758 202.515 239.779C200.65 239.861 200.275 237.46 200.75 235.501C201.356 233.002 203.797 230.906 206.602 230.849C210.86 230.765 215.555 235.775 219.886 232.616C222.579 230.651 221.314 225.285 222.951 221.922C223.913 219.949 226.15 217.953 229.27 218.481C230.701 218.723 231.763 219.723 232.8 220.62C233.794 221.479 234.978 222.759 236.33 222.759C237.957 222.759 239.043 221.324 239.303 220.155C239.762 218.097 237.243 214.343 240.14 213.925Z" fill="#B5E6EB"/>
</svg>
