<svg width="460" height="300" viewBox="0 0 460 300" fill="none" xmlns="http://www.w3.org/2000/svg">
<path fill-rule="evenodd" clip-rule="evenodd" d="M43.1002 195.953C50.8615 164.273 71.7889 168.637 100.791 165.354C129.792 162.071 106.87 95.5349 125.207 59.3762C141.744 26.7689 181.845 25.6831 222.361 34.8804C268.046 45.2498 286.811 54.8534 301.289 34.794C346.19 -27.4179 425.835 0.538264 444.357 65.5637C456.43 107.954 451.967 171.868 398.016 199.047C351.244 222.609 336.182 198.197 327.257 233.599C318.328 269.013 253.049 303.766 208.609 285.601C164.168 267.435 164.727 278.649 141.288 282.42C117.848 286.191 35.3388 227.634 43.1002 195.953Z" fill="#8256E1"/>
<path d="M432.073 205.083L424.159 212.992L426.179 215.011L434.093 207.102L432.073 205.083Z" fill="#8256E1"/>
<path d="M426.167 205.054L424.148 207.074L432.061 214.983L434.081 212.963L426.167 205.054Z" fill="#8256E1"/>
<path fill-rule="evenodd" clip-rule="evenodd" d="M96.9111 179.704C122.059 179.704 142.447 200.084 142.447 225.226C142.447 250.366 122.059 270.748 96.9111 270.748C71.7609 270.748 51.3754 250.366 51.3754 225.226C51.3754 200.084 71.7632 179.704 96.9111 179.704Z" fill="#B5E6EB"/>
<path fill-rule="evenodd" clip-rule="evenodd" d="M337.195 108.697C356.917 108.697 372.905 124.682 372.905 144.396C372.905 164.114 356.917 180.097 337.195 180.097C317.471 180.097 301.483 164.112 301.483 144.396C301.483 124.682 317.471 108.697 337.195 108.697Z" fill="#B5E6EB"/>
<path fill-rule="evenodd" clip-rule="evenodd" d="M418.576 232.789C430.6 232.789 440.349 242.535 440.349 254.558C440.349 266.575 430.6 276.324 418.576 276.324C406.55 276.324 396.803 266.575 396.803 254.558C396.803 242.537 406.55 232.789 418.576 232.789Z" fill="#8256E1"/>
<path d="M43.4038 259.006C30.7422 259.006 19.9586 257.819 14.7641 254.464C12.7531 253.166 11.5432 251.553 11.1719 249.668C10.2563 245.031 14.6216 239.668 24.5177 233.268C33.4703 227.479 46.718 220.946 63.8944 213.848C99.7722 199.024 150.631 182.747 207.104 168.011C263.326 153.343 319.984 141.652 366.643 135.093C400.622 130.318 443.724 126.272 456.108 134.124C458.24 135.476 459.511 137.176 459.884 139.175C460.942 144.825 454.765 151.216 440.445 159.285C428.028 166.283 410.056 174.175 387.026 182.74C341.32 199.738 280.301 217.586 219.617 231.708C167.382 243.864 120.036 252.433 82.6987 256.493C70.1469 257.855 55.8644 259.006 43.4038 259.006ZM428.547 134.038C413.386 134.038 392.515 135.826 367.243 139.38C320.743 145.916 264.258 157.574 208.193 172.2C151.904 186.887 101.244 203.098 65.5433 217.848C27.1593 233.709 14.5492 244.45 15.4134 248.83C15.5488 249.516 16.1187 250.189 17.1091 250.829C20.9442 253.306 29.7706 254.635 43.1188 254.635C76.1565 254.635 136.942 246.502 218.629 227.491C279.143 213.409 339.97 195.619 385.51 178.682C454.344 153.082 455.991 141.942 455.622 139.971C455.477 139.198 454.858 138.463 453.781 137.778C449.846 135.28 441.18 134.038 428.547 134.038Z" fill="#191919"/>
<path d="M219.166 207.226C219.065 208.328 218.087 209.141 216.98 209.041C215.875 208.94 215.057 207.967 215.155 206.862C215.254 205.76 216.232 204.945 217.342 205.046C218.451 205.146 219.266 206.122 219.166 207.226Z" fill="#191919"/>
<path d="M227.985 208.053C227.88 209.155 226.897 209.963 225.792 209.858C224.687 209.753 223.874 208.774 223.977 207.672C224.08 206.57 225.063 205.76 226.173 205.865C227.28 205.973 228.09 206.951 227.985 208.053Z" fill="#191919"/>
<path d="M236.8 208.922C236.688 210.024 235.702 210.827 234.597 210.717C233.493 210.605 232.684 209.627 232.792 208.522C232.902 207.42 233.887 206.615 234.994 206.724C236.104 206.836 236.912 207.819 236.8 208.922Z" fill="#191919"/>
<path d="M245.612 209.83C245.496 210.932 244.508 211.73 243.403 211.616C242.298 211.499 241.495 210.516 241.609 209.414C241.723 208.312 242.711 207.511 243.819 207.628C244.926 207.74 245.729 208.728 245.612 209.83Z" fill="#191919"/>
<path d="M254.42 210.776C254.298 211.875 253.306 212.671 252.201 212.55C251.096 212.429 250.298 211.441 250.417 210.339C250.536 209.239 251.528 208.441 252.636 208.562C253.743 208.686 254.541 209.676 254.42 210.776Z" fill="#191919"/>
<path d="M263.223 211.763C263.097 212.863 262.1 213.654 260.997 213.528C259.895 213.402 259.098 212.412 259.222 211.31C259.346 210.21 260.343 209.416 261.448 209.543C262.555 209.669 263.349 210.661 263.223 211.763Z" fill="#191919"/>
<path d="M272.021 212.788C271.891 213.888 270.891 214.675 269.786 214.544C268.684 214.413 267.894 213.419 268.023 212.316C268.151 211.217 269.151 210.428 270.258 210.561C271.363 210.691 272.152 211.688 272.021 212.788Z" fill="#191919"/>
<path d="M280.815 213.855C280.68 214.955 279.675 215.735 278.573 215.599C277.47 215.464 276.686 214.465 276.819 213.365C276.952 212.265 277.956 211.483 279.061 211.618C280.166 211.754 280.951 212.755 280.815 213.855Z" fill="#191919"/>
<path d="M289.604 214.964C289.462 216.062 288.455 216.837 287.353 216.699C286.25 216.559 285.47 215.555 285.61 214.455C285.748 213.356 286.757 212.578 287.862 212.72C288.964 212.861 289.744 213.867 289.604 214.964Z" fill="#191919"/>
<path d="M298.386 216.115C298.239 217.213 297.228 217.983 296.128 217.838C295.028 217.694 294.252 216.685 294.395 215.588C294.539 214.49 295.551 213.717 296.653 213.862C297.758 214.007 298.533 215.018 298.386 216.115Z" fill="#191919"/>
<path d="M307.164 217.311C307.012 218.408 305.996 219.174 304.896 219.022C303.796 218.873 303.025 217.86 303.174 216.762C303.324 215.665 304.34 214.897 305.442 215.048C306.547 215.2 307.318 216.213 307.164 217.311Z" fill="#191919"/>
<path d="M315.936 218.551C315.777 219.646 314.759 220.407 313.659 220.251C312.559 220.094 311.795 219.078 311.949 217.981C312.103 216.886 313.124 216.12 314.226 216.279C315.329 216.438 316.093 217.453 315.936 218.551Z" fill="#191919"/>
<path d="M324.699 219.837C324.536 220.932 323.513 221.687 322.413 221.525C321.315 221.362 320.556 220.344 320.715 219.247C320.876 218.152 321.899 217.393 323.001 217.558C324.104 217.72 324.863 218.742 324.699 219.837Z" fill="#191919"/>
<path d="M333.456 221.175C333.285 222.27 332.258 223.017 331.16 222.849C330.062 222.681 329.308 221.656 329.476 220.561C329.644 219.466 330.672 218.717 331.772 218.885C332.874 219.055 333.626 220.08 333.456 221.175Z" fill="#191919"/>
<path d="M342.205 222.564C342.028 223.657 340.995 224.4 339.9 224.225C338.804 224.047 338.057 223.022 338.23 221.927C338.403 220.834 339.437 220.087 340.535 220.265C341.635 220.442 342.383 221.472 342.205 222.564Z" fill="#191919"/>
<path d="M350.943 224.012C350.758 225.105 349.721 225.838 348.626 225.656C347.53 225.474 346.79 224.439 346.972 223.347C347.152 222.254 348.191 221.516 349.289 221.701C350.389 221.883 351.13 222.919 350.943 224.012Z" fill="#191919"/>
<path d="M359.674 225.518C359.48 226.609 358.438 227.335 357.345 227.146C356.252 226.954 355.518 225.917 355.708 224.825C355.897 223.734 356.939 223.001 358.036 223.195C359.134 223.386 359.865 224.428 359.674 225.518Z" fill="#191919"/>
<path d="M368.39 227.094C368.189 228.182 367.14 228.904 366.05 228.703C364.959 228.502 364.233 227.461 364.429 226.37C364.625 225.28 365.674 224.556 366.771 224.757C367.867 224.958 368.591 226.004 368.39 227.094Z" fill="#191919"/>
<path d="M377.093 228.74C376.88 229.828 375.827 230.538 374.738 230.328C373.65 230.12 372.933 229.07 373.139 227.982C373.344 226.893 374.4 226.179 375.495 226.389C376.591 226.602 377.305 227.655 377.093 228.74Z" fill="#191919"/>
<path d="M385.781 230.47C385.559 231.556 384.497 232.257 383.411 232.035C382.325 231.815 381.617 230.76 381.834 229.672C382.051 228.586 383.112 227.883 384.205 228.103C385.298 228.327 386.003 229.387 385.781 230.47Z" fill="#191919"/>
<path d="M394.449 232.296C394.213 233.378 393.146 234.066 392.062 233.833C390.978 233.599 390.284 232.537 390.513 231.454C390.742 230.37 391.812 229.677 392.903 229.91C393.991 230.146 394.685 231.215 394.449 232.296Z" fill="#191919"/>
<path d="M403.093 234.234C402.841 235.313 401.764 235.983 400.685 235.738C399.606 235.491 398.926 234.419 399.167 233.338C399.41 232.257 400.489 231.577 401.577 231.827C402.666 232.075 403.343 233.156 403.093 234.234Z" fill="#191919"/>
<path d="M411.705 236.306C411.434 237.38 410.348 238.031 409.271 237.77C408.197 237.503 407.533 236.425 407.792 235.346C408.052 234.269 409.142 233.606 410.226 233.875C411.315 234.139 411.976 235.231 411.705 236.306Z" fill="#191919"/>
<path d="M420.276 238.547C419.982 239.616 418.882 240.242 417.815 239.957C416.75 239.67 416.107 238.577 416.388 237.503C416.668 236.434 417.773 235.789 418.854 236.081C419.933 236.371 420.568 237.48 420.276 238.547Z" fill="#191919"/>
<path d="M428.783 241.013C428.456 242.07 427.337 242.666 426.281 242.348C425.226 242.035 424.616 240.922 424.924 239.859C425.233 238.795 426.356 238.187 427.43 238.507C428.505 238.827 429.11 239.953 428.783 241.013Z" fill="#191919"/>
<path d="M437.189 243.801C436.808 244.844 435.671 245.381 434.634 245.026C433.599 244.669 433.036 243.534 433.384 242.484C433.732 241.431 434.881 240.868 435.946 241.237C437.014 241.603 437.567 242.762 437.189 243.801Z" fill="#191919"/>
<path d="M445.394 247.133C444.92 248.134 443.75 248.576 442.759 248.146C441.769 247.716 441.286 246.556 441.701 245.526C442.115 244.501 443.306 244.011 444.355 244.466C445.406 244.924 445.868 246.131 445.394 247.133Z" fill="#191919"/>
<path d="M452.95 251.7C452.583 252.111 452.083 252.347 451.602 252.414C451.114 252.484 450.626 252.393 450.215 252.101C449.395 251.527 449.112 250.329 449.673 249.369C450.231 248.417 451.513 248.116 452.518 248.816C453.013 249.166 453.324 249.687 453.401 250.219C453.475 250.759 453.321 251.284 452.95 251.7Z" fill="#191919"/>
<path d="M453.216 259.041C452.889 258.599 452.754 258.062 452.747 257.6C452.726 257.126 452.819 256.727 452.992 256.477C453.162 256.225 453.44 256.155 453.835 256.031C454.232 255.924 454.744 255.746 455.29 255.753C455.844 255.758 456.358 256.036 456.605 256.64C456.864 257.236 456.752 258.114 456.283 258.772C455.816 259.435 455.164 259.725 454.608 259.741C454.036 259.744 453.55 259.489 453.216 259.041Z" fill="#191919"/>
<path d="M445.095 262.457C444.812 261.385 445.422 260.297 446.426 259.982C447.428 259.667 448.528 260.208 448.932 261.24C449.336 262.272 448.753 263.456 447.631 263.809C446.513 264.159 445.378 263.526 445.095 262.457Z" fill="#191919"/>
<path d="M436.427 264.266C436.252 263.174 436.983 262.146 438.055 261.952C439.127 261.761 440.167 262.464 440.389 263.552C440.611 264.635 439.884 265.7 438.768 265.901C437.651 266.099 436.603 265.359 436.427 264.266Z" fill="#191919"/>
<path d="M427.65 265.446C427.531 264.346 428.32 263.353 429.411 263.223C430.502 263.092 431.502 263.865 431.649 264.962C431.796 266.06 431.009 267.071 429.89 267.204C428.771 267.339 427.769 266.548 427.65 265.446Z" fill="#191919"/>
<path d="M418.828 266.265C418.744 265.161 419.569 264.196 420.667 264.105C421.767 264.014 422.738 264.824 422.839 265.929C422.942 267.031 422.117 268.009 421.001 268.103C419.886 268.196 418.912 267.37 418.828 266.265Z" fill="#191919"/>
<path d="M409.99 266.839C409.932 265.735 410.78 264.787 411.882 264.724C412.985 264.656 413.938 265.499 414.01 266.604C414.082 267.71 413.234 268.661 412.118 268.728C411.002 268.791 410.049 267.946 409.99 266.839Z" fill="#191919"/>
<path d="M401.14 267.232C401.101 266.125 401.967 265.193 403.072 265.151C404.177 265.107 405.113 265.966 405.162 267.071C405.212 268.177 404.347 269.111 403.231 269.158C402.114 269.202 401.18 268.338 401.14 267.232Z" fill="#191919"/>
<path d="M392.286 267.482C392.263 266.372 393.143 265.459 394.25 265.431C395.357 265.406 396.28 266.277 396.313 267.383C396.343 268.49 395.465 269.415 394.348 269.441C393.232 269.469 392.309 268.588 392.286 267.482Z" fill="#191919"/>
<path d="M383.429 267.615C383.42 266.508 384.31 265.602 385.419 265.588C386.529 265.574 387.44 266.461 387.456 267.568C387.472 268.677 386.582 269.585 385.466 269.599C384.35 269.613 383.439 268.724 383.429 267.615Z" fill="#191919"/>
<path d="M374.57 267.65C374.573 266.543 375.472 265.644 376.581 265.644C377.691 265.642 378.592 266.538 378.597 267.645C378.601 268.752 377.7 269.653 376.586 269.655C375.469 269.655 374.568 268.756 374.57 267.65Z" fill="#191919"/>
<path d="M365.711 267.598C365.723 266.492 366.631 265.602 367.741 265.611C368.85 265.618 369.742 266.524 369.738 267.631C369.731 268.738 368.822 269.63 367.708 269.623C366.594 269.611 365.699 268.705 365.711 267.598Z" fill="#191919"/>
<path d="M356.854 267.47C356.875 266.363 357.791 265.483 358.9 265.499C360.01 265.518 360.895 266.428 360.881 267.535C360.865 268.644 359.949 269.527 358.835 269.508C357.721 269.492 356.833 268.577 356.854 267.47Z" fill="#191919"/>
<path d="M347.998 267.271C348.026 266.165 348.948 265.291 350.058 265.317C351.167 265.345 352.048 266.26 352.022 267.37C351.999 268.476 351.074 269.354 349.962 269.326C348.848 269.301 347.97 268.381 347.998 267.271Z" fill="#191919"/>
<path d="M339.143 267.012C339.18 265.905 340.108 265.037 341.217 265.072C342.327 265.105 343.2 266.029 343.167 267.138C343.135 268.245 342.205 269.116 341.093 269.081C339.979 269.046 339.108 268.121 339.143 267.012Z" fill="#191919"/>
<path d="M330.291 266.697C330.335 265.59 331.27 264.729 332.379 264.771C333.489 264.813 334.355 265.742 334.315 266.849C334.276 267.956 333.341 268.822 332.227 268.78C331.116 268.735 330.249 267.804 330.291 266.697Z" fill="#191919"/>
<path d="M321.441 266.326C321.49 265.219 322.432 264.362 323.539 264.411C324.648 264.458 325.51 265.394 325.463 266.501C325.417 267.608 324.478 268.467 323.366 268.418C322.252 268.369 321.39 267.432 321.441 266.326Z" fill="#191919"/>
<path d="M312.592 265.905C312.648 264.799 313.591 263.946 314.701 264.002C315.81 264.058 316.665 264.997 316.613 266.104C316.56 267.211 315.616 268.065 314.504 268.009C313.393 267.953 312.536 267.012 312.592 265.905Z" fill="#191919"/>
<path d="M303.746 265.436C303.81 264.329 304.758 263.484 305.865 263.545C306.974 263.606 307.825 264.551 307.766 265.656C307.708 266.762 306.759 267.61 305.648 267.549C304.536 267.489 303.686 266.541 303.746 265.436Z" fill="#191919"/>
<path d="M294.904 264.92C294.971 263.813 295.924 262.973 297.034 263.041C298.143 263.106 298.989 264.056 298.923 265.161C298.858 266.267 297.905 267.11 296.793 267.043C295.681 266.977 294.836 266.025 294.904 264.92Z" fill="#191919"/>
<path d="M286.063 264.36C286.136 263.255 287.093 262.417 288.203 262.489C289.31 262.56 290.153 263.515 290.083 264.619C290.013 265.723 289.055 266.564 287.944 266.492C286.832 266.422 285.991 265.467 286.063 264.36Z" fill="#191919"/>
<path d="M277.225 263.76C277.305 262.655 278.265 261.822 279.372 261.899C280.479 261.976 281.317 262.933 281.24 264.038C281.165 265.142 280.203 265.978 279.094 265.901C277.984 265.821 277.146 264.864 277.225 263.76Z" fill="#191919"/>
<path d="M268.39 263.115C268.474 262.011 269.438 261.182 270.545 261.266C271.652 261.35 272.486 262.31 272.405 263.414C272.325 264.519 271.358 265.35 270.249 265.266C269.139 265.182 268.305 264.22 268.39 263.115Z" fill="#191919"/>
<path d="M259.558 262.431C259.647 261.327 260.616 260.502 261.724 260.591C262.831 260.68 263.66 261.642 263.573 262.746C263.487 263.851 262.518 264.677 261.408 264.588C260.296 264.5 259.47 263.535 259.558 262.431Z" fill="#191919"/>
<path d="M250.73 261.705C250.823 260.603 251.795 259.781 252.902 259.874C254.009 259.968 254.833 260.934 254.742 262.039C254.651 263.143 253.68 263.965 252.57 263.872C251.461 263.781 250.636 262.809 250.73 261.705Z" fill="#191919"/>
<path d="M241.903 260.941C242.001 259.839 242.978 259.024 244.085 259.12C245.192 259.218 246.009 260.19 245.916 261.294C245.82 262.398 244.844 263.216 243.734 263.115C242.625 263.02 241.805 262.046 241.903 260.941Z" fill="#191919"/>
<path d="M233.081 260.138C233.184 259.036 234.165 258.226 235.27 258.326C236.375 258.429 237.19 259.405 237.09 260.507C236.989 261.609 236.008 262.422 234.901 262.319C233.794 262.219 232.979 261.24 233.081 260.138Z" fill="#191919"/>
<path d="M224.264 259.295C224.372 258.193 225.355 257.388 226.462 257.495C227.567 257.602 228.377 258.583 228.272 259.685C228.167 260.787 227.184 261.595 226.074 261.488C224.967 261.378 224.157 260.397 224.264 259.295Z" fill="#191919"/>
<path d="M215.45 258.41C215.562 257.308 216.55 256.507 217.655 256.619C218.759 256.731 219.565 257.715 219.455 258.817C219.346 259.919 218.358 260.722 217.25 260.61C216.143 260.498 215.338 259.512 215.45 258.41Z" fill="#191919"/>
<path d="M206.64 257.488C206.756 256.388 207.749 255.59 208.854 255.706C209.959 255.823 210.76 256.811 210.645 257.913C210.531 259.015 209.538 259.814 208.431 259.697C207.324 259.58 206.523 258.59 206.64 257.488Z" fill="#191919"/>
<path d="M197.834 256.526C197.958 255.426 198.951 254.632 200.056 254.756C201.16 254.88 201.957 255.87 201.835 256.97C201.714 258.072 200.721 258.866 199.614 258.742C198.509 258.618 197.711 257.626 197.834 256.526Z" fill="#191919"/>
<path d="M189.034 255.527C189.162 254.427 190.159 253.64 191.262 253.764C192.364 253.89 193.158 254.885 193.032 255.984C192.906 257.084 191.909 257.876 190.804 257.75C189.697 257.623 188.905 256.626 189.034 255.527Z" fill="#191919"/>
<path d="M180.238 254.488C180.368 253.388 181.37 252.603 182.475 252.736C183.58 252.87 184.367 253.867 184.236 254.966C184.105 256.066 183.103 256.851 181.999 256.717C180.894 256.584 180.107 255.587 180.238 254.488Z" fill="#191919"/>
<path d="M171.444 253.409C171.582 252.309 172.586 251.532 173.688 251.669C174.791 251.805 175.575 252.804 175.44 253.904C175.305 255.004 174.3 255.784 173.195 255.648C172.088 255.51 171.306 254.506 171.444 253.409Z" fill="#191919"/>
<path d="M162.655 252.291C162.797 251.193 163.806 250.416 164.909 250.558C166.011 250.7 166.789 251.704 166.649 252.804C166.509 253.904 165.5 254.679 164.395 254.537C163.293 254.394 162.512 253.388 162.655 252.291Z" fill="#191919"/>
<path d="M153.875 251.125C154.025 250.028 155.036 249.257 156.136 249.407C157.236 249.554 158.012 250.565 157.864 251.662C157.72 252.762 156.706 253.533 155.604 253.383C154.501 253.231 153.726 252.223 153.875 251.125Z" fill="#191919"/>
<path d="M145.1 249.916C145.254 248.818 146.27 248.055 147.37 248.209C148.47 248.361 149.239 249.372 149.087 250.469C148.935 251.567 147.919 252.333 146.817 252.181C145.714 252.029 144.944 251.013 145.1 249.916Z" fill="#191919"/>
<path d="M136.33 248.662C136.491 247.565 137.512 246.81 138.609 246.967C139.71 247.126 140.471 248.141 140.314 249.239C140.158 250.336 139.137 251.095 138.035 250.936C136.932 250.78 136.169 249.757 136.33 248.662Z" fill="#191919"/>
<path d="M127.569 247.357C127.735 246.262 128.76 245.508 129.858 245.673C130.955 245.839 131.712 246.859 131.549 247.955C131.385 249.05 130.36 249.804 129.26 249.638C128.16 249.475 127.401 248.452 127.569 247.357Z" fill="#191919"/>
<path d="M118.817 245.998C118.99 244.903 120.018 244.156 121.118 244.328C122.215 244.501 122.967 245.528 122.795 246.621C122.622 247.716 121.592 248.463 120.494 248.291C119.396 248.12 118.647 247.093 118.817 245.998Z" fill="#191919"/>
<path d="M110.07 244.583C110.25 243.49 111.285 242.75 112.38 242.93C113.475 243.11 114.221 244.142 114.043 245.234C113.865 246.329 112.831 247.07 111.733 246.887C110.633 246.708 109.89 245.676 110.07 244.583Z" fill="#191919"/>
<path d="M101.337 243.107C101.526 242.017 102.566 241.284 103.659 241.47C104.752 241.659 105.49 242.694 105.305 243.787C105.121 244.879 104.082 245.615 102.981 245.426C101.884 245.237 101.148 244.198 101.337 243.107Z" fill="#191919"/>
<path d="M92.6134 241.564C92.8119 240.473 93.856 239.75 94.949 239.946C96.0421 240.142 96.7708 241.185 96.577 242.274C96.3831 243.366 95.3391 244.09 94.2413 243.894C93.1436 243.698 92.4149 242.654 92.6134 241.564Z" fill="#191919"/>
<path d="M83.9038 239.95C84.1117 238.862 85.1627 238.145 86.2535 238.351C87.3442 238.556 88.0636 239.605 87.8604 240.693C87.6595 241.781 86.6062 242.498 85.5107 242.292C84.4153 242.087 83.6959 241.038 83.9038 239.95Z" fill="#191919"/>
<path d="M75.2105 238.253C75.4277 237.167 76.4858 236.467 77.5742 236.679C78.6626 236.894 79.3726 237.949 79.1601 239.035C78.9475 240.123 77.8895 240.828 76.7964 240.613C75.701 240.399 74.9909 239.339 75.2105 238.253Z" fill="#191919"/>
<path d="M66.5337 236.464C66.765 235.381 67.83 234.69 68.9137 234.919C69.9998 235.145 70.6982 236.205 70.474 237.288C70.2498 238.372 69.1823 239.07 68.0916 238.844C67.0008 238.612 66.3025 237.548 66.5337 236.464Z" fill="#191919"/>
<path d="M57.8801 234.571C58.1254 233.492 59.1998 232.812 60.2812 233.053C61.3626 233.293 62.0469 234.368 61.811 235.446C61.5728 236.53 60.4984 237.209 59.41 236.966C58.3192 236.726 57.6349 235.652 57.8801 234.571Z" fill="#191919"/>
<path d="M49.2568 232.549C49.5184 231.472 50.6045 230.811 51.6789 231.071C52.7556 231.327 53.426 232.404 53.1714 233.483C52.9191 234.559 51.833 235.231 50.747 234.97C49.6609 234.711 48.9929 233.625 49.2568 232.549Z" fill="#191919"/>
<path d="M40.6687 230.377C40.9536 229.305 42.0491 228.668 43.1188 228.946C44.1909 229.219 44.8378 230.312 44.5669 231.386C44.2959 232.46 43.1959 233.107 42.1145 232.829C41.0307 232.546 40.3837 231.447 40.6687 230.377Z" fill="#191919"/>
<path d="M32.132 228.009C32.445 226.947 33.5567 226.333 34.6148 226.641C35.6775 226.94 36.2988 228.047 36.0021 229.114C35.7055 230.181 34.5914 230.802 33.5147 230.498C32.4403 230.186 31.8213 229.072 32.132 228.009Z" fill="#191919"/>
<path d="M23.6769 225.373C24.0296 224.325 25.1577 223.758 26.2064 224.094C27.2505 224.435 27.8367 225.555 27.5074 226.611C27.178 227.669 26.0406 228.259 24.9732 227.909C23.9011 227.566 23.3242 226.424 23.6769 225.373Z" fill="#191919"/>
<path d="M15.3596 222.331C15.78 221.304 16.9315 220.813 17.9522 221.199C18.9682 221.595 19.496 222.735 19.1177 223.779C18.7393 224.818 17.5691 225.355 16.5134 224.944C15.4507 224.542 14.9392 223.354 15.3596 222.331Z" fill="#191919"/>
<path d="M7.36007 218.544C7.92996 217.584 9.10947 217.243 10.0531 217.724C10.9873 218.222 11.4077 219.389 10.9313 220.398C10.4641 221.392 9.23325 221.829 8.20323 221.283C7.1662 220.757 6.79717 219.489 7.36007 218.544Z" fill="#191919"/>
<path d="M1.34342 212.412C1.61903 212.38 1.88763 212.403 2.13287 212.438C2.25666 212.457 2.36877 212.478 2.48088 212.501C2.60234 212.524 2.7168 212.55 2.82191 212.578C3.03211 212.632 3.18625 212.688 3.36376 212.776C3.44317 212.821 3.51091 212.868 3.56696 212.924C3.62535 212.982 3.70478 213.05 3.75383 213.127C3.80755 213.204 3.84726 213.29 3.87528 213.381C3.922 213.472 3.95468 213.573 3.97804 213.675C4.02709 213.883 4.01775 214.119 4.01308 214.355C3.98038 214.829 3.79585 215.347 3.41982 215.756C3.04611 216.164 2.53696 216.37 1.98108 216.335C1.70314 216.328 1.42753 216.221 1.15893 216.066C1.0258 215.987 0.892653 215.896 0.768864 215.789C0.649746 215.665 0.535313 215.527 0.432545 215.375C0.329776 215.221 0.238661 215.076 0.173263 214.904C0.110201 214.726 0.0634935 214.549 0.0331302 214.378C-0.0346036 214.049 0.00745175 213.682 0.105549 213.391C0.154597 213.243 0.217645 213.113 0.294721 212.998C0.378805 212.879 0.483913 212.776 0.591353 212.692C0.810903 212.534 1.06782 212.445 1.34342 212.412Z" fill="#191919"/>
<path d="M7.36242 206.748C7.75014 207.784 7.276 208.919 6.39546 209.349C5.93767 209.559 5.46821 209.58 4.99407 209.433C4.52461 209.283 4.08317 208.999 3.76552 208.536C3.45488 208.086 3.36615 207.516 3.52965 207.002C3.68847 206.493 4.08319 205.998 4.63674 205.744C5.75551 205.202 6.9747 205.711 7.36242 206.748Z" fill="#191919"/>
<path d="M15.8875 204.382C16.1071 205.47 15.4251 206.528 14.374 206.766C13.3253 207.009 12.2533 206.36 11.9683 205.295C11.681 204.219 12.3537 203.119 13.4701 202.86C14.5866 202.608 15.6703 203.299 15.8875 204.382Z" fill="#191919"/>
<path d="M24.6252 202.928C24.7723 204.023 24.0086 205.031 22.9272 205.195C21.8411 205.349 20.8251 204.616 20.6429 203.521C20.463 202.433 21.2198 201.387 22.3386 201.228C23.4527 201.06 24.478 201.828 24.6252 202.928Z" fill="#191919"/>
<path d="M33.4259 201.921C33.5287 203.023 32.7252 204.006 31.6275 204.116C30.5321 204.228 29.5441 203.439 29.4203 202.337C29.2965 201.237 30.1 200.24 31.2164 200.126C32.3328 200.016 33.3208 200.819 33.4259 201.921Z" fill="#191919"/>
<path d="M42.2546 201.212C42.327 202.314 41.4932 203.273 40.3931 203.355C39.2907 203.432 38.3284 202.61 38.2396 201.506C38.1509 200.401 38.9847 199.432 40.1011 199.353C41.2152 199.271 42.1799 200.105 42.2546 201.212Z" fill="#191919"/>
<path d="M51.0974 200.71C51.1488 201.814 50.294 202.757 49.1892 202.813C48.0844 202.867 47.1385 202.022 47.0754 200.917C47.0124 199.811 47.8672 198.863 48.9837 198.809C50.1024 198.753 51.0483 199.603 51.0974 200.71Z" fill="#191919"/>
<path d="M59.9495 200.373C59.9822 201.48 59.111 202.407 58.0039 202.442C56.8968 202.477 55.9672 201.618 55.9252 200.511C55.8831 199.407 56.7543 198.47 57.8684 198.433C58.9872 198.398 59.9168 199.267 59.9495 200.373Z" fill="#191919"/>
<path d="M68.8063 200.166C68.8249 201.272 67.9397 202.183 66.8326 202.209C65.7255 202.232 64.8053 201.352 64.7796 200.245C64.7539 199.138 65.6368 198.221 66.7532 198.2C67.8696 198.174 68.7876 199.059 68.8063 200.166Z" fill="#191919"/>
<path d="M77.663 200.072C77.6677 201.179 76.7731 202.082 75.666 202.089C74.5566 202.099 73.648 201.212 73.6363 200.102C73.6247 198.996 74.5192 198.085 75.6333 198.078C76.7498 198.071 77.6583 198.963 77.663 200.072Z" fill="#191919"/>
<path d="M86.5221 200.07C86.5175 201.177 85.6136 202.073 84.5041 202.068C83.3947 202.064 82.4955 201.165 82.4955 200.058C82.4955 198.949 83.3994 198.052 84.5135 198.057C85.6299 198.062 86.5291 198.963 86.5221 200.07Z" fill="#191919"/>
<path d="M95.3789 200.151C95.3626 201.258 94.4516 202.146 93.3422 202.132C92.2328 202.117 91.3429 201.209 91.3522 200.102C91.3639 198.996 92.2748 198.108 93.3889 198.12C94.5054 198.136 95.3953 199.045 95.3789 200.151Z" fill="#191919"/>
<path d="M104.238 200.313C104.212 201.419 103.294 202.297 102.185 202.276C101.076 202.255 100.193 201.34 100.214 200.231C100.232 199.124 101.153 198.244 102.267 198.265C103.379 198.286 104.261 199.204 104.238 200.313Z" fill="#191919"/>
<path d="M113.092 200.539C113.06 201.646 112.135 202.517 111.025 202.486C109.916 202.456 109.04 201.534 109.068 200.427C109.096 199.32 110.023 198.447 111.135 198.477C112.249 198.508 113.125 199.432 113.092 200.539Z" fill="#191919"/>
<path d="M121.947 200.829C121.907 201.935 120.975 202.802 119.866 202.764C118.756 202.727 117.887 201.798 117.923 200.691C117.96 199.584 118.889 198.718 120.004 198.755C121.115 198.793 121.987 199.722 121.947 200.829Z" fill="#191919"/>
<path d="M130.794 201.177C130.75 202.283 129.811 203.143 128.702 203.098C127.59 203.051 126.728 202.118 126.772 201.011C126.817 199.904 127.756 199.045 128.865 199.089C129.977 199.136 130.841 200.07 130.794 201.177Z" fill="#191919"/>
<path d="M139.646 201.578C139.593 202.685 138.649 203.539 137.542 203.486C136.432 203.432 135.575 202.493 135.624 201.389C135.676 200.282 136.617 199.428 137.729 199.479C138.843 199.533 139.7 200.474 139.646 201.578Z" fill="#191919"/>
<path d="M148.494 202.033C148.433 203.14 147.487 203.988 146.378 203.927C145.268 203.866 144.416 202.928 144.472 201.821C144.528 200.717 145.476 199.862 146.588 199.923C147.7 199.981 148.552 200.927 148.494 202.033Z" fill="#191919"/>
<path d="M157.337 202.533C157.271 203.64 156.318 204.478 155.211 204.417C154.102 204.354 153.254 203.406 153.317 202.302C153.38 201.195 154.331 200.35 155.442 200.415C156.556 200.476 157.402 201.429 157.337 202.533Z" fill="#191919"/>
<path d="M166.177 203.077C166.107 204.182 165.152 205.022 164.042 204.952C162.933 204.882 162.09 203.929 162.16 202.825C162.23 201.721 163.185 200.88 164.294 200.95C165.404 201.02 166.247 201.973 166.177 203.077Z" fill="#191919"/>
<path d="M175.017 203.67C174.94 204.775 173.98 205.608 172.873 205.534C171.766 205.456 170.928 204.502 171 203.397C171.075 202.293 172.035 201.454 173.144 201.531C174.256 201.609 175.094 202.566 175.017 203.67Z" fill="#191919"/>
<path d="M183.853 204.303C183.771 205.407 182.807 206.234 181.699 206.155C180.592 206.075 179.759 205.116 179.838 204.011C179.917 202.907 180.882 202.076 181.991 202.155C183.101 202.234 183.935 203.199 183.853 204.303Z" fill="#191919"/>
<path d="M192.684 204.975C192.598 206.08 191.631 206.906 190.521 206.82C189.412 206.734 188.583 205.769 188.669 204.665C188.756 203.56 189.723 202.734 190.832 202.82C191.939 202.907 192.768 203.871 192.684 204.975Z" fill="#191919"/>
<path d="M201.515 205.688C201.424 206.792 200.453 207.612 199.345 207.52C198.238 207.429 197.414 206.463 197.503 205.358C197.591 204.254 198.563 203.43 199.672 203.521C200.782 203.614 201.606 204.585 201.515 205.688Z" fill="#191919"/>
<path d="M210.342 206.437C210.248 207.541 209.272 208.359 208.165 208.263C207.058 208.167 206.236 207.196 206.331 206.094C206.427 204.992 207.401 204.172 208.508 204.268C209.615 204.361 210.435 205.333 210.342 206.437Z" fill="#191919"/>
<path fill-rule="evenodd" clip-rule="evenodd" d="M51.3754 226.562C54.9559 227.566 65.1113 223.933 67.9281 226.244C68.7759 226.478 69.6261 226.714 70.4646 226.98C73.1926 227.853 75.9277 228.708 78.6697 229.536C87.8932 230.043 97.1213 230.559 106.319 231.404C107.218 229.854 108.898 228.796 110.787 228.796C113.055 228.796 115.019 230.321 115.697 232.385C116.935 232.535 118.168 232.689 119.403 232.854C124.731 233.562 130.073 234.23 135.372 235.136C137.292 235.463 139.205 235.822 141.109 236.233C141.982 232.707 142.449 229.025 142.449 225.231C142.449 200.088 122.061 179.709 96.9135 179.709C73.4122 179.709 54.0684 197.506 51.6346 220.353C51.2119 222.417 51.2119 222.417 51.3754 226.562Z" fill="#B5E6EB"/>
<path fill-rule="evenodd" clip-rule="evenodd" d="M405.422 256.921C411.004 257.184 416.588 256.899 422.161 256.598C425.036 256.444 427.912 256.267 430.787 256.085C432.132 255.998 433.466 255.872 434.806 255.732C435.481 255.66 436.161 255.597 436.841 255.613C437.997 255.641 439.155 255.72 440.309 255.851C440.335 255.421 440.349 254.99 440.349 254.56C440.349 242.537 430.6 232.791 418.576 232.791C406.55 232.791 396.803 242.537 396.803 254.56C396.803 255.2 396.831 255.837 396.885 256.465C399.734 256.577 402.577 256.785 405.422 256.921Z" fill="#8256E1"/>
<path fill-rule="evenodd" clip-rule="evenodd" d="M239.516 184.3C243.059 182.037 243.326 171.836 243.326 171.836L240.556 168.289C240.556 168.289 234.91 167.304 230.426 165.347C225.944 163.388 222.634 158.51 222.634 158.51C222.634 158.51 217.141 161.132 210.947 158.597C204.752 156.066 202.246 148.421 204.886 142.588C208.576 134.428 216.573 135.922 216.573 135.922C216.573 135.922 221.086 123.916 230.167 119.22C243.351 112.4 260.995 112.741 263.412 118.641C265.83 124.542 262.632 128.997 262.632 128.997C262.632 128.997 264.16 130.846 265.921 132.546C267.682 134.246 269.123 135.317 269.123 135.317L267.997 140.162C267.997 140.162 276.226 149.434 273.799 157.212C270.697 167.152 259.428 167.771 259.428 167.771C259.428 167.771 258.185 175.635 257.438 178.588C256.69 181.544 255.532 183.819 257.783 183.954C260.035 184.092 277.526 178.934 299.858 176.945C322.189 174.951 337.515 173.741 337.515 173.741L352.146 136.7C352.146 136.7 343.847 112.599 345.912 103.292C347.979 93.9892 349.836 91.269 351.8 92.1306C353.762 92.9875 352.232 104.331 352.232 104.331L354.138 111.429C354.138 111.429 355.654 100.202 358.293 96.198C360.932 92.1936 363.59 88.7029 370.067 94.9862C376.544 101.269 374.928 99.1797 374.22 103.728C373.514 108.279 371.45 118.354 371.45 118.354C371.45 118.354 375.425 129.807 373.353 133.93C371.284 138.059 370.324 140.251 370.324 140.251C370.324 140.251 362.086 177.535 359.328 184.647C356.569 191.757 354.934 197.947 343.485 200.747C332.036 203.546 291.37 209.834 291.37 209.834L275.354 289.024L183.155 289.11C183.155 289.11 165.219 283.866 169.65 267.734C174.078 251.604 195.172 205.846 200.296 198.671C205.418 191.494 208.901 186.889 219.859 186.469C230.825 186.046 235.975 186.562 239.516 184.3Z" fill="white"/>
<path fill-rule="evenodd" clip-rule="evenodd" d="M357.653 145.117C348.929 143.188 350.034 139.838 350.034 139.838L336.53 174.196C336.53 174.196 324.683 175.373 296.793 177.225C268.903 179.076 267.446 183.025 267.446 183.025C267.446 183.025 268.175 185.388 268.053 188.563C267.932 191.736 259.264 196.864 243.814 196.436C228.361 196.011 219.658 185.967 219.658 185.967C219.658 185.967 217.374 186.329 215.417 186.831C213.462 187.333 207.436 189.156 203.816 192.976C200.196 196.794 179.114 243.969 172.649 258.837C166.186 273.709 168.66 278.824 176.458 284.713C184.257 290.604 194.553 288.953 194.553 288.953L218.878 283.303L224.767 281.858C224.767 281.858 224.881 281.834 225.089 281.79C224.872 281.141 223.122 275.782 222.774 270.001C222.403 263.83 225.112 260.481 225.112 260.481L232.385 259.874C232.385 259.874 243.62 242.796 250.045 237.804C256.471 232.81 262.039 235.259 265.108 236.506C268.177 237.753 270.09 239.63 269.09 241.699C268.09 243.77 258.701 240.487 258.701 240.487L254.46 241.615C254.46 241.615 257.325 243.14 260.086 244.384C262.847 245.624 265.538 251.826 265.538 251.826C265.538 251.826 271.372 251.877 271.599 253.731C271.825 255.585 265.463 257.616 261.73 259.099C257.996 260.577 253.432 264.808 251.946 266.022C250.463 267.234 247.091 271.143 244.676 274.762C242.452 278.087 227.483 281.297 225.087 281.792C225.11 281.86 218.876 283.305 218.876 283.305L198.014 288.437L279.39 289.04L290.559 209.68C290.559 209.68 318.283 205.078 334.972 201.629C351.662 198.181 352.377 197.198 356.702 189.079C361.023 180.961 368.733 144.94 368.733 144.94C368.733 144.94 366.374 147.041 357.653 145.117Z" fill="#191919"/>
<path fill-rule="evenodd" clip-rule="evenodd" d="M221.625 155.279C221.625 155.279 221.548 161.17 228.377 164.278C235.207 167.385 240.756 168.259 240.756 168.259L242.746 171.376L243.699 166.699L237.554 161.854C237.554 161.854 231.337 163.117 229.33 160.21C227.322 157.298 227.303 156.25 228.812 154.41C230.318 152.57 230.225 150.775 231.928 151.989C233.63 153.201 239.593 157.849 240.238 157.182C240.883 156.512 235.648 143.852 235.648 143.852C235.648 143.852 230.344 145.393 226.644 148.96C222.949 152.526 221.625 155.279 221.625 155.279Z" fill="white"/>
<path fill-rule="evenodd" clip-rule="evenodd" d="M220.992 154.037L221.511 157.758C221.511 157.758 215.952 163.292 208.611 157.413C201.272 151.538 203.094 144.641 206.014 140.622C208.933 136.606 211.404 135.64 213.287 135.605C215.167 135.567 216.923 136.641 216.923 136.641C216.923 136.641 217.886 128.074 231.554 119.851C246.586 110.812 262.831 114.049 263.412 118.641C263.996 123.234 261.509 127.988 261.509 127.988L257.008 126.344C257.008 126.344 256.078 128.85 247.569 130.585C239.063 132.322 233.007 132.527 233.112 135.086C233.219 137.648 235.277 142.703 235.277 142.703C235.277 142.703 228.504 147.37 226.184 148.935C223.87 150.497 220.992 154.037 220.992 154.037Z" fill="white"/>
<path fill-rule="evenodd" clip-rule="evenodd" d="M220.992 157.945L219.142 158.938C219.142 158.938 213.483 160.238 208.609 156.82C204.79 153.11 203.096 148.547 206.016 144.531C208.936 140.517 211.407 139.548 213.289 139.513C215.169 139.476 216.926 140.55 216.926 140.55C216.926 140.55 217.888 131.983 231.556 123.76C246.589 114.721 262.833 117.957 263.415 122.55C263.998 127.143 262.398 128.348 262.398 128.348L257.573 126.23C257.573 126.23 255.382 129.258 246.873 130.995C238.367 132.733 233.504 134.04 233.504 134.04L235.525 142.231C235.525 142.231 227.997 147.078 225.677 148.643C223.358 150.21 220.992 157.945 220.992 157.945Z" fill="#191919"/>
<path fill-rule="evenodd" clip-rule="evenodd" d="M261.681 139.672C260.677 140.125 260.229 141.302 260.682 142.306L261.994 145.227C262.447 146.229 263.625 146.674 264.627 146.224C265.629 145.773 266.077 144.594 265.626 143.595L264.314 140.674C263.863 139.667 262.686 139.221 261.681 139.672Z" fill="#191919"/>
<path fill-rule="evenodd" clip-rule="evenodd" d="M246.878 143.305C245.874 143.758 245.428 144.935 245.878 145.939L247.191 148.86C247.644 149.862 248.821 150.308 249.823 149.857C250.828 149.406 251.274 148.227 250.823 147.226L249.51 144.305C249.057 143.303 247.88 142.857 246.878 143.305Z" fill="#191919"/>
<path fill-rule="evenodd" clip-rule="evenodd" d="M187.527 290.06C187.296 290.06 187.065 290.06 186.836 290.06C183.444 289.705 180.004 288.451 177.486 287.121C171.972 284.202 168.064 280.081 168.223 271.974C168.302 268.018 169.307 265.034 170.474 261.936C174.887 250.236 180.296 238.736 185.105 227.584C187.501 222.023 190.05 216.353 192.635 210.708C195.223 205.064 197.806 199.507 201.118 194.699C202.973 192.007 204.699 190.102 207.179 188.556C209.648 187.013 212.909 186.424 216.699 185.785C222.116 184.872 227.646 184.559 233.233 183.968C235.128 183.765 237.199 183.814 238.601 183.19C240.88 182.172 241.42 177.97 241.716 174.883C241.821 173.809 242.186 172.737 241.976 171.766C241.863 171.245 241.165 170.79 240.677 170.211C240.119 169.55 239.801 168.77 239.119 168.651C233.707 167.715 228.431 165.84 224.923 162.94C223.692 161.924 222.872 160.649 221.805 159.391C212.782 162.487 204.75 158.389 203.54 150.48C202.811 145.715 204.206 141.699 206.483 139.058C208.751 136.424 211.794 134.141 216.611 134.815C219.301 125.618 226.388 119.741 234.875 116.038C238.825 114.315 244.554 112.9 250.543 113.18C256.218 113.451 261.945 114.359 264.22 118.027C265.974 120.857 264.405 125.438 263.613 128.238C264.585 129.153 265.654 130.106 266.904 131.353C267.588 132.039 269.835 133.653 269.674 134.988C269.483 136.571 267.528 135.922 266.47 135.682C265.461 135.45 264.51 135.184 263.613 135.25C261.347 135.415 259.488 137.174 258.68 138.969C257.772 140.991 258.363 143.7 259.287 145.372C260.124 146.892 261.52 147.492 263.094 148.23C263.856 148.584 265.519 148.916 266.037 149.698C266.409 150.261 266.392 152.341 266.383 152.988C266.367 154.081 266.353 155.094 265.084 155.064C263.508 155.031 263.816 153.093 263.786 151.342C259.53 149.892 256.538 147.622 255.824 142.777C254.955 136.905 258.937 132.87 264.48 132.74C264.657 132.457 264.202 132.284 264.047 132.133C262.326 130.451 260.063 129.055 258.075 127.806C255.378 130.351 251.26 131.005 247.081 131.957C245.098 132.41 242.994 132.952 240.936 133.342C238.755 133.755 236.414 133.496 234.616 134.64C235.195 139.112 236.837 142.063 238.423 145.892C239.121 147.576 239.701 149.465 240.413 151.431C240.878 152.708 242.387 155.767 241.625 157.399C240.782 159.211 238.601 157.927 237.557 157.228C236.97 156.836 235.838 155.694 235.134 155.669C234.14 155.638 230.603 158.193 230.202 156.103C229.914 154.613 232.131 154.604 233.317 154.111C233.236 153.878 231.823 152.65 230.895 152.813C229.65 153.03 228.824 155.664 229.076 156.794C229.643 159.313 231.708 159.804 234.27 159.993C235.298 160.07 236.503 159.853 237.645 160.082C238.285 160.208 238.942 160.897 239.549 161.378C240.166 161.863 240.805 162.403 241.366 162.851C242.447 163.708 244.318 164.695 244.827 165.879C245.351 167.093 244.687 170.115 244.568 171.677C244.129 177.381 243.846 184.36 239.028 185.782C236.541 186.518 233.808 186.569 231.152 186.824C228.56 187.069 225.839 187.172 222.844 187.515C227.927 191.115 234.784 194.625 243.618 194.956C248.266 195.131 252.668 194.779 256.861 194.004C260.24 193.378 264.867 191.75 266.21 189.07C267.049 187.398 266.252 185.065 265.951 183.359C264.307 183.739 262.884 184.176 261.105 184.657C259.689 185.04 257.543 185.925 256.083 185.264C254.296 184.451 255.002 181.853 255.305 179.809C255.884 175.905 256.898 171.985 257.643 168.649C255.898 168.403 252.07 169.377 252.017 167.35C251.97 165.629 254.072 166.052 256.344 166.052C258.437 166.052 260.31 165.851 261.539 165.62C267.731 164.453 272.262 160.668 272.012 153.42C271.954 151.737 271.496 150.254 270.886 148.918C270.358 147.76 268.945 146.053 269.153 144.937C269.24 144.487 269.683 143.992 270.365 143.985C271.479 143.978 272.246 145.827 272.787 146.927C273.455 148.276 273.953 149.446 274.259 150.821C274.911 153.747 274.39 157.782 273.395 159.993C271.181 164.901 266.57 167.504 260.324 168.385C259.308 173.136 258.045 177.645 257.468 182.838C263.249 181.423 269.198 179.849 275.471 178.682C281.871 177.493 288.56 177.038 295.383 176.344C308.841 174.986 322.782 173.907 336.238 172.709C339.692 163.547 343.322 154.387 346.797 145.362C347.977 142.304 348.997 139.177 350.347 136.191C348.785 129.681 346.897 122.466 345.414 114.817C344.669 110.976 343.927 107.039 344.461 103.135C344.957 99.5136 345.891 95.7543 347.404 92.9267C348.105 91.6122 350.093 90.4587 352.078 91.1919C354.568 92.1142 354.334 96.1233 353.809 98.8084C353.295 101.435 351.889 104.419 353.377 106.598C354.171 103.768 355.084 100.833 356.319 97.683C357.277 95.2477 358.634 91.3507 360.993 90.4984C364.153 89.359 367.701 92.1609 369.303 93.3564C371.45 94.9581 373.468 96.5085 374.582 98.9812C375.902 101.905 374.512 105.295 374.15 108.237C373.837 110.78 373.447 113.07 373.024 115.335C372.839 116.32 372.534 117.476 372.678 118.188C373.493 122.223 374.299 125.87 374.409 129.87C374.505 133.279 373.309 135.565 372.246 137.832C371.898 138.57 371.408 139.324 371.12 140.083C370.691 141.215 370.562 142.6 370.256 143.889C368.145 152.736 366.033 161.534 363.85 170.197C362.647 174.974 361.533 179.982 359.694 184.734C357.996 189.121 356.28 194.064 353.29 197.023C351.632 198.664 349.71 199.598 347.232 200.313C344.826 201.004 342.193 201.503 339.613 202.043C323.45 205.426 309.282 207.759 291.919 210.523C289.954 221.549 288.03 233.473 286.119 244.707C285.837 246.367 285.692 248.141 285.255 249.64C284.888 250.892 283.917 252.199 283.263 253.446C282.576 254.756 282.037 256.05 281.359 257.166C284.003 241.821 286.692 225.156 289.494 209.573C289.8 207.882 289.798 203.658 291.571 203.686C293.472 203.717 292.561 206.418 292.351 207.838C306.792 205.449 321.497 203.255 335.457 200.31C340.119 199.327 344.968 198.62 349.046 196.936C352.582 195.475 354.544 190.97 356.06 187.069C360.858 174.701 363.301 160.465 366.793 147.092C361.133 148.001 355.278 146.471 351.816 144.234C351.286 143.891 350.814 143.221 350.345 143.368C346.552 152.925 342.205 164.35 338.312 174.434C337.786 175.8 337.321 178.191 335.801 178.159C335.163 178.142 334.705 177.475 334.677 176.947C334.645 176.379 335.259 175.716 335.023 175.389C312.692 177.699 288.745 178.395 268.457 182.744C268.838 184.589 269.296 186.294 269.064 188.369C268.595 192.565 263.391 195.082 259.542 196.07C255.142 197.202 249.155 197.779 243.786 197.543C232.684 197.053 225.222 192.593 218.944 187.937C215.153 188.687 211.397 189.002 208.73 190.62C206.014 192.264 204.243 194.557 202.499 197.284C199.154 202.496 196.384 208.609 193.754 214.418C186.95 229.457 180.252 244.275 174.191 259.417C172.948 262.524 171.418 265.597 170.988 269.109C170.449 273.515 170.937 277.139 172.721 279.754C174.45 282.29 176.879 283.982 179.992 285.465C183.204 286.992 186.277 287.667 190.64 287.195C202.104 285.955 212.635 283.076 223.185 280.963C220.803 276.382 220.696 266.186 223.099 261.233C213.163 261.782 202.099 262.148 191.764 262.618C190.054 262.697 188.305 262.966 188.214 261.581C188.099 259.851 190.138 260.182 191.675 260.112C196.118 259.909 200.873 259.641 204.834 259.505C209.889 248.935 214.859 237.987 219.897 227.316C220.476 226.085 221.378 223.253 222.753 223.335C225.28 223.487 222.636 227.559 222.146 228.614C217.51 238.622 212.81 248.533 208.209 258.293C208.06 258.609 207.817 258.994 207.95 259.335C216.12 259.106 224.372 258.501 232.36 258.382C234.394 255.018 236.214 251.854 238.332 248.515C242.34 242.203 247.074 235.782 255.819 234.239C260.507 233.41 265.428 235.112 268.455 237.008C270.312 238.169 272.024 242.15 268.976 243.065C265.482 244.113 261.163 241.501 257.982 241.767C258.19 242.182 258.718 242.404 259.105 242.633C262.347 244.541 265.678 246.663 266.808 250.593C269.732 249.474 273.182 251.963 272.953 254.317C272.825 255.653 270.758 256.489 269.578 257.086C266.684 258.543 263.681 259.426 261.354 261.154C260.105 262.081 258.682 262.795 257.026 263.059C253.128 266.172 249.27 269.321 246.378 273.443C244.384 277.638 239.68 279.532 234.866 280.798C230.01 282.072 224.596 283.326 219.631 284.433C209.251 286.747 198.778 288.942 187.527 290.06ZM359.524 96.6556C357.831 100.448 356.308 105.678 355.198 109.463C356.735 108.433 357.221 106.35 359.872 106.434C360.664 101.398 362.507 97.4145 364.2 93.2817C361.397 91.8363 360.313 94.8857 359.524 96.6556ZM348.703 96.4828C347.659 99.6397 346.585 103.432 346.799 107.212C347.068 111.928 348.507 116.71 349.397 120.624C349.817 117.299 351.218 114.947 352.685 112.664C352.146 111.335 351.693 110.018 351.216 108.594C350.835 107.464 349.91 105.545 349.917 104.356C349.924 103.156 350.555 101.678 350.87 100.286C351.394 97.9842 352.094 95.661 351.13 93.6272C349.516 93.3237 349.107 95.2663 348.703 96.4828ZM366.536 94.5775C364.585 98.6006 363.009 102.995 362.121 108.078C364.639 111.459 361.54 115.9 360.129 118.548C362 121.228 364.492 123.269 365.407 127.117C365.807 128.789 365.886 131.299 365.842 133.606C365.805 135.471 365.952 138.944 364.284 138.972C362.693 139 363.077 137.134 363.158 136.118C363.268 134.783 363.336 133.118 363.331 131.962C363.315 127.404 361.995 124.999 360.04 122.531C359.447 121.782 357.284 119.998 357.272 118.896C357.256 117.717 358.597 116.222 359.176 115.004C360.113 113.037 361.465 110.324 359.522 109.033C355.665 112.29 352.69 116.061 351.73 122.186C351.431 124.103 350.99 126.65 351.125 128.588C351.209 129.788 351.772 131.152 352.078 132.399C352.398 133.697 353.015 135.11 352.944 136.291C352.853 137.823 351.627 139.135 351.473 140.447C353.979 143.081 359.3 145.239 364.546 144.86C365.798 144.769 366.788 144.431 367.661 143.821C368.152 142.159 368.154 140.587 368.698 139.149C369.159 137.933 370.013 136.861 370.516 135.686C371.048 134.446 371.62 133.102 371.814 131.619C372.132 129.188 371.562 126.755 371.207 124.523C371.036 123.444 370.814 122.293 370.602 121.149C370.401 120.075 369.983 118.833 369.995 117.775C370.006 116.682 370.459 115.372 370.686 114.056C371.125 111.517 371.485 108.884 371.898 106.439C372.354 103.744 373.414 100.534 371.466 98.9088C369.689 102.294 368.579 106.194 367.83 110.766C367.638 111.935 367.745 114.347 366.185 114.31C364.078 114.261 365.337 110.497 365.58 109.119C366.435 104.265 367.703 100.209 369.563 97.0059C368.787 95.9622 367.673 95.2593 366.536 94.5775ZM262.314 119.846C262.188 119.435 261.532 118.606 261.016 118.202C258.545 116.274 251.655 115.648 247.513 115.865C238.935 116.316 232.502 119.288 227.172 123.652C223.02 127.054 220.38 130.669 218.949 136.548C218.465 138.542 217.961 140.552 217.996 142.691C218.063 146.703 220.446 148.276 221.546 151.692C223.176 149.845 224.804 147.84 227.086 146.415C229.358 144.993 231.76 143.662 234.184 142.434C233.465 140.162 232.22 138.038 232.019 135.598C231.687 131.539 235.3 131.479 238.771 131.098C240.523 130.904 242.461 130.381 243.879 130.059C248.275 129.055 253.226 128.369 256.085 126.078C256.665 125.613 257.272 124.537 258.337 124.605C259.117 124.656 259.187 125.345 259.722 125.819C260.301 126.33 260.901 126.454 261.366 126.772C261.651 124.74 263.081 122.361 262.314 119.846ZM208.473 140.529C207.097 142.1 206.137 144.335 205.962 146.761C205.509 153.11 209.108 157.941 216.003 157.922C217.832 157.92 218.958 157.392 220.766 157.056C219.876 155.402 219.731 153.6 218.949 151.779C218.439 150.6 217.489 149.467 216.872 148.143C215.482 145.166 214.99 141.493 216.006 137.325C212.61 136.851 209.9 138.902 208.473 140.529ZM226.997 149.528C225.206 151.02 224.185 152.918 222.583 154.718C224.173 159.804 227.548 162.083 232.105 163.979C234.116 164.815 235.908 165.34 238.253 165.798C240.292 166.192 241.389 166.556 242.321 167.96C242.321 167.614 242.321 167.266 242.321 166.921C241.551 166.262 240.686 165.51 239.724 164.756C239.096 164.266 237.641 162.851 236.956 162.68C235.723 162.375 234.333 162.638 233.147 162.51C232.033 162.386 230.835 162.244 229.856 161.73C228.123 160.819 226.31 158.655 226.392 155.848C226.453 153.805 227.642 152.078 228.989 151.001C231.017 149.385 233.67 150.931 235.223 152.215C236.496 153.268 237.673 154.377 238.944 154.985C237.575 151.681 236.779 147.8 235.048 144.86C232.425 146.497 229.27 147.636 226.997 149.528ZM264.307 237.968C262.667 237.338 260.813 236.705 259.026 236.581C253.934 236.24 250.227 238.865 247.168 241.342C244.472 243.523 242.569 246.789 240.763 249.561C237.944 253.878 235.233 258.644 232.54 263.234C231.809 264.481 230.594 267.411 229.335 267.39C228.81 267.381 228.207 267.103 228.123 266.263C228.008 265.13 229.606 263.059 230.113 262.195C230.372 261.754 230.809 261.336 230.631 260.986C229.153 260.976 227.77 261.065 226.39 261.156C223.821 263.928 223.449 271.126 224.4 276.128C224.638 277.377 225.115 280.081 226.217 280.279C226.495 280.331 227.637 279.936 228.38 279.761C230.615 279.228 233.014 278.617 234.873 278.117C238.453 277.157 242.823 275.595 243.961 272.579C245.119 269.503 243.566 265.357 243.27 262.279C241.679 262.424 239.881 262.587 239.895 261.07C239.904 259.811 241.529 259.753 243.01 259.685C244.573 259.613 246.079 259.498 247.425 259.596C251.232 259.877 256.784 261.992 259.199 259.34C255.574 257.775 251.83 256.559 246.82 256.222C245.523 256.136 242.987 256.402 242.837 255.013C242.59 252.718 246.827 253.633 248.55 253.801C253.808 254.312 257.872 255.947 261.448 257.523C262.195 256.855 262.812 256.059 263.265 255.102C259.358 252.802 255.887 250.422 249.936 249.997C248.478 249.892 245.101 250.399 245 248.699C244.879 246.642 248.38 247.345 250.195 247.487C252.255 247.646 254.254 247.947 255.735 248.44C259.257 249.612 261.761 251.387 264.304 252.594C264.36 249.376 262.576 248.069 260.495 246.537C257.795 244.55 255.975 243.383 252.096 242.99C250.603 242.839 249.209 242.855 249.242 241.517C249.291 239.413 252.374 240.739 253.656 240.564C254.081 240.508 254.513 240.128 255.041 239.962C256.032 239.649 257.382 239.138 258.416 239.096C259.934 239.03 261.6 239.654 263.09 239.962C264.706 240.294 266.238 240.81 268.025 240.653C267.862 239.051 265.848 238.559 264.307 237.968ZM265.865 256.054C267.247 255.3 268.758 254.677 270.106 253.89C269.788 252.65 267.92 253.117 266.818 252.851C266.717 254.079 266.019 255.169 265.865 256.054ZM246.82 268.689C248.212 267.063 250.421 265.217 252.187 263.755C252.381 263.591 252.832 263.356 252.706 263.064C250.328 262.905 248.597 262.092 245.953 262.197C246.292 264.313 246.619 266.438 246.82 268.689Z" fill="#191919"/>
<path fill-rule="evenodd" clip-rule="evenodd" d="M250.457 135.336C251.678 135.247 253.437 135.051 253.227 136.723C253.065 138.003 251.589 137.811 250.889 137.846C247.451 138.031 246.635 139.228 244.83 141.391C244.452 141.848 243.912 142.523 243.445 143.123C243.176 143.466 242.665 144.496 241.801 144.508C241.242 144.515 240.563 144.015 240.502 143.38C240.39 142.212 242.501 140.202 243.097 139.488C245.057 137.157 246.435 135.633 250.457 135.336Z" fill="#191919"/>
<path fill-rule="evenodd" clip-rule="evenodd" d="M253.745 155.585C255.212 155.281 256.345 157.455 258.335 157.66C260.219 157.856 263.529 156.439 263.613 158.527C263.7 160.609 258.164 160.572 256.256 159.825C255.291 159.444 252.717 157.983 252.708 156.796C252.703 156.189 253.089 155.72 253.745 155.585Z" fill="#191919"/>
<path d="M251.075 274.9H360.958C363.35 274.9 365.286 276.838 365.286 279.226V284.417C365.286 286.808 363.347 288.743 360.958 288.743H251.075C248.686 288.743 246.747 286.808 246.747 284.417V279.224C246.747 276.838 248.686 274.9 251.075 274.9Z" fill="white"/>
<path d="M360.958 290.042H251.075C247.974 290.042 245.449 287.518 245.449 284.417V279.224C245.449 276.123 247.974 273.599 251.075 273.599H360.958C364.06 273.599 366.585 276.123 366.585 279.224V284.414C366.585 287.518 364.06 290.042 360.958 290.042ZM251.075 276.198C249.405 276.198 248.046 277.557 248.046 279.226V284.417C248.046 286.086 249.405 287.445 251.075 287.445H360.958C362.628 287.445 363.987 286.086 363.987 284.417V279.224C363.987 277.554 362.628 276.195 360.958 276.195H251.075V276.198Z" fill="#191919"/>
<path d="M386.55 221.756H299.671C297.279 221.756 294.707 223.398 293.93 225.422L275.167 274.106C274.387 276.13 277.709 280.594 280.098 280.594H366.963C369.355 280.594 371.926 278.955 372.706 276.931L391.466 228.276C392.249 226.256 388.944 221.756 386.55 221.756Z" fill="white"/>
<path d="M366.965 281.893H280.1C278.152 281.893 276.258 280.146 275.137 278.512C274.548 277.655 273.255 275.465 273.958 273.641L292.72 224.958C293.691 222.436 296.746 220.461 299.673 220.461H386.552C388.488 220.461 390.371 222.202 391.49 223.83C392.085 224.696 393.391 226.91 392.681 228.745L373.923 277.4C372.952 279.917 369.897 281.893 366.965 281.893ZM299.673 223.055C297.809 223.055 295.735 224.353 295.142 225.889L276.38 274.573C276.261 274.881 276.459 275.852 277.277 277.043C278.246 278.453 279.472 279.296 280.1 279.296H366.965C368.831 279.296 370.906 278 371.496 276.466L390.254 227.811C390.375 227.496 390.175 226.508 389.343 225.299C388.381 223.895 387.166 223.057 386.55 223.057H299.673V223.055Z" fill="#191919"/>
<path d="M432.609 288.657H60.2556C57.2916 288.657 54.8742 290.905 54.8579 293.679C54.8415 296.453 57.2309 298.702 60.1948 298.702H432.548C435.514 298.702 437.929 296.453 437.946 293.679C437.962 290.905 435.573 288.657 432.609 288.657Z" fill="white"/>
<path d="M432.548 300H60.1948C58.373 300 56.6119 299.281 55.3646 298.027C54.1921 296.846 53.5498 295.3 53.5592 293.672C53.5802 290.193 56.5839 287.361 60.2555 287.361H432.609C434.43 287.361 436.192 288.08 437.439 289.334C438.611 290.513 439.254 292.061 439.244 293.689C439.223 297.168 436.22 300 432.548 300ZM60.2555 289.955C58.0086 289.955 56.1681 291.629 56.1564 293.686C56.1517 294.618 56.5231 295.51 57.2051 296.194C57.9689 296.962 59.0573 297.401 60.1924 297.401H432.546C434.795 297.401 436.633 295.727 436.645 293.67C436.649 292.738 436.278 291.846 435.596 291.162C434.832 290.394 433.744 289.955 432.609 289.955H60.2555Z" fill="#191919"/>
<path fill-rule="evenodd" clip-rule="evenodd" d="M336.927 27.7799H414.986C423.257 27.7799 429.96 34.4835 429.96 42.7514V80.8692C429.96 89.1348 423.257 95.8361 414.986 95.8361H336.927C332.792 95.8361 327.603 96.1957 324.893 93.4871C322.184 90.7786 321.955 85.002 321.955 80.8692V42.7514C321.955 34.4811 328.658 27.7799 336.927 27.7799Z" fill="white"/>
<path d="M375.958 46.1161L391.291 72.6643H360.626L375.958 46.1161Z" fill="#B5E6EB"/>
<path d="M155.001 266.933C155.001 266.933 151.948 269.401 152.315 276.539C152.626 282.558 155.347 284.501 155.347 284.501L98.5553 284.326L95.6989 275.065L102.97 265.98L155.001 266.933Z" fill="white"/>
<path d="M155.347 285.799C155.342 285.799 98.5507 285.624 98.5507 285.624C97.9831 285.622 97.4809 285.25 97.3128 284.709L94.4563 275.448C94.3302 275.037 94.4142 274.591 94.6828 274.255L101.954 265.17C102.206 264.855 102.591 264.652 102.991 264.684L155.022 265.637C155.568 265.646 156.05 265.996 156.227 266.512C156.402 267.024 156.243 267.589 155.83 267.932C155.755 268 153.291 270.267 153.611 276.473C153.882 281.72 156.078 283.429 156.101 283.445C156.561 283.772 156.755 284.363 156.582 284.9C156.409 285.435 155.909 285.799 155.347 285.799ZM99.513 283.032L152.682 283.196C151.913 281.79 151.177 279.672 151.019 276.609C150.811 272.574 151.647 269.868 152.513 268.189L103.584 267.292L97.1399 275.343L99.513 283.032Z" fill="#191919"/>
<path d="M109.154 283.289C104.756 283.289 101.19 279.726 101.19 275.327C101.19 270.93 104.756 267.365 109.154 267.365H157.806C157.759 265.016 155.842 263.124 153.48 263.124H83.9622C77.1725 263.124 71.6697 268.628 71.6697 275.413C71.6697 282.203 77.1725 287.704 83.9622 287.704H153.48C155.87 287.704 157.808 285.766 157.808 283.378V283.289H109.154V283.289Z" fill="#8256E1"/>
<path d="M153.478 289.003H83.9598C76.4647 289.003 70.3687 282.906 70.3687 275.413C70.3687 267.923 76.4647 261.826 83.9598 261.826H153.478C156.519 261.826 159.041 264.299 159.102 267.341C159.109 267.689 158.976 268.028 158.731 268.275C158.486 268.525 158.152 268.665 157.804 268.665H109.152C105.476 268.665 102.486 271.654 102.486 275.329C102.486 279.004 105.476 281.993 109.152 281.993H157.806C158.523 281.993 159.105 282.574 159.105 283.291V283.38C159.107 286.478 156.582 289.003 153.478 289.003ZM83.9621 264.423C77.9011 264.423 72.9682 269.354 72.9682 275.413C72.9682 281.475 77.9011 286.406 83.9621 286.406H153.48C154.72 286.406 155.79 285.657 156.257 284.587H109.154C104.046 284.587 99.8912 280.433 99.8912 275.327C99.8912 270.22 104.046 266.067 109.154 266.067H156.169C155.662 265.093 154.641 264.423 153.48 264.423H83.9621V264.423Z" fill="#191919"/>
<path d="M80.3047 248.916C80.3047 248.916 83.355 250.602 82.9883 255.478C82.6777 259.594 79.959 260.918 79.959 260.918L136.75 260.799L139.607 254.471L132.333 248.265L80.3047 248.916Z" fill="white"/>
<path d="M79.9566 262.216C79.3517 262.216 78.8285 261.801 78.6907 261.212C78.5529 260.624 78.8425 260.017 79.3867 259.753C79.4568 259.716 81.4444 258.641 81.6897 255.38C81.984 251.464 79.7534 250.098 79.6577 250.042C79.1555 249.745 78.9056 249.148 79.0551 248.585C79.2046 248.022 79.702 247.623 80.2859 247.616L132.315 246.967C132.635 246.967 132.936 247.074 133.174 247.277L140.448 253.484C140.887 253.857 141.024 254.478 140.789 255.006L137.932 261.334C137.722 261.798 137.262 262.097 136.75 262.097L79.959 262.216C79.959 262.216 79.959 262.216 79.9566 262.216ZM83.1985 250.177C83.9085 251.408 84.4644 253.166 84.2822 255.576C84.1515 257.308 83.6446 258.63 83.042 259.615L135.909 259.505L138.021 254.829L131.862 249.57L83.1985 250.177Z" fill="#191919"/>
<path d="M154.938 246.542H81.5262C79.2629 246.542 77.4061 248.279 77.2146 250.492H125.616C128.328 250.492 130.526 252.442 130.526 254.852C130.526 257.259 128.328 259.213 125.616 259.213H77.2029C77.3103 261.506 79.2045 263.332 81.5262 263.332H154.94C159.579 263.332 163.339 259.575 163.339 254.94C163.337 250.303 159.576 246.542 154.938 246.542Z" fill="white"/>
<path d="M154.938 264.63H81.5261C78.5155 264.63 76.0467 262.277 75.9065 259.274C75.8902 258.919 76.0187 258.574 76.2639 258.317C76.5091 258.06 76.8478 257.915 77.2028 257.915H125.616C127.608 257.915 129.227 256.542 129.227 254.852C129.227 253.164 127.606 251.791 125.616 251.791H77.2145C76.8502 251.791 76.5045 251.639 76.2569 251.37C76.0116 251.102 75.8879 250.745 75.9206 250.38C76.1728 247.452 78.5832 245.244 81.5261 245.244H154.94C160.286 245.244 164.635 249.594 164.635 254.938C164.635 260.283 160.286 264.63 154.938 264.63ZM78.8938 260.512C79.417 261.425 80.4003 262.034 81.5261 262.034H154.94C158.855 262.034 162.038 258.852 162.038 254.941C162.038 251.027 158.855 247.842 154.94 247.842H81.5261C80.4891 247.842 79.5548 248.379 79.0083 249.197H125.616C129.04 249.197 131.824 251.735 131.824 254.854C131.824 257.974 129.038 260.514 125.616 260.514H78.8938V260.512Z" fill="#191919"/>
<path d="M89.8925 222.357C89.6333 222.31 93.0223 224.941 93.2699 231.874C93.5222 238.951 89.5469 242.778 89.5469 242.778L146.338 242.575L152.399 229.499L147.637 220.444L89.8925 222.357Z" fill="white"/>
<path d="M89.5445 244.244C88.9466 244.244 88.4094 243.882 88.1851 243.329C87.9609 242.773 88.0964 242.138 88.5261 241.723C88.6639 241.587 92.0249 238.208 91.8007 231.927C91.6769 228.425 90.7053 225.595 88.9162 223.517C88.3627 222.875 88.2576 222.242 88.6009 221.637C88.8555 221.187 89.3343 220.909 89.8411 220.893L147.585 218.983C148.146 218.938 148.671 219.267 148.933 219.765L153.695 228.82C153.908 229.224 153.92 229.705 153.728 230.118L147.667 243.193C147.429 243.71 146.91 244.041 146.343 244.043L89.5515 244.247C89.5492 244.244 89.5468 244.244 89.5445 244.244ZM92.6392 223.734C93.9191 225.987 94.6222 228.696 94.7343 231.822C94.8861 236.091 93.6249 239.285 92.4477 241.302L145.399 241.113L150.762 229.544L146.765 221.943L92.6392 223.734Z" fill="#191919"/>
<path d="M152.291 217.972H89.8316C87.7085 217.972 85.9848 220.171 85.9451 222.903H138.665C143.063 222.903 146.63 226.468 146.63 230.865V233.45C146.63 237.847 143.063 241.412 138.665 241.412H85.9404V241.517C85.9404 244.293 87.6828 246.544 89.8293 246.544H152.289C158.39 246.544 163.334 240.151 163.334 232.259C163.337 224.369 158.39 217.972 152.291 217.972Z" fill="white"/>
<path d="M152.291 248.008H89.8316C86.8793 248.008 84.476 245.094 84.476 241.515V241.41C84.476 240.599 85.1323 239.943 85.9427 239.943H138.663C142.246 239.943 145.161 237.029 145.161 233.447V230.863C145.161 227.281 142.246 224.367 138.663 224.367H85.9427C85.5504 224.367 85.1743 224.211 84.8987 223.93C84.6231 223.65 84.4713 223.272 84.4783 222.88C84.532 219.305 86.884 216.505 89.8316 216.505H152.291C159.191 216.505 164.803 223.571 164.803 232.257C164.803 240.943 159.191 248.008 152.291 248.008ZM87.5987 242.876C87.9701 244.153 88.8436 245.075 89.8293 245.075H152.289C157.572 245.075 161.868 239.325 161.868 232.257C161.868 225.189 157.57 219.438 152.289 219.438H89.8293C88.9043 219.438 88.0705 220.267 87.6665 221.437H138.661C143.862 221.437 148.092 225.665 148.092 230.865V233.45C148.092 238.647 143.862 242.878 138.661 242.878H87.5987V242.876Z" fill="#191919"/>
<path fill-rule="evenodd" clip-rule="evenodd" d="M426.975 89.8914C426.389 89.0835 427.087 88.2149 427.318 87.5751C427.61 86.7649 427.954 85.901 428.092 85.002C428.4 82.9846 428.136 80.9229 428.092 78.6533C428.01 74.5018 427.559 70.0841 427.662 65.7855C427.765 61.4706 427.919 57.0599 427.919 52.6609C427.919 48.1778 428.276 43.564 427.919 39.3635C427.786 37.7944 426.847 35.4758 425.945 34.1309C424.971 32.6809 422.743 30.7849 421.054 30.0121C418.569 28.875 414.237 28.2936 410.929 28.0391C407.087 27.7425 403.07 28.0647 399.431 28.2118C391.415 28.5317 383.955 28.7139 376.175 28.9847C368.315 29.2556 360.414 28.3403 352.832 29.1575C347.484 29.7342 342.074 30.5141 335.927 30.1008C334.077 29.9771 331.639 29.475 330.006 29.928C329.114 30.1755 328.049 31.3313 327.432 32.0715C326.813 32.8163 326.274 34.3877 324.945 34.3013C324.368 34.264 323.91 33.9184 323.744 33.6149C322.983 32.2233 324.772 30.3857 325.547 29.5824C326.666 28.4197 327.757 27.3643 329.238 26.923C331.648 26.2038 335.107 27.0934 338.419 27.0934C345.085 27.0934 350.385 26.2108 356.441 25.8933C362.28 25.5874 369.163 26.1268 375.32 25.9797C381.486 25.8326 387.643 25.5664 393.856 25.2932C397.074 25.1508 400.424 25.0037 403.38 24.8636C406.795 24.7024 410.404 24.7211 413.592 25.2932C416.794 25.8652 419.819 26.0964 422.26 27.1798C424.712 28.2679 427.036 30.3296 428.437 32.2419C429.416 33.5752 430.801 36.781 431.011 39.0179C431.212 41.1614 431.011 43.4823 431.011 45.7098C431.011 52.3363 430.936 58.9816 430.754 65.5264C430.637 69.7036 431.158 73.9204 431.184 78.4805C431.2 81.593 431.527 85.1304 430.584 87.7456C430.275 88.6025 429.883 89.6952 429.467 89.9754C428.972 90.3093 427.498 90.6245 426.975 89.8914Z" fill="#B5E6EB"/>
<path fill-rule="evenodd" clip-rule="evenodd" d="M420.97 93.4942C421.468 94.2834 421.65 95.3901 421.827 96.4969C415.255 97.1857 408.773 97.2277 402.262 96.9265C399.038 96.7771 395.834 96.4105 392.564 96.4105C379.239 96.4105 365.349 96.261 352.832 97.2697C349.583 97.5312 346.3 97.4612 343.051 97.613C337.011 97.8932 329.294 98.5983 325.115 95.8968C323.006 94.5332 321.483 92.6979 320.911 89.9778C320.332 87.2295 320.568 83.7155 320.568 80.1967C320.568 73.6683 320.224 67.1562 320.224 60.2074C320.224 55.0846 320.178 50.1789 320.138 45.1074C320.124 43.3679 320.052 41.2174 321.511 40.9886C324.078 40.5893 323.251 45.2242 323.312 47.4237C323.669 60.2378 323.198 71.7069 323.742 84.0564C323.838 86.2232 323.623 88.3036 324.085 89.889C325.505 94.7527 332.293 95.2057 338.931 94.7784C342.803 94.5285 346.855 94.5075 350.602 94.3487C354.308 94.1923 358.139 93.744 361.93 93.5759C369.682 93.235 377.847 93.319 385.872 93.319C389.941 93.319 393.968 93.2396 397.801 93.4918C405.251 93.9822 413.209 94.3768 420.97 93.4942Z" fill="#B5E6EB"/>
<path fill-rule="evenodd" clip-rule="evenodd" d="M75.0004 89.8843C77.4995 89.5831 80.05 90.1762 82.6706 90.4003C85.3589 90.6315 88.1267 90.6969 90.9434 90.8323C96.4369 91.0938 102.271 91.1849 108.005 90.9187C119.385 90.3887 131.152 91.0495 142.302 91.0051C142.274 89.1955 142.409 87.2225 142.043 85.7515C139.85 84.5257 137.129 84.6564 134.632 84.5443C126.513 84.1824 118.457 85.3289 110.504 85.6651C105.184 85.8893 99.3261 85.8379 93.7883 85.8379C91.2985 85.8379 88.4093 85.7515 85.6882 85.4059C84.5438 85.2612 83.3339 84.8572 81.9839 84.8035C80.6082 84.7475 79.041 84.4813 77.8475 84.7171C76.71 84.9436 76.7778 86.5617 75.3484 86.5267C73.7835 86.487 73.7064 84.8642 74.2272 83.8555C75.1919 81.9946 76.8712 81.5813 79.7417 81.7027C80.8231 81.7494 81.9816 81.6934 82.9299 81.7891C85.1324 82.0109 86.6272 82.4125 88.79 82.5643C101.676 83.4679 115.307 82.4896 126.964 81.4435C130.009 81.1704 133.987 81.3805 137.217 81.6163C141.008 81.8919 143.806 82.1977 144.888 84.4579C145.728 86.2161 145.404 89.3613 145.404 92.1259C145.404 97.7414 145.289 102.339 144.801 107.719C144.577 110.196 144.21 112.767 142.561 113.577C141.727 113.988 140.118 113.971 138.684 114.093C134.662 114.436 129.96 114.352 125.931 114.352C111.429 114.352 97.2731 114.786 82.8458 114.179C78.5972 114.002 75.3343 113.722 73.7975 111.078C72.249 108.412 72.2022 102.579 72.0738 98.5025C71.999 96.1233 72.0995 93.814 71.9874 91.4394C71.8963 89.4804 71.4315 86.055 73.4518 86.013C75.2129 85.971 75.0494 87.7899 75.0004 89.8843ZM75.0004 92.8147C75.1265 95.8361 75.1288 98.9555 75.346 102.033C75.5072 104.345 75.3507 108.699 76.8969 110.044C78.1254 111.111 81.5005 110.971 84.0486 111.078C86.6809 111.191 89.5935 111.251 92.1486 111.251C108.398 111.251 126.123 111.681 141.094 110.819C142.302 106.054 142.157 99.9362 142.3 94.1082C131.187 93.7977 119.59 93.9354 108.089 93.9354C96.6821 93.9354 85.1417 94.3931 75.0868 92.5578C74.9863 92.5695 74.9933 92.6909 75.0004 92.8147Z" fill="#B5E6EB"/>
<path fill-rule="evenodd" clip-rule="evenodd" d="M292.241 63.9946C288.52 63.4248 291.493 60.0369 292.414 58.2787C293.17 56.8333 294.063 53.1698 296.658 54.0361C297.702 54.384 298.456 56.1982 299.082 57.326C299.979 58.9418 301.618 60.4081 300.901 62.8691C300.481 64.3098 299.843 65.2648 299.168 66.7661C298.514 68.2185 298.113 70.5184 296.137 70.1424C293.799 69.6988 293.638 65.5403 292.241 63.9946ZM294.32 61.3981C295.104 62.5749 295.733 63.9105 296.312 65.2951C296.814 64.1463 298.106 62.9042 297.958 61.5709C297.856 60.644 296.151 58.8437 295.966 58.1082C295.448 59.236 294.819 60.2517 294.32 61.3981Z" fill="white"/>
<path fill-rule="evenodd" clip-rule="evenodd" d="M177.645 73.0004C179.878 72.4003 180.564 75.6739 181.284 77.1566C182.048 78.735 183.078 80.304 182.755 82.179C182.51 83.6173 180.754 85.198 180.069 86.4215C179.455 87.5213 179.352 88.7985 177.731 88.6724C176.222 88.5557 175.585 86.3655 174.959 85.121C174.592 84.3902 174.267 83.6827 173.919 83.0429C173.597 82.4522 172.967 81.8358 172.967 80.8784C172.967 79.8184 174.522 77.7893 175.045 76.8086C175.671 75.6388 176.381 73.3413 177.645 73.0004ZM176.344 80.9671C176.344 81.9408 177.853 83.1176 177.991 83.9979C178.289 82.9915 179.534 82.4802 179.637 81.4015C179.761 80.0939 178.495 78.854 177.991 77.7636C177.834 78.798 176.344 80.1849 176.344 80.9671Z" fill="white"/>
<path fill-rule="evenodd" clip-rule="evenodd" d="M187.693 95.3411C186.14 94.7246 186.441 93.347 187.434 92.0511C188.204 91.0448 188.991 89.4734 190.811 90.0594C191.448 90.2649 193.721 92.4528 194.102 93.0902C194.908 94.4374 194.165 95.4205 193.322 96.9872C192.647 98.2434 192.32 99.9876 190.29 99.7587C189.828 99.7074 189.12 99.2451 188.905 99.0653C188.183 98.4675 186.46 96.693 187.693 95.3411ZM189.164 94.9955C189.9 95.0118 189.902 95.759 190.463 95.9481C190.594 95.3551 191.007 95.0492 191.157 94.4748C190.762 94.2343 190.475 93.8864 190.117 93.6085C189.863 94.1339 189.386 94.4374 189.164 94.9955Z" fill="white"/>
<path fill-rule="evenodd" clip-rule="evenodd" d="M243.561 91.5327C244.012 91.472 244.862 91.6752 245.122 92.3126C245.269 92.6768 245.124 93.4404 245.122 94.0451C245.117 96.1606 246.299 100.317 243.389 99.5859C242.195 99.287 241.889 95.6889 242.004 93.6972C242.069 92.5204 242.499 91.6728 243.561 91.5327Z" fill="white"/>
<path fill-rule="evenodd" clip-rule="evenodd" d="M205.796 94.4771C206.348 92.5882 207.992 90.872 210.213 91.7056C211.164 92.0628 212.327 93.2793 212.638 94.0428C214.564 98.7734 206 101.599 204.061 97.5942C203.363 96.1466 203.93 94.0031 205.796 94.4771ZM209.695 95.341C209.695 95.1099 209.337 94.7129 209.087 94.7339C208.653 94.7736 207.945 96.7163 206.922 95.9458C207.298 97.1786 209.695 95.9504 209.695 95.341Z" fill="white"/>
<path fill-rule="evenodd" clip-rule="evenodd" d="M291.374 107.464C294.39 108.242 297.573 111.102 297.524 114.999C297.494 117.313 295.599 119.43 292.934 118.202C290.265 116.972 288.98 113.453 288.17 110.322C285.888 111.162 284.106 113.876 285.052 116.99C285.281 117.747 285.804 118.242 285.745 118.982C285.682 119.762 284.97 120.353 284.274 120.369C282.462 120.411 281.705 117.497 281.674 115.519C281.611 111.478 284.463 107.567 288.256 107.205C289.092 102.909 293.374 99.0349 298.825 101.316C299.762 96.38 302.013 91.988 307.661 92.0511C309.109 92.0674 310.214 93.4474 309.221 94.6475C308.572 95.4321 306.355 95.1379 305.15 95.6866C303.706 96.3427 302.658 98.4675 302.205 100.363C302.046 101.034 301.733 102.194 301.945 103.046C302.128 103.775 303.496 104.667 304.111 105.47C304.912 106.521 306.547 110.088 303.938 110.579C302.41 110.866 301.294 109.528 300.733 108.673C300.089 107.693 299.568 106.334 299.262 105.124C297.965 104.277 296.169 103.27 294.324 103.913C292.792 104.445 291.956 106.04 291.374 107.464ZM294.406 115.258C294.373 112.893 293.257 111.615 291.547 110.929C292.119 112.697 292.925 114.688 294.406 115.258Z" fill="white"/>
<path fill-rule="evenodd" clip-rule="evenodd" d="M188.125 156.563C186.357 157.481 184.82 158.443 182.234 158.382C178.231 158.288 174.861 155.22 175.304 151.109C175.61 148.262 177.876 147.291 178.682 144.702C176.021 144.372 174.256 145.692 172.359 146.693C170.145 147.861 166.87 149.705 164.044 148.253C160.524 146.443 160.029 141.131 161.013 136.303C161.197 135.399 161.83 133.872 161.533 133.099C160.933 131.54 156.309 131.88 154.69 132.492C153.866 132.805 153.363 133.669 152.266 133.531C151.385 133.421 150.993 132.635 150.967 132.147C150.892 130.778 152.478 130.057 153.305 129.721C156.832 128.292 163.049 128.623 164.392 131.626C165.506 134.115 163.825 136.936 163.612 139.679C163.414 142.252 164.047 145.271 165.95 145.654C167.8 146.025 170.32 144.202 171.493 143.576C173.48 142.516 177.262 140.445 180.156 141.844C181.228 142.362 182.155 143.964 181.627 145.827C181.316 146.924 180.69 147.73 180.069 148.599C179.256 149.731 178.196 150.539 178.423 152.323C178.668 154.244 180.669 155.332 182.58 155.267C184.28 155.209 185.766 154.433 186.737 153.707C187.56 153.093 188.316 151.592 189.51 151.629C190.105 151.648 190.708 152.045 190.895 152.582C191.17 153.366 190.664 154.242 190.895 155.178C191.22 156.493 192.934 156.607 192.887 158.123C192.861 158.945 192.21 159.552 191.502 159.594C189.968 159.687 188.69 157.686 188.125 156.563Z" fill="white"/>
<path fill-rule="evenodd" clip-rule="evenodd" d="M400.255 149.549C396.803 149.264 399.174 145.224 399.909 143.228C400.577 141.412 400.841 139.798 401.643 138.465C402.03 137.82 402.953 137.108 404.067 137.512C405.305 137.961 406.111 140.984 406.753 142.362C407.517 144.001 408.979 145.806 408.832 147.73C408.745 148.855 407.874 150.27 407.36 151.713C406.893 153.021 406.349 154.525 404.936 154.658C402.194 154.917 401.46 151.008 400.255 149.549ZM401.988 146.604C402.976 147.753 403.488 149.378 404.501 150.501C404.768 149.325 405.34 148.451 405.714 147.384C404.922 145.811 404.27 144.092 403.376 142.621C402.974 144.01 402.376 145.203 401.988 146.604Z" fill="white"/>
<path fill-rule="evenodd" clip-rule="evenodd" d="M393.932 150.933C395.764 150.52 396.859 152.554 397.744 153.791C398.538 154.903 399.585 156.474 399.65 157.516C399.751 159.117 398.573 160.703 397.917 161.933C397.216 163.245 396.469 165.048 395.058 165.137C393.718 165.221 392.804 163.925 392.027 162.886C391.323 161.947 390.24 160.537 390.034 159.596C389.957 159.25 390.158 158.842 390.121 158.471C390.079 158.041 389.763 157.653 389.775 157.259C389.798 156.348 390.644 155.174 391.246 154.142C392.02 152.82 392.613 151.232 393.932 150.933ZM392.72 158.123C393.335 159.213 393.9 160.348 394.713 161.24C395.011 159.979 396.534 158.961 396.446 157.688C396.387 156.845 394.836 155.297 394.54 154.744C393.907 155.844 393.206 156.876 392.72 158.123Z" fill="white"/>
<path fill-rule="evenodd" clip-rule="evenodd" d="M121.863 170.85C120.699 169.804 121.856 168.161 122.556 167.299C123.411 166.251 124.602 164.341 126.627 165.134C127.564 165.501 128.419 166.493 129.052 167.299C129.757 168.196 130.932 169.634 130.698 171.196C130.523 172.354 129.524 173.16 128.792 174.054C128.106 174.894 127.256 176.438 125.588 176.218C124.619 176.09 123.729 175.07 123.25 174.486C122.433 173.496 121.022 172.228 121.863 170.85ZM124.114 170.418C124.586 171.245 125.312 171.819 125.761 172.669C126.464 172.104 126.978 171.345 127.494 170.591C126.91 169.846 126.55 168.88 125.674 168.427C125.168 169.106 124.635 169.755 124.114 170.418Z" fill="white"/>
<path fill-rule="evenodd" clip-rule="evenodd" d="M194.968 179.424C196.65 179.172 197.171 181.295 198 182.973C198.691 184.372 199.651 185.759 199.558 186.87C199.49 187.676 198.754 188.271 198 188.255C196.631 188.225 196.213 186.317 195.489 184.792C195.157 184.094 194.76 183.506 194.45 182.887C193.831 181.659 193.086 179.707 194.968 179.424Z" fill="white"/>
<path fill-rule="evenodd" clip-rule="evenodd" d="M185.528 186.436C186.906 186.212 188.919 187.587 190.379 188.341C191.411 188.874 194.111 189.84 194.191 191.113C194.233 191.806 193.721 192.617 193.065 192.759C192.103 192.967 191.171 192.269 190.465 191.893C188.898 191.057 187.714 190.424 185.96 189.642C185.096 189.257 184.271 188.949 184.227 187.998C184.185 187.05 184.86 186.546 185.528 186.436Z" fill="white"/>
<path fill-rule="evenodd" clip-rule="evenodd" d="M165.345 215.186C162.839 213.171 165.369 209.066 168.031 208.779C170.825 208.478 172.866 210.684 172.882 212.935C172.899 215.24 171.294 217.315 168.984 217.612C167.908 217.747 165.275 217.059 165.345 215.186ZM169.762 212.849C169.617 211.789 167.849 211.511 167.51 212.676C167.894 213.218 168.529 213.505 168.463 214.495C169.26 214.329 169.862 213.586 169.762 212.849Z" fill="white"/>
</svg>
