<svg width="498" height="303" viewBox="0 0 498 303" fill="none" xmlns="http://www.w3.org/2000/svg">
<path fill-rule="evenodd" clip-rule="evenodd" d="M430.56 13.1946C431.994 13.1946 433.161 14.3636 433.161 15.8087C433.161 17.2537 431.997 18.4227 430.56 18.4227C429.124 18.4227 427.96 17.251 427.96 15.8087C427.962 14.3663 429.126 13.1946 430.56 13.1946Z" fill="#B5E6EB"/>
<path fill-rule="evenodd" clip-rule="evenodd" d="M421.656 13.1946C423.093 13.1946 424.257 14.3636 424.257 15.8087C424.257 17.2537 423.093 18.4227 421.656 18.4227C420.22 18.4227 419.058 17.251 419.058 15.8087C419.056 14.3663 420.22 13.1946 421.656 13.1946Z" fill="#B5E6EB"/>
<path fill-rule="evenodd" clip-rule="evenodd" d="M412.747 13.1946C414.184 13.1946 415.348 14.3636 415.348 15.8087C415.348 17.2537 414.184 18.4227 412.747 18.4227C411.31 18.4227 410.146 17.251 410.146 15.8087C410.146 14.3663 411.31 13.1946 412.747 13.1946Z" fill="#B5E6EB"/>
<path fill-rule="evenodd" clip-rule="evenodd" d="M412.747 13.1946C414.184 13.1946 415.348 14.3636 415.348 15.8087C415.348 17.2537 414.184 18.4227 412.747 18.4227C411.31 18.4227 410.146 17.251 410.146 15.8087C410.146 14.3663 411.31 13.1946 412.747 13.1946Z" fill="#B5E6EB"/>
<path fill-rule="evenodd" clip-rule="evenodd" d="M403.838 13.1946C405.274 13.1946 406.438 14.3636 406.438 15.8087C406.438 17.2537 405.274 18.4227 403.838 18.4227C402.401 18.4227 401.24 17.251 401.24 15.8087C401.24 14.3663 402.401 13.1946 403.838 13.1946Z" fill="#B5E6EB"/>
<path fill-rule="evenodd" clip-rule="evenodd" d="M394.934 13.1946C396.37 13.1946 397.534 14.3636 397.534 15.8087C397.534 17.2537 396.37 18.4227 394.934 18.4227C393.497 18.4227 392.333 17.251 392.333 15.8087C392.333 14.3663 393.497 13.1946 394.934 13.1946Z" fill="#B5E6EB"/>
<path fill-rule="evenodd" clip-rule="evenodd" d="M386.024 13.1946C387.461 13.1946 388.625 14.3636 388.625 15.8087C388.625 17.2537 387.461 18.4227 386.024 18.4227C384.588 18.4227 383.424 17.251 383.424 15.8087C383.424 14.3663 384.588 13.1946 386.024 13.1946Z" fill="#B5E6EB"/>
<path fill-rule="evenodd" clip-rule="evenodd" d="M430.56 13.1946C431.994 13.1946 433.161 14.3636 433.161 15.8087C433.161 17.2537 431.997 18.4227 430.56 18.4227C429.124 18.4227 427.96 17.251 427.96 15.8087C427.962 14.3663 429.126 13.1946 430.56 13.1946Z" fill="#B5E6EB"/>
<path fill-rule="evenodd" clip-rule="evenodd" d="M421.656 13.1946C423.093 13.1946 424.257 14.3636 424.257 15.8087C424.257 17.2537 423.093 18.4227 421.656 18.4227C420.22 18.4227 419.058 17.251 419.058 15.8087C419.056 14.3663 420.22 13.1946 421.656 13.1946Z" fill="#B5E6EB"/>
<path fill-rule="evenodd" clip-rule="evenodd" d="M412.747 13.1946C414.184 13.1946 415.348 14.3636 415.348 15.8087C415.348 17.2537 414.184 18.4227 412.747 18.4227C411.31 18.4227 410.146 17.251 410.146 15.8087C410.146 14.3663 411.31 13.1946 412.747 13.1946Z" fill="#B5E6EB"/>
<path fill-rule="evenodd" clip-rule="evenodd" d="M412.747 13.1946C414.184 13.1946 415.348 14.3636 415.348 15.8087C415.348 17.2537 414.184 18.4227 412.747 18.4227C411.31 18.4227 410.146 17.251 410.146 15.8087C410.146 14.3663 411.31 13.1946 412.747 13.1946Z" fill="#B5E6EB"/>
<path fill-rule="evenodd" clip-rule="evenodd" d="M403.838 13.1946C405.274 13.1946 406.438 14.3636 406.438 15.8087C406.438 17.2537 405.274 18.4227 403.838 18.4227C402.401 18.4227 401.24 17.251 401.24 15.8087C401.24 14.3663 402.401 13.1946 403.838 13.1946Z" fill="#B5E6EB"/>
<path fill-rule="evenodd" clip-rule="evenodd" d="M394.934 13.1946C396.37 13.1946 397.534 14.3636 397.534 15.8087C397.534 17.2537 396.37 18.4227 394.934 18.4227C393.497 18.4227 392.333 17.251 392.333 15.8087C392.333 14.3663 393.497 13.1946 394.934 13.1946Z" fill="#B5E6EB"/>
<path fill-rule="evenodd" clip-rule="evenodd" d="M386.024 13.1946C387.461 13.1946 388.625 14.3636 388.625 15.8087C388.625 17.2537 387.461 18.4227 386.024 18.4227C384.588 18.4227 383.424 17.251 383.424 15.8087C383.424 14.3663 384.588 13.1946 386.024 13.1946Z" fill="#B5E6EB"/>
<path fill-rule="evenodd" clip-rule="evenodd" d="M430.56 22.1624C431.994 22.1624 433.161 23.3314 433.161 24.7738C433.161 26.2161 431.997 27.3851 430.56 27.3851C429.124 27.3851 427.96 26.2161 427.96 24.7738C427.962 23.3314 429.126 22.1624 430.56 22.1624Z" fill="#B5E6EB"/>
<path fill-rule="evenodd" clip-rule="evenodd" d="M421.656 22.1624C423.093 22.1624 424.257 23.3314 424.257 24.7738C424.257 26.2161 423.093 27.3851 421.656 27.3851C420.22 27.3851 419.058 26.2161 419.058 24.7738C419.056 23.3314 420.22 22.1624 421.656 22.1624Z" fill="#B5E6EB"/>
<path fill-rule="evenodd" clip-rule="evenodd" d="M412.747 22.1624C414.184 22.1624 415.348 23.3314 415.348 24.7738C415.348 26.2161 414.184 27.3851 412.747 27.3851C411.31 27.3851 410.146 26.2161 410.146 24.7738C410.146 23.3314 411.31 22.1624 412.747 22.1624Z" fill="#B5E6EB"/>
<path fill-rule="evenodd" clip-rule="evenodd" d="M412.747 22.1624C414.184 22.1624 415.348 23.3314 415.348 24.7738C415.348 26.2161 414.184 27.3851 412.747 27.3851C411.31 27.3851 410.146 26.2161 410.146 24.7738C410.146 23.3314 411.31 22.1624 412.747 22.1624Z" fill="#B5E6EB"/>
<path fill-rule="evenodd" clip-rule="evenodd" d="M403.838 22.1624C405.274 22.1624 406.438 23.3314 406.438 24.7738C406.438 26.2161 405.274 27.3851 403.838 27.3851C402.401 27.3851 401.24 26.2161 401.24 24.7738C401.24 23.3314 402.401 22.1624 403.838 22.1624Z" fill="#B5E6EB"/>
<path fill-rule="evenodd" clip-rule="evenodd" d="M394.934 22.1624C396.37 22.1624 397.534 23.3314 397.534 24.7738C397.534 26.2161 396.37 27.3851 394.934 27.3851C393.497 27.3851 392.333 26.2161 392.333 24.7738C392.333 23.3314 393.497 22.1624 394.934 22.1624Z" fill="#B5E6EB"/>
<path fill-rule="evenodd" clip-rule="evenodd" d="M386.024 22.1624C387.461 22.1624 388.625 23.3314 388.625 24.7738C388.625 26.2161 387.461 27.3851 386.024 27.3851C384.588 27.3851 383.424 26.2161 383.424 24.7738C383.424 23.3314 384.588 22.1624 386.024 22.1624Z" fill="#B5E6EB"/>
<path fill-rule="evenodd" clip-rule="evenodd" d="M188.935 267.581C188.935 267.581 112.308 276.87 80.5671 234.886C49.0534 193.205 68.6384 107.099 91.4695 76.2506C128.171 26.6625 395.304 17.9437 419.455 85.3456C443.607 152.747 188.935 267.581 188.935 267.581Z" fill="#B5E6EB"/>
<path fill-rule="evenodd" clip-rule="evenodd" d="M429.802 217.874C434.825 214.423 440.585 201.995 431.949 193.349C423.312 184.703 417.371 182.89 417.489 178.728C417.606 174.566 419.474 162.622 412.064 159.778C404.653 156.934 397.194 158.72 395.007 165.818C392.819 172.916 393.527 186.941 400.003 190.886C406.479 194.832 411.008 193.874 412.031 199.859C413.052 205.845 413.949 215.411 419.755 216.266C425.556 217.121 427.193 219.668 429.802 217.874Z" fill="white"/>
<path fill-rule="evenodd" clip-rule="evenodd" d="M425.923 222.493C428.646 220.875 438.792 207.65 430.147 198.996C421.502 190.342 413.482 187.477 413.598 183.312C413.714 179.148 415.585 167.192 408.167 164.346C400.748 161.499 393.286 163.287 391.096 170.391C388.906 177.494 389.613 191.533 396.095 195.481C402.576 199.429 407.111 198.471 408.134 204.462C409.158 210.454 410.054 220.028 415.864 220.883C421.675 221.74 423.201 224.114 425.923 222.493Z" fill="#B5E6EB"/>
<path fill-rule="evenodd" clip-rule="evenodd" d="M391.782 181.572C391.658 180.557 391.531 179.543 391.407 178.528C391.083 172.385 392.376 166.202 395.474 162.446C398.55 158.714 405.21 155.808 411.14 157.648C413.298 158.319 414.945 159.483 416.35 161.401C417.53 163.017 418.767 165.187 419.147 167.715C419.761 171.803 418.032 177.305 420.417 180.877C422.445 183.916 426.334 184.898 429.159 187.285C432.983 190.513 437.055 198.32 437.36 205.65C437.436 207.442 437.042 209.241 436.623 211.211C436.248 212.973 436.194 215.533 434.06 215.452C431.908 215.371 432.786 212.345 433.058 211.176C433.412 209.658 433.906 207.815 433.839 205.967C433.634 200.295 430.471 193.701 428.087 191.103C424.179 186.844 417.476 186.194 415.931 179.172C415.024 175.051 416.35 171.498 415.61 167.915C415.026 165.098 412.796 161.997 410.738 161.147C407.37 159.756 402.86 160.917 400.365 162.671C397.389 164.762 395.668 168.599 395.123 173.073C394.569 177.611 394.98 183.253 397.416 186.819C399.76 190.256 405.418 190.627 408.612 192.921C411 194.637 412.531 197.457 413.409 201.007C413.916 203.058 414.178 206.081 415.11 208.051C417.289 212.664 422.329 215.896 428.278 215.693C426.906 202.219 420.492 197.381 413.025 192.137C409.671 189.78 405.769 188.059 405.045 182.306C404.748 179.94 404.205 173.754 406.822 173.641C408.923 173.551 408.515 176.301 408.466 178.311C408.415 180.382 408.51 183.066 409.233 184.519C410.319 186.703 413.471 188.083 415.421 189.46C421.935 194.061 427.997 198.764 430.501 208.757C432.059 214.973 432.669 223.597 433.763 230.351C434.341 233.923 434.679 237.771 435.138 241.478C435.462 244.1 436.942 250.641 434.279 250.86C431.838 251.06 432.21 246.595 431.921 244.255C430.833 235.438 429.777 227.458 428.592 219.221C424.603 219.37 421.227 218.385 418.413 216.558C415.866 214.905 413.198 212.361 411.818 209.29C410.052 205.364 410.254 199.5 407.524 196.623C405.247 194.226 400.721 193.609 397.786 191.766C394.345 189.606 392.959 186.567 391.782 181.572Z" fill="#191919"/>
<path d="M454.59 225.708C456.878 225.691 465.463 223.748 471.199 215.674C476.933 207.601 473.606 198.731 477.443 195.963C481.281 193.195 487.214 192.919 489.928 189.706C492.642 186.494 499.41 178.049 494.522 169.877C489.634 161.707 481.178 157.662 476.382 161.025C471.586 164.386 469.746 170.764 466.487 173.773C463.23 176.782 457.491 178.436 455.179 183.807C452.867 189.179 454.177 195.863 452.352 199.386C450.526 202.912 448.781 203.745 448.819 210.362C448.857 216.981 452.303 225.726 454.59 225.708Z" fill="white"/>
<path fill-rule="evenodd" clip-rule="evenodd" d="M450.213 222.23C452.503 222.214 461.096 220.271 466.838 212.199C472.577 204.127 469.247 195.257 473.087 192.491C476.927 189.725 482.866 189.447 485.586 186.237C488.302 183.025 495.076 174.58 490.185 166.41C485.294 158.241 476.827 154.198 472.028 157.559C467.227 160.92 465.385 167.295 462.125 170.304C458.866 173.313 453.121 174.967 450.807 180.336C448.492 185.704 449.802 192.388 447.977 195.914C446.151 199.437 444.401 200.274 444.439 206.89C444.474 213.503 447.923 222.247 450.213 222.23Z" fill="#B5E6EB"/>
<path fill-rule="evenodd" clip-rule="evenodd" d="M447.066 212.502C447.066 211.125 447.066 209.747 447.066 208.373C447.887 203.542 450.223 201.129 451.423 197.278C452.4 194.15 452.049 191.057 452.484 188.072C453.353 182.105 456.956 178.904 460.964 175.917C462.895 174.477 465.217 173.294 466.735 171.314C468.798 168.624 469.182 165.406 471.329 163.171C475.423 158.906 483.023 156.958 488.761 160.338C491.511 161.959 493.871 164.646 495.71 167.655C497.598 170.745 498.719 174.756 497.476 179.102C496.053 184.081 492.326 190.121 488.289 192.672C485.41 194.493 479.25 194.829 477.57 197.63C474.799 202.249 476.341 210.467 473.803 215.449C472.517 217.974 469.695 220.263 467.208 221.822C463.624 224.065 459.948 225.794 454.958 226.306C454.528 239.305 454.747 252.495 455.311 265.37C455.395 267.267 455.536 269.229 453.426 269.028C452.181 268.909 451.998 267.838 451.895 265.841C451.655 261.132 451.425 255.788 451.425 251.916C451.425 245.44 450.931 239.368 451.19 232.916C451.458 226.224 451.396 220.796 453.664 216.277C455.844 211.934 459.446 208.995 461.437 204.831C463.34 200.847 462.654 194.826 464.145 190.905C465.355 187.72 467.813 185.62 470.386 183.943C471.712 183.079 473.443 182.471 474.98 181.109C475.917 180.281 476.727 178.964 477.57 177.57C478.278 176.401 478.92 174.615 480.514 174.737C483.727 174.986 481.386 178.693 480.279 180.4C479.461 181.664 478.569 183.023 477.451 183.94C474.105 186.689 469.568 187.774 467.794 191.138C466.3 193.966 466.643 198.13 466.146 201.05C464.531 210.51 456.81 213.539 455.193 222.647C458.914 222.352 461.396 221.121 464.143 219.578C466.549 218.228 469.384 216.255 470.621 213.915C473.246 208.941 471.423 201.004 474.038 196.212C474.721 194.959 475.879 193.714 477.216 192.908C479.768 191.371 483.738 191.087 486.166 189.604C488.048 188.454 489.831 185.98 490.995 184.175C492.399 181.997 493.663 179.794 494.174 177.094C495.178 171.806 491.381 167.425 488.637 165.057C487.781 164.318 486.671 163.371 485.575 162.933C481.07 161.131 476.025 163.523 473.913 165.883C472.05 167.969 471.594 171.054 470.027 173.2C466.757 177.678 460.337 179.313 457.426 184.292C455.533 187.534 456.13 193.216 454.952 197.627C453.877 201.662 451.387 204.519 450.712 207.775C450.202 210.24 450.539 212.773 451.066 215.682C451.328 217.124 452.211 219.955 450.124 220.166C446.977 220.49 447.912 214.886 447.066 212.502Z" fill="#191919"/>
<path d="M444.409 181.494C441.911 183.869 440.269 190.196 435.575 185.861C430.879 181.526 428.2 175.007 428.035 167.214C427.87 159.418 426.606 156.639 421.556 151.162C416.506 145.685 408.434 133.545 410.13 122.361C411.826 111.18 418.505 102.204 415.666 95.8044C412.828 89.4073 407.135 82.2038 410.484 78.1015C413.832 73.9992 420.951 63.2941 425.915 64.2926C430.879 65.2884 447.461 75.2223 450.534 92.0294C453.607 108.837 450.512 117.35 448.884 121.301C447.258 125.251 445.187 133.307 448.06 139.832C450.934 146.356 457.315 153.638 455.128 164.735C452.94 175.83 446.91 179.115 444.409 181.494Z" fill="white"/>
<path fill-rule="evenodd" clip-rule="evenodd" d="M439.035 184.538C436.531 186.914 434.889 193.238 430.19 188.905C425.488 184.57 422.807 178.054 422.642 170.258C422.477 162.465 421.211 159.686 416.155 154.209C411.097 148.732 403.017 136.592 404.715 125.414C406.414 114.232 413.101 105.259 410.26 98.8595C407.419 92.4624 401.717 85.259 405.069 81.1566C408.42 77.0543 415.55 66.3519 420.519 67.3477C425.488 68.3435 442.092 78.2774 445.168 95.0819C448.247 111.886 445.146 120.4 443.518 124.35C441.889 128.301 439.815 136.357 442.691 142.879C445.57 149.4 451.96 156.682 449.767 167.779C447.577 178.877 441.536 182.162 439.035 184.538Z" fill="#B5E6EB"/>
<path fill-rule="evenodd" clip-rule="evenodd" d="M408.294 85.8516C408.294 85.1832 408.294 84.5148 408.294 83.8437C409.214 79.3246 411.121 75.685 413.357 72.2781C415.431 69.1174 417.829 65.3263 421.367 63.6621C427.311 60.8667 433.804 66.5711 437.15 69.4449C441.338 73.0439 445.252 76.8973 447.869 81.8358C451.698 89.0717 454.229 98.8459 454.229 110.041C454.229 120.619 446.394 127.627 449.046 138.246C450.62 144.551 454.091 148.039 456.349 154.06C458.663 160.238 456.937 168.883 454.936 173.532C452.878 178.309 449.573 181.588 445.867 184.624C445.181 185.187 444.633 185.35 444.336 186.04C443.753 187.404 443.882 189.444 443.629 191.233C441.876 203.591 440.447 215.56 440.447 229.588C440.447 243.565 441.166 255.739 442.213 269.239C442.378 271.364 442.421 273.474 440.682 273.488C439.148 273.501 438.816 271.604 438.681 269.594C437.763 256.091 436.915 243.705 436.915 229.823C436.915 213.387 438.889 200.006 440.682 186.159C441.6 179.08 442.808 171.23 442.448 164.446C441.862 153.429 436.699 146.388 432.791 138.6C431.435 135.9 430.35 133.031 430.082 129.394C429.801 125.573 430.633 122.478 431.613 119.363C432.534 116.432 433.868 113.372 433.968 109.803C434.06 106.574 433.277 103.392 432.556 100.361C432.116 98.5131 429.642 92.9549 432.202 92.3352C433.796 91.9482 434.287 93.212 434.911 95.4039C436.129 99.6821 437.606 104.658 437.385 110.154C437.069 118.015 432.939 121.823 433.498 129.508C433.858 134.474 436.62 138.194 438.681 142.137C442.27 149.008 445.956 155.876 445.983 165.977C445.997 170.829 445.568 175.892 445.041 180.373C445.435 180.519 445.77 179.976 445.983 179.783C448.581 177.435 450.712 174.837 452.109 171.286C453.629 167.425 454.817 161.683 453.521 156.771C452.381 152.45 449.902 149.192 448.104 145.441C446.37 141.834 444.741 138.07 445.041 132.46C445.308 127.457 447.177 123.763 448.573 119.95C450.032 115.975 450.98 112.154 450.693 106.26C450.226 96.6811 447.693 87.9163 443.51 81.3595C441.468 78.161 438.873 75.6363 435.854 72.9817C433.126 70.5814 429.85 67.3693 426.196 66.609C425.629 66.4899 424.808 66.4331 424.311 66.4899C420.927 66.8904 418.008 71.3553 416.185 74.2779C415.134 75.9664 414.302 77.4033 413.476 79.2353C412.652 81.0592 411.699 83.1158 411.829 85.3726C411.972 87.8757 414.105 90.0324 415.245 91.7453C416.487 93.6125 417.74 95.826 417.835 98.827C417.937 102.088 416.849 105.275 415.95 108.033C415.007 110.918 413.914 113.724 413.122 116.411C411.28 122.675 412.134 130.065 414.065 135.648C416.744 143.393 422.98 149.46 427.255 155.946C428.781 158.262 430.414 160.798 430.671 163.734C431.03 167.861 429.664 171.571 430.436 174.829C431.446 179.101 434.476 182.535 437.031 185.569C437.971 186.684 438.946 188.443 437.855 189.344C436.426 190.526 434.86 188.692 433.85 187.455C432.845 186.224 431.975 184.925 431.257 183.915C429.864 181.954 427.995 179.193 427.136 175.889C426.199 172.288 427.5 168.348 427.255 164.678C426.99 160.749 424.541 158.076 422.661 155.472C417.875 148.848 412.782 143.712 410.06 134.939C408.345 129.413 408.002 121.471 409.706 115.585C410.454 113.001 411.451 110.241 412.415 107.324C413.287 104.683 414.716 101.357 414.3 98.118C413.671 93.2282 408.72 90.9091 408.294 85.8516Z" fill="#191919"/>
<path d="M458.466 240.934L427.787 240.891C424.64 240.886 422.672 245.156 423.339 250.121L427.449 281.433C427.849 284.415 430.015 286.81 432.278 286.861L454.223 286.564C456.54 286.618 458.725 284.328 459.117 281.319L463.135 250.354C463.791 245.299 461.715 240.94 458.466 240.934Z" fill="#191919"/>
<path d="M432.237 288.631C429.083 288.558 426.212 285.5 425.696 281.663L421.586 250.357C421.086 246.633 421.88 243.159 423.711 241.064C424.821 239.792 426.231 239.121 427.789 239.121L458.469 239.165C460.07 239.167 461.523 239.863 462.673 241.178C464.545 243.316 465.371 246.834 464.885 250.584L460.867 281.549C460.37 285.381 457.499 288.336 454.299 288.336C454.215 288.336 432.299 288.631 432.275 288.631C432.264 288.634 432.251 288.634 432.237 288.631ZM454.264 284.797C455.53 284.845 457.072 283.343 457.364 281.095L461.382 250.13C461.731 247.456 461.193 244.858 460.019 243.516C459.543 242.975 459.036 242.71 458.463 242.71C458.463 242.71 427.784 242.666 427.781 242.666C427.263 242.666 426.801 242.907 426.369 243.402C425.235 244.698 424.732 247.248 425.089 249.897L429.199 281.203C429.499 283.446 431.065 285.048 432.291 285.097C432.291 285.097 454.196 284.802 454.22 284.802C454.237 284.797 454.25 284.797 454.264 284.797Z" fill="#191919"/>
<path fill-rule="evenodd" clip-rule="evenodd" d="M462.717 234.121L423.83 233.996C420.973 233.988 418.089 236.432 417.357 239.617L416.968 241.302C416.166 244.785 418.102 247.77 421.332 247.77L465.25 247.789C468.418 247.792 470.297 244.839 469.493 241.394L469.104 239.725C468.366 236.567 465.525 234.129 462.717 234.121Z" fill="#B5E6EB"/>
<path d="M465.247 249.556L421.33 249.537C419.372 249.537 417.646 248.722 416.474 247.242C415.151 245.573 414.702 243.262 415.245 240.902L415.634 239.216C416.539 235.292 420.128 232.224 423.836 232.226L462.722 232.351C466.357 232.362 469.914 235.422 470.824 239.319L471.213 240.991C471.764 243.348 471.326 245.648 470.014 247.307C468.863 248.76 467.173 249.561 465.253 249.561C465.25 249.556 465.25 249.556 465.247 249.556ZM467.381 240.123C466.838 237.795 464.742 235.896 462.709 235.89C462.709 235.89 423.822 235.766 423.814 235.766C421.74 235.766 419.617 237.668 419.077 240.014L418.688 241.7C418.389 243.005 418.588 244.222 419.239 245.042C419.736 245.667 420.46 246 421.332 246L465.25 246.019C466.082 246.019 466.77 245.702 467.243 245.104C467.88 244.301 468.072 243.094 467.77 241.798L467.381 240.123Z" fill="#191919"/>
<path fill-rule="evenodd" clip-rule="evenodd" d="M241.524 285.565H406.879C406.879 285.565 428.759 282.099 427.757 267.627C426.755 253.158 418.529 240.788 410.913 233.163C403.297 225.537 400.783 221.004 400.783 221.004C400.783 221.004 406.217 211.463 403.727 205.307C401.237 199.151 391.947 194.921 391.947 194.921C391.947 194.921 397.478 180.243 392.773 174.856C388.069 169.468 377.242 165.414 371.687 163.526C366.134 161.637 358.092 157.448 360.849 146.175C363.609 134.901 357.876 122.053 348.834 114.66C339.792 107.267 327.561 102.981 322.214 104.274C316.864 105.568 313.234 108.295 310.318 107.343C307.398 106.39 304.417 102.391 299.364 103.92C291.71 106.236 289.822 113.716 289.822 113.716C289.822 113.716 283.849 111.091 278.75 114.306C273.651 117.52 268.415 122.989 269.209 129.532C270.005 136.076 275.452 141.336 275.452 141.336C275.452 141.336 268.371 159.529 257.666 164.47C246.958 169.411 236.731 180.598 237.287 189.257C237.846 197.917 249.183 214.396 249.183 214.396L224.683 259.72L241.524 285.565Z" fill="white"/>
<path fill-rule="evenodd" clip-rule="evenodd" d="M246.71 213.796C246.71 213.796 255.797 202.041 259.667 199.161C267.75 193.143 275.334 196.212 275.334 196.212L283.932 184.289C283.932 184.289 278.453 180.043 274.626 178.977C270.799 177.911 268.18 177.367 268.62 174.845C269.057 172.323 270.013 160.646 271.801 159.502C273.589 158.357 275.218 159.502 275.218 159.502C275.218 159.502 276.001 152.553 278.28 153.01C280.557 153.467 282.404 155.724 282.404 155.724C282.404 155.724 284.643 150.894 288.175 147.817C291.708 144.74 294.181 143.685 294.181 143.685L295.596 134.834C295.596 134.834 304.044 126.41 305.019 125.273C305.994 124.137 316.977 128.101 323.159 135.894C329.341 143.69 333.643 146.518 333.643 146.518L336.233 146.754L332.817 157.139C332.817 157.139 340.683 156.146 340.238 160.917C339.792 165.688 339.962 168.112 335.171 168.472C330.383 168.832 327.043 169.298 327.043 169.298L323.51 172.131L325.158 188.657C325.158 188.657 343.349 182.852 353.428 184.998C363.504 187.144 366.42 187.742 372.629 193.379C378.838 199.015 399.249 220.525 399.249 220.525C399.249 220.525 406.387 211.184 402.193 203.529C397.999 195.874 391.828 196.093 391.828 196.093C391.828 196.093 395.647 180.595 391.947 174.967C388.244 169.338 379.397 166.654 371.452 163.282C363.506 159.91 359.445 157.418 359.909 149.238C360.371 141.055 363.831 127.568 351.429 117.252C339.025 106.937 331.477 104.764 324.102 104.978C316.726 105.192 312.473 109.023 309.024 107.457C305.575 105.89 301.778 103.159 296.185 105.922C290.592 108.685 288.648 114.893 288.648 114.893C288.648 114.893 281.683 110.111 275.336 117.252C268.99 124.396 267.097 127.99 268.739 132.479C270.383 136.969 274.748 142.865 274.748 142.865C274.748 142.865 267.95 160.617 260.613 163.756C253.275 166.897 237.295 177.37 236.466 187.479C235.086 204.208 246.71 213.796 246.71 213.796Z" fill="#191919"/>
<path fill-rule="evenodd" clip-rule="evenodd" d="M368.821 236.183C368.821 236.183 372.513 230.946 376.712 226.387C385.941 216.366 396.619 217.771 396.619 217.771C396.619 217.771 374.293 192.074 366.11 189.325C357.927 186.578 349.147 186.256 349.147 186.256C349.147 186.256 341.926 191.641 339.252 197.822C336.578 204.002 333.716 218.712 333.716 218.712C333.716 218.712 339.422 212.437 343.141 212.104C346.86 211.769 355.364 215.232 356.803 216.353C358.248 217.473 368.821 236.183 368.821 236.183Z" fill="#8256E1"/>
<path fill-rule="evenodd" clip-rule="evenodd" d="M305.464 199.765C306.782 199.421 328.552 194.572 328.552 194.572L323.135 209.444L295.688 215.111C295.686 215.108 304.147 200.109 305.464 199.765Z" fill="#8256E1"/>
<path fill-rule="evenodd" clip-rule="evenodd" d="M394.542 195.573C400.059 197.135 403.751 200.057 405.615 205.25C407.675 210.992 404.626 216.567 402.552 221.18C408.248 227.964 414.092 234.31 419.747 241.478C422.475 244.937 424.881 248.479 426.696 253.279C428.405 257.798 430.044 262.94 429.639 268.974C429.137 276.492 424.176 281.344 418.567 284.079C411.975 287.297 404.048 286.574 396.659 284.55C389.608 282.621 383.78 280.104 378.757 276.289C373.78 272.508 369.693 268.089 365.448 263.427C357.411 263.219 354.411 257.966 350.489 253.631C346.176 252.719 343.352 250.322 341.186 247.258C337.613 245.838 331.193 244.882 328.347 242.42C326.74 241.029 324.958 237.498 326.227 234.867C327.307 232.63 330.586 232.519 333.411 231.799C327.329 231.62 329.865 221.746 332.703 219.524C333.197 212.388 334.067 205.837 336.235 200.287C338.401 194.745 342.671 191.084 345.893 187.187C343.289 187.588 340.565 187.282 338.355 188.132C337.116 188.608 334.634 190.556 333.527 191.555C331.01 193.817 329.468 198.198 327.874 201.705C327.296 202.98 326.694 204.457 325.989 206.073C325.403 207.415 324.774 209.582 323.869 210.202C322.759 210.96 318.522 211.452 317.039 211.736C309.85 213.111 303.218 214.542 295.958 215.63C290.87 222.368 286.406 228.814 281.353 235.812C280.697 236.721 279.957 238.188 278.763 238.172C277.872 238.161 277.246 237.544 277.116 236.992C276.692 235.225 279.871 231.942 280.648 230.854C288.769 219.513 296.38 208.389 304.557 196.748C305.926 194.799 307.59 192.68 308.327 190.848C309.896 186.93 308.838 182.828 306.561 180.817C302.507 177.234 296.193 174.869 290.897 172.437C289.172 171.644 286.196 170.621 285.95 169.487C285.653 168.107 286.817 166.819 287.362 165.712C288.383 163.645 289.461 162.208 288.54 159.339C286.49 160.406 285.863 162.641 284.418 164.651C283.387 166.086 280.727 168.38 280.886 170.55C280.983 171.89 283.044 173.062 284.656 173.974C286.217 174.858 290.357 176.101 288.424 178.338C287.729 179.142 285.834 178.82 285.361 178.222C284.689 178.744 284.626 179.296 283.711 179.402C282.536 179.54 281.126 178.612 280.178 178.338C281.434 179.402 283.554 180.519 285.831 181.997C287.303 182.952 290.903 184.673 290.778 186.481C290.633 188.6 287.705 188.123 286.773 186.835C270.964 203.919 255.797 220.969 240.369 238.761C236.65 243.051 232.896 247.607 229.18 252.216C226.344 255.734 224.267 258.829 223.055 264.136C220.913 273.512 225.62 280.651 232.947 282.664C233.139 282.716 233.865 282.87 234.125 282.9C238.578 283.389 242.472 282.28 247.08 281.365C249.294 280.924 250.698 280.637 253.086 280.066C254.523 279.723 257.863 278.678 258.033 280.892C258.22 283.322 252.986 283.668 251.085 284.077C247.974 284.745 245.427 285.303 242.605 285.73C239.847 286.147 235.937 286.72 233.301 286.32C230.727 285.93 228.167 284.534 226.352 283.251C222.55 280.564 219.379 276.226 218.934 270.506C218.464 264.496 220.713 258.976 222.939 254.337C224.57 250.936 226.757 247.729 228.71 244.542C234.603 234.922 240.174 225.434 246.377 215.747C241.732 209.728 238.062 203.943 236.366 195.33C234.419 185.434 238.978 178.604 243.669 173.378C246.145 170.621 248.581 168.191 251.795 166.297C254.979 164.421 258.655 163.347 261.571 160.868C264.293 158.555 266.262 155.24 268.166 152.252C270.167 149.116 271.966 145.866 273.819 142.695C271.709 138.622 268.217 134.936 268.047 129.476C267.907 124.935 270.356 120.532 272.995 117.201C276.408 112.893 282.363 110.663 288.424 113.072C289.658 108.19 294.883 104.201 300.082 103.276C304.341 102.518 306.504 105.611 310.093 105.874C312.213 106.028 314.142 105.246 315.865 104.81C317.79 104.323 319.721 103.966 321.636 103.747C326.227 103.224 329.497 103.971 333.413 105.046C340.176 106.899 346.341 110.533 351.081 114.606C356.166 118.973 359.769 123.839 362.269 130.655C363.609 134.309 363.89 137.981 363.328 142.456C362.834 146.399 360.811 152.453 362.621 156.382C364.808 161.128 371.957 162.462 377.46 164.17C379.375 164.765 381.085 165.707 382.643 166.413C386.381 168.107 389.284 169.457 391.712 172.431C393.918 175.134 395.903 178.428 396.305 182.817C396.732 187.477 395.376 191.235 394.542 195.573ZM402.903 209.972C403.27 205.718 400.286 202.1 398.074 200.766C397.129 200.195 395.549 199.692 394.069 199.232C392.422 198.72 390.842 198.363 390.653 197.107C390.461 195.814 391.542 192.983 391.949 190.97C392.36 188.93 392.908 186.416 392.892 184.362C392.838 177.156 388.012 172.575 382.762 170.318C380.788 169.468 378.868 168.445 377.109 167.839C368.867 164.995 359.121 163.434 358.502 154.149C358.032 147.111 360.935 141.385 359.915 135.15C359.04 129.803 355.91 124.726 352.847 121.225C349.709 117.637 345.893 114.425 341.188 111.903C336.703 109.497 331.193 107.405 325.052 107.064C319.316 106.745 315.821 109.51 310.447 109.424C308.711 109.397 307.339 108.88 306.088 108.363C304.422 107.673 302.875 106.447 300.552 106.71C298.035 106.997 293.476 110.136 292.545 111.903C291.802 113.307 292.288 116.909 290.19 117.212C289.342 117.334 288.529 116.755 287.481 116.387C283.765 115.077 279.195 115.661 276.762 118.037C274.564 120.186 272.282 124.015 271.699 127.598C270.913 132.425 274.159 136.666 276.057 139.518C276.703 140.489 277.581 141.553 277.589 142.467C277.599 143.918 275.984 146.101 275.234 147.425C274.332 149.01 273.386 150.634 272.525 152.028C268.566 158.433 265.05 163.904 258.274 167.016C254.871 168.578 251.8 170.082 249.205 172.68C244.474 177.421 238.694 182.933 239.429 192.034C240.115 200.52 244.028 206.773 248.379 212.451C251.873 207.334 254.001 202.281 258.625 198.642C262.098 195.909 266.397 194.282 271.345 193.33C272.781 193.054 275.147 193.067 276.527 192.505C277.772 191.996 279.141 189.882 280.178 188.727C281.477 187.282 282.679 186.01 283.595 184.714C281.456 183.686 279.771 182.013 277.235 180.82C274.791 179.667 271.847 179.464 269.697 177.987C265.736 175.259 267.92 168.375 269.344 164.061C270.294 161.185 271.231 155.854 275.35 156.628C275.876 153.116 279.957 150.426 283.83 152.496C285.045 149.092 287.751 146.304 290.662 144.353C291.624 143.709 293.012 142.199 294.549 142.465C295.475 142.624 295.902 143.685 295.845 144.353C295.745 145.498 294.065 146.267 293.017 146.951C291.853 147.712 290.571 148.545 289.839 149.311C287.654 151.587 286.919 154.677 285.48 157.099C286.39 155.838 288.842 155.345 290.19 156.035C293.954 157.967 292.067 165.712 290.071 168.191C293.682 169.982 297.716 171.484 301.613 173.503C302.969 174.206 304.203 175.378 305.265 175.508C306.31 175.638 307.79 175.113 309.035 174.918C311.962 174.458 313.804 173.998 316.102 173.029C317.52 172.431 321.058 170.51 320.812 173.735C320.664 175.673 317.415 176.211 315.865 176.804C313.78 177.602 311.706 178.198 309.386 178.455C309.818 179.359 310.733 180.16 311.271 181.169C311.96 182.46 312.446 183.932 312.567 185.536C312.886 189.739 311.398 192.578 309.977 194.859C309.518 195.595 308.802 196.38 308.916 196.983C315.959 196.645 321.72 195.021 327.761 193.679C328.35 192.421 329.43 191.024 329.881 190.02C328.374 190.437 327.148 191.138 325.168 191.084C323.864 190.507 323.988 188.851 323.872 187.306C323.634 184.127 323.494 181.036 323.283 177.748C323.173 176.025 322.77 174.293 323.048 173.146C323.24 172.353 324.196 171.295 324.933 170.312C325.571 169.465 326.451 168.148 327.288 167.953C328.193 167.742 329.624 168.091 330.821 168.188C332.12 168.294 333.5 168.451 334.588 168.307C336.568 168.045 339.306 165.59 339.536 163.704C339.76 161.872 338.731 160.546 337.769 160.046C335.828 159.034 331.731 160.278 331.528 157.805C331.463 157.031 331.982 156.116 332.352 155.326C333.473 152.945 334.693 150.796 335.296 148.245C331.982 147.657 330.853 145.679 328.582 143.406C327.566 142.389 325.36 139.599 324.107 139.277C321.793 138.682 318.484 140.04 318.689 137.272C318.76 136.346 319.402 135.737 320.575 135.737C318.49 132.969 314.447 130.526 310.798 128.891C308.262 127.755 306.664 126.824 304.203 128.182C303.593 128.52 302.61 129.37 302.791 129.716C309.715 129.013 314.066 133.754 313.98 140.219C313.893 146.648 309.345 152.071 302.202 151.665C302.664 153.427 303.752 156.563 301.141 156.503C299.926 156.476 299.485 155.324 299.021 153.673C298.635 152.301 297.862 150.81 298.078 149.66C298.394 147.971 300.598 148.32 302.318 148.245C303.62 148.188 305.227 148.104 306.558 147.419C310.02 145.641 311.943 138.644 308.913 135.145C307.998 134.089 306.323 133.018 304.438 133.02C302.721 133.023 301.459 133.978 300.079 134.674C299.21 135.112 297.8 136.165 296.547 135.973C293.965 135.578 295.723 132.853 296.547 131.724C298.121 129.565 299.969 126.807 301.965 125.471C303.161 124.67 305.859 123.609 307.501 123.817C308.77 123.98 310.461 124.905 311.741 125.471C313.199 126.115 314.62 126.862 315.746 127.476C321.895 130.842 326.94 136.804 331.644 141.52C332.695 142.573 333.694 143.953 334.707 144.47C336.503 145.387 338.326 145.19 338.828 146.948C339.722 150.066 336.557 153.313 336 156.154C340.451 156.246 343.951 160.167 342.949 164.651C341.81 169.752 335.644 173.267 328.579 171.498C327.785 172.315 327.137 173.278 326.459 174.212C326.864 178.409 327.013 182.863 327.402 187.076C334.855 185.012 342.622 183.247 351.429 183.891C359.715 184.495 367.06 186.857 372.51 190.499C377.836 194.058 381.973 199.63 386.527 204.189C391.299 208.968 395.555 214.017 400.07 218.469C400.98 215.162 402.622 213.225 402.903 209.972ZM278.531 157.927C277.391 160.706 276.36 163.29 275.35 166.069C274.885 167.352 273.999 169.476 274.172 170.553C274.415 172.066 277.772 173.798 278.882 173.976C276.287 172.166 277.899 168.02 279.001 166.188C279.444 165.452 280.181 164.678 280.532 163.829C281.064 162.538 281.218 160.893 281.475 159.58C281.734 158.246 282.185 156.59 281.356 155.213C279.671 155.01 279.066 156.623 278.531 157.927ZM275.115 176.455C275.952 176.615 275.442 176.474 274.88 176.101C273.384 175.107 272.379 174.469 270.994 172.207C269.93 175.007 273.405 176.133 275.115 176.455ZM345.663 192.743C343.946 194.596 342.382 196.537 341.07 198.642C338.293 203.099 337.597 208.724 336.476 215.046C336.975 215.379 337.243 214.607 337.537 214.337C338.674 213.292 340.146 212.053 341.542 211.504C345.034 210.134 348.999 212.045 352.496 212.919C355.288 213.617 358 214.247 359.798 215.162C363.236 220.921 366.674 226.682 370.045 232.51C372.721 228.681 375.867 225.245 379.583 222.479C383.229 219.768 387.083 216.594 393.011 216.342C387.682 210.18 381.722 204.189 375.932 198.168C370.02 192.02 362.364 188.056 351.2 187.312C349.209 188.873 347.438 190.829 345.663 192.743ZM258.155 203.835C256.251 206.089 254.69 208.965 252.972 211.623C247.825 219.589 242.902 228.192 238.014 235.934C237.757 236.529 238.705 235.379 238.837 235.225C249.74 222.65 261.001 210.004 272.05 197.814C272.366 197.465 272.968 196.796 272.757 196.634C266.818 197.754 261.531 199.835 258.155 203.835ZM306.091 200.766C303.631 204.476 301.022 208.04 298.554 211.742C306.267 210.264 313.882 208.692 321.639 207.258C322.932 204.07 324.658 200.685 325.76 197.697C319.799 199.321 313.267 200.363 306.091 200.766ZM374.52 239.947C385.805 243.459 396.981 246.89 408.439 250.449C410.03 250.944 412.293 251.461 412.444 252.808C412.833 256.315 407.988 254.107 406.084 253.517C396.098 250.416 386.983 247.529 377.228 244.431C375.643 243.927 373.41 243.575 372.4 242.896C371.741 242.455 370.955 240.867 370.398 239.947C365.851 232.416 361.732 225.077 357.325 217.879C355.423 217.303 353.339 216.721 351.2 216.228C349.047 215.73 346.895 214.781 344.958 214.575C341.85 214.245 339.76 217.07 337.891 218.942C335.45 221.389 332.854 223.857 333.297 228.148C334.855 228.833 335.606 227.369 336.476 226.849C337.669 226.138 338.874 225.656 340.362 225.199C341.702 224.057 342.252 221.221 344.248 220.831C345.223 220.642 347.281 220.853 348.488 221.067C349.374 221.224 349.728 221.757 350.373 221.776C351.967 221.819 358.07 218.036 357.792 222.011C357.676 223.689 355.053 223.93 353.198 224.49C349.334 225.653 346.236 226.706 342.598 228.029C341.186 228.543 338.226 229.35 337.769 230.389C336.986 232.167 338.207 234.031 338.593 235.817C342.903 234.131 347.875 232.129 352.491 230.27C354.046 229.645 358.783 226.806 358.732 230.27C358.71 231.826 355.969 232.638 354.845 233.103C349.679 235.23 345.013 236.965 340.241 239.002C340.845 240.09 341.259 241.365 342.242 242.071C346.241 240.477 351.081 238.61 355.432 236.878C356.922 236.285 361.535 233.864 361.203 237.352C361.062 238.84 358.589 239.43 357.551 239.83C352.779 241.668 348.494 243.351 344.124 245.142C344.945 246.279 345.915 247.924 347.656 248.917C349.471 249.951 353.139 251.207 355.078 250.571C356.112 250.23 356.582 248.928 357.079 247.856C355.904 246.747 353.501 246.885 353.546 244.788C353.601 242.369 356.307 243.345 357.668 244.079C358.337 244.439 359.388 244.91 359.906 245.497C360.609 246.287 360.954 247.767 361.438 248.801C362.17 250.362 362.996 251.247 362.85 252.34C362.558 254.521 359.061 253.899 359.083 251.75C358.003 252.557 357.414 253.853 355.666 253.991C357.516 256.675 359.545 258.935 363.558 259.655C364.665 259.855 366.037 259.684 367.09 260.128C368.505 260.721 369.923 263.213 370.976 264.377C374.854 268.652 379.319 273.001 384.166 275.942C387.391 277.899 391.728 279.539 395.825 280.781C400.057 282.063 404.769 283.3 410.195 282.905C414.664 282.578 418.534 280.442 421.265 278.067C424.125 275.58 426.231 272.249 426.212 267.091C426.188 261.251 424.219 256.021 422.326 251.631C421.394 249.472 419.939 247.564 418.556 245.729C412.239 237.346 405.601 229.861 398.534 222.127C397.826 221.351 396.719 219.955 395.944 219.768C395.133 219.573 393.651 219.789 392.527 219.884C388.665 220.214 386.88 221.63 384.282 223.426C379.381 226.814 374.822 230.919 372.151 236.053C372.983 237.316 373.674 238.71 374.52 239.947ZM329.411 236.526C329.562 241.254 334.969 241.343 338.245 242.544C336.851 240.323 335.52 238.036 334.712 235.227C332.676 235.39 330.904 235.82 329.411 236.526Z" fill="#191919"/>
<path fill-rule="evenodd" clip-rule="evenodd" d="M315.983 159.699C317.026 159.48 318.101 159.959 318.222 160.998C318.527 163.639 312.324 165.466 309.742 165.601C307.679 165.709 305.154 165.496 305.03 163.712C304.859 161.253 307.908 162.181 309.742 162.062C312.224 161.899 313.915 160.563 315.748 159.702C315.808 159.67 315.916 159.713 315.983 159.699Z" fill="#191919"/>
<path fill-rule="evenodd" clip-rule="evenodd" d="M333.178 161.469C334.969 161.383 337.418 160.828 337.537 162.649C337.651 164.413 335.517 164.202 333.178 164.3C331.326 164.378 328.339 165.025 328.585 162.765C328.782 160.966 331.118 161.567 333.178 161.469Z" fill="#191919"/>
<path fill-rule="evenodd" clip-rule="evenodd" d="M336.165 231.731C335.555 231.588 334.963 231.371 334.48 231.03C333.786 230.543 333.062 229.915 332.625 229.147C327.461 235.666 323.659 240.512 323.659 240.512C323.659 240.512 322.009 244.582 323.016 245.711C324.026 246.842 327.645 244.761 327.645 244.761C327.645 244.761 331.542 240.51 336.886 234.651C336.273 233.804 335.93 232.716 336.165 231.731Z" fill="#191919"/>
<path fill-rule="evenodd" clip-rule="evenodd" d="M364.822 193.701C364.452 193.622 363.687 194.434 362.883 195.478C361.986 195.04 361.103 194.91 360.401 195.338C359.388 195.957 353.109 203.559 346.023 212.353C346.633 212.529 347.214 212.851 347.702 213.317C347.956 213.557 348.218 213.787 348.486 214.012C349.301 213.969 350.122 214.031 350.905 214.293C352.045 214.675 352.912 215.322 353.784 216.036C361.003 208.034 366.95 201.34 367.155 200.777C367.333 200.292 366.92 199.356 366.194 198.379C366.963 197.597 367.628 196.85 367.682 196.545C367.811 195.795 365.802 193.909 364.822 193.701Z" fill="#191919"/>
<path d="M196.108 273.493H339.749C343.001 273.493 345.639 276.134 345.639 279.395V281.165C345.639 284.426 343.003 287.067 339.749 287.067H196.108C192.857 287.067 190.218 284.426 190.218 281.165V279.395C190.218 276.134 192.854 273.493 196.108 273.493Z" fill="white"/>
<path d="M188.452 281.165V279.395C188.452 275.166 191.887 271.724 196.108 271.724H339.749C343.97 271.724 347.405 275.166 347.405 279.395V281.165C347.405 285.395 343.97 288.837 339.749 288.837H196.108C191.887 288.837 188.452 285.395 188.452 281.165ZM196.108 275.263C193.834 275.263 191.984 277.117 191.984 279.395V281.165C191.984 283.443 193.834 285.297 196.108 285.297H339.749C342.023 285.297 343.873 283.443 343.873 281.165V279.395C343.873 277.117 342.023 275.263 339.749 275.263H196.108Z" fill="#191919"/>
<path d="M106.806 287.657H485.275C488.527 287.657 491.165 290.298 491.165 293.559V295.328C491.165 298.589 488.529 301.23 485.275 301.23H106.806C103.552 301.23 100.916 298.589 100.916 295.328V293.559C100.916 290.298 103.555 287.657 106.806 287.657Z" fill="#191919"/>
<path d="M99.1501 295.328V293.559C99.1501 289.329 102.585 285.887 106.806 285.887H485.275C489.496 285.887 492.931 289.329 492.931 293.559V295.328C492.931 299.558 489.496 303 485.275 303H106.806C102.585 303 99.1501 299.558 99.1501 295.328ZM106.806 289.427C104.532 289.427 102.683 291.28 102.683 293.559V295.328C102.683 297.607 104.532 299.46 106.806 299.46H485.275C487.549 299.46 489.396 297.607 489.396 295.328V293.559C489.396 291.28 487.546 289.427 485.275 289.427H106.806Z" fill="#191919"/>
<path d="M171.567 203.902H277.17C280.424 203.902 283.765 206.165 284.635 208.957L303.636 270.135C304.503 272.928 300.144 278.259 296.893 278.259H191.317C188.063 278.259 184.722 275.996 183.855 273.207L164.859 212.066C163.987 209.277 168.313 203.902 171.567 203.902Z" fill="white"/>
<path d="M182.165 273.734L163.168 212.594C162.626 210.851 163.255 208.573 164.889 206.346C166.385 204.308 168.923 202.133 171.567 202.133H277.17C281.205 202.133 285.223 204.901 286.32 208.432L305.321 269.61C305.859 271.339 305.24 273.591 303.623 275.791C302.116 277.842 299.558 280.031 296.89 280.031H191.314C187.28 280.028 183.261 277.263 182.165 273.734ZM171.567 205.672C170.544 205.672 168.896 206.863 167.735 208.443C166.623 209.956 166.412 211.125 166.542 211.541L185.538 272.682C186.178 274.746 188.824 276.489 191.312 276.489H296.887C297.932 276.489 299.604 275.285 300.776 273.691C301.865 272.208 302.073 271.066 301.946 270.66L282.944 209.482C282.301 207.415 279.657 205.669 277.167 205.669H171.567V205.672Z" fill="#191919"/>
<path fill-rule="evenodd" clip-rule="evenodd" d="M324.139 141.58C325.646 141.986 326.543 143.539 326.138 145.049L325.041 149.154C324.636 150.667 323.086 151.562 321.579 151.156C320.072 150.75 319.176 149.197 319.581 147.687L320.68 143.582C321.082 142.072 322.632 141.174 324.139 141.58Z" fill="#191919"/>
<path fill-rule="evenodd" clip-rule="evenodd" d="M343.454 151.665C348.653 154.395 349.968 161.642 346.39 167.853C342.811 174.063 335.698 176.883 330.497 174.152C325.298 171.422 323.983 164.175 327.561 157.965C331.139 151.757 338.253 148.935 343.454 151.665Z" fill="#B5E6EB"/>
<path fill-rule="evenodd" clip-rule="evenodd" d="M309.159 105.803C309.159 105.803 344.035 107.197 343.554 129.173C343.103 149.876 340.022 154.666 340.022 154.666L344.381 157.026C344.381 157.026 351.707 145.98 351.567 128.934C351.413 110.439 328.833 105.33 328.833 105.33C328.833 105.33 322.94 104.277 320.234 104.385C317.525 104.496 309.159 105.803 309.159 105.803Z" fill="#B5E6EB"/>
<path fill-rule="evenodd" clip-rule="evenodd" d="M305.983 140.57C307.49 140.974 308.387 142.53 307.981 144.039L306.885 148.145C306.48 149.654 304.93 150.553 303.423 150.147C301.913 149.744 301.019 148.191 301.424 146.678L302.521 142.573C302.926 141.063 304.476 140.164 305.983 140.57Z" fill="#191919"/>
<path d="M167.549 11.6576H344.678C352.482 11.6576 357.862 17.6677 356.695 25.0795L346.225 91.5181C345.056 98.9299 337.783 104.94 329.978 104.94H152.849C145.044 104.94 139.665 98.9299 140.831 91.5181L151.302 25.0795C152.468 17.6677 159.741 11.6576 167.549 11.6576Z" fill="white"/>
<path d="M141.955 101.961C139.473 99.049 138.452 95.2443 139.084 91.242L149.555 24.8035C150.851 16.5799 158.923 9.88785 167.549 9.88785H344.678C349.088 9.88785 352.955 11.5737 355.569 14.6369C358.051 17.5486 359.072 21.3533 358.44 25.3555L347.97 91.7941C346.673 100.02 338.601 106.71 329.975 106.71H152.847C148.436 106.712 144.569 105.024 141.955 101.961ZM167.549 13.4273C160.589 13.4273 154.084 18.7772 153.046 25.3555L142.576 91.7941C142.109 94.7545 142.843 97.5498 144.645 99.6605C146.576 101.925 149.49 103.17 152.849 103.17H329.978C336.938 103.17 343.443 97.8177 344.48 91.242L354.951 24.8035C355.418 21.8431 354.683 19.0478 352.882 16.9371C350.951 14.6748 348.037 13.4273 344.678 13.4273H167.549Z" fill="#191919"/>
<path fill-rule="evenodd" clip-rule="evenodd" d="M128.49 0H382.878L377.415 34.6751H123.026L128.49 0Z" fill="#191919"/>
<path fill-rule="evenodd" clip-rule="evenodd" d="M303.642 20.2898C305.81 20.2898 307.306 21.9676 306.979 24.0377C306.653 26.1078 304.63 27.7856 302.461 27.7856C300.293 27.7856 298.797 26.1078 299.123 24.0377C299.447 21.9703 301.47 20.2898 303.642 20.2898Z" fill="white"/>
<path fill-rule="evenodd" clip-rule="evenodd" d="M318.819 20.2899C320.988 20.2899 322.484 21.9676 322.157 24.0377C321.83 26.1078 319.808 27.7856 317.639 27.7856C315.468 27.7856 313.974 26.1078 314.301 24.0377C314.625 21.9703 316.648 20.2899 318.819 20.2899Z" fill="white"/>
<path fill-rule="evenodd" clip-rule="evenodd" d="M333.351 20.2899C335.52 20.2899 337.016 21.9676 336.689 24.0377C336.362 26.1078 334.339 27.7856 332.171 27.7856C330 27.7856 328.506 26.1078 328.833 24.0377C329.16 21.9703 331.182 20.2899 333.351 20.2899Z" fill="white"/>
<path fill-rule="evenodd" clip-rule="evenodd" d="M163.258 40.7881H219.849C222.342 40.7881 224.062 42.7093 223.69 45.0825L217.421 84.9045C217.049 87.275 214.723 89.199 212.231 89.199H155.639C153.146 89.199 151.426 87.2777 151.799 84.9045L158.067 45.0825C158.44 42.712 160.762 40.7881 163.258 40.7881Z" fill="#8256E1"/>
<g opacity="0.82">
<g opacity="0.82">
<g opacity="0.82">
<g opacity="0.82">
<path opacity="0.82" d="M37.7997 83.8952H214.961C222.766 83.8952 228.148 89.9026 226.981 97.3117L207.359 221.743C206.189 229.152 198.914 235.16 191.106 235.16H13.9451C6.13759 235.16 0.757939 229.152 1.92461 221.743L21.5474 97.3117C22.7195 89.9026 29.9949 83.8952 37.7997 83.8952Z" fill="white"/>
</g>
</g>
<g opacity="0.82">
<g opacity="0.82">
<path opacity="0.82" d="M3.05091 232.178C0.569036 229.269 -0.4491 225.464 0.182847 221.467L19.8056 97.0357C21.1019 88.8148 29.1768 82.1255 37.8026 82.1255H214.964C219.377 82.1255 223.247 83.814 225.858 86.8772C228.34 89.7862 229.358 93.5909 228.729 97.5877L209.106 222.019C207.81 230.24 199.735 236.929 191.109 236.929H13.9479C9.53241 236.929 5.66512 235.244 3.05091 232.178ZM37.7999 85.6649C30.8377 85.6649 24.3319 91.0121 23.2948 97.5877L3.67204 222.019C3.20483 224.977 3.93941 227.767 5.73802 229.878C7.66897 232.143 10.583 233.39 13.9479 233.39H191.109C198.071 233.39 204.577 228.043 205.614 221.467L225.237 97.0357C225.704 94.078 224.97 91.2881 223.171 89.1774C221.24 86.9124 218.326 85.6649 214.964 85.6649H37.7999Z" fill="#191919"/>
</g>
</g>
</g>
<g opacity="0.82">
<g opacity="0.82">
<g opacity="0.82">
<path opacity="0.82" fill-rule="evenodd" clip-rule="evenodd" d="M7.23426 72.2565H261.668L256.202 106.915H1.76819L7.23426 72.2565Z" fill="#191919"/>
</g>
</g>
</g>
</g>
<path d="M54.4088 221.743H24.9233L39.6661 196.139L54.4088 221.743Z" fill="#B5E6EB"/>
<path d="M91.5046 188.54L81.6689 205.623H61.9976L52.1619 188.54L61.9976 171.457H81.6689L91.5046 188.54Z" fill="#8256E1"/>
<path d="M387.682 104.572L382.94 105.847L379.467 102.367L380.739 97.6148L385.481 96.3402L388.954 99.8202L387.682 104.572Z" fill="white"/>
<path d="M393.089 75.0654L375.567 85.2022V64.9286L393.089 75.0654Z" fill="white"/>
<path fill-rule="evenodd" clip-rule="evenodd" d="M248.938 138.871L255.265 145.208L248.935 151.551L242.61 145.211L248.938 138.871Z" fill="white"/>
<path fill-rule="evenodd" clip-rule="evenodd" d="M173.725 92.595C175.896 92.595 177.39 94.2728 177.063 96.3402C176.736 98.4076 174.714 100.085 172.542 100.085C170.371 100.085 168.878 98.4076 169.204 96.3402C169.531 94.2728 171.554 92.595 173.725 92.595Z" fill="white"/>
<path fill-rule="evenodd" clip-rule="evenodd" d="M188.908 92.5951C191.079 92.5951 192.573 94.2728 192.246 96.3402C191.919 98.4076 189.897 100.085 187.725 100.085C185.554 100.085 184.06 98.4076 184.387 96.3402C184.714 94.2728 186.737 92.5951 188.908 92.5951Z" fill="white"/>
<path fill-rule="evenodd" clip-rule="evenodd" d="M203.443 92.5951C205.614 92.5951 207.108 94.2728 206.784 96.3402C206.457 98.4076 204.434 100.085 202.263 100.085C200.091 100.085 198.598 98.4076 198.925 96.3402C199.249 94.2728 201.272 92.5951 203.443 92.5951Z" fill="white"/>
<path d="M131.096 118.243H208.86C212.288 118.243 214.648 120.881 214.137 124.134L205.522 178.78C205.009 182.035 201.817 184.671 198.39 184.671H120.625C117.198 184.671 114.835 182.032 115.348 178.78L123.961 124.134C124.477 120.881 127.669 118.243 131.096 118.243Z" fill="#B5E6EB"/>
<path fill-rule="evenodd" clip-rule="evenodd" d="M288.437 48.9224C277.91 48.4191 265.944 49.0387 255.03 49.0387C250.329 49.0387 246.499 48.9359 241.643 49.1551C239.045 49.2742 237.074 49.1957 236.987 51.1386C236.882 53.5362 239.548 53.2683 242.343 53.2385C257.588 53.0788 272.147 53.0058 287.505 53.0058C290.255 53.0058 292.896 53.4902 292.977 51.1386C293.063 48.6166 290.77 49.0333 288.437 48.9224Z" fill="#2A2A2A"/>
<path fill-rule="evenodd" clip-rule="evenodd" d="M327.083 49.9723C323.502 49.8018 318.538 49.856 314.047 49.856C310.612 49.856 303.32 48.8764 303.339 52.0722C303.355 54.8053 307.444 54.0557 310.671 54.0557C316.972 54.0557 323.197 53.8988 329.411 54.1721C332.468 54.3074 336.67 54.9054 336.743 52.3049C336.84 48.917 330.313 50.1266 327.083 49.9723Z" fill="#2A2A2A"/>
<path fill-rule="evenodd" clip-rule="evenodd" d="M270.629 62.1008C269.446 62.0439 266.486 61.9844 264.226 61.9844C261.979 61.9844 260.151 62.2577 260.151 64.0843C260.151 67.4668 268.536 66.011 272.258 66.1842C284.089 66.7362 294.686 66.7822 306.712 67.1177C309.24 67.1881 311.522 67.5561 311.833 65.7187C312.405 62.3443 307.115 62.964 303.569 62.8043C299.682 62.6284 295.85 62.7231 292.626 62.5716C285.137 62.2117 277.845 62.4471 270.629 62.1008Z" fill="#2A2A2A"/>
<path fill-rule="evenodd" clip-rule="evenodd" d="M328.711 62.6853C325.719 62.3497 320.62 61.8599 320.68 64.6688C320.726 66.7606 323.032 66.7687 325.684 66.7687C328.593 66.7687 331.588 67.2449 331.272 64.4361C331.096 62.8558 329.886 62.8179 328.711 62.6853Z" fill="#2A2A2A"/>
<path fill-rule="evenodd" clip-rule="evenodd" d="M240.598 62.8016C238.624 62.7069 236.369 62.5905 236.642 65.1342C236.866 67.2395 239.121 66.7768 241.762 66.885C246.167 67.0609 251.546 68.0594 251.657 65.1342C251.787 61.6678 243.874 62.9586 240.598 62.8016Z" fill="#2A2A2A"/>
<path fill-rule="evenodd" clip-rule="evenodd" d="M275.749 77.2654C273.872 77.1192 272.479 77.3168 272.374 79.0162C272.236 81.2297 275.061 81.365 277.378 81.5815C279.935 81.8223 281.988 81.9306 284.594 81.9306C296.995 81.9306 308.665 82.4664 321.26 82.8641C324.115 82.9534 326.945 83.2836 327.08 80.997C327.207 78.8619 325.292 78.7401 322.54 78.6644C315.848 78.4777 308.716 78.1989 302.402 78.1989C297.838 78.1989 293.738 77.7335 289.131 77.7335C284.618 77.7308 280.211 77.6144 275.749 77.2654Z" fill="#2A2A2A"/>
<path fill-rule="evenodd" clip-rule="evenodd" d="M246.999 77.4981C244.717 77.3898 241.308 77.536 237.687 77.7308C234.965 77.8769 230.989 78.0068 230.935 80.4125C230.868 83.3729 234.619 82.1119 237.22 81.9278C243.08 81.5165 248.441 81.8115 254.563 81.8115C257.509 81.8115 261.393 82.331 261.431 79.7116C261.471 77.0056 257.447 77.6117 255.262 77.6117C251.949 77.6144 249.775 77.6307 246.999 77.4981Z" fill="#2A2A2A"/>
<path fill-rule="evenodd" clip-rule="evenodd" d="M97.1894 119.498C86.8514 119.006 75.3845 119.498 65.5272 119.498C58.3084 119.498 49.7177 119.964 42.2478 119.964C39.4067 119.964 36.6062 119.812 36.6602 122.18C36.7277 125.113 42.8527 124.088 45.5075 124.047C56.1344 123.885 67.4231 123.788 77.8664 123.582C89.5763 123.349 99.0069 123.433 110.341 123.931C113.485 124.069 119.108 124.781 119.189 121.947C119.251 119.837 116.796 119.91 115.232 119.848C109.412 119.615 102.772 119.764 97.1894 119.498Z" fill="#2A2A2A"/>
<path fill-rule="evenodd" clip-rule="evenodd" d="M88.1097 133.843C86.33 133.481 82.9948 133.727 80.6614 133.727C73.4669 133.727 66.0942 133.727 58.7782 133.727C51.0733 133.727 44.0625 133.54 36.895 133.843C33.5733 133.984 31.7747 133.865 31.7747 135.943C31.7747 138.254 34.4537 137.927 37.3622 137.927C53.1528 137.927 68.0954 137.927 84.156 137.927C86.9863 137.927 89.9435 138.27 90.092 136.059C90.1811 134.696 89.2089 134.068 88.1097 133.843Z" fill="#2A2A2A"/>
<path fill-rule="evenodd" clip-rule="evenodd" d="M112.089 134.777C110.206 134.3 106.382 134.66 103.593 134.66C100.824 134.66 97.4648 134.36 97.4243 136.76C97.3757 139.621 101.994 138.86 105.456 138.86C108.608 138.86 113.493 139.626 113.72 136.993C113.833 135.659 113.072 135.026 112.089 134.777Z" fill="#2A2A2A"/>
<path fill-rule="evenodd" clip-rule="evenodd" d="M39.3365 146.789C36.7466 146.664 31.8611 145.928 31.7693 148.772C31.6856 151.416 34.8831 150.872 37.8214 150.872C39.4553 150.872 41.0892 150.989 42.7096 150.989C45.9287 150.989 50.382 151.846 50.509 149.121C50.6089 146.954 48.4214 146.93 46.0853 146.905C43.9383 146.884 41.2296 146.881 39.3365 146.789Z" fill="#2A2A2A"/>
<path fill-rule="evenodd" clip-rule="evenodd" d="M69.7185 147.49C68.4384 147.427 65.2948 147.373 62.8508 147.373C60.4445 147.373 58.3812 147.568 58.4271 149.59C58.4785 151.803 61.1062 151.573 63.8986 151.573C78.7467 151.573 93.0357 151.392 107.897 151.806C110.719 151.884 113.066 151.695 113.018 149.59C112.953 146.762 107.441 147.606 103.706 147.606C92.6684 147.606 80.9045 147.49 69.9507 147.49C69.8724 147.49 69.7941 147.492 69.7185 147.49Z" fill="#2A2A2A"/>
<path fill-rule="evenodd" clip-rule="evenodd" d="M198.922 194.142C198.911 194.139 198.895 194.031 198.806 194.025C192.673 193.573 186.094 193.977 179.251 194.142C176.266 194.215 172.488 194.142 169.356 194.142C166.166 194.142 161.756 193.674 161.672 196.242C161.575 199.261 166.825 198.341 170.287 198.341C177.833 198.341 184.331 198.225 192.054 198.225C195.279 198.225 200.926 199.102 201.018 196.242C201.061 194.883 200.102 194.355 198.922 194.142Z" fill="#2A2A2A"/>
<path fill-rule="evenodd" clip-rule="evenodd" d="M116.045 194.61C114.09 194.518 112.478 194.531 112.321 196.361C112.04 199.632 118.376 198.804 121.517 198.926C129.645 199.243 136.292 198.926 144.796 198.926C148.21 198.926 154.326 199.792 154.456 196.942C154.559 194.729 152.568 194.726 149.217 194.726C138.309 194.726 126.883 195.127 116.045 194.61Z" fill="#2A2A2A"/>
<path fill-rule="evenodd" clip-rule="evenodd" d="M119.305 205.339C116.172 205.19 108.662 204.197 108.945 208.021C108.997 208.7 109.523 209.542 110.225 209.769C111.011 210.026 112.486 209.385 113.601 209.304C116.92 209.057 122.87 209.596 126.988 209.888C129.367 210.056 131.871 210.548 131.992 208.256C132.119 205.883 128.897 205.834 126.872 205.691C123.936 205.483 121.708 205.456 119.305 205.339Z" fill="#2A2A2A"/>
<path fill-rule="evenodd" clip-rule="evenodd" d="M148.056 205.924C145.136 205.786 140.313 204.982 140.256 207.907C140.208 210.367 143.221 210.007 146.076 210.007C159.269 210.007 171.362 210.24 184.838 210.24C187.004 210.24 189.775 210.327 192.405 210.473C195.047 210.621 197.842 210.989 197.877 208.605C197.923 205.553 190.985 206.157 187.169 206.157C173.785 206.157 161.278 205.924 148.291 205.924C148.212 205.924 148.134 205.926 148.056 205.924Z" fill="#2A2A2A"/>
<path fill-rule="evenodd" clip-rule="evenodd" d="M129.37 26.4975C126.416 28.9735 120.571 27.6638 118.894 24.3976C116.861 20.4386 120.039 14.1282 124.83 14.7181C127.863 15.0915 133.332 19.3156 130.302 22.7658C131.374 24.1216 130.164 25.8318 129.37 26.4975ZM127.507 22.065C127.045 20.3115 125.722 19.4212 124.015 18.9151C123.242 19.6377 122.392 20.6254 122.502 21.8323C122.713 24.1351 126.929 24.3245 127.507 22.065Z" fill="#B5E6EB"/>
<path fill-rule="evenodd" clip-rule="evenodd" d="M400.013 36.112C400.924 36.9238 401.961 35.5735 400.013 36.112V36.112Z" fill="#B5E6EB"/>
<path fill-rule="evenodd" clip-rule="evenodd" d="M397.334 36.3447C397.564 36.775 398.099 36.8995 398.615 37.0456C398.326 36.6749 397.821 36.5206 397.334 36.3447Z" fill="#B5E6EB"/>
<path fill-rule="evenodd" clip-rule="evenodd" d="M79.2113 49.6421C78.05 49.4554 76.1407 50.0589 76.6511 52.2075C76.8374 52.9895 77.9474 53.4306 78.6306 53.9583C79.5677 54.6808 80.6534 55.9012 81.7742 57.2245C82.6924 58.3096 83.643 60.2255 85.0338 60.2579C86.0546 60.2823 87.0431 59.4732 87.1295 58.3908C87.2618 56.7455 85.3552 55.0082 84.2182 53.7256C82.6275 51.926 81.2935 49.9777 79.2113 49.6421Z" fill="#B5E6EB"/>
<path fill-rule="evenodd" clip-rule="evenodd" d="M72.2276 62.1197C70.4965 61.8653 69.0138 62.0493 68.9679 63.9868C68.9166 66.2193 71.6307 66.1733 73.856 66.904C76.1515 67.6562 79.8757 69.5802 80.0243 66.3194C80.1107 64.4739 78.1419 64.0274 76.7646 63.5214C75.4116 63.0181 73.9019 62.3687 72.2276 62.1197Z" fill="#B5E6EB"/>
<path fill-rule="evenodd" clip-rule="evenodd" d="M474.51 46.219C474.864 47.039 474.78 47.867 475.091 48.9007C475.337 49.7125 475.839 50.2104 475.79 51.0006C475.626 53.5903 472.725 54.6159 470.203 54.7322C466.587 54.8973 462.236 53.0491 462.055 49.0171C461.874 44.9526 465.92 42.2682 469.622 42.7174C472.301 43.0476 473.641 44.2085 474.51 46.219ZM471.018 50.4188C470.789 49.3391 471.097 48.281 470.551 47.5017C469.344 45.778 466.211 47.2879 466.244 48.7844C466.284 50.5027 469.077 50.6921 471.018 50.4188Z" fill="#B5E6EB"/>
<path fill-rule="evenodd" clip-rule="evenodd" d="M480.446 97.6553C481.065 97.6607 481.645 97.2792 482.426 97.539C483.841 98.0071 483.865 100.508 484.289 102.204C484.935 104.797 486.355 107.164 485.569 109.551C484.511 112.766 479.714 110.947 477.189 110.252C475.466 109.776 472.806 109.635 471.834 108.268C470.297 106.112 473.157 103.186 474.394 101.62C475.631 100.053 477.497 97.2386 479.749 97.4199C480.114 97.3658 480.203 97.5877 480.446 97.6553ZM479.863 101.736C478.721 103.04 477.389 104.155 476.603 105.817C478.253 106.106 479.577 106.726 481.259 106.983C480.762 105.267 480.279 103.538 479.863 101.736Z" fill="#B5E6EB"/>
<path fill-rule="evenodd" clip-rule="evenodd" d="M53.2529 260.283C53.8497 261.108 54.6977 261.587 55.1163 262.731C57.9709 270.571 47.8732 275.363 41.9615 272.295C40.3169 271.439 38.4021 269.248 37.6541 267.513C36.3037 264.385 37.4542 260.767 39.2825 258.884C40.8408 257.276 44.0248 255.569 47.4303 256.085C50.3794 256.529 51.8513 258.342 53.2529 260.283ZM46.1529 260.166C44.0275 260.088 40.8408 262.014 41.2648 264.948C41.4619 266.322 42.9365 268.173 44.0572 268.679C46.9253 269.973 51.6838 268.144 51.2733 265.064C51.0816 263.608 48.6402 260.713 47.3169 260.283C46.9928 260.177 46.5445 260.18 46.1529 260.166Z" fill="#B5E6EB"/>
<path fill-rule="evenodd" clip-rule="evenodd" d="M98.9988 262.382C98.7638 264.336 96.8788 265.773 95.0397 265.998C91.6288 266.417 88.9579 264.401 88.0559 262.382C87.4644 261.056 87.5346 259.335 88.2881 258.299C89.5871 256.518 97.7889 254.205 97.0192 259C98.5937 259.325 99.2148 260.588 98.9988 262.382ZM92.1311 260.748C92.5335 261.549 93.4193 261.868 94.6913 261.798C94.9262 261.489 94.7075 260.726 94.9235 260.399C93.9702 260.131 93.0088 260.577 92.1311 260.748Z" fill="#B5E6EB"/>
<path fill-rule="evenodd" clip-rule="evenodd" d="M66.8721 270.311C67.8011 272.844 68.9084 276.207 69.7834 279.06C70.2533 280.597 71.158 282.012 70.8312 283.958C70.5288 285.765 68.7031 286.693 66.6399 286.875C64.0068 287.105 58.6217 287.167 56.9797 286.293C54.6464 285.051 55.6591 281.682 56.3991 279.644C57.4686 276.692 58.7 273.512 59.7749 270.896C60.5122 269.101 61.506 265.7 64.5469 266.463C66.016 266.831 66.4427 269.137 66.8721 270.311ZM63.4963 273.228C62.0812 276.126 60.9334 279.29 59.8883 282.559C62.0785 282.81 64.3525 282.634 66.5238 282.675C65.6704 279.371 64.5253 276.359 63.4963 273.228Z" fill="#B5E6EB"/>
</svg>
