<svg width="485" height="110" viewBox="0 0 485 110" fill="none" xmlns="http://www.w3.org/2000/svg">
<path d="M230.261 65.4332C228.925 65.4332 227.913 65.0418 227.251 64.259C226.59 63.4761 226.253 62.5179 226.253 61.3841C226.253 60.2639 226.604 59.3056 227.292 58.5363C227.98 57.767 228.966 57.3756 230.234 57.3756C231.503 57.3756 232.502 57.6995 233.244 58.3473C233.986 58.9952 234.351 59.967 234.351 61.2627C234.351 62.5583 234 63.5706 233.312 64.3129C232.623 65.0688 231.611 65.4332 230.261 65.4332Z" fill="#212529"/>
<path opacity="0.5" d="M255.151 29.0172C249.485 30.4002 243.684 32.0678 239.704 35.1727C232.905 40.4604 233.162 48.3377 233.809 55.3744C234.011 57.6251 234.241 59.9435 235.522 62.0179C236.858 64.1737 239.246 65.9363 241.593 67.6311C247.057 71.6172 252.534 75.6033 258.146 79.4945C262.975 82.8434 267.94 86.138 273.7 88.687C288.877 95.4119 307.952 96.2932 325.975 95.6559C369.401 94.1238 412.422 84.9314 455.672 88.0362C459.678 88.3209 463.766 88.7141 467.692 88.0904C474.815 86.9515 480.103 82.518 482.221 77.7048C484.339 72.8917 483.786 67.7124 482.706 62.7365C482.248 60.5943 481.722 58.3166 483.044 56.3506C483.57 55.5778 484.366 54.8728 484.514 54.0322C484.77 52.6357 483.179 51.429 481.722 50.4392C476.069 46.6429 470.417 42.8466 464.778 39.0367C462.471 37.4776 460.137 35.9184 457.426 34.7117C454.026 33.2067 450.141 32.3254 446.242 31.5933C437.622 29.9934 428.718 29.1392 419.787 29.0714C407.282 28.963 394.817 30.3595 382.325 30.1697C374.743 30.0612 367.202 29.3562 359.715 28.5156C350.029 27.4309 340.41 26.0886 330.818 24.665C323.83 23.6346 316.883 21.75 309.706 21.6144C291.588 21.3026 272.095 24.882 255.151 29.0172Z" fill="#B89AF4"/>
<path opacity="0.5" d="M19.6567 27.7365C14.5144 29.1537 9.25068 30.8678 5.63353 34.053C-0.534521 39.4923 -0.305075 47.5769 0.275289 54.8112C0.464245 57.1326 0.666697 59.508 1.82742 61.6405C3.04214 63.854 5.20163 65.6626 7.33413 67.4172C12.301 71.5067 17.2678 75.6098 22.3561 79.6048C26.7291 83.0465 31.2505 86.4342 36.4738 89.0526C50.2406 95.963 67.557 96.8673 83.9151 96.2194C123.326 94.6403 162.359 85.206 201.607 88.3913C205.238 88.6882 208.95 89.0931 212.513 88.4453C218.978 87.271 223.769 82.7226 225.699 77.7828C227.629 72.8294 227.117 67.5252 226.145 62.4099C225.726 60.2099 225.24 57.8614 226.455 55.8504C226.928 55.0541 227.656 54.3388 227.791 53.475C228.021 52.0443 226.577 50.8026 225.254 49.7903C220.125 45.8898 214.996 41.9892 209.881 38.0886C207.789 36.496 205.67 34.8898 203.2 33.6481C200.123 32.1095 196.6 31.1917 193.051 30.4494C185.236 28.8028 177.151 27.939 169.053 27.858C157.702 27.7365 146.405 29.1807 135.055 28.9782C128.171 28.8568 121.328 28.1414 114.539 27.2776C105.753 26.1574 97.0206 24.7807 88.3286 23.3231C81.9986 22.2568 75.6821 20.3268 69.1766 20.1783C52.7105 19.8139 35.0296 23.4985 19.6567 27.7365Z" fill="#B5E6EB"/>
<path d="M22.4348 86.8098V72.3142H23.4066C24.8102 77.0111 26.6998 80.3043 29.0752 82.1939C31.4507 84.0835 34.42 85.0282 37.9831 85.0282C43.4898 85.0282 46.2432 83.2736 46.2432 79.7645C46.2432 78.2528 45.5684 77.1191 44.2187 76.3633C42.1132 75.1755 39.4138 74.2578 36.1206 73.6099C32.4494 72.6381 29.3722 71.3424 26.8887 69.7228C23.9194 67.7793 22.4348 64.702 22.4348 60.491C22.4348 56.28 23.7305 52.9328 26.3219 50.4494C28.9133 47.9119 32.3685 46.6432 36.6874 46.6432C39.3328 46.6432 42.0592 47.2641 44.8665 48.5058C45.8923 48.9377 46.6751 49.1537 47.215 49.1537C47.7548 49.1537 48.2137 48.9647 48.5916 48.5868C48.9696 48.2089 49.4285 47.507 49.9683 46.4813H50.8591V58.8714H49.8873C47.134 51.853 42.869 48.3438 37.0924 48.3438C34.5549 48.3438 32.6654 48.8027 31.4237 49.7205C30.182 50.5843 29.5611 51.6911 29.5611 53.0407C29.5611 53.8506 29.7501 54.4984 30.128 54.9843C30.5059 55.4162 30.8028 55.7401 31.0188 55.9561C31.2347 56.172 31.5856 56.415 32.0715 56.6849C32.5574 56.9008 32.9623 57.0898 33.2862 57.2518C33.6102 57.3597 34.0961 57.5217 34.7439 57.7376C35.4457 57.9536 35.9586 58.0886 36.2825 58.1425C39.9537 59.0603 42.5991 59.8701 44.2187 60.572C45.8383 61.2198 47.3769 62.0296 48.8346 63.0014C51.8039 65.0529 53.2885 68.3731 53.2885 72.9621C53.2885 77.497 51.9389 80.9522 49.2395 83.3276C46.5401 85.6491 42.842 86.8098 38.1451 86.8098C34.7979 86.8098 31.5586 86.027 28.4274 84.4614C27.7795 84.0295 27.2667 83.8135 26.8887 83.8135C25.701 83.8135 24.5403 84.8123 23.4066 86.8098H22.4348ZM58.9433 74.4197V48.9107H54.4893V47.4531H58.9433V37.0065L74.0058 33.2814V47.4531H84.5333V48.9107H74.0058V76.2013C74.0058 78.7387 74.2487 80.6013 74.7346 81.789C75.2745 82.9767 76.3542 83.5706 77.9738 83.5706C79.5934 83.5706 80.9971 82.7608 82.1848 81.1411C83.4265 79.5215 84.2364 77.308 84.6143 74.5007L85.9909 74.6627C85.559 78.3878 84.3713 81.3571 82.4278 83.5706C80.4842 85.7301 77.272 86.8098 72.791 86.8098C68.3101 86.8098 64.8819 85.919 62.5065 84.1374C60.131 82.3559 58.9433 79.1166 58.9433 74.4197ZM133.743 86H115.279L114.389 80.0884C113.525 82.2479 112.229 83.9215 110.502 85.1092C108.828 86.2429 106.318 86.8098 102.97 86.8098C94.6023 86.8098 90.4183 82.3019 90.4183 73.286V48.9107H85.8834V47.4531H105.481V75.2295C105.481 78.4688 105.697 80.6013 106.129 81.627C106.615 82.6528 107.532 83.1657 108.882 83.1657C110.286 83.1657 111.527 82.3289 112.607 80.6553C113.687 78.9816 114.227 76.6602 114.227 73.6909V48.9107H110.502V47.4531H129.289V84.5423H133.743V86ZM151.84 69.2369C151.84 74.9056 152.137 78.6847 152.731 80.5743C153.325 82.4098 154.404 83.3276 155.97 83.3276C157.59 83.3276 158.966 82.6258 160.1 81.2221C161.288 79.8185 161.882 77.7399 161.882 74.9866V57.3327C161.882 55.0113 161.423 53.0407 160.505 51.4211C159.587 49.8015 158.237 48.9917 156.456 48.9917C154.674 48.9917 153.459 50.1794 152.812 52.5549C152.164 54.9303 151.84 59.0873 151.84 65.0259V69.2369ZM162.934 86L162.043 80.3313C160.208 84.6503 156.483 86.8098 150.868 86.8098C146.225 86.8098 142.608 85.1362 140.017 81.789C137.479 78.4418 136.211 73.4479 136.211 66.8075C136.211 53.3647 141.555 46.6432 152.245 46.6432C156.996 46.6432 160.127 47.9659 161.639 50.6113V26.7219H156.699V25.2643H176.944V84.5423H180.912V86H162.934ZM181.022 48.9107V47.4531H204.507V48.9107H200.134L208.961 75.7964L218.354 48.9107H212.929V47.4531H224.347V48.9107H220.298L205.154 92.5595C203.373 97.6343 201.375 101.17 199.162 103.168C196.948 105.219 194.249 106.245 191.064 106.245C187.878 106.245 185.368 105.516 183.533 104.059C181.697 102.601 180.779 100.739 180.779 98.4711C180.779 96.2036 181.373 94.476 182.561 93.2883C183.748 92.1006 185.314 91.5067 187.258 91.5067C191.739 91.5067 193.979 93.3693 193.979 97.0944C193.979 97.9042 193.817 98.876 193.493 100.01H190.659C190.227 101.251 190.173 102.277 190.497 103.087C190.821 103.897 191.55 104.302 192.683 104.302C194.897 104.302 196.867 103.195 198.595 100.981C200.323 98.822 201.969 95.5018 203.535 91.0208L205.316 86H198.19L184.342 48.9107H181.022ZM240.941 86.8098V72.3142H241.913C243.317 77.0111 245.206 80.3043 247.582 82.1939C249.957 84.0835 252.926 85.0282 256.489 85.0282C261.996 85.0282 264.749 83.2736 264.749 79.7645C264.749 78.2528 264.075 77.1191 262.725 76.3633C260.619 75.1755 257.92 74.2578 254.627 73.6099C250.956 72.6381 247.878 71.3424 245.395 69.7228C242.426 67.7793 240.941 64.702 240.941 60.491C240.941 56.28 242.237 52.9328 244.828 50.4494C247.42 47.9119 250.875 46.6432 255.194 46.6432C257.839 46.6432 260.565 47.2641 263.373 48.5058C264.399 48.9377 265.181 49.1537 265.721 49.1537C266.261 49.1537 266.72 48.9647 267.098 48.5868C267.476 48.2089 267.935 47.507 268.475 46.4813H269.365V58.8714H268.394C265.64 51.853 261.375 48.3438 255.599 48.3438C253.061 48.3438 251.172 48.8027 249.93 49.7205C248.688 50.5843 248.067 51.6911 248.067 53.0407C248.067 53.8506 248.256 54.4984 248.634 54.9843C249.012 55.4162 249.309 55.7401 249.525 55.9561C249.741 56.172 250.092 56.415 250.578 56.6849C251.064 56.9008 251.469 57.0898 251.793 57.2518C252.116 57.3597 252.602 57.5217 253.25 57.7376C253.952 57.9536 254.465 58.0886 254.789 58.1425C258.46 59.0603 261.105 59.8701 262.725 60.572C264.345 61.2198 265.883 62.0296 267.341 63.0014C270.31 65.0529 271.795 68.3731 271.795 72.9621C271.795 77.497 270.445 80.9522 267.746 83.3276C265.046 85.6491 261.348 86.8098 256.651 86.8098C253.304 86.8098 250.065 86.027 246.934 84.4614C246.286 84.0295 245.773 83.8135 245.395 83.8135C244.207 83.8135 243.047 84.8123 241.913 86.8098H240.941ZM273.638 47.4531H293.154V54.9033C294.936 49.3966 298.85 46.6432 304.896 46.6432C310.997 46.6432 314.695 49.5586 315.991 55.3892C317.88 49.5586 321.848 46.6432 327.895 46.6432C335.831 46.6432 339.799 51.1512 339.799 60.1671V84.5423H344.334V86H321.902V84.5423H324.737V58.2235C324.737 54.1205 324.386 51.7181 323.684 51.0162C323.36 50.6923 322.928 50.5303 322.388 50.5303C320.823 50.5303 319.446 51.5831 318.258 53.6886C317.071 55.7941 316.477 58.4665 316.477 61.7057V84.5423H319.392V86H298.58V84.5423H301.414V58.2235C301.414 54.1205 301.063 51.7181 300.361 51.0162C300.038 50.6923 299.606 50.5303 299.066 50.5303C297.554 50.5303 296.177 51.6911 294.936 54.0125C293.748 56.28 293.154 59.0063 293.154 62.1916V84.5423H296.069V86H273.638V84.5423H278.092V48.9107H273.638V47.4531ZM364.96 66.9695H367.308V60.7339C367.308 55.6051 367.011 52.1769 366.417 50.4494C365.877 48.6678 364.798 47.777 363.178 47.777C362.206 47.777 361.315 48.0469 360.506 48.5868C359.75 49.0727 359.372 49.7745 359.372 50.6923C359.372 51.5561 359.534 52.4469 359.858 53.3647H361.882C362.314 54.4984 362.53 55.8751 362.53 57.4947C362.53 59.0603 361.855 60.437 360.506 61.6247C359.156 62.7585 357.455 63.3253 355.404 63.3253C350.761 63.3253 348.44 61.0849 348.44 56.6039C348.44 49.9635 354.081 46.6432 365.365 46.6432C371.789 46.6432 376.216 47.75 378.645 49.9635C381.129 52.123 382.371 56.118 382.371 61.9486V78.3878C382.371 81.1951 383.153 82.5988 384.719 82.5988C386.555 82.5988 387.634 79.8185 387.958 74.2578L389.173 74.3387C388.957 79.0896 388.066 82.3559 386.501 84.1374C384.935 85.919 382.371 86.8098 378.807 86.8098C372.329 86.8098 368.604 84.8123 367.632 80.8172C366.93 82.8687 365.877 84.3804 364.474 85.3522C363.07 86.3239 361.019 86.8098 358.319 86.8098C350.329 86.8098 346.334 83.5436 346.334 77.0111C346.334 73.178 347.846 70.5596 350.869 69.156C353.946 67.6983 358.643 66.9695 364.96 66.9695ZM361.72 76.9301C361.72 79.7375 361.855 81.546 362.125 82.3559C362.449 83.1657 363.016 83.5706 363.826 83.5706C364.69 83.5706 365.473 82.8957 366.174 81.546C366.93 80.1424 367.308 78.2258 367.308 75.7964V68.2652H366.741C363.394 68.2652 361.72 70.7216 361.72 75.6344V76.9301ZM417.016 49.7205C415.019 49.7205 413.264 51.0162 411.753 53.6076C410.241 56.199 409.485 59.2763 409.485 62.8394V84.5423H415.235V86H389.969V84.5423H394.423V48.9107H389.969V47.4531H409.485V55.2272C410.187 52.4739 411.537 50.3684 413.534 48.9107C415.532 47.3991 417.799 46.6432 420.337 46.6432C422.874 46.6432 424.926 47.3721 426.491 48.8297C428.111 50.2334 428.921 52.2579 428.921 54.9033C428.921 57.4947 428.327 59.4922 427.139 60.8959C425.951 62.2996 424.116 63.0014 421.632 63.0014C419.203 63.0014 417.394 62.1916 416.207 60.572C415.073 58.9524 414.938 56.7119 415.802 53.8506H418.717C420.067 51.0972 419.5 49.7205 417.016 49.7205ZM434.113 74.4197V48.9107H429.659V47.4531H434.113V37.0065L449.175 33.2814V47.4531H459.703V48.9107H449.175V76.2013C449.175 78.7387 449.418 80.6013 449.904 81.789C450.444 82.9767 451.524 83.5706 453.143 83.5706C454.763 83.5706 456.167 82.7608 457.354 81.1411C458.596 79.5215 459.406 77.308 459.784 74.5007L461.161 74.6627C460.729 78.3878 459.541 81.3571 457.597 83.5706C455.654 85.7301 452.442 86.8098 447.961 86.8098C443.48 86.8098 440.052 85.919 437.676 84.1374C435.301 82.3559 434.113 79.1166 434.113 74.4197Z" fill="#212529"/>
</svg>
