<svg width="360" height="81" viewBox="0 0 360 81" fill="none" xmlns="http://www.w3.org/2000/svg">
<path d="M171.6 48.48C170.61 48.48 169.86 48.19 169.37 47.61C168.88 47.03 168.63 46.32 168.63 45.48C168.63 44.65 168.89 43.94 169.4 43.37C169.91 42.8 170.64 42.51 171.58 42.51C172.52 42.51 173.26 42.75 173.81 43.23C174.36 43.71 174.63 44.43 174.63 45.39C174.63 46.35 174.37 47.1 173.86 47.65C173.35 48.21 172.6 48.48 171.6 48.48Z" fill="#212529"/>
<path d="M17.6183 64.5996V53.8596H18.3383C19.3783 57.3396 20.7783 59.7796 22.5383 61.1796C24.2983 62.5796 26.4983 63.2796 29.1383 63.2796C33.2183 63.2796 35.2583 61.9796 35.2583 59.3796C35.2583 58.2596 34.7583 57.4196 33.7583 56.8596C32.1983 55.9796 30.1983 55.2996 27.7583 54.8196C25.0383 54.0996 22.7583 53.1396 20.9183 51.9396C18.7183 50.4996 17.6183 48.2196 17.6183 45.0996C17.6183 41.9796 18.5783 39.4996 20.4983 37.6596C22.4183 35.7796 24.9783 34.8396 28.1783 34.8396C30.1383 34.8396 32.1583 35.2996 34.2383 36.2196C34.9983 36.5396 35.5783 36.6996 35.9783 36.6996C36.3783 36.6996 36.7183 36.5596 36.9983 36.2796C37.2783 35.9996 37.6183 35.4796 38.0183 34.7196H38.6783V43.8996H37.9583C35.9183 38.6996 32.7583 36.0996 28.4783 36.0996C26.5983 36.0996 25.1983 36.4396 24.2783 37.1196C23.3583 37.7596 22.8983 38.5796 22.8983 39.5796C22.8983 40.1796 23.0383 40.6596 23.3183 41.0196C23.5983 41.3396 23.8183 41.5796 23.9783 41.7396C24.1383 41.8996 24.3983 42.0796 24.7583 42.2796C25.1183 42.4396 25.4183 42.5796 25.6583 42.6996C25.8983 42.7796 26.2583 42.8996 26.7383 43.0596C27.2583 43.2196 27.6383 43.3196 27.8783 43.3596C30.5983 44.0396 32.5583 44.6396 33.7583 45.1596C34.9583 45.6396 36.0983 46.2396 37.1783 46.9596C39.3783 48.4796 40.4783 50.9396 40.4783 54.3396C40.4783 57.6996 39.4783 60.2596 37.4783 62.0196C35.4783 63.7396 32.7383 64.5996 29.2583 64.5996C26.7783 64.5996 24.3783 64.0196 22.0583 62.8596C21.5783 62.5396 21.1983 62.3796 20.9183 62.3796C20.0383 62.3796 19.1783 63.1196 18.3383 64.5996H17.6183ZM44.668 55.4196V36.5196H41.368V35.4396H44.668V27.6996L55.828 24.9396V35.4396H63.628V36.5196H55.828V56.7396C55.828 58.6196 56.008 59.9996 56.368 60.8796C56.768 61.7596 57.568 62.1996 58.768 62.1996C59.968 62.1996 61.008 61.5996 61.888 60.3996C62.808 59.1996 63.408 57.5596 63.688 55.4796L64.708 55.5996C64.388 58.3596 63.508 60.5596 62.068 62.1996C60.628 63.7996 58.248 64.5996 54.928 64.5996C51.608 64.5996 49.068 63.9396 47.308 62.6196C45.548 61.2996 44.668 58.8996 44.668 55.4196ZM100.088 63.9996H86.4083L85.7483 59.6196C85.1083 61.2196 84.1483 62.4596 82.8683 63.3396C81.6283 64.1796 79.7683 64.5996 77.2883 64.5996C71.0883 64.5996 67.9883 61.2596 67.9883 54.5796V36.5196H64.6283V35.4396H79.1483V56.0196C79.1483 58.4196 79.3083 59.9996 79.6283 60.7596C79.9883 61.5196 80.6683 61.8996 81.6683 61.8996C82.7083 61.8996 83.6283 61.2796 84.4283 60.0396C85.2283 58.7996 85.6283 57.0796 85.6283 54.8796V36.5196H82.8683V35.4396H96.7883V62.9196H100.088V63.9996ZM113.496 51.5796C113.496 55.7796 113.716 58.5796 114.156 59.9796C114.596 61.3396 115.396 62.0196 116.556 62.0196C117.756 62.0196 118.776 61.4996 119.616 60.4596C120.496 59.4196 120.936 57.8796 120.936 55.8396V42.7596C120.936 41.0396 120.596 39.5796 119.916 38.3796C119.236 37.1796 118.236 36.5796 116.916 36.5796C115.596 36.5796 114.696 37.4596 114.216 39.2196C113.736 40.9796 113.496 44.0596 113.496 48.4596V51.5796ZM121.716 63.9996L121.056 59.7996C119.696 62.9996 116.936 64.5996 112.776 64.5996C109.336 64.5996 106.656 63.3596 104.736 60.8796C102.856 58.3996 101.916 54.6996 101.916 49.7796C101.916 39.8196 105.876 34.8396 113.796 34.8396C117.316 34.8396 119.636 35.8196 120.756 37.7796V20.0796H117.096V18.9996H132.096V62.9196H135.036V63.9996H121.716ZM135.118 36.5196V35.4396H152.518V36.5196H149.278L155.818 56.4396L162.778 36.5196H158.758V35.4396H167.218V36.5196H164.218L152.998 68.8596C151.678 72.6196 150.198 75.2396 148.558 76.7196C146.918 78.2396 144.918 78.9996 142.558 78.9996C140.198 78.9996 138.338 78.4596 136.978 77.3796C135.618 76.2996 134.938 74.9196 134.938 73.2396C134.938 71.5596 135.378 70.2796 136.258 69.3996C137.138 68.5196 138.298 68.0796 139.738 68.0796C143.058 68.0796 144.718 69.4596 144.718 72.2196C144.718 72.8196 144.598 73.5396 144.358 74.3796H142.258C141.938 75.2996 141.898 76.0596 142.138 76.6596C142.378 77.2596 142.918 77.5596 143.758 77.5596C145.398 77.5596 146.858 76.7396 148.138 75.0996C149.418 73.4996 150.638 71.0396 151.798 67.7196L153.118 63.9996H147.838L137.578 36.5196H135.118ZM179.513 64.5996V53.8596H180.233C181.273 57.3396 182.673 59.7796 184.433 61.1796C186.193 62.5796 188.393 63.2796 191.033 63.2796C195.113 63.2796 197.153 61.9796 197.153 59.3796C197.153 58.2596 196.653 57.4196 195.653 56.8596C194.093 55.9796 192.093 55.2996 189.653 54.8196C186.933 54.0996 184.653 53.1396 182.813 51.9396C180.613 50.4996 179.513 48.2196 179.513 45.0996C179.513 41.9796 180.473 39.4996 182.393 37.6596C184.313 35.7796 186.873 34.8396 190.073 34.8396C192.033 34.8396 194.053 35.2996 196.133 36.2196C196.893 36.5396 197.473 36.6996 197.873 36.6996C198.273 36.6996 198.613 36.5596 198.893 36.2796C199.173 35.9996 199.513 35.4796 199.913 34.7196H200.573V43.8996H199.853C197.813 38.6996 194.653 36.0996 190.373 36.0996C188.493 36.0996 187.093 36.4396 186.173 37.1196C185.253 37.7596 184.793 38.5796 184.793 39.5796C184.793 40.1796 184.933 40.6596 185.213 41.0196C185.493 41.3396 185.713 41.5796 185.873 41.7396C186.033 41.8996 186.293 42.0796 186.653 42.2796C187.013 42.4396 187.313 42.5796 187.553 42.6996C187.793 42.7796 188.153 42.8996 188.633 43.0596C189.153 43.2196 189.533 43.3196 189.773 43.3596C192.493 44.0396 194.453 44.6396 195.653 45.1596C196.853 45.6396 197.993 46.2396 199.073 46.9596C201.273 48.4796 202.373 50.9396 202.373 54.3396C202.373 57.6996 201.373 60.2596 199.373 62.0196C197.373 63.7396 194.633 64.5996 191.153 64.5996C188.673 64.5996 186.273 64.0196 183.953 62.8596C183.473 62.5396 183.093 62.3796 182.813 62.3796C181.933 62.3796 181.073 63.1196 180.233 64.5996H179.513ZM203.738 35.4396H218.198V40.9596C219.518 36.8796 222.418 34.8396 226.898 34.8396C231.418 34.8396 234.158 36.9996 235.118 41.3196C236.518 36.9996 239.458 34.8396 243.938 34.8396C249.818 34.8396 252.758 38.1796 252.758 44.8596V62.9196H256.118V63.9996H239.498V62.9196H241.598V43.4196C241.598 40.3796 241.338 38.5996 240.818 38.0796C240.578 37.8396 240.258 37.7196 239.858 37.7196C238.698 37.7196 237.678 38.4996 236.798 40.0596C235.918 41.6196 235.478 43.5996 235.478 45.9996V62.9196H237.638V63.9996H222.218V62.9196H224.318V43.4196C224.318 40.3796 224.058 38.5996 223.538 38.0796C223.298 37.8396 222.978 37.7196 222.578 37.7196C221.458 37.7196 220.438 38.5796 219.518 40.2996C218.638 41.9796 218.198 43.9996 218.198 46.3596V62.9196H220.358V63.9996H203.738V62.9196H207.038V36.5196H203.738V35.4396ZM271.4 49.8996H273.14V45.2796C273.14 41.4796 272.92 38.9396 272.48 37.6596C272.08 36.3396 271.28 35.6796 270.08 35.6796C269.36 35.6796 268.7 35.8796 268.1 36.2796C267.54 36.6396 267.26 37.1596 267.26 37.8396C267.26 38.4796 267.38 39.1396 267.62 39.8196H269.12C269.44 40.6596 269.6 41.6796 269.6 42.8796C269.6 44.0396 269.1 45.0596 268.1 45.9396C267.1 46.7796 265.84 47.1996 264.32 47.1996C260.88 47.1996 259.16 45.5396 259.16 42.2196C259.16 37.2996 263.34 34.8396 271.7 34.8396C276.46 34.8396 279.74 35.6596 281.54 37.2996C283.38 38.8996 284.3 41.8596 284.3 46.1796V58.3596C284.3 60.4396 284.88 61.4796 286.04 61.4796C287.4 61.4796 288.2 59.4196 288.44 55.2996L289.34 55.3596C289.18 58.8796 288.52 61.2996 287.36 62.6196C286.2 63.9396 284.3 64.5996 281.66 64.5996C276.86 64.5996 274.1 63.1196 273.38 60.1596C272.86 61.6796 272.08 62.7996 271.04 63.5196C270 64.2396 268.48 64.5996 266.48 64.5996C260.56 64.5996 257.6 62.1796 257.6 57.3396C257.6 54.4996 258.72 52.5596 260.96 51.5196C263.24 50.4396 266.72 49.8996 271.4 49.8996ZM269 57.2796C269 59.3596 269.1 60.6996 269.3 61.2996C269.54 61.8996 269.96 62.1996 270.56 62.1996C271.2 62.1996 271.78 61.6996 272.3 60.6996C272.86 59.6596 273.14 58.2396 273.14 56.4396V50.8596H272.72C270.24 50.8596 269 52.6796 269 56.3196V57.2796ZM309.97 37.1196C308.49 37.1196 307.19 38.0796 306.07 39.9996C304.95 41.9196 304.39 44.1996 304.39 46.8396V62.9196H308.65V63.9996H289.93V62.9196H293.23V36.5196H289.93V35.4396H304.39V41.1996C304.91 39.1596 305.91 37.5996 307.39 36.5196C308.87 35.3996 310.55 34.8396 312.43 34.8396C314.31 34.8396 315.83 35.3796 316.99 36.4596C318.19 37.4996 318.79 38.9996 318.79 40.9596C318.79 42.8796 318.35 44.3596 317.47 45.3996C316.59 46.4396 315.23 46.9596 313.39 46.9596C311.59 46.9596 310.25 46.3596 309.37 45.1596C308.53 43.9596 308.43 42.2996 309.07 40.1796H311.23C312.23 38.1396 311.81 37.1196 309.97 37.1196ZM322.637 55.4196V36.5196H319.337V35.4396H322.637V27.6996L333.797 24.9396V35.4396H341.597V36.5196H333.797V56.7396C333.797 58.6196 333.977 59.9996 334.337 60.8796C334.737 61.7596 335.537 62.1996 336.737 62.1996C337.937 62.1996 338.977 61.5996 339.857 60.3996C340.777 59.1996 341.377 57.5596 341.657 55.4796L342.677 55.5996C342.357 58.3596 341.477 60.5596 340.037 62.1996C338.597 63.7996 336.217 64.5996 332.897 64.5996C329.577 64.5996 327.037 63.9396 325.277 62.6196C323.517 61.2996 322.637 58.8996 322.637 55.4196Z" fill="#212529"/>
</svg>
