<svg width="151" height="34" viewBox="0 0 151 34" fill="none" xmlns="http://www.w3.org/2000/svg">
<path d="M71.6115 20.3497C71.196 20.3497 70.8812 20.2279 70.6755 19.9845C70.4698 19.741 70.3649 19.443 70.3649 19.0904C70.3649 18.742 70.474 18.444 70.6881 18.2047C70.9022 17.9655 71.2086 17.8438 71.6031 17.8438C71.9977 17.8438 72.3083 17.9445 72.5392 18.146C72.7701 18.3475 72.8834 18.6497 72.8834 19.0526C72.8834 19.4556 72.7743 19.7704 72.5602 20.0013C72.3461 20.2363 72.0313 20.3497 71.6115 20.3497Z" fill="#212529"/>
<path d="M6.97725 27.2519V22.7437H7.27947C7.71601 24.2044 8.30367 25.2286 9.04243 25.8163C9.7812 26.404 10.7047 26.6978 11.8128 26.6978C13.5254 26.6978 14.3817 26.1521 14.3817 25.0607C14.3817 24.5906 14.1718 24.238 13.7521 24.003C13.0972 23.6336 12.2577 23.3481 11.2335 23.1467C10.0918 22.8444 9.13478 22.4415 8.36243 21.9378C7.43897 21.3333 6.97725 20.3763 6.97725 19.0667C6.97725 17.757 7.38021 16.716 8.18614 15.9437C8.99206 15.1546 10.0666 14.76 11.4098 14.76C12.2326 14.76 13.0805 14.9531 13.9535 15.3393C14.2726 15.4736 14.516 15.5407 14.6839 15.5407C14.8518 15.5407 14.9945 15.482 15.1121 15.3644C15.2296 15.2469 15.3723 15.0286 15.5402 14.7096H15.8172V18.563H15.515C14.6587 16.3802 13.3323 15.2889 11.5358 15.2889C10.7466 15.2889 10.159 15.4316 9.7728 15.717C9.38663 15.9857 9.19354 16.3299 9.19354 16.7496C9.19354 17.0015 9.25231 17.203 9.36984 17.3541C9.48737 17.4884 9.57972 17.5891 9.64688 17.6563C9.71404 17.7235 9.82317 17.799 9.97428 17.883C10.1254 17.9501 10.2513 18.0089 10.3521 18.0593C10.4528 18.0928 10.6039 18.1432 10.8054 18.2104C11.0237 18.2775 11.1832 18.3195 11.2839 18.3363C12.4256 18.6217 13.2484 18.8736 13.7521 19.0919C14.2558 19.2933 14.7343 19.5452 15.1876 19.8474C16.1111 20.4854 16.5728 21.518 16.5728 22.9452C16.5728 24.3556 16.153 25.4301 15.3135 26.1689C14.474 26.8909 13.3239 27.2519 11.8632 27.2519C10.8222 27.2519 9.81478 27.0084 8.84095 26.5215C8.63947 26.3872 8.47996 26.32 8.36243 26.32C7.99305 26.32 7.63206 26.6306 7.27947 27.2519H6.97725ZM18.3314 23.3985V15.4652H16.9463V15.0119H18.3314V11.763L23.0159 10.6044V15.0119H26.29V15.4652H23.0159V23.9526C23.0159 24.7417 23.0914 25.321 23.2425 25.6904C23.4104 26.0598 23.7463 26.2444 24.25 26.2444C24.7537 26.2444 25.1902 25.9926 25.5596 25.4889C25.9458 24.9852 26.1976 24.2968 26.3151 23.4237L26.7433 23.4741C26.609 24.6326 26.2396 25.556 25.6351 26.2444C25.0307 26.916 24.0317 27.2519 22.6381 27.2519C21.2445 27.2519 20.1783 26.9748 19.4396 26.4207C18.7008 25.8667 18.3314 24.8593 18.3314 23.3985ZM41.5943 27H35.8521L35.575 25.1615C35.3064 25.8331 34.9034 26.3536 34.3661 26.723C33.8456 27.0756 33.0649 27.2519 32.0239 27.2519C29.4214 27.2519 28.1202 25.8499 28.1202 23.0459V15.4652H26.7098V15.0119H32.8047V23.6504C32.8047 24.6578 32.8718 25.321 33.0061 25.64C33.1572 25.959 33.4427 26.1185 33.8624 26.1185C34.299 26.1185 34.6851 25.8583 35.021 25.3378C35.3568 24.8173 35.5247 24.0953 35.5247 23.1719V15.4652H34.3661V15.0119H40.2091V26.5467H41.5943V27ZM47.2224 21.7867C47.2224 23.5496 47.3147 24.7249 47.4994 25.3126C47.6841 25.8835 48.0199 26.1689 48.5068 26.1689C49.0105 26.1689 49.4387 25.9506 49.7913 25.5141C50.1607 25.0775 50.3453 24.4311 50.3453 23.5748V18.0844C50.3453 17.3625 50.2026 16.7496 49.9172 16.2459C49.6318 15.7422 49.212 15.4904 48.6579 15.4904C48.1039 15.4904 47.7261 15.8598 47.5246 16.5985C47.3231 17.3373 47.2224 18.6301 47.2224 20.477V21.7867ZM50.6728 27L50.3957 25.237C49.8249 26.5802 48.6663 27.2519 46.9202 27.2519C45.4762 27.2519 44.3513 26.7314 43.5453 25.6904C42.7562 24.6494 42.3616 23.0963 42.3616 21.0311C42.3616 16.8504 44.0239 14.76 47.3483 14.76C48.8258 14.76 49.7997 15.1714 50.2698 15.9941V8.56444H48.7335V8.11111H55.0298V26.5467H56.2639V27H50.6728ZM56.2981 15.4652V15.0119H63.6018V15.4652H62.2418L64.987 23.8267L67.9085 15.4652H66.2211V15.0119H69.7722V15.4652H68.5129L63.8033 29.04C63.2492 30.6183 62.628 31.718 61.9396 32.3393C61.2512 32.9773 60.4117 33.2963 59.4211 33.2963C58.4304 33.2963 57.6497 33.0696 57.0788 32.6163C56.508 32.163 56.2225 31.5837 56.2225 30.8785C56.2225 30.1733 56.4072 29.636 56.7766 29.2667C57.146 28.8973 57.6329 28.7126 58.2374 28.7126C59.6309 28.7126 60.3277 29.2919 60.3277 30.4504C60.3277 30.7022 60.2774 31.0044 60.1766 31.357H59.2951C59.1608 31.7432 59.144 32.0622 59.2448 32.3141C59.3455 32.5659 59.5722 32.6919 59.9248 32.6919C60.6132 32.6919 61.226 32.3477 61.7633 31.6593C62.3006 30.9877 62.8127 29.9551 63.2996 28.5615L63.8537 27H61.6374L57.3307 15.4652H56.2981ZM74.933 27.2519V22.7437H75.2352C75.6717 24.2044 76.2594 25.2286 76.9982 25.8163C77.7369 26.404 78.6604 26.6978 79.7685 26.6978C81.4811 26.6978 82.3374 26.1521 82.3374 25.0607C82.3374 24.5906 82.1275 24.238 81.7078 24.003C81.053 23.6336 80.2135 23.3481 79.1893 23.1467C78.0475 22.8444 77.0905 22.4415 76.3182 21.9378C75.3947 21.3333 74.933 20.3763 74.933 19.0667C74.933 17.757 75.3359 16.716 76.1419 15.9437C76.9478 15.1546 78.0224 14.76 79.3656 14.76C80.1883 14.76 81.0362 14.9531 81.9093 15.3393C82.2283 15.4736 82.4717 15.5407 82.6396 15.5407C82.8075 15.5407 82.9503 15.482 83.0678 15.3644C83.1853 15.2469 83.328 15.0286 83.4959 14.7096H83.773V18.563H83.4708C82.6145 16.3802 81.288 15.2889 79.4915 15.2889C78.7024 15.2889 78.1147 15.4316 77.7285 15.717C77.3424 15.9857 77.1493 16.3299 77.1493 16.7496C77.1493 17.0015 77.208 17.203 77.3256 17.3541C77.4431 17.4884 77.5354 17.5891 77.6026 17.6563C77.6698 17.7235 77.7789 17.799 77.93 17.883C78.0811 17.9501 78.207 18.0089 78.3078 18.0593C78.4085 18.0928 78.5596 18.1432 78.7611 18.2104C78.9794 18.2775 79.1389 18.3195 79.2396 18.3363C80.3814 18.6217 81.2041 18.8736 81.7078 19.0919C82.2115 19.2933 82.69 19.5452 83.1433 19.8474C84.0668 20.4854 84.5285 21.518 84.5285 22.9452C84.5285 24.3556 84.1088 25.4301 83.2693 26.1689C82.4298 26.8909 81.2796 27.2519 79.8189 27.2519C78.7779 27.2519 77.7705 27.0084 76.7967 26.5215C76.5952 26.3872 76.4357 26.32 76.3182 26.32C75.9488 26.32 75.5878 26.6306 75.2352 27.2519H74.933ZM85.1017 15.0119H91.1713V17.3289C91.7254 15.6163 92.9427 14.76 94.8232 14.76C96.7205 14.76 97.8706 15.6667 98.2735 17.48C98.8612 15.6667 100.095 14.76 101.976 14.76C104.444 14.76 105.678 16.162 105.678 18.9659V26.5467H107.088V27H100.112V26.5467H100.994V18.3615C100.994 17.0854 100.884 16.3383 100.666 16.12C100.565 16.0193 100.431 15.9689 100.263 15.9689C99.7763 15.9689 99.3481 16.2963 98.9787 16.9511C98.6093 17.6059 98.4247 18.437 98.4247 19.4444V26.5467H99.3313V27H92.8587V26.5467H93.7402V18.3615C93.7402 17.0854 93.6311 16.3383 93.4128 16.12C93.3121 16.0193 93.1777 15.9689 93.0098 15.9689C92.5397 15.9689 92.1116 16.3299 91.7254 17.0519C91.356 17.757 91.1713 18.6049 91.1713 19.5956V26.5467H92.078V27H85.1017V26.5467H86.4869V15.4652H85.1017V15.0119ZM113.503 21.0815H114.233V19.1422C114.233 17.5472 114.141 16.481 113.956 15.9437C113.788 15.3896 113.453 15.1126 112.949 15.1126C112.647 15.1126 112.37 15.1965 112.118 15.3644C111.883 15.5156 111.765 15.7338 111.765 16.0193C111.765 16.2879 111.815 16.5649 111.916 16.8504H112.546C112.68 17.203 112.747 17.6311 112.747 18.1348C112.747 18.6217 112.537 19.0499 112.118 19.4193C111.698 19.7719 111.169 19.9481 110.531 19.9481C109.087 19.9481 108.365 19.2514 108.365 17.8578C108.365 15.7926 110.12 14.76 113.629 14.76C115.627 14.76 117.004 15.1042 117.759 15.7926C118.532 16.4642 118.918 17.7067 118.918 19.52V24.6326C118.918 25.5057 119.161 25.9422 119.648 25.9422C120.219 25.9422 120.555 25.0775 120.655 23.3481L121.033 23.3733C120.966 24.8509 120.689 25.8667 120.202 26.4207C119.715 26.9748 118.918 27.2519 117.81 27.2519C115.795 27.2519 114.636 26.6306 114.334 25.3881C114.116 26.0262 113.788 26.4963 113.352 26.7985C112.915 27.1007 112.277 27.2519 111.438 27.2519C108.953 27.2519 107.71 26.236 107.71 24.2044C107.71 23.0123 108.18 22.198 109.121 21.7615C110.078 21.3081 111.538 21.0815 113.503 21.0815ZM112.495 24.1793C112.495 25.0523 112.537 25.6148 112.621 25.8667C112.722 26.1185 112.898 26.2444 113.15 26.2444C113.419 26.2444 113.662 26.0346 113.881 25.6148C114.116 25.1783 114.233 24.5822 114.233 23.8267V21.4844H114.057C113.016 21.4844 112.495 22.2484 112.495 23.7763V24.1793ZM129.693 15.717C129.071 15.717 128.526 16.12 128.056 16.9259C127.585 17.7319 127.35 18.6889 127.35 19.797V26.5467H129.139V27H121.281V26.5467H122.666V15.4652H121.281V15.0119H127.35V17.4296C127.569 16.5733 127.988 15.9185 128.61 15.4652C129.231 14.9951 129.936 14.76 130.725 14.76C131.514 14.76 132.152 14.9867 132.639 15.44C133.143 15.8765 133.395 16.5062 133.395 17.3289C133.395 18.1348 133.21 18.756 132.841 19.1926C132.471 19.6291 131.901 19.8474 131.128 19.8474C130.373 19.8474 129.81 19.5956 129.441 19.0919C129.088 18.5881 129.046 17.8914 129.315 17.0015H130.222C130.641 16.1452 130.465 15.717 129.693 15.717ZM135.01 23.3985V15.4652H133.624V15.0119H135.01V11.763L139.694 10.6044V15.0119H142.968V15.4652H139.694V23.9526C139.694 24.7417 139.77 25.321 139.921 25.6904C140.089 26.0598 140.424 26.2444 140.928 26.2444C141.432 26.2444 141.868 25.9926 142.238 25.4889C142.624 24.9852 142.876 24.2968 142.993 23.4237L143.422 23.4741C143.287 24.6326 142.918 25.556 142.313 26.2444C141.709 26.916 140.71 27.2519 139.316 27.2519C137.923 27.2519 136.857 26.9748 136.118 26.4207C135.379 25.8667 135.01 24.8593 135.01 23.3985Z" fill="#212529"/>
</svg>
