<svg width="682" height="600" viewBox="0 0 682 600" fill="none" xmlns="http://www.w3.org/2000/svg">
<path fill-rule="evenodd" clip-rule="evenodd" d="M626.221 167.821L613.983 180.051L601.74 167.821L613.983 155.59L626.221 167.821Z" fill="#191919"/>
<path d="M623.053 142.002C622.221 141.26 622.149 139.988 622.891 139.156C623.84 138.09 645.864 112.78 621.888 90.8191C619.616 88.7372 617.213 87.195 614.766 86.0843C611.706 94.758 605.691 102.37 599.59 107.6C590.123 115.711 580.121 118.899 574.11 115.711C566.795 111.835 565.463 106.831 565.629 103.315C565.994 95.8056 573.818 87.6401 585.102 83.0043C592.823 79.8298 602.802 78.256 612.084 80.8865C613.177 76.0033 613.128 70.8684 611.351 65.7604C599.608 31.9472 544.173 31.5875 542.404 31.5875C541.298 31.5875 540.393 30.6927 540.389 29.5866C540.38 28.4715 541.275 27.5632 542.391 27.5542C542.998 27.5407 557.445 27.4913 573.674 31.9023C595.477 37.8241 609.825 49.0742 615.161 64.4385C617.263 70.4907 617.267 76.5384 615.904 82.2354C618.977 83.5438 621.915 85.3829 624.614 87.8514C651.547 112.514 626.162 141.552 625.906 141.845C625.505 142.29 624.956 142.515 624.403 142.515C623.917 142.515 623.44 142.344 623.053 142.002ZM586.632 86.7363C576.922 90.7292 569.94 97.6267 569.656 103.513C569.49 106.93 571.622 109.835 575.996 112.15C580.396 114.479 589.016 111.35 596.962 104.538C602.613 99.6906 608.206 92.6446 610.991 84.6904C600.615 81.7093 590.299 85.2255 586.632 86.7363Z" fill="#B5E6EB"/>
<path d="M41.8428 495.489L54.7105 508.349L37.1321 513.057L41.8428 495.489Z" fill="#B5E6EB"/>
<path fill-rule="evenodd" clip-rule="evenodd" d="M650.562 207.722C650.562 218.113 642.135 226.539 631.733 226.539C621.335 226.539 612.903 218.113 612.903 207.722C612.903 197.326 621.33 188.909 631.733 188.909C642.13 188.909 650.562 197.326 650.562 207.722Z" fill="#B5E6EB"/>
<path fill-rule="evenodd" clip-rule="evenodd" d="M532.731 8.73657C532.731 13.5612 528.817 17.4731 523.985 17.4731C519.161 17.4731 515.247 13.5612 515.247 8.73657C515.247 3.91639 519.161 0 523.985 0C528.817 0 532.731 3.91639 532.731 8.73657Z" fill="#8256E1"/>
<path fill-rule="evenodd" clip-rule="evenodd" d="M497.88 467.238H8.58008V12.2798H497.876V467.238H497.88Z" fill="white"/>
<path fill-rule="evenodd" clip-rule="evenodd" d="M496.377 53.674H8.34155V12.2753H496.377V53.674V53.674Z" fill="#B5E6EB"/>
<path d="M6.56445 467.238V12.2798C6.56445 11.1692 7.46879 10.2654 8.5801 10.2654H497.876C498.992 10.2654 499.891 11.1692 499.891 12.2798V467.238C499.891 468.353 498.987 469.253 497.876 469.253H8.5801C7.46879 469.253 6.56445 468.349 6.56445 467.238ZM495.86 14.2942H10.6002V465.219H495.865V14.2942H495.86Z" fill="#191919"/>
<path fill-rule="evenodd" clip-rule="evenodd" d="M99.8378 138.113C100.477 139.848 101.147 141.746 101.682 143.508C102.686 146.818 104.976 152.146 101.156 154.034C97.8266 154.151 96.1394 152.33 94.4387 150.878C90.1014 147.164 85.5257 143.445 80.8735 139.821C79.9422 139.097 78.8444 137.87 77.976 137.717C76.3248 137.429 73.9222 137.933 71.92 137.982C69.7559 138.032 67.5423 137.982 65.4682 137.982C61.3019 137.982 56.7892 138.522 53.3518 137.326C48.2361 135.536 47.5072 128.791 46.8998 122.321C46.1125 113.962 46.2655 104.425 47.0303 96.3946C47.4173 92.3343 47.5568 87.8109 48.7446 84.4206C50.5623 79.2227 55.6823 79.4385 62.7011 79.6813C74.8176 80.0995 85.9892 79.0653 96.8053 78.4988C104.364 78.1031 112.134 78.1615 119.72 77.8423C142.562 76.88 165.351 76.1336 188.986 76.1336C207.207 76.1336 226.365 75.2029 244.16 75.8683C257.171 76.354 269.423 76.6103 281.953 77.577C286.461 77.9277 292.477 78.1885 295.383 79.9466C298.87 82.0554 299.644 87.015 300.125 92.4467C300.463 96.2777 300.652 100.945 300.652 105.342C300.652 116.39 299.658 123.701 292.621 126.66C286.938 129.048 278.507 129.61 270.759 129.951C262.516 130.311 253.855 130.545 246.004 130.217C237.753 129.871 229.416 129.313 221.249 129.691C213.205 130.064 205.354 130.666 197.282 131.008C171.947 132.074 147.525 131.566 123.144 132.717C116.845 133.014 110.762 132.582 104.841 132.321C102.924 132.236 100.85 132.101 99.0459 132.847C98.0921 134.569 99.1854 136.341 99.8378 138.113ZM97.8626 147.326C97.1877 143.274 94.4297 139.228 93.7818 134.691C93.6739 133.935 93.8358 133.108 93.7818 132.191C93.7008 130.797 93.2689 130.077 94.0473 129.034C95.379 127.245 102.542 127.604 105.637 127.717C109.885 127.874 113.871 128.112 118.28 128.112C127.436 128.112 135.08 127.191 143.431 127.191C152.497 127.191 161.09 127.227 169.504 127.06C177.796 126.898 186.322 126.404 194.92 126.404C203.397 126.404 211.608 125.478 219.81 125.086C228.088 124.691 236.7 125.122 245.226 125.482C258.022 126.022 270.921 125.662 282.754 124.165C287.546 123.558 292.238 122.595 294.079 119.691C296.459 115.932 296.175 107.532 295.923 101.53C295.779 98.1032 295.581 95.3694 295.266 92.0555C294.992 89.2048 294.942 85.5761 293.161 84.1598C292.216 83.4089 289.26 83.1076 287.235 82.8423C272.118 80.8594 255.763 81.3585 239.566 80.6031C232.43 80.2703 223.094 80.6031 215.468 80.6031C207.477 80.6031 199.451 80.6211 191.896 80.7335C176.365 80.9718 160.118 80.8099 145.149 81.5249C130.185 82.2353 114.892 82.5455 99.1944 83.1031C91.8246 83.3639 84.5629 84.2227 76.8107 84.551C73.0089 84.7128 68.7976 84.4386 65.0902 84.4206C62.0533 84.4026 54.7285 83.6247 53.6352 85.077C52.2225 86.9521 51.9525 93.5169 51.6601 96.525C50.6747 106.709 50.4408 118.584 52.4519 127.978C52.7759 129.484 53.3653 132.218 54.6925 132.717C57.7295 133.854 62.7596 133.243 67.3354 133.243C69.459 133.243 71.7581 133.337 73.9177 133.243C76.1943 133.144 78.5924 132.766 80.1087 133.112C81.031 133.324 81.4494 134.115 82.3493 134.956C84.3424 136.822 87.1185 138.76 89.0667 140.352C92.1801 142.919 94.8526 144.988 97.8626 147.326Z" fill="#191919"/>
<path fill-rule="evenodd" clip-rule="evenodd" d="M172.793 227.075C160.825 227.075 148.69 226.809 135.922 226.809C124.458 226.809 111.698 225.887 99.8424 225.887C94.0834 225.887 88.3873 226.589 82.4619 227.07C76.9413 227.52 69.864 228.572 65.3423 226.94C63.0477 226.108 59.8577 221.112 59.5473 218.253C59.0613 213.756 59.5473 209.008 59.5473 204.305C59.5473 199.849 59.6778 195.267 59.6778 190.357C59.6778 182.393 60.3347 170.725 65.6033 168.117C68.3748 166.746 73.5759 166.971 77.4542 166.8C81.7735 166.611 86.7811 166.485 90.754 166.669C106.605 167.407 122.397 168.531 138.684 169.3C146.585 169.673 154.782 170.222 163.048 170.222C171.362 170.222 179.74 169.956 188.198 169.956C217.322 169.956 246.891 170.222 276.559 170.222C279.834 170.222 286.943 169.156 286.961 172.591C286.974 175.451 283.609 174.974 280.243 174.961C284.225 179.592 283.834 187.398 284.063 195.622C284.239 201.908 286.128 213.113 283.537 218.257C281.782 221.742 276.46 222.965 271.816 224.179C267.884 225.204 262.557 225.852 258.517 226.418C254.161 227.03 249.271 227.646 244.425 227.866C239.476 228.091 234.387 228.005 230.073 229.048C226.041 230.024 222.739 232.641 219.54 234.84C214.411 238.365 209.718 241.922 204.791 245.631C203.235 246.805 198.974 250.726 196.495 249.844C193.179 248.662 196.535 244.049 197.548 242.344C201.098 236.36 204.872 230.946 208.08 225.37C196.427 225.964 184.779 227.075 172.793 227.075ZM204.922 239.314C209.768 236.346 214.195 232.745 219.144 229.444C221.641 227.78 224.17 226.112 227.045 225.101C229.987 224.066 233.384 223.585 237.447 223.392C245.167 223.023 252.533 222.389 259.835 221.418C263.313 220.955 266.71 220.618 270.237 219.705C272.842 219.035 277.836 217.974 279.06 216.413C280.392 214.714 280 209.921 279.852 206.805C279.69 203.369 279.636 200.163 279.456 196.409C279.15 189.92 279.816 180.775 276.428 177.852C275.366 176.935 273.994 177.299 273.27 176.009C273.117 175.734 273.216 175.114 272.613 174.956C257.275 175.096 241.815 174.826 226.392 174.826C195.568 174.826 165.257 175.442 135.269 173.774C127.891 173.365 120.516 173.077 113.277 172.591C101.597 171.809 91.1543 170.973 79.1729 171.539C77.4497 171.62 75.3396 171.71 73.3779 171.8C71.4568 171.89 69.0857 171.656 67.8484 172.326C65.9722 173.342 65.1488 179.044 64.8204 181.67C63.8306 189.579 64.294 197.834 64.294 205.883C64.294 209.804 63.7136 214.237 64.4245 217.992C64.7394 219.646 66.2331 222.057 67.4524 222.596C69.3016 223.419 73.4544 223.077 76.2754 222.861C85.2784 222.16 94.0969 220.856 103.271 221.283C127.805 222.425 153.145 222.335 178.858 222.335C184.9 222.335 191.019 221.688 197.03 221.283C199.941 221.085 202.645 221.004 206.114 220.757C209.925 220.487 213.916 219.597 214.28 222.861C214.474 224.606 213.385 226.265 212.571 227.601C210.217 231.427 207.073 235.676 204.922 239.314Z" fill="#191919"/>
<path fill-rule="evenodd" clip-rule="evenodd" d="M87.8698 192.02C83.7845 196.256 75.7714 192.69 75.0605 188.342C74.2326 183.293 79.0018 179.92 83.9194 180.442C86.358 180.703 88.6707 182.357 87.3254 184.938C90.8618 185.406 89.5075 190.321 87.8698 192.02ZM84.3244 188.616C84.8013 187.87 84.6843 186.526 85.1432 185.757C83.2085 184.988 79.8971 185.379 79.9646 187.254C80.0141 188.643 82.7766 189.534 84.3244 188.616Z" fill="#B5E6EB"/>
<path fill-rule="evenodd" clip-rule="evenodd" d="M48.7535 395.785C48.5466 391.033 49.8424 386.334 49.8424 381.347C49.8424 365.902 50.3913 350.344 51.0707 335.448C51.5161 325.627 52.5689 315.582 52.5689 305.483C52.5689 295.241 52.5599 284.966 53.2483 274.836C56.7982 273.707 60.771 274.197 64.6988 274.017C76.2484 273.491 88.6437 273.127 100.544 273.064C108.467 273.019 116.462 272.605 124.53 272.52C148.51 272.268 171.664 271.158 196.765 271.158C210.865 271.158 224.66 270.614 239.152 270.614C241.55 270.614 243.098 270.317 243.512 268.842C244.65 264.786 239.165 265.807 235.472 265.847C229.578 265.91 222.869 265.789 217.209 265.982C193.03 266.819 168.037 266.086 144.43 267.21C136.511 267.587 128.435 267.709 120.305 267.754C112.22 267.799 104.153 268.298 96.1799 268.298C84.6079 268.298 72.1811 268.685 60.1996 269.251C55.5249 269.471 51.0212 269.256 49.298 271.567C47.4578 274.031 47.9707 282.592 47.7997 286.684C47.5478 292.633 47.6648 297.848 47.6648 303.028C47.6648 314.517 46.8774 324.454 46.3015 334.629C45.4421 349.85 45.3341 366.397 44.9382 382.845C44.8842 385.142 44.4883 387.575 44.1194 390.336C43.5975 394.27 43.035 398.609 45.892 400.007C47.8942 400.988 52.4519 401.01 56.1143 401.096C59.9476 401.19 63.7945 401.231 67.2904 401.231C75.0156 401.231 81.6879 402.049 89.0982 402.049C96.9898 402.049 104.503 402.251 111.585 401.914C118.789 401.572 125.56 400.43 132.03 399.733C153.82 397.386 174.48 397.557 197.723 397.552C201.345 397.552 204.985 397.791 208.625 397.962C212.422 398.141 217.268 398.685 220.48 397.827C221.969 397.426 223.508 396.523 225.249 395.92C232.043 393.56 242.378 395.102 245.694 389.382C248.699 384.194 249.284 375.466 250.193 368.272C252.546 349.611 253.352 329.009 254.008 308.069C254.107 304.975 254.998 298.024 251.282 298.262C248.083 298.469 249.199 305.052 249.1 308.478C248.771 320.304 247.993 333.393 247.467 344.571C246.922 356.059 245.82 367.934 243.786 378.757C243.174 382.022 242.184 387.323 240.241 388.155C237.312 389.409 233.019 389.454 229.2 390.061C227.238 390.372 225.515 390.745 223.886 391.289C221.978 391.923 220.408 392.971 218.572 393.195C215.176 393.614 211.437 393.096 207.806 392.921C204.269 392.75 200.567 392.647 197.039 392.647C175.339 392.647 152.83 392.588 132.984 394.693C126.298 395.403 119.778 396.392 113.084 396.873C106.083 397.373 98.857 397.148 91.4108 397.148C77.0492 397.148 62.7371 396.132 48.7535 395.785Z" fill="#B5E6EB"/>
<path fill-rule="evenodd" clip-rule="evenodd" d="M163.646 305.344C160.658 301.068 157.59 296.868 155.061 292.134C162.431 291.185 170.399 289.139 179.456 289.139C182.673 289.139 186.209 289.562 186.272 286.823C186.362 282.965 178.408 284.238 174.687 284.508C169.706 284.867 163.853 285.825 158.742 286.549C154.953 287.088 150.629 287.246 150.018 290.636C149.568 293.136 150.841 295.061 152.06 297.039C153.99 300.169 156.699 303.964 158.737 306.981C159.772 308.509 161.041 310.713 163.236 310.794C165.76 310.888 167.682 308.181 168.959 306.706C172.136 303.037 175.213 300.636 179.182 297.579C180.68 296.423 183.766 294.598 183.681 292.403C183.631 291.158 182.394 290.11 181.364 290.088C179.73 290.052 177.719 292.489 176.46 293.491C171.686 297.295 166.867 300.816 163.646 305.344Z" fill="#B5E6EB"/>
<path fill-rule="evenodd" clip-rule="evenodd" d="M90.5917 290.771C92.8189 296.697 88.3017 301.922 82.0072 301.122C78.2684 300.65 74.1966 296.769 74.7815 291.994C75.2989 287.79 80.7474 285.11 85.1387 285.726C88.1622 286.158 89.9663 289.094 90.5917 290.771ZM84.5988 290.636C83.3975 290.187 79.9421 291.401 79.6901 292.678C79.0197 296.104 85.4132 297.718 86.232 294.449C86.6144 292.92 85.5346 290.987 84.5988 290.636Z" fill="#B5E6EB"/>
<path fill-rule="evenodd" clip-rule="evenodd" d="M123.576 295.402C124.539 298.393 126.392 301.225 127.8 303.847C130.487 308.851 133.703 315.362 136.25 320.735C137.465 323.298 140.218 327.404 139.93 329.724C139.467 333.487 132.187 333.204 127.8 333.402C125.164 333.523 122.833 333.559 120.17 333.676C118.195 333.762 114.145 334.153 112.674 333.541C108.98 332.008 111.059 324.859 111.99 321.145C113.367 315.686 114.735 309.697 116.08 304.526C116.885 301.423 118.06 298.874 118.262 296.216C118.312 295.578 117.983 293.973 118.262 293.222C118.613 292.277 120.012 291.751 120.989 291.859C123.324 292.12 122.964 293.496 123.576 295.402ZM121.807 302.894C119.283 311.086 117.254 319.836 115.536 328.91C121.776 328.658 128.183 328.564 134.207 328.092C130.536 319.229 126.113 311.117 121.807 302.894Z" fill="#B5E6EB"/>
<path fill-rule="evenodd" clip-rule="evenodd" d="M87.1858 347.431C83.6989 341.608 80.6394 335.358 77.7824 328.905C82.3671 329.881 87.7302 331.414 92.9088 332.718C95.5274 333.379 100.211 334.422 99.5857 330.538C99.2753 328.613 96.6747 328.609 94.542 328.087C90.7492 327.161 86.6954 326.086 82.6866 325.092C80.6079 324.575 78.5293 323.703 76.8241 323.595C75.4293 323.505 73.5441 323.73 72.8737 324.274C70.6781 326.059 73.2562 330.861 74.237 332.993C77.517 340.11 80.518 345.695 84.3243 352.197C85.0622 353.456 85.7685 354.868 87.4603 354.922C90.7402 355.021 91.4646 349.971 92.5039 346.887C93.0888 345.142 93.5747 343.658 94.1371 341.985C94.848 339.872 97.6645 335.227 93.5927 335.038C90.9607 334.917 90.1328 338.55 89.5029 340.349C88.6346 342.835 88.0497 344.94 87.1858 347.431Z" fill="#B5E6EB"/>
<path fill-rule="evenodd" clip-rule="evenodd" d="M176.73 351.657C172.581 355.295 164.681 351.594 165.554 345.254C165.9 342.745 168.15 338.932 171.551 338.307C175.263 337.628 178.781 340.852 177.414 343.618C179.992 345.646 178.133 350.425 176.73 351.657ZM173.324 348.114C174.399 347.314 173.085 345.466 174.008 344.436C171.888 340.484 167.785 349.013 173.324 348.114Z" fill="#B5E6EB"/>
<path fill-rule="evenodd" clip-rule="evenodd" d="M306.415 312.727C309.601 318.478 315.184 320.726 323.648 321.468C331.224 322.134 340.124 321.842 348.038 322.264C355.745 322.678 363.776 323.334 371.897 323.591C380.158 323.851 388.549 323.546 396.814 323.856C413.556 324.481 429.951 323.325 446.121 323.325C450.701 323.325 454.067 323.141 457.122 321.734C461.297 319.818 464.343 316.468 465.603 311.27C465.994 309.656 466.008 307.876 466.529 305.974C467.483 302.507 468.23 298.977 468.253 295.11C468.275 291.09 468.253 286.801 468.253 282.525C468.253 278.455 467.744 273.838 468.649 270.339C470.57 262.893 470.264 255.038 470.637 247.16C471.015 239.166 471.564 231.058 471.564 222.92C471.564 214.835 472.226 206.697 472.226 198.414C472.226 181.881 472.356 165.186 472.356 148.477C472.356 133.98 472.226 119.282 472.226 104.497C472.226 102.325 471.866 100.473 472.226 99.0655C472.131 90.4729 472.181 82.3343 465.598 80.1221C460.78 78.5078 452.667 79.3262 446.247 79.3262C432.893 79.3262 420.547 78.337 407.545 78.265C400.89 78.2291 394.213 78.1616 387.928 77.8694C375.564 77.2938 363.628 78.6652 350.814 78.6652C338.63 78.6652 324.777 77.9458 314.892 80.257C313.34 80.6212 312.107 83.5304 311.05 85.293C310.573 86.0843 309.979 86.9566 309.461 87.811C308.98 88.5978 308.053 89.8209 308.004 90.7247C307.743 95.2661 308.134 99.9873 308.134 104.632C308.134 118.382 307.81 132.622 307.603 146.224C306.789 199.867 305.727 257.201 306.415 312.727Z" fill="#8256E1"/>
<path fill-rule="evenodd" clip-rule="evenodd" d="M503.369 19.2673H489.381V5.28784H503.369V19.2673Z" fill="#191919"/>
<path fill-rule="evenodd" clip-rule="evenodd" d="M13.9881 19.2673H0V5.28784H13.9881V19.2673Z" fill="#191919"/>
<path fill-rule="evenodd" clip-rule="evenodd" d="M503.369 474.226H489.381V460.246H503.369V474.226Z" fill="#D6D6D6"/>
<path fill-rule="evenodd" clip-rule="evenodd" d="M13.9881 474.226H0V460.246H13.9881V474.226Z" fill="#191919"/>
<path fill-rule="evenodd" clip-rule="evenodd" d="M46.7199 32.5992C46.7199 37.2755 42.927 41.0615 38.2478 41.0615C33.5686 41.0615 29.7712 37.2755 29.7712 32.5992C29.7712 27.9229 33.5641 24.1279 38.2478 24.1279C42.927 24.1279 46.7199 27.9229 46.7199 32.5992Z" fill="white"/>
<path fill-rule="evenodd" clip-rule="evenodd" d="M110.735 32.5992C110.735 37.2755 106.942 41.0615 102.263 41.0615C97.5838 41.0615 93.791 37.2755 93.791 32.5992C93.791 27.9229 97.5838 24.1279 102.263 24.1279C106.938 24.1279 110.735 27.9229 110.735 32.5992Z" fill="white"/>
<path fill-rule="evenodd" clip-rule="evenodd" d="M77.9219 32.5992C77.9219 37.2755 74.129 41.0615 69.4498 41.0615C64.7706 41.0615 60.9778 37.2755 60.9778 32.5992C60.9778 27.9229 64.7706 24.1279 69.4498 24.1279C74.1245 24.1279 77.9219 27.9229 77.9219 32.5992Z" fill="white"/>
<path fill-rule="evenodd" clip-rule="evenodd" d="M368.122 440.377C368.122 440.377 421.875 297.646 426.221 275.33C430.567 253.024 437.829 237.003 452.982 226.414C468.136 215.825 555.322 218.756 555.322 218.756C555.322 218.756 582.034 211.683 611.535 248.32C629.766 270.964 636.965 322.876 628.061 399.207C618.77 478.839 614.437 546.497 580.742 577.329C565.863 590.94 497.799 592.882 463.34 592.923C428.875 592.963 251.498 591.763 250.184 591.309C248.87 590.859 243.314 596.088 231.76 562.549C220.206 529.006 235.071 498.844 242.922 484.729C250.778 470.62 275.735 455.84 275.735 455.84L368.122 440.377Z" fill="#191919"/>
<path fill-rule="evenodd" clip-rule="evenodd" d="M353.558 314.18C361.877 325.641 346.499 348.303 330.761 359.702C315.022 371.109 295.523 371.064 287.208 359.598C278.889 348.141 284.905 329.607 300.643 318.199C316.381 306.792 345.239 302.714 353.558 314.18Z" fill="#B5E6EB"/>
<path d="M306.195 370.241C297.309 370.219 289.984 366.86 285.575 360.781C281.161 354.701 280.244 346.707 282.984 338.253C285.652 330.029 291.501 322.327 299.455 316.563C307.428 310.785 318.73 306.688 329.681 305.6C341.626 304.418 350.922 307.111 355.187 312.988C359.452 318.869 358.652 327.727 352.938 337.939C348.114 346.549 340.268 355.295 331.944 361.325C324.017 367.071 314.906 370.232 306.276 370.232C306.249 370.241 306.222 370.241 306.195 370.241ZM330.082 309.62C319.963 310.623 309.133 314.535 301.826 319.831C294.556 325.101 289.228 332.084 286.821 339.503C284.486 346.693 285.206 353.411 288.842 358.415C292.472 363.424 298.641 366.194 306.281 366.212C314.06 366.212 322.334 363.321 329.578 358.069C337.451 352.363 344.87 344.108 349.419 335.978C352.258 330.906 356.366 321.477 351.925 315.362C349.095 311.464 343.111 309.359 335.143 309.359C333.537 309.359 331.845 309.445 330.082 309.62Z" fill="#191919"/>
<path fill-rule="evenodd" clip-rule="evenodd" d="M174.948 295.317C169.18 308.258 192.198 329.4 209.938 337.327C227.683 345.254 246.738 341.194 252.506 328.253C258.274 315.322 248.569 298.406 230.828 290.483C213.088 282.556 180.716 282.385 174.948 295.317Z" fill="#B5E6EB"/>
<path d="M209.115 339.166C190.547 330.87 166.714 308.824 173.103 294.499C174.764 290.78 178.246 287.88 183.461 285.888C195.941 281.113 217.556 282.349 231.647 288.644C250.373 297.008 260.555 315.146 254.346 329.076C251.894 334.575 247.255 338.762 240.925 341.181C237.082 342.651 232.772 343.379 228.277 343.379C222.001 343.375 215.36 341.954 209.115 339.166ZM184.909 289.651C180.729 291.252 178.003 293.433 176.793 296.14C171.664 307.637 193.867 327.939 210.762 335.488C220.512 339.845 231.251 340.565 239.485 337.413C244.794 335.38 248.659 331.931 250.661 327.435C255.966 315.533 246.697 299.782 230.001 292.322C222.257 288.86 211.815 287.026 202.218 287.026C195.685 287.026 189.539 287.88 184.909 289.651Z" fill="#191919"/>
<path fill-rule="evenodd" clip-rule="evenodd" d="M251.264 108.517C264.766 104.218 284.959 123.063 290.875 141.566C296.792 160.064 290.637 178.545 277.139 182.843C263.637 187.146 247.899 175.631 241.982 157.133C236.066 138.639 237.766 112.82 251.264 108.517Z" fill="#B5E6EB"/>
<path d="M240.061 157.749C236.966 148.077 235.953 136.66 237.348 127.209C238.981 116.13 243.706 108.809 250.652 106.597C265.621 101.831 286.687 121.84 292.797 140.954C295.784 150.302 295.928 159.97 293.201 168.167C290.398 176.589 284.909 182.483 277.751 184.763C275.655 185.433 273.513 185.752 271.358 185.752C258.562 185.752 245.406 174.466 240.061 157.749ZM251.881 110.437C244.596 112.762 242.149 122.312 241.339 127.798C240.03 136.669 240.988 147.407 243.904 156.521C249.469 173.936 264.105 184.885 276.523 180.923C282.421 179.044 286.984 174.062 289.368 166.894C291.829 159.502 291.681 150.725 288.95 142.182C286.187 133.544 280.073 124.506 272.591 118.014C266.508 112.735 260.447 109.911 255.417 109.911C254.171 109.911 252.987 110.082 251.881 110.437Z" fill="#191919"/>
<path d="M283.451 469.185C283.627 469.185 283.802 469.163 283.978 469.118C285.053 468.83 285.692 467.724 285.404 466.649C285.278 466.191 272.982 420.421 269.571 404.162C266.008 387.143 266.125 369.432 269.949 346.738C273.706 324.454 270.898 308.492 265.796 279.508C265.315 276.765 264.811 273.9 264.289 270.897C259.857 245.398 261.185 241.958 266.773 227.484C268.698 222.497 271.092 216.297 273.895 207.533C285.017 172.812 268.298 139.057 267.582 137.64C267.079 136.647 265.868 136.247 264.874 136.75C263.88 137.249 263.479 138.463 263.979 139.457C264.145 139.79 280.657 173.194 270.053 206.306C267.281 214.957 264.91 221.099 263.007 226.036C257.239 240.978 255.691 244.993 260.312 271.589C260.834 274.597 261.337 277.462 261.823 280.209C267.011 309.679 269.612 324.472 265.972 346.068C262.057 369.283 261.949 387.454 265.621 404.99C269.054 421.361 281.382 467.234 281.508 467.697C281.75 468.592 282.565 469.185 283.451 469.185Z" fill="#191919"/>
<path fill-rule="evenodd" clip-rule="evenodd" d="M331.85 207.632C342.941 216.45 336.583 243.658 324.512 258.874C312.436 274.085 293.656 279.274 282.561 270.461C271.47 261.643 272.267 242.165 284.347 226.953C296.423 211.737 320.759 198.819 331.85 207.632Z" fill="#B5E6EB"/>
<path d="M281.305 272.039C269.36 262.543 270.017 241.756 282.768 225.703C292.148 213.882 307.662 204.3 319.652 202.924C325.168 202.29 329.695 203.343 333.109 206.054C338.85 210.618 340.893 219.548 338.859 231.198C337.06 241.508 332.286 252.322 326.095 260.128C318.811 269.305 308.611 275.456 298.807 276.58C297.692 276.706 296.594 276.774 295.518 276.774C290.101 276.774 285.238 275.16 281.305 272.039ZM320.111 206.926C309.259 208.172 294.565 217.317 285.926 228.203C274.556 242.52 273.612 260.766 283.816 268.878C287.672 271.945 292.693 273.222 298.344 272.57C307.104 271.562 316.296 265.973 322.928 257.614C334.617 242.88 340.569 217.133 330.594 209.201C328.556 207.583 325.888 206.769 322.64 206.769C321.834 206.778 320.988 206.827 320.111 206.926Z" fill="#191919"/>
<path fill-rule="evenodd" clip-rule="evenodd" d="M187.24 195.501C197.003 185.235 223.873 192.645 237.973 206.004C252.074 219.372 255.592 238.527 245.829 248.783C236.066 259.049 216.719 256.54 202.618 243.181C188.513 229.813 177.477 205.761 187.24 195.501Z" fill="#B5E6EB"/>
<path d="M201.228 244.642C189.926 233.932 181.823 218.351 181.521 206.76C181.386 201.481 182.817 197.223 185.778 194.111C196.454 182.883 224.637 190.59 239.359 204.538C247.872 212.609 253.104 223.311 253.356 233.172C253.532 239.939 251.43 245.816 247.287 250.173C242.864 254.827 236.637 257.079 229.807 257.079C220.404 257.079 209.849 252.808 201.228 244.642ZM188.702 196.885C186.507 199.197 185.449 202.479 185.557 206.652C185.827 217.092 193.588 231.841 204.009 241.715C217.281 254.291 235.386 256.836 244.371 247.389C247.764 243.828 249.478 238.945 249.334 233.271C249.109 224.458 244.344 214.808 236.592 207.461C229.956 201.175 220.215 196.085 210.532 193.85C207.163 193.072 204.013 192.69 201.17 192.69C195.68 192.695 191.334 194.12 188.702 196.885Z" fill="#191919"/>
<path d="M267.952 343.393C268.28 343.393 268.613 343.312 268.923 343.141C269.9 342.602 270.255 341.379 269.715 340.403C269.526 340.061 264.87 331.873 246.13 319.89C227.441 307.939 207.414 305.281 206.569 305.173C205.462 305.038 204.454 305.816 204.315 306.918C204.175 308.02 204.953 309.031 206.06 309.175C206.258 309.202 226.059 311.846 243.957 323.289C261.837 334.724 266.138 342.278 266.183 342.35C266.552 343.015 267.241 343.393 267.952 343.393Z" fill="#191919"/>
<path d="M260.505 261.882C260.991 261.882 261.482 261.706 261.869 261.351C262.692 260.6 262.746 259.323 261.995 258.505C261.887 258.388 251.044 246.607 236.214 235.227C221.56 223.981 211.05 215.015 210.946 214.93C210.101 214.206 208.827 214.305 208.103 215.155C207.379 216 207.478 217.272 208.328 217.996C208.431 218.086 219.027 227.12 233.762 238.428C248.317 249.597 258.922 261.117 259.025 261.234C259.412 261.661 259.957 261.882 260.505 261.882Z" fill="#191919"/>
<path d="M266.638 294.107C267.412 294.107 268.154 293.658 268.487 292.902C268.591 292.669 279.015 269.179 290.875 258.455C303.19 247.317 310.623 237.884 310.933 237.484C311.621 236.607 311.464 235.339 310.587 234.655C309.709 233.967 308.44 234.125 307.757 234.997C307.685 235.092 300.207 244.575 288.171 255.465C275.668 266.769 265.234 290.281 264.798 291.279C264.348 292.3 264.811 293.487 265.833 293.936C266.089 294.053 266.368 294.107 266.638 294.107Z" fill="#191919"/>
<path fill-rule="evenodd" clip-rule="evenodd" d="M497.088 254.058L482.97 253.923C482.97 253.923 472.158 249.076 458.629 252.979C444.825 256.962 428.502 281.068 428.502 281.068L404.026 323.406L401.606 323.136L393.939 311.176L376.459 269.782C376.459 269.782 380.018 265.573 381.836 261.18C383.654 256.787 383.852 254.593 383.852 254.593L360.586 255.802L363.677 249.354C363.677 249.354 371.321 247.898 374.169 246.796C377.013 245.703 376.073 231.553 372.154 222.07C368.235 212.583 355.745 222.335 355.745 222.335C355.745 222.335 355.601 221.634 355.475 219.916C355.349 218.203 362.08 214.835 363.407 213.329C364.734 211.823 363.461 211.112 362.602 208.896C361.742 206.674 355.34 210.24 355.34 210.24C355.34 210.24 350.499 213.343 348.884 218.702C347.268 224.062 349.558 229.458 349.558 229.458C349.558 229.458 348.695 233.518 348.749 238.59C348.807 243.671 349.298 261.553 351.705 269.773C354.112 277.997 369.864 337.377 369.864 337.377C369.864 337.377 367.007 340.12 365.963 342.48C364.919 344.85 366.692 351.055 367.438 354.306C368.19 357.566 371.609 356.864 371.609 356.864L374.975 364.391L364.348 374.733C364.348 374.733 332.695 360.304 316.741 351.756C300.782 343.213 274.322 332.089 250.575 330.385C226.829 328.681 206.465 345.574 206.465 345.574L109.637 415.597C109.637 415.597 83.8656 413.569 83.4111 413.578C82.9567 413.587 73.3509 404.117 64.5819 399.063C55.8174 394.009 41.0464 405.651 41.0464 405.651C41.0464 405.651 44.3399 416.757 55.0345 429.437C65.7247 442.121 106.672 467.072 106.672 467.072L186.291 421.775L121.871 546.902L108.287 557.243C108.287 557.243 94.5782 556.205 81.256 558.323C67.9338 560.436 60.816 575.256 60.816 575.256C60.816 575.256 82.5833 589.024 105.732 592.19C120.872 594.254 160.065 594.874 160.065 594.874L165.306 552.54L241.694 447.706L372.145 471.092C372.145 471.092 378.965 475.678 399.041 479.023C419.117 482.364 441.581 466.667 453.774 446.361C462.318 432.135 468.163 400.399 468.163 400.399C468.163 400.399 473.125 403.618 485.777 403.623C498.429 403.623 523.706 365.677 534.594 345.965C545.482 326.248 560.946 309.413 559.2 288.842C557.459 268.271 532.709 262.097 532.709 262.097C532.709 262.097 528.542 260.483 523.296 259.004C518.05 257.529 517.78 250.542 517.78 250.542C517.78 250.542 531.431 254.975 542.926 255.38C554.422 255.789 558.417 247.97 561.886 240.865C565.36 233.761 560.964 233.738 557.985 227.695C555.007 221.647 554.165 214.84 552.469 195.973C550.777 177.11 549.108 172.052 549.108 172.052C549.108 172.052 553.045 171.665 559.191 169.898C565.342 168.131 570.727 148.131 567.128 138.185C563.524 128.229 545.833 119.943 534.045 122.191C522.257 124.434 518.176 141.548 518.176 141.548C518.176 141.548 505.038 140.226 488.859 145.712C472.68 151.202 460.195 162.834 452.011 173.936C443.826 185.037 451.695 199.579 456.181 208.477C460.667 217.38 457.572 223.028 457.122 229.849C456.672 236.661 455.664 237.475 465.193 241.675C474.723 245.879 498.546 248.667 498.546 248.667L497.088 254.058Z" fill="white"/>
<path fill-rule="evenodd" clip-rule="evenodd" d="M521.973 210.959C521.973 210.959 507.18 205.447 496.017 198.464C484.859 191.481 476.248 178.841 476.248 178.841L468.851 192.821C468.851 192.821 469.908 197.623 470.196 201.823C470.484 206.018 473.022 213.248 473.022 213.248L470.736 215.528C470.736 215.528 470.439 217.767 471.541 221.04C472.644 224.309 477.071 231.688 485.525 237.704C493.984 243.729 500.858 236.229 500.858 236.229L498.168 249.13C498.168 249.13 463.227 244.035 459.304 239.183C455.376 234.332 459.236 218.27 458.494 211.634C457.751 204.988 449.711 196.89 449.887 182.87C450.062 168.859 471.465 154.34 486.735 145.644C502.006 136.943 519.818 141.611 519.818 141.611C519.818 141.611 521.465 130.487 530.846 123.602C540.227 116.718 547.461 123.198 556.532 128.306C565.602 133.414 570.403 143.216 567.424 157.204C564.446 171.193 550.075 171.044 550.075 171.044C550.075 171.044 552.442 188.239 553.706 201.418C554.975 214.597 556.761 224.345 559.893 231.521C563.024 238.698 562.201 244.889 554.512 251.949C546.827 259.013 518.068 251.279 518.068 251.279L521.024 226.818L521.973 210.959Z" fill="white"/>
<path fill-rule="evenodd" clip-rule="evenodd" d="M527.746 213.842C527.746 213.842 512.953 208.333 501.79 201.346C490.632 194.363 476.891 178.135 476.891 178.135L468.104 191.953C468.104 191.953 468.977 200.172 469.265 204.372C469.553 208.567 470.426 215.429 470.426 215.429L471.924 222.016C471.924 222.016 473.135 224.566 474.241 227.843C475.344 231.112 479.191 235.663 488.221 238.473C498.137 241.562 500.863 236.229 500.863 236.229L499.194 250.065C499.194 250.065 469.711 247.578 465.783 242.727C461.855 237.875 464.865 216.369 464.118 209.732C463.376 203.086 455.484 199.772 455.66 185.752C455.835 171.741 477.238 157.222 492.508 148.526C507.779 139.826 525.591 144.493 525.591 144.493C525.591 144.493 527.238 133.369 536.619 126.485C546 119.601 553.234 126.08 562.305 131.188C565.616 137.2 570.138 144.313 567.16 158.306C564.181 172.295 550.193 170.68 550.193 170.68C550.193 170.68 552.906 192.636 554.17 205.82C555.439 218.999 557.117 224.013 560.253 231.189C563.385 238.365 567.978 247.776 560.294 254.84C552.609 261.904 523.85 254.17 523.85 254.17L526.806 229.71L527.746 213.842Z" fill="#191919"/>
<path fill-rule="evenodd" clip-rule="evenodd" d="M423.045 351.217L465.405 362.107C465.405 362.107 467.664 374.598 466.215 383.074C464.762 391.545 462.044 397.723 462.044 397.723C462.044 397.723 475.717 404.356 484.234 403.632C492.747 402.912 502.321 394.598 510.861 383.204C519.405 371.806 548.614 320.569 554.701 308.343C560.789 296.117 557.522 281.648 550.94 272.866C544.348 264.08 533.609 261.157 527.94 261.171C522.271 261.189 517.497 266.279 512.341 270.712C507.18 275.146 494.555 280.429 485.04 278.914C475.528 277.394 476.496 272.133 475.897 265.339C475.299 258.541 484.774 254.318 484.774 254.318C484.774 254.318 468.262 245.977 450.211 257.412C436.736 265.946 427.931 282.138 423.049 290.335C418.163 298.541 402.47 324.876 402.47 324.876L423.045 351.217Z" fill="white"/>
<path fill-rule="evenodd" clip-rule="evenodd" d="M382.7 360.218C385.723 358.865 391.442 359.283 391.442 359.283L395.478 368.82L377.323 365.466C377.319 365.466 379.676 361.576 382.7 360.218Z" fill="#D6D6D6"/>
<path fill-rule="evenodd" clip-rule="evenodd" d="M119.045 551.452L108.288 558.844L92.9541 558.17C92.9541 558.17 101.206 561.646 107.883 567.981C114.559 574.317 121.466 583.435 121.466 583.435L149.707 584.919C149.707 584.919 152.186 582.023 155.088 577.122C157.99 572.217 163.291 568.251 163.291 568.251L164.231 557.365C164.231 557.365 161.275 550.989 142.446 546.209C127.54 542.428 119.716 547.689 119.716 547.689L119.045 551.452Z" fill="#191919"/>
<path fill-rule="evenodd" clip-rule="evenodd" d="M72.6491 435.466C79.164 440.844 101.026 454.684 101.026 454.684C101.026 454.684 105.062 453.861 113.664 452.265C122.271 450.669 129.267 454.28 129.267 454.28L136.934 449.981C136.934 449.981 129.992 451.137 117.3 435.197C106.272 421.357 111.783 413.825 111.783 413.825L108.553 416.51L83.6767 414.23L79.9109 410.866C79.9109 410.866 74.7863 412.179 69.5582 413.69C64.3301 415.201 61.4866 420.278 61.4866 420.278C61.4866 420.278 66.1297 430.089 72.6491 435.466Z" fill="#191919"/>
<path fill-rule="evenodd" clip-rule="evenodd" d="M467.56 402.517C467.56 402.517 460.015 459.657 426.545 473.614C400.458 484.5 372.077 472 372.077 472C372.077 472 353.774 470.844 325.816 465.952C297.858 461.065 241.226 447.679 241.226 447.679L166.184 551.43C166.184 551.43 161.617 545.957 149.91 539.604C138.207 533.25 125.839 539.469 125.839 539.469L185.953 420.929L142.248 445.255C142.248 445.255 133.879 440.309 124.764 430.876C115.648 421.438 121.133 408.029 121.133 408.029C121.133 408.029 191.766 354.346 218.366 340.021C244.961 325.695 260.082 328.105 281.571 337.601C303.639 347.363 397.498 388.407 397.498 388.407L405.295 390.956L411.481 377.791L467.56 402.517Z" fill="white"/>
<path fill-rule="evenodd" clip-rule="evenodd" d="M432.093 303.608C430.513 312.61 438.549 320.942 438.549 320.942L421.609 348.897L424.97 352.79L477.148 363.811L496.243 330.484C496.243 330.484 495.811 316.675 491.536 310.726C487.258 304.778 482.695 299.602 470.422 299.706C458.148 299.804 451.327 310.591 451.327 310.591C451.327 310.591 450.593 302.192 445.275 295.402C439.953 288.617 436.803 292.179 436.803 292.179C436.803 292.179 433.676 294.602 432.093 303.608Z" fill="#191919"/>
<path fill-rule="evenodd" clip-rule="evenodd" d="M608.561 378.519C601.686 412.778 592.841 444.81 581.804 475.139C578.151 485.179 574.538 495.278 570.511 504.968C562.462 524.339 554.278 543.48 544.155 560.742C538.688 570.054 533.635 577.298 525.06 582.774C516.871 588.013 505.83 590.463 493.057 591.916C481.157 593.264 468.329 594.739 454.733 594.739C441.509 594.739 427.814 595.14 414.127 595.14C387.006 595.14 359.394 594.865 332.372 594.865C309.102 594.874 284.716 594.195 261.104 594.195C257.774 594.195 254.229 594.353 251.021 594.06C248.276 593.813 245.478 588.62 244.029 586.673C238.45 579.159 233.87 571.115 230.851 561.272C226.919 548.453 225.92 529.352 228.966 515.584C232.039 501.695 237.888 489.999 244.83 479.972C251.93 469.725 261.828 462.796 272.262 456.321C262.341 454.275 252.627 452.027 242.679 450.008C217.263 484.401 192.284 519.244 166.975 553.75C165.644 565.679 164.082 578.453 162.404 590.706C162.094 592.986 162.058 595.108 160.789 595.809C159.597 596.475 155.786 595.967 153.527 595.944C141.159 595.814 128.413 595.45 116.413 595.005C111.576 594.825 107.302 594.15 102.834 593.395C94.1329 591.929 86.1468 590.131 78.0932 587.613C72.3612 585.827 67.331 583.642 62.6293 580.225C61.1446 579.146 58.706 577.644 58.8635 576.192C59.0525 574.451 61.167 572.302 62.3593 570.818C66.2332 565.967 70.6019 561.079 76.2125 558.318C80.3698 556.277 85.3639 555.863 91.0014 555.494C96.7425 555.117 102.888 555.144 108.08 555.494C108.868 555.548 110.375 554.136 111.306 553.345C112.328 552.468 113.237 551.574 113.997 550.926C115.995 549.231 118.127 547.999 119.509 546.358C121.002 544.591 122.1 541.29 123.409 538.835C143.098 501.951 162.265 462.427 181.769 426.492C159.403 439.239 135.404 453.102 112.251 466.672C110.726 467.562 108.773 469.221 107.28 469.221C105.786 469.226 103.446 467.27 101.899 466.267C90.304 458.763 78.3001 450.925 67.61 442.881C61.0681 437.958 55.525 433.592 50.6704 426.757C47.4399 422.207 44.349 416.946 41.258 411.438C40.4346 409.967 38.4685 407.17 38.7069 405.525C38.9544 403.762 42.1218 402.629 43.818 401.761C48.9607 399.122 56.8658 394.738 64.1186 397.328C72.6761 400.376 78.1832 407.013 84.5586 411.977C91.7753 412.319 100.279 413.884 107.689 414.122C108.584 414.153 110.348 412.701 111.72 411.703C139.031 391.851 165.99 372.368 193.476 352.579C203.028 345.695 212.553 338.6 223.328 333.496C234.783 328.069 250.148 325.87 264.744 328.793C271.169 330.084 276.73 332.93 282.628 335.376C311.518 347.363 339.192 360.264 367.344 373.007C370.988 370.421 374.417 367.624 378.907 365.88C378.745 366.613 378.322 367.22 378.502 368.168C378.687 369.131 379.38 369.463 379.578 370.048C378.003 370.498 376.626 371.464 375.276 372.337C373.985 373.168 372.487 373.91 371.78 375.021C382.147 379.711 393.264 384.643 404.049 389.67C405.677 390.426 408.75 391.721 407.009 393.83C405.97 395.093 403.531 393.906 402.168 393.294C360.807 374.706 320.557 355.439 278.057 337.795C274.862 336.468 271.789 335.142 268.51 334.031C265.104 332.871 261.464 332.197 257.482 331.752C239.359 329.697 226.599 335.713 215.527 342.233C209.952 345.511 204.737 349.369 199.658 352.979C173.49 371.59 148.587 389.774 122.478 408.753C122.806 413.636 122.744 417.575 124.093 421.249C127.922 431.667 134.936 438.344 144.398 443.286C158.193 435.619 171.43 427.391 185.274 419.769C193.615 403.776 201.628 386.401 223.193 383.753C228.993 383.043 236.524 383.101 242.963 383.892C243.728 383.982 245.217 384.427 245.518 384.293C246.351 383.924 245.604 381.847 247.404 381.608C248.911 381.406 251.88 384.176 253.185 385.097C253.833 385.561 254.526 385.772 255.07 386.172C255.651 386.608 255.993 387.337 256.551 387.782C258.143 389.077 260.1 390.286 261.792 391.545C285.071 408.821 307.968 426.217 331.715 442.877C341.208 449.54 350.593 456.348 360.757 462.229C365.765 465.125 371.641 467.603 377.296 470.022C383.028 472.472 389.102 474.738 395.586 475.934C418.64 480.193 435.35 467.054 445.608 454.702C449.378 450.165 452.591 445.381 455.021 439.922C459.898 428.938 463.101 416.478 465.778 402.296C448.731 395.916 431.346 388.771 414.41 381.869C412.696 381.172 411.023 380.3 409.304 379.72C407.468 379.099 405.65 378.681 403.923 377.975C400.098 376.401 398.164 374.436 396.261 371.253C394.542 368.384 393.003 365.201 391.284 361.981C388.333 361.932 386.259 361.532 383.892 361.981C380.032 362.728 378.165 366.325 374.345 365.745C371.434 365.3 371.038 361.819 370.309 358.892C368.212 358.056 366.651 357.633 365.873 356.073C364.024 352.368 363.772 344.103 365.603 340.214C366.246 338.847 368.005 337.728 368.023 336.72C368.046 335.192 366.507 331.149 366.008 329.333C361.252 312.075 356.631 295.389 351.754 277.997C351.088 275.609 350.229 273.276 349.604 270.74C348.969 268.168 348.884 265.33 348.528 262.412C347.386 253.1 346.562 242.124 347.183 231.769C347.269 230.362 346.981 229.098 346.913 227.736C346.634 221.881 346.787 214.561 349.469 211.611C350.818 210.123 353.122 208.99 355.651 208.122C358.989 206.967 364.222 205.303 365.468 209.057C366.156 211.135 366.026 214.345 365.198 216.184C364.955 216.719 364.456 217.138 364.523 217.659C367.128 216.922 370.876 217.38 372.595 218.869C374.93 220.897 376.1 225.874 376.896 230.96C377.724 236.225 378.34 241.63 377.836 246.149C377.62 248.087 376.378 249.247 375.015 249.777C371.528 251.117 368.982 250.528 364.523 251.387C364.523 251.517 364.361 251.49 364.258 251.517C363.007 253.145 361.887 260.609 358.746 259.854C356.289 259.265 357.864 256.113 358.611 254.476C359.614 252.268 360.235 250.236 361.167 248.833C362.269 247.169 365.679 247.372 368.158 246.953C370.102 246.625 371.758 246.405 373.805 246.009C373.958 244.202 374.034 242.016 373.805 240.227C373.823 240.074 373.773 239.988 373.67 239.961C364.537 240.033 358.589 242.974 354.575 248.694C353.405 250.362 351.714 253.024 351.619 255.011C351.538 256.661 352.069 258.725 352.294 260.654C352.506 262.475 352.726 264.395 352.965 266.162C353.464 269.876 354.539 273.226 355.385 276.239C360.834 295.627 366.282 315.839 371.659 334.697C373.513 333.816 375.681 332.629 377.98 331.608C380.09 330.664 382.614 329.234 384.702 329.049C386.632 328.887 388.315 330.021 390.214 330.529C390.11 329.022 389.255 327.098 388.733 325.56C382.803 326.707 373.27 328.325 371.119 322.467C370.314 320.272 370.61 317.224 372.73 315.749C375.006 314.166 378.57 313.42 381.602 312.66C384.864 311.837 388.202 311.315 392.094 311.315C387.136 300.182 381.949 288.172 376.761 276.508C375.92 274.615 374.331 272.691 374.61 270.596C374.772 269.346 376.014 267.664 376.761 266.162C378.201 263.262 379.321 260.398 380.527 256.76C381.224 254.647 381.355 252.736 383.487 252.997C386.911 253.419 383.424 260.447 382.812 262.129C382.336 263.451 381.679 265.231 380.927 266.837C380.473 267.812 378.462 270.744 378.777 271.535C380.437 275.704 382.619 279.957 384.558 284.305C388.31 292.696 392.328 301.617 395.986 309.966C396.508 311.154 396.715 312.386 397.466 313.19C398.24 314.031 398.996 314.472 399.752 315.479C401.142 317.314 402.119 319.247 402.978 321.392C409.925 309.521 416.786 297.57 423.953 285.92C424.885 279.287 426.63 272.794 428.124 266.432C429.618 260.052 431.067 253.586 433.231 247.754C437.496 236.27 446.643 229.125 455.686 222.488C457.396 216.081 456.262 209.912 453.801 205.155C451.534 200.766 448.132 196.917 447.214 191.31C446.175 184.992 448.002 178.904 450.305 174.511C452.775 169.808 455.565 166.575 459.182 162.955C465.715 156.422 473.85 150.676 482.983 145.887C492.004 141.161 503.585 138.301 517.006 140.379C517.582 135.064 519.724 131.345 522.518 128.283C527.886 122.393 537.077 117.654 547.799 121.157C552.055 122.546 555.677 124.848 558.962 127.47C565.594 132.784 570.979 139.403 570.66 150.856C570.516 156.062 568.954 160.316 566.493 164.156C563.393 168.999 559.592 173.108 551.97 173.567C554.485 186.778 555.038 201.944 556.546 216.166C557.76 216.742 559.187 216.818 560.446 216.971C569.854 218.122 578.952 220.06 585.858 223.954C605.425 235.002 614.811 257.039 617.591 284.831C618.149 290.407 618.522 296.513 618.666 302.574C618.666 303.824 618.666 305.079 618.666 306.333C617.641 332.314 613.146 355.677 608.561 378.519ZM520.889 141.067C536.344 145.195 546.098 155.028 551.142 169.556C557.99 169.435 561.18 165.586 563.78 160.955C565.549 157.803 566.723 153.936 566.736 149.934C566.772 142.025 563.231 136.656 558.534 132.465C553.765 128.211 548.343 124.389 541.59 123.863C536.448 123.463 532.893 125.131 529.487 127.492C524.795 130.756 521.789 134.322 520.889 141.067ZM497.223 246.283C497.808 243.869 498.209 241.27 498.838 238.896C496.476 239.453 494.33 240.771 491.176 240.775C486.934 240.784 482.929 238.406 479.744 236.072C474.552 232.25 471.393 228.657 469.391 221.958C468.802 219.993 467.677 216.719 468.046 214.84C468.325 213.441 470.286 212.722 471.677 211.616C474.214 209.593 477.107 206.773 476.923 202.209C476.81 199.484 474.021 197.448 471.677 196.301C469.778 195.361 465.756 195.402 465.49 193.207C465.342 191.953 466.656 190.199 467.24 189.044C469.198 185.181 471.668 181.301 473.962 178.288C472.149 176.269 469.827 173.522 467.776 171.036C467.051 170.154 466.098 169.219 466.161 168.212C466.228 167.173 467.123 166.503 468.046 166.467C469.499 166.409 470.453 168.162 471.407 169.286C478.052 177.128 484.338 184.331 491.577 191.868C495.541 195.986 498.942 199.804 505.29 202.614C509.448 204.453 514.145 206.09 518.874 207.322C520.561 207.758 522.545 207.87 522.639 209.601C522.855 213.666 514.077 210.119 512.017 209.467C505.902 207.538 500.121 205.123 496.148 201.809C495.064 200.905 493.939 200.051 492.922 199.125C491.905 198.199 491.149 196.989 489.966 196.301C488.225 195.289 483.622 195.779 483.375 193.477C483.217 191.993 484.005 191.512 485.26 191.189C483.334 188.819 481.008 186.454 478.808 183.936C478.439 183.518 477.076 181.53 476.788 181.517C476.41 181.503 475.182 183.419 474.907 183.805C473.143 186.225 471.713 189.008 470.471 191.733C474.282 192.983 477.755 194.804 479.613 197.78C481.908 201.449 480.612 207.151 478.403 210.55C476.828 212.969 474.331 214.26 472.217 216.324C473.13 222.803 475.24 226.333 478.669 229.764C481.377 232.47 486.29 236.935 491.446 236.751C495.248 236.616 498.838 234.269 502.199 232.987C503.824 232.367 505.466 231.701 507.311 230.834C508.566 230.249 513.861 227.03 514.032 230.703C514.14 232.92 510.284 233.954 509.191 234.471C506.955 235.51 505.169 236.171 503.14 237.016C502.802 239.611 502.001 243.131 501.255 246.423C500.049 251.742 499.54 255.609 495.743 258.248C494.357 259.215 490.204 261.639 489.827 258.518C489.638 256.967 490.861 256.517 491.442 255.969C489.998 256.216 488.396 255.627 487.001 255.969C486.313 256.135 485.165 257.147 484.176 257.848C481.822 259.525 478.07 262.295 477.049 264.84C475.402 268.945 477.4 274.206 480.009 275.861C483.348 277.974 488.846 277.943 493.318 277.471C497.925 276.976 501.525 274.966 504.615 273.433C512.251 269.665 515.724 263.793 522.9 260.937C520.07 259.723 515.882 257.12 515.369 253.275C515.022 250.636 515.841 247.291 516.178 244.543C516.934 238.365 517.51 234.175 518.46 227.745C518.874 224.952 518.824 220.897 521.15 220.892C524.439 220.888 522.662 225.793 522.225 228.819C521.276 235.434 520.273 242.781 519.67 249.247C526.113 250.569 532.641 252.151 539.975 252.745C542.423 252.938 545.167 253.145 547.372 252.61C550.499 251.85 553.369 249.566 555.304 247.506C557.405 245.263 560.253 241.598 559.475 237.156C558.746 232.983 555.686 228.842 554.233 224.79C552.609 220.276 552.28 215.051 551.812 209.61C550.899 198.927 550.26 187.884 548.586 177.627C547.727 172.366 546.674 168.243 544.416 164.187C542.279 160.339 540.02 157.115 536.884 154.111C530.644 148.113 521.753 144.367 511.472 143.76C494.024 142.739 482.011 150.195 472.208 157.335C467.38 160.851 462.179 164.857 458.224 169.831C454.463 174.561 450.508 180.662 450.962 188.913C451.367 196.279 456.973 200.802 459.299 207.726C460.622 211.67 460.636 215.757 460.105 219.683C459.443 224.593 457.041 233.235 460.375 237.016C461.976 238.842 465.283 239.836 468.172 240.784C476.99 243.662 487.001 245.02 497.223 246.283ZM350.791 224.516C351.264 224.714 351.943 223.797 352.537 223.307C353.203 222.767 353.959 222.331 354.422 221.832C353.729 215.002 363.412 218.545 361.819 210.811C358.625 211.22 354.017 212.47 352.407 214.3C350.436 216.553 351.259 220.317 350.791 224.516ZM520.084 253.41C519.323 253.554 520.673 254.665 521.029 255.025C523.022 257.039 526.356 257.794 529.231 258.918C531.534 259.822 533.757 260.173 536.092 260.802C549.072 264.292 558.57 274.116 560.158 289.157C560.739 294.674 560.334 300.771 558.948 305.142C557.603 309.395 555.232 313.348 553.297 316.967C541.257 339.553 527.661 360.871 513.497 382.013C511.085 385.606 508.912 389.171 506.37 392.355C503.846 395.516 500.481 398.128 496.958 400.417C493.444 402.705 489.287 404.531 484.315 405.255C479.015 406.028 474.061 404.697 469.526 403.375C465.625 424.558 460.807 442.36 449.491 456.191C444.146 462.719 438.094 468.794 430.261 473.385C422.644 477.859 412.809 481.267 401.084 480.638C392.814 480.202 385.669 477.738 379.168 475.13C378.016 474.671 377.031 474.1 375.942 473.785C374.768 473.452 373.472 473.407 372.041 473.255C361.509 472.108 350.526 470.786 339.498 469.352C321.016 466.955 303.649 462.98 285.85 459.271C283.276 458.731 280.549 457.629 278.457 457.661C277.634 457.674 277.557 458.111 276.572 458.731C272.127 461.559 267.142 464.28 263.124 467.198C258.224 470.764 253.68 474.909 250.216 479.428C242.913 488.974 236.983 500.359 233.677 513.021C230.275 526.052 230.41 544.582 233.946 557.909C236.88 568.961 242.585 578.444 249.005 586.794C249.725 587.734 251.147 589.811 251.961 590.018C253.428 590.405 255.916 590.153 258.013 590.153C288.545 590.153 319.499 590.958 349.856 590.958C383.078 590.958 416.224 590.823 448.281 590.823C456.568 590.827 464.554 590.562 472.352 590.153C476.063 589.96 479.757 589.227 483.375 588.809C494.578 587.527 506.024 586.691 514.977 583.3C520.844 581.079 526.005 577.941 530.036 573.754C537.842 565.656 543.7 554.092 549 543.381C554.584 532.099 559.484 521.137 564.329 509.383C573.949 486.056 582.97 462.018 590.281 436.55C597.561 411.195 603.725 384.427 608.701 356.19C611.108 342.525 613.776 327.705 614.482 312.516C615.224 296.59 613.951 280.753 610.716 267.228C607.607 254.229 602.051 243.383 593.642 234.975C589.583 230.924 584.747 227.385 578.713 225.164C575.753 224.08 572.486 223.226 569.031 222.479C565.54 221.724 561.58 220.726 558.003 220.6C556.82 220.555 557.351 221.504 557.598 222.344C558.993 227.079 562.565 231.333 563.38 236.324C564.509 243.221 560.082 248.698 556.658 251.643C554.62 253.397 552.28 254.944 549.531 255.946C546.571 257.025 543.372 256.949 539.448 256.616C533.806 256.153 526.684 254.93 520.084 253.41ZM351.196 232.313C351.687 232.47 352.501 231.809 353.212 231.369C357.936 228.469 364.325 226.49 371.771 226.13C371.065 223.711 370.732 221.499 367.871 221.292C362.161 220.892 353.905 225.982 351.867 229.759C351.435 230.564 351.358 231.661 351.196 232.313ZM454.868 228.145C454.755 228.122 454.742 228.199 454.733 228.284C447.79 233.284 441.392 239.184 437.658 247.502C435.759 251.724 434.679 256.67 433.487 261.472C432.313 266.207 431.157 271.095 429.991 275.982C435.278 267.381 440.686 260.222 449.221 255.29C453.486 252.826 458.197 250.852 464.145 250.317C467.254 250.038 470.394 250.263 473.562 250.591C476.446 250.888 479.285 251.648 482.164 251.931C485.462 252.264 490.155 251.971 493.862 251.931C495.253 251.922 496.17 251.976 496.283 250.456C490.24 249.444 482.781 248.343 475.708 246.828C465.562 244.651 454.652 242.794 454.598 231.243C454.598 230.254 454.755 229.058 454.868 228.145ZM350.926 246.423C355.412 239.84 362.62 235.982 373.517 235.807C373.211 233.914 373.229 231.706 372.577 230.159C363.029 231.328 353.653 232.664 350.791 240.51C350.688 242.628 350.971 244.359 350.926 246.423ZM405.115 325.843C410.298 332.804 415.765 339.481 421.519 345.871C426.01 337.593 430.738 329.553 435.233 321.275C433.415 316.536 430.302 312.543 430.257 306.36C430.207 299.224 434.239 293.001 437.919 288.622C442.027 283.743 447.106 280.272 453.248 278.545C454.13 276.756 453.329 271.005 456.204 270.888C458.782 270.78 458.147 273.788 457.819 275.591C457.419 277.776 457.306 280.501 456.609 281.369C455.997 282.138 454.256 282.394 453.248 282.714C447.498 284.535 443.143 288.163 439.8 292.92C437.312 296.468 434.225 300.654 434.284 306.36C434.333 310.731 436.227 314.431 437.914 317.786C438.531 319.004 439.498 319.989 439.53 321.149C439.561 322.377 438.54 323.568 437.779 324.904C433.222 332.925 428.484 341.5 424.196 349.364C425.312 351.352 427.814 351.325 429.843 351.783C444.942 355.228 460.793 358.838 475.964 362.134C486.956 342.903 497.894 323.222 508.773 303.411C509.524 302.035 510.537 300.326 511.733 300.313C512.71 300.308 513.438 301.104 513.614 301.796C513.924 303.001 512.692 304.715 511.999 305.96C501.551 324.742 490.402 344.508 480.266 363.209C482.52 364.081 486.655 363.425 486.718 366.167C486.74 367.175 486.376 368.353 483.892 368.042C479.78 367.539 475.479 366.199 471.789 365.358C458.593 362.345 445.181 359.454 431.584 356.356C428.938 355.754 425.668 355.434 423.652 354.472C422.257 353.807 420.736 351.509 419.481 350.043C415.607 345.506 411.603 340.583 407.918 336.064C405.457 333.042 402.726 329.958 400.791 326.122C399.167 322.898 397.255 316.756 393.935 315.771C389.03 314.324 382.83 316.441 378.606 317.786C377.139 318.249 374.934 318.618 374.705 319.8C374.394 321.419 376.473 322.7 377.931 322.894C379.807 323.132 382.376 322.525 384.522 322.215C386.637 321.914 388.985 320.947 390.574 321.41C392.346 321.927 392.544 324.494 393.129 326.383C393.692 328.195 394.452 329.593 394.879 332.03C396.715 333.038 400.962 332.597 400.931 335.389C400.881 339.117 394.231 335.992 392.324 335.389C391.262 335.052 390.025 334.557 388.828 334.184C387.618 333.802 386.061 333.105 385.197 333.105C384.185 333.105 382.344 334.058 380.761 334.719C379.132 335.398 377.616 336.109 376.594 336.603C372.487 338.586 368.766 340.308 368.392 345.475C368.986 345.718 369.423 345.079 369.873 344.796C375.974 341.077 381.751 337.071 392.063 337.678C394.915 337.84 399.995 337.763 400.13 340.232C400.31 343.55 394.695 341.9 392.063 341.711C380.909 340.884 375.353 346.545 368.662 350.448C369.072 351.68 368.775 353.816 369.738 354.477C371.123 355.425 372.586 354.005 373.234 353.537C378.286 349.899 382.646 347.498 391.253 347.089C394.362 346.941 398.861 346.873 398.92 349.243C398.978 351.945 395.208 351.122 392.598 351.122C383.636 351.122 378.79 353.928 374.178 357.975C374.394 359.324 374.759 360.529 375.119 361.738C378.799 359.796 381.557 357.84 387.762 357.84C389.723 357.84 392.099 357.66 393.543 358.38C395.172 359.184 396.755 363.843 397.579 365.502C398.803 367.975 400.458 371.181 402.015 372.489C404.503 374.585 407.419 374.805 410.487 375.853C413.317 376.81 416.08 378.29 418.959 379.481C435.921 386.523 452.681 393.618 470.997 399.5C474.12 400.502 477.539 401.64 480.815 401.653C490.033 401.685 497.7 396.078 502.46 390.767C504.768 388.195 506.726 385.016 508.782 382.035C514.748 373.371 520.894 363.883 526.396 354.89C534.256 342.035 541.748 330.106 548.586 317.26C550.44 313.784 552.159 310.708 553.698 307.318C555.304 303.77 556.006 300.146 556.253 294.953C556.942 280.389 549.999 271.486 540.119 266.598C536.956 265.038 532.376 263.478 528.016 263.775C523.872 264.062 520.561 266.481 517.933 268.613C515.306 270.74 512.827 273.365 509.731 275.335C508.008 276.432 505.713 277.3 503.41 278.424C501.241 279.494 499.261 280.366 496.688 280.982C487.847 283.087 477.602 281.104 474.367 275.605C472.473 272.39 471.803 265.888 473.962 262.165C475.573 259.382 477.926 258.123 480.414 255.587C476.77 255.164 473.683 254.435 470.061 254.242C458.903 253.649 451.061 258.06 444.915 263.248C438.661 268.523 434.752 276.306 430.527 283.001C421.609 297.111 413.088 311.864 405.115 325.843ZM129.461 536.02C145.258 531.974 157.959 540.517 166.975 547.032C190.11 515.526 212.917 483.435 236.358 451.757C237.667 449.99 239.584 446.258 241.334 445.844C242.958 445.467 246.616 446.699 248.866 447.189C286.264 455.386 322.604 463.916 363.565 468.286C353.149 463.021 343.912 456.267 334.518 449.738C308.022 431.33 281.602 411.658 255.588 392.094C254.377 391.181 253.109 389.675 251.957 389.405C247.021 388.258 239.692 387.364 234.477 387.121C224.053 386.626 214.951 389.144 208.796 393.303C202.474 397.575 198.551 403.956 194.677 410.903C187.078 424.549 179.708 438.771 172.626 452.292C157.945 480.318 143.845 508.102 129.461 536.02ZM43.2691 406.604C46.918 413.542 50.5264 419.891 54.8321 425.687C59.1514 431.501 64.7484 435.952 70.7009 440.336C82.3719 448.924 94.9698 456.955 107.28 464.927C113.286 461.618 119.036 458.048 125.029 454.716C119.761 453.515 113.124 453.857 108.355 455.116C106.447 455.624 104.162 456.717 102.443 456.595C100.589 456.465 97.8943 454.154 96.1216 453.097C90.0881 449.509 83.9511 445.768 78.5071 441.546C73.315 437.512 68.6268 432.126 64.2536 426.631C63.1107 425.188 60.3707 422.355 60.3527 420.853C60.3347 419.131 63.1647 416.73 64.3885 415.61C67.4885 412.773 70.6649 410.597 76.091 410.233C76.3834 409.715 75.2946 409.329 74.7457 408.888C71.1598 406.033 66.4042 401.892 61.2975 400.696C60.8431 400.588 59.5429 400.502 58.742 400.561C52.785 400.983 47.6919 404.333 43.2691 406.604ZM118.703 411.577C117.362 412.355 115.698 413.69 114.001 414.931C112.566 415.983 110.74 417.8 109.295 418.155C107.833 418.524 104.814 417.966 102.704 417.751C98.2992 417.31 94.0744 416.847 89.5257 416.411C87.2581 416.19 84.8195 416.321 83.0738 415.736C82.093 415.412 81.3506 414.203 80.5183 413.996C79.092 413.632 76.8604 414.068 75.5421 414.261C70.3725 415.017 67.7674 417.791 64.9194 420.849C69.9406 427.413 74.8762 433.695 81.7285 438.852C87.1816 442.958 93.6875 446.955 100.148 450.817C101.12 451.393 102.151 452.36 102.839 452.427C103.5 452.49 104.918 451.905 105.93 451.622C108.688 450.844 112.076 449.878 115.477 449.873C120.993 449.864 125.547 450.682 130.806 451.357C133.987 449.428 137.213 447.548 140.488 445.714C134.743 442.13 129.366 438.353 125.565 432.809C121.916 427.503 118.541 421.01 118.703 411.986C118.703 411.847 118.703 411.707 118.703 411.577ZM126.775 540.984C125.362 543.192 124.543 546.542 122.744 548.781C121.169 550.728 118.411 552.482 116.422 554.159C115.558 554.883 114.375 555.841 113.196 556.843C112.076 557.797 110.911 559.114 109.966 559.402C107.815 560.049 104.949 558.997 102.704 559.262C112.472 564.195 117.317 574.047 124.084 581.974C132.606 582.379 140.92 582.981 149.5 583.323C152.758 577.482 155.916 571.556 161.333 567.869C162.44 562.145 161.873 554.285 164.424 550.265C156.056 543.43 141.37 535.058 126.775 540.984ZM63.5742 575.796C72.0372 583.031 84.9905 585.877 98.2677 588.422C102.663 589.272 107.172 590.481 111.581 590.841C119.27 591.466 127.072 591.174 134.842 591.515C142.536 591.853 150.252 591.763 158.103 592.05C159.012 586.196 159.741 580.162 160.524 574.182C160.263 573.912 159.547 574.708 159.178 575.121C157.037 577.504 155.592 580.697 153.932 583.988C153.338 585.171 152.564 586.826 151.647 587.212C150.162 587.842 146.481 587.212 144.385 587.082C138.572 586.709 135.355 586.646 129.591 586.277C127.216 586.124 124.102 586.371 122.33 585.737C120.737 585.166 119.284 582.316 118.024 580.634C116.584 578.696 115.311 577.064 113.988 575.391C111.311 572.001 108.189 567.671 105.246 565.445C101.629 562.716 96.4635 561.164 91.9328 559.537C90.5875 559.047 86.5112 559.816 84.6711 560.072C74.0304 561.556 69.0902 569.114 63.5742 575.796Z" fill="#191919"/>
<path fill-rule="evenodd" clip-rule="evenodd" d="M491.446 221.427C489.921 221.211 488.909 222.632 487.95 223.576C487.374 224.143 486.196 225.586 484.99 225.996C483.923 226.36 480.855 225.978 480.149 226.805C479.712 227.322 479.6 228.819 480.149 229.494C481.188 230.775 485.624 230.177 486.87 229.633C487.982 229.143 489.246 227.866 490.366 226.805C491.244 225.978 493.192 224.862 493.192 223.311C493.192 222.151 492.189 221.531 491.446 221.427Z" fill="#191919"/>
<path fill-rule="evenodd" clip-rule="evenodd" d="M472.05 205.761L473.233 209.898C473.733 211.647 474.349 212.43 476.077 211.859C477.791 211.297 479.6 208.729 479.105 206.994L478.389 203.958C477.89 202.209 476.068 201.198 474.317 201.697C472.563 202.191 471.55 204.012 472.05 205.761Z" fill="#191919"/>
<path fill-rule="evenodd" clip-rule="evenodd" d="M491.549 203.208L492.733 207.34C493.232 209.089 495.054 210.105 496.804 209.606C498.555 209.107 499.567 207.277 499.068 205.532L497.884 201.395C497.385 199.646 495.558 198.635 493.812 199.134C492.062 199.637 491.05 201.458 491.549 203.208Z" fill="#191919"/>
<path d="M459.241 399.823C458.148 399.598 457.446 398.533 457.671 397.445C457.887 396.383 458.899 395.691 459.957 395.857C461.045 395.444 464.073 390.655 465.504 380.709C466.894 371.073 465.5 364.706 464.348 363.933C463.29 363.681 462.616 362.633 462.841 361.563C463.065 360.47 464.132 359.773 465.225 359.998C470.854 361.163 470.557 373.928 469.495 381.284C468.55 387.858 466.129 396.455 462.413 399.068C461.5 399.711 460.649 399.9 459.97 399.9C459.7 399.9 459.453 399.868 459.241 399.823Z" fill="#191919"/>
<path fill-rule="evenodd" clip-rule="evenodd" d="M545.46 209.732C545.46 220.645 536.61 229.489 525.694 229.489C514.775 229.489 505.925 220.645 505.925 209.732C505.925 198.819 514.775 189.974 525.694 189.974C536.61 189.974 545.46 198.819 545.46 209.732Z" fill="#B5E6EB"/>
<path fill-rule="evenodd" clip-rule="evenodd" d="M488.796 142.834C494.798 140.801 504.048 140.653 504.048 140.653C504.048 140.653 538.081 140.307 537.266 166.593C536.699 184.799 531.939 193.716 531.885 193.603L525.294 192.668C525.312 192.677 531.674 177.479 527.242 163.801C519.035 138.472 476.117 149.794 476.117 149.794C476.117 149.794 480.819 145.532 488.796 142.834Z" fill="#B5E6EB"/>
<path fill-rule="evenodd" clip-rule="evenodd" d="M232.646 345.443L231.147 352.152C230.482 355.147 232.898 358.105 236.547 358.766L401.551 388.811C405.2 389.477 408.701 387.597 409.366 384.612L410.869 377.894C411.535 374.908 409.119 371.95 405.47 371.284L240.47 341.239C236.812 340.578 233.312 342.458 232.646 345.443Z" fill="white"/>
<path d="M401.182 390.799L236.178 360.754C233.663 360.295 231.485 358.924 230.203 356.995C229.137 355.389 228.772 353.519 229.173 351.716L230.671 345.007C231.571 340.983 236.119 338.402 240.816 339.261L405.817 369.306C408.332 369.765 410.514 371.136 411.796 373.069C412.858 374.675 413.227 376.545 412.827 378.339L411.328 385.057C410.545 388.56 406.995 390.965 402.991 390.965C402.397 390.965 401.79 390.911 401.182 390.799ZM234.612 345.884L233.114 352.593C232.911 353.51 233.249 354.279 233.568 354.764C234.248 355.79 235.462 356.527 236.902 356.788L401.907 386.833C404.453 387.296 406.969 386.082 407.391 384.176L408.89 377.458C409.092 376.545 408.755 375.776 408.435 375.295C407.756 374.27 406.537 373.532 405.097 373.272L240.097 343.227C239.728 343.159 239.363 343.128 239.003 343.128C236.871 343.128 234.976 344.256 234.612 345.884Z" fill="#191919"/>
<path fill-rule="evenodd" clip-rule="evenodd" d="M204.008 255.141L220.881 336.527C221.708 340.529 225.735 344.355 229.866 345.066L344.357 364.773C348.488 365.484 354.868 359.076 354.035 355.075L337.154 273.716C336.322 269.714 332.295 265.888 328.165 265.177L213.65 245.465C209.516 244.759 203.176 251.14 204.008 255.141Z" fill="white"/>
<path d="M344.016 366.761L229.524 347.053C224.57 346.199 219.904 341.756 218.905 336.936L202.033 255.55C201.52 253.068 202.767 249.975 205.376 247.282C207.495 245.092 210.87 242.942 213.997 243.482L328.511 263.194C333.465 264.049 338.13 268.491 339.134 273.311L356.015 354.67C356.528 357.147 355.277 360.237 352.663 362.939C350.76 364.908 347.844 366.846 345.01 366.846C344.677 366.842 344.344 366.815 344.016 366.761ZM213.308 247.452C212.076 247.237 209.956 248.347 208.274 250.083C206.695 251.715 205.75 253.63 205.979 254.732L222.851 336.118C223.517 339.319 226.883 342.507 230.203 343.078L344.695 362.786C345.941 363.006 348.065 361.882 349.757 360.133C351.606 358.222 352.245 356.383 352.056 355.484L335.174 274.13C334.509 270.928 331.139 267.74 327.818 267.169L213.308 247.452Z" fill="#191919"/>
<path fill-rule="evenodd" clip-rule="evenodd" d="M218.361 340.025C244.956 325.7 260.078 328.11 281.566 337.606C303.635 347.368 397.493 388.411 397.493 388.411L405.29 390.961L407.832 390.767C409.677 391.802 410.419 389.994 412.3 390.965C413.951 391.82 415.62 392.647 417.317 393.411C422.09 395.57 426.895 397.696 431.827 399.477C433.455 400.062 435.111 400.583 436.794 400.974C437.631 401.172 438.481 401.343 439.336 401.473C440.029 401.581 440.726 401.689 441.428 401.793V425.718H183.528L185.953 420.934L177.359 425.718H171.384V371.046C189.179 358.366 207.464 345.889 218.361 340.025Z" fill="white"/>
<path fill-rule="evenodd" clip-rule="evenodd" d="M300.84 425.718C285.664 414.648 270.561 403.353 255.587 392.094C254.377 391.181 253.108 389.675 251.956 389.405C247.021 388.259 239.691 387.364 234.477 387.121C224.052 386.626 214.95 389.144 208.795 393.304C202.474 397.575 198.55 403.956 194.677 410.903C191.959 415.786 189.268 420.745 186.609 425.718H174.754C178.232 423.708 181.728 421.721 185.264 419.774C193.606 403.78 201.619 386.406 223.184 383.758C228.983 383.047 236.515 383.106 242.953 383.897C243.718 383.987 245.207 384.432 245.509 384.297C246.341 383.928 245.594 381.851 247.394 381.613C248.901 381.41 251.871 384.18 253.175 385.102C253.823 385.565 254.516 385.777 255.061 386.177C255.641 386.613 255.983 387.341 256.541 387.786C258.134 389.081 260.091 390.291 261.783 391.55C277.17 402.966 292.386 414.437 307.787 425.714H300.84V425.718Z" fill="#191919"/>
<path fill-rule="evenodd" clip-rule="evenodd" d="M193.466 352.584C203.018 345.7 212.543 338.604 223.319 333.501C234.774 328.074 250.139 325.875 264.734 328.798C271.159 330.088 276.72 332.934 282.619 335.38C311.508 347.368 393.255 384.648 404.039 389.67C405.668 390.426 408.741 391.721 407 393.83C405.961 395.093 403.522 393.906 402.159 393.294C360.797 374.706 320.547 355.439 278.047 337.795C274.853 336.468 271.78 335.142 268.5 334.031C265.094 332.871 261.454 332.197 257.472 331.752C239.35 329.697 226.59 335.713 215.517 342.233C209.943 345.511 204.728 349.369 199.648 352.979C190.101 359.778 180.716 366.509 171.384 373.249V368.497C178.718 363.213 186.074 357.908 193.466 352.584Z" fill="#191919"/>
<path fill-rule="evenodd" clip-rule="evenodd" d="M398.533 202.191L393.318 253.644C393.318 255.389 391.905 256.8 390.16 256.8H361.743C359.997 256.8 358.584 255.384 358.584 253.644L353.374 202.191C353.374 197.83 357.968 199.035 363.632 199.035H388.266C393.935 199.035 398.533 197.83 398.533 202.191Z" fill="#191919"/>
<path fill-rule="evenodd" clip-rule="evenodd" d="M398.533 218.985L396.863 236.746C396.863 237.349 395.167 237.839 393.08 237.839H358.993C356.901 237.839 355.21 237.349 355.21 236.746L353.383 218.985C353.383 217.479 357.977 217.893 363.641 217.893H388.274C393.934 217.897 398.533 217.484 398.533 218.985Z" fill="#F7F7F7"/>
<path d="M398.533 218.985L396.863 236.746C396.863 237.349 395.167 237.839 393.08 237.839H358.993C356.901 237.839 355.21 237.349 355.21 236.746L353.383 218.985C353.383 217.479 357.977 217.893 363.641 217.893H388.274C393.934 217.897 398.533 217.484 398.533 218.985Z" fill="white"/>
<path d="M355.138 236.755L353.311 218.99C353.311 218.792 353.388 218.612 353.536 218.468C354.301 217.713 356.933 217.753 360.582 217.803C361.563 217.816 362.575 217.83 363.641 217.83H388.275C389.341 217.83 390.353 217.816 391.334 217.803C394.983 217.749 397.619 217.713 398.38 218.468C398.528 218.612 398.605 218.792 398.605 218.994L396.936 236.746C396.936 237.398 395.244 237.906 393.084 237.906H358.998C356.829 237.906 355.138 237.398 355.138 236.755ZM391.329 217.933C390.349 217.947 389.336 217.96 388.27 217.96H363.637C362.57 217.96 361.558 217.947 360.577 217.933C357.099 217.884 354.355 217.843 353.63 218.558C353.509 218.68 353.446 218.819 353.446 218.976L355.273 236.742C355.273 237.236 356.766 237.767 358.989 237.767H393.075C395.298 237.767 396.792 237.236 396.796 236.737L398.465 218.985C398.465 218.819 398.407 218.68 398.281 218.558C397.732 218.019 396.031 217.911 393.732 217.911C392.985 217.911 392.18 217.924 391.329 217.933Z" fill="#191919"/>
<path d="M353.19 236.881L351.372 219.192C351.363 219.125 351.363 219.053 351.363 218.985C351.363 218.266 351.651 217.587 352.168 217.074C353.513 215.748 356.033 215.789 360.609 215.851C361.567 215.865 362.584 215.878 363.641 215.878H388.275C389.332 215.878 390.349 215.865 391.307 215.851C395.883 215.789 398.407 215.753 399.752 217.074C400.269 217.587 400.557 218.266 400.557 218.985C400.557 219.048 400.553 219.111 400.548 219.174L398.884 236.872C398.794 238.77 396.693 239.853 393.084 239.853H358.998C355.39 239.853 353.284 238.774 353.19 236.881ZM396.414 219.957C395.257 219.826 393.134 219.858 391.357 219.88C390.38 219.894 389.345 219.907 388.27 219.907H363.637C362.561 219.907 361.522 219.894 360.55 219.88C358.778 219.853 356.667 219.826 355.507 219.952L357.122 235.64C357.54 235.73 358.175 235.816 358.994 235.816H393.08C393.894 235.816 394.528 235.73 394.942 235.64L396.414 219.957Z" fill="#191919"/>
<path fill-rule="evenodd" clip-rule="evenodd" d="M357.095 194.165L358.561 189.642C358.561 188.612 359.979 187.771 361.724 187.771H390.187C391.932 187.771 393.35 188.612 393.35 189.642L394.816 194.165C394.816 196.76 390.983 196.045 386.245 196.045H365.675C360.933 196.045 357.095 196.76 357.095 194.165Z" fill="#D6D6D6"/>
<path fill-rule="evenodd" clip-rule="evenodd" d="M357.095 194.165L358.561 189.642C358.561 188.612 359.979 187.771 361.724 187.771H390.187C391.932 187.771 393.35 188.612 393.35 189.642L394.816 194.165C394.816 196.76 390.983 196.045 386.245 196.045H365.675C360.933 196.045 357.095 196.76 357.095 194.165Z" fill="white"/>
<path d="M357.504 195.424C357.18 195.109 357.027 194.7 357.027 194.165L358.494 189.633C358.503 188.567 359.947 187.704 361.725 187.704H390.187C391.959 187.704 393.404 188.567 393.417 189.633C393.417 189.633 394.879 194.143 394.884 194.165C394.884 194.7 394.726 195.114 394.407 195.424C393.507 196.297 391.433 196.238 388.805 196.157C387.986 196.135 387.141 196.108 386.25 196.108H365.679C364.789 196.108 363.943 196.135 363.124 196.157C362.404 196.18 361.729 196.198 361.108 196.198C359.439 196.202 358.161 196.058 357.504 195.424ZM388.801 196.027C391.397 196.103 393.449 196.166 394.308 195.33C394.6 195.047 394.744 194.669 394.744 194.174C394.744 194.174 393.282 189.664 393.278 189.642C393.278 188.648 391.892 187.834 390.182 187.834H361.72C360.015 187.834 358.625 188.644 358.625 189.642L357.158 194.174C357.158 194.664 357.302 195.047 357.594 195.33C358.454 196.162 360.505 196.103 363.101 196.027C363.92 196.004 364.77 195.977 365.661 195.977H386.232C387.132 195.977 387.978 196 388.801 196.027Z" fill="#191919"/>
<path d="M356.15 196.823C355.66 196.35 355.079 195.501 355.079 194.165C355.079 193.954 355.111 193.743 355.178 193.545L356.568 189.255C356.811 187.236 358.948 185.757 361.724 185.757H390.187C392.963 185.757 395.095 187.236 395.343 189.255L396.733 193.545C396.8 193.747 396.832 193.954 396.832 194.165C396.832 195.505 396.252 196.35 395.761 196.823C394.272 198.27 391.829 198.198 388.742 198.109C387.955 198.086 387.114 198.059 386.245 198.059H365.675C364.806 198.059 363.965 198.082 363.178 198.109C362.453 198.131 361.77 198.149 361.122 198.149C358.989 198.149 357.293 197.933 356.15 196.823ZM388.855 194.08C390.142 194.12 391.829 194.17 392.634 194.008L391.419 190.267C391.397 190.19 391.374 190.118 391.361 190.042C391.163 189.93 390.749 189.79 390.178 189.79H361.715C361.144 189.79 360.73 189.934 360.532 190.042C360.519 190.118 360.496 190.195 360.474 190.267L359.259 194.008C360.069 194.17 361.756 194.12 363.043 194.08C363.871 194.057 364.748 194.03 365.661 194.03H386.232C387.15 194.026 388.031 194.053 388.855 194.08Z" fill="#191919"/>
<path fill-rule="evenodd" clip-rule="evenodd" d="M348.956 204.601L351.052 197.016C351.052 195.276 353.077 193.864 355.578 193.864H396.323C398.821 193.864 400.85 195.271 400.85 197.016L402.946 204.601C402.946 208.958 397.453 207.758 390.677 207.758H361.225C354.449 207.758 348.956 208.954 348.956 204.601Z" fill="white"/>
<path d="M348.348 208.23C347.412 207.326 346.94 206.108 346.94 204.601C346.94 204.422 346.962 204.237 347.012 204.066L349.05 196.701C349.248 193.958 352.047 191.849 355.583 191.849H396.328C399.864 191.849 402.663 193.958 402.861 196.701L404.899 204.066C404.948 204.242 404.971 204.422 404.971 204.601C404.971 206.108 404.499 207.331 403.563 208.23C401.619 210.11 398.375 209.997 394.272 209.853C393.115 209.813 391.923 209.772 390.686 209.772H361.234C359.997 209.772 358.8 209.813 357.648 209.853C356.604 209.889 355.619 209.925 354.697 209.925C351.975 209.925 349.801 209.628 348.348 208.23ZM394.407 205.824C396.917 205.91 400.044 206.018 400.755 205.33C400.859 205.231 400.904 205.033 400.922 204.835L398.906 197.551C398.857 197.376 398.834 197.196 398.834 197.016C398.834 196.688 397.952 195.883 396.323 195.883H355.578C353.95 195.883 353.072 196.688 353.072 197.016C353.072 197.196 353.05 197.38 353 197.551L350.985 204.835C351.003 205.033 351.048 205.226 351.151 205.33C351.867 206.018 354.989 205.91 357.5 205.824C358.687 205.784 359.916 205.739 361.225 205.739H390.677C391.986 205.743 393.219 205.784 394.407 205.824Z" fill="#191919"/>
<path fill-rule="evenodd" clip-rule="evenodd" d="M381.836 261.175C380.018 265.573 376.46 269.777 376.46 269.777L389.777 301.311H360.267C356.483 287.165 352.785 273.428 351.714 269.777C349.307 261.553 348.812 243.675 348.758 238.594C348.704 233.518 349.568 229.462 349.568 229.462C349.568 229.462 347.282 224.071 348.893 218.707C350.508 213.347 355.349 210.244 355.349 210.244C355.349 210.244 361.752 206.679 362.611 208.9C363.47 211.117 364.748 211.827 363.416 213.333C362.084 214.835 355.358 218.203 355.484 219.921C355.61 221.634 355.754 222.34 355.754 222.34C355.754 222.34 368.239 212.587 372.163 222.074C376.082 231.557 377.022 245.708 374.178 246.8C371.33 247.902 363.686 249.359 363.686 249.359L360.595 255.807L383.861 254.597C383.856 254.593 383.654 256.782 381.836 261.175Z" fill="#F7F7F7"/>
<path fill-rule="evenodd" clip-rule="evenodd" d="M361.126 252.493H393.439L393.322 253.644C393.322 255.389 391.91 256.8 390.164 256.8H361.747C361.531 256.8 361.324 256.778 361.126 256.738V252.493Z" fill="#191919"/>
<path fill-rule="evenodd" clip-rule="evenodd" d="M380.91 266.85C380.455 267.826 378.444 270.757 378.759 271.549C380.419 275.717 382.601 279.971 384.54 284.319C387.015 289.863 389.606 295.627 392.14 301.311H387.645C384.063 293.163 380.397 284.755 376.739 276.522C375.897 274.629 374.309 272.704 374.588 270.609C374.75 269.359 375.992 267.677 376.739 266.175C378.178 263.275 379.299 260.411 380.505 256.773C381.202 254.66 381.332 252.749 383.465 253.01C386.889 253.433 383.402 260.46 382.79 262.142C382.318 263.464 381.661 265.24 380.91 266.85Z" fill="#191919"/>
<path fill-rule="evenodd" clip-rule="evenodd" d="M377.818 246.157C378.322 241.638 377.701 236.234 376.878 230.968C376.082 225.883 374.916 220.901 372.577 218.877C370.858 217.389 367.11 216.93 364.505 217.668C364.433 217.146 364.937 216.728 365.18 216.193C366.008 214.354 366.138 211.144 365.45 209.066C364.204 205.312 358.971 206.98 355.633 208.131C353.104 208.999 350.796 210.132 349.451 211.62C346.769 214.574 346.616 221.89 346.895 227.744C346.958 229.107 347.251 230.366 347.165 231.778C346.544 242.133 347.368 253.109 348.51 262.421C348.87 265.339 348.956 268.176 349.586 270.748C350.211 273.284 351.07 275.618 351.736 278.006C353.945 285.879 356.101 293.613 358.242 301.315H362.327C360.015 292.925 357.693 284.516 355.367 276.252C354.521 273.239 353.446 269.885 352.947 266.175C352.713 264.413 352.488 262.493 352.276 260.667C352.051 258.738 351.525 256.675 351.601 255.024C351.7 253.037 353.392 250.371 354.557 248.707C358.571 242.987 364.514 240.047 373.652 239.975C373.755 240.002 373.809 240.087 373.787 240.24C374.016 242.03 373.94 244.215 373.787 246.022C371.74 246.414 370.084 246.634 368.14 246.967C365.661 247.385 362.251 247.183 361.149 248.846C360.217 250.249 359.601 252.281 358.593 254.489C357.846 256.126 356.272 259.278 358.728 259.867C361.869 260.622 362.989 253.158 364.24 251.531C364.348 251.499 364.505 251.531 364.505 251.4C368.964 250.537 371.51 251.13 374.997 249.79C376.361 249.255 377.602 248.091 377.818 246.157ZM354.422 221.832C353.959 222.331 353.203 222.767 352.537 223.306C351.943 223.797 351.259 224.714 350.791 224.516C351.259 220.316 350.436 216.548 352.407 214.3C354.017 212.466 358.625 211.216 361.819 210.811C363.412 218.545 353.729 215.002 354.422 221.832ZM371.771 226.13C364.33 226.494 357.936 228.468 353.212 231.369C352.497 231.805 351.682 232.47 351.196 232.313C351.358 231.661 351.435 230.564 351.871 229.759C353.909 225.982 362.166 220.887 367.875 221.292C370.732 221.494 371.06 223.711 371.771 226.13ZM373.517 235.807C362.62 235.982 355.412 239.84 350.926 246.423C350.971 244.363 350.692 242.632 350.791 240.514C353.653 232.668 363.029 231.333 372.577 230.164C373.229 231.706 373.211 233.914 373.517 235.807Z" fill="#191919"/>
<path fill-rule="evenodd" clip-rule="evenodd" d="M611.575 414.23C611.575 414.23 630.931 400.178 636.321 373.51C643.484 338.082 624.992 247.699 615.094 248.307C603.517 249.021 577.462 334.018 582.258 374.584C585.597 402.818 603.774 414.504 603.774 414.504L611.575 414.23Z" fill="#B5E6EB"/>
<path d="M602.681 416.199C601.907 415.7 583.662 403.667 580.252 374.823C575.964 338.55 596.427 265.487 609.506 249.84C611.405 247.569 613.191 246.409 614.968 246.301C616.381 246.207 617.757 246.931 619.062 248.428C629.559 260.474 645.041 340.546 638.296 373.915C632.816 401.042 613.578 415.273 612.759 415.866C611.859 416.518 610.599 416.32 609.942 415.421C609.285 414.522 609.483 413.263 610.383 412.606C610.572 412.471 629.177 398.649 634.337 373.114C637.982 355.074 634.688 323.145 630.391 299.278C628.011 286.068 625.096 273.824 622.176 264.799C618.027 251.967 615.463 250.469 615.157 250.33C614.932 250.37 614.086 250.64 612.597 252.425C606.613 259.588 598.438 280.879 592.256 305.393C585.269 333.123 582.349 358.258 584.252 374.351C587.433 401.221 604.687 412.701 604.863 412.813C605.799 413.416 606.068 414.661 605.466 415.596C605.079 416.194 604.431 416.523 603.769 416.523C603.396 416.518 603.018 416.415 602.681 416.199Z" fill="#191919"/>
<path d="M599.059 545.944C597.952 545.836 597.142 544.847 597.25 543.741C597.358 542.657 608.022 434.738 608.543 366.415C608.786 334.27 610.069 288.811 610.631 286.963C610.955 285.897 612.084 285.299 613.151 285.623C614.167 285.933 614.761 286.976 614.527 287.997C614.145 290.726 612.84 331.72 612.579 366.446C612.057 434.949 601.376 543.053 601.268 544.136C601.165 545.175 600.287 545.953 599.262 545.953C599.194 545.953 599.127 545.953 599.059 545.944Z" fill="#191919"/>
<path fill-rule="evenodd" clip-rule="evenodd" d="M585.309 472.234C585.309 472.234 604.687 458.335 603.792 431.145C602.172 381.788 554.197 342.426 548.37 347.705C538.819 356.36 544.312 409.072 551.074 439.342C554.737 455.732 561.427 465.314 567.38 468.852C573.535 472.517 581.674 473.533 581.674 473.533L585.309 472.234Z" fill="#B5E6EB"/>
<path d="M581.422 475.534C581.071 475.489 572.788 474.424 566.345 470.584C558.75 466.069 552.469 454.842 549.104 439.778C542.922 412.094 535.962 356.23 547.012 346.208C548.479 344.877 550.832 344.886 553.999 346.226C560.96 349.171 573.557 359.355 584.778 374.76C593.939 387.332 605.02 407.31 605.799 431.073C606.721 459.019 587.307 473.272 586.479 473.866C585.584 474.509 584.333 474.311 583.681 473.425C583.685 473.542 583.681 473.659 583.667 473.781C583.537 474.801 582.668 475.548 581.67 475.548C581.593 475.552 581.508 475.548 581.422 475.534ZM549.662 349.261C542.045 356.45 545.266 404.081 553.045 438.906C557.608 459.324 565.963 465.664 568.415 467.126C574.115 470.521 581.85 471.528 581.926 471.537C582.497 471.609 582.979 471.91 583.294 472.337C583.262 471.676 583.555 471.011 584.131 470.597C584.315 470.462 602.622 457.027 601.772 431.213C600.593 395.277 574.097 364.126 557.675 352.934C553.18 349.872 550.728 349.243 549.882 349.243C549.788 349.238 549.716 349.247 549.662 349.261Z" fill="#191919"/>
<path d="M593.147 574.024C594.231 574.024 595.127 573.165 595.163 572.077C595.176 571.699 596.324 533.642 586.533 465.759C582.016 434.459 573.859 407.049 561.589 381.968C561.099 380.965 559.889 380.551 558.89 381.042C557.887 381.532 557.473 382.737 557.963 383.739C570.044 408.438 578.084 435.457 582.538 466.339C592.274 533.821 591.14 571.574 591.127 571.947C591.091 573.057 591.964 573.993 593.075 574.029C593.102 574.024 593.125 574.024 593.147 574.024Z" fill="#191919"/>
<path fill-rule="evenodd" clip-rule="evenodd" d="M631.638 478.007C631.638 478.007 645.189 482.157 665.629 447.382C683.946 416.217 680.419 335.331 676.189 333.721C671.96 332.111 640.929 358.64 623.134 410.421C603.459 467.665 626.018 475.539 626.018 475.539L631.638 478.007Z" fill="#B5E6EB"/>
<path d="M633.257 480.21C638.211 480.21 650.651 476.843 667.366 448.403C684.769 418.794 682.852 345.587 678.911 334.368C678.578 333.42 678.047 332.269 676.904 331.837C675.878 331.446 674.65 331.617 673.04 332.372C665.013 336.131 637.828 361.455 621.222 409.769C601.128 468.236 624.349 477.094 625.348 477.445C626.401 477.818 627.552 477.256 627.917 476.209C628.281 475.165 627.737 474.023 626.697 473.65C626.383 473.529 606.455 465.147 625.037 411.087C634.265 384.238 646.562 365.574 655.254 354.647C665.395 341.895 672.792 336.747 675.181 335.834C678.438 344.742 680.85 417.517 663.888 446.375C644.811 478.835 632.303 476.114 632.182 476.078C631.116 475.75 630.013 476.357 629.685 477.423C629.356 478.488 629.982 479.621 631.044 479.95C631.341 480.026 632.087 480.21 633.257 480.21Z" fill="#191919"/>
<path d="M608.782 570.593C609.717 570.593 610.559 569.937 610.752 568.988C610.883 568.363 623.858 505.993 631.71 474.599C639.552 443.259 656.23 394.954 656.397 394.473C656.761 393.42 656.204 392.274 655.151 391.91C654.098 391.545 652.95 392.103 652.586 393.155C652.42 393.641 635.682 442.117 627.8 473.623C619.926 505.094 606.937 567.545 606.806 568.17C606.581 569.258 607.279 570.328 608.372 570.553C608.507 570.58 608.647 570.593 608.782 570.593Z" fill="#191919"/>
<path fill-rule="evenodd" clip-rule="evenodd" d="M643.57 537.023L634.598 592.608C634.598 595.576 632.668 597.986 630.288 597.986H567.506C565.126 597.986 563.195 595.58 563.195 592.608L554.404 537.023C554.404 534.055 556.811 531.645 559.785 531.645H638.188C641.162 531.645 643.57 534.051 643.57 537.023Z" fill="#B5E6EB"/>
<path d="M561.18 592.774L552.411 537.338C552.393 537.234 552.388 537.126 552.388 537.023C552.388 532.945 555.709 529.631 559.785 529.631H638.189C642.269 529.631 645.585 532.949 645.585 537.023C645.585 537.131 645.576 537.239 645.558 537.342L636.609 592.779C636.533 596.776 633.725 600 630.283 600H567.501C564.064 600 561.256 596.776 561.18 592.774ZM638.189 533.664H559.785C557.976 533.664 556.496 535.099 556.424 536.884L565.184 592.293C565.202 592.397 565.206 592.5 565.206 592.608C565.206 594.429 566.259 595.967 567.501 595.967H630.283C631.525 595.967 632.573 594.429 632.573 592.608C632.573 592.5 632.583 592.392 632.6 592.289L641.541 536.884C641.473 535.094 639.997 533.664 638.189 533.664Z" fill="#191919"/>
<path d="M540.996 539.23C540.996 538.988 541.041 538.749 541.122 538.525L546.566 523.961C546.755 520.062 549.756 516.951 553.419 516.951H644.015C647.677 516.951 650.683 520.062 650.867 523.961L656.311 538.525C656.397 538.749 656.437 538.988 656.437 539.23C656.437 543.309 653.117 546.623 649.036 546.623H548.388C544.317 546.623 540.996 543.309 540.996 539.23ZM646.975 525.053C646.89 524.828 646.849 524.59 646.849 524.347C646.849 522.49 645.581 520.984 644.02 520.984H553.423C551.862 520.984 550.593 522.495 550.593 524.347C550.593 524.59 550.548 524.828 550.467 525.053L545.05 539.554C545.212 541.258 546.652 542.594 548.397 542.594H649.045C650.795 542.594 652.235 541.258 652.397 539.554L646.975 525.053Z" fill="#191919"/>
</svg>
