<svg width="259" height="228" viewBox="0 0 259 228" fill="none" xmlns="http://www.w3.org/2000/svg">
<path fill-rule="evenodd" clip-rule="evenodd" d="M237.964 63.7718L233.313 68.4193L228.661 63.7718L233.313 59.1243L237.964 63.7718Z" fill="#191919"/>
<path d="M236.76 53.9608C236.444 53.6788 236.416 53.1953 236.699 52.8792C237.059 52.4742 245.428 42.8563 236.317 34.5112C235.454 33.7201 234.541 33.1341 233.611 32.712C232.448 36.008 230.162 38.9007 227.844 40.8879C224.247 43.9703 220.446 45.1817 218.162 43.9703C215.382 42.4974 214.876 40.5957 214.939 39.2596C215.078 36.4061 218.051 33.3032 222.339 31.5416C225.273 30.3353 229.065 29.7373 232.592 30.7368C233.007 28.8812 232.988 26.93 232.313 24.989C227.851 12.1399 206.786 12.0032 206.114 12.0032C205.693 12.0032 205.349 11.6632 205.348 11.2429C205.344 10.8192 205.684 10.474 206.108 10.4706C206.339 10.4655 211.829 10.4467 217.996 12.1228C226.281 14.3731 231.734 18.6482 233.761 24.4866C234.56 26.7865 234.561 29.0846 234.043 31.2494C235.211 31.7466 236.328 32.4455 237.353 33.3835C247.588 42.7555 237.942 53.7899 237.844 53.9009C237.692 54.0701 237.483 54.1555 237.273 54.1555C237.088 54.1555 236.907 54.0906 236.76 53.9608ZM222.92 32.9598C219.231 34.4771 216.577 37.0981 216.469 39.3347C216.406 40.6333 217.216 41.7371 218.878 42.6171C220.55 43.5021 223.826 42.3129 226.846 39.7243C228.993 37.8824 231.118 35.2049 232.176 32.1823C228.234 31.0495 224.313 32.3857 222.92 32.9598Z" fill="#B5E6EB"/>
<path d="M15.9004 188.286L20.7902 193.173L14.1104 194.962L15.9004 188.286Z" fill="#B5E6EB"/>
<path fill-rule="evenodd" clip-rule="evenodd" d="M247.214 78.9343C247.214 82.883 244.011 86.085 240.058 86.085C236.107 86.085 232.903 82.883 232.903 78.9343C232.903 74.9839 236.106 71.7853 240.058 71.7853C244.01 71.7853 247.214 74.9839 247.214 78.9343Z" fill="#B5E6EB"/>
<path fill-rule="evenodd" clip-rule="evenodd" d="M202.438 3.3199C202.438 5.15328 200.95 6.6398 199.114 6.6398C197.281 6.6398 195.794 5.15328 195.794 3.3199C195.794 1.48823 197.281 0 199.114 0C200.95 0 202.438 1.48823 202.438 3.3199Z" fill="#8256E1"/>
<path fill-rule="evenodd" clip-rule="evenodd" d="M189.194 177.551H3.26025V4.66628H189.193V177.551H189.194Z" fill="white"/>
<path fill-rule="evenodd" clip-rule="evenodd" d="M188.623 20.3961H3.16968V4.66459H188.623V20.3961Z" fill="#B5E6EB"/>
<path d="M2.49438 177.551V4.6663C2.49438 4.24427 2.83803 3.90083 3.26033 3.90083H189.193C189.617 3.90083 189.959 4.24427 189.959 4.6663V177.551C189.959 177.974 189.615 178.316 189.193 178.316H3.26033C2.83803 178.316 2.49438 177.973 2.49438 177.551ZM188.427 5.43177H4.02799V176.783H188.428V5.43177H188.427Z" fill="#191919"/>
<path fill-rule="evenodd" clip-rule="evenodd" d="M37.9384 52.4828C38.1812 53.1423 38.436 53.8633 38.6394 54.5331C39.0207 55.7907 39.8909 57.8154 38.4394 58.5331C37.1742 58.5775 36.5331 57.8855 35.8868 57.3336C34.2386 55.9223 32.4998 54.5092 30.732 53.132C30.3781 52.8569 29.9609 52.3905 29.631 52.3324C29.0035 52.223 28.0905 52.4144 27.3297 52.4332C26.5073 52.452 25.6662 52.4332 24.878 52.4332C23.2948 52.4332 21.58 52.6382 20.2737 52.1837C18.3298 51.5037 18.0528 48.9407 17.822 46.482C17.5228 43.3056 17.5809 39.6816 17.8716 36.6299C18.0186 35.087 18.0716 33.3681 18.523 32.0798C19.2137 30.1046 21.1594 30.1866 23.8265 30.2789C28.4307 30.4378 32.676 30.0448 36.7861 29.8295C39.6584 29.6792 42.6111 29.7014 45.4936 29.5801C54.1738 29.2144 62.8335 28.9308 71.8146 28.9308C78.7389 28.9308 86.0188 28.5771 92.7807 28.83C97.7252 29.0145 102.381 29.1119 107.142 29.4793C108.855 29.6125 111.141 29.7116 112.246 30.3797C113.571 31.1811 113.865 33.0657 114.048 35.1298C114.176 36.5855 114.248 38.3591 114.248 40.0302C114.248 44.2283 113.87 47.0065 111.196 48.1308C109.037 49.0381 105.833 49.2517 102.888 49.3816C99.7563 49.5183 96.4651 49.6071 93.4817 49.4824C90.3461 49.3508 87.178 49.1389 84.0749 49.2825C81.0179 49.4243 78.0345 49.6532 74.9673 49.7831C65.3399 50.188 56.0596 49.995 46.7947 50.4324C44.4011 50.5452 42.0896 50.3811 39.8396 50.282C39.1113 50.2496 38.3231 50.1983 37.6375 50.4819C37.2751 51.1363 37.6905 51.8095 37.9384 52.4828ZM37.1879 55.9838C36.9314 54.4443 35.8834 52.9065 35.6372 51.1825C35.5961 50.8954 35.6577 50.581 35.6372 50.2325C35.6064 49.7028 35.4423 49.4294 35.738 49.033C36.2441 48.353 38.966 48.4897 40.1422 48.5324C41.7562 48.5922 43.271 48.6827 44.9465 48.6827C48.4258 48.6827 51.3306 48.3325 54.5038 48.3325C57.9488 48.3325 61.2144 48.3461 64.4115 48.2829C67.5625 48.2214 70.8024 48.0334 74.0697 48.0334C77.2908 48.0334 80.411 47.6815 83.5278 47.5328C86.6736 47.3825 89.946 47.5465 93.1859 47.6832C98.0483 47.8882 102.95 47.7515 107.447 47.1825C109.267 46.9519 111.051 46.5862 111.75 45.4824C112.654 44.054 112.547 40.8623 112.451 38.5812C112.396 37.2792 112.321 36.2404 112.201 34.9811C112.097 33.8978 112.078 32.5189 111.401 31.9807C111.042 31.6954 109.919 31.5809 109.149 31.4801C103.405 30.7266 97.19 30.9162 91.0351 30.6292C88.3235 30.5027 84.7759 30.6292 81.8779 30.6292C78.8415 30.6292 75.7913 30.636 72.9207 30.6787C67.0188 30.7693 60.8451 30.7078 55.1569 30.9795C49.4704 31.2494 43.6591 31.3673 37.6939 31.5792C34.8934 31.6783 32.134 32.0046 29.1881 32.1294C27.7434 32.1909 26.1432 32.0867 24.7344 32.0798C23.5803 32.073 20.7969 31.7774 20.3815 32.3293C19.8446 33.0418 19.742 35.5364 19.6309 36.6795C19.2565 40.5496 19.1676 45.0621 19.9318 48.6315C20.0549 49.2039 20.2789 50.2427 20.7832 50.4324C21.9373 50.8647 23.8487 50.6323 25.5875 50.6323C26.3945 50.6323 27.2682 50.6682 28.0888 50.6323C28.9539 50.5947 29.8652 50.4512 30.4414 50.5827C30.7919 50.663 30.9509 50.9638 31.2928 51.2833C32.0502 51.9924 33.1051 52.7288 33.8454 53.3337C35.0285 54.3093 36.0441 55.0953 37.1879 55.9838Z" fill="#191919"/>
<path fill-rule="evenodd" clip-rule="evenodd" d="M65.6613 86.2883C61.1135 86.2883 56.5024 86.1875 51.6502 86.1875C47.2939 86.1875 42.4452 85.8372 37.9401 85.8372C35.7517 85.8372 33.5872 86.1038 31.3355 86.2866C29.2377 86.4575 26.5483 86.8573 24.8301 86.2371C23.9581 85.921 22.7459 84.0227 22.628 82.936C22.4433 81.2273 22.628 79.423 22.628 77.6357C22.628 75.9425 22.6776 74.2014 22.6776 72.3355C22.6776 69.3095 22.9272 64.8756 24.9292 63.8846C25.9824 63.3634 27.9588 63.4489 29.4326 63.3839C31.0739 63.3122 32.9768 63.2643 34.4865 63.3344C40.5098 63.6146 46.5109 64.0417 52.7 64.3339C55.7022 64.4757 58.8173 64.6842 61.9581 64.6842C65.1176 64.6842 68.3011 64.5834 71.5153 64.5834C82.5823 64.5834 93.8184 64.6842 105.092 64.6842C106.337 64.6842 109.038 64.2793 109.045 65.5847C109.05 66.6714 107.771 66.4902 106.493 66.4851C108.006 68.245 107.857 71.2112 107.944 74.3363C108.011 76.725 108.729 80.983 107.744 82.9377C107.077 84.2619 105.055 84.7266 103.29 85.188C101.796 85.5775 99.7717 85.8236 98.2364 86.0389C96.5814 86.2712 94.7229 86.5053 92.8815 86.589C91.0009 86.6745 89.0672 86.642 87.4276 87.0384C85.8957 87.4092 84.6407 88.4036 83.4251 89.2391C81.4761 90.5787 79.6929 91.9303 77.8207 93.3399C77.2292 93.7859 75.6101 95.2758 74.668 94.9409C73.408 94.4915 74.6834 92.7385 75.0681 92.0909C76.4171 89.8167 77.8515 87.7595 79.0705 85.6407C74.6424 85.8663 70.216 86.2883 65.6613 86.2883ZM77.8703 90.9392C79.7117 89.8115 81.394 88.4429 83.2747 87.1888C84.2236 86.5566 85.1845 85.9227 86.277 85.5382C87.3951 85.1452 88.6859 84.9624 90.2298 84.8889C93.1636 84.7488 95.9624 84.5079 98.7373 84.1388C100.059 83.9629 101.35 83.8347 102.69 83.4878C103.68 83.2333 105.578 82.83 106.043 82.2371C106.549 81.5913 106.4 79.7698 106.344 78.5857C106.282 77.2803 106.262 76.0621 106.193 74.6354C106.077 72.1698 106.33 68.6944 105.043 67.5838C104.639 67.2352 104.118 67.3736 103.842 66.8832C103.784 66.779 103.822 66.5432 103.593 66.4834C97.7644 66.5364 91.8899 66.4339 86.029 66.4339C74.3158 66.4339 62.7975 66.6679 51.4023 66.034C48.5984 65.8785 45.7962 65.7692 43.0453 65.5847C38.6069 65.2874 34.6387 64.9696 30.0857 65.1848C29.4309 65.2156 28.6291 65.2498 27.8836 65.2839C27.1536 65.3181 26.2526 65.2293 25.7824 65.4839C25.0694 65.87 24.7566 68.0366 24.6318 69.0344C24.2556 72.0399 24.4317 75.177 24.4317 78.2355C24.4317 79.7254 24.2112 81.4101 24.4813 82.8369C24.601 83.4656 25.1686 84.3815 25.6319 84.5865C26.3346 84.8992 27.9127 84.7693 28.9847 84.6873C32.4058 84.4208 35.7568 83.9253 39.2429 84.0876C48.5659 84.5216 58.195 84.4874 67.966 84.4874C70.2621 84.4874 72.5873 84.2414 74.8715 84.0876C75.9777 84.0124 77.0052 83.9816 78.3234 83.8877C79.7715 83.7851 81.288 83.4468 81.4265 84.6873C81.5 85.3503 81.0863 85.9808 80.7768 86.4882C79.8826 87.9423 78.6876 89.557 77.8703 90.9392Z" fill="#191919"/>
<path fill-rule="evenodd" clip-rule="evenodd" d="M33.3906 72.9678C31.8382 74.5773 28.7932 73.2224 28.5231 71.5701C28.2085 69.6513 30.0208 68.3698 31.8895 68.568C32.8162 68.6671 33.695 69.2959 33.1838 70.2767C34.5276 70.4544 34.013 72.3219 33.3906 72.9678ZM32.0434 71.6743C32.2246 71.3907 32.1801 70.8798 32.3545 70.5876C31.6194 70.2954 30.361 70.4441 30.3867 71.1566C30.4055 71.6846 31.4552 72.0229 32.0434 71.6743Z" fill="#B5E6EB"/>
<path fill-rule="evenodd" clip-rule="evenodd" d="M18.5265 150.398C18.4478 148.592 18.9402 146.807 18.9402 144.912C18.9402 139.043 19.1488 133.131 19.407 127.47C19.5762 123.738 19.9763 119.921 19.9763 116.084C19.9763 112.191 19.9729 108.287 20.2345 104.438C21.5834 104.009 23.0931 104.195 24.5857 104.127C28.9745 103.927 33.6847 103.788 38.2069 103.764C41.2177 103.747 44.2559 103.59 47.3214 103.558C56.4341 103.462 65.2323 103.04 74.7707 103.04C80.1289 103.04 85.3709 102.833 90.8779 102.833C91.7891 102.833 92.3773 102.72 92.5346 102.16C92.9671 100.619 90.883 101.007 89.4793 101.022C87.2396 101.046 84.6904 101 82.5396 101.073C73.3517 101.391 63.8542 101.113 54.8834 101.54C51.8743 101.683 48.8054 101.729 45.7159 101.746C42.6436 101.764 39.5781 101.953 36.5485 101.953C32.1511 101.953 27.4289 102.1 22.876 102.315C21.0996 102.399 19.3882 102.317 18.7334 103.195C18.0341 104.132 18.229 107.385 18.164 108.94C18.0683 111.2 18.1127 113.182 18.1127 115.151C18.1127 119.516 17.8135 123.292 17.5947 127.159C17.2681 132.943 17.2271 139.231 17.0766 145.481C17.0561 146.354 16.9057 147.278 16.7655 148.328C16.5672 149.823 16.3534 151.471 17.4391 152.003C18.1999 152.375 19.9318 152.384 21.3235 152.416C22.7802 152.452 24.242 152.468 25.5705 152.468C28.506 152.468 31.0415 152.779 33.8574 152.779C36.8562 152.779 39.7115 152.855 42.4025 152.727C45.1398 152.597 47.7129 152.163 50.1715 151.899C58.4516 151.007 66.3025 151.072 75.1349 151.07C76.5112 151.07 77.8944 151.16 79.2775 151.225C80.7205 151.294 82.5618 151.5 83.7826 151.174C84.3485 151.022 84.9332 150.679 85.5949 150.45C88.1765 149.553 92.1037 150.139 93.3638 147.965C94.5059 145.994 94.7281 142.677 95.0735 139.943C95.9677 132.852 96.2737 125.023 96.5233 117.066C96.5609 115.891 96.8994 113.249 95.4872 113.34C94.2716 113.418 94.6957 115.92 94.658 117.222C94.5332 121.715 94.2374 126.689 94.0374 130.937C93.8305 135.303 93.4117 139.815 92.6389 143.928C92.4063 145.168 92.0302 147.183 91.2916 147.499C90.1786 147.976 88.5475 147.993 87.096 148.223C86.3505 148.341 85.6958 148.483 85.0768 148.69C84.3519 148.931 83.7552 149.329 83.0577 149.414C81.7668 149.573 80.3461 149.377 78.9663 149.31C77.6225 149.245 76.2154 149.206 74.875 149.206C66.6291 149.206 58.0754 149.184 50.5339 149.983C47.9933 150.253 45.5159 150.629 42.9719 150.812C40.3116 151.002 37.5658 150.916 34.7362 150.916C29.2788 150.916 23.8402 150.53 18.5265 150.398Z" fill="#B5E6EB"/>
<path fill-rule="evenodd" clip-rule="evenodd" d="M62.1855 116.031C61.0503 114.406 59.8843 112.81 58.9234 111.011C61.7239 110.65 64.7518 109.873 68.1934 109.873C69.4159 109.873 70.7597 110.033 70.7837 108.993C70.8178 107.527 67.7951 108.01 66.3812 108.113C64.4885 108.25 62.2642 108.614 60.322 108.889C58.8824 109.094 57.2394 109.153 57.0068 110.442C56.8359 111.392 57.3197 112.123 57.783 112.875C58.5165 114.064 59.5458 115.506 60.3203 116.653C60.7135 117.234 61.1956 118.071 62.03 118.102C62.9891 118.138 63.7191 117.109 64.2047 116.548C65.4118 115.154 66.5812 114.242 68.0892 113.08C68.6585 112.641 69.8313 111.947 69.7989 111.113C69.7801 110.64 69.3099 110.242 68.9184 110.233C68.2977 110.22 67.5335 111.146 67.0548 111.527C65.2408 112.972 63.4097 114.31 62.1855 116.031Z" fill="#B5E6EB"/>
<path fill-rule="evenodd" clip-rule="evenodd" d="M34.4251 110.493C35.2714 112.745 33.5548 114.73 31.163 114.426C29.7422 114.247 28.1949 112.772 28.4172 110.958C28.6138 109.36 30.6842 108.342 32.3529 108.576C33.5018 108.74 34.1874 109.856 34.4251 110.493ZM32.1478 110.442C31.6913 110.271 30.3782 110.732 30.2825 111.217C30.0277 112.519 32.4572 113.133 32.7684 111.891C32.9137 111.31 32.5034 110.575 32.1478 110.442Z" fill="#B5E6EB"/>
<path fill-rule="evenodd" clip-rule="evenodd" d="M46.9588 112.253C47.3247 113.389 48.0291 114.466 48.5643 115.462C49.585 117.363 50.8074 119.838 51.7751 121.879C52.2367 122.853 53.2831 124.413 53.1736 125.295C52.9975 126.725 50.2312 126.618 48.5643 126.693C47.5624 126.739 46.6768 126.752 45.6646 126.797C44.914 126.829 43.3753 126.978 42.8162 126.746C41.4126 126.163 42.2024 123.446 42.5563 122.035C43.0795 119.961 43.5993 117.685 44.1105 115.72C44.4165 114.541 44.8627 113.572 44.9397 112.562C44.9585 112.32 44.8337 111.71 44.9397 111.424C45.073 111.065 45.6048 110.866 45.9758 110.907C46.8631 111.006 46.7263 111.528 46.9588 112.253ZM46.2869 115.1C45.3278 118.213 44.5567 121.538 43.9036 124.986C46.275 124.89 48.7096 124.854 50.9989 124.675C49.6038 121.307 47.9231 118.225 46.2869 115.1Z" fill="#B5E6EB"/>
<path fill-rule="evenodd" clip-rule="evenodd" d="M33.1307 132.024C31.8057 129.811 30.6431 127.436 29.5574 124.984C31.2996 125.355 33.3376 125.937 35.3055 126.433C36.3005 126.684 38.0803 127.081 37.8427 125.604C37.7247 124.873 36.7365 124.871 35.9261 124.673C34.4848 124.321 32.9444 123.913 31.421 123.535C30.6311 123.339 29.8412 123.007 29.1933 122.966C28.6632 122.932 27.9469 123.017 27.6921 123.224C26.8578 123.903 27.8375 125.727 28.2102 126.537C29.4565 129.242 30.5969 131.364 32.0433 133.835C32.3237 134.313 32.5922 134.85 33.235 134.87C34.4814 134.908 34.7566 132.989 35.1516 131.817C35.3738 131.154 35.5585 130.59 35.7722 129.955C36.0423 129.151 37.1126 127.386 35.5653 127.315C34.5652 127.269 34.2506 128.649 34.0112 129.333C33.6812 130.277 33.459 131.077 33.1307 132.024Z" fill="#B5E6EB"/>
<path fill-rule="evenodd" clip-rule="evenodd" d="M67.1573 133.63C65.5809 135.012 62.5787 133.606 62.9104 131.197C63.042 130.243 63.8969 128.794 65.1894 128.557C66.5999 128.299 67.9369 129.524 67.4172 130.575C68.3968 131.345 67.6907 133.162 67.1573 133.63ZM65.863 132.283C66.2716 131.979 65.7724 131.277 66.1229 130.886C65.3176 129.384 63.7584 132.625 65.863 132.283Z" fill="#B5E6EB"/>
<path fill-rule="evenodd" clip-rule="evenodd" d="M116.438 118.836C117.648 121.022 119.77 121.876 122.986 122.158C125.865 122.411 129.247 122.3 132.254 122.46C135.183 122.618 138.235 122.867 141.321 122.964C144.46 123.064 147.649 122.947 150.789 123.065C157.151 123.303 163.381 122.864 169.526 122.864C171.267 122.864 172.545 122.794 173.706 122.259C175.293 121.531 176.45 120.258 176.929 118.283C177.078 117.669 177.083 116.993 177.281 116.27C177.644 114.953 177.928 113.611 177.936 112.142C177.945 110.614 177.936 108.984 177.936 107.359C177.936 105.813 177.743 104.058 178.087 102.729C178.817 99.8994 178.7 96.9144 178.842 93.9209C178.986 90.8829 179.195 87.8022 179.195 84.7095C179.195 81.6374 179.446 78.5447 179.446 75.3974C179.446 69.1147 179.495 62.7705 179.495 56.4212C179.495 50.9125 179.446 45.327 179.446 39.7089C179.446 38.8836 179.309 38.1797 179.446 37.6449C179.41 34.3797 179.429 31.287 176.927 30.4464C175.096 29.833 172.014 30.1439 169.574 30.1439C164.5 30.1439 159.808 29.768 154.867 29.7407C152.338 29.727 149.801 29.7014 147.413 29.5903C142.714 29.3716 138.179 29.8928 133.309 29.8928C128.679 29.8928 123.415 29.6194 119.659 30.4976C119.069 30.636 118.601 31.7415 118.199 32.4113C118.018 32.712 117.792 33.0435 117.595 33.3681C117.413 33.6672 117.06 34.1319 117.042 34.4753C116.942 36.2011 117.091 37.9952 117.091 39.7602C117.091 44.9852 116.968 50.3965 116.889 55.5652C116.58 75.9493 116.176 97.7363 116.438 118.836Z" fill="#8256E1"/>
<path fill-rule="evenodd" clip-rule="evenodd" d="M191.28 7.32156H185.965V2.00938H191.28V7.32156Z" fill="#191919"/>
<path fill-rule="evenodd" clip-rule="evenodd" d="M5.31549 7.32155H0V2.00937H5.31549V7.32155Z" fill="#191919"/>
<path fill-rule="evenodd" clip-rule="evenodd" d="M191.28 180.206H185.965V174.894H191.28V180.206Z" fill="#D6D6D6"/>
<path fill-rule="evenodd" clip-rule="evenodd" d="M5.31549 180.206H0V174.894H5.31549V180.206Z" fill="#191919"/>
<path fill-rule="evenodd" clip-rule="evenodd" d="M17.7537 12.3877C17.7537 14.1647 16.3124 15.6034 14.5343 15.6034C12.7562 15.6034 11.3132 14.1647 11.3132 12.3877C11.3132 10.6107 12.7545 9.16859 14.5343 9.16859C16.3124 9.16859 17.7537 10.6107 17.7537 12.3877Z" fill="white"/>
<path fill-rule="evenodd" clip-rule="evenodd" d="M42.0794 12.3877C42.0794 14.1647 40.6381 15.6034 38.86 15.6034C37.0819 15.6034 35.6406 14.1647 35.6406 12.3877C35.6406 10.6107 37.0819 9.16861 38.86 9.16861C40.6364 9.16861 42.0794 10.6107 42.0794 12.3877Z" fill="white"/>
<path fill-rule="evenodd" clip-rule="evenodd" d="M29.6106 12.3877C29.6106 14.1647 28.1693 15.6034 26.3912 15.6034C24.6132 15.6034 23.1719 14.1647 23.1719 12.3877C23.1719 10.6107 24.6132 9.16861 26.3912 9.16861C28.1676 9.16861 29.6106 10.6107 29.6106 12.3877Z" fill="white"/>
<path fill-rule="evenodd" clip-rule="evenodd" d="M139.887 167.343C139.887 167.343 160.312 113.106 161.964 104.626C163.616 96.149 166.375 90.061 172.133 86.0372C177.892 82.0133 211.022 83.1274 211.022 83.1274C211.022 83.1274 221.173 80.4397 232.383 94.3617C239.311 102.966 242.047 122.693 238.663 151.699C235.133 181.959 233.486 207.669 220.682 219.385C215.028 224.557 189.164 225.295 176.069 225.311C162.973 225.326 95.5693 224.87 95.07 224.697C94.5708 224.526 92.4593 226.514 88.0688 213.769C83.6783 201.022 89.3271 189.561 92.3106 184.197C95.2957 178.835 104.779 173.219 104.779 173.219L139.887 167.343Z" fill="#191919"/>
<path fill-rule="evenodd" clip-rule="evenodd" d="M134.352 119.388C137.513 123.744 131.67 132.355 125.689 136.687C119.709 141.021 112.299 141.004 109.139 136.647C105.978 132.294 108.264 125.251 114.244 120.916C120.225 116.581 131.191 115.031 134.352 119.388Z" fill="#B5E6EB"/>
<path d="M116.354 140.692C112.978 140.683 110.194 139.407 108.519 137.097C106.841 134.786 106.493 131.749 107.534 128.536C108.548 125.411 110.77 122.484 113.793 120.294C116.823 118.098 121.117 116.542 125.279 116.128C129.818 115.679 133.35 116.702 134.971 118.935C136.592 121.17 136.288 124.536 134.116 128.417C132.283 131.689 129.302 135.012 126.139 137.303C123.126 139.487 119.664 140.688 116.385 140.688C116.375 140.692 116.364 140.692 116.354 140.692ZM125.431 117.656C121.586 118.037 117.471 119.523 114.694 121.536C111.931 123.538 109.907 126.192 108.992 129.011C108.105 131.743 108.378 134.296 109.76 136.198C111.14 138.101 113.484 139.154 116.387 139.161C119.343 139.161 122.487 138.062 125.24 136.066C128.232 133.898 131.051 130.761 132.779 127.672C133.858 125.744 135.419 122.161 133.732 119.838C132.656 118.356 130.382 117.557 127.354 117.557C126.744 117.557 126.101 117.589 125.431 117.656Z" fill="#191919"/>
<path fill-rule="evenodd" clip-rule="evenodd" d="M66.4802 112.22C64.2884 117.138 73.0352 125.172 79.7766 128.184C86.5197 131.197 93.7603 129.654 95.9521 124.736C98.144 119.822 94.4561 113.394 87.7148 110.384C80.9734 107.371 68.672 107.306 66.4802 112.22Z" fill="#B5E6EB"/>
<path d="M79.4638 128.883C72.4078 125.731 63.3515 117.353 65.7793 111.909C66.4101 110.496 67.7335 109.394 69.715 108.637C74.4577 106.823 82.6712 107.293 88.026 109.685C95.1418 112.863 99.0109 119.756 96.6515 125.049C95.7197 127.139 93.9569 128.729 91.5514 129.649C90.0913 130.207 88.4534 130.484 86.7454 130.484C84.3604 130.482 81.8368 129.943 79.4638 128.883ZM70.2655 110.068C68.6772 110.676 67.6411 111.505 67.1812 112.533C65.2322 116.902 73.6696 124.617 80.0895 127.486C83.7945 129.141 87.8755 129.415 91.0043 128.217C93.0217 127.445 94.4904 126.134 95.2512 124.425C97.267 119.903 93.7449 113.917 87.4002 111.083C84.4578 109.767 80.4896 109.07 76.8428 109.07C74.3603 109.07 72.0248 109.394 70.2655 110.068Z" fill="#191919"/>
<path fill-rule="evenodd" clip-rule="evenodd" d="M95.4802 41.2365C100.611 39.603 108.284 46.7639 110.533 53.795C112.781 60.8244 110.442 67.8469 105.313 69.4804C100.182 71.1156 94.2014 66.7397 91.9531 59.7103C89.7049 52.6827 90.3511 42.8716 95.4802 41.2365Z" fill="#B5E6EB"/>
<path d="M91.2231 59.9444C90.0468 56.2691 89.6621 51.9309 90.1922 48.3393C90.8128 44.1292 92.608 41.3475 95.2478 40.5069C100.936 38.6957 108.941 46.2992 111.263 53.5626C112.398 57.1149 112.453 60.7885 111.416 63.9034C110.351 67.1037 108.265 69.3437 105.545 70.21C104.749 70.4646 103.935 70.5859 103.116 70.5859C98.2534 70.5859 93.2542 66.2972 91.2231 59.9444ZM95.7145 41.9661C92.9465 42.8494 92.0164 46.4786 91.7087 48.5631C91.2112 51.9343 91.5753 56.0145 92.6832 59.478C94.7981 66.0956 100.36 70.2561 105.079 68.7508C107.32 68.0366 109.054 66.1434 109.96 63.4198C110.895 60.6108 110.839 57.2755 109.801 54.0291C108.751 50.7468 106.428 47.3124 103.584 44.8451C101.273 42.8392 98.9698 41.7662 97.0583 41.7662C96.5847 41.7662 96.1351 41.8311 95.7145 41.9661Z" fill="#191919"/>
<path d="M107.711 178.29C107.778 178.29 107.845 178.282 107.912 178.265C108.32 178.155 108.563 177.735 108.454 177.327C108.406 177.152 103.733 159.76 102.437 153.582C101.083 147.114 101.127 140.384 102.581 131.761C104.008 123.292 102.941 117.227 101.003 106.213C100.82 105.171 100.628 104.082 100.43 102.941C98.7458 93.2511 99.2501 91.944 101.374 86.4438C102.105 84.5489 103.015 82.1927 104.08 78.8626C108.306 65.6684 101.953 52.8416 101.681 52.3034C101.49 51.9258 101.03 51.7737 100.652 51.9651C100.274 52.1547 100.122 52.616 100.312 52.9937C100.375 53.1201 106.65 65.8136 102.62 78.3961C101.567 81.6835 100.666 84.0176 99.9426 85.8936C97.7507 91.5715 97.1626 93.0973 98.9185 103.204C99.1168 104.347 99.3083 105.435 99.4929 106.479C101.464 117.678 102.452 123.299 101.069 131.506C99.5818 140.328 99.5408 147.232 100.936 153.896C102.24 160.117 106.925 177.549 106.973 177.725C107.065 178.065 107.375 178.29 107.711 178.29Z" fill="#191919"/>
<path fill-rule="evenodd" clip-rule="evenodd" d="M126.103 78.9001C130.317 82.2508 127.902 92.5898 123.314 98.3718C118.726 104.152 111.589 106.124 107.373 102.775C103.159 99.4244 103.461 92.0225 108.052 86.2422C112.641 80.4601 121.889 75.5512 126.103 78.9001Z" fill="#B5E6EB"/>
<path d="M106.896 103.375C102.357 99.7661 102.606 91.867 107.452 85.7672C111.016 81.2751 116.912 77.634 121.468 77.1112C123.564 76.8703 125.284 77.2701 126.582 78.3004C128.763 80.0347 129.539 83.428 128.767 87.8552C128.083 91.7731 126.269 95.8824 123.916 98.8486C121.148 102.336 117.272 104.673 113.547 105.101C113.123 105.148 112.706 105.174 112.297 105.174C110.239 105.174 108.39 104.561 106.896 103.375ZM121.642 78.6319C117.518 79.1052 111.935 82.5806 108.652 86.7172C104.332 92.1575 103.972 99.0912 107.85 102.174C109.315 103.339 111.223 103.824 113.371 103.576C116.7 103.194 120.192 101.07 122.713 97.8934C127.154 92.2942 129.416 82.5105 125.626 79.4965C124.851 78.8813 123.838 78.5721 122.603 78.5721C122.297 78.5755 121.976 78.5943 121.642 78.6319Z" fill="#191919"/>
<path fill-rule="evenodd" clip-rule="evenodd" d="M71.1512 74.2902C74.8612 70.3894 85.0716 73.2052 90.4298 78.2816C95.788 83.3614 97.1251 90.6403 93.415 94.5377C89.7049 98.4385 82.3532 97.4851 76.995 92.4087C71.635 87.3289 67.4411 78.1894 71.1512 74.2902Z" fill="#B5E6EB"/>
<path d="M76.4667 92.964C72.1719 88.894 69.0927 82.9736 68.9782 78.5687C68.9269 76.5627 69.4706 74.9446 70.5955 73.7623C74.6527 69.4958 85.3623 72.4244 90.9564 77.7246C94.1912 80.7916 96.1796 84.8582 96.2754 88.6053C96.342 91.1768 95.5436 93.41 93.969 95.0657C92.2883 96.8341 89.9221 97.6901 87.3267 97.6901C83.7535 97.6901 79.7425 96.0669 76.4667 92.964ZM71.7069 74.8165C70.8725 75.6947 70.4707 76.942 70.5118 78.5277C70.6144 82.4951 73.5636 88.0995 77.5233 91.8517C82.5669 96.6308 89.4468 97.5979 92.8611 94.008C94.1502 92.6548 94.8016 90.7992 94.7469 88.6429C94.6614 85.2939 92.8508 81.6272 89.905 78.8352C87.3832 76.4465 83.6816 74.5123 80.0024 73.6631C78.7218 73.3676 77.525 73.2223 76.4444 73.2223C74.3586 73.224 72.707 73.7657 71.7069 74.8165Z" fill="#191919"/>
<path d="M101.822 130.489C101.946 130.489 102.073 130.459 102.191 130.394C102.562 130.189 102.697 129.724 102.492 129.353C102.42 129.223 100.65 126.112 93.5295 121.558C86.4273 117.017 78.8174 116.007 78.496 115.966C78.0754 115.915 77.6924 116.21 77.6394 116.629C77.5864 117.047 77.8822 117.432 78.3028 117.487C78.378 117.497 85.9025 118.501 92.7037 122.85C99.498 127.195 101.133 130.066 101.15 130.093C101.29 130.346 101.551 130.489 101.822 130.489Z" fill="#191919"/>
<path d="M98.992 99.5149C99.1766 99.5149 99.363 99.4483 99.51 99.3133C99.8229 99.028 99.8434 98.5427 99.5579 98.2317C99.5169 98.1873 95.3965 93.7107 89.7613 89.3861C84.1928 85.1128 80.1989 81.7057 80.1596 81.6733C79.8381 81.3982 79.3543 81.4358 79.079 81.7587C78.8038 82.0799 78.8414 82.5635 79.1645 82.8386C79.2039 82.8727 83.2302 86.3054 88.8295 90.6026C94.3604 94.8469 98.3902 99.2245 98.4295 99.2689C98.5765 99.4312 98.7834 99.5149 98.992 99.5149Z" fill="#191919"/>
<path d="M101.322 111.761C101.617 111.761 101.899 111.59 102.025 111.303C102.064 111.214 106.026 102.288 110.533 98.213C115.212 93.9806 118.037 90.3959 118.155 90.2438C118.416 89.9106 118.356 89.4288 118.023 89.1691C117.689 88.9077 117.207 88.9675 116.947 89.299C116.92 89.3348 114.079 92.9384 109.505 97.0767C104.754 101.372 100.789 110.307 100.623 110.686C100.452 111.074 100.628 111.525 101.016 111.696C101.114 111.74 101.22 111.761 101.322 111.761Z" fill="#191919"/>
<path fill-rule="evenodd" clip-rule="evenodd" d="M188.894 96.5419L183.528 96.4907C183.528 96.4907 179.42 94.6488 174.279 96.1319C169.034 97.6457 162.831 106.806 162.831 106.806L153.53 122.894L152.61 122.792L149.697 118.247L143.055 102.517C143.055 102.517 144.407 100.918 145.098 99.2484C145.788 97.5791 145.864 96.7453 145.864 96.7453L137.023 97.2049L138.197 94.7547C138.197 94.7547 141.102 94.2011 142.184 93.7825C143.265 93.3673 142.908 87.9902 141.418 84.3866C139.929 80.7814 135.183 84.4874 135.183 84.4874C135.183 84.4874 135.128 84.2209 135.081 83.5682C135.033 82.9172 137.59 81.6374 138.095 81.065C138.599 80.4926 138.115 80.2227 137.789 79.3803C137.462 78.5362 135.029 79.8912 135.029 79.8912C135.029 79.8912 133.19 81.0701 132.576 83.1068C131.962 85.1436 132.832 87.1939 132.832 87.1939C132.832 87.1939 132.504 88.7368 132.525 90.6642C132.547 92.595 132.733 99.3902 133.648 102.514C134.562 105.639 140.548 128.203 140.548 128.203C140.548 128.203 139.463 129.245 139.066 130.142C138.669 131.043 139.343 133.401 139.627 134.636C139.912 135.875 141.212 135.608 141.212 135.608L142.49 138.469L138.452 142.399C138.452 142.399 126.424 136.916 120.362 133.667C114.297 130.421 104.243 126.194 95.2187 125.546C86.1949 124.899 78.4567 131.318 78.4567 131.318L41.6622 157.927C41.6622 157.927 31.8689 157.156 31.6963 157.16C31.5236 157.163 27.8734 153.565 24.5411 151.644C21.2106 149.724 15.5977 154.147 15.5977 154.147C15.5977 154.147 16.8492 158.368 20.9132 163.186C24.9754 168.006 40.5355 177.487 40.5355 177.487L70.7904 160.274L46.3108 207.823L41.1492 211.753C41.1492 211.753 35.9397 211.358 30.8773 212.163C25.8149 212.966 23.1101 218.597 23.1101 218.597C23.1101 218.597 31.3817 223.829 40.1781 225.032C45.9313 225.816 60.8245 226.052 60.8245 226.052L62.8164 209.965L91.8437 170.128L141.415 179.015C141.415 179.015 144.007 180.758 151.636 182.029C159.264 183.298 167.801 177.334 172.434 169.617C175.681 164.211 177.902 152.152 177.902 152.152C177.902 152.152 179.788 153.375 184.595 153.377C189.403 153.377 199.008 138.957 203.146 131.467C207.283 123.974 213.159 117.577 212.496 109.76C211.834 101.943 202.429 99.597 202.429 99.597C202.429 99.597 200.846 98.9836 198.853 98.4214C196.859 97.861 196.757 95.2058 196.757 95.2058C196.757 95.2058 201.944 96.8905 206.312 97.0443C210.68 97.1998 212.199 94.2284 213.517 91.5288C214.837 88.8291 213.166 88.8206 212.034 86.5241C210.903 84.226 210.583 81.6391 209.938 74.4696C209.295 67.3019 208.661 65.3796 208.661 65.3796C208.661 65.3796 210.157 65.2327 212.493 64.5612C214.83 63.8897 216.876 56.2896 215.509 52.5101C214.139 48.7272 207.417 45.5781 202.937 46.4325C198.458 47.2851 196.907 53.7882 196.907 53.7882C196.907 53.7882 191.915 53.2858 185.767 55.3704C179.618 57.4566 174.874 61.8769 171.764 66.0956C168.654 70.3142 171.644 75.84 173.349 79.2214C175.053 82.6045 173.877 84.7506 173.706 87.3426C173.535 89.9312 173.152 90.2404 176.773 91.8363C180.395 93.4339 189.448 94.4933 189.448 94.4933L188.894 96.5419Z" fill="white"/>
<path fill-rule="evenodd" clip-rule="evenodd" d="M198.35 80.1645C198.35 80.1645 192.729 78.0697 188.487 75.4162C184.247 72.7627 180.974 67.9597 180.974 67.9597L178.164 73.2719C178.164 73.2719 178.565 75.0967 178.675 76.6926C178.784 78.2867 179.748 81.0342 179.748 81.0342L178.88 81.9005C178.88 81.9005 178.767 82.7514 179.186 83.9953C179.605 85.2375 181.287 88.0414 184.5 90.3276C187.714 92.6171 190.326 89.7671 190.326 89.7671L189.304 94.6692C189.304 94.6692 176.026 92.7333 174.536 90.8897C173.043 89.0461 174.51 82.9428 174.228 80.4208C173.946 77.8955 170.89 74.8182 170.957 69.4906C171.024 64.1665 179.157 58.6493 184.96 55.3447C190.762 52.0385 197.531 53.8121 197.531 53.8121C197.531 53.8121 198.157 49.5849 201.722 46.969C205.286 44.353 208.036 46.8152 211.482 48.7562C214.929 50.6972 216.753 54.4221 215.622 59.7377C214.49 65.0533 209.029 64.9969 209.029 64.9969C209.029 64.9969 209.928 71.5308 210.409 76.5388C210.891 81.5468 211.569 85.2512 212.759 87.9782C213.949 90.7052 213.637 93.058 210.715 95.7406C207.794 98.4248 196.866 95.486 196.866 95.486L197.989 86.1909L198.35 80.1645Z" fill="white"/>
<path fill-rule="evenodd" clip-rule="evenodd" d="M200.543 81.2598C200.543 81.2598 194.922 79.1667 190.68 76.5115C186.44 73.8579 181.219 67.6914 181.219 67.6914L177.88 72.9421C177.88 72.9421 178.211 76.0655 178.321 77.6614C178.43 79.2555 178.762 81.8629 178.762 81.8629L179.331 84.3661C179.331 84.3661 179.791 85.3349 180.212 86.5805C180.63 87.8227 182.092 89.5518 185.524 90.6197C189.292 91.7936 190.328 89.7671 190.328 89.7671L189.694 95.0246C189.694 95.0246 178.49 94.0798 176.997 92.2361C175.505 90.3925 176.649 82.22 176.365 79.6981C176.083 77.1727 173.084 75.9134 173.151 70.5859C173.217 65.2617 181.35 59.7445 187.153 56.44C192.956 53.1338 199.724 54.9073 199.724 54.9073C199.724 54.9073 200.35 50.6801 203.915 48.0642C207.48 45.4483 210.229 47.9104 213.676 49.8514C214.934 52.1359 216.652 54.839 215.52 60.1563C214.389 65.4719 209.073 64.8585 209.073 64.8585C209.073 64.8585 210.104 73.2018 210.585 78.2116C211.067 83.2196 211.704 85.1247 212.896 87.8517C214.086 90.5787 215.832 94.1549 212.911 96.8392C209.991 99.5235 199.063 96.5846 199.063 96.5846L200.186 87.2896L200.543 81.2598Z" fill="#191919"/>
<path fill-rule="evenodd" clip-rule="evenodd" d="M160.757 133.462L176.854 137.601C176.854 137.601 177.712 142.347 177.162 145.568C176.609 148.787 175.577 151.135 175.577 151.135C175.577 151.135 180.773 153.655 184.009 153.38C187.244 153.107 190.882 149.947 194.127 145.618C197.374 141.286 208.473 121.816 210.786 117.17C213.1 112.525 211.858 107.026 209.357 103.689C206.852 100.35 202.771 99.2398 200.617 99.245C198.463 99.2518 196.649 101.186 194.69 102.871C192.728 104.555 187.931 106.563 184.315 105.987C180.701 105.41 181.068 103.411 180.841 100.829C180.613 98.2454 184.214 96.641 184.214 96.641C184.214 96.641 177.94 93.4715 171.08 97.8165C165.96 101.06 162.614 107.212 160.759 110.327C158.902 113.446 152.938 123.453 152.938 123.453L160.757 133.462Z" fill="white"/>
<path fill-rule="evenodd" clip-rule="evenodd" d="M145.426 136.883C146.575 136.369 148.748 136.528 148.748 136.528L150.281 140.152L143.383 138.877C143.381 138.877 144.277 137.399 145.426 136.883Z" fill="#D6D6D6"/>
<path fill-rule="evenodd" clip-rule="evenodd" d="M45.2374 209.552L41.1494 212.361L35.3228 212.105C35.3228 212.105 38.4584 213.425 40.9956 215.833C43.5328 218.24 46.1572 221.705 46.1572 221.705L56.889 222.269C56.889 222.269 57.8311 221.169 58.9338 219.306C60.0366 217.442 62.0506 215.935 62.0506 215.935L62.4079 211.799C62.4079 211.799 61.2847 209.376 54.1295 207.559C48.4653 206.123 45.4921 208.122 45.4921 208.122L45.2374 209.552Z" fill="#191919"/>
<path fill-rule="evenodd" clip-rule="evenodd" d="M27.6068 165.477C30.0824 167.521 38.3899 172.78 38.3899 172.78C38.3899 172.78 39.9235 172.467 43.1925 171.861C46.4631 171.254 49.1217 172.626 49.1217 172.626L52.0351 170.993C52.0351 170.993 49.397 171.432 44.5739 165.375C40.3834 160.116 42.4778 157.254 42.4778 157.254L41.2502 158.274L31.7973 157.407L30.3662 156.129C30.3662 156.129 28.4189 156.628 26.4322 157.202C24.4455 157.776 23.365 159.705 23.365 159.705C23.365 159.705 25.1294 163.434 27.6068 165.477Z" fill="#191919"/>
<path fill-rule="evenodd" clip-rule="evenodd" d="M177.673 152.956C177.673 152.956 174.805 174.67 162.087 179.973C152.174 184.11 141.389 179.36 141.389 179.36C141.389 179.36 134.434 178.921 123.81 177.062C113.186 175.205 91.6659 170.118 91.6659 170.118L63.1496 209.543C63.1496 209.543 61.4143 207.464 56.9656 205.049C52.5187 202.635 47.8187 204.998 47.8187 204.998L70.6621 159.953L54.054 169.197C54.054 169.197 50.8739 167.317 47.4101 163.733C43.9462 160.146 46.0303 155.051 46.0303 155.051C46.0303 155.051 72.871 134.652 82.9788 129.208C93.0849 123.764 98.8312 124.68 106.997 128.289C115.383 131.998 151.049 147.595 151.049 147.595L154.012 148.563L156.363 143.56L177.673 152.956Z" fill="white"/>
<path fill-rule="evenodd" clip-rule="evenodd" d="M164.195 115.371C163.595 118.792 166.648 121.958 166.648 121.958L160.211 132.581L161.489 134.06L181.316 138.248L188.572 125.584C188.572 125.584 188.408 120.337 186.784 118.076C185.158 115.815 183.424 113.849 178.76 113.888C174.096 113.926 171.504 118.025 171.504 118.025C171.504 118.025 171.225 114.833 169.204 112.253C167.182 109.675 165.985 111.028 165.985 111.028C165.985 111.028 164.797 111.949 164.195 115.371Z" fill="#191919"/>
<path fill-rule="evenodd" clip-rule="evenodd" d="M231.253 143.837C228.641 156.855 225.28 169.028 221.086 180.553C219.697 184.368 218.325 188.206 216.794 191.888C213.736 199.249 210.626 206.522 206.779 213.082C204.702 216.62 202.782 219.373 199.523 221.454C196.411 223.445 192.216 224.376 187.362 224.928C182.84 225.44 177.965 226.001 172.798 226.001C167.774 226.001 162.569 226.153 157.368 226.153C147.062 226.153 136.57 226.049 126.301 226.049C117.459 226.052 108.192 225.794 99.2196 225.794C97.9544 225.794 96.6071 225.854 95.3881 225.743C94.3452 225.649 93.2818 223.675 92.7312 222.936C90.6112 220.08 88.8707 217.024 87.7235 213.283C86.2292 208.412 85.8497 201.154 87.0071 195.922C88.1749 190.644 90.3974 186.2 93.0355 182.389C95.7334 178.495 99.4948 175.862 103.46 173.402C99.6897 172.625 95.9985 171.77 92.2183 171.003C82.5602 184.072 73.0679 197.313 63.4508 210.425C62.9447 214.958 62.3514 219.812 61.7137 224.468C61.5957 225.335 61.5821 226.141 61.0999 226.408C60.6468 226.66 59.1987 226.467 58.3405 226.459C53.6405 226.409 48.7969 226.271 44.2371 226.102C42.3991 226.033 40.7749 225.777 39.0772 225.49C35.7706 224.933 32.7359 224.25 29.6755 223.293C27.4974 222.614 25.5859 221.784 23.7993 220.485C23.2351 220.075 22.3084 219.505 22.3682 218.953C22.44 218.291 23.2436 217.475 23.6967 216.911C25.1687 215.067 26.8288 213.21 28.9609 212.161C30.5406 211.385 32.4384 211.228 34.5807 211.088C36.7622 210.944 39.0977 210.955 41.0707 211.088C41.3699 211.108 41.9427 210.572 42.2966 210.271C42.6847 209.938 43.03 209.598 43.319 209.352C44.0781 208.708 44.8885 208.24 45.4134 207.616C45.981 206.944 46.3982 205.69 46.8957 204.757C54.3774 190.741 61.6607 175.722 69.0723 162.067C60.5733 166.911 51.4538 172.179 42.6556 177.335C42.076 177.674 41.334 178.304 40.7664 178.304C40.1988 178.306 39.3097 177.562 38.7216 177.181C34.3156 174.33 29.7542 171.352 25.6919 168.295C23.206 166.424 21.0996 164.765 19.2548 162.168C18.0273 160.438 16.8527 158.439 15.6781 156.346C15.3653 155.788 14.6181 154.725 14.7087 154.099C14.8028 153.43 16.0064 152.999 16.651 152.669C18.6052 151.666 21.6091 150 24.3652 150.985C27.617 152.143 29.7097 154.665 32.1324 156.551C34.8747 156.681 38.1061 157.276 40.922 157.366C41.2622 157.378 41.9324 156.826 42.4539 156.447C52.8318 148.903 63.0763 141.5 73.5209 133.98C77.1507 131.364 80.7701 128.668 84.8649 126.729C89.2178 124.666 95.0564 123.831 100.603 124.941C103.044 125.432 105.157 126.513 107.399 127.443C118.377 131.998 128.893 136.9 139.591 141.742C140.976 140.76 142.279 139.697 143.985 139.034C143.923 139.313 143.763 139.543 143.831 139.904C143.901 140.27 144.164 140.396 144.24 140.618C143.641 140.789 143.118 141.156 142.605 141.488C142.114 141.804 141.545 142.086 141.277 142.508C145.216 144.29 149.44 146.164 153.539 148.075C154.158 148.362 155.325 148.854 154.664 149.655C154.269 150.135 153.342 149.684 152.824 149.452C137.107 142.388 121.812 135.067 105.662 128.362C104.448 127.858 103.28 127.354 102.034 126.932C100.739 126.491 99.3563 126.235 97.8432 126.066C90.9565 125.285 86.1078 127.571 81.9002 130.048C79.7819 131.294 77.8003 132.76 75.8701 134.132C65.9264 141.204 56.4632 148.114 46.5418 155.326C46.6666 157.182 46.6426 158.679 47.1556 160.075C48.6105 164.033 51.276 166.571 54.8715 168.449C60.1134 165.535 65.1434 162.409 70.4042 159.512C73.5739 153.435 76.6189 146.833 84.8136 145.826C87.0174 145.556 89.8794 145.578 92.326 145.879C92.6167 145.913 93.1826 146.082 93.2971 146.031C93.6134 145.891 93.3296 145.102 94.0135 145.011C94.5863 144.934 95.7146 145.987 96.2105 146.337C96.4567 146.513 96.7199 146.593 96.9268 146.745C97.1474 146.911 97.2773 147.188 97.4893 147.357C98.0946 147.849 98.8383 148.309 99.4811 148.787C108.327 155.352 117.028 161.963 126.052 168.293C129.659 170.825 133.226 173.412 137.088 175.647C138.991 176.747 141.224 177.689 143.373 178.608C145.551 179.539 147.859 180.401 150.323 180.855C159.083 182.473 165.433 177.48 169.331 172.787C170.764 171.063 171.985 169.245 172.908 167.17C174.761 162.996 175.979 158.262 176.996 152.873C170.518 150.448 163.911 147.733 157.476 145.11C156.825 144.845 156.189 144.514 155.536 144.293C154.838 144.058 154.147 143.899 153.491 143.631C152.038 143.032 151.302 142.286 150.579 141.076C149.926 139.986 149.341 138.776 148.688 137.553C147.567 137.534 146.778 137.382 145.879 137.553C144.412 137.836 143.703 139.203 142.251 138.983C141.145 138.814 140.995 137.491 140.718 136.379C139.921 136.061 139.328 135.901 139.032 135.308C138.329 133.9 138.233 130.759 138.929 129.281C139.174 128.762 139.842 128.336 139.849 127.954C139.858 127.373 139.273 125.837 139.083 125.146C137.276 118.589 135.52 112.248 133.667 105.639C133.414 104.731 133.087 103.845 132.849 102.881C132.608 101.904 132.576 100.825 132.441 99.7166C132.007 96.178 131.694 92.0072 131.93 88.0722C131.962 87.5374 131.853 87.0572 131.827 86.5395C131.721 84.3148 131.779 81.5332 132.798 80.4123C133.311 79.8467 134.186 79.4162 135.147 79.0864C136.416 78.6473 138.404 78.0151 138.878 79.4418C139.14 80.2312 139.09 81.4512 138.775 82.15C138.683 82.3533 138.493 82.5122 138.519 82.7104C139.509 82.4302 140.933 82.6045 141.586 83.1701C142.473 83.9407 142.918 85.8321 143.221 87.7646C143.535 89.7654 143.769 91.8192 143.578 93.5364C143.496 94.2728 143.024 94.7137 142.506 94.9153C141.181 95.4245 140.213 95.2006 138.519 95.527C138.519 95.5765 138.457 95.5663 138.418 95.5765C137.943 96.1951 137.517 99.0314 136.324 98.7444C135.39 98.5205 135.989 97.3228 136.272 96.7008C136.654 95.8619 136.89 95.0896 137.243 94.5565C137.662 93.9243 138.958 94.0012 139.9 93.8423C140.639 93.7175 141.268 93.6338 142.046 93.4834C142.104 92.7966 142.133 91.9662 142.046 91.2861C142.053 91.228 142.034 91.1956 141.995 91.1853C138.524 91.2127 136.264 92.3301 134.739 94.5035C134.294 95.1374 133.651 96.1489 133.615 96.9042C133.585 97.5312 133.786 98.3155 133.872 99.0485C133.952 99.7405 134.036 100.47 134.127 101.142C134.316 102.553 134.725 103.826 135.046 104.971C137.117 112.338 139.187 120.019 141.23 127.185C141.935 126.85 142.759 126.399 143.633 126.011C144.434 125.652 145.394 125.109 146.187 125.039C146.92 124.977 147.56 125.408 148.281 125.601C148.242 125.028 147.917 124.297 147.719 123.713C145.465 124.149 141.843 124.764 141.025 122.537C140.719 121.703 140.832 120.545 141.637 119.985C142.502 119.383 143.857 119.099 145.009 118.811C146.248 118.498 147.517 118.3 148.996 118.3C147.112 114.069 145.141 109.505 143.169 105.073C142.85 104.354 142.246 103.623 142.352 102.826C142.414 102.351 142.885 101.712 143.169 101.142C143.716 100.04 144.142 98.9511 144.6 97.5688C144.865 96.7657 144.915 96.0396 145.725 96.1387C147.026 96.2993 145.701 98.9699 145.469 99.6089C145.288 100.111 145.038 100.788 144.752 101.398C144.58 101.769 143.816 102.883 143.935 103.183C144.566 104.767 145.395 106.384 146.132 108.036C147.558 111.224 149.085 114.614 150.475 117.787C150.673 118.238 150.752 118.706 151.037 119.012C151.331 119.332 151.619 119.499 151.906 119.882C152.434 120.579 152.805 121.314 153.132 122.129C155.771 117.618 158.379 113.076 161.102 108.649C161.456 106.129 162.12 103.662 162.687 101.244C163.255 98.8195 163.805 96.3625 164.628 94.1464C166.249 89.7825 169.724 87.0675 173.161 84.5455C173.811 82.1107 173.38 79.7664 172.445 77.9587C171.583 76.291 170.29 74.8284 169.942 72.6978C169.547 70.2971 170.241 67.9836 171.116 66.3143C172.055 64.527 173.115 63.2985 174.489 61.923C176.972 59.4404 180.063 57.2567 183.534 55.437C186.962 53.6412 191.363 52.5545 196.463 53.3439C196.681 51.3243 197.495 49.9113 198.557 48.7477C200.597 46.5093 204.09 44.7084 208.164 46.0395C209.781 46.5674 211.157 47.4423 212.406 48.4384C214.926 50.458 216.972 52.9732 216.851 57.3251C216.796 59.3037 216.203 60.9201 215.268 62.3793C214.09 64.2195 212.645 65.7812 209.749 65.9554C210.704 70.9754 210.915 76.7387 211.487 82.1432C211.949 82.3619 212.491 82.3909 212.97 82.449C216.545 82.8864 220.002 83.6228 222.626 85.1025C230.062 89.3007 233.628 97.6747 234.685 108.236C234.897 110.355 235.039 112.675 235.093 114.978C235.093 115.453 235.093 115.93 235.093 116.407C234.704 126.279 232.996 135.157 231.253 143.837ZM197.938 53.6053C203.811 55.1739 207.518 58.9107 209.434 64.4313C212.036 64.3852 213.248 62.9226 214.237 61.1627C214.909 59.9649 215.355 58.4955 215.36 56.9748C215.374 53.9693 214.028 51.9292 212.243 50.3367C210.431 48.7203 208.371 47.268 205.804 47.0681C203.85 46.916 202.5 47.5499 201.205 48.4469C199.422 49.6874 198.28 51.0424 197.938 53.6053ZM188.945 93.5877C189.167 92.6701 189.319 91.6825 189.559 90.7804C188.661 90.9922 187.846 91.4929 186.647 91.4946C185.035 91.498 183.513 90.5941 182.303 89.7073C180.33 88.255 179.13 86.8898 178.369 84.3439C178.145 83.5972 177.717 82.3533 177.858 81.6391C177.964 81.1077 178.709 80.8343 179.237 80.414C180.202 79.6451 181.301 78.5738 181.231 76.8395C181.188 75.8041 180.128 75.0301 179.237 74.5944C178.516 74.2373 176.987 74.2526 176.886 73.4188C176.83 72.9421 177.329 72.2757 177.551 71.8366C178.295 70.3689 179.234 68.8943 180.106 67.7495C179.417 66.9823 178.535 65.9384 177.755 64.9935C177.48 64.6586 177.117 64.3032 177.141 63.9204C177.167 63.5257 177.507 63.2712 177.858 63.2575C178.41 63.2353 178.772 63.9017 179.135 64.3288C181.66 67.3087 184.048 70.0459 186.799 72.9096C188.306 74.4747 189.598 75.9254 192.01 76.9933C193.59 77.6921 195.375 78.3141 197.172 78.7823C197.813 78.948 198.567 78.9907 198.603 79.6485C198.685 81.1931 195.35 79.845 194.566 79.5973C192.243 78.8643 190.046 77.9467 188.536 76.6875C188.124 76.344 187.697 76.0194 187.311 75.6674C186.924 75.3154 186.637 74.8558 186.187 74.5944C185.526 74.2099 183.777 74.3962 183.683 73.5213C183.623 72.9575 183.922 72.7747 184.399 72.6516C183.667 71.7512 182.783 70.8524 181.947 69.8956C181.807 69.7367 181.289 68.9815 181.179 68.9763C181.036 68.9712 180.569 69.6991 180.465 69.846C179.795 70.7653 179.251 71.8229 178.779 72.8584C180.227 73.3334 181.547 74.0254 182.253 75.1565C183.125 76.5508 182.633 78.7173 181.793 80.0091C181.195 80.9283 180.246 81.4187 179.442 82.203C179.789 84.6651 180.591 86.0064 181.894 87.3101C182.923 88.3387 184.79 90.0354 186.75 89.9653C188.194 89.9141 189.559 89.0222 190.836 88.5352C191.453 88.2994 192.077 88.0465 192.778 87.7168C193.255 87.4946 195.267 86.2712 195.332 87.6672C195.373 88.5096 193.908 88.9026 193.493 89.099C192.643 89.4937 191.964 89.7449 191.193 90.0662C191.065 91.052 190.761 92.3899 190.477 93.6406C190.019 95.662 189.825 97.1314 188.382 98.1344C187.856 98.5017 186.278 99.4227 186.134 98.2369C186.062 97.6474 186.527 97.4765 186.748 97.2681C186.199 97.3621 185.59 97.1382 185.061 97.2681C184.799 97.3313 184.363 97.7158 183.987 97.9823C183.093 98.6196 181.667 99.6722 181.279 100.639C180.653 102.199 181.412 104.198 182.404 104.827C183.672 105.63 185.761 105.618 187.461 105.439C189.212 105.251 190.579 104.487 191.754 103.904C194.655 102.473 195.975 100.241 198.702 99.1561C197.627 98.6948 196.035 97.7055 195.84 96.2446C195.709 95.2416 196.02 93.9704 196.148 92.9264C196.435 90.5787 196.654 88.9863 197.015 86.5429C197.172 85.4818 197.153 83.9407 198.037 83.9389C199.287 83.9372 198.612 85.8014 198.446 86.9513C198.085 89.4647 197.704 92.2566 197.475 94.7137C199.923 95.216 202.404 95.8174 205.191 96.043C206.121 96.1165 207.164 96.1951 208.001 95.9917C209.19 95.703 210.28 94.835 211.016 94.0524C211.814 93.1998 212.896 91.8073 212.6 90.1191C212.323 88.5335 211.161 86.9598 210.609 85.4203C209.991 83.7049 209.867 81.7194 209.689 79.6519C209.342 75.5922 209.099 71.3958 208.463 67.4983C208.136 65.4992 207.736 63.9324 206.878 62.3912C206.066 60.9286 205.208 59.7035 204.016 58.5621C201.645 56.2828 198.266 54.8595 194.36 54.6288C187.729 54.241 183.164 57.0739 179.439 59.7872C177.604 61.1234 175.628 62.6458 174.125 64.5356C172.696 66.3331 171.193 68.6517 171.366 71.7871C171.52 74.5858 173.65 76.3047 174.534 78.936C175.037 80.4345 175.042 81.9877 174.84 83.4793C174.589 85.3452 173.676 88.6292 174.942 90.0662C175.551 90.7599 176.808 91.1375 177.905 91.498C181.256 92.5915 185.061 93.1075 188.945 93.5877ZM133.301 85.3161C133.48 85.3913 133.739 85.0427 133.964 84.8565C134.217 84.6515 134.504 84.4857 134.681 84.296C134.417 81.7006 138.097 83.047 137.491 80.1082C136.277 80.2636 134.527 80.7386 133.915 81.4341C133.166 82.2901 133.479 83.7202 133.301 85.3161ZM197.632 96.2959C197.343 96.3506 197.856 96.7726 197.991 96.9093C198.748 97.6747 200.015 97.9618 201.108 98.389C201.983 98.7324 202.828 98.8657 203.715 99.1049C208.648 100.431 212.257 104.164 212.86 109.88C213.081 111.976 212.927 114.293 212.4 115.954C211.889 117.57 210.988 119.072 210.253 120.448C205.678 129.03 200.511 137.131 195.129 145.165C194.213 146.53 193.387 147.885 192.421 149.095C191.462 150.296 190.183 151.289 188.844 152.158C187.509 153.028 185.929 153.722 184.04 153.997C182.026 154.291 180.143 153.785 178.42 153.283C176.938 161.332 175.107 168.097 170.807 173.352C168.776 175.833 166.476 178.142 163.499 179.886C160.605 181.586 156.867 182.882 152.412 182.642C149.27 182.477 146.554 181.54 144.084 180.549C143.646 180.375 143.272 180.158 142.858 180.038C142.412 179.912 141.92 179.895 141.376 179.837C137.373 179.401 133.2 178.899 129.009 178.354C121.986 177.443 115.387 175.932 108.623 174.523C107.645 174.318 106.609 173.899 105.814 173.911C105.501 173.916 105.472 174.082 105.098 174.318C103.408 175.393 101.514 176.426 99.9872 177.535C98.1253 178.89 96.3986 180.465 95.0821 182.183C92.3072 185.81 90.0538 190.136 88.7972 194.948C87.5047 199.9 87.5559 206.941 88.8997 212.005C90.0145 216.205 92.1824 219.809 94.6221 222.982C94.8957 223.339 95.436 224.128 95.7454 224.207C96.3028 224.354 97.2482 224.258 98.045 224.258C109.647 224.258 121.41 224.564 132.945 224.564C145.57 224.564 158.165 224.513 170.347 224.513C173.496 224.514 176.531 224.414 179.494 224.258C180.904 224.185 182.308 223.906 183.683 223.747C187.94 223.26 192.289 222.942 195.691 221.654C197.921 220.81 199.882 219.617 201.414 218.027C204.38 214.949 206.606 210.555 208.62 206.485C210.742 202.198 212.604 198.032 214.445 193.566C218.101 184.701 221.529 175.567 224.307 165.889C227.073 156.254 229.415 146.082 231.306 135.352C232.221 130.16 233.235 124.528 233.503 118.756C233.785 112.704 233.302 106.686 232.072 101.547C230.891 96.6068 228.779 92.4856 225.584 89.2904C224.042 87.7509 222.204 86.4062 219.911 85.5622C218.786 85.1504 217.545 84.8257 216.232 84.5421C214.905 84.255 213.401 83.8757 212.041 83.8279C211.592 83.8108 211.793 84.1713 211.888 84.4908C212.418 86.29 213.775 87.9064 214.084 89.803C214.514 92.4241 212.831 94.5052 211.53 95.6244C210.756 96.2907 209.867 96.8785 208.822 97.2595C207.697 97.6696 206.481 97.6406 204.991 97.5141C202.847 97.3381 200.14 96.8734 197.632 96.2959ZM133.455 88.2789C133.641 88.3387 133.951 88.0875 134.221 87.9201C136.016 86.818 138.444 86.0662 141.273 85.9295C141.005 85.0103 140.878 84.1696 139.791 84.091C137.621 83.9389 134.484 85.8731 133.709 87.3084C133.545 87.6142 133.516 88.0311 133.455 88.2789ZM172.85 86.695C172.807 86.6865 172.802 86.7155 172.798 86.748C170.16 88.648 167.729 90.8897 166.31 94.0507C165.589 95.6551 165.178 97.5346 164.725 99.3595C164.279 101.159 163.84 103.016 163.397 104.873C165.406 101.605 167.461 98.8845 170.704 97.0101C172.325 96.0738 174.115 95.3237 176.375 95.1203C177.557 95.0144 178.75 95.0998 179.954 95.2246C181.05 95.3373 182.128 95.6261 183.223 95.7337C184.476 95.8602 186.259 95.7491 187.668 95.7337C188.196 95.7303 188.545 95.7508 188.588 95.1733C186.292 94.7888 183.457 94.3702 180.769 93.7944C176.914 92.9674 172.768 92.2618 172.747 87.8722C172.747 87.4963 172.807 87.0418 172.85 86.695ZM133.352 93.6406C135.057 91.1392 137.796 89.6732 141.937 89.6065C141.82 88.8872 141.827 88.0482 141.579 87.4605C137.951 87.9047 134.388 88.4122 133.301 91.3938C133.262 92.1985 133.369 92.8564 133.352 93.6406ZM153.944 123.82C155.913 126.465 157.991 129.003 160.177 131.431C161.884 128.285 163.681 125.23 165.389 122.084C164.698 120.284 163.515 118.766 163.498 116.417C163.479 113.705 165.011 111.341 166.409 109.676C167.97 107.822 169.901 106.503 172.234 105.847C172.569 105.167 172.265 102.982 173.358 102.937C174.337 102.896 174.096 104.039 173.971 104.725C173.819 105.555 173.776 106.59 173.511 106.92C173.279 107.212 172.617 107.31 172.234 107.431C170.049 108.123 168.394 109.502 167.124 111.31C166.179 112.658 165.006 114.249 165.028 116.417C165.047 118.078 165.766 119.484 166.408 120.759C166.642 121.222 167.009 121.596 167.021 122.037C167.033 122.503 166.645 122.956 166.356 123.463C164.624 126.512 162.824 129.77 161.195 132.758C161.619 133.514 162.569 133.503 163.34 133.678C169.078 134.986 175.101 136.358 180.867 137.611C185.043 130.303 189.2 122.824 193.334 115.296C193.619 114.773 194.004 114.124 194.459 114.119C194.83 114.117 195.107 114.419 195.173 114.683C195.291 115.141 194.823 115.792 194.56 116.265C190.59 123.402 186.353 130.913 182.501 138.019C183.358 138.351 184.929 138.101 184.953 139.144C184.961 139.526 184.823 139.974 183.879 139.856C182.316 139.665 180.682 139.156 179.28 138.836C174.265 137.691 169.169 136.593 164.002 135.415C162.997 135.186 161.754 135.065 160.988 134.699C160.458 134.447 159.88 133.573 159.403 133.016C157.931 131.292 156.409 129.421 155.009 127.704C154.074 126.556 153.036 125.384 152.301 123.926C151.684 122.701 150.957 120.367 149.695 119.993C147.832 119.443 145.476 120.248 143.87 120.759C143.313 120.935 142.475 121.075 142.388 121.524C142.27 122.139 143.06 122.626 143.614 122.7C144.327 122.79 145.303 122.559 146.119 122.442C146.922 122.327 147.815 121.96 148.418 122.136C149.092 122.332 149.167 123.308 149.389 124.025C149.603 124.714 149.892 125.245 150.054 126.172C150.752 126.554 152.366 126.387 152.354 127.448C152.335 128.864 149.808 127.677 149.083 127.448C148.68 127.32 148.209 127.132 147.755 126.99C147.295 126.845 146.703 126.58 146.375 126.58C145.99 126.58 145.291 126.942 144.689 127.193C144.07 127.451 143.494 127.721 143.106 127.909C141.545 128.663 140.131 129.317 139.989 131.28C140.215 131.373 140.381 131.13 140.552 131.022C142.87 129.609 145.065 128.087 148.984 128.318C150.068 128.379 151.998 128.35 152.049 129.288C152.118 130.549 149.984 129.922 148.984 129.85C144.746 129.536 142.634 131.687 140.092 133.17C140.247 133.638 140.135 134.45 140.5 134.701C141.027 135.062 141.583 134.522 141.829 134.344C143.749 132.962 145.406 132.049 148.676 131.894C149.858 131.837 151.567 131.812 151.59 132.712C151.612 133.739 150.179 133.426 149.187 133.426C145.782 133.426 143.94 134.493 142.188 136.03C142.27 136.543 142.408 137.001 142.545 137.461C143.944 136.722 144.992 135.979 147.35 135.979C148.095 135.979 148.998 135.911 149.546 136.184C150.165 136.49 150.767 138.26 151.08 138.891C151.545 139.83 152.174 141.049 152.766 141.546C153.711 142.342 154.819 142.426 155.985 142.824C157.061 143.188 158.11 143.75 159.205 144.203C165.65 146.879 172.019 149.575 178.979 151.81C180.166 152.191 181.465 152.623 182.71 152.628C186.213 152.64 189.126 150.51 190.935 148.492C191.812 147.514 192.556 146.306 193.337 145.173C195.604 141.881 197.94 138.276 200.031 134.858C203.018 129.973 205.864 125.44 208.463 120.559C209.167 119.238 209.82 118.069 210.405 116.781C211.016 115.433 211.282 114.056 211.376 112.082C211.638 106.548 209 103.165 205.245 101.307C204.043 100.714 202.303 100.122 200.646 100.234C199.072 100.344 197.813 101.263 196.815 102.073C195.816 102.881 194.874 103.879 193.698 104.627C193.043 105.044 192.171 105.374 191.296 105.801C190.472 106.208 189.719 106.539 188.742 106.773C185.382 107.573 181.489 106.819 180.26 104.73C179.54 103.508 179.285 101.037 180.106 99.6226C180.718 98.565 181.612 98.0865 182.558 97.1229C181.173 96.9622 180 96.6854 178.623 96.612C174.383 96.3864 171.403 98.0626 169.068 100.034C166.691 102.039 165.206 104.996 163.6 107.54C160.212 112.902 156.973 118.508 153.944 123.82ZM49.1952 203.688C55.198 202.15 60.0245 205.396 63.4508 207.872C72.2421 195.9 80.9086 183.705 89.8162 171.668C90.3137 170.996 91.042 169.578 91.7071 169.421C92.3243 169.277 93.7143 169.745 94.5692 169.932C108.78 173.047 122.59 176.288 138.155 177.949C134.197 175.948 130.687 173.381 127.117 170.9C117.048 163.905 107.009 156.43 97.1235 148.996C96.6635 148.649 96.1814 148.076 95.7437 147.974C93.8682 147.538 91.0831 147.198 89.1015 147.106C85.1401 146.918 81.6814 147.875 79.3425 149.455C76.9404 151.078 75.4495 153.503 73.9774 156.143C71.0897 161.329 68.2892 166.733 65.5982 171.871C60.0194 182.521 54.6612 193.079 49.1952 203.688ZM16.4424 154.509C17.829 157.146 19.2001 159.558 20.8363 161.761C22.4776 163.97 24.6045 165.662 26.8665 167.328C31.3014 170.591 36.0886 173.643 40.7664 176.672C43.0488 175.415 45.2338 174.058 47.5112 172.792C45.5091 172.336 42.9873 172.466 41.175 172.944C40.4501 173.137 39.5816 173.552 38.9285 173.506C38.2241 173.457 37.1999 172.578 36.5263 172.177C34.2336 170.813 31.9015 169.392 29.8328 167.787C27.8598 166.255 26.0783 164.208 24.4165 162.12C23.9822 161.571 22.941 160.495 22.9341 159.924C22.9273 159.27 24.0027 158.357 24.4677 157.932C25.6457 156.854 26.8528 156.027 28.9147 155.888C29.0258 155.692 28.6121 155.545 28.4035 155.377C27.0408 154.292 25.2337 152.719 23.2932 152.264C23.1205 152.223 22.6264 152.191 22.3221 152.213C20.0584 152.374 18.123 153.647 16.4424 154.509ZM45.1073 156.399C44.5978 156.695 43.9652 157.202 43.3207 157.674C42.7753 158.074 42.0811 158.764 41.5323 158.899C40.9767 159.039 39.8295 158.827 39.0276 158.745C37.3538 158.578 35.7484 158.402 34.0199 158.236C33.1582 158.152 32.2315 158.202 31.5682 157.98C31.1954 157.857 30.9133 157.397 30.5971 157.318C30.0551 157.18 29.2071 157.346 28.7061 157.419C26.7417 157.706 25.7517 158.761 24.6695 159.922C26.5775 162.417 28.4531 164.804 31.057 166.764C33.1291 168.324 35.6014 169.843 38.0565 171.311C38.4258 171.529 38.8173 171.897 39.0789 171.922C39.3302 171.946 39.8688 171.724 40.2535 171.616C41.3015 171.321 42.5889 170.953 43.8815 170.952C45.9776 170.948 47.7078 171.259 49.7064 171.516C50.9152 170.783 52.1411 170.068 53.3857 169.371C51.2024 168.009 49.1593 166.574 47.7146 164.467C46.3281 162.451 45.0458 159.984 45.1073 156.555C45.1073 156.502 45.1073 156.449 45.1073 156.399ZM48.1745 205.574C47.6377 206.413 47.3265 207.686 46.6426 208.537C46.0443 209.277 44.9962 209.943 44.2405 210.58C43.9122 210.855 43.4626 211.219 43.0147 211.6C42.5889 211.963 42.1461 212.463 41.7871 212.573C40.9698 212.819 39.8808 212.419 39.0276 212.52C42.7394 214.394 44.5807 218.138 47.1521 221.15C50.3903 221.304 53.5499 221.533 56.8103 221.663C58.0481 219.443 59.2483 217.191 61.3068 215.79C61.7274 213.615 61.512 210.628 62.4814 209.101C59.3013 206.504 53.7208 203.322 48.1745 205.574ZM24.1583 218.802C27.3742 221.552 32.2965 222.633 37.3418 223.6C39.0122 223.923 40.7253 224.383 42.4009 224.519C45.3227 224.757 48.2874 224.646 51.2401 224.776C54.1637 224.904 57.0958 224.87 60.0792 224.979C60.4246 222.754 60.7016 220.461 60.9991 218.189C60.8999 218.086 60.628 218.389 60.4879 218.546C59.674 219.452 59.1252 220.665 58.4943 221.916C58.2686 222.365 57.9746 222.994 57.6258 223.141C57.0616 223.38 55.6631 223.141 54.8663 223.091C52.6574 222.949 51.435 222.925 49.2448 222.785C48.3421 222.727 47.159 222.821 46.4853 222.58C45.8801 222.363 45.3279 221.28 44.8492 220.641C44.3021 219.904 43.8182 219.284 43.3155 218.649C42.2983 217.36 41.1117 215.715 39.9936 214.869C38.619 213.832 36.6563 213.242 34.9346 212.624C34.4234 212.438 32.8744 212.73 32.1751 212.827C28.1317 213.391 26.2544 216.263 24.1583 218.802Z" fill="#191919"/>
<path fill-rule="evenodd" clip-rule="evenodd" d="M186.75 84.1423C186.17 84.0603 185.786 84.6002 185.421 84.959C185.203 85.1743 184.755 85.7228 184.296 85.8783C183.891 86.0167 182.725 85.8714 182.457 86.1858C182.291 86.3823 182.248 86.9513 182.457 87.2076C182.852 87.6946 184.538 87.4673 185.011 87.2606C185.433 87.0743 185.914 86.5891 186.34 86.1858C186.673 85.8714 187.413 85.4477 187.413 84.8582C187.413 84.4174 187.032 84.1816 186.75 84.1423Z" fill="#191919"/>
<path fill-rule="evenodd" clip-rule="evenodd" d="M179.379 78.1893L179.829 79.7612C180.018 80.4259 180.253 80.7232 180.909 80.5062C181.561 80.2926 182.248 79.317 182.06 78.6575L181.788 77.5041C181.598 76.8395 180.906 76.455 180.241 76.6447C179.574 76.8326 179.189 77.5246 179.379 78.1893Z" fill="#191919"/>
<path fill-rule="evenodd" clip-rule="evenodd" d="M186.789 77.2188L187.238 78.789C187.428 79.4537 188.121 79.8398 188.786 79.6502C189.451 79.4605 189.835 78.7651 189.646 78.1022L189.196 76.5302C189.006 75.8655 188.312 75.4811 187.649 75.6708C186.984 75.8621 186.599 76.5541 186.789 77.2188Z" fill="#191919"/>
<path d="M174.512 151.933C174.096 151.847 173.829 151.442 173.915 151.029C173.997 150.626 174.382 150.363 174.783 150.426C175.197 150.269 176.348 148.449 176.892 144.669C177.42 141.008 176.89 138.588 176.452 138.294C176.05 138.199 175.794 137.801 175.879 137.394C175.965 136.979 176.37 136.714 176.785 136.799C178.924 137.242 178.812 142.093 178.408 144.888C178.049 147.386 177.129 150.653 175.717 151.646C175.37 151.89 175.047 151.962 174.789 151.962C174.686 151.962 174.592 151.95 174.512 151.933Z" fill="#191919"/>
<path fill-rule="evenodd" clip-rule="evenodd" d="M207.275 79.6981C207.275 83.845 203.912 87.2059 199.764 87.2059C195.614 87.2059 192.251 83.845 192.251 79.6981C192.251 75.5512 195.614 72.1903 199.764 72.1903C203.912 72.1903 207.275 75.5512 207.275 79.6981Z" fill="#B5E6EB"/>
<path fill-rule="evenodd" clip-rule="evenodd" d="M185.743 54.2768C188.024 53.5045 191.539 53.4481 191.539 53.4481C191.539 53.4481 204.471 53.3166 204.161 63.3053C203.946 70.2236 202.137 73.6119 202.117 73.5692L199.612 73.2138C199.619 73.2172 202.036 67.442 200.352 62.2443C197.234 52.6195 180.925 56.9218 180.925 56.9218C180.925 56.9218 182.711 55.302 185.743 54.2768Z" fill="#B5E6EB"/>
<path fill-rule="evenodd" clip-rule="evenodd" d="M88.4055 131.268L87.8361 133.818C87.5831 134.956 88.5012 136.08 89.8878 136.331L152.59 147.748C153.976 148.001 155.306 147.287 155.559 146.152L156.13 143.6C156.383 142.465 155.465 141.341 154.079 141.088L91.3786 129.671C89.9886 129.42 88.6585 130.134 88.4055 131.268Z" fill="white"/>
<path d="M152.449 148.504L89.7476 137.086C88.7918 136.912 87.9644 136.391 87.4771 135.658C87.0719 135.048 86.9334 134.337 87.0856 133.652L87.6549 131.103C87.9968 129.573 89.7253 128.593 91.5103 128.919L154.21 140.336C155.166 140.511 155.995 141.032 156.483 141.766C156.886 142.376 157.026 143.087 156.874 143.769L156.305 146.322C156.007 147.653 154.658 148.567 153.137 148.567C152.911 148.567 152.68 148.546 152.449 148.504ZM89.1526 131.436L88.5833 133.985C88.5063 134.334 88.6346 134.626 88.756 134.81C89.0141 135.2 89.4757 135.48 90.0228 135.579L152.725 146.997C153.692 147.173 154.648 146.711 154.809 145.987L155.378 143.434C155.455 143.087 155.327 142.795 155.205 142.612C154.947 142.223 154.484 141.942 153.937 141.843L91.2367 130.426C91.0965 130.4 90.958 130.389 90.8213 130.389C90.0109 130.389 89.2911 130.817 89.1526 131.436Z" fill="#191919"/>
<path fill-rule="evenodd" clip-rule="evenodd" d="M77.5234 96.9537L83.9348 127.88C84.2494 129.401 85.7796 130.855 87.3491 131.125L130.856 138.614C132.426 138.884 134.85 136.449 134.534 134.928L128.119 104.012C127.802 102.491 126.272 101.037 124.703 100.767L81.1873 93.2767C79.6161 93.0084 77.2071 95.433 77.5234 96.9537Z" fill="white"/>
<path d="M130.726 139.369L87.2192 131.88C85.3368 131.555 83.5638 129.867 83.1842 128.036L76.7728 97.1092C76.5779 96.166 77.0515 94.9905 78.0431 93.967C78.8484 93.1349 80.1307 92.3181 81.3189 92.5232L124.834 100.014C126.717 100.339 128.49 102.027 128.871 103.858L135.286 134.775C135.481 135.716 135.005 136.89 134.012 137.917C133.289 138.665 132.181 139.402 131.104 139.402C130.977 139.4 130.851 139.39 130.726 139.369ZM81.0573 94.0319C80.5889 93.9499 79.7836 94.3719 79.1442 95.0315C78.5441 95.6517 78.1851 96.3796 78.2723 96.7982L84.6837 127.725C84.9367 128.941 86.2156 130.153 87.4773 130.37L130.984 137.859C131.458 137.942 132.265 137.515 132.908 136.851C133.61 136.124 133.853 135.426 133.781 135.084L127.366 104.169C127.113 102.953 125.833 101.741 124.571 101.524L81.0573 94.0319Z" fill="#191919"/>
<path fill-rule="evenodd" clip-rule="evenodd" d="M82.9773 129.21C93.0833 123.766 98.8297 124.682 106.995 128.29C115.381 132 151.048 147.596 151.048 147.596L154.01 148.565L154.976 148.492C155.677 148.885 155.96 148.198 156.674 148.567C157.302 148.891 157.936 149.206 158.58 149.496C160.394 150.316 162.22 151.125 164.094 151.801C164.713 152.023 165.342 152.222 165.982 152.37C166.3 152.445 166.623 152.51 166.948 152.56C167.211 152.601 167.476 152.642 167.743 152.681V161.773H69.7407L70.6623 159.955L67.3967 161.773H65.1262V140.997C71.8881 136.179 78.8364 131.438 82.9773 129.21Z" fill="white"/>
<path fill-rule="evenodd" clip-rule="evenodd" d="M114.32 161.773C108.553 157.566 102.813 153.274 97.1233 148.996C96.6634 148.649 96.1813 148.076 95.7436 147.974C93.8681 147.538 91.083 147.198 89.1014 147.106C85.14 146.918 81.6813 147.875 79.3424 149.455C76.9403 151.078 75.4494 153.503 73.9773 156.143C72.9447 157.998 71.9223 159.883 70.9118 161.773H66.4067C67.7283 161.009 69.0568 160.254 70.4006 159.514C73.5704 153.436 76.6154 146.834 84.81 145.828C87.0138 145.558 89.8759 145.58 92.3225 145.881C92.6131 145.915 93.179 146.084 93.2936 146.033C93.6099 145.893 93.3261 145.103 94.01 145.013C94.5827 144.936 95.7111 145.988 96.2069 146.339C96.4531 146.515 96.7164 146.595 96.9233 146.747C97.1439 146.913 97.2738 147.19 97.4858 147.359C98.091 147.851 98.8348 148.31 99.4776 148.789C105.325 153.127 111.107 157.486 116.959 161.771H114.32V161.773Z" fill="#191919"/>
<path fill-rule="evenodd" clip-rule="evenodd" d="M73.5175 133.982C77.1472 131.366 80.7666 128.67 84.8614 126.73C89.2143 124.668 95.0529 123.832 100.599 124.943C103.041 125.433 105.154 126.515 107.395 127.444C118.373 132 149.437 146.166 153.535 148.075C154.154 148.362 155.322 148.854 154.66 149.655C154.265 150.135 153.339 149.684 152.821 149.452C137.103 142.388 121.808 135.067 105.658 128.362C104.444 127.858 103.277 127.354 102.03 126.932C100.736 126.491 99.3528 126.235 97.8397 126.066C90.953 125.285 86.1043 127.571 81.8967 130.048C79.7784 131.294 77.7968 132.76 75.8666 134.132C72.2386 136.716 68.6722 139.273 65.1262 141.835V140.029C67.913 138.021 70.7084 136.005 73.5175 133.982Z" fill="#191919"/>
<path fill-rule="evenodd" clip-rule="evenodd" d="M151.443 76.8327L149.461 96.3847C149.461 97.0476 148.924 97.5842 148.261 97.5842H137.462C136.799 97.5842 136.262 97.0459 136.262 96.3847L134.282 76.8327C134.282 75.1753 136.028 75.6332 138.18 75.6332H147.541C149.695 75.6332 151.443 75.1753 151.443 76.8327Z" fill="#191919"/>
<path fill-rule="evenodd" clip-rule="evenodd" d="M151.442 83.2144L150.808 89.9636C150.808 90.1925 150.163 90.3788 149.37 90.3788H136.417C135.622 90.3788 134.98 90.1925 134.98 89.9636L134.285 83.2144C134.285 82.642 136.031 82.7992 138.184 82.7992H147.544C149.695 82.8009 151.442 82.6437 151.442 83.2144Z" fill="#F7F7F7"/>
<path d="M151.443 83.2144L150.808 89.9635C150.808 90.1925 150.164 90.3787 149.37 90.3787H136.418C135.623 90.3787 134.98 90.1925 134.98 89.9635L134.286 83.2144C134.286 82.642 136.031 82.7992 138.184 82.7992H147.544C149.695 82.8009 151.443 82.6437 151.443 83.2144Z" fill="white"/>
<path d="M134.952 89.967L134.258 83.2161C134.258 83.1409 134.287 83.0726 134.344 83.0179C134.634 82.7309 135.635 82.7463 137.021 82.7651C137.394 82.7702 137.779 82.7753 138.184 82.7753H147.544C147.95 82.7753 148.334 82.7702 148.707 82.7651C150.094 82.7445 151.095 82.7309 151.384 83.0179C151.441 83.0726 151.47 83.1409 151.47 83.2178L150.836 89.9636C150.836 90.2113 150.193 90.4044 149.372 90.4044H136.419C135.595 90.4044 134.952 90.2113 134.952 89.967ZM148.705 82.8146C148.333 82.8197 147.948 82.8249 147.543 82.8249H138.182C137.777 82.8249 137.392 82.8197 137.019 82.8146C135.698 82.7958 134.655 82.7804 134.38 83.0521C134.334 83.0982 134.31 83.1512 134.31 83.211L135.004 89.9619C135.004 90.1498 135.571 90.3514 136.416 90.3514H149.369C150.213 90.3514 150.781 90.1498 150.783 89.9602L151.417 83.2144C151.417 83.1512 151.395 83.0982 151.347 83.0521C151.138 82.8471 150.492 82.8061 149.618 82.8061C149.334 82.8061 149.028 82.8112 148.705 82.8146Z" fill="#191919"/>
<path d="M134.212 90.0149L133.521 83.2931C133.518 83.2674 133.518 83.2401 133.518 83.2145C133.518 82.9411 133.627 82.6831 133.824 82.4883C134.335 81.9842 135.293 81.9996 137.031 82.0235C137.395 82.0287 137.782 82.0338 138.184 82.0338H147.544C147.946 82.0338 148.332 82.0287 148.697 82.0235C150.435 81.9996 151.395 81.9859 151.906 82.4883C152.102 82.6831 152.212 82.9411 152.212 83.2145C152.212 83.2384 152.21 83.2623 152.208 83.2862L151.576 90.0114C151.542 90.7325 150.743 91.1443 149.372 91.1443H136.419C135.048 91.1443 134.248 90.7342 134.212 90.0149ZM150.637 83.5835C150.198 83.534 149.391 83.5459 148.715 83.5545C148.344 83.5596 147.951 83.5647 147.543 83.5647H138.182C137.773 83.5647 137.378 83.5596 137.009 83.5545C136.335 83.5442 135.534 83.534 135.092 83.5818L135.706 89.5433C135.865 89.5775 136.106 89.6099 136.418 89.6099H149.37C149.68 89.6099 149.921 89.5775 150.078 89.5433L150.637 83.5835Z" fill="#191919"/>
<path fill-rule="evenodd" clip-rule="evenodd" d="M135.696 73.7827L136.253 72.0638C136.253 71.6725 136.792 71.353 137.455 71.353H148.271C148.934 71.353 149.473 71.6725 149.473 72.0638L150.03 73.7827C150.03 74.7686 148.574 74.4969 146.773 74.4969H138.956C137.154 74.4969 135.696 74.7686 135.696 73.7827Z" fill="#D6D6D6"/>
<path fill-rule="evenodd" clip-rule="evenodd" d="M135.696 73.7827L136.254 72.0638C136.254 71.6726 136.792 71.353 137.456 71.353H148.271C148.935 71.353 149.473 71.6726 149.473 72.0638L150.031 73.7827C150.031 74.7686 148.574 74.497 146.773 74.497H138.957C137.155 74.497 135.696 74.7686 135.696 73.7827Z" fill="white"/>
<path d="M135.852 74.2612C135.729 74.1416 135.671 73.9861 135.671 73.7827L136.228 72.0604C136.231 71.6555 136.78 71.3274 137.456 71.3274H148.271C148.945 71.3274 149.494 71.6555 149.499 72.0604C149.499 72.0604 150.054 73.7742 150.056 73.7827C150.056 73.9861 149.996 74.1433 149.875 74.2612C149.533 74.5926 148.745 74.5704 147.746 74.5397C147.435 74.5311 147.114 74.5209 146.775 74.5209H138.958C138.62 74.5209 138.298 74.5311 137.987 74.5397C137.714 74.5482 137.457 74.5551 137.221 74.5551C136.587 74.5568 136.102 74.5021 135.852 74.2612ZM147.745 74.4901C148.731 74.5192 149.511 74.5431 149.837 74.2253C149.948 74.1176 150.003 73.9741 150.003 73.7862C150.003 73.7862 149.447 72.0724 149.446 72.0638C149.446 71.6862 148.919 71.377 148.269 71.377H137.454C136.806 71.377 136.278 71.6845 136.278 72.0638L135.72 73.7862C135.72 73.9724 135.775 74.1176 135.886 74.2253C136.213 74.5414 136.992 74.5192 137.979 74.4901C138.29 74.4816 138.613 74.4713 138.952 74.4713H146.768C147.11 74.4713 147.432 74.4799 147.745 74.4901Z" fill="#191919"/>
<path d="M135.337 74.7925C135.151 74.6131 134.93 74.2902 134.93 73.7827C134.93 73.7024 134.942 73.6221 134.968 73.5469L135.496 71.9169C135.588 71.1497 136.401 70.5875 137.455 70.5875H148.271C149.326 70.5875 150.136 71.1497 150.23 71.9169L150.759 73.5469C150.784 73.6238 150.796 73.7024 150.796 73.7827C150.796 74.2919 150.576 74.6131 150.389 74.7925C149.823 75.3427 148.895 75.3154 147.722 75.2812C147.423 75.2727 147.103 75.2624 146.773 75.2624H138.957C138.627 75.2624 138.307 75.2709 138.008 75.2812C137.732 75.2897 137.473 75.2966 137.226 75.2966C136.416 75.2966 135.771 75.2146 135.337 74.7925ZM147.765 73.7503C148.254 73.7656 148.895 73.7844 149.201 73.7229L148.739 72.3013C148.731 72.2723 148.722 72.2449 148.717 72.2159C148.642 72.1732 148.485 72.1202 148.268 72.1202H137.452C137.235 72.1202 137.078 72.1749 137.002 72.2159C136.997 72.2449 136.989 72.274 136.98 72.3013L136.519 73.7229C136.826 73.7844 137.467 73.7656 137.956 73.7503C138.271 73.7417 138.604 73.7315 138.951 73.7315H146.768C147.117 73.7297 147.452 73.74 147.765 73.7503Z" fill="#191919"/>
<path fill-rule="evenodd" clip-rule="evenodd" d="M132.603 77.7485L133.4 74.866C133.4 74.2048 134.169 73.6683 135.12 73.6683H150.603C151.552 73.6683 152.323 74.2031 152.323 74.866L153.12 77.7485C153.12 79.4042 151.032 78.948 148.457 78.948H137.266C134.691 78.948 132.603 79.4025 132.603 77.7485Z" fill="white"/>
<path d="M132.373 79.1274C132.017 78.7839 131.837 78.3209 131.837 77.7485C131.837 77.6802 131.846 77.6101 131.865 77.5452L132.639 74.7464C132.714 73.7041 133.778 72.9028 135.122 72.9028H150.605C151.949 72.9028 153.012 73.7041 153.087 74.7464L153.862 77.5452C153.881 77.6118 153.889 77.6802 153.889 77.7485C153.889 78.3209 153.71 78.7856 153.354 79.1274C152.615 79.8416 151.383 79.7989 149.824 79.7442C149.384 79.7288 148.931 79.7134 148.461 79.7134H137.269C136.799 79.7134 136.344 79.7288 135.906 79.7442C135.51 79.7579 135.135 79.7715 134.785 79.7715C133.751 79.7715 132.925 79.6588 132.373 79.1274ZM149.875 78.2133C150.829 78.2457 152.017 78.2867 152.287 78.0253C152.327 77.9877 152.344 77.9125 152.35 77.8373L151.585 75.0693C151.566 75.0027 151.557 74.9344 151.557 74.866C151.557 74.7413 151.222 74.4354 150.603 74.4354H135.12C134.501 74.4354 134.168 74.7413 134.168 74.866C134.168 74.9344 134.159 75.0044 134.14 75.0693L133.374 77.8373C133.381 77.9125 133.398 77.986 133.438 78.0253C133.71 78.2867 134.896 78.2457 135.85 78.2133C136.301 78.1979 136.768 78.1808 137.266 78.1808H148.457C148.955 78.1825 149.423 78.1979 149.875 78.2133Z" fill="#191919"/>
<path fill-rule="evenodd" clip-rule="evenodd" d="M145.098 99.2467C144.407 100.918 143.055 102.515 143.055 102.515L148.115 114.498H136.901C135.464 109.123 134.058 103.903 133.651 102.515C132.737 99.3902 132.549 92.5967 132.528 90.6659C132.508 88.7368 132.836 87.1956 132.836 87.1956C132.836 87.1956 131.967 85.147 132.579 83.1085C133.193 81.0718 135.033 79.8929 135.033 79.8929C135.033 79.8929 137.466 78.5379 137.792 79.382C138.119 80.2244 138.604 80.4943 138.098 81.0667C137.592 81.6374 135.036 82.9172 135.084 83.5699C135.132 84.2209 135.187 84.4891 135.187 84.4891C135.187 84.4891 139.931 80.7831 141.422 84.3883C142.911 87.9919 143.268 93.369 142.188 93.7842C141.106 94.2028 138.201 94.7564 138.201 94.7564L137.026 97.2066L145.867 96.747C145.865 96.7453 145.788 97.5774 145.098 99.2467Z" fill="#F7F7F7"/>
<path fill-rule="evenodd" clip-rule="evenodd" d="M137.228 95.9473H149.507L149.463 96.3848C149.463 97.0477 148.926 97.5842 148.262 97.5842H137.464C137.382 97.5842 137.303 97.5757 137.228 97.5603V95.9473Z" fill="#191919"/>
<path fill-rule="evenodd" clip-rule="evenodd" d="M144.746 101.403C144.573 101.774 143.809 102.888 143.928 103.188C144.559 104.772 145.388 106.389 146.125 108.041C147.066 110.148 148.05 112.338 149.013 114.498H147.305C145.944 111.402 144.551 108.207 143.161 105.078C142.841 104.359 142.237 103.628 142.343 102.831C142.405 102.356 142.877 101.717 143.161 101.147C143.708 100.045 144.133 98.9562 144.592 97.5739C144.857 96.7708 144.906 96.0447 145.717 96.1438C147.018 96.3044 145.693 98.975 145.46 99.614C145.281 100.116 145.031 100.791 144.746 101.403Z" fill="#191919"/>
<path fill-rule="evenodd" clip-rule="evenodd" d="M143.571 93.5398C143.762 91.8226 143.527 89.7688 143.214 87.768C142.911 85.8355 142.468 83.9423 141.579 83.1734C140.926 82.6079 139.502 82.4336 138.512 82.7138C138.485 82.5156 138.676 82.3567 138.768 82.1534C139.083 81.4545 139.133 80.2345 138.871 79.4451C138.397 78.0184 136.409 78.6523 135.14 79.0898C134.18 79.4195 133.302 79.8501 132.791 80.4157C131.772 81.5382 131.714 84.3182 131.82 86.5429C131.844 87.0606 131.955 87.539 131.923 88.0755C131.687 92.0105 132 96.1813 132.434 99.7199C132.571 100.829 132.603 101.907 132.843 102.884C133.08 103.848 133.407 104.735 133.66 105.642C134.499 108.634 135.318 111.573 136.132 114.5H137.684C136.806 111.311 135.923 108.116 135.04 104.976C134.718 103.831 134.309 102.556 134.12 101.147C134.031 100.477 133.945 99.7473 133.865 99.0536C133.779 98.3206 133.579 97.5363 133.609 96.9092C133.646 96.154 134.289 95.1408 134.732 94.5086C136.257 92.3352 138.515 91.2177 141.988 91.1904C142.027 91.2006 142.048 91.2331 142.039 91.2912C142.126 91.9712 142.097 92.8016 142.039 93.4885C141.261 93.6372 140.632 93.7209 139.893 93.8473C138.951 94.0062 137.655 93.9293 137.237 94.5615C136.883 95.0946 136.648 95.8669 136.265 96.7059C135.982 97.3278 135.383 98.5256 136.317 98.7494C137.51 99.0365 137.936 96.2001 138.411 95.5816C138.452 95.5696 138.512 95.5816 138.512 95.5321C140.206 95.204 141.174 95.4295 142.499 94.9204C143.017 94.717 143.489 94.2745 143.571 93.5398ZM134.681 84.296C134.504 84.4857 134.217 84.6514 133.964 84.8564C133.738 85.0427 133.479 85.3912 133.301 85.3161C133.479 83.7202 133.166 82.2883 133.915 81.434C134.527 80.7369 136.277 80.2619 137.491 80.1081C138.096 83.047 134.417 81.7006 134.681 84.296ZM141.273 85.9295C138.445 86.0679 136.016 86.818 134.221 87.92C133.949 88.0858 133.639 88.3387 133.455 88.2789C133.516 88.0311 133.545 87.6142 133.711 87.3083C134.486 85.8731 137.623 83.9372 139.793 84.091C140.878 84.1678 141.003 85.0102 141.273 85.9295ZM141.936 89.6065C137.796 89.6731 135.057 91.1391 133.352 93.6406C133.369 92.858 133.263 92.2002 133.301 91.3954C134.388 88.4138 137.951 87.9064 141.579 87.4621C141.827 88.0482 141.82 88.8871 141.936 89.6065Z" fill="#191919"/>
<path fill-rule="evenodd" clip-rule="evenodd" d="M232.399 157.407C232.399 157.407 239.754 152.068 241.802 141.934C244.524 128.471 237.497 94.1259 233.736 94.3565C229.337 94.6282 219.436 126.927 221.258 142.342C222.527 153.071 229.434 157.512 229.434 157.512L232.399 157.407Z" fill="#B5E6EB"/>
<path d="M229.019 158.156C228.725 157.966 221.792 153.394 220.496 142.433C218.866 128.649 226.642 100.885 231.612 94.9392C232.334 94.0763 233.013 93.6355 233.688 93.5945C234.225 93.5586 234.748 93.8337 235.244 94.4027C239.232 98.9802 245.116 129.408 242.553 142.088C240.47 152.396 233.16 157.804 232.848 158.029C232.506 158.277 232.028 158.202 231.778 157.86C231.529 157.518 231.604 157.04 231.946 156.79C232.018 156.739 239.087 151.487 241.048 141.783C242.433 134.928 241.182 122.795 239.549 113.726C238.644 108.706 237.536 104.053 236.427 100.624C234.851 95.7474 233.876 95.1784 233.76 95.1254C233.674 95.1408 233.353 95.2433 232.787 95.9217C230.513 98.6436 227.406 106.734 225.057 116.05C222.402 126.587 221.293 136.138 222.016 142.253C223.224 152.464 229.781 156.826 229.848 156.869C230.204 157.098 230.306 157.571 230.077 157.927C229.93 158.154 229.684 158.279 229.432 158.279C229.291 158.277 229.147 158.238 229.019 158.156Z" fill="#191919"/>
<path d="M227.642 207.459C227.222 207.418 226.914 207.042 226.955 206.621C226.996 206.21 231.048 165.2 231.246 139.238C231.339 127.022 231.826 109.748 232.039 109.046C232.163 108.641 232.592 108.414 232.997 108.537C233.383 108.655 233.609 109.051 233.52 109.439C233.375 110.476 232.879 126.054 232.78 139.25C232.581 165.281 228.523 206.36 228.482 206.772C228.442 207.167 228.109 207.462 227.719 207.462C227.693 207.462 227.668 207.462 227.642 207.459Z" fill="#191919"/>
<path fill-rule="evenodd" clip-rule="evenodd" d="M222.418 179.449C222.418 179.449 229.781 174.167 229.441 163.835C228.826 145.079 210.595 130.122 208.381 132.128C204.751 135.417 206.839 155.447 209.408 166.95C210.8 173.178 213.342 176.819 215.604 178.164C217.943 179.556 221.036 179.943 221.036 179.943L222.418 179.449Z" fill="#B5E6EB"/>
<path d="M220.94 180.703C220.807 180.686 217.659 180.281 215.211 178.822C212.325 177.106 209.938 172.84 208.659 167.116C206.31 156.596 203.665 135.367 207.864 131.559C208.422 131.053 209.316 131.057 210.52 131.566C213.165 132.685 217.952 136.555 222.216 142.409C225.697 147.186 229.908 154.778 230.203 163.808C230.554 174.427 223.177 179.844 222.862 180.069C222.522 180.313 222.046 180.238 221.799 179.902C221.8 179.946 221.799 179.99 221.793 180.037C221.744 180.424 221.414 180.708 221.034 180.708C221.005 180.71 220.973 180.708 220.94 180.703ZM208.871 132.719C205.977 135.451 207.201 153.551 210.157 166.784C211.891 174.543 215.066 176.952 215.998 177.508C218.164 178.798 221.103 179.181 221.132 179.184C221.349 179.211 221.532 179.326 221.651 179.488C221.64 179.237 221.751 178.984 221.97 178.827C222.04 178.776 228.996 173.67 228.673 163.861C228.225 150.205 218.157 138.368 211.916 134.115C210.208 132.951 209.277 132.712 208.955 132.712C208.919 132.711 208.892 132.714 208.871 132.719Z" fill="#191919"/>
<path d="M225.396 218.129C225.808 218.129 226.148 217.803 226.162 217.389C226.167 217.246 226.603 202.784 222.883 176.988C221.166 165.095 218.066 154.679 213.404 145.148C213.218 144.767 212.758 144.61 212.378 144.796C211.997 144.982 211.84 145.44 212.026 145.821C216.617 155.207 219.672 165.474 221.365 177.209C225.064 202.852 224.634 217.198 224.628 217.34C224.615 217.762 224.946 218.117 225.369 218.131C225.379 218.129 225.387 218.129 225.396 218.129Z" fill="#191919"/>
<path fill-rule="evenodd" clip-rule="evenodd" d="M240.022 181.643C240.022 181.643 245.172 183.22 252.939 170.005C259.899 158.163 258.559 127.426 256.952 126.814C255.345 126.202 243.553 136.283 236.791 155.96C229.314 177.713 237.887 180.705 237.887 180.705L240.022 181.643Z" fill="#B5E6EB"/>
<path d="M240.638 182.48C242.52 182.48 247.247 181.2 253.599 170.393C260.212 159.142 259.484 131.323 257.986 127.06C257.86 126.7 257.658 126.262 257.224 126.098C256.834 125.949 256.367 126.014 255.755 126.301C252.705 127.73 242.375 137.353 236.064 155.712C228.429 177.93 237.253 181.296 237.632 181.429C238.032 181.571 238.47 181.357 238.608 180.959C238.747 180.563 238.54 180.129 238.145 179.987C238.025 179.941 230.453 176.756 237.514 156.213C241.021 146.011 245.693 138.918 248.996 134.766C252.85 129.92 255.661 127.964 256.569 127.617C257.807 131.002 258.723 158.656 252.277 169.622C245.028 181.957 240.275 180.923 240.229 180.91C239.824 180.785 239.405 181.016 239.28 181.421C239.155 181.826 239.393 182.256 239.797 182.381C239.909 182.41 240.193 182.48 240.638 182.48Z" fill="#191919"/>
<path d="M231.337 216.825C231.693 216.825 232.012 216.576 232.086 216.215C232.135 215.978 237.066 192.277 240.05 180.348C243.03 168.438 249.367 150.082 249.431 149.9C249.569 149.5 249.357 149.064 248.957 148.926C248.557 148.787 248.121 148.999 247.983 149.399C247.919 149.583 241.559 168.004 238.564 179.977C235.572 191.936 230.636 215.667 230.586 215.904C230.501 216.318 230.766 216.725 231.181 216.81C231.233 216.82 231.286 216.825 231.337 216.825Z" fill="#191919"/>
<path fill-rule="evenodd" clip-rule="evenodd" d="M244.557 204.069L241.148 225.191C241.148 226.319 240.414 227.235 239.51 227.235H215.653C214.748 227.235 214.015 226.32 214.015 225.191L210.674 204.069C210.674 202.941 211.589 202.025 212.719 202.025H242.512C243.642 202.025 244.557 202.939 244.557 204.069Z" fill="#B5E6EB"/>
<path d="M213.248 225.254L209.916 204.188C209.909 204.149 209.908 204.108 209.908 204.069C209.908 202.519 211.169 201.26 212.718 201.26H242.512C244.063 201.26 245.323 202.521 245.323 204.069C245.323 204.11 245.319 204.151 245.312 204.19L241.912 225.256C241.883 226.775 240.816 228 239.508 228H215.651C214.344 228 213.278 226.775 213.248 225.254ZM242.512 202.792H212.718C212.031 202.792 211.469 203.337 211.441 204.016L214.77 225.071C214.777 225.111 214.779 225.15 214.779 225.191C214.779 225.883 215.179 226.467 215.651 226.467H239.508C239.98 226.467 240.378 225.883 240.378 225.191C240.378 225.15 240.382 225.109 240.388 225.07L243.786 204.016C243.76 203.336 243.199 202.792 242.512 202.792Z" fill="#191919"/>
<path d="M205.579 204.908C205.579 204.815 205.596 204.725 205.626 204.639L207.695 199.105C207.767 197.624 208.907 196.441 210.299 196.441H244.726C246.118 196.441 247.26 197.624 247.33 199.105L249.398 204.639C249.431 204.725 249.446 204.815 249.446 204.908C249.446 206.457 248.185 207.717 246.634 207.717H208.388C206.84 207.717 205.579 206.457 205.579 204.908ZM245.851 199.52C245.818 199.435 245.803 199.344 245.803 199.252C245.803 198.546 245.321 197.974 244.728 197.974H210.301C209.708 197.974 209.225 198.548 209.225 199.252C209.225 199.344 209.208 199.435 209.178 199.52L207.119 205.031C207.181 205.678 207.728 206.186 208.391 206.186H246.637C247.302 206.186 247.849 205.678 247.911 205.031L245.851 199.52Z" fill="#191919"/>
</svg>
