<svg width="480" height="664" viewBox="0 0 480 664" fill="none" xmlns="http://www.w3.org/2000/svg">
<rect width="480" height="664" fill="white"/>
<path d="M122.24 454.796C125.566 456.405 128.14 458.765 129.964 461.876C131.788 464.88 132.7 468.474 132.7 472.658C132.7 478.88 130.715 483.868 126.746 487.623C122.777 491.377 117.681 493.255 111.459 493.255C105.237 493.255 100.141 491.377 96.1721 487.623C92.2029 483.868 90.2183 478.88 90.2183 472.658C90.2183 469.868 90.5937 467.079 91.3447 464.29C92.0956 461.501 93.812 457.263 96.4939 451.578L107.758 427.602H130.286L122.24 454.796ZM168.905 454.796C172.231 456.405 174.806 458.765 176.629 461.876C178.453 464.88 179.365 468.474 179.365 472.658C179.365 478.88 177.38 483.868 173.411 487.623C169.442 491.377 164.346 493.255 158.124 493.255C151.902 493.255 146.806 491.377 142.837 487.623C138.868 483.868 136.883 478.88 136.883 472.658C136.883 469.868 137.259 467.079 138.01 464.29C138.761 461.501 140.477 457.263 143.159 451.578L154.423 427.602H176.951L168.905 454.796Z" fill="#F1F3F5"/>
<path d="M322.459 518.992C328.681 518.992 333.777 520.87 337.746 524.624C341.715 528.379 343.7 533.367 343.7 539.589C343.7 542.379 343.324 545.168 342.573 547.957C341.822 550.746 340.106 554.984 337.424 560.669L326.16 584.645H303.632L311.678 557.451C308.352 555.842 305.777 553.535 303.954 550.532C302.13 547.421 301.218 543.773 301.218 539.589C301.218 533.367 303.203 528.379 307.172 524.624C311.141 520.87 316.237 518.992 322.459 518.992ZM369.124 518.992C375.346 518.992 380.442 520.87 384.411 524.624C388.38 528.379 390.365 533.367 390.365 539.589C390.365 542.379 389.989 545.168 389.238 547.957C388.487 550.746 386.771 554.984 384.089 560.669L372.825 584.645H350.297L358.343 557.451C355.017 555.842 352.443 553.535 350.619 550.532C348.795 547.421 347.883 543.773 347.883 539.589C347.883 533.367 349.868 528.379 353.837 524.624C357.806 520.87 362.902 518.992 369.124 518.992Z" fill="#F1F3F5"/>
<path d="M357.452 206.904H142.449C141.869 206.904 141.399 206.434 141.399 205.855V81.0493C141.399 80.47 141.869 80 142.449 80H357.452C358.032 80 358.501 80.47 358.501 81.0493V205.857C358.501 206.434 358.032 206.904 357.452 206.904ZM143.498 204.808H356.403V82.0986H143.498V204.808Z" fill="#191919"/>
<path d="M262.285 87.2984H347.364V199.61H262.285V87.2984Z" fill="#8256E1"/>
<path d="M253.806 87.2984H152.729V199.61H253.806V87.2984Z" fill="#8256E1"/>
<path d="M347.365 200.659H262.286C261.706 200.659 261.236 200.189 261.236 199.61V87.2984C261.236 86.719 261.706 86.2491 262.286 86.2491H347.365C347.944 86.2491 348.414 86.719 348.414 87.2984V199.61C348.414 200.189 347.944 200.659 347.365 200.659ZM263.335 198.561H346.315V88.3476H263.335V198.561Z" fill="#191919"/>
<path d="M253.806 200.659H152.728C152.149 200.659 151.679 200.189 151.679 199.61V87.2984C151.679 86.719 152.149 86.2491 152.728 86.2491H253.806C254.385 86.2491 254.855 86.719 254.855 87.2984V199.61C254.853 200.189 254.385 200.659 253.806 200.659ZM153.778 198.561H252.757V88.3476H153.778V198.561V198.561Z" fill="#191919"/>
<path d="M253.8 111.608C248.302 113.986 244.451 119.459 244.451 125.832C244.451 125.913 244.454 125.994 244.456 126.077H239.628C232.871 126.077 227.394 131.555 227.394 138.314C227.394 145.072 232.871 150.551 239.628 150.551H253.8V111.608Z" fill="white"/>
<path d="M253.8 151.598H239.628C232.304 151.598 226.344 145.639 226.344 138.312C226.344 130.987 232.304 125.028 239.628 125.028H243.424C243.728 118.748 247.569 113.16 253.385 110.646C253.709 110.504 254.081 110.539 254.377 110.731C254.673 110.925 254.849 111.256 254.849 111.608V150.551C254.849 151.128 254.379 151.598 253.8 151.598ZM239.628 127.124C233.46 127.124 228.443 132.144 228.443 138.312C228.443 144.482 233.46 149.5 239.628 149.5H252.752V113.304C248.3 115.858 245.503 120.616 245.503 125.832L245.507 126.065C245.511 126.345 245.401 126.616 245.205 126.815C245.008 127.013 244.739 127.127 244.46 127.127H239.628V127.124Z" fill="#191919"/>
<path d="M319.384 127.684H313.461C313.374 121.453 308.296 116.429 302.043 116.429H289.654C286.824 112.73 282.366 110.346 277.35 110.346H262.059V150.551H319.384C325.69 150.551 330.803 145.436 330.803 139.128C330.805 132.796 325.69 127.684 319.384 127.684Z" fill="white"/>
<path d="M319.384 151.598H262.059C261.479 151.598 261.009 151.128 261.009 150.549V110.344C261.009 109.765 261.479 109.295 262.059 109.295H277.35C282.366 109.295 287.006 111.505 290.162 115.378H302.043C308.474 115.378 313.836 120.339 314.452 126.632H319.382C326.257 126.632 331.85 132.225 331.85 139.1C331.852 146.003 326.259 151.598 319.384 151.598ZM263.108 149.5H319.384C325.103 149.5 329.755 144.847 329.755 139.126C329.755 133.382 325.103 128.731 319.384 128.731H313.461C312.888 128.731 312.42 128.271 312.412 127.698C312.333 122.062 307.68 117.476 302.043 117.476H289.654C289.328 117.476 289.02 117.324 288.821 117.065C286.062 113.462 281.882 111.393 277.35 111.393H263.108V149.5V149.5Z" fill="#191919"/>
<path d="M133.227 293.371H342.776C346.387 293.371 349.312 296.296 349.312 299.908C349.312 303.517 346.385 306.444 342.776 306.444H133.227C129.616 306.444 126.688 303.517 126.688 299.908C126.688 296.296 129.616 293.371 133.227 293.371Z" fill="white"/>
<path d="M342.774 307.492H133.228C129.045 307.492 125.64 304.088 125.64 299.906C125.64 295.723 129.043 292.322 133.228 292.322H342.776C346.959 292.322 350.362 295.725 350.362 299.906C350.362 304.088 346.959 307.492 342.774 307.492ZM133.228 294.418C130.201 294.418 127.738 296.879 127.738 299.906C127.738 302.932 130.201 305.393 133.228 305.393H342.776C345.802 305.393 348.266 302.932 348.266 299.906C348.266 296.879 345.804 294.418 342.776 294.418H133.228Z" fill="#191919"/>
<path d="M198.478 163.934C199.031 162.589 199.336 161.119 199.336 159.577C199.336 153.243 194.203 148.108 187.869 148.108H155.216C150.312 148.108 146.127 151.189 144.488 155.52H132.865C127.064 155.52 122.273 159.847 121.542 165.448H117.203C110.895 165.448 105.782 170.562 105.782 176.87C105.782 183.2 110.895 188.315 117.203 188.315H154.096H162.954H196.958C203.716 188.315 209.193 182.836 209.193 176.078C209.193 169.833 204.518 164.682 198.478 163.934Z" fill="white"/>
<path d="M196.958 189.362H117.203C110.328 189.362 104.733 183.767 104.733 176.892C104.733 169.993 110.326 164.398 117.203 164.398H120.654C121.839 158.678 126.934 154.471 132.863 154.471H143.783C145.783 150.008 150.286 147.059 155.212 147.059H187.865C194.767 147.059 200.382 152.674 200.382 159.575C200.382 160.783 200.211 161.968 199.873 163.112C205.865 164.453 210.238 169.815 210.238 176.076C210.242 183.403 204.283 189.362 196.958 189.362ZM117.203 166.497C111.484 166.497 106.831 171.15 106.831 176.87C106.831 182.613 111.484 187.266 117.203 187.266H196.958C203.126 187.266 208.144 182.246 208.144 176.078C208.144 170.441 203.933 165.666 198.348 164.976C198.024 164.935 197.736 164.747 197.572 164.463C197.406 164.182 197.384 163.837 197.507 163.535C198.024 162.275 198.287 160.943 198.287 159.577C198.287 153.833 193.614 149.157 187.869 149.157H155.216C150.911 149.157 146.994 151.864 145.469 155.893C145.315 156.3 144.924 156.569 144.488 156.569H132.865C127.673 156.569 123.251 160.444 122.581 165.583C122.512 166.106 122.068 166.497 121.542 166.497H117.203V166.497Z" fill="#191919"/>
<path d="M187.505 234.06C182.335 237.805 180.358 243.897 183.091 247.66C185.823 251.428 192.228 251.442 197.398 247.695C202.567 243.947 207.619 236.503 204.889 232.737C202.158 228.974 192.676 230.311 187.505 234.06Z" fill="#B5E6EB"/>
<path d="M189.358 251.545C186.283 251.537 183.767 250.377 182.244 248.276C180.721 246.177 180.399 243.425 181.339 240.53C182.24 237.751 184.213 235.152 186.891 233.211C192.561 229.097 202.574 227.76 205.74 232.124C207.235 234.184 206.981 237.242 205.025 240.737C203.414 243.613 200.795 246.532 198.016 248.545C195.346 250.48 192.271 251.545 189.358 251.545ZM198.765 231.538C195.354 231.538 191.129 232.729 188.121 234.911C185.799 236.594 184.098 238.82 183.332 241.178C182.605 243.421 182.819 245.503 183.94 247.046C185.06 248.59 186.974 249.445 189.334 249.449C191.834 249.449 194.469 248.525 196.784 246.848C199.29 245.031 201.745 242.296 203.193 239.712C204.083 238.125 205.373 235.19 204.042 233.355C203.145 232.122 201.154 231.538 198.765 231.538Z" fill="#191919"/>
<path d="M165.194 225.224C171.022 227.831 174.212 233.386 172.316 237.635C170.42 241.885 164.161 243.222 158.333 240.617C152.506 238.01 144.942 231.066 146.838 226.816C148.732 222.567 159.367 222.623 165.194 225.224Z" fill="#B5E6EB"/>
<path d="M164.334 242.999C162.221 242.999 160.011 242.517 157.906 241.575C152.437 239.128 143.486 231.759 145.88 226.389C146.919 224.057 149.976 222.642 154.487 222.403C158.325 222.196 162.593 222.913 165.624 224.264C171.97 227.102 175.404 233.29 173.277 238.061C172.219 240.431 169.999 242.086 167.022 242.72C166.153 242.908 165.251 242.999 164.334 242.999ZM155.818 224.467C155.407 224.467 154.999 224.477 154.596 224.499C151.019 224.689 148.477 225.714 147.794 227.244C146.356 230.471 152.753 236.975 158.761 239.661C161.378 240.83 164.153 241.19 166.58 240.672C168.885 240.18 170.581 238.95 171.358 237.21C173.013 233.495 170.056 228.548 164.765 226.182C162.334 225.097 159 224.467 155.818 224.467Z" fill="#191919"/>
<path d="M168.966 181.507C170.909 187.586 176.08 191.366 180.514 189.954C184.948 188.542 186.97 182.467 185.027 176.392C183.085 170.315 176.451 164.123 172.015 165.533C167.58 166.947 167.023 175.428 168.966 181.507Z" fill="#B5E6EB"/>
<path d="M178.624 191.295C174.253 191.295 169.776 187.483 167.968 181.827C166.934 178.594 166.596 174.778 167.062 171.618C167.621 167.824 169.268 165.308 171.697 164.532C176.807 162.907 183.968 169.631 186.028 176.07C187.25 179.888 187.057 183.806 185.502 186.818C184.432 188.89 182.818 190.32 180.834 190.95C180.109 191.183 179.368 191.295 178.624 191.295ZM169.965 181.187C171.729 186.705 176.319 190.189 180.196 188.953C181.639 188.493 182.828 187.424 183.636 185.856C184.918 183.37 185.066 179.951 184.029 176.708C182.143 170.814 175.912 165.391 172.333 166.529C170.141 167.228 169.39 170.208 169.136 171.922C168.715 174.782 169.025 178.246 169.965 181.187Z" fill="#191919"/>
<path d="M182.175 284.195C181.713 284.195 181.29 283.887 181.162 283.419C180.996 282.799 177.068 268.184 175.938 262.794C174.721 256.988 174.755 250.974 176.05 243.293C177.232 236.266 176.384 231.431 174.69 221.797C174.53 220.891 174.364 219.943 174.192 218.951C172.655 210.105 173.222 208.638 175.097 203.777C175.721 202.16 176.497 200.149 177.405 197.317C180.846 186.571 175.486 175.756 175.432 175.647C175.17 175.13 175.379 174.498 175.896 174.237C176.412 173.976 177.044 174.182 177.305 174.701C177.544 175.173 183.105 186.401 179.404 197.955C178.478 200.846 177.69 202.89 177.056 204.53C175.251 209.205 174.824 210.316 176.26 218.588C176.432 219.579 176.598 220.525 176.756 221.43C178.438 230.989 179.361 236.254 178.12 243.637C176.87 251.047 176.831 256.822 177.992 262.36C179.108 267.694 183.147 282.72 183.188 282.872C183.338 283.431 183.008 284.006 182.448 284.158C182.357 284.185 182.264 284.195 182.175 284.195Z" fill="#191919"/>
<path d="M182.501 203.951C178.533 208.948 178.272 215.349 181.916 218.244C185.56 221.143 191.73 219.437 195.696 214.436C199.665 209.438 201.751 200.499 198.107 197.603C194.465 194.708 186.47 198.952 182.501 203.951Z" fill="#B5E6EB"/>
<path d="M186.172 220.707C184.306 220.707 182.627 220.148 181.266 219.066C177.174 215.815 177.36 208.742 181.683 203.301C183.772 200.667 186.881 198.261 190 196.861C193.653 195.222 196.764 195.194 198.763 196.784C202.938 200.102 200.951 209.511 196.521 215.09C194.027 218.232 190.667 220.255 187.298 220.642C186.915 220.685 186.539 220.707 186.172 220.707ZM195.064 197.71C193.867 197.71 192.431 198.066 190.855 198.773C188.07 200.023 185.185 202.258 183.322 204.603C179.718 209.141 179.382 214.891 182.568 217.423C183.753 218.365 185.305 218.756 187.055 218.558C189.834 218.24 192.757 216.455 194.874 213.785C198.575 209.124 200.491 200.838 197.455 198.425C196.857 197.947 196.041 197.71 195.064 197.71Z" fill="#191919"/>
<path d="M155.814 209.572C160.444 213.962 166.801 214.786 170.007 211.415C173.214 208.043 172.059 201.749 167.429 197.359C162.796 192.97 153.968 190.533 150.762 193.908C147.553 197.278 151.181 205.18 155.814 209.572Z" fill="#B5E6EB"/>
<path d="M164.747 214.523C161.558 214.523 157.995 213.087 155.09 210.334C151.309 206.75 148.596 201.52 148.495 197.617C148.446 195.775 148.953 194.285 150 193.185C153.711 189.279 163.082 191.797 168.148 196.598C171.059 199.357 172.778 202.883 172.865 206.272C172.926 208.602 172.199 210.629 170.765 212.139C169.239 213.743 167.096 214.523 164.747 214.523ZM155.348 193.383C153.705 193.383 152.331 193.776 151.521 194.629C150.873 195.312 150.561 196.298 150.593 197.562C150.681 200.9 153.178 205.63 156.535 208.81C160.74 212.797 166.442 213.642 169.248 210.692C170.291 209.596 170.817 208.087 170.771 206.327C170.698 203.534 169.179 200.465 166.705 198.121C163.606 195.182 158.862 193.383 155.348 193.383Z" fill="#191919"/>
<path d="M177.247 242.628C176.876 242.628 176.518 242.432 176.327 242.086C176.317 242.069 174.855 239.604 169.157 235.96C163.339 232.237 156.932 231.388 156.867 231.382C156.292 231.309 155.887 230.785 155.96 230.209C156.033 229.634 156.561 229.231 157.133 229.3C157.414 229.336 164.076 230.217 170.287 234.194C176.526 238.184 178.102 240.957 178.165 241.075C178.444 241.581 178.26 242.219 177.754 242.499C177.591 242.586 177.417 242.628 177.247 242.628Z" fill="#191919"/>
<path d="M157.877 200.453C157.877 200.453 161.323 203.394 166.205 207.145C171.089 210.891 174.591 214.713 174.591 214.713L157.877 200.453Z" fill="white"/>
<path d="M174.591 215.762C174.308 215.762 174.024 215.649 173.817 215.422C173.783 215.386 170.313 211.618 165.567 207.978C160.718 204.253 157.231 201.281 157.197 201.251C156.757 200.874 156.705 200.212 157.08 199.772C157.454 199.332 158.117 199.28 158.558 199.655C158.593 199.683 162.042 202.624 166.845 206.313C171.745 210.07 175.219 213.846 175.365 214.004C175.756 214.432 175.728 215.094 175.3 215.487C175.1 215.671 174.844 215.762 174.591 215.762Z" fill="#191919"/>
<path d="M176.706 226.782C176.564 226.782 176.422 226.754 176.285 226.693C175.754 226.46 175.515 225.84 175.748 225.311C175.894 224.981 179.353 217.184 183.522 213.415C187.45 209.864 189.889 206.773 189.911 206.74C190.268 206.284 190.928 206.206 191.384 206.562C191.84 206.919 191.919 207.579 191.562 208.035C191.459 208.166 188.998 211.29 184.928 214.97C181.089 218.44 177.701 226.079 177.668 226.156C177.494 226.549 177.109 226.782 176.706 226.782Z" fill="#191919"/>
<path d="M176.341 254.42C176.129 254.42 175.916 254.355 175.732 254.223C175.262 253.885 175.152 253.231 175.491 252.761C175.675 252.504 180.071 246.427 185.983 243.06C191.759 239.772 194.809 238.523 194.937 238.472C195.472 238.255 196.083 238.512 196.302 239.049C196.521 239.586 196.262 240.198 195.727 240.415C195.696 240.427 192.658 241.674 187.023 244.881C181.517 248.015 177.241 253.921 177.198 253.98C176.99 254.268 176.668 254.42 176.341 254.42Z" fill="#191919"/>
<path d="M190.264 297.252H160.47C159.306 297.647 158.392 293.993 157.872 291.25C157.351 288.503 155.404 276.643 155.404 276.643C155.404 272.428 156.5 269.008 157.849 269.008H192.883C194.232 269.008 195.328 272.428 195.328 276.643L192.98 289.923C192.226 293.057 191.412 297.252 190.264 297.252Z" fill="white"/>
<path d="M160.296 298.33C160.013 298.33 159.729 298.253 159.468 298.101C158.71 297.657 157.805 296.521 156.84 291.446C156.324 288.718 154.448 277.299 154.369 276.813C154.359 276.756 154.355 276.7 154.355 276.643C154.355 272.32 155.435 267.959 157.849 267.959H192.883C195.297 267.959 196.377 272.32 196.377 276.643C196.377 276.704 196.371 276.765 196.361 276.825L194.013 290.105C193.908 290.553 193.812 290.956 193.717 291.363C192.684 295.791 192.016 298.299 190.261 298.299H160.596C160.499 298.319 160.397 298.33 160.296 298.33ZM156.454 276.558C156.63 277.634 158.412 288.473 158.903 291.053C159.614 294.797 160.235 295.907 160.458 296.201C160.47 296.201 190.055 296.201 190.055 296.201C190.6 295.51 191.295 292.526 191.675 290.887C191.769 290.484 191.862 290.089 191.953 289.708L194.278 276.552C194.264 272.513 193.272 270.341 192.828 270.058H157.904C157.458 270.341 156.468 272.515 156.454 276.558Z" fill="#191919"/>
<path d="M196.381 260.274L154.813 260.42C153.186 260.225 152.125 262.071 151.568 263.426C150.98 264.85 149.157 270.226 149.157 270.226C149.406 272.071 150.978 273.528 152.676 273.528L197.197 273.522C198.935 273.522 200.7 272.041 201.149 270.173L199.413 263.944C198.7 262.397 198.001 260.266 196.381 260.274Z" fill="white"/>
<path d="M152.672 274.575C150.436 274.575 148.434 272.726 148.114 270.364C148.092 270.204 148.108 270.04 148.161 269.886C148.236 269.665 150.002 264.461 150.596 263.023C151.922 259.804 153.636 259.243 154.866 259.368L196.377 259.223C198.49 259.223 199.424 261.362 200.106 262.923C200.193 263.122 200.279 263.318 200.364 263.505C200.386 263.555 200.406 263.606 200.42 263.661L202.156 269.89C202.205 270.062 202.207 270.242 202.166 270.416C201.607 272.744 199.422 274.569 197.193 274.569L152.672 274.575ZM150.233 270.307C150.5 271.522 151.552 272.476 152.672 272.476L197.193 272.472C198.376 272.472 199.634 271.441 200.058 270.171L198.423 264.305C198.344 264.131 198.265 263.95 198.184 263.766C197.708 262.676 197.116 261.323 196.387 261.323C196.383 261.323 154.815 261.469 154.815 261.469C154.77 261.471 154.73 261.467 154.687 261.461C153.677 261.348 152.844 263.073 152.536 263.825C152.038 265.028 150.602 269.229 150.233 270.307Z" fill="#191919"/>
<path fill-rule="evenodd" clip-rule="evenodd" d="M282.637 159.237C282.637 159.237 276.27 156.393 275.576 153.294C274.877 150.194 275.266 145.371 281.029 143.785C286.792 142.199 293.899 141.409 298.927 143.297C303.957 145.179 310.255 149.307 310.255 149.307C310.255 149.307 321.507 143.319 325.078 148.679C328.647 154.039 326.571 157.896 331.51 161.824C336.448 165.751 340.556 172.319 340.459 177.763C340.362 183.21 334.145 188.86 326.125 187.693C318.106 186.526 317.132 183.684 315.776 181.89C314.421 180.097 313.609 175.108 313.609 175.108C313.609 175.108 311.45 176.113 309.134 176.576C306.819 177.038 304.172 176.994 304.172 176.994C304.172 176.994 308.282 188.153 309.276 188.672C310.269 189.188 320.273 189.358 323.19 191.329C326.107 193.294 328.155 195.733 328.155 195.733L331.862 195.032L336.406 199.507L339.551 199.436L338.293 215.517C338.293 215.517 345.928 227.953 349.341 236.005C352.754 244.057 351.865 249.842 348.782 252.435C345.699 255.029 343.919 255.712 339.833 255.372C335.747 255.029 317.243 253.502 315.013 252.854C312.781 252.206 310.467 248.938 310.467 248.938L308.369 279.564C308.369 279.564 305.794 290.13 297.742 291.661C289.692 293.188 280.753 292.149 280.753 292.149C280.753 292.149 279.068 295.21 273.27 295.366C267.475 295.52 262.869 295.86 261.175 294.945C259.48 294.031 258.029 292.22 258.029 292.22L226.845 291.171L220.342 347.875L222.02 357.243C222.02 357.243 223.383 361.985 224.327 366.614C225.271 371.24 224.817 375.843 224.817 375.843C224.817 375.843 197.866 391.019 189.996 390.314C182.129 389.613 179.896 389.02 178.74 385.631C177.583 382.244 177.21 379.398 181.746 375.843C186.283 372.288 191.117 370.947 191.117 370.947L198.808 357.383L200.556 345.428L196.991 297.185C196.991 297.185 182.51 319.714 181.468 320.399C180.429 321.082 179.258 322.404 177.415 321.586C175.57 320.768 150.729 304.945 146.65 300.471C142.572 295.996 140.747 291.785 145.461 287.814C150.174 283.848 153.899 284.15 156.857 285.997C159.812 287.845 165.877 291.663 165.877 291.663L176.295 289.844C176.295 289.844 199.227 241.298 200.487 239.225C201.747 237.147 209.519 229.604 221.112 232.162C232.707 234.718 241.879 240.133 241.879 240.133C241.879 240.133 247.184 235.49 249.36 236.288C251.535 237.086 258.953 240.799 258.38 240.903C257.807 241.006 250.828 221.675 250.828 221.675C250.828 221.675 235.235 220.652 233.489 219.648C231.743 218.641 231.042 216.22 231.042 216.22C231.042 216.22 229.869 216.174 228.455 214.193C227.039 212.214 226.148 208.249 226.148 208.249C226.148 208.249 224.13 208.476 223.353 207.131C222.573 205.786 221.509 201.964 227.057 202.308C232.606 202.65 241.393 203.985 241.393 203.985C241.393 203.985 240.344 203.009 243.489 201.889C246.637 200.773 248.874 199.507 250.342 199.513C251.809 199.517 258.025 200.491 259.711 204.897C261.396 209.303 262.229 212.449 262.229 212.449L269.361 228.739C269.361 228.739 275.713 200.771 276.704 198.883C277.692 196.995 280.354 191.917 286.354 190.772C292.35 189.628 297.066 188.965 296.981 188.396C296.895 187.827 292.714 180.423 292.714 180.423C292.714 180.423 286.437 181.663 283.555 175.179C280.672 168.697 283.218 166.193 283.761 164.73C284.359 163.12 284.095 162.624 284.114 162.664L282.637 159.237Z" fill="white"/>
<path fill-rule="evenodd" clip-rule="evenodd" d="M178.612 321.211C179.743 321.306 178.756 318.614 176.793 317.504C174.83 316.394 163.306 308.049 158.963 302.472C154.621 296.893 150.051 292.542 147.077 292.052C144.103 291.562 142.078 292.941 143.441 295.271C144.804 297.596 162.956 312.167 168.474 316.386C173.99 320.604 177.482 321.112 178.612 321.211Z" fill="#191919"/>
<path fill-rule="evenodd" clip-rule="evenodd" d="M261.704 259.362C261.704 259.362 269.116 263.513 270.514 271.599C271.911 279.686 272.671 285.752 270.023 289.008C267.376 292.267 264.779 292.575 264.779 292.575L227.301 291.945L221.428 336.063C221.428 336.063 219.008 339.871 214.507 340.4C210.004 340.927 206.748 340.951 204.648 339.77C202.545 338.589 200.382 336.553 200.382 336.553L197.726 297.331C197.726 297.331 200.702 289.806 195.628 285.444C190.553 281.077 187.738 278.691 185.489 279.078C183.241 279.471 180.524 281.247 180.524 281.247C180.524 281.247 198.654 240.605 201.711 238.245C204.765 235.887 211.166 230.862 219.96 232.863C228.753 234.864 250.095 243.421 250.095 243.421C250.095 243.421 252.319 246.078 252.822 250.344C255.376 255.21 252.121 258.455 252.121 258.455L253.03 258.734L259.322 258.945L261.704 259.362Z" fill="#191919"/>
<path fill-rule="evenodd" clip-rule="evenodd" d="M268.332 228.107C268.332 228.107 267.155 234.076 263.646 236.149C260.14 238.223 256.656 237.406 256.656 237.406L257.355 241.604C257.355 241.604 262.522 245.256 263.018 246.358C263.517 247.458 264.276 247.895 264.276 247.895L271.828 247.966L283.854 235.66L303.64 238.598L305.599 235.729C305.599 235.729 300.013 235.164 301.157 233.772C302.332 232.344 303.651 232.162 303.64 232.166L306.578 230.554C306.578 230.554 300.221 227.564 301.402 226.5C302.583 225.435 306.227 225.593 306.227 225.593L320.212 233.704L324.966 232.865L327.762 237.269C327.762 237.269 335.789 236.383 336.502 241.745C337.215 247.105 336.699 251.003 335.802 252.161C334.904 253.32 333.634 254.679 333.634 254.679C333.634 254.679 339.93 256.409 343.633 255.309C347.336 254.209 355.894 248.861 348.598 234.753C341.297 220.646 330.274 193.278 322.378 191.335C314.482 189.387 309.614 190.564 308.674 188.467C307.734 186.37 305.528 183.362 305.528 183.362C305.528 183.362 302.838 185.019 299.514 185.248C296.188 185.479 294.549 185.459 294.549 185.459C294.549 185.459 298.117 188.933 296.087 189.514C294.057 190.096 280.55 190.685 277.348 197.064C274.145 203.449 269.656 228.947 269.656 228.947L268.332 228.107Z" fill="#191919"/>
<path fill-rule="evenodd" clip-rule="evenodd" d="M335.964 200.054L316.737 205.576L308.138 205.855L289.749 197.884L295.342 192.78C295.342 192.78 301.765 195.624 305.269 198.233C308.774 200.844 311.563 203.969 311.563 203.969C311.563 203.969 317.132 200.131 321.981 198.303C326.828 196.478 331.352 195.579 331.352 195.579L335.964 200.054Z" fill="white"/>
<path fill-rule="evenodd" clip-rule="evenodd" d="M250.587 242.383L254.495 255.672L251.768 258.526C251.768 258.526 262.008 257.122 266.805 264.422C271.603 271.727 271.79 272.813 271.788 282.556C271.788 288.7 268.425 293.022 260.244 292.875C258.749 293.622 260.833 294.939 260.833 294.939L273.364 295.749L280.514 292.727C280.514 292.727 297.293 292.417 299.251 291.252C303.459 288.75 307.935 283.583 308.691 276.848C309.444 270.112 311.697 249.789 311.697 249.789L309.461 245.734C309.461 245.734 308.122 248.363 306.173 246.364C304.226 244.364 303.509 243.579 303.866 242.379C304.222 241.18 304.565 238.741 304.565 238.741L284.008 236.434L271.788 247.247L265.109 247.616L251.104 236.781L246.864 236.726L241.3 239.213L250.587 242.383Z" fill="#B5E6EB"/>
<path fill-rule="evenodd" clip-rule="evenodd" d="M301.686 165.271L293.087 159.521L286.806 154.416L283.635 156.354L282.317 159.085C282.317 159.085 276.655 155.486 276.373 153.018C276.094 150.551 275.675 146.409 278.673 145.728C284.164 144.492 290.273 143.101 297.13 146.287C303.987 149.475 309.645 151.815 309.645 151.815C309.645 151.815 318.371 145.896 322.021 150.276C326.364 155.483 325.268 158.986 327.337 161.042C329.403 163.096 339.835 173.139 337.684 180.691C334.945 190.312 321.841 188.655 318.079 184.786C313.621 178.79 313.672 174.942 313.672 174.942C313.672 174.942 308.283 176.129 305.772 176.562C303.26 176.996 307.159 170.299 307.159 170.299L301.686 165.271Z" fill="#191919"/>
<path fill-rule="evenodd" clip-rule="evenodd" d="M338.759 199.896L316.315 204.86C316.315 204.86 316.072 208.543 312.819 207.794C309.564 207.046 308.202 205.697 308.202 205.697L287.506 196.958L288.906 228.143L300.653 231.846L305.196 230.169C305.196 230.169 300.805 226.82 301.911 225.765C303.017 224.71 308.338 225.332 311.63 227.303C314.921 229.273 320.299 233.596 320.299 233.596L337.151 228.283L338.759 199.896Z" fill="#8256E1"/>
<path fill-rule="evenodd" clip-rule="evenodd" d="M289.433 141.093C289.759 141.093 290.085 141.093 290.413 141.093C299.221 141.373 304.303 145.378 310.267 148.503C312.26 147.344 314.512 145.949 317.539 145.779C320.83 145.59 323.755 146.216 325.437 147.946C327.414 149.98 327.963 153.535 329.142 156.407C330.27 159.15 332.156 161.236 334.317 163.396C336.321 165.401 338.158 167.647 339.63 170.246C341.065 172.778 341.82 176.988 340.609 180.243C339.541 183.115 337.542 185.305 334.945 186.745C332.443 188.137 328.82 189.208 325.017 188.913C321.369 188.631 318.754 187.092 316.769 184.999C314.764 182.888 313.386 180.31 312.924 176.611C310.915 177.306 307.968 178.033 305.164 177.938C306.053 180.215 307.24 183.002 308.381 185.489C308.713 186.212 309.288 187.871 309.708 188.074C311.067 188.732 313.921 188.659 315.511 188.842C320.439 189.409 324.446 190.938 327.327 193.456C327.87 193.932 328.607 194.915 329.144 194.996C330.152 195.15 331.21 194.226 332.221 194.368C332.691 194.432 333.158 194.99 333.549 195.415C334.738 196.713 335.996 198.069 337.115 199.053C338.154 198.944 339.515 198.034 340.26 198.842C340.819 199.448 340.41 201.504 340.331 202.685C340.084 206.315 339.894 209.396 339.632 212.823C339.578 213.526 339.418 214.3 339.493 214.853C339.562 215.347 340.167 216.178 340.542 216.881C343.098 221.669 345.485 226.371 347.883 231.141C350.164 235.675 354.44 243.963 350.889 250.366C349.41 253.032 347.079 254.827 343.967 255.819C342.327 256.342 340.374 256.257 338.304 256.168C332.46 255.923 327.12 255.167 321.525 254.351C317.932 253.828 314.057 253.891 311.879 251.626C311.203 260.292 310.512 268.769 309.361 276.793C308.962 279.578 308.533 281.973 307.402 284.136C305.229 288.297 302.344 291.538 297.406 292.593C292.81 293.579 287.717 293.644 282.305 293.644C281.541 293.644 280.642 293.46 279.998 293.575C279.28 293.701 278.493 294.602 277.83 294.973C277.121 295.37 276.155 295.725 275.243 295.953C273.337 296.427 270.736 296.241 268.53 296.231C266.345 296.221 263.859 296.472 261.819 296.091C260.752 295.893 260.12 295.534 259.373 294.973C258.771 294.521 258.153 293.596 257.414 293.367C256.522 293.087 254.979 293.239 253.78 293.227C245.053 293.134 236.213 292.619 227.843 292.526C225.83 309.774 223.703 327.27 221.692 344.54C221.556 345.703 221.252 346.959 221.272 348.037C221.293 349.074 221.681 350.348 221.902 351.533C222.119 352.7 222.322 353.905 222.53 355.029C222.966 357.369 223.916 359.407 224.489 361.319C225.382 364.305 225.658 368.482 225.958 372.227C226.055 373.448 226.419 375.091 226.097 376.072C225.891 376.702 224.376 377.463 223.511 377.96C216.788 381.816 209.366 384.885 201.838 387.679C197.495 389.291 193.347 391.27 187.576 391.381C184.487 391.442 182.244 391.031 180.445 389.564C178.859 388.27 177.579 386.212 177.371 383.623C177.188 381.377 177.78 379.639 178.697 378.239C181.43 374.068 185.185 371.172 190.304 369.569C192.476 366.207 194.714 362.644 196.805 359.222C197.112 358.72 197.56 358.133 197.712 357.683C197.992 356.871 198.04 355.734 198.202 354.748C198.536 352.714 198.909 350.846 199.252 348.944C199.426 347.97 199.697 346.911 199.74 346.007C199.827 344.2 199.414 342.217 199.32 340.277C198.682 326.903 197.463 312.683 196.734 299.658C192.476 305.717 188.017 312.325 183.729 318.675C183.144 319.542 182.489 320.873 181.841 321.402C181.213 321.918 178.744 322.856 177.369 322.451C175.673 321.951 173.915 320.691 172.264 319.724C162.365 313.935 153.233 307.417 145.207 299.8C143.879 298.54 142.343 296.956 141.782 295.396C140.599 292.107 143.253 288.536 144.857 287.008C146.613 285.331 148.959 284.061 152.198 284.142C155.295 284.217 157.371 285.684 159.679 286.869C162.006 288.064 164.167 289.376 166.179 290.642C169.25 290.241 172.258 289.779 175.337 289.384C182.325 274.579 189.316 259.04 196.659 244.431C197.641 242.477 198.468 240.666 199.525 239.049C200.592 237.415 202.053 236.108 203.72 234.925C206.813 232.731 211.012 230.971 216.095 230.732C221.343 230.479 225.374 232.492 229.377 234.016C233.483 235.579 237.323 236.971 241.332 238.63C243.528 237.684 245.744 235.604 248.813 235.695C251.728 235.782 253.895 238.093 256.083 239.051C254.197 233.689 252.269 228.37 250.419 222.972C246.564 222.496 241.49 221.509 237.346 221.084C235.754 220.92 234.208 220.857 233.011 220.383C231.33 219.721 230.653 218.122 230.005 216.54C227.159 215.216 226.509 211.693 225.182 208.851C223.754 208.713 222.986 208.77 222.313 208.223C220.48 206.728 221.831 203.021 223.713 202.418C225.941 201.709 229.462 201.97 232.383 202.138C233.621 202.213 235.03 202.438 236.438 202.628C237.953 202.839 239.616 202.861 239.795 203.886C240.068 205.482 237.866 204.889 236.718 204.725C233.746 204.303 231.694 204.23 228.678 204.097C226.11 203.983 223.164 203.787 223.573 206.475C226.533 207.042 230.61 207.038 234.06 207.174C235.431 207.23 236.768 207.058 236.787 208.225C236.811 209.742 234.153 209.244 232.66 209.201C230.825 209.151 229.205 209.052 227.558 208.991C227.92 210.285 228.111 210.794 228.678 211.859C228.98 212.428 229.583 213.97 230.284 214.377C231.571 215.118 235.814 214.387 236.088 215.773C236.46 217.667 233.827 216.986 232.523 216.893C232.829 219.186 236.61 218.831 239.234 219.2C240.887 219.429 243.064 219.787 244.758 220.039C247.298 220.411 250.362 221.027 253.146 221.157C254.456 221.218 255.335 221.236 255.382 222.135C255.449 223.444 253.721 223.298 252.724 223.184C254.041 227.298 255.574 231.194 256.919 235.282C257.659 235.61 258.297 235.897 259.156 235.978C264.414 236.465 266.339 232.144 267.266 228.08C265.684 224.349 264.192 220.529 262.581 216.824C263.015 216.23 263.855 215.675 264.189 215.216C265.753 218.916 267.285 222.652 268.804 226.401C270.574 217.16 271.942 207.662 274.956 199.977C278.091 191.981 285.418 188.927 295.65 188.023C294.566 185.749 293.255 183.707 292.153 181.452C287.9 180.972 284.954 179.635 283.135 176.279C282.443 174.996 281.719 173.023 281.877 170.546C281.983 168.895 282.086 164.98 283.555 164.953C285.201 164.923 284.436 166.829 284.253 167.888C284.004 169.349 283.828 170.82 283.903 171.875C284.156 175.406 286.488 177.99 289.287 178.797C291.839 179.53 294.927 179.89 297.187 179.007C298.364 178.545 300.155 177.498 300.262 179.145C300.331 180.188 298.781 180.652 298.026 180.964C296.993 181.389 295.792 181.618 294.669 181.663C294.935 182.398 295.561 183.381 295.998 184.179C299.351 184.94 302.583 183.863 304.806 182.641C304.479 181.679 304.036 180.867 303.617 179.915C303.311 179.224 302.504 177.982 302.567 177.05C302.6 176.578 303.09 176.025 303.475 175.582C303.896 175.104 304.228 174.737 304.593 174.255C305.158 173.508 306.025 171.755 306.9 171.737C307.366 171.727 307.862 172.084 307.949 172.505C308.227 173.85 306.276 174.992 306.064 175.859C308.774 175.63 310.791 175.408 312.495 174.393C317.047 171.678 318.89 164.972 316.899 158.382C316.084 155.686 314.413 153.519 312.144 152.088C309.999 150.739 307.475 149.303 305.152 148.035C302.841 146.771 300.396 145.461 297.671 144.468C292.255 142.495 283.579 142.783 279.426 145.797C277.378 147.28 275.971 150.472 277.119 153.837C277.891 156.097 280.403 156.826 282.643 157.75C283.233 156.312 283.974 155.028 285.019 154.045C284.711 153.521 283.389 153.083 283.411 152.086C283.425 151.467 283.848 151.145 284.318 151.108C284.964 151.059 285.412 151.576 285.927 152.02C289.324 154.932 292.131 157.246 295.713 159.918C298.69 162.138 301.34 164.325 304.87 165.93C305.766 166.339 307.974 166.853 308.016 167.886C308.097 169.831 305.31 168.387 304.66 168.097C300.706 166.329 298.109 164.218 294.943 162.014C293.786 161.891 293.513 163.398 292.496 163.414C290.608 163.444 291.677 160.596 292.915 160.479C290.821 158.822 288.74 157.149 286.692 155.443C285.396 156.29 284.837 157.876 284.314 159.496C288.159 160.244 290.93 165.824 288.929 170.404C288.552 171.265 288.003 171.847 287.391 172.572C288.191 173.335 289.07 175.195 287.6 175.436C286.81 175.568 286.463 174.838 286.062 174.251C285.682 173.688 284.983 173.173 285.013 172.363C285.039 171.731 285.574 171.389 285.993 170.963C286.386 170.564 286.85 170.074 287.041 169.637C288.169 167.068 287.073 163.351 285.224 162.154C283.923 161.313 281.798 161.666 281.938 159.707C279.639 158.783 277.589 158.095 276.206 156.494C273.408 153.247 274.751 147.298 277.255 144.887C280.056 142.185 284.555 141.251 289.433 141.093ZM317.257 154.238C318.527 156.144 319.297 158.52 319.635 161.437C320.3 167.188 318.685 171.344 315.999 174.162C315.618 174.559 314.942 175.043 314.881 175.489C314.826 175.894 315.055 176.623 315.161 177.168C316.009 181.562 318.045 184.25 321.521 185.907C323.581 186.887 326.585 187.104 329.421 186.534C334.05 185.609 338.555 182.678 339.14 177.796C339.734 172.845 336.551 169.104 334.317 166.4C333.491 165.401 332.549 164.512 331.66 163.604C329.654 161.556 328.303 159.721 327.256 157.1C326.77 155.885 326.285 154.471 325.789 153.115C325.348 151.914 324.849 150.322 323.97 149.413C322.868 148.268 320.66 147.719 318.377 147.802C315.801 147.897 314.223 148.702 312.363 149.621C314.458 150.942 316.001 152.358 317.257 154.238ZM297.264 186.534C297.507 187.408 298.516 187.922 298.382 188.981C298.247 190.051 296.357 190.037 295.305 190.173C291.128 190.705 287.873 191.224 284.75 192.618C280.498 194.516 278.164 197.299 276.57 201.707C273.73 209.56 272.205 219.04 270.698 228.275C270.603 228.858 270.376 229.652 270.418 230.163C270.481 230.898 271.083 231.767 271.399 232.539C271.794 233.513 272.975 235.897 271.119 235.822C270.258 235.79 269.886 234.528 269.582 233.795C269.197 232.869 268.895 231.814 268.532 231.21C267.151 235.468 263.786 238.782 257.908 237.852C258.202 238.934 258.615 239.892 258.957 240.927C261.003 242.633 263.515 243.874 264.83 246.313C266.553 245.807 269.345 246.781 271.052 246.313C271.453 246.2 272.128 245.341 272.59 244.911C275.845 241.909 278.707 239.284 281.748 236.244C282.234 235.758 283.141 235.067 283.216 234.706C283.32 234.216 283.081 233.236 283.008 232.539C282.775 230.343 282.481 228.06 282.309 225.968C278.944 224.268 276.066 222.02 275.738 217.438C275.247 210.611 279.599 207.976 283.986 205.764C283.798 205.016 281.912 201.64 284.057 201.709C285.112 201.741 285.153 202.916 285.455 203.805C285.785 204.773 286.431 205.638 286.293 206.532C286.158 207.421 284.199 208.055 283.287 208.559C280.032 210.36 277.334 212.536 277.834 217.509C278.118 220.336 279.775 222.078 281.75 223.312C282.461 223.756 283.86 224.207 284.195 224.918C284.478 225.512 284.464 226.478 284.545 227.294C284.804 229.891 285.033 232.328 285.315 234.846C291.349 235.662 297.487 236.375 303.56 237.153C303.726 236.76 303.89 236.363 304.05 235.962C301.996 236.027 300.367 235.322 300.625 233.307C297.216 231.911 294.509 230.849 291.185 229.531C290.357 229.205 288.507 228.654 288.25 227.995C287.922 227.151 288.185 225.879 288.11 224.288C287.924 220.381 287.835 216.836 287.76 213.032C287.659 207.907 287.559 202.89 287.341 197.931C287.328 197.653 287.227 196.987 287.341 196.533C287.565 195.628 288.327 195.403 289.158 195.832C290.012 195.062 291.041 194.491 292.164 193.805C292.909 193.351 294.55 192.101 295.449 192.058C296.193 192.022 297.218 192.62 298.036 192.968C303.866 195.435 309.396 198.514 312.647 203.035C316.528 199.809 321.248 197.422 326.63 195.694C324.098 192.676 319.319 191.319 313.836 190.803C312.106 190.638 309.977 190.614 308.731 189.964C306.858 188.984 306.878 186.265 305.725 184.509C305.679 184.509 305.632 184.509 305.585 184.509C303.404 185.781 300.742 186.567 297.264 186.534ZM291.321 196.815C296.371 199.073 301.864 201.619 306.91 203.874C307.686 204.222 308.539 204.461 309.217 204.852C309.827 205.207 310.255 205.851 310.895 206.112C311.719 206.447 313.524 206.576 314.46 206.252C315.363 205.94 315.843 204.544 316.696 204.085C317.802 203.491 319.686 203.317 321.1 202.967C325.609 201.846 330.209 200.702 334.593 199.681C333.742 198.506 332.687 197.534 331.655 196.535C324.977 197.965 319.182 200.576 314.598 204.156C313.966 204.648 313.095 205.602 312.43 205.553C311.743 205.503 311.178 204.409 310.684 203.805C306.945 199.235 301.457 196.57 295.723 194.228C295.676 194.228 295.629 194.228 295.583 194.228C294.141 195.067 292.711 195.919 291.321 196.815ZM290.201 226.873C293.987 228.402 297.76 229.942 301.597 231.417C302.075 231.105 302.251 230.926 302.926 230.582C303.38 230.349 304.526 230.059 304.463 229.671C304.4 229.263 303.384 229.099 302.995 228.832C302.261 228.33 301.317 227.167 301.526 225.897C301.895 223.669 305.648 224.132 307.957 224.568C307.866 218.483 307.518 212.284 307.467 206.39C301.463 203.68 295.476 200.951 289.431 198.279C289.615 207.885 290.002 217.288 290.201 226.873ZM317.747 205.902C317.709 213.818 318.1 222.044 317.887 229.668C318.977 230.631 319.86 231.799 320.962 232.745C324.811 231.429 328.866 230.159 332.707 228.97C334.003 228.567 335.296 228.147 336.483 227.57C337.119 218.746 337.88 209.673 338.3 200.866C331.477 202.574 324.608 204.235 317.747 205.902ZM309.987 225.056C311.729 225.53 313.406 226.227 314.67 227.082C315.098 227.371 315.539 227.971 315.928 227.854C315.783 221.286 315.799 214.561 315.649 208C313.961 208.685 310.99 208.612 309.568 207.721C309.625 213.534 310.05 219.354 309.987 225.056ZM338.65 226.596C338.593 227.388 338.644 228.609 338.37 229.043C338.006 229.618 336.373 229.924 335.644 230.161C332.64 231.143 329.766 232.075 326.905 232.958C327.327 233.817 327.622 234.113 328.092 234.775C328.348 235.13 328.915 236.302 329.421 236.452C329.806 236.57 330.657 236.416 331.38 236.381C331.988 236.353 332.684 236.278 333.268 236.242C334.552 236.163 336.41 235.812 337.113 236.242C338.502 237.097 336.691 238.839 335.085 238.198C337.145 239.843 338.52 243.386 338.302 246.939C338.154 249.335 337.214 251.647 336.274 253.233C336.156 253.429 335.871 253.662 335.994 253.928C338.478 253.946 340.759 254.47 342.916 253.998C346.927 253.129 350.103 249.581 350.117 245.051C350.131 239.264 347.626 235.296 345.572 231.139C343.469 226.889 341.344 222.866 339.28 218.975C339.276 218.935 339.27 218.892 339.209 218.904C339.071 221.187 338.824 224.155 338.65 226.596ZM333.965 240.017C333.436 239.572 331.921 238.51 331.238 238.409C330.762 238.34 330.063 238.516 329.419 238.549C328.779 238.583 328.07 238.589 327.462 238.62C326.243 238.683 324.787 239.059 323.757 238.76C323.089 238.569 322.297 237.358 321.73 236.732C321.013 235.938 320.281 235.267 319.702 234.635C316.98 231.66 314.589 228.69 310.544 227.363C308.543 226.707 306.047 226.039 303.623 226.456C304.696 228.036 307.374 227.785 309.286 228.554C310.285 228.953 311.061 229.768 312.013 230.232C312.993 230.706 315.813 231.088 315.789 232.468C315.754 234.425 312.59 232.644 311.735 232.328C310.486 231.866 309.055 231.216 307.33 231.348C305.411 231.498 303.351 232.207 302.646 233.726C304.172 234.429 306.136 233.343 307.751 233.517C308.517 233.598 309.118 234.439 310.127 234.566C311.632 234.753 313.998 233.754 314.111 235.334C314.219 236.819 311.865 236.513 310.477 236.592C308.764 236.691 307.356 236.813 305.934 237.013C305.563 237.457 305.419 238.13 305.304 238.83C306.463 238.652 307.522 238.373 308.869 238.2C309.864 238.077 311.899 237.631 311.875 239.041C311.853 240.216 310.095 240.111 308.798 240.297C307.777 240.447 305.82 240.629 305.233 241.067C303.892 242.067 305.197 243.585 305.863 244.352C306.329 244.889 306.793 245.497 307.611 245.821C307.311 245.013 306.533 242.859 308.241 243.024C309.023 243.098 309.25 244.055 309.639 244.774C310.032 245.495 310.463 246.204 310.828 246.799C312.62 249.726 314.061 251.477 318.24 251.902C323.302 252.418 328.447 253.239 333.41 253.721C336.42 250.693 337.425 242.945 333.965 240.017ZM253.008 256.235C252.907 251.584 252.046 247.691 250.421 244.561C242.217 241.239 234.046 237.834 225.463 234.775C222.53 233.73 219.729 232.608 215.815 232.818C210.139 233.118 204.273 236.021 201.484 239.809C200.526 241.109 199.752 242.835 198.966 244.423C193.527 255.424 187.906 267.179 182.818 278.33C185.576 276.732 189.269 278.209 191.347 279.519C195.413 282.084 199.154 286.054 199.247 291.963C207.488 280 216.083 267.546 224.274 255.26C224.775 254.511 225.502 253.15 226.302 253.164C226.768 253.168 227.211 253.512 227.28 253.998C227.422 255.029 226.413 255.783 225.952 256.445C225.678 256.84 225.482 257.304 225.253 257.637C224.975 258.034 224.481 258.339 224.692 258.682C233.588 258.491 242.481 258.295 251.468 258.194C251.977 257.537 252.516 256.907 253.008 256.235ZM324.736 233.657C323.988 233.934 323.206 234.178 322.431 234.425C323.051 234.868 323.784 236.535 324.598 236.732C325.167 236.87 325.953 236.546 326.766 236.592C326.156 235.545 325.408 234.639 324.736 233.657ZM284.26 236.803C281.482 239.264 277.944 242.695 274.891 245.541C274.016 246.358 272.744 248.059 271.745 248.339C269.863 248.868 267.704 247.968 265.664 248.339C266.021 249.684 266.458 250.946 266.503 252.603C267.487 252.692 268.433 252.726 269.44 252.953C270.266 253.138 271.028 253.697 271.956 253.792C273.349 253.934 278.371 252.285 278.318 254.351C278.282 255.747 276.281 255.285 275.033 255.609C279.232 259.46 283.303 264.242 284.892 271.202C285.682 274.666 286.253 278.926 285.941 282.805C285.659 286.299 284.438 288.866 282.795 290.845C282.601 291.078 282.193 291.232 282.236 291.613C285.208 291.54 288.031 291.544 290.835 291.335C293.626 291.124 296.415 291.017 298.595 290.144C301.99 288.787 305.047 285.278 306.355 281.616C307.119 279.479 307.344 276.641 307.684 273.996C308.545 267.268 309.078 260.523 309.641 253.512C309.845 250.978 310.362 248.732 308.873 247.709C306.576 248.46 305.34 246.799 304.259 245.541C303.568 244.737 302.707 243.834 302.581 242.884C302.391 241.46 303.406 240.558 303.141 239.181C296.823 238.409 290.494 237.652 284.26 236.803ZM262.516 246.451C261.836 245.6 260.612 244.77 259.51 243.933C257.24 242.205 255.37 240.974 252.868 239.529C251.778 238.899 250.19 237.909 249.024 237.781C246.905 237.55 245.388 238.94 243.85 239.671C244.885 240.034 245.831 240.485 246.856 240.858C246.974 238.907 249.986 240.182 250.632 240.787C251.298 241.415 251.752 242.641 252.24 243.654C253.646 246.577 255.019 250.549 254.967 254.42C257.033 252.967 260.788 252.599 264.475 252.534C264.06 250.498 263.715 247.938 262.516 246.451ZM266.152 294.128C269.46 293.972 272.829 294.677 275.379 293.778C279.157 292.447 282.678 288.787 283.559 284.758C284.6 280.002 283.678 273.799 282.301 269.517C280.96 265.346 278.484 262.038 275.59 259.032C272.576 255.903 269.1 254.329 262.796 254.628C260.995 254.713 258.321 254.951 256.992 255.607C256.134 256.032 255.39 256.812 254.825 257.426C254.685 257.576 254.274 257.813 254.406 258.123C255.459 258.058 256.555 258.036 257.691 258.052C258.007 257.685 258.135 257.252 258.599 257.073C259.289 256.806 261.009 256.855 261.815 257.213C262.658 257.59 263.898 259.148 264.753 260.148C265.723 261.291 266.562 262.439 267.339 263.505C268.812 265.52 270.631 268.395 271.532 271.127C272.561 274.247 272.967 277.767 272.861 281.612C272.748 285.673 271.575 290.5 268.946 292.168C268.539 292.429 267.759 292.611 267.127 292.937C266.813 293.097 266.438 293.498 266.079 293.567C264.447 293.885 262.697 293.144 260.766 293.496C262.182 294.373 264.187 294.22 266.152 294.128ZM258.532 291.264C261.668 291.372 265.725 291.829 267.832 290.424C269.726 289.164 270.471 285.473 270.696 282.734C271.613 271.713 266.805 265.462 261.817 260.083C249.135 260.193 235.808 260.641 223.087 260.711C214.944 272.819 206.663 284.792 198.549 296.926C199.572 309.42 200.25 322.258 201.064 334.957C202.521 335.915 203.149 337.115 204.49 337.965C206.848 339.46 211.004 339.168 213.858 338.666C216.224 338.247 217.74 337.256 219.311 335.94C219.826 335.506 220.642 334.941 220.78 334.611C221.07 333.916 221.001 332.492 221.128 331.396C222.895 316.289 224.728 301.303 226.511 286.303C226.673 284.948 226.695 283.903 227.769 283.925C229.116 283.956 228.599 285.746 228.467 286.864C228.309 288.199 228.204 289.451 228.117 290.428C238.215 290.786 248.296 290.908 258.532 291.264ZM197.291 295.038C197.572 290.849 196.557 287.276 194.216 284.622C192.065 282.185 189.089 279.937 185.546 279.657C185.36 279.643 184.969 279.722 184.707 279.797C183.713 280.083 181.618 281.235 181.071 281.964C180.772 282.361 180.61 283.064 180.373 283.571C179.597 285.236 178.845 286.79 178.136 288.465C182.866 288.193 186.405 289.907 188.903 292.238C191.161 294.347 192.834 297.098 193.517 300.422C194.89 298.745 195.984 296.784 197.291 295.038ZM185.335 307.83C183.466 308.419 181.468 309.872 179.882 310.978C179.269 311.405 178.699 312.063 177.994 312.025C177.387 311.993 176.743 311.2 176.246 310.767C173.378 308.253 170.789 306.11 168.067 303.706C167.311 303.037 165.294 301.66 164.921 300.77C164.66 300.149 164.652 299.361 164.502 298.745C163.612 295.099 162.488 292.745 160.236 290.494C159.393 289.652 158.646 288.677 157.649 288.047C156.669 287.432 154.795 286.544 153.594 286.301C149.409 285.459 146.638 287.77 145.064 290.006C144.298 291.094 143.328 292.737 143.595 294.341C143.838 295.808 145.841 297.531 146.952 298.538C148.376 299.835 149.644 301.095 150.936 302.174C158.718 308.66 166.428 314.132 175.614 319.23C176.431 319.686 177.476 320.458 178.201 320.49C178.722 320.508 179.939 320.164 180.369 319.86C180.711 319.617 181.067 318.847 181.418 318.323C183.693 314.913 186.077 311.519 188.339 308.253C188.455 308.087 188.74 307.745 188.619 307.485C187.292 307.5 186.322 307.522 185.335 307.83ZM191.907 302.867C190.774 296.359 186.844 290.954 179.741 290.563C178.197 290.478 177.804 290.936 176.666 291.264C175.197 291.681 173.238 291.744 171.284 292.032C170.433 292.155 169.491 292.253 168.557 292.38C167.528 292.52 166.462 292.85 165.762 292.731C165.111 292.621 164.708 291.92 164.084 291.892C165.17 293.559 165.853 295.546 166.392 297.625C166.58 298.348 166.574 299.278 166.882 299.863C167.068 300.215 167.747 300.712 168.211 301.119C171.575 304.07 174.994 306.939 178.207 309.72C181.383 307.524 184.359 304.795 190.162 305.456C190.782 304.629 191.352 303.756 191.907 302.867ZM220.361 337.753C219.237 338.69 217.875 339.645 216.237 340.2C211.486 341.808 204.573 341.715 201.626 338.314C201.559 338.235 201.285 337.795 201.275 338.103C201.549 342.077 202.146 346.507 201.135 350.056C202.553 352.321 205.227 354.085 208.545 354.322C211.288 354.519 213.395 353.818 215.538 353.131C217.251 352.584 218.904 351.898 219.731 350.895C218.556 346.785 220.274 341.895 220.361 337.753ZM200.086 355.789C199.92 356.709 199.93 357.683 199.667 358.447C199.501 358.929 199.059 359.423 198.757 359.913C196.539 363.527 194.449 366.863 192.326 370.471C198.02 371.324 200.096 375.494 201.903 380.188C207.818 378.624 213.194 376.517 217.424 373.266C216.429 367.222 219.085 363.122 221.967 360.264C221.045 358.321 220.565 355.935 220.15 353.482C216.978 354.973 212.829 356.816 208.337 356.49C204.879 356.237 202.535 354.622 200.576 352.991C200.507 353.994 200.252 354.869 200.086 355.789ZM222.668 362.711C219.996 364.965 218.72 369.267 219.522 374.176C218.525 375.405 216.988 376.086 215.607 376.902C214.217 377.72 212.833 378.592 211.272 379.28C209.05 380.257 206.349 381.055 203.722 381.798C202.924 382.023 201.721 382.574 200.996 382.424C200.056 382.234 199.436 379.823 199.039 378.93C198.457 377.617 197.943 376.199 197.222 375.292C196.229 374.05 194.767 373.317 192.887 372.776C191.676 372.427 189.96 372.077 188.552 372.359C187.778 372.511 186.66 373.392 185.896 373.896C184.955 374.518 184.189 375.138 183.518 375.784C182.001 377.247 180.565 378.745 179.811 380.609C178.511 383.832 180.352 387.395 182.678 388.576C183.836 389.169 185.119 389.346 186.733 389.346C190.697 389.346 194.025 388.29 197.36 387.109C206.921 383.729 216.257 380.009 224.066 375.085C223.695 370.866 223.594 366.377 222.668 362.711Z" fill="#191919"/>
<path fill-rule="evenodd" clip-rule="evenodd" d="M295.654 173.252C296.316 173.094 296.968 173.384 296.982 174.164C296.997 174.94 295.449 176.368 294.535 176.888C293.624 177.409 291.355 177.974 291.321 176.471C291.296 175.428 292.329 175.509 293.138 175.209C294.201 174.822 294.576 173.514 295.654 173.252Z" fill="#191919"/>
<path fill-rule="evenodd" clip-rule="evenodd" d="M193.446 302.162L190.438 305.938C190.438 305.938 187.685 304.789 183.727 306.987C179.767 309.185 177.573 310.552 177.573 310.552L165.826 299.573C165.826 299.573 166.242 297.207 164.358 293.91C162.474 290.61 159.533 287.616 159.533 287.616L166.945 291.532L175.894 289.646L176.872 288.455C176.872 288.455 184.754 287.829 188.69 292.789C192.624 297.756 193.446 302.162 193.446 302.162Z" fill="#191919"/>
<path fill-rule="evenodd" clip-rule="evenodd" d="M220.923 351.176C220.923 351.176 218.102 355.278 211.133 355.023C204.167 354.764 199.737 350.336 199.737 350.336C199.737 350.336 199.237 356.378 199.107 356.702C198.98 357.02 190.369 371.036 190.369 371.036C190.369 371.036 196.389 370.363 198.548 374.67C200.708 378.976 201.204 381.034 201.204 381.034C201.204 381.034 209.094 378.877 213.021 377.046C216.949 375.215 218.616 373.621 218.616 373.621C218.616 373.621 217.492 368.165 219.663 364.809C221.835 361.455 223.788 360.616 223.788 360.616L221.201 355.232L220.923 351.176Z" fill="#191919"/>
<path d="M243.009 189.002L227.426 189.004C225.884 189.004 223.587 191.431 223.976 192.648L234.102 224.272C234.491 225.492 236.057 226.476 237.601 226.476H253.186C254.725 226.476 257 224.033 256.611 222.814L246.501 191.2C246.112 189.986 244.549 189.002 243.009 189.002Z" fill="#8256E1"/>
<path d="M253.186 227.525H237.601C235.606 227.525 233.631 226.237 233.104 224.592L222.978 192.97C222.729 192.188 222.972 191.26 223.685 190.284C224.503 189.164 226.022 187.956 227.426 187.956L243.009 187.954C245.003 187.954 246.976 189.241 247.5 190.884L257.61 222.498C257.857 223.278 257.6 224.244 256.887 225.22C256.046 226.367 254.578 227.525 253.186 227.525ZM243.009 190.049L227.426 190.051C227.07 190.051 226.342 190.432 225.692 191.139C225.135 191.744 224.971 192.227 224.981 192.354L235.101 223.95C235.324 224.647 236.406 225.425 237.601 225.425H253.186C253.537 225.425 254.252 225.046 254.894 224.343C255.457 223.727 255.619 223.235 255.607 223.105L245.503 191.518C245.28 190.825 244.202 190.049 243.009 190.049Z" fill="#191919"/>
<path fill-rule="evenodd" clip-rule="evenodd" d="M242.096 190.462H229.419C228.105 190.462 227.307 191.303 227.639 192.344L236.28 219.368C236.612 220.409 237.949 221.252 239.264 221.252H251.948C253.265 221.252 254.061 220.409 253.729 219.368L245.082 192.344C244.749 191.303 243.412 190.462 242.096 190.462Z" fill="white"/>
<path d="M261.775 212.153C261.775 212.153 259.68 204.344 257.089 202.713C254.499 201.081 250.338 198.332 248.28 199.426C246.22 200.522 241.688 201.818 241.148 202.434C240.607 203.045 241.111 205.725 243.524 205.859C245.938 205.993 248.768 205.442 248.768 205.442C248.768 205.442 252.471 212.205 254.363 212.991L261.775 212.153Z" fill="white"/>
<path fill-rule="evenodd" clip-rule="evenodd" d="M307.157 162.701C310.575 162.701 313.346 165.439 313.346 168.818C313.346 172.197 310.575 174.936 307.157 174.936C303.74 174.936 300.971 172.197 300.971 168.818C300.971 165.442 303.74 162.701 307.157 162.701Z" fill="#B5E6EB"/>
<path fill-rule="evenodd" clip-rule="evenodd" d="M306.023 168.666C307.145 167.599 311.022 163.762 310.953 157.221C310.872 149.323 303.258 145.005 303.708 144.873C304.157 144.741 309.991 148.359 309.991 148.359C309.991 148.359 315.882 154.432 313.959 160.647C312.311 165.98 308.577 170.295 308.577 170.295L306.023 168.666Z" fill="#B5E6EB"/>
<path fill-rule="evenodd" clip-rule="evenodd" d="M264.086 215.122C263.667 215.777 263.169 216.35 262.409 216.662C262.052 215.412 261.283 214.288 260.871 212.955C260.416 211.484 260.243 209.925 259.753 208.48C259.154 206.72 258.313 204.899 256.956 203.726C256.02 202.918 254.685 202.199 253.322 201.63C252.109 201.125 250.364 200.341 248.847 200.441C247.62 200.524 246.71 201.472 245.633 201.98C244.484 202.519 243.362 202.663 242.136 203.169C242.679 204.838 243.897 205.049 246.192 204.777C247.004 204.68 247.822 204.336 248.499 204.498C248.967 204.605 249.915 205.829 250.385 206.386C251.62 207.838 252.593 209.041 253.741 210.51C254.195 211.091 255.179 212.147 255.141 212.817C255.111 213.346 254.582 213.779 254.163 213.796C253.387 213.83 252.777 212.752 252.343 212.187C250.826 210.208 249.463 208.239 247.729 206.596C246.123 206.736 244.369 207.265 242.906 206.807C241.537 206.378 240.263 204.818 240.109 203.52C239.799 200.908 242.667 201.012 244.514 200.236C246.38 199.45 247.042 198.222 249.617 198.417C251.811 198.583 253.79 199.499 255.489 200.378C257.185 201.251 258.767 202.292 259.824 203.801C262.089 207.028 262.257 211.47 264.086 215.122Z" fill="#191919"/>
<path fill-rule="evenodd" clip-rule="evenodd" d="M294.914 164.57C295.686 164.57 296.312 165.196 296.312 165.968V167.716C296.312 168.49 295.686 169.116 294.914 169.116C294.143 169.116 293.517 168.49 293.517 167.716V165.968C293.519 165.196 294.143 164.57 294.914 164.57Z" fill="#191919"/>
<path fill-rule="evenodd" clip-rule="evenodd" d="M286.805 164.57C287.577 164.57 288.203 165.196 288.203 165.968V167.716C288.203 168.49 287.577 169.116 286.805 169.116C286.032 169.116 285.408 168.49 285.408 167.716V165.968C285.406 165.196 286.032 164.57 286.805 164.57Z" fill="#191919"/>
<path d="M364.302 269.29C365.016 267.74 365.413 266.012 365.413 264.193C365.413 257.436 359.933 251.957 353.178 251.957H348.022C348.022 251.957 346.199 254.452 343.611 255.06C341.024 255.667 334.592 255.027 334.592 255.027C334.592 255.027 319.272 252.973 317.925 252.674C314.135 254.037 311.213 257.213 310.206 261.159C305.516 262.158 301.895 266.039 301.275 270.86H299.988C293.683 270.86 288.568 275.97 288.568 282.278C288.568 288.586 293.683 293.697 299.988 293.697H320.172H329.002H363.032C369.79 293.697 375.269 288.22 375.269 281.46C375.273 275.132 370.467 269.924 364.302 269.29Z" fill="white"/>
<path d="M363.037 294.746H299.993C293.118 294.746 287.523 289.153 287.523 282.278C287.523 275.403 293.118 269.811 299.993 269.811H300.39C301.334 265.208 304.814 261.501 309.365 260.284C310.589 256.298 313.617 253.111 317.573 251.687C317.76 251.62 317.962 251.606 318.157 251.651C319.226 251.888 330.487 253.419 334.737 253.988C336.442 254.156 341.395 254.505 343.376 254.039C345.541 253.53 347.166 251.357 347.182 251.335C347.381 251.067 347.695 250.907 348.027 250.907H353.182C360.507 250.907 366.466 256.867 366.466 264.193C366.466 265.664 366.231 267.092 365.767 268.457C371.875 269.721 376.325 275.091 376.325 281.462C376.321 288.787 370.362 294.746 363.037 294.746ZM299.993 271.907C294.274 271.907 289.621 276.56 289.621 282.276C289.621 287.995 294.274 292.646 299.993 292.646H363.037C369.205 292.646 374.224 287.628 374.224 281.458C374.224 275.703 369.914 270.919 364.195 270.329C363.859 270.295 363.559 270.098 363.391 269.804C363.223 269.511 363.209 269.154 363.349 268.846C364.021 267.384 364.364 265.816 364.364 264.187C364.364 258.017 359.346 253 353.178 253H348.523C347.82 253.816 346.113 255.544 343.852 256.077C341.125 256.717 334.759 256.093 334.489 256.067C333.861 255.984 320.575 254.199 318.019 253.753C314.648 255.062 312.118 257.906 311.223 261.414C311.124 261.801 310.816 262.097 310.425 262.18C306.134 263.096 302.875 266.634 302.316 270.987C302.249 271.51 301.804 271.903 301.275 271.903H299.993V271.907Z" fill="#191919"/>
<path fill-rule="evenodd" clip-rule="evenodd" d="M100.404 136.736C103.311 136.335 106.119 138.752 104.778 141.723C103.386 144.808 97.5805 144.772 97.0295 141.417C96.9181 140.737 97.1389 139.572 97.4124 138.962C97.7486 138.213 98.8505 136.951 100.404 136.736ZM102.323 140.265C102.331 138.924 99.282 139.151 99.7905 141.033C100.613 141.563 102.318 141.124 102.323 140.265Z" fill="#B5E6EB"/>
<path fill-rule="evenodd" clip-rule="evenodd" d="M377.301 176.939C377.398 175.711 378.703 175.244 380.139 175.404C382.381 175.655 385.31 178.555 383.362 181.081C381.652 183.297 376.79 182.368 376.302 179.7C376.158 178.904 376.169 177.429 377.301 176.939ZM379.065 179.165C379.509 179.587 380.787 179.864 381.212 179.242C381.123 178.442 378.834 177.354 379.065 179.165Z" fill="#B5E6EB"/>
<path fill-rule="evenodd" clip-rule="evenodd" d="M374.846 216.145C375.561 216.105 376.87 216.648 376.305 218.064C375.991 218.849 373.866 219.245 372.853 219.674C371.524 220.239 368 222.086 367.943 219.597C367.916 218.481 369.144 218.173 370.015 217.833C371.419 217.284 373.238 216.234 374.846 216.145Z" fill="#B5E6EB"/>
<path fill-rule="evenodd" clip-rule="evenodd" d="M116.516 216.376C117.778 216.07 119.297 217.616 120.275 218.295C121.165 218.91 123.014 219.723 123.038 220.75C123.055 221.434 122.469 222.054 121.888 222.131C120.474 222.317 119.236 220.958 118.282 220.29C117.354 219.64 115.56 218.906 115.519 217.681C115.489 216.747 116.08 216.482 116.516 216.376Z" fill="#B5E6EB"/>
<path fill-rule="evenodd" clip-rule="evenodd" d="M353.21 223.895C351.383 222.131 353.856 219.419 356.279 219.676C357.509 219.808 358.904 220.853 359.425 221.517C359.883 222.103 360.426 223.549 360.116 224.74C359.133 228.518 351.958 228.905 353.21 223.895ZM357.43 223.818C357.454 222.765 355.335 221.722 355.052 223.282C355.56 223.567 355.842 224.078 355.819 224.892C356.737 224.906 357.415 224.446 357.43 223.818Z" fill="#B5E6EB"/>
<path fill-rule="evenodd" clip-rule="evenodd" d="M369.399 224.509C371.593 224.193 373.521 224.797 375.691 225.2C377.115 225.463 379.086 225.546 379.296 226.658C379.827 229.444 375.284 227.87 373.773 227.578C373.049 227.438 372.255 227.276 371.471 227.195C369.989 227.039 368.443 227.248 368.403 225.814C368.382 225.133 368.771 224.702 369.399 224.509Z" fill="#B5E6EB"/>
<path fill-rule="evenodd" clip-rule="evenodd" d="M106.465 226.502C106.874 226.429 107.668 226.614 108.306 226.656C111.533 226.873 115.357 226.743 118.663 226.887C120.251 226.956 121.07 227.078 120.964 228.421C120.853 229.843 119.249 229.618 117.588 229.571C115.925 229.525 114.316 229.494 113.06 229.494C110.328 229.494 105.503 229.863 105.31 227.959C105.229 227.116 105.675 226.646 106.465 226.502Z" fill="#B5E6EB"/>
<path fill-rule="evenodd" clip-rule="evenodd" d="M118.74 233.945C119.749 233.864 120.92 235.024 119.968 236.169C119.137 237.169 115.489 237.652 116.285 235.249C116.553 234.445 117.758 234.024 118.74 233.945Z" fill="#B5E6EB"/>
<path fill-rule="evenodd" clip-rule="evenodd" d="M366.944 234.099C368.334 233.797 371.644 235.76 371.777 236.631C371.917 237.542 371.317 238.144 370.704 238.243C369.709 238.401 368.546 237.329 367.481 236.861C366.662 236.503 365.575 236.458 365.87 235.02C365.97 234.53 366.371 234.224 366.944 234.099Z" fill="#B5E6EB"/>
<path fill-rule="evenodd" clip-rule="evenodd" d="M133.011 254.047C135.148 252.066 139.612 255.55 137.538 258.343C136.963 259.119 135.581 259.719 134.469 259.725C131.98 259.739 129.326 256.915 130.556 253.97C130.827 253.32 132.494 252.645 133.011 254.047ZM135.237 256.656C134.664 256.129 133.554 256.14 133.088 255.506C133.09 256.595 134.362 257.371 135.237 256.656Z" fill="#B5E6EB"/>
<path fill-rule="evenodd" clip-rule="evenodd" d="M103.858 261.26C103.129 258.153 105.124 256.328 107.618 256.119C111.29 255.811 113.822 260.592 112.145 263.869C110.144 267.775 102.007 267.584 103.858 261.26ZM109.765 262.411C110.229 261.088 109.301 259.022 108.155 258.882C107.454 258.795 106.625 259.158 106.467 259.727C106.299 260.337 106.702 260.835 106.621 261.491C106.546 262.105 106.022 262.666 106.39 263.41C107.715 264.232 109.35 263.594 109.765 262.411Z" fill="#B5E6EB"/>
<path fill-rule="evenodd" clip-rule="evenodd" d="M111.223 275.377C112.305 270.815 119.623 275.64 116.978 279.137C115.712 280.81 112.4 280.986 110.994 279.368C110.232 278.492 109.528 275.881 111.223 275.377ZM112.91 276.682C112.58 277.954 114.292 277.984 114.752 277.372C114.34 276.708 113.698 275.948 112.91 276.682Z" fill="#B5E6EB"/>
<path fill-rule="evenodd" clip-rule="evenodd" d="M110.685 239.086C110.897 238.954 111.049 239.535 111.298 239.622C111.108 239.734 110.816 239.29 110.685 239.086Z" fill="#B5E6EB"/>
<path d="M133.632 465.612H128.088V464.6H140.298V465.612H134.754V480H133.632V465.612ZM149.878 468.428C151.316 468.428 152.452 468.846 153.288 469.682C154.124 470.518 154.542 471.721 154.542 473.29V480H153.442V473.378C153.442 472.087 153.112 471.105 152.452 470.43C151.807 469.755 150.898 469.418 149.724 469.418C148.375 469.418 147.312 469.821 146.534 470.628C145.757 471.435 145.368 472.52 145.368 473.884V480H144.268V463.676H145.368V470.914C145.764 470.122 146.351 469.513 147.128 469.088C147.906 468.648 148.822 468.428 149.878 468.428ZM170.335 474.522H160.457C160.486 475.417 160.713 476.216 161.139 476.92C161.564 477.609 162.136 478.145 162.855 478.526C163.588 478.907 164.409 479.098 165.319 479.098C166.067 479.098 166.756 478.966 167.387 478.702C168.032 478.423 168.567 478.02 168.993 477.492L169.631 478.218C169.132 478.819 168.501 479.281 167.739 479.604C166.991 479.927 166.177 480.088 165.297 480.088C164.153 480.088 163.133 479.839 162.239 479.34C161.344 478.841 160.64 478.152 160.127 477.272C159.628 476.392 159.379 475.387 159.379 474.258C159.379 473.143 159.613 472.146 160.083 471.266C160.567 470.371 161.227 469.675 162.063 469.176C162.899 468.677 163.837 468.428 164.879 468.428C165.92 468.428 166.851 468.677 167.673 469.176C168.509 469.66 169.161 470.342 169.631 471.222C170.115 472.102 170.357 473.099 170.357 474.214L170.335 474.522ZM164.879 469.396C164.072 469.396 163.346 469.579 162.701 469.946C162.055 470.298 161.535 470.804 161.139 471.464C160.757 472.109 160.537 472.843 160.479 473.664H169.279C169.235 472.843 169.015 472.109 168.619 471.464C168.223 470.819 167.702 470.313 167.057 469.946C166.411 469.579 165.685 469.396 164.879 469.396ZM198.902 468.516L194.546 480H193.512L189.64 470.034L185.746 480H184.734L180.378 468.516H181.434L185.262 478.768L189.178 468.516H190.124L194.018 478.746L197.89 468.516H198.902ZM208.611 468.428C210.048 468.428 211.185 468.846 212.021 469.682C212.857 470.518 213.275 471.721 213.275 473.29V480H212.175V473.378C212.175 472.087 211.845 471.105 211.185 470.43C210.539 469.755 209.63 469.418 208.457 469.418C207.107 469.418 206.044 469.821 205.267 470.628C204.489 471.435 204.101 472.52 204.101 473.884V480H203.001V463.676H204.101V470.914C204.497 470.122 205.083 469.513 205.861 469.088C206.638 468.648 207.555 468.428 208.611 468.428ZM223.853 480.088C222.768 480.088 221.785 479.839 220.905 479.34C220.04 478.841 219.358 478.152 218.859 477.272C218.36 476.377 218.111 475.373 218.111 474.258C218.111 473.143 218.36 472.146 218.859 471.266C219.358 470.371 220.04 469.675 220.905 469.176C221.785 468.677 222.768 468.428 223.853 468.428C224.938 468.428 225.914 468.677 226.779 469.176C227.659 469.675 228.348 470.371 228.847 471.266C229.346 472.146 229.595 473.143 229.595 474.258C229.595 475.373 229.346 476.377 228.847 477.272C228.348 478.152 227.659 478.841 226.779 479.34C225.914 479.839 224.938 480.088 223.853 480.088ZM223.853 479.098C224.733 479.098 225.518 478.893 226.207 478.482C226.911 478.071 227.461 477.499 227.857 476.766C228.268 476.033 228.473 475.197 228.473 474.258C228.473 473.319 228.268 472.483 227.857 471.75C227.461 471.017 226.911 470.445 226.207 470.034C225.518 469.623 224.733 469.418 223.853 469.418C222.973 469.418 222.181 469.623 221.477 470.034C220.788 470.445 220.238 471.017 219.827 471.75C219.431 472.483 219.233 473.319 219.233 474.258C219.233 475.197 219.431 476.033 219.827 476.766C220.238 477.499 220.788 478.071 221.477 478.482C222.181 478.893 222.973 479.098 223.853 479.098ZM234.548 463.676H235.648V480H234.548V463.676ZM251.526 474.522H241.648C241.677 475.417 241.905 476.216 242.33 476.92C242.755 477.609 243.327 478.145 244.046 478.526C244.779 478.907 245.601 479.098 246.51 479.098C247.258 479.098 247.947 478.966 248.578 478.702C249.223 478.423 249.759 478.02 250.184 477.492L250.822 478.218C250.323 478.819 249.693 479.281 248.93 479.604C248.182 479.927 247.368 480.088 246.488 480.088C245.344 480.088 244.325 479.839 243.43 479.34C242.535 478.841 241.831 478.152 241.318 477.272C240.819 476.392 240.57 475.387 240.57 474.258C240.57 473.143 240.805 472.146 241.274 471.266C241.758 470.371 242.418 469.675 243.254 469.176C244.09 468.677 245.029 468.428 246.07 468.428C247.111 468.428 248.043 468.677 248.864 469.176C249.7 469.66 250.353 470.342 250.822 471.222C251.306 472.102 251.548 473.099 251.548 474.214L251.526 474.522ZM246.07 469.396C245.263 469.396 244.537 469.579 243.892 469.946C243.247 470.298 242.726 470.804 242.33 471.464C241.949 472.109 241.729 472.843 241.67 473.664H250.47C250.426 472.843 250.206 472.109 249.81 471.464C249.414 470.819 248.893 470.313 248.248 469.946C247.603 469.579 246.877 469.396 246.07 469.396ZM269.445 468.428C270.516 468.428 271.484 468.677 272.349 469.176C273.215 469.675 273.889 470.364 274.373 471.244C274.872 472.124 275.121 473.129 275.121 474.258C275.121 475.387 274.872 476.399 274.373 477.294C273.889 478.174 273.215 478.863 272.349 479.362C271.484 479.846 270.516 480.088 269.445 480.088C268.433 480.088 267.517 479.853 266.695 479.384C265.874 478.9 265.236 478.233 264.781 477.382V484.268H263.681V468.516H264.737V471.222C265.192 470.342 265.83 469.66 266.651 469.176C267.487 468.677 268.419 468.428 269.445 468.428ZM269.379 479.098C270.259 479.098 271.051 478.893 271.755 478.482C272.459 478.071 273.009 477.499 273.405 476.766C273.816 476.033 274.021 475.197 274.021 474.258C274.021 473.319 273.816 472.483 273.405 471.75C273.009 471.017 272.459 470.445 271.755 470.034C271.051 469.623 270.259 469.418 269.379 469.418C268.499 469.418 267.707 469.623 267.003 470.034C266.314 470.445 265.764 471.017 265.353 471.75C264.957 472.483 264.759 473.319 264.759 474.258C264.759 475.197 264.957 476.033 265.353 476.766C265.764 477.499 266.314 478.071 267.003 478.482C267.707 478.893 268.499 479.098 269.379 479.098ZM290.121 468.516V480H289.065V477.536C288.684 478.343 288.119 478.973 287.371 479.428C286.623 479.868 285.743 480.088 284.731 480.088C283.235 480.088 282.062 479.67 281.211 478.834C280.36 477.998 279.935 476.795 279.935 475.226V468.516H281.035V475.138C281.035 476.429 281.365 477.411 282.025 478.086C282.685 478.761 283.616 479.098 284.819 479.098C286.11 479.098 287.129 478.695 287.877 477.888C288.64 477.081 289.021 475.996 289.021 474.632V468.516H290.121ZM297.38 471.024C297.732 470.188 298.282 469.55 299.03 469.11C299.778 468.655 300.687 468.428 301.758 468.428V469.506L301.494 469.484C300.218 469.484 299.22 469.887 298.502 470.694C297.783 471.486 297.424 472.593 297.424 474.016V480H296.324V468.516H297.38V471.024ZM312.093 468.428C313.163 468.428 314.131 468.677 314.997 469.176C315.862 469.675 316.537 470.364 317.021 471.244C317.519 472.124 317.769 473.129 317.769 474.258C317.769 475.387 317.519 476.399 317.021 477.294C316.537 478.174 315.862 478.863 314.997 479.362C314.131 479.846 313.163 480.088 312.093 480.088C311.081 480.088 310.164 479.853 309.343 479.384C308.521 478.9 307.883 478.233 307.429 477.382V484.268H306.329V468.516H307.385V471.222C307.839 470.342 308.477 469.66 309.299 469.176C310.135 468.677 311.066 468.428 312.093 468.428ZM312.027 479.098C312.907 479.098 313.699 478.893 314.403 478.482C315.107 478.071 315.657 477.499 316.053 476.766C316.463 476.033 316.669 475.197 316.669 474.258C316.669 473.319 316.463 472.483 316.053 471.75C315.657 471.017 315.107 470.445 314.403 470.034C313.699 469.623 312.907 469.418 312.027 469.418C311.147 469.418 310.355 469.623 309.651 470.034C308.961 470.445 308.411 471.017 308.001 471.75C307.605 472.483 307.407 473.319 307.407 474.258C307.407 475.197 307.605 476.033 308.001 476.766C308.411 477.499 308.961 478.071 309.651 478.482C310.355 478.893 311.147 479.098 312.027 479.098ZM327.202 480.088C326.117 480.088 325.134 479.839 324.254 479.34C323.389 478.841 322.707 478.152 322.208 477.272C321.71 476.377 321.46 475.373 321.46 474.258C321.46 473.143 321.71 472.146 322.208 471.266C322.707 470.371 323.389 469.675 324.254 469.176C325.134 468.677 326.117 468.428 327.202 468.428C328.288 468.428 329.263 468.677 330.128 469.176C331.008 469.675 331.698 470.371 332.196 471.266C332.695 472.146 332.944 473.143 332.944 474.258C332.944 475.373 332.695 476.377 332.196 477.272C331.698 478.152 331.008 478.841 330.128 479.34C329.263 479.839 328.288 480.088 327.202 480.088ZM327.202 479.098C328.082 479.098 328.867 478.893 329.556 478.482C330.26 478.071 330.81 477.499 331.206 476.766C331.617 476.033 331.822 475.197 331.822 474.258C331.822 473.319 331.617 472.483 331.206 471.75C330.81 471.017 330.26 470.445 329.556 470.034C328.867 469.623 328.082 469.418 327.202 469.418C326.322 469.418 325.53 469.623 324.826 470.034C324.137 470.445 323.587 471.017 323.176 471.75C322.78 472.483 322.582 473.319 322.582 474.258C322.582 475.197 322.78 476.033 323.176 476.766C323.587 477.499 324.137 478.071 324.826 478.482C325.53 478.893 326.322 479.098 327.202 479.098ZM340.801 480.088C339.877 480.088 338.997 479.949 338.161 479.67C337.325 479.391 336.672 479.039 336.203 478.614L336.709 477.734C337.178 478.13 337.78 478.46 338.513 478.724C339.261 478.988 340.038 479.12 340.845 479.12C342.004 479.12 342.854 478.929 343.397 478.548C343.954 478.167 344.233 477.639 344.233 476.964C344.233 476.48 344.079 476.099 343.771 475.82C343.478 475.541 343.111 475.336 342.671 475.204C342.231 475.072 341.622 474.933 340.845 474.786C339.936 474.625 339.202 474.449 338.645 474.258C338.088 474.067 337.611 473.759 337.215 473.334C336.819 472.909 336.621 472.322 336.621 471.574C336.621 470.665 336.995 469.917 337.743 469.33C338.506 468.729 339.584 468.428 340.977 468.428C341.71 468.428 342.436 468.531 343.155 468.736C343.874 468.941 344.46 469.213 344.915 469.55L344.409 470.43C343.94 470.093 343.404 469.836 342.803 469.66C342.202 469.484 341.586 469.396 340.955 469.396C339.884 469.396 339.078 469.594 338.535 469.99C337.992 470.386 337.721 470.907 337.721 471.552C337.721 472.065 337.875 472.469 338.183 472.762C338.491 473.041 338.865 473.253 339.305 473.4C339.76 473.532 340.39 473.679 341.197 473.84C342.092 474.001 342.81 474.177 343.353 474.368C343.91 474.544 344.38 474.837 344.761 475.248C345.142 475.659 345.333 476.223 345.333 476.942C345.333 477.895 344.937 478.658 344.145 479.23C343.353 479.802 342.238 480.088 340.801 480.088ZM359.645 474.522H349.767C349.796 475.417 350.023 476.216 350.449 476.92C350.874 477.609 351.446 478.145 352.165 478.526C352.898 478.907 353.719 479.098 354.629 479.098C355.377 479.098 356.066 478.966 356.697 478.702C357.342 478.423 357.877 478.02 358.303 477.492L358.941 478.218C358.442 478.819 357.811 479.281 357.049 479.604C356.301 479.927 355.487 480.088 354.607 480.088C353.463 480.088 352.443 479.839 351.549 479.34C350.654 478.841 349.95 478.152 349.437 477.272C348.938 476.392 348.689 475.387 348.689 474.258C348.689 473.143 348.923 472.146 349.393 471.266C349.877 470.371 350.537 469.675 351.373 469.176C352.209 468.677 353.147 468.428 354.189 468.428C355.23 468.428 356.161 468.677 356.983 469.176C357.819 469.66 358.471 470.342 358.941 471.222C359.425 472.102 359.667 473.099 359.667 474.214L359.645 474.522ZM354.189 469.396C353.382 469.396 352.656 469.579 352.011 469.946C351.365 470.298 350.845 470.804 350.449 471.464C350.067 472.109 349.847 472.843 349.789 473.664H358.589C358.545 472.843 358.325 472.109 357.929 471.464C357.533 470.819 357.012 470.313 356.367 469.946C355.721 469.579 354.995 469.396 354.189 469.396ZM134.82 507.088C133.735 507.088 132.752 506.839 131.872 506.34C131.007 505.841 130.325 505.152 129.826 504.272C129.327 503.377 129.078 502.373 129.078 501.258C129.078 500.143 129.327 499.146 129.826 498.266C130.325 497.371 131.007 496.675 131.872 496.176C132.752 495.677 133.735 495.428 134.82 495.428C135.905 495.428 136.881 495.677 137.746 496.176C138.626 496.675 139.315 497.371 139.814 498.266C140.313 499.146 140.562 500.143 140.562 501.258C140.562 502.373 140.313 503.377 139.814 504.272C139.315 505.152 138.626 505.841 137.746 506.34C136.881 506.839 135.905 507.088 134.82 507.088ZM134.82 506.098C135.7 506.098 136.485 505.893 137.174 505.482C137.878 505.071 138.428 504.499 138.824 503.766C139.235 503.033 139.44 502.197 139.44 501.258C139.44 500.319 139.235 499.483 138.824 498.75C138.428 498.017 137.878 497.445 137.174 497.034C136.485 496.623 135.7 496.418 134.82 496.418C133.94 496.418 133.148 496.623 132.444 497.034C131.755 497.445 131.205 498.017 130.794 498.75C130.398 499.483 130.2 500.319 130.2 501.258C130.2 502.197 130.398 503.033 130.794 503.766C131.205 504.499 131.755 505.071 132.444 505.482C133.148 505.893 133.94 506.098 134.82 506.098ZM148.969 491.534C147.531 491.534 146.813 492.304 146.813 493.844V495.516H150.487V496.462H146.835V507H145.735V496.462H143.623V495.516H145.735V493.756C145.735 492.788 146.013 492.018 146.571 491.446C147.128 490.874 147.913 490.588 148.925 490.588C149.365 490.588 149.783 490.654 150.179 490.786C150.589 490.903 150.927 491.087 151.191 491.336L150.751 492.172C150.281 491.747 149.687 491.534 148.969 491.534ZM171.166 501.522H161.288C161.317 502.417 161.544 503.216 161.97 503.92C162.395 504.609 162.967 505.145 163.686 505.526C164.419 505.907 165.24 506.098 166.15 506.098C166.898 506.098 167.587 505.966 168.218 505.702C168.863 505.423 169.398 505.02 169.824 504.492L170.462 505.218C169.963 505.819 169.332 506.281 168.57 506.604C167.822 506.927 167.008 507.088 166.128 507.088C164.984 507.088 163.964 506.839 163.07 506.34C162.175 505.841 161.471 505.152 160.958 504.272C160.459 503.392 160.21 502.387 160.21 501.258C160.21 500.143 160.444 499.146 160.914 498.266C161.398 497.371 162.058 496.675 162.894 496.176C163.73 495.677 164.668 495.428 165.71 495.428C166.751 495.428 167.682 495.677 168.504 496.176C169.34 496.66 169.992 497.342 170.462 498.222C170.946 499.102 171.188 500.099 171.188 501.214L171.166 501.522ZM165.71 496.396C164.903 496.396 164.177 496.579 163.532 496.946C162.886 497.298 162.366 497.804 161.97 498.464C161.588 499.109 161.368 499.843 161.31 500.664H170.11C170.066 499.843 169.846 499.109 169.45 498.464C169.054 497.819 168.533 497.313 167.888 496.946C167.242 496.579 166.516 496.396 165.71 496.396ZM186.339 490.676V507H185.261V504.294C184.806 505.189 184.168 505.878 183.347 506.362C182.525 506.846 181.594 507.088 180.553 507.088C179.482 507.088 178.514 506.839 177.649 506.34C176.783 505.841 176.101 505.152 175.603 504.272C175.119 503.392 174.877 502.387 174.877 501.258C174.877 500.129 175.119 499.124 175.603 498.244C176.101 497.349 176.783 496.66 177.649 496.176C178.514 495.677 179.482 495.428 180.553 495.428C181.579 495.428 182.496 495.67 183.303 496.154C184.124 496.638 184.769 497.313 185.239 498.178V490.676H186.339ZM180.619 506.098C181.499 506.098 182.283 505.893 182.973 505.482C183.677 505.071 184.227 504.499 184.623 503.766C185.033 503.033 185.239 502.197 185.239 501.258C185.239 500.319 185.033 499.483 184.623 498.75C184.227 498.017 183.677 497.445 182.973 497.034C182.283 496.623 181.499 496.418 180.619 496.418C179.739 496.418 178.947 496.623 178.243 497.034C177.553 497.445 177.003 498.017 176.593 498.75C176.197 499.483 175.999 500.319 175.999 501.258C175.999 502.197 176.197 503.033 176.593 503.766C177.003 504.499 177.553 505.071 178.243 505.482C178.947 505.893 179.739 506.098 180.619 506.098ZM202.57 495.516V507H201.514V504.536C201.133 505.343 200.568 505.973 199.82 506.428C199.072 506.868 198.192 507.088 197.18 507.088C195.684 507.088 194.511 506.67 193.66 505.834C192.81 504.998 192.384 503.795 192.384 502.226V495.516H193.484V502.138C193.484 503.429 193.814 504.411 194.474 505.086C195.134 505.761 196.066 506.098 197.268 506.098C198.559 506.098 199.578 505.695 200.326 504.888C201.089 504.081 201.47 502.996 201.47 501.632V495.516H202.57ZM213.327 507.088C212.213 507.088 211.215 506.839 210.335 506.34C209.455 505.841 208.766 505.152 208.267 504.272C207.769 503.377 207.519 502.373 207.519 501.258C207.519 500.129 207.769 499.124 208.267 498.244C208.766 497.349 209.455 496.66 210.335 496.176C211.215 495.677 212.213 495.428 213.327 495.428C214.251 495.428 215.087 495.611 215.835 495.978C216.598 496.33 217.214 496.851 217.683 497.54L216.869 498.134C216.459 497.562 215.945 497.137 215.329 496.858C214.728 496.565 214.061 496.418 213.327 496.418C212.433 496.418 211.626 496.623 210.907 497.034C210.203 497.43 209.646 497.995 209.235 498.728C208.839 499.461 208.641 500.305 208.641 501.258C208.641 502.211 208.839 503.055 209.235 503.788C209.646 504.521 210.203 505.093 210.907 505.504C211.626 505.9 212.433 506.098 213.327 506.098C214.061 506.098 214.728 505.959 215.329 505.68C215.945 505.387 216.459 504.954 216.869 504.382L217.683 504.976C217.214 505.665 216.598 506.193 215.835 506.56C215.087 506.912 214.251 507.088 213.327 507.088ZM226.388 495.428C227.811 495.428 228.904 495.795 229.666 496.528C230.429 497.247 230.81 498.31 230.81 499.718V507H229.754V504.954C229.388 505.629 228.852 506.157 228.148 506.538C227.444 506.905 226.601 507.088 225.618 507.088C224.342 507.088 223.33 506.787 222.582 506.186C221.849 505.585 221.482 504.793 221.482 503.81C221.482 502.857 221.82 502.087 222.494 501.5C223.184 500.899 224.276 500.598 225.772 500.598H229.71V499.674C229.71 498.603 229.417 497.789 228.83 497.232C228.258 496.675 227.415 496.396 226.3 496.396C225.538 496.396 224.804 496.528 224.1 496.792C223.411 497.056 222.824 497.408 222.34 497.848L221.79 497.056C222.362 496.543 223.052 496.147 223.858 495.868C224.665 495.575 225.508 495.428 226.388 495.428ZM225.772 506.186C226.726 506.186 227.532 505.966 228.192 505.526C228.867 505.086 229.373 504.448 229.71 503.612V501.456H225.794C224.665 501.456 223.844 501.661 223.33 502.072C222.832 502.483 222.582 503.047 222.582 503.766C222.582 504.514 222.861 505.108 223.418 505.548C223.976 505.973 224.76 506.186 225.772 506.186ZM242.58 506.274C242.302 506.538 241.95 506.743 241.524 506.89C241.114 507.022 240.681 507.088 240.226 507.088C239.229 507.088 238.459 506.817 237.916 506.274C237.374 505.717 237.102 504.947 237.102 503.964V496.462H234.99V495.516H237.102V493.008H238.202V495.516H241.854V496.462H238.202V503.854C238.202 504.602 238.378 505.174 238.73 505.57C239.097 505.951 239.632 506.142 240.336 506.142C241.055 506.142 241.649 505.929 242.118 505.504L242.58 506.274ZM247.188 495.516H248.288V507H247.188V495.516ZM247.738 492.722C247.489 492.722 247.276 492.641 247.1 492.48C246.924 492.304 246.836 492.091 246.836 491.842C246.836 491.593 246.924 491.38 247.1 491.204C247.276 491.028 247.489 490.94 247.738 490.94C247.987 490.94 248.2 491.028 248.376 491.204C248.552 491.365 248.64 491.571 248.64 491.82C248.64 492.069 248.552 492.282 248.376 492.458C248.2 492.634 247.987 492.722 247.738 492.722ZM258.952 507.088C257.867 507.088 256.884 506.839 256.004 506.34C255.139 505.841 254.457 505.152 253.958 504.272C253.46 503.377 253.21 502.373 253.21 501.258C253.21 500.143 253.46 499.146 253.958 498.266C254.457 497.371 255.139 496.675 256.004 496.176C256.884 495.677 257.867 495.428 258.952 495.428C260.038 495.428 261.013 495.677 261.878 496.176C262.758 496.675 263.448 497.371 263.946 498.266C264.445 499.146 264.694 500.143 264.694 501.258C264.694 502.373 264.445 503.377 263.946 504.272C263.448 505.152 262.758 505.841 261.878 506.34C261.013 506.839 260.038 507.088 258.952 507.088ZM258.952 506.098C259.832 506.098 260.617 505.893 261.306 505.482C262.01 505.071 262.56 504.499 262.956 503.766C263.367 503.033 263.572 502.197 263.572 501.258C263.572 500.319 263.367 499.483 262.956 498.75C262.56 498.017 262.01 497.445 261.306 497.034C260.617 496.623 259.832 496.418 258.952 496.418C258.072 496.418 257.28 496.623 256.576 497.034C255.887 497.445 255.337 498.017 254.926 498.75C254.53 499.483 254.332 500.319 254.332 501.258C254.332 502.197 254.53 503.033 254.926 503.766C255.337 504.499 255.887 505.071 256.576 505.482C257.28 505.893 258.072 506.098 258.952 506.098ZM275.257 495.428C276.694 495.428 277.831 495.846 278.667 496.682C279.503 497.518 279.921 498.721 279.921 500.29V507H278.821V500.378C278.821 499.087 278.491 498.105 277.831 497.43C277.186 496.755 276.276 496.418 275.103 496.418C273.754 496.418 272.69 496.821 271.913 497.628C271.136 498.435 270.747 499.52 270.747 500.884V507H269.647V495.516H270.703V498.002C271.099 497.195 271.686 496.565 272.463 496.11C273.255 495.655 274.186 495.428 275.257 495.428ZM293.18 495.516H294.28V507H293.18V495.516ZM293.73 492.722C293.481 492.722 293.268 492.641 293.092 492.48C292.916 492.304 292.828 492.091 292.828 491.842C292.828 491.593 292.916 491.38 293.092 491.204C293.268 491.028 293.481 490.94 293.73 490.94C293.979 490.94 294.192 491.028 294.368 491.204C294.544 491.365 294.632 491.571 294.632 491.82C294.632 492.069 294.544 492.282 294.368 492.458C294.192 492.634 293.979 492.722 293.73 492.722ZM303.36 507.088C302.436 507.088 301.556 506.949 300.72 506.67C299.884 506.391 299.232 506.039 298.762 505.614L299.268 504.734C299.738 505.13 300.339 505.46 301.072 505.724C301.82 505.988 302.598 506.12 303.404 506.12C304.563 506.12 305.414 505.929 305.956 505.548C306.514 505.167 306.792 504.639 306.792 503.964C306.792 503.48 306.638 503.099 306.33 502.82C306.037 502.541 305.67 502.336 305.23 502.204C304.79 502.072 304.182 501.933 303.404 501.786C302.495 501.625 301.762 501.449 301.204 501.258C300.647 501.067 300.17 500.759 299.774 500.334C299.378 499.909 299.18 499.322 299.18 498.574C299.18 497.665 299.554 496.917 300.302 496.33C301.065 495.729 302.143 495.428 303.536 495.428C304.27 495.428 304.996 495.531 305.714 495.736C306.433 495.941 307.02 496.213 307.474 496.55L306.968 497.43C306.499 497.093 305.964 496.836 305.362 496.66C304.761 496.484 304.145 496.396 303.514 496.396C302.444 496.396 301.637 496.594 301.094 496.99C300.552 497.386 300.28 497.907 300.28 498.552C300.28 499.065 300.434 499.469 300.742 499.762C301.05 500.041 301.424 500.253 301.864 500.4C302.319 500.532 302.95 500.679 303.756 500.84C304.651 501.001 305.37 501.177 305.912 501.368C306.47 501.544 306.939 501.837 307.32 502.248C307.702 502.659 307.892 503.223 307.892 503.942C307.892 504.895 307.496 505.658 306.704 506.23C305.912 506.802 304.798 507.088 303.36 507.088ZM325.391 506.274C325.112 506.538 324.76 506.743 324.335 506.89C323.924 507.022 323.491 507.088 323.037 507.088C322.039 507.088 321.269 506.817 320.727 506.274C320.184 505.717 319.913 504.947 319.913 503.964V496.462H317.801V495.516H319.913V493.008H321.013V495.516H324.665V496.462H321.013V503.854C321.013 504.602 321.189 505.174 321.541 505.57C321.907 505.951 322.443 506.142 323.147 506.142C323.865 506.142 324.459 505.929 324.929 505.504L325.391 506.274ZM334.078 507.088C332.993 507.088 332.01 506.839 331.13 506.34C330.265 505.841 329.583 505.152 329.084 504.272C328.585 503.377 328.336 502.373 328.336 501.258C328.336 500.143 328.585 499.146 329.084 498.266C329.583 497.371 330.265 496.675 331.13 496.176C332.01 495.677 332.993 495.428 334.078 495.428C335.163 495.428 336.139 495.677 337.004 496.176C337.884 496.675 338.573 497.371 339.072 498.266C339.571 499.146 339.82 500.143 339.82 501.258C339.82 502.373 339.571 503.377 339.072 504.272C338.573 505.152 337.884 505.841 337.004 506.34C336.139 506.839 335.163 507.088 334.078 507.088ZM334.078 506.098C334.958 506.098 335.743 505.893 336.432 505.482C337.136 505.071 337.686 504.499 338.082 503.766C338.493 503.033 338.698 502.197 338.698 501.258C338.698 500.319 338.493 499.483 338.082 498.75C337.686 498.017 337.136 497.445 336.432 497.034C335.743 496.623 334.958 496.418 334.078 496.418C333.198 496.418 332.406 496.623 331.702 497.034C331.013 497.445 330.463 498.017 330.052 498.75C329.656 499.483 329.458 500.319 329.458 501.258C329.458 502.197 329.656 503.033 330.052 503.766C330.463 504.499 331.013 505.071 331.702 505.482C332.406 505.893 333.198 506.098 334.078 506.098ZM136.03 533.274C135.751 533.538 135.399 533.743 134.974 533.89C134.563 534.022 134.131 534.088 133.676 534.088C132.679 534.088 131.909 533.817 131.366 533.274C130.823 532.717 130.552 531.947 130.552 530.964V523.462H128.44V522.516H130.552V520.008H131.652V522.516H135.304V523.462H131.652V530.854C131.652 531.602 131.828 532.174 132.18 532.57C132.547 532.951 133.082 533.142 133.786 533.142C134.505 533.142 135.099 532.929 135.568 532.504L136.03 533.274ZM150.692 522.516V534H149.636V531.536C149.254 532.343 148.69 532.973 147.942 533.428C147.194 533.868 146.314 534.088 145.302 534.088C143.806 534.088 142.632 533.67 141.782 532.834C140.931 531.998 140.506 530.795 140.506 529.226V522.516H141.606V529.138C141.606 530.429 141.936 531.411 142.596 532.086C143.256 532.761 144.187 533.098 145.39 533.098C146.68 533.098 147.7 532.695 148.448 531.888C149.21 531.081 149.592 529.996 149.592 528.632V522.516H150.692ZM157.95 525.024C158.302 524.188 158.852 523.55 159.6 523.11C160.348 522.655 161.258 522.428 162.328 522.428V523.506L162.064 523.484C160.788 523.484 159.791 523.887 159.072 524.694C158.354 525.486 157.994 526.593 157.994 528.016V534H156.894V522.516H157.95V525.024ZM172.509 522.428C173.947 522.428 175.083 522.846 175.919 523.682C176.755 524.518 177.173 525.721 177.173 527.29V534H176.073V527.378C176.073 526.087 175.743 525.105 175.083 524.43C174.438 523.755 173.529 523.418 172.355 523.418C171.006 523.418 169.943 523.821 169.165 524.628C168.388 525.435 167.999 526.52 167.999 527.884V534H166.899V522.516H167.955V525.002C168.351 524.195 168.938 523.565 169.715 523.11C170.507 522.655 171.439 522.428 172.509 522.428ZM205.59 522.34C206.896 522.34 207.9 522.67 208.604 523.33C209.323 523.975 209.682 524.885 209.682 526.058C209.682 526.395 209.631 526.85 209.528 527.422L208.208 534H206.646L207.966 527.4C208.04 527.063 208.076 526.703 208.076 526.322C208.076 525.501 207.834 524.87 207.35 524.43C206.866 523.975 206.155 523.748 205.216 523.748C204.043 523.748 203.068 524.078 202.29 524.738C201.513 525.383 200.992 526.344 200.728 527.62L199.452 534H197.89L199.21 527.4C199.284 526.989 199.32 526.637 199.32 526.344C199.32 525.508 199.078 524.87 198.594 524.43C198.125 523.975 197.414 523.748 196.46 523.748C195.272 523.748 194.29 524.093 193.512 524.782C192.735 525.457 192.207 526.461 191.928 527.796L190.696 534H189.134L191.422 522.428H192.918L192.544 524.276C193.6 522.985 195.06 522.34 196.922 522.34C197.89 522.34 198.697 522.538 199.342 522.934C200.002 523.33 200.457 523.902 200.706 524.65C201.278 523.887 201.975 523.315 202.796 522.934C203.632 522.538 204.564 522.34 205.59 522.34ZM216.294 522.428H217.856L215.568 534H214.006L216.294 522.428ZM217.746 519.898C217.438 519.898 217.182 519.795 216.976 519.59C216.786 519.385 216.69 519.143 216.69 518.864C216.69 518.527 216.8 518.248 217.02 518.028C217.255 517.793 217.548 517.676 217.9 517.676C218.208 517.676 218.465 517.779 218.67 517.984C218.876 518.175 218.978 518.402 218.978 518.666C218.978 519.018 218.861 519.311 218.626 519.546C218.392 519.781 218.098 519.898 217.746 519.898ZM224.843 524.54C225.356 523.792 226.001 523.242 226.779 522.89C227.556 522.523 228.495 522.34 229.595 522.34L229.309 523.858L228.869 523.836C227.622 523.836 226.595 524.195 225.789 524.914C224.997 525.633 224.461 526.703 224.183 528.126L223.017 534H221.455L223.743 522.428H225.239L224.843 524.54ZM235.041 524.54C235.554 523.792 236.199 523.242 236.977 522.89C237.754 522.523 238.693 522.34 239.793 522.34L239.507 523.858L239.067 523.836C237.82 523.836 236.793 524.195 235.987 524.914C235.195 525.633 234.659 526.703 234.381 528.126L233.215 534H231.653L233.941 522.428H235.437L235.041 524.54ZM246.892 534.11C245.836 534.11 244.912 533.912 244.12 533.516C243.328 533.105 242.712 532.533 242.272 531.8C241.846 531.052 241.634 530.187 241.634 529.204C241.634 527.899 241.92 526.725 242.492 525.684C243.064 524.643 243.856 523.829 244.868 523.242C245.894 522.641 247.046 522.34 248.322 522.34C249.935 522.34 251.211 522.78 252.15 523.66C253.103 524.54 253.58 525.728 253.58 527.224C253.58 528.529 253.294 529.71 252.722 530.766C252.15 531.807 251.35 532.629 250.324 533.23C249.312 533.817 248.168 534.11 246.892 534.11ZM247.002 532.724C247.955 532.724 248.813 532.497 249.576 532.042C250.338 531.573 250.932 530.927 251.358 530.106C251.798 529.27 252.018 528.339 252.018 527.312C252.018 526.183 251.68 525.303 251.006 524.672C250.346 524.027 249.414 523.704 248.212 523.704C247.258 523.704 246.4 523.939 245.638 524.408C244.875 524.877 244.274 525.53 243.834 526.366C243.408 527.187 243.196 528.111 243.196 529.138C243.196 530.267 243.526 531.147 244.186 531.778C244.86 532.409 245.799 532.724 247.002 532.724ZM260.465 524.54C260.978 523.792 261.623 523.242 262.401 522.89C263.178 522.523 264.117 522.34 265.217 522.34L264.931 523.858L264.491 523.836C263.244 523.836 262.217 524.195 261.411 524.914C260.619 525.633 260.083 526.703 259.805 528.126L258.639 534H257.077L259.365 522.428H260.861L260.465 524.54ZM270.727 534.11C269.803 534.11 268.915 533.978 268.065 533.714C267.229 533.45 266.583 533.113 266.129 532.702L266.877 531.47C267.317 531.851 267.896 532.159 268.615 532.394C269.333 532.629 270.089 532.746 270.881 532.746C271.981 532.746 272.824 532.57 273.411 532.218C274.012 531.851 274.313 531.338 274.313 530.678C274.313 530.311 274.188 530.018 273.939 529.798C273.704 529.578 273.411 529.409 273.059 529.292C272.707 529.175 272.193 529.043 271.519 528.896C270.712 528.72 270.059 528.544 269.561 528.368C269.062 528.192 268.637 527.913 268.285 527.532C267.933 527.151 267.757 526.623 267.757 525.948C267.757 524.848 268.211 523.975 269.121 523.33C270.03 522.67 271.247 522.34 272.773 522.34C273.521 522.34 274.247 522.443 274.951 522.648C275.669 522.839 276.249 523.095 276.689 523.418L276.029 524.672C275.589 524.349 275.068 524.107 274.467 523.946C273.88 523.77 273.271 523.682 272.641 523.682C271.585 523.682 270.763 523.873 270.177 524.254C269.59 524.635 269.297 525.149 269.297 525.794C269.297 526.175 269.421 526.483 269.671 526.718C269.92 526.953 270.228 527.129 270.595 527.246C270.976 527.363 271.489 527.488 272.135 527.62C272.927 527.796 273.565 527.972 274.049 528.148C274.547 528.309 274.973 528.581 275.325 528.962C275.677 529.343 275.853 529.857 275.853 530.502C275.853 531.631 275.383 532.519 274.445 533.164C273.521 533.795 272.281 534.11 270.727 534.11ZM288.153 522.516H289.253V534H288.153V522.516ZM288.703 519.722C288.453 519.722 288.241 519.641 288.065 519.48C287.889 519.304 287.801 519.091 287.801 518.842C287.801 518.593 287.889 518.38 288.065 518.204C288.241 518.028 288.453 517.94 288.703 517.94C288.952 517.94 289.165 518.028 289.341 518.204C289.517 518.365 289.605 518.571 289.605 518.82C289.605 519.069 289.517 519.282 289.341 519.458C289.165 519.634 288.952 519.722 288.703 519.722ZM301.039 522.428C302.476 522.428 303.613 522.846 304.449 523.682C305.285 524.518 305.703 525.721 305.703 527.29V534H304.603V527.378C304.603 526.087 304.273 525.105 303.613 524.43C302.968 523.755 302.058 523.418 300.885 523.418C299.536 523.418 298.472 523.821 297.695 524.628C296.918 525.435 296.529 526.52 296.529 527.884V534H295.429V522.516H296.485V525.002C296.881 524.195 297.468 523.565 298.245 523.11C299.037 522.655 299.968 522.428 301.039 522.428ZM317.47 533.274C317.191 533.538 316.839 533.743 316.414 533.89C316.003 534.022 315.571 534.088 315.116 534.088C314.119 534.088 313.349 533.817 312.806 533.274C312.263 532.717 311.992 531.947 311.992 530.964V523.462H309.88V522.516H311.992V520.008H313.092V522.516H316.744V523.462H313.092V530.854C313.092 531.602 313.268 532.174 313.62 532.57C313.987 532.951 314.522 533.142 315.226 533.142C315.945 533.142 316.539 532.929 317.008 532.504L317.47 533.274ZM326.157 534.088C325.072 534.088 324.089 533.839 323.209 533.34C322.344 532.841 321.662 532.152 321.163 531.272C320.665 530.377 320.415 529.373 320.415 528.258C320.415 527.143 320.665 526.146 321.163 525.266C321.662 524.371 322.344 523.675 323.209 523.176C324.089 522.677 325.072 522.428 326.157 522.428C327.243 522.428 328.218 522.677 329.083 523.176C329.963 523.675 330.653 524.371 331.151 525.266C331.65 526.146 331.899 527.143 331.899 528.258C331.899 529.373 331.65 530.377 331.151 531.272C330.653 532.152 329.963 532.841 329.083 533.34C328.218 533.839 327.243 534.088 326.157 534.088ZM326.157 533.098C327.037 533.098 327.822 532.893 328.511 532.482C329.215 532.071 329.765 531.499 330.161 530.766C330.572 530.033 330.777 529.197 330.777 528.258C330.777 527.319 330.572 526.483 330.161 525.75C329.765 525.017 329.215 524.445 328.511 524.034C327.822 523.623 327.037 523.418 326.157 523.418C325.277 523.418 324.485 523.623 323.781 524.034C323.092 524.445 322.542 525.017 322.131 525.75C321.735 526.483 321.537 527.319 321.537 528.258C321.537 529.197 321.735 530.033 322.131 530.766C322.542 531.499 323.092 532.071 323.781 532.482C324.485 532.893 325.277 533.098 326.157 533.098ZM148.416 549.428L141.882 561H140.364L138.428 551.54L133.016 561H131.52L129.254 549.428H130.684L132.554 559.24L138.142 549.428H139.462L141.398 559.24L146.898 549.428H148.416ZM152.198 549.428H153.76L151.472 561H149.91L152.198 549.428ZM153.65 546.898C153.342 546.898 153.085 546.795 152.88 546.59C152.689 546.385 152.594 546.143 152.594 545.864C152.594 545.527 152.704 545.248 152.924 545.028C153.159 544.793 153.452 544.676 153.804 544.676C154.112 544.676 154.369 544.779 154.574 544.984C154.779 545.175 154.882 545.402 154.882 545.666C154.882 546.018 154.765 546.311 154.53 546.546C154.295 546.781 154.002 546.898 153.65 546.898ZM165.3 549.34C166.605 549.34 167.617 549.677 168.336 550.352C169.069 551.012 169.436 551.929 169.436 553.102C169.436 553.513 169.392 553.953 169.304 554.422L167.984 561H166.422L167.742 554.4C167.815 553.989 167.852 553.637 167.852 553.344C167.852 552.508 167.595 551.87 167.082 551.43C166.583 550.975 165.843 550.748 164.86 550.748C163.613 550.748 162.587 551.093 161.78 551.782C160.973 552.457 160.431 553.461 160.152 554.796L158.92 561H157.358L159.646 549.428H161.142L160.768 551.276C161.868 549.985 163.379 549.34 165.3 549.34ZM187.646 544.676L184.39 561H182.894L183.268 559.174C182.71 559.79 182.05 560.267 181.288 560.604C180.525 560.941 179.682 561.11 178.758 561.11C177.775 561.11 176.902 560.912 176.14 560.516C175.377 560.12 174.783 559.555 174.358 558.822C173.932 558.074 173.72 557.201 173.72 556.204C173.72 554.899 173.998 553.725 174.556 552.684C175.128 551.643 175.912 550.829 176.91 550.242C177.907 549.641 179.022 549.34 180.254 549.34C181.339 549.34 182.256 549.56 183.004 550C183.766 550.425 184.316 551.041 184.654 551.848L186.084 544.676H187.646ZM179.088 559.724C180.041 559.724 180.899 559.497 181.662 559.042C182.424 558.573 183.018 557.927 183.444 557.106C183.884 556.27 184.104 555.339 184.104 554.312C184.104 553.183 183.766 552.303 183.092 551.672C182.432 551.027 181.5 550.704 180.298 550.704C179.344 550.704 178.486 550.939 177.724 551.408C176.961 551.877 176.36 552.53 175.92 553.366C175.494 554.187 175.282 555.111 175.282 556.138C175.282 557.267 175.612 558.147 176.272 558.778C176.946 559.409 177.885 559.724 179.088 559.724ZM195.428 561.11C194.372 561.11 193.448 560.912 192.656 560.516C191.864 560.105 191.248 559.533 190.808 558.8C190.383 558.052 190.17 557.187 190.17 556.204C190.17 554.899 190.456 553.725 191.028 552.684C191.6 551.643 192.392 550.829 193.404 550.242C194.431 549.641 195.582 549.34 196.858 549.34C198.471 549.34 199.747 549.78 200.686 550.66C201.639 551.54 202.116 552.728 202.116 554.224C202.116 555.529 201.83 556.71 201.258 557.766C200.686 558.807 199.887 559.629 198.86 560.23C197.848 560.817 196.704 561.11 195.428 561.11ZM195.538 559.724C196.491 559.724 197.349 559.497 198.112 559.042C198.875 558.573 199.469 557.927 199.894 557.106C200.334 556.27 200.554 555.339 200.554 554.312C200.554 553.183 200.217 552.303 199.542 551.672C198.882 551.027 197.951 550.704 196.748 550.704C195.795 550.704 194.937 550.939 194.174 551.408C193.411 551.877 192.81 552.53 192.37 553.366C191.945 554.187 191.732 555.111 191.732 556.138C191.732 557.267 192.062 558.147 192.722 558.778C193.397 559.409 194.335 559.724 195.538 559.724ZM224.673 549.428L218.139 561H216.621L214.685 551.54L209.273 561H207.777L205.511 549.428H206.941L208.811 559.24L214.399 549.428H215.719L217.655 559.24L223.155 549.428H224.673ZM229.404 561.11C228.48 561.11 227.592 560.978 226.742 560.714C225.906 560.45 225.26 560.113 224.806 559.702L225.554 558.47C225.994 558.851 226.573 559.159 227.292 559.394C228.01 559.629 228.766 559.746 229.558 559.746C230.658 559.746 231.501 559.57 232.088 559.218C232.689 558.851 232.99 558.338 232.99 557.678C232.99 557.311 232.865 557.018 232.616 556.798C232.381 556.578 232.088 556.409 231.736 556.292C231.384 556.175 230.87 556.043 230.196 555.896C229.389 555.72 228.736 555.544 228.238 555.368C227.739 555.192 227.314 554.913 226.962 554.532C226.61 554.151 226.434 553.623 226.434 552.948C226.434 551.848 226.888 550.975 227.798 550.33C228.707 549.67 229.924 549.34 231.45 549.34C232.198 549.34 232.924 549.443 233.628 549.648C234.346 549.839 234.926 550.095 235.366 550.418L234.706 551.672C234.266 551.349 233.745 551.107 233.144 550.946C232.557 550.77 231.948 550.682 231.318 550.682C230.262 550.682 229.44 550.873 228.854 551.254C228.267 551.635 227.974 552.149 227.974 552.794C227.974 553.175 228.098 553.483 228.348 553.718C228.597 553.953 228.905 554.129 229.272 554.246C229.653 554.363 230.166 554.488 230.812 554.62C231.604 554.796 232.242 554.972 232.726 555.148C233.224 555.309 233.65 555.581 234.002 555.962C234.354 556.343 234.53 556.857 234.53 557.502C234.53 558.631 234.06 559.519 233.122 560.164C232.198 560.795 230.958 561.11 229.404 561.11ZM239.507 561.088C239.258 561.088 239.038 561 238.847 560.824C238.671 560.633 238.583 560.406 238.583 560.142C238.583 559.878 238.671 559.658 238.847 559.482C239.038 559.306 239.258 559.218 239.507 559.218C239.757 559.218 239.969 559.306 240.145 559.482C240.336 559.658 240.431 559.878 240.431 560.142C240.431 560.406 240.336 560.633 240.145 560.824C239.969 561 239.757 561.088 239.507 561.088Z" fill="#413170"/>
</svg>
